<svg xmlns="http://www.w3.org/2000/svg" xmlns:xlink="http://www.w3.org/1999/xlink" fill="none" version="1.1" width="85.01443481445312" height="85" viewBox="0 0 85.01443481445312 85"><path d="M84.949997,15C84.949997,15,84.949997,41.5,84.949997,41.5C84.949997,41.5,79.5,36.049999,79.5,36.049999C76.400002,33,71.449997,32.950001,68.300003,35.950001C68.300003,35.950001,63.5,40.599998,63.5,40.599998C63.5,40.599998,48.200001,24.9,48.200001,24.9C45.099998,21.75,40.049999,21.65,36.900002,24.75C36.900002,24.75,36.75,24.9,36.75,24.9C36.75,24.9,19.799999,42.450001,19.799999,42.450001C19.799999,42.450001,16.4,39.049999,16.4,39.049999C13.25,35.950001,8.1999998,35.950001,5.0999999,39.099998C5.0999999,39.099998,0.1,44.099998,0.1,44.099998C0.1,44.099998,0,15,0,15C0,6.6999998,6.6999998,0,15,0C15,0,69.949997,0,69.949997,0C78.199997,0,84.949997,6.6999998,84.949997,15C84.949997,15,84.949997,15,84.949997,15ZM74.949997,64.150002C78.300003,67.449997,81.650002,70.699997,85,74C84.949997,80.099998,80,85,73.900002,85C73.900002,85,62.099998,85,62.099998,85C62.099998,85,25.6,48.5,25.6,48.5C31.200001,42.849998,36.849998,37.200001,42.450001,31.5C53.25,42.400002,64.099998,53.25,74.949997,64.150002C74.949997,64.150002,74.949997,64.150002,74.949997,64.150002C74.949997,64.150002,74.949997,64.150002,74.949997,64.150002ZM85,53.650002C84.949997,56.450001,85.050003,59.25,85,62.049999C79.949997,56.950001,74.800003,51.849998,69.75,46.799999C71.150002,45.349998,72.550003,43.900002,73.900002,42.5C77.599998,46.200001,81.300003,49.900002,85,53.650002C85,53.650002,85,53.650002,85,53.650002C85,53.650002,85,53.650002,85,53.650002ZM50.299999,84.949997C50.299999,84.949997,15,85,15,85C6.6999998,85,0,78.300003,0,70C0,70,0,56.299999,0,56.299999C3.55,52.799999,7.0999999,49.299999,10.65,45.75C23.799999,58.799999,37.150002,71.949997,50.299999,84.949997C50.299999,84.949997,50.299999,84.949997,50.299999,84.949997Z" fill="#E30016" fill-opacity="1"/></svg>