<svg xmlns="http://www.w3.org/2000/svg" xmlns:xlink="http://www.w3.org/1999/xlink" fill="none" version="1.1" width="85.00048828125" height="84.923828125" viewBox="0 0 85.00048828125 84.923828125"><defs><radialGradient cx="0" cy="0" r="1" gradientUnits="userSpaceOnUse" id="master_svg0_0_3414" gradientTransform="translate(42.35376453399658 42.33777713775635) rotate(90) scale(32.98818878589668 88.22290074921263)"><stop offset="0%" stop-color="#FFF100" stop-opacity="1"/><stop offset="21.482382714748383%" stop-color="#FDDE01" stop-opacity="1"/><stop offset="100%" stop-color="#E60012" stop-opacity="1"/></radialGradient><radialGradient cx="0" cy="0" r="1" gradientUnits="userSpaceOnUse" id="master_svg1_0_3404" gradientTransform="translate(42.500152587890625 42.46194839477539) rotate(90) scale(42.461952209472656 42.500152587890625)"><stop offset="0%" stop-color="#FFF100" stop-opacity="1"/><stop offset="42.95479953289032%" stop-color="#FFF100" stop-opacity="1"/><stop offset="100%" stop-color="#E60012" stop-opacity="1"/></radialGradient></defs><path d="M54.5893650625,42.337777563476564Q54.5893630625,42.639360563476565,54.574625062500004,42.94058156347656Q54.559887062499996,43.241801563476564,54.5304450625,43.541932563476564Q54.501003062500004,43.842063563476565,54.4569320625,44.140382563476564Q54.412857062499995,44.43870156347656,54.3542590625,44.73449056347656Q54.295660062500005,45.03027956347656,54.2226770625,45.32282456347656Q54.149694062500004,45.61536956347656,54.0625040625,45.90396656347656Q53.9753110625,46.19256356347656,53.8741190625,46.476516563476565Q53.772930062499995,46.760471563476564,53.6579840625,47.039098563476564Q53.543037062500005,47.31772656347656,53.4146160625,47.59035256347656Q53.2861920625,47.862979563476564,53.144600062500004,48.128953563476564Q53.0030060625,48.39492656347656,52.8485870625,48.65360256347656Q52.6941680625,48.912280563476564,52.527292062499995,49.16303856347656Q52.3604180625,49.41379556347656,52.1814920625,49.65603056347656Q52.0025630625,49.89826556347656,51.8120120625,50.131393563476564Q51.6214600625,50.36452056347656,51.4197440625,50.58797856347656Q51.2180310625,50.811435563476564,51.0056400625,51.02468856347656Q50.7932470625,51.23794156347657,50.5706900625,51.440471563476564Q50.3481330625,51.643005563476564,50.1159460625,51.83432756347656Q49.8837580625,52.02564956347656,49.6425020625,52.20530156347657Q49.401245062499996,52.38495256347656,49.1514990625,52.55250356347656Q48.9017520625,52.720054563476566,48.644119062499996,52.87509956347657Q48.3864860625,53.030143563476564,48.121588062499995,53.17230956347656Q47.8566870625,53.314474563476566,47.5851570625,53.44341656347656Q47.3136290625,53.572360563476565,47.0361250625,53.687772563476564Q46.7586210625,53.80318456347656,46.475813062499995,53.904785563476565Q46.1930050625,54.00638556347656,45.9055710625,54.09393356347656Q45.6181370625,54.181476563476565,45.3267720625,54.25475356347656Q45.0354060625,54.328031563476564,44.7408100625,54.386867563476564Q44.4462150625,54.44570356347656,44.1490980625,54.48995556347656Q43.8519820625,54.53420856347656,43.553062062500004,54.56377056347657Q43.2541410625,54.59333056347656,42.9541360625,54.60812956347657Q42.6541310625,54.62292656347656,42.3537640625,54.62292656347656Q42.0533970625,54.62292656347656,41.7533920625,54.60812756347656Q41.4533870625,54.59333056347656,41.154467062500004,54.56377056347657Q40.8555450625,54.53421056347656,40.5584290625,54.489957563476565Q40.2613120625,54.445705563476565,39.9667167625,54.386869563476566Q39.6721210625,54.328033563476566,39.3807554625,54.25475456347657Q39.0893897625,54.181476563476565,38.8019571625,54.09393356347656Q38.5145234625,54.00638556347656,38.2317142625,53.904785563476565Q37.9489049625,53.80318456347656,37.6714019625,53.687772563476564Q37.3938989625,53.572360563476565,37.1223707625,53.44341856347656Q36.8508419625,53.314474563476566,36.5859417625,53.17230956347656Q36.3210420625,53.030143563476564,36.0634083625,52.87509956347657Q35.8057746625,52.720054563476566,35.5560283625,52.55250356347656Q35.3062820625,52.38495256347656,35.0650253625,52.20530156347657Q34.8237686625,52.02564656347656,34.5915818625,51.83432356347656Q34.3593945625,51.64300156347656,34.1368369625,51.440471563476564Q33.914279962500004,51.23794156347657,33.7018883625,51.02468856347656Q33.4894966625,50.811435563476564,33.2877824625,50.58797856347656Q33.0860681625,50.36452056347656,32.8955173625,50.131393563476564Q32.7049665625,49.89826556347656,32.5260379625,49.65603256347656Q32.3471093625,49.413797563476564,32.1802344625,49.163040563476564Q32.0133592625,48.912280563476564,31.8589398625,48.65360456347656Q31.7045202625,48.394927563476564,31.5629281625,48.128955563476566Q31.4213359625,47.862981563476566,31.2929124625,47.590354563476566Q31.1644890625,47.31772656347656,31.0495435625,47.039098563476564Q30.9345980325,46.760471563476564,30.8334074025,46.47651856347656Q30.7322168325,46.19256356347656,30.6450248325,45.90396756347656Q30.5578328625,45.61536956347656,30.4848496025,45.32282356347656Q30.4118663625,45.030278563476564,30.3532676525,44.734489563476565Q30.2946689425,44.43870156347656,30.2505959425,44.140381563476566Q30.2065229415,43.842063563476565,30.1770818155,43.541932563476564Q30.1476406925,43.241801563476564,30.1329023775,42.94058156347656Q30.1181640625,42.639360563476565,30.1181640625,42.337777563476564Q30.1181640625,42.03619356347656,30.1329023775,41.734973563476565Q30.1476406925,41.43375256347656,30.1770818155,41.13362156347657Q30.2065229415,40.83349056347656,30.2505959425,40.53517056347656Q30.2946689425,40.236850563476565,30.3532676525,39.94106296347656Q30.4118663625,39.64527316347656,30.4848496325,39.35272786347656Q30.5578328925,39.06018256347656,30.6450248925,38.77158646347657Q30.7322168325,38.482988363476565,30.8334074625,38.199033763476564Q30.9345980325,37.915080063476566,31.0495435625,37.63645316347656Q31.1644890625,37.35782626347656,31.2929124625,37.085198363476565Q31.4213359625,36.81257056347656,31.5629281625,36.54659746347656Q31.7045202625,36.28062436347656,31.8589397625,36.02194786347656Q32.0133592625,35.763270363476565,32.1802344625,35.51251316347656Q32.3471093625,35.26175596347656,32.5260379625,35.01952166347656Q32.7049665625,34.77728796347656,32.8955173625,34.54416086347656Q33.0860681625,34.31103326347656,33.2877826625,34.08757496347656Q33.4894966625,33.86411616347656,33.7018883625,33.650864363476565Q33.914279962500004,33.43761256347656,34.1368369625,33.235081663476564Q34.3593945625,33.03255036347656,34.5915818625,32.84122796347656Q34.8237686625,32.64990516347656,35.0650253625,32.47025226347656Q35.3062820625,32.29059906347656,35.5560283625,32.12304826347656Q35.8057746625,31.95549746347656,36.0634083625,31.80045256347656Q36.3210420625,31.64540796347656,36.5859422625,31.503242463476564Q36.8508424625,31.361076963476563,37.1223707625,31.232133363476564Q37.3938994625,31.103189663476563,37.6714024625,30.987778783476564Q37.9489054625,30.872367743476563,38.2317142625,30.770767333476563Q38.5145234625,30.66916698347656,38.8019571625,30.581621943476563Q39.0893897625,30.494076843476563,39.3807554625,30.420798063476564Q39.6721210625,30.347519223476564,39.9667167625,30.28868323347656Q40.2613120625,30.22984722347656,40.5584290625,30.185595733476564Q40.8555450625,30.14134425647656,41.154467062500004,30.11178391047656Q41.4533870625,30.082223560476564,41.7533920625,30.06742556247656Q42.0533970625,30.052627563476562,42.3537640625,30.052627563476562Q42.6541310625,30.052627563476562,42.9541360625,30.06742556247656Q43.2541410625,30.082223560476564,43.553062062500004,30.11178391047656Q43.8519820625,30.14134425647656,44.1490980625,30.185595733476564Q44.4462150625,30.22984722347656,44.7408100625,30.28868323347656Q45.0354060625,30.347519223476564,45.326773062499996,30.420798063476564Q45.6181380625,30.494076843476563,45.9055720625,30.581621943476563Q46.1930050625,30.66916698347656,46.475813062499995,30.77076739347656Q46.7586210625,30.872367743476563,47.0361250625,30.987778783476564Q47.3136290625,31.103189663476563,47.5851590625,31.232133363476564Q47.8566870625,31.361076963476563,48.121588062499995,31.503242463476564Q48.3864860625,31.64540796347656,48.644119062499996,31.800452663476563Q48.9017520625,31.95549746347656,49.1514990625,32.12304826347656Q49.401245062499996,32.29059906347656,49.6425020625,32.470252063476565Q49.8837580625,32.64990516347656,50.115948062499996,32.84122796347656Q50.3481330625,33.03255036347656,50.5706900625,33.235081663476564Q50.7932470625,33.43761256347656,51.0056400625,33.650864363476565Q51.2180310625,33.86411616347656,51.419746062499996,34.08757496347656Q51.6214600625,34.31103326347656,51.8120120625,34.54416086347656Q52.0025630625,34.77728796347656,52.1814920625,35.01952166347656Q52.3604200625,35.26175596347656,52.527294062500005,35.51251316347656Q52.6941680625,35.763270363476565,52.8485890625,36.02194736347656Q53.0030080625,36.28062436347656,53.144600062500004,36.54659746347656Q53.2861920625,36.81257056347656,53.4146160625,37.08519886347656Q53.543037062500005,37.357827163476564,53.6579840625,37.63645366347656Q53.772930062499995,37.915080563476565,53.874121062499995,38.19903466347656Q53.9753110625,38.482988363476565,54.0625040625,38.77158646347657Q54.149694062500004,39.06018256347656,54.2226770625,39.35272786347656Q54.295660062500005,39.64527316347656,54.3542590625,39.94106296347656Q54.412857062499995,40.236850563476565,54.4569320625,40.53517056347656Q54.501003062500004,40.83349056347656,54.5304450625,41.133622563476564Q54.559887062499996,41.433753563476564,54.574625062500004,41.734973563476565Q54.5893630625,42.03619356347656,54.5893650625,42.337777563476564Z" fill="url(#master_svg0_0_3414)" fill-opacity="1"/><g><path d="M78.717682,31.327997185302735C77.718185,12.223897185302734,57.828087,-5.531442614697266,32.021484,1.6166671853027343C32.067787,1.6129982853027345,46.436546,0.47447010530273437,57.605583,10.271997185302734C69.448181,20.658996185302733,75.558586,41.20989618530273,59.469784,59.94569818530273C59.469784,59.94569818530273,79.88118,53.565296185302735,78.717682,31.327997185302735ZM0,38.71533618530273C2.2513499,11.931166185302734,25.726101,-0.6610646246972657,43.9226,5.009505285302734C65.104401,11.609755185302735,64.001801,33.04513518530273,64.001801,33.04513518530273C52.062901,11.405395185302734,30.7456,10.049366185302734,16.941099,17.609634185302735C3.9003201,24.751535185302735,0,38.71533618530273,0,38.71533618530273ZM25.474289,81.95899618530274C0.78963703,71.55649918530274,-3.9097209,45.25389518530273,7.0685091,29.619198185302736C19.847389,11.419267185302735,39.818588,19.075897185302736,39.818588,19.075897185302736C15.636189,23.813347185302735,7.784699,43.75909818530273,10.695839,59.27399818530274C13.445389,73.93130118530273,25.474289,81.95899618530274,25.474289,81.95899618530274ZM63.194527,74.73015218530273C81.163422,68.52885018530273,92.720528,44.34465418530274,78.89473,21.230953185302734C78.89473,21.230953185302734,83.906326,34.90115318530273,77.571121,48.45545618530274C70.866028,62.80355418530274,52.902126,74.36594818530273,30.648926,63.865154185302735C30.648926,63.865154185302735,42.277527,81.94815418530274,63.194527,74.73015218530273ZM19.371265,71.93035518530273C30.652966,87.38595218530273,57.054966,91.32024718530273,74.809364,71.13585318530274C74.809364,71.13585318530274,63.356964,80.02585218530274,48.602566,77.95785118530273C32.983963,75.76935218530274,16.620586,61.91345218530273,19.883335,37.366451185302736C19.883335,37.366451185302736,6.2378654,53.93925118530274,19.371265,71.93035518530273Z" fill-rule="evenodd" fill="url(#master_svg1_0_3404)" fill-opacity="1"/></g></svg>