<svg xmlns="http://www.w3.org/2000/svg" xmlns:xlink="http://www.w3.org/1999/xlink" fill="none" version="1.1" width="85" height="85" viewBox="0 0 85 85"><path d="M45.769199,39.230801C45.769199,39.230801,50.879002,39.230801,50.879002,39.230801C51.5149,31.829201,53.625198,25.2908,57.211498,19.6154C57.211498,19.6154,65.384598,19.6154,65.384598,19.6154C61.798302,25.2908,59.688,31.829201,59.052101,39.230801C59.052101,39.230801,68.653801,39.230801,68.653801,39.230801C68.653801,39.230801,68.653801,47.403801,68.653801,47.403801C68.653801,47.403801,58.937698,47.403801,58.937698,47.403801C59.390499,55.357899,61.540001,61.896301,65.384598,67.019203C65.384598,67.019203,57.211498,67.019203,57.211498,67.019203C53.366901,61.896301,51.2174,55.357899,50.764599,47.403801C50.764599,47.403801,32.6008,47.403801,32.6008,47.403801C32.147999,55.357899,29.998501,61.896301,26.153799,67.019203C26.153799,67.019203,17.980801,67.019203,17.980801,67.019203C21.825399,61.896301,23.974899,55.357899,24.4277,47.403801C24.4277,47.403801,16.346201,47.403801,16.346201,47.403801C16.346201,47.403801,16.346201,39.230801,16.346201,39.230801C16.346201,39.230801,24.313299,39.230801,24.313299,39.230801C23.677401,31.829201,21.567101,25.2908,17.980801,19.6154C17.980801,19.6154,26.153799,19.6154,26.153799,19.6154C29.7402,25.2908,31.8505,31.829201,32.486301,39.230801C32.486301,39.230801,37.596199,39.230801,37.596199,39.230801C37.596199,39.230801,37.596199,19.6154,37.596199,19.6154C37.596199,19.6154,45.769199,19.6154,45.769199,19.6154C45.769199,19.6154,45.769199,39.230801,45.769199,39.230801C45.769199,39.230801,45.769199,39.230801,45.769199,39.230801C45.769199,39.230801,45.769199,39.230801,45.769199,39.230801ZM42.5,80.096199C63.2645,80.096199,80.096199,63.2645,80.096199,42.5C80.096199,21.7355,63.2645,4.9038501,42.5,4.9038501C21.7355,4.9038501,4.9038501,21.7355,4.9038501,42.5C4.9038501,63.2645,21.7355,80.096199,42.5,80.096199C42.5,80.096199,42.5,80.096199,42.5,80.096199ZM42.5,85C19.026899,85,0,65.973099,0,42.5C0,19.026899,19.026899,0,42.5,0C65.973099,0,85,19.026899,85,42.5C85,65.973099,65.973099,85,42.5,85C42.5,85,42.5,85,42.5,85C42.5,85,42.5,85,42.5,85Z" fill="#C70000" fill-opacity="1"/></svg>