<svg xmlns="http://www.w3.org/2000/svg" xmlns:xlink="http://www.w3.org/1999/xlink" fill="none" version="1.1" width="180" height="180" viewBox="0 0 180 180"><defs><filter id="master_svg0_0_999" filterUnits="objectBoundingBox" color-interpolation-filters="sRGB" x="-0.203125" y="-0.078125" width="1.40625" height="1.40625"><feFlood flood-opacity="0" result="BackgroundImageFix"/><feColorMatrix in="SourceAlpha" type="matrix" values="0 0 0 0 0 0 0 0 0 0 0 0 0 0 0 0 0 0 127 0"/><feOffset dy="16" dx="0"/><feGaussianBlur stdDeviation="6.5"/><feColorMatrix type="matrix" values="0 0 0 0 0 0 0 0 0 0 0 0 0 0 0 0 0 0 0.029999999329447746 0"/><feBlend mode="normal" in2="BackgroundImageFix" result="effect1_dropShadow"/><feBlend mode="normal" in="SourceGraphic" in2="effect1_dropShadow" result="shape"/></filter><clipPath id="master_svg1_0_999"><rect x="26" y="10" width="128" height="128" rx="0"/></clipPath></defs><g filter="url(#master_svg0_0_999)"><g clip-path="url(#master_svg1_0_999)"><path d="M54,10C54,10,126,10,126,10C144.667,10,154,19.3333302,154,38C154,38,154,110,154,110C154,128.667,144.667,138,126,138C126,138,54,138,54,138C35.3333302,138,26,128.667,26,110C26,110,26,38,26,38C26,19.3333302,35.3333302,10,54,10C54,10,54,10,54,10Z" fill="#FFFFFF" fill-opacity="1"/><path d="M88.924999,31.5C88.924999,31.5,87.84899899999999,31.594999298,87.84899899999999,31.594999298C87.84899899999999,31.594999298,85.699501,31.69499999,85.699501,31.69499999C85.699501,31.69499999,83.550499,31.985001,83.550499,31.985001C83.550499,31.985001,82.478001,32.18300098,82.478001,32.18300098C82.478001,32.18300098,81.401501,32.37800002,81.401501,32.37800002C81.401501,32.37800002,80.424,32.5765001,80.424,32.5765001C80.424,32.5765001,79.3515,32.8705,79.3515,32.8705C79.3515,32.8705,77.396999,33.4545,77.396999,33.4545C77.396999,33.4545,75.442499,34.0425,75.442499,34.0425C75.442499,34.0425,73.488001,34.825,73.488001,34.825C73.488001,34.825,71.632999,35.7024999,71.632999,35.7024999C71.632999,35.7024999,69.77799999999999,36.6760001,69.77799999999999,36.6760001C69.77799999999999,36.6760001,68.892,37.1684999,68.892,37.1684999C68.892,37.1684999,68.018,37.6570001,68.018,37.6570001C68.018,37.6570001,67.136,38.2410002,67.136,38.2410002C67.136,38.2410002,66.257999,38.7294998,66.257999,38.7294998C66.257999,38.7294998,64.598,40.0010004,64.598,40.0010004C64.598,40.0010004,63.811001000000005,40.5845003,63.811001000000005,40.5845003C63.811001000000005,40.5845003,62.937,41.1724997,62.937,41.1724997C62.937,41.1724997,61.4715,42.539,61.4715,42.539C61.4715,42.539,60.0055,44.005,60.0055,44.005C60.0055,44.005,59.223,44.688,59.223,44.688C59.223,44.688,58.539500000000004,45.4705,58.539500000000004,45.4705C58.539500000000004,45.4705,57.8565,46.153999999999996,57.8565,46.153999999999996C57.8565,46.153999999999996,57.1689997,46.9365,57.1689997,46.9365C57.1689997,46.9365,55.9969997,48.5965,55.9969997,48.5965C55.9969997,48.5965,54.7259998,50.2575,54.7259998,50.2575C54.7259998,50.2575,53.6574998,52.0175,53.6574998,52.0175C53.6574998,52.0175,53.165,52.899,53.165,52.899C53.165,52.899,52.6760001,53.777,52.6760001,53.777C52.6760001,53.777,51.6989999,55.632000000000005,51.6989999,55.632000000000005C51.6989999,55.632000000000005,50.8210001,57.486999999999995,50.8210001,57.486999999999995C50.8210001,57.486999999999995,50.138,59.441500000000005,50.138,59.441500000000005C50.138,59.441500000000005,49.4545,61.396,49.4545,61.396C49.4545,61.396,48.8665,63.35,48.8665,63.35C48.8665,63.35,48.37800002,65.403999,48.37800002,65.403999C48.37800002,65.403999,47.984501,67.553001,47.984501,67.553001C47.984501,67.553001,47.69050001,69.702,47.69050001,69.702C47.69050001,69.702,47.595500901,71.851002,47.595500901,71.851002C47.595500901,71.851002,47.5,74,47.5,74C47.5,74,47.5,75.072498,47.5,75.072498C47.5,75.072498,47.594999298,76.148998,47.594999298,76.148998C47.594999298,76.148998,47.69050001,78.393501,47.69050001,78.393501C47.69050001,78.393501,47.984501,80.446999,47.984501,80.446999C47.984501,80.446999,48.18349999,81.523499,48.18349999,81.523499C48.18349999,81.523499,48.37800002,82.596001,48.37800002,82.596001C48.37800002,82.596001,48.5765001,83.57350199999999,48.5765001,83.57350199999999C48.5765001,83.57350199999999,48.8665,84.646,48.8665,84.646C48.8665,84.646,49.4545,86.604,49.4545,86.604C49.4545,86.604,50.138,88.653999,50.138,88.653999C50.138,88.653999,50.8210001,90.508999,50.8210001,90.508999C50.8210001,90.508999,51.6989999,92.467499,51.6989999,92.467499C51.6989999,92.467499,52.6760001,94.223,52.6760001,94.223C52.6760001,94.223,53.165,95.2005,53.165,95.2005C53.165,95.2005,53.6574998,96.078003,53.6574998,96.078003C53.6574998,96.078003,54.2414999,96.956001,54.2414999,96.956001C54.2414999,96.956001,54.7259998,97.738503,54.7259998,97.738503C54.7259998,97.738503,55.9969997,99.399002,55.9969997,99.399002C55.9969997,99.399002,56.585,100.277,56.585,100.277C56.585,100.277,57.1689997,101.059502,57.1689997,101.059502C57.1689997,101.059502,58.539500000000004,102.624496,58.539500000000004,102.624496C58.539500000000004,102.624496,60.0055,104.0905,60.0055,104.0905C60.0055,104.0905,60.689,104.773499,60.689,104.773499C60.689,104.773499,61.4715,105.457001,61.4715,105.457001C61.4715,105.457001,62.1545,106.139999,62.1545,106.139999C62.1545,106.139999,62.937,106.827499,62.937,106.827499C62.937,106.827499,64.5975,108.098503,64.5975,108.098503C64.5975,108.098503,66.257999,109.2705,66.257999,109.2705C66.257999,109.2705,68.018,110.343002,68.018,110.343002C68.018,110.343002,68.892,110.831497,68.892,110.831497C68.892,110.831497,69.77799999999999,111.419502,69.77799999999999,111.419502C69.77799999999999,111.419502,71.632999,112.297501,71.632999,112.297501C71.632999,112.297501,73.488001,113.175003,73.488001,113.175003C73.488001,113.175003,75.443001,113.957497,75.443001,113.957497C75.443001,113.957497,77.396999,114.640999,77.396999,114.640999C77.396999,114.640999,79.351999,115.129501,79.351999,115.129501C79.351999,115.129501,81.401501,115.617996,81.401501,115.617996C81.401501,115.617996,83.550499,116.0075,83.550499,116.0075C83.550499,116.0075,85.699501,116.301498,85.699501,116.301498C85.699501,116.301498,87.84899899999999,116.5,87.84899899999999,116.5C87.84899899999999,116.5,91.757999,116.5,91.757999,116.5C91.757999,116.5,93.41799900000001,116.400497,93.41799900000001,116.400497C93.41799900000001,116.400497,95.083,116.206001,95.083,116.206001C95.083,116.206001,95.95700099999999,116.106499,95.95700099999999,116.106499C95.95700099999999,116.106499,96.739498,116.0075,96.739498,116.0075C96.739498,116.0075,98.399502,115.717499,98.399502,115.717499C98.399502,115.717499,99.965,115.323997,99.965,115.323997C99.965,115.323997,101.6255,114.934998,101.6255,114.934998C101.6255,114.934998,103.187,114.446503,103.187,114.446503C103.187,114.446503,104.65700100000001,113.858498,104.65700100000001,113.858498C104.65700100000001,113.858498,106.21799899999999,113.274498,106.21799899999999,113.274498C106.21799899999999,113.274498,107.679501,112.686501,107.679501,112.686501C107.679501,112.686501,109.149502,112.003502,109.149502,112.003502C109.149502,112.003502,110.6115,111.221001,110.6115,111.221001C110.6115,111.221001,111.981499,110.442001,111.981499,110.442001C111.981499,110.442001,113.352501,109.564499,113.352501,109.564499C113.352501,109.564499,114.619499,108.682503,114.619499,108.682503C114.619499,108.682503,115.890999,107.705498,115.890999,107.705498C115.890999,107.705498,117.157997,106.727997,117.157997,106.727997C117.157997,106.727997,118.330002,105.651497,118.330002,105.651497C118.330002,105.651497,119.505997,104.579002,119.505997,104.579002C119.505997,104.579002,120.678001,103.406998,120.678001,103.406998C120.678001,103.406998,121.754501,102.330498,121.754501,102.330498C121.754501,102.330498,122.827003,101.059502,122.827003,101.059502C122.827003,101.059502,123.804001,99.792503,123.804001,99.792503C123.804001,99.792503,124.685997,98.521004,124.685997,98.521004C124.685997,98.521004,125.6595,97.25,125.6595,97.25C125.6595,97.25,126.442001,95.883499,126.442001,95.883499C126.442001,95.883499,127.32,94.41799900000001,127.32,94.41799900000001C127.32,94.41799900000001,128.007004,93.047501,128.007004,93.047501C128.007004,93.047501,128.690498,91.581501,128.690498,91.581501C128.690498,91.581501,129.373497,90.116001,129.373497,90.116001C129.373497,90.116001,129.957497,88.554501,129.957497,88.554501C129.957497,88.554501,123.999001,88.554501,123.999001,88.554501C123.999001,88.554501,124.880501,90.60850099999999,124.880501,90.60850099999999C124.880501,90.60850099999999,115.695999,103.990997,115.695999,103.990997C115.695999,103.990997,65.476,103.990997,65.476,103.990997C65.476,103.990997,55.607500099999996,91.685001,55.607500099999996,91.685001C55.607500099999996,91.685001,77.297501,35.7024999,77.297501,35.7024999C77.297501,35.7024999,89.608002,65.0145,89.608002,65.0145C89.608002,65.0145,101.33499900000001,35.4089999,101.33499900000001,35.4089999C101.33499900000001,35.4089999,112.569504,61.689501,112.569504,61.689501C112.569504,61.689501,130.73950200000002,61.689501,130.73950200000002,61.689501C130.73950200000002,61.689501,130.155502,60.1245,130.155502,60.1245C130.155502,60.1245,129.56800099999998,58.468,129.56800099999998,58.468C129.56800099999998,58.468,128.984001,56.903,128.984001,56.903C128.984001,56.903,128.200996,55.4375,128.200996,55.4375C128.200996,55.4375,127.517998,53.872499000000005,127.517998,53.872499000000005C127.517998,53.872499000000005,126.636002,52.4065,126.636002,52.4065C126.636002,52.4065,125.758003,51.040001000000004,125.758003,51.040001000000004C125.758003,51.040001000000004,124.879997,49.673500000000004,124.879997,49.673500000000004C124.879997,49.673500000000004,123.803497,48.302999,123.803497,48.302999C123.803497,48.302999,123.315002,47.619499000000005,123.315002,47.619499000000005C123.315002,47.619499000000005,122.8265,46.9365,122.8265,46.9365C122.8265,46.9365,121.753998,45.6655,121.753998,45.6655C121.753998,45.6655,120.582001,44.4935,120.582001,44.4935C120.582001,44.4935,119.405998,43.3215,119.405998,43.3215C119.405998,43.3215,118.139,42.15,118.139,42.15C118.139,42.15,116.8675,41.0734997,116.8675,41.0734997C116.8675,41.0734997,115.600502,40.1000004,115.600502,40.1000004C115.600502,40.1000004,114.225502,39.119,114.225502,39.119C114.225502,39.119,112.859497,38.1415,112.859497,38.1415C112.859497,38.1415,111.393501,37.2680001,111.393501,37.2680001C111.393501,37.2680001,109.931499,36.4815001,109.931499,36.4815001C109.931499,36.4815001,108.46600000000001,35.7024999,108.46600000000001,35.7024999C108.46600000000001,35.7024999,106.90100100000001,35.0195,106.90100100000001,35.0195C106.90100100000001,35.0195,105.3395,34.3325,105.3395,34.3325C105.3395,34.3325,104.55699899999999,34.0425,104.55699899999999,34.0425C104.55699899999999,34.0425,103.77799999999999,33.7444999,103.77799999999999,33.7444999C103.77799999999999,33.7444999,102.11349899999999,33.2595,102.11349899999999,33.2595C102.11349899999999,33.2595,100.453499,32.771,100.453499,32.771C100.453499,32.771,98.79249999999999,32.37800002,98.79249999999999,32.37800002C98.79249999999999,32.37800002,97.032501,32.08799899,97.032501,32.08799899C97.032501,32.08799899,95.372501,31.79400101,95.372501,31.79400101C95.372501,31.79400101,93.612499,31.6945,93.612499,31.6945C93.612499,31.6945,91.7575,31.5,91.7575,31.5C91.7575,31.5,88.924999,31.5,88.924999,31.5C88.924999,31.5,88.924999,31.5,88.924999,31.5C88.924999,31.5,88.924999,31.5,88.924999,31.5ZM86.48249799999999,91.192501C86.48249799999999,91.192501,110.0275,91.192501,110.0275,91.192501C110.0275,91.192501,98.010502,62.083,98.010502,62.083C98.010502,62.083,86.48249799999999,91.192501,86.48249799999999,91.192501C86.48249799999999,91.192501,86.48249799999999,91.192501,86.48249799999999,91.192501C86.48249799999999,91.192501,86.48249799999999,91.192501,86.48249799999999,91.192501ZM62.3495,91.192501C62.3495,91.192501,85.898499,91.192501,85.898499,91.192501C85.898499,91.192501,73.8815,62.083,73.8815,62.083C73.8815,62.083,62.3495,91.192501,62.3495,91.192501C62.3495,91.192501,62.3495,91.192501,62.3495,91.192501ZM113.542999,64.033501C113.542999,64.033501,114.329498,65.793499,114.329498,65.793499C114.329498,65.793499,131.717499,65.793499,131.717499,65.793499C131.717499,65.793499,131.328003,64.033501,131.328003,64.033501C131.328003,64.033501,113.542999,64.033501,113.542999,64.033501C113.542999,64.033501,113.542999,64.033501,113.542999,64.033501C113.542999,64.033501,113.542999,64.033501,113.542999,64.033501ZM115.303001,68.137001C115.303001,68.137001,115.989998,69.896999,115.989998,69.896999C115.989998,69.896999,132.305,69.896999,132.305,69.896999C132.305,69.896999,132.110497,68.137001,132.110497,68.137001C132.110497,68.137001,115.303001,68.137001,115.303001,68.137001C115.303001,68.137001,115.303001,68.137001,115.303001,68.137001C115.303001,68.137001,115.303001,68.137001,115.303001,68.137001ZM117.063004,72.240501C117.063004,72.240501,117.75,74,117.75,74C117.75,74,132.5,74,132.5,74C132.5,74,132.5,72.240002,132.5,72.240002C132.5,72.240002,117.063004,72.240002,117.063004,72.240002C117.063004,72.240002,117.063004,72.240501,117.063004,72.240501C117.063004,72.240501,117.063004,72.240501,117.063004,72.240501ZM118.723,76.3475C118.723,76.3475,119.505997,78.1035,119.505997,78.1035C119.505997,78.1035,132.305496,78.1035,132.305496,78.1035C132.305496,78.1035,132.5,76.3475,132.5,76.3475C132.5,76.3475,118.723503,76.3475,118.723503,76.3475C118.723503,76.3475,118.723,76.3475,118.723,76.3475C118.723,76.3475,118.723,76.3475,118.723,76.3475ZM120.483002,80.447498C120.483002,80.447498,121.265503,82.20700099999999,121.265503,82.20700099999999C121.265503,82.20700099999999,131.717499,82.20700099999999,131.717499,82.20700099999999C131.717499,82.20700099999999,132.01149700000002,80.446999,132.01149700000002,80.446999C132.01149700000002,80.446999,120.483002,80.446999,120.483002,80.446999C120.483002,80.446999,120.483002,80.447498,120.483002,80.447498C120.483002,80.447498,120.483002,80.447498,120.483002,80.447498ZM122.242996,84.550499C122.242996,84.550499,123.0215,86.210499,123.0215,86.210499C123.0215,86.210499,130.739998,86.210499,130.739998,86.210499C130.739998,86.210499,131.228996,84.550499,131.228996,84.550499C131.228996,84.550499,122.242996,84.550499,122.242996,84.550499C122.242996,84.550499,122.242996,84.550499,122.242996,84.550499Z" fill="#E50113" fill-opacity="1"/></g></g></svg>