<svg xmlns="http://www.w3.org/2000/svg" xmlns:xlink="http://www.w3.org/1999/xlink" fill="none" version="1.1" width="85" height="85" viewBox="0 0 85 85"><path d="M41.424999,0C41.424999,0,40.348999,0.094999298,40.348999,0.094999298C40.348999,0.094999298,38.199501,0.19499999,38.199501,0.19499999C38.199501,0.19499999,36.050499,0.485001,36.050499,0.485001C36.050499,0.485001,34.978001,0.68300098,34.978001,0.68300098C34.978001,0.68300098,33.901501,0.87800002,33.901501,0.87800002C33.901501,0.87800002,32.924,1.0765001,32.924,1.0765001C32.924,1.0765001,31.8515,1.3705,31.8515,1.3705C31.8515,1.3705,29.896999,1.9545,29.896999,1.9545C29.896999,1.9545,27.942499,2.5425,27.942499,2.5425C27.942499,2.5425,25.988001,3.325,25.988001,3.325C25.988001,3.325,24.132999,4.2024999,24.132999,4.2024999C24.132999,4.2024999,22.278,5.1760001,22.278,5.1760001C22.278,5.1760001,21.392,5.6684999,21.392,5.6684999C21.392,5.6684999,20.518,6.1570001,20.518,6.1570001C20.518,6.1570001,19.636,6.7410002,19.636,6.7410002C19.636,6.7410002,18.757999,7.2294998,18.757999,7.2294998C18.757999,7.2294998,17.098,8.5010004,17.098,8.5010004C17.098,8.5010004,16.311001,9.0845003,16.311001,9.0845003C16.311001,9.0845003,15.437,9.6724997,15.437,9.6724997C15.437,9.6724997,13.9715,11.039,13.9715,11.039C13.9715,11.039,12.5055,12.505,12.5055,12.505C12.5055,12.505,11.723,13.188,11.723,13.188C11.723,13.188,11.0395,13.9705,11.0395,13.9705C11.0395,13.9705,10.3565,14.654,10.3565,14.654C10.3565,14.654,9.6689997,15.4365,9.6689997,15.4365C9.6689997,15.4365,8.4969997,17.0965,8.4969997,17.0965C8.4969997,17.0965,7.2259998,18.7575,7.2259998,18.7575C7.2259998,18.7575,6.1574998,20.5175,6.1574998,20.5175C6.1574998,20.5175,5.665,21.399,5.665,21.399C5.665,21.399,5.1760001,22.277,5.1760001,22.277C5.1760001,22.277,4.1989999,24.132,4.1989999,24.132C4.1989999,24.132,3.3210001,25.987,3.3210001,25.987C3.3210001,25.987,2.638,27.9415,2.638,27.9415C2.638,27.9415,1.9545,29.896,1.9545,29.896C1.9545,29.896,1.3665,31.85,1.3665,31.85C1.3665,31.85,0.87800002,33.903999,0.87800002,33.903999C0.87800002,33.903999,0.484501,36.053001,0.484501,36.053001C0.484501,36.053001,0.19050001,38.202,0.19050001,38.202C0.19050001,38.202,0.095500901,40.351002,0.095500901,40.351002C0.095500901,40.351002,0,42.5,0,42.5C0,42.5,0,43.572498,0,43.572498C0,43.572498,0.094999298,44.648998,0.094999298,44.648998C0.094999298,44.648998,0.19050001,46.893501,0.19050001,46.893501C0.19050001,46.893501,0.484501,48.946999,0.484501,48.946999C0.484501,48.946999,0.68349999,50.023499,0.68349999,50.023499C0.68349999,50.023499,0.87800002,51.096001,0.87800002,51.096001C0.87800002,51.096001,1.0765001,52.073502,1.0765001,52.073502C1.0765001,52.073502,1.3665,53.146,1.3665,53.146C1.3665,53.146,1.9545,55.104,1.9545,55.104C1.9545,55.104,2.638,57.153999,2.638,57.153999C2.638,57.153999,3.3210001,59.008999,3.3210001,59.008999C3.3210001,59.008999,4.1989999,60.967499,4.1989999,60.967499C4.1989999,60.967499,5.1760001,62.723,5.1760001,62.723C5.1760001,62.723,5.665,63.7005,5.665,63.7005C5.665,63.7005,6.1574998,64.578003,6.1574998,64.578003C6.1574998,64.578003,6.7414999,65.456001,6.7414999,65.456001C6.7414999,65.456001,7.2259998,66.238503,7.2259998,66.238503C7.2259998,66.238503,8.4969997,67.899002,8.4969997,67.899002C8.4969997,67.899002,9.085,68.777,9.085,68.777C9.085,68.777,9.6689997,69.559502,9.6689997,69.559502C9.6689997,69.559502,11.0395,71.124496,11.0395,71.124496C11.0395,71.124496,12.5055,72.5905,12.5055,72.5905C12.5055,72.5905,13.189,73.273499,13.189,73.273499C13.189,73.273499,13.9715,73.957001,13.9715,73.957001C13.9715,73.957001,14.6545,74.639999,14.6545,74.639999C14.6545,74.639999,15.437,75.327499,15.437,75.327499C15.437,75.327499,17.0975,76.598503,17.0975,76.598503C17.0975,76.598503,18.757999,77.7705,18.757999,77.7705C18.757999,77.7705,20.518,78.843002,20.518,78.843002C20.518,78.843002,21.392,79.331497,21.392,79.331497C21.392,79.331497,22.278,79.919502,22.278,79.919502C22.278,79.919502,24.132999,80.797501,24.132999,80.797501C24.132999,80.797501,25.988001,81.675003,25.988001,81.675003C25.988001,81.675003,27.943001,82.457497,27.943001,82.457497C27.943001,82.457497,29.896999,83.140999,29.896999,83.140999C29.896999,83.140999,31.851999,83.629501,31.851999,83.629501C31.851999,83.629501,33.901501,84.117996,33.901501,84.117996C33.901501,84.117996,36.050499,84.5075,36.050499,84.5075C36.050499,84.5075,38.199501,84.801498,38.199501,84.801498C38.199501,84.801498,40.348999,85,40.348999,85C40.348999,85,44.257999,85,44.257999,85C44.257999,85,45.917999,84.900497,45.917999,84.900497C45.917999,84.900497,47.583,84.706001,47.583,84.706001C47.583,84.706001,48.457001,84.606499,48.457001,84.606499C48.457001,84.606499,49.239498,84.5075,49.239498,84.5075C49.239498,84.5075,50.899502,84.217499,50.899502,84.217499C50.899502,84.217499,52.465,83.823997,52.465,83.823997C52.465,83.823997,54.1255,83.434998,54.1255,83.434998C54.1255,83.434998,55.687,82.946503,55.687,82.946503C55.687,82.946503,57.157001,82.358498,57.157001,82.358498C57.157001,82.358498,58.717999,81.774498,58.717999,81.774498C58.717999,81.774498,60.179501,81.186501,60.179501,81.186501C60.179501,81.186501,61.649502,80.503502,61.649502,80.503502C61.649502,80.503502,63.1115,79.721001,63.1115,79.721001C63.1115,79.721001,64.481499,78.942001,64.481499,78.942001C64.481499,78.942001,65.852501,78.064499,65.852501,78.064499C65.852501,78.064499,67.119499,77.182503,67.119499,77.182503C67.119499,77.182503,68.390999,76.205498,68.390999,76.205498C68.390999,76.205498,69.657997,75.227997,69.657997,75.227997C69.657997,75.227997,70.830002,74.151497,70.830002,74.151497C70.830002,74.151497,72.005997,73.079002,72.005997,73.079002C72.005997,73.079002,73.178001,71.906998,73.178001,71.906998C73.178001,71.906998,74.254501,70.830498,74.254501,70.830498C74.254501,70.830498,75.327003,69.559502,75.327003,69.559502C75.327003,69.559502,76.304001,68.292503,76.304001,68.292503C76.304001,68.292503,77.185997,67.021004,77.185997,67.021004C77.185997,67.021004,78.1595,65.75,78.1595,65.75C78.1595,65.75,78.942001,64.383499,78.942001,64.383499C78.942001,64.383499,79.82,62.917999,79.82,62.917999C79.82,62.917999,80.507004,61.547501,80.507004,61.547501C80.507004,61.547501,81.190498,60.081501,81.190498,60.081501C81.190498,60.081501,81.873497,58.616001,81.873497,58.616001C81.873497,58.616001,82.457497,57.054501,82.457497,57.054501C82.457497,57.054501,76.499001,57.054501,76.499001,57.054501C76.499001,57.054501,77.380501,59.108501,77.380501,59.108501C77.380501,59.108501,68.195999,72.490997,68.195999,72.490997C68.195999,72.490997,17.976,72.490997,17.976,72.490997C17.976,72.490997,8.1075001,60.185001,8.1075001,60.185001C8.1075001,60.185001,29.797501,4.2024999,29.797501,4.2024999C29.797501,4.2024999,42.108002,33.5145,42.108002,33.5145C42.108002,33.5145,53.834999,3.9089999,53.834999,3.9089999C53.834999,3.9089999,65.069504,30.189501,65.069504,30.189501C65.069504,30.189501,83.239502,30.189501,83.239502,30.189501C83.239502,30.189501,82.655502,28.6245,82.655502,28.6245C82.655502,28.6245,82.068001,26.968,82.068001,26.968C82.068001,26.968,81.484001,25.403,81.484001,25.403C81.484001,25.403,80.700996,23.9375,80.700996,23.9375C80.700996,23.9375,80.017998,22.372499,80.017998,22.372499C80.017998,22.372499,79.136002,20.9065,79.136002,20.9065C79.136002,20.9065,78.258003,19.540001,78.258003,19.540001C78.258003,19.540001,77.379997,18.1735,77.379997,18.1735C77.379997,18.1735,76.303497,16.802999,76.303497,16.802999C76.303497,16.802999,75.815002,16.119499,75.815002,16.119499C75.815002,16.119499,75.3265,15.4365,75.3265,15.4365C75.3265,15.4365,74.253998,14.1655,74.253998,14.1655C74.253998,14.1655,73.082001,12.9935,73.082001,12.9935C73.082001,12.9935,71.905998,11.8215,71.905998,11.8215C71.905998,11.8215,70.639,10.65,70.639,10.65C70.639,10.65,69.3675,9.5734997,69.3675,9.5734997C69.3675,9.5734997,68.100502,8.6000004,68.100502,8.6000004C68.100502,8.6000004,66.725502,7.619,66.725502,7.619C66.725502,7.619,65.359497,6.6415,65.359497,6.6415C65.359497,6.6415,63.893501,5.7680001,63.893501,5.7680001C63.893501,5.7680001,62.431499,4.9815001,62.431499,4.9815001C62.431499,4.9815001,60.966,4.2024999,60.966,4.2024999C60.966,4.2024999,59.401001,3.5195,59.401001,3.5195C59.401001,3.5195,57.8395,2.8325,57.8395,2.8325C57.8395,2.8325,57.056999,2.5425,57.056999,2.5425C57.056999,2.5425,56.278,2.2444999,56.278,2.2444999C56.278,2.2444999,54.613499,1.7595,54.613499,1.7595C54.613499,1.7595,52.953499,1.271,52.953499,1.271C52.953499,1.271,51.2925,0.87800002,51.2925,0.87800002C51.2925,0.87800002,49.532501,0.58799899,49.532501,0.58799899C49.532501,0.58799899,47.872501,0.29400101,47.872501,0.29400101C47.872501,0.29400101,46.112499,0.1945,46.112499,0.1945C46.112499,0.1945,44.2575,0,44.2575,0C44.2575,0,41.424999,0,41.424999,0C41.424999,0,41.424999,0,41.424999,0C41.424999,0,41.424999,0,41.424999,0ZM38.982498,59.692501C38.982498,59.692501,62.5275,59.692501,62.5275,59.692501C62.5275,59.692501,50.510502,30.583,50.510502,30.583C50.510502,30.583,38.982498,59.692501,38.982498,59.692501C38.982498,59.692501,38.982498,59.692501,38.982498,59.692501C38.982498,59.692501,38.982498,59.692501,38.982498,59.692501ZM14.8495,59.692501C14.8495,59.692501,38.398499,59.692501,38.398499,59.692501C38.398499,59.692501,26.3815,30.583,26.3815,30.583C26.3815,30.583,14.8495,59.692501,14.8495,59.692501C14.8495,59.692501,14.8495,59.692501,14.8495,59.692501ZM66.042999,32.533501C66.042999,32.533501,66.829498,34.293499,66.829498,34.293499C66.829498,34.293499,84.217499,34.293499,84.217499,34.293499C84.217499,34.293499,83.828003,32.533501,83.828003,32.533501C83.828003,32.533501,66.042999,32.533501,66.042999,32.533501C66.042999,32.533501,66.042999,32.533501,66.042999,32.533501C66.042999,32.533501,66.042999,32.533501,66.042999,32.533501ZM67.803001,36.637001C67.803001,36.637001,68.489998,38.396999,68.489998,38.396999C68.489998,38.396999,84.805,38.396999,84.805,38.396999C84.805,38.396999,84.610497,36.637001,84.610497,36.637001C84.610497,36.637001,67.803001,36.637001,67.803001,36.637001C67.803001,36.637001,67.803001,36.637001,67.803001,36.637001C67.803001,36.637001,67.803001,36.637001,67.803001,36.637001ZM69.563004,40.740501C69.563004,40.740501,70.25,42.5,70.25,42.5C70.25,42.5,85,42.5,85,42.5C85,42.5,85,40.740002,85,40.740002C85,40.740002,69.563004,40.740002,69.563004,40.740002C69.563004,40.740002,69.563004,40.740501,69.563004,40.740501C69.563004,40.740501,69.563004,40.740501,69.563004,40.740501ZM71.223,44.8475C71.223,44.8475,72.005997,46.6035,72.005997,46.6035C72.005997,46.6035,84.805496,46.6035,84.805496,46.6035C84.805496,46.6035,85,44.8475,85,44.8475C85,44.8475,71.223503,44.8475,71.223503,44.8475C71.223503,44.8475,71.223,44.8475,71.223,44.8475C71.223,44.8475,71.223,44.8475,71.223,44.8475ZM72.983002,48.947498C72.983002,48.947498,73.765503,50.707001,73.765503,50.707001C73.765503,50.707001,84.217499,50.707001,84.217499,50.707001C84.217499,50.707001,84.511497,48.946999,84.511497,48.946999C84.511497,48.946999,72.983002,48.946999,72.983002,48.946999C72.983002,48.946999,72.983002,48.947498,72.983002,48.947498C72.983002,48.947498,72.983002,48.947498,72.983002,48.947498ZM74.742996,53.050499C74.742996,53.050499,75.5215,54.710499,75.5215,54.710499C75.5215,54.710499,83.239998,54.710499,83.239998,54.710499C83.239998,54.710499,83.728996,53.050499,83.728996,53.050499C83.728996,53.050499,74.742996,53.050499,74.742996,53.050499C74.742996,53.050499,74.742996,53.050499,74.742996,53.050499Z" fill="#E50113" fill-opacity="1"/></svg>