<svg xmlns="http://www.w3.org/2000/svg" xmlns:xlink="http://www.w3.org/1999/xlink" fill="none" version="1.1" width="89.97705078125" height="51.3297119140625" viewBox="0 0 89.97705078125 51.3297119140625"><path d="M15.55511474609375,12.37023896484375C15.55511474609375,12.37023896484375,27.09561474609375,-3.59279103515625,45.935615746093745,6.32971906484375C45.935615746093745,6.32971906484375,55.56411374609375,-0.30278804515625,67.69561374609376,0.01071255584375C69.06861474609374,0.06271255784375,78.69711274609375,-0.04179054515625,81.98211674609375,4.67570876484375C83.56361374609375,7.06070896484375,83.40711174609375,10.03773896484375,80.66111774609375,12.30073896484375C80.66111774609375,12.30073896484375,67.59111374609375,1.85570896484375,35.403613746093754,11.83073896484375C35.403613746093754,11.83073896484375,30.74561474609375,9.28921886484375,24.76661494609375,9.70670886484375C19.15311474609375,10.14173896484375,15.55511474609375,12.37023896484375,15.55511474609375,12.37023896484375C15.55511474609375,12.37023896484375,15.55511474609375,12.37023896484375,15.55511474609375,12.37023896484375C15.55511474609375,12.37023896484375,15.55511474609375,12.37023896484375,15.55511474609375,12.37023896484375Z" fill="#6FB92C" fill-opacity="1"/><path d="M77.167503,51.32973071484375C77.167503,51.32973071484375,89.976997,24.29473171484375,89.976997,24.29473171484375C89.976997,24.29473171484375,83.459,5.52876231484375,48.838001,10.35075819484375C17.936501,14.70276211484375,0,36.49773171484375,0,36.49773171484375C0,36.49773171484375,20.438999,22.50173171484375,46.474499,29.96973271484375C68.078003,36.16723271484375,77.167503,51.32973071484375,77.167503,51.32973071484375C77.167503,51.32973071484375,77.167503,51.32973071484375,77.167503,51.32973071484375Z" fill="#00428D" fill-opacity="1"/></svg>