<svg xmlns="http://www.w3.org/2000/svg" xmlns:xlink="http://www.w3.org/1999/xlink" fill="none" version="1.1" width="68.21484375" height="85" viewBox="0 0 68.21484375 85"><path d="M62.76660202071176,0C62.76660202071176,0,0.006781770111755866,0,0.006781770111755866,0C0.006781770111755866,0,0.006781770111755866,74.851097,0.006781770111755866,74.851097C0.006781770111755866,74.851097,-0.39183399928824414,78.438698,4.923039920711756,80.254601C10.237900020711756,82.114799,34.02199902071176,90.352798,60.55199802071175,79.501602C63.076599020711754,78.172897,62.987999020711754,75.7369,63.076599020711754,74.762497C63.076599020711754,74.762497,62.76660202071176,0,62.76660202071176,0C62.76660202071176,0,62.76660202071176,0,62.76660202071176,0Z" fill="#144B8E" fill-opacity="1"/><path d="M7.093417167663574,61.5639687743582C7.093417167663574,61.5639687743582,17.900317167663573,61.5639687743582,17.900317167663573,61.5639687743582C21.266417167663576,61.8740031396582,21.797917167663574,63.8670771496582,21.930817167663577,65.5501270496582C22.019317167663573,69.4476971496582,18.121817167663572,70.06776714965821,18.121817167663572,70.06776714965821C18.121817167663572,70.06776714965821,23.923817167663575,77.5085471496582,23.923817167663575,77.5085471496582C23.923817167663575,77.5085471496582,18.874717167663576,77.5085471496582,18.874717167663576,77.5085471496582C18.874717167663576,77.5085471496582,14.002747067663574,70.42209724965821,14.002747067663574,70.42209724965821C14.002747067663574,70.42209724965821,12.762617067663573,70.42209724965821,12.762617067663573,70.42209724965821C12.762617067663573,70.42209724965821,12.762617067663573,77.5085471496582,12.762617067663573,77.5085471496582C12.762617067663573,77.5085471496582,8.865037167663575,77.5085471496582,8.865037167663575,77.5085471496582C8.865037167663575,77.5085471496582,8.865037167663575,64.7528872496582,8.865037167663575,64.7528872496582C8.865037167663575,62.1397451196582,7.093417167663574,61.5639687743582,7.093417167663574,61.5639687743582C7.093417167663574,61.5639687743582,7.093417167663574,61.5639687743582,7.093417167663574,61.5639687743582ZM12.851197267663574,62.449781119658205C12.851197267663574,62.449781119658205,12.851197267663574,68.65046694965821,12.851197267663574,68.65046694965821C12.851197267663574,68.65046694965821,15.331467667663574,68.65046694965821,15.331467667663574,68.65046694965821C15.331467667663574,68.65046694965821,18.077517167663572,68.65046694965821,18.609017167663573,65.5501270496582C18.741817167663577,63.512757149658206,17.767417167663574,62.5826570496582,16.305867167663575,62.449781119658205C16.305867167663575,62.449781119658205,12.851197267663574,62.449781119658205,12.851197267663574,62.449781119658205C12.851197267663574,62.449781119658205,12.851197267663574,62.449781119658205,12.851197267663574,62.449781119658205ZM25.695517167663574,61.5639687743582C25.695517167663574,61.5639687743582,35.616517167663574,61.5639687743582,35.616517167663574,61.5639687743582C37.12241616766357,61.4753875436582,39.51411716766357,62.8926872496582,39.46981716766357,65.2843770496582C39.38131616766358,67.9418172496582,37.07811616766357,68.6947569496582,37.07811616766357,68.6947569496582C39.824218167663574,69.0047969496582,40.488517167663574,70.90928744965821,40.75431716766357,72.68094714965821C40.84281816766357,77.2428471496582,35.74941716766357,77.95144614965821,35.74941716766357,77.95144614965821C35.74941716766357,77.95144614965821,27.245618167663576,77.95144614965821,27.245618167663576,77.95144614965821C27.245618167663576,77.95144614965821,27.245618167663576,64.3099870496582,27.245618167663576,64.3099870496582C27.289918167663576,62.538361129658206,25.695517167663574,61.5639687743582,25.695517167663574,61.5639687743582C25.695517167663574,61.5639687743582,25.695517167663574,61.5639687743582,25.695517167663574,61.5639687743582C25.695517167663574,61.5639687743582,25.695517167663574,61.5639687743582,25.695517167663574,61.5639687743582ZM30.567418167663575,62.8926872496582C30.567418167663575,62.8926872496582,30.567418167663575,67.32174734965821,30.567418167663575,67.32174734965821C30.567418167663575,67.32174734965821,33.44631716766358,67.32174734965821,33.44631716766358,67.32174734965821C33.44631716766358,67.32174734965821,35.26221716766358,67.0117173496582,35.439418167663575,65.1072170496582C35.439418167663575,63.2913070496582,34.19931716766357,62.8926872496582,33.66781716766357,62.8926872496582C33.66781716766357,62.8926872496582,30.567418167663575,62.8926872496582,30.567418167663575,62.8926872496582C30.567418167663575,62.8926872496582,30.567418167663575,62.8926872496582,30.567418167663575,62.8926872496582ZM30.567418167663575,69.5362772496582C30.567418167663575,69.5362772496582,30.567418167663575,75.7369471496582,30.567418167663575,75.7369471496582C30.567418167663575,75.7369471496582,34.11071716766357,75.7369471496582,34.11071716766357,75.7369471496582C34.11071716766357,75.7369471496582,36.54671716766357,75.5155471496582,36.768117167663576,72.4594471496582C36.50241716766357,70.6435470496582,35.395118167663576,69.80202674965821,33.88921616766358,69.5362772496582C33.88921616766358,69.5362772496582,30.567418167663575,69.5362772496582,30.567418167663575,69.5362772496582C30.567418167663575,69.5362772496582,30.567418167663575,69.5362772496582,30.567418167663575,69.5362772496582ZM56.698916167663576,65.5501270496582C55.63591716766357,64.1328270496582,54.17431516766357,63.335597149658206,52.35841616766358,63.3798871496582C50.188216167663576,63.689917049658206,49.52381816766358,64.2214071496582,48.460818167663575,65.7272872496582C47.17641716766357,67.7646570496582,47.79651516766357,71.7508471496582,48.77091916766357,73.6553471496582C52.22551616766357,78.3944471496582,57.58471616766357,74.8511471496582,57.58471616766357,74.8511471496582C57.58471616766357,74.8511471496582,57.58471616766357,76.9328471496582,57.58471616766357,76.9328471496582C56.03451816766358,77.8186471496582,53.99711916766358,78.0400471496582,51.11831616766357,77.95144614965821C44.47471916766357,77.3314471496582,44.031817167663576,73.0352471496582,43.85461716766358,69.7577371496582C44.031817167663576,65.1072170496582,46.157718167663575,63.247017149658205,49.125216167663574,62.139748159658204C53.952918167663576,60.7224481696582,57.58471616766357,62.494074169658205,57.58471616766357,62.494074169658205C57.58471616766357,62.494074169658205,56.698916167663576,65.5501270496582,56.698916167663576,65.5501270496582C56.698916167663576,65.5501270496582,56.698916167663576,65.5501270496582,56.698916167663576,65.5501270496582C56.698916167663576,65.5501270496582,56.698916167663576,65.5501270496582,56.698916167663576,65.5501270496582Z" fill="#FEFEFE" fill-opacity="1"/><path d="M35.88205628094482,6.333552373712158C35.88205628094482,6.333552373712158,35.97065628094482,14.704442273712159,35.97065628094482,14.704442273712159C35.57205828094482,16.431842273712157,33.44605728094483,16.69754227371216,33.44605728094483,16.69754227371216C33.44605728094483,16.69754227371216,28.884158280944824,16.60894227371216,27.599757280944825,16.69754227371216C26.315257280944824,17.096142273712157,25.739457280944823,18.38064227371216,26.226659280944823,18.38064227371216C26.536757280944823,17.981942273712157,28.042659280944825,17.27334227371216,29.017058280944823,17.31764227371216C30.345757280944824,17.40624227371216,32.02875828094483,18.159142273712156,33.35745728094483,18.203442273712156C34.64195728094482,17.89344227371216,35.173358280944825,17.53904227371216,35.173358280944825,17.53904227371216C35.173358280944825,18.026242273712157,34.420459280944826,18.557742273712158,34.420459280944826,18.557742273712158C34.420459280944826,18.557742273712158,35.74916028094482,18.602042273712158,35.74916028094482,18.602042273712158C35.74916028094482,18.602042273712158,35.74916028094482,26.13144127371216,35.74916028094482,26.13144127371216C36.10345728094482,25.865742273712158,39.82395828094482,23.56264127371216,39.82395828094482,23.56264127371216C39.82395828094482,23.56264127371216,51.38375728094483,23.56264127371216,51.38375728094483,23.56264127371216C51.38375728094483,23.56264127371216,56.30005928094482,26.22004127371216,57.76165628094483,27.061543273712157C59.13465828094483,28.611742273712157,58.027358280944824,30.516241273712158,58.027358280944824,30.516241273712158C58.027358280944824,30.516241273712158,56.03425928094482,33.92664227371216,56.03425928094482,33.92664227371216C64.27235728094482,43.803440273712155,54.74985828094482,53.193043273712156,54.74985828094482,53.193043273712156C55.50275728094483,53.41444027371216,57.58445628094483,54.83174227371216,57.983058280944825,56.11624227371216C57.938758280944825,57.533543273712155,56.83155728094482,60.102341273712156,56.83155728094482,60.102341273712156C56.83155728094482,60.102341273712156,56.12285928094482,60.102341273712156,56.12285928094482,60.102341273712156C56.30005928094482,56.24904327371216,52.04815928094482,55.71754127371216,52.04815928094482,55.71754127371216C52.04815928094482,55.71754127371216,40.798358280944825,55.71754127371216,40.798358280944825,55.71754127371216C40.798358280944825,55.71754127371216,40.798358280944825,61.12104127371216,40.798358280944825,61.12104127371216C40.798358280944825,61.12104127371216,39.95675928094482,61.12104127371216,39.95675928094482,61.12104127371216C38.80525828094483,50.49124227371216,29.282757280944825,45.97364127371216,29.282757280944825,45.97364127371216C29.282757280944825,45.97364127371216,29.282757280944825,49.42834127371216,29.282757280944825,49.42834127371216C26.979657280944824,44.51204327371216,18.254358280944825,38.13424327371216,18.254358280944825,38.13424327371216C18.254358280944825,38.13424327371216,18.254358280944825,41.85464127371216,18.254358280944825,41.85464127371216C18.254358280944825,41.85464127371216,17.634358280944824,41.85464127371216,17.634358280944824,41.85464127371216C16.792758280944824,38.17854327371216,10.813568080944824,32.24354227371216,9.396267880944825,31.22484227371216C7.9789681809448245,30.206242273712157,4.524305940944824,26.08714127371216,3.7270749409448243,22.89824127371216C2.6198099209448245,14.660142273712157,6.738837980944824,13.154342273712158,6.738837980944824,13.154342273712158C6.738837980944824,13.154342273712158,6.738837980944824,14.970242273712158,6.738837980944824,14.970242273712158C1.025347980944824,24.80274227371216,16.881358280944823,32.99654227371216,27.643958280944823,40.968842273712156C39.38105728094482,47.568142273712155,40.17825628094482,54.65464027371216,40.31115628094482,54.61034027371216C40.44395728094482,54.56604027371216,51.33945728094483,52.97154327371216,52.04815928094482,52.88294227371216C52.62385828094482,52.52864127371216,55.01555928094482,49.82694327371216,55.01555928094482,49.82694327371216C52.84535928094483,49.07394027371216,49.74505928094482,49.472641273712156,49.74505928094482,49.472641273712156C49.39065828094483,50.75704227371216,48.28345728094482,50.97844327371216,48.28345728094482,50.97844327371216C49.08065728094483,50.04834427371216,48.85915628094482,49.38404127371216,48.85915628094482,49.38404127371216C48.85915628094482,49.38404127371216,47.264758280944825,49.38404127371216,47.264758280944825,49.38404127371216C47.264758280944825,49.38404127371216,47.264758280944825,48.49824227371216,47.264758280944825,48.49824227371216C47.264758280944825,48.49824227371216,48.85915628094482,48.49824227371216,48.85915628094482,48.49824227371216C49.70075928094482,46.37224227371216,49.39065828094483,43.891941273712156,49.39065828094483,43.891941273712156C49.39065828094483,43.891941273712156,42.56995628094482,43.891941273712156,42.56995628094482,43.891941273712156C42.56995628094482,43.891941273712156,42.56995628094482,45.88504027371216,42.56995628094482,45.88504027371216C42.56995628094482,45.88504027371216,41.639857280944824,45.88504027371216,41.639857280944824,45.88504027371216C41.639857280944824,45.88504027371216,41.639857280944824,43.891941273712156,41.639857280944824,43.891941273712156C41.639857280944824,43.891941273712156,40.35535728094482,43.891941273712156,40.35535728094482,43.891941273712156C40.35535728094482,43.891941273712156,40.35535728094482,42.91764127371216,40.35535728094482,42.91764127371216C40.35535728094482,42.91764127371216,41.639857280944824,42.91764127371216,41.639857280944824,42.91764127371216C41.639857280944824,42.91764127371216,41.639857280944824,37.86844327371216,41.639857280944824,37.86844327371216C41.639857280944824,37.86844327371216,37.83085928094482,37.86844327371216,37.83085928094482,37.86844327371216C39.248156280944826,42.031742273712155,38.76095828094483,45.486443273712155,38.76095828094483,45.486443273712155C38.76095828094483,45.486443273712155,37.91945928094482,45.486443273712155,37.91945928094482,45.486443273712155C38.096556280944824,38.17854327371216,29.282757280944825,33.08504127371216,29.282757280944825,33.08504127371216C29.282757280944825,33.08504127371216,29.282757280944825,36.761242273712156,29.282757280944825,36.761242273712156C29.282757280944825,36.761242273712156,28.928458280944824,36.761242273712156,28.928458280944824,36.761242273712156C26.359557280944824,29.940441273712157,20.690358280944825,28.03594227371216,16.571357280944824,25.42284227371216C12.895228380944824,22.49964227371216,13.736758280944825,17.58334227371216,13.736758280944825,17.58334227371216C14.622557280944823,17.67194227371216,15.375457280944824,18.91204227371216,15.375457280944824,18.91204227371216C16.305558280944823,25.865742273712158,22.683457280944825,24.492743273712158,25.695258280944824,24.448443273712158C29.194157280944825,23.29684327371216,32.78175828094483,23.739742273712157,32.78175828094483,23.739742273712157C32.78175828094483,23.739742273712157,32.78175828094483,21.48094227371216,32.78175828094483,21.48094227371216C32.78175828094483,21.48094227371216,31.231559280944825,21.48094227371216,31.231559280944825,21.48094227371216C30.921458280944826,22.14534227371216,29.548457280944824,22.76534327371216,28.662657280944824,22.80964127371216C24.100758280944824,22.588242273712158,23.613558280944826,20.06364327371216,23.569258280944823,17.62764227371216C23.524958280944823,14.660142273712157,26.846759280944823,14.394442273712158,26.846759280944823,14.394442273712158C26.846759280944823,14.394442273712158,31.895858280944825,14.394442273712158,31.895858280944825,14.394442273712158C33.35745728094483,14.394442273712158,33.31315728094482,12.445661973712157,33.31315728094482,12.445661973712157C33.31315728094482,12.445661973712157,33.31315728094482,9.256732473712159,33.31315728094482,9.256732473712159C33.31315728094482,9.256732473712159,23.613558280944826,9.256732473712159,23.613558280944826,9.256732473712159C23.613558280944826,9.256732473712159,23.613558280944826,13.464342273712159,23.613558280944826,13.464342273712159C23.613558280944826,13.464342273712159,19.804558280944825,12.179912073712158,19.804558280944825,12.179912073712158C19.804558280944825,12.179912073712158,19.804558280944825,10.851202473712158,19.804558280944825,10.851202473712158C19.804558280944825,10.851202473712158,21.664757280944823,10.851202473712158,21.664757280944823,10.851202473712158C21.664757280944823,10.851202473712158,21.664757280944823,9.256732473712159,21.664757280944823,9.256732473712159C21.664757280944823,9.256732473712159,15.021158280944825,9.256732473712159,15.021158280944825,9.256732473712159C15.021158280944825,9.256732473712159,15.021158280944825,6.023522373712158,15.021158280944825,6.023522373712158C15.021158280944825,6.023522373712158,12.275157880944825,6.067812173712158,12.275157880944825,6.067812173712158C10.547827680944824,6.732172273712158,10.459248080944825,7.573692273712158,10.282077780944824,8.592382473712158C10.104917980944824,11.648432273712158,12.806648280944824,11.559852073712158,12.806648280944824,11.559852073712158C12.806648280944824,11.559852073712158,12.806648280944824,13.508642273712159,12.806648280944824,13.508642273712159C9.086237880944825,13.685842273712158,7.624648080944824,11.116941973712159,7.4031979809448245,8.636672473712158C7.757517780944824,3.1446330737121584,12.673777580944824,3.100342273712158,12.673777580944824,3.100342273712158C12.673777580944824,3.100342273712158,17.811457280944822,3.100342273712158,17.811457280944822,3.100342273712158C17.811457280944822,3.100342273712158,17.811457280944822,6.333552373712158,17.811457280944822,6.333552373712158C17.811457280944822,6.333552373712158,35.88205628094482,6.333552373712158,35.88205628094482,6.333552373712158C35.88205628094482,6.333552373712158,35.88205628094482,6.333552373712158,35.88205628094482,6.333552373712158ZM26.138158280944825,27.548742273712158C26.138158280944825,27.548742273712158,29.902857280944826,30.117642273712157,29.902857280944826,30.117642273712157C29.902857280944826,30.117642273712157,34.11045728094483,27.548742273712158,34.11045728094483,27.548742273712158C32.427357280944825,25.378542273712156,26.138158280944825,27.548742273712158,26.138158280944825,27.548742273712158C26.138158280944825,27.548742273712158,26.138158280944825,27.548742273712158,26.138158280944825,27.548742273712158ZM31.895858280944825,31.844942273712157C33.40175728094482,32.55364227371216,35.61635828094482,35.521042273712155,35.837756280944824,35.432442273712155C40.842559280944826,28.345942273712158,47.840556280944824,29.940441273712157,49.34635828094483,30.161942273712157C50.80795928094482,30.560541273712158,50.80795928094482,29.67474227371216,50.18795728094482,28.74464227371216C49.34635828094483,27.81454127371216,50.010756280944825,27.85874227371216,50.010756280944825,27.85874227371216C53.598258280944826,29.187542273712157,52.88965928094483,29.807541273712157,52.88965928094483,29.807541273712157C51.33945728094483,31.667742273712157,53.731158280944825,32.28784227371216,53.731158280944825,32.28784227371216C53.731158280944825,32.28784227371216,55.369960280944824,29.231842273712157,55.369960280944824,29.231842273712157C55.369960280944824,29.231842273712157,50.71935928094482,26.57434327371216,50.71935928094482,26.57434327371216C50.71935928094482,26.57434327371216,40.13395928094482,26.57434327371216,40.13395928094482,26.57434327371216C40.13395928094482,26.57434327371216,31.895858280944825,31.844942273712157,31.895858280944825,31.844942273712157C31.895858280944825,31.844942273712157,31.895858280944825,31.844942273712157,31.895858280944825,31.844942273712157C31.895858280944825,31.844942273712157,31.895858280944825,31.844942273712157,31.895858280944825,31.844942273712157ZM42.08275928094483,33.66084127371216C42.08275928094483,33.66084127371216,39.64675828094482,34.679543273712156,38.096556280944824,36.761242273712156C38.096556280944824,36.761242273712156,42.08275928094483,36.62834227371216,42.08275928094483,36.62834227371216C42.08275928094483,36.62834227371216,42.08275928094483,33.66084127371216,42.08275928094483,33.66084127371216C42.08275928094483,33.66084127371216,42.08275928094483,33.66084127371216,42.08275928094483,33.66084127371216C42.08275928094483,33.66084127371216,42.08275928094483,33.66084127371216,42.08275928094483,33.66084127371216ZM43.854357280944825,36.761242273712156C43.854357280944825,36.761242273712156,48.72635928094483,36.62834227371216,48.72635928094483,36.62834227371216C48.63775928094483,35.388142273712155,47.131858280944826,32.81934227371216,47.131858280944826,32.81934227371216C46.33465828094482,32.81934227371216,45.49315928094482,32.81934227371216,45.00595728094483,32.95224227371216C44.25295928094482,34.54664327371216,43.854357280944825,36.761242273712156,43.854357280944825,36.761242273712156C43.854357280944825,36.761242273712156,43.854357280944825,36.761242273712156,43.854357280944825,36.761242273712156ZM50.49795828094482,33.21794127371216C50.49795828094482,33.21794127371216,51.33945728094483,35.255341273712155,51.516658280944824,36.31834127371216C51.516658280944824,36.31834127371216,54.92705828094483,36.18544027371216,54.92705828094483,36.18544027371216C54.92705828094483,36.18544027371216,53.686858280944826,34.50234227371216,50.49795828094482,33.21794127371216C50.49795828094482,33.21794127371216,50.49795828094482,33.21794127371216,50.49795828094482,33.21794127371216ZM43.632956280944825,38.53284127371216C43.234259280944826,39.81724227371216,42.968558280944826,42.51894027371216,42.968558280944826,42.51894027371216C42.968558280944826,42.51894027371216,50.055056280944825,42.51894027371216,50.055056280944825,42.51894027371216C50.143656280944825,40.52594027371216,49.257857280944826,38.53284127371216,49.257857280944826,38.53284127371216C49.257857280944826,38.53284127371216,43.632956280944825,38.53284127371216,43.632956280944825,38.53284127371216C43.632956280944825,38.53284127371216,43.632956280944825,38.53284127371216,43.632956280944825,38.53284127371216ZM51.38375728094483,38.53284127371216C51.38375728094483,38.53284127371216,52.09245928094482,40.52594027371216,51.605258280944824,42.51894027371216C51.605258280944824,42.51894027371216,57.14155828094482,42.51894027371216,57.14155828094482,42.51894027371216C57.14155828094482,42.51894027371216,57.14155828094482,40.08304227371216,55.90135828094483,38.53284127371216C55.90135828094483,38.53284127371216,51.38375728094483,38.53284127371216,51.38375728094483,38.53284127371216C51.38375728094483,38.53284127371216,51.38375728094483,38.53284127371216,51.38375728094483,38.53284127371216ZM27.466859280944824,20.639443273712157C29.681357280944823,21.259442273712157,30.567158280944824,19.66504127371216,30.567158280944824,19.66504127371216C28.618357280944824,19.00064227371216,27.466859280944824,20.639443273712157,27.466859280944824,20.639443273712157C27.466859280944824,20.639443273712157,27.466859280944824,20.639443273712157,27.466859280944824,20.639443273712157ZM57.14155828094482,44.29064227371216C56.74295728094482,44.29064227371216,53.022559280944826,44.37914327371216,51.560958280944824,44.37914327371216C51.560958280944824,44.37914327371216,51.38375728094483,46.59374327371216,50.49795828094482,48.232441273712155C50.49795828094482,48.232441273712155,54.528357280944824,48.63104327371216,56.388556280944826,47.346642273712156C56.65435728094482,46.63804327371216,57.09725828094482,45.57504327371216,57.14155828094482,44.51204327371216C57.14155828094482,44.51204327371216,57.14155828094482,44.29064227371216,57.14155828094482,44.29064227371216C57.14155828094482,44.29064227371216,57.14155828094482,44.29064227371216,57.14155828094482,44.29064227371216C57.14155828094482,44.29064227371216,57.14155828094482,44.29064227371216,57.14155828094482,44.29064227371216ZM5.587277880944824,31.13634127371216C4.081397950944824,37.86844327371216,7.447487880944824,39.02004327371216,16.615658280944825,45.397843273712155C29.238457280944825,53.193043273712156,29.681357280944823,59.61514327371216,29.681357280944823,59.88094427371216C29.681357280944823,60.146641273712156,29.327058280944826,60.412342273712156,28.839858280944824,60.102341273712156C26.403857280944823,54.38884427371216,18.520158280944827,50.269840273712155,18.520158280944827,50.269840273712155C18.520158280944827,50.269840273712155,18.520158280944827,54.078842273712155,18.520158280944827,54.078842273712155C18.520158280944827,54.078842273712155,17.811457280944822,54.078842273712155,17.811457280944822,54.078842273712155C17.235657280944825,50.44704127371216,11.300767880944825,45.75224327371216,6.517377880944824,41.411743273712155C1.6897078809448243,37.071243273712156,4.214268920944824,31.22484227371216,4.524303910944824,30.737642273712158C4.790047880944824,30.206242273712157,5.587277880944824,31.13634127371216,5.587277880944824,31.13634127371216C5.587277880944824,31.13634127371216,5.587277880944824,31.13634127371216,5.587277880944824,31.13634127371216C5.587277880944824,31.13634127371216,5.587277880944824,31.13634127371216,5.587277880944824,31.13634127371216Z" fill="#E8C82C" fill-opacity="1"/><path d="M64.18435019311524,80.60890169199219C64.18435019311524,80.60890169199219,64.18435019311524,78.39436778199219,64.18435019311524,78.39436778199219C64.18435019311524,78.39436778199219,63.475704193115234,78.39436778199219,63.475704193115234,78.39436778199219C63.475704193115234,78.39436778199219,63.475704193115234,77.95146179199219,63.475704193115234,77.95146179199219C63.475704193115234,77.95146179199219,65.42448409311524,77.95146179199219,65.42448409311524,77.95146179199219C65.42448409311524,77.95146179199219,65.42448409311524,78.39436778199219,65.42448409311524,78.39436778199219C65.42448409311524,78.39436778199219,64.71584419311523,78.39436778199219,64.71584419311523,78.39436778199219C64.71584419311523,78.39436778199219,64.71584419311523,80.60890169199219,64.71584419311523,80.60890169199219C64.71584419311523,80.60890169199219,64.18435019311524,80.60890169199219,64.18435019311524,80.60890169199219C64.18435019311524,80.60890169199219,64.18435019311524,80.60890169199219,64.18435019311524,80.60890169199219C64.18435019311524,80.60890169199219,64.18435019311524,80.60890169199219,64.18435019311524,80.60890169199219ZM65.55736419311523,80.60890169199219C65.55736419311523,80.60890169199219,65.55736419311523,77.95146179199219,65.55736419311523,77.95146179199219C65.55736419311523,77.95146179199219,66.39888429311523,77.95146179199219,66.39888429311523,77.95146179199219C66.39888429311523,77.95146179199219,66.88608409311523,79.7673817919922,66.88608409311523,79.7673817919922C66.88608409311523,79.7673817919922,67.37327409311523,77.95146179199219,67.37327409311523,77.95146179199219C67.37327409311523,77.95146179199219,68.21479419311524,77.95146179199219,68.21479419311524,77.95146179199219C68.21479419311524,77.95146179199219,68.21479419311524,80.60890169199219,68.21479419311524,80.60890169199219C68.21479419311524,80.60890169199219,67.68331429311523,80.60890169199219,67.68331429311523,80.60890169199219C67.68331429311523,80.60890169199219,67.68331429311523,78.52724081199219,67.68331429311523,78.52724081199219C67.68331429311523,78.52724081199219,67.15182419311523,80.60890169199219,67.15182419311523,80.60890169199219C67.15182419311523,80.60890169199219,66.62033419311524,80.60890169199219,66.62033419311524,80.60890169199219C66.62033419311524,80.60890169199219,66.08884429311523,78.52724081199219,66.08884429311523,78.52724081199219C66.08884429311523,78.52724081199219,66.08884429311523,80.60890169199219,66.08884429311523,80.60890169199219C66.08884429311523,80.60890169199219,65.55736419311523,80.60890169199219,65.55736419311523,80.60890169199219C65.55736419311523,80.60890169199219,65.55736419311523,80.60890169199219,65.55736419311523,80.60890169199219Z" fill="#231916" fill-opacity="1"/></svg>