<svg xmlns="http://www.w3.org/2000/svg" xmlns:xlink="http://www.w3.org/1999/xlink" fill="none" version="1.1" width="88" height="37.49609375" viewBox="0 0 88 37.49609375"><path d="M9.094947017729282e-13,0.33957597613334656C9.094947017729282e-13,0.33957597613334656,24.71190100000091,34.824373976133344,24.71190100000091,34.824373976133344C26.53940000000091,37.375174976133344,27.98310100000091,37.287176976133345,30.95430000000091,37.22667597613334C30.95430000000091,37.22667597613334,38.15829800000091,37.07757497613335,38.15829800000091,37.07757497613335C38.15829800000091,37.07757497613335,14.433200000000909,4.150255876133347,14.433200000000909,4.150255876133347C12.97870000000091,2.1317459761333466,11.93740000000091,0.7305839661333466,9.18420030000091,0.43418437213334654C9.18420030000091,0.43418437213334654,9.094947017729282e-13,0.33957597613334656,9.094947017729282e-13,0.33957597613334656C9.094947017729282e-13,0.33957597613334656,9.094947017729282e-13,0.33957597613334656,9.094947017729282e-13,0.33957597613334656Z" fill-rule="evenodd" fill="#1A87BD" fill-opacity="1"/><path d="M35.462162017822266,6.3115046103080035C35.462162017822266,6.3115046103080035,41.303932217822265,34.093466410308004,41.303932217822265,34.093466410308004C41.620091917822265,35.595766410308,42.63683221782227,36.783163410308006,44.18290231782227,37.127466410308C44.18290231782227,37.127466410308,48.82226201782227,22.763164410308004,48.82226201782227,22.763164410308004C48.82226201782227,22.763164410308004,44.73438171782227,4.674414410308003,44.73438171782227,4.674414410308003C43.690691917822264,0.7685286103080035,41.961991817822266,-0.5787424096919965,37.60342191782227,0.26554658030800343C37.60342191782227,0.26554658030800343,35.462162017822266,6.3115046103080035,35.462162017822266,6.3115046103080035C35.462162017822266,6.3115046103080035,35.462162017822266,6.3115046103080035,35.462162017822266,6.3115046103080035Z" fill-rule="evenodd" fill="#16924B" fill-opacity="1"/><path d="M60.613040924072266,14.064364809679985C60.613040924072266,14.064364809679985,65.22849082407227,33.68176480967998,65.22849082407227,33.68176480967998C65.64106082407227,35.435064809679986,66.25901082407226,36.924764809679985,68.25896072407227,37.32116580967998C68.25896072407227,37.32116580967998,72.98874092407226,23.251464809679984,72.98874092407226,23.251464809679984C72.98874092407226,23.251464809679984,68.69128132407226,4.516654909679985,68.69128132407226,4.516654909679985C68.03800102407226,1.834094809679985,67.77693082407227,0.28682680967998503,65.19736102407226,0.17126119367998505C64.83689072407226,0.15509394367998505,64.43150092407227,0.16587210367998503,63.97403092407227,0.20658961267998505C63.97403092407227,0.20658961267998505,60.613040924072266,14.064364809679985,60.613040924072266,14.064364809679985C60.613040924072266,14.064364809679985,60.613040924072266,14.064364809679985,60.613040924072266,14.064364809679985Z" fill-rule="evenodd" fill="#16924B" fill-opacity="1"/><path d="M0.31795504689216614,37.371899033837934C0.31795504689216614,37.371899033837934,25.685554046892165,4.318850033837932,25.685554046892165,4.318850033837932C28.686054046892167,0.40876600383793155,30.238754046892165,-0.23013899616206843,35.30085404689217,0.061470098837931565C35.30085404689217,0.061470098837931565,40.02955604689217,0.02674049883793157,40.02955604689217,0.02674049883793157C40.02955604689217,0.02674049883793157,14.431355046892167,33.95999903383793,14.431355046892167,33.95999903383793C12.753555046892167,35.973701033837926,11.958955046892166,37.371899033837934,9.074615546892167,37.371899033837934C9.074615546892167,37.371899033837934,0.31795504689216614,37.371899033837934,0.31795504689216614,37.371899033837934C0.31795504689216614,37.371899033837934,0.31795504689216614,37.371899033837934,0.31795504689216614,37.371899033837934Z" fill-rule="evenodd" fill="#31B4D9" fill-opacity="1"/><path d="M44.18303298950195,37.127601222420694C44.18303298950195,37.127601222420694,52.704973189501956,37.25090022242069,52.704973189501956,37.25090022242069C56.030032989501954,37.359901222420696,56.39833298950195,34.198299222420694,57.05693298950195,31.61810122242069C57.05693298950195,31.61810122242069,65.15993298950195,0.17103712242069244,65.15993298950195,0.17103712242069244C65.15993298950195,0.17103712242069244,64.05763198950196,0.13990022242069244,64.05763198950196,0.13990022242069244C64.05763198950196,0.13990022242069244,58.64793298950195,0.31833923242069245,58.64793298950195,0.31833923242069245C53.41932298950195,0.5147412224206924,52.646292689501955,5.197850222420692,51.896613089501955,9.812709822420693C50.28707308950195,19.743601222420693,47.12068298950195,27.57990122242069,44.18303298950195,37.127601222420694C44.18303298950195,37.127601222420694,44.18303298950195,37.127601222420694,44.18303298950195,37.127601222420694Z" fill-rule="evenodd" fill="#57AA51" fill-opacity="1"/><path d="M76.69909099824218,7.834948664076233C74.31053069824219,17.977757764076234,71.56449079824219,27.751258764076233,68.25859069824219,37.320458764076236C68.25859069824219,37.320458764076236,76.2248506982422,37.49585876407623,76.2248506982422,37.49585876407623C76.2248506982422,37.49585876407623,76.90927029824219,37.42465776407623,76.90927029824219,37.42465776407623C79.92599069824219,36.90065876407623,80.58219069824219,34.87375776407623,81.14029069824218,32.281058764076235C81.14029069824218,32.281058764076235,87.99999069824219,0.3764587640762329,87.99999069824219,0.3764587640762329C87.99999069824219,0.3764587640762329,83.93719069824219,0.3764587640762329,83.93719069824219,0.3764587640762329C78.11762049824219,0.3764587640762329,77.7170304982422,3.514098764076233,76.69909099824218,7.834948664076233C76.69909099824218,7.834948664076233,76.69909099824218,7.834948664076233,76.69909099824218,7.834948664076233Z" fill-rule="evenodd" fill="#57AA51" fill-opacity="1"/></svg>