<svg xmlns="http://www.w3.org/2000/svg" xmlns:xlink="http://www.w3.org/1999/xlink" fill="none" version="1.1" width="180" height="180" viewBox="0 0 180 180"><defs><filter id="master_svg0_0_909" filterUnits="objectBoundingBox" color-interpolation-filters="sRGB" x="-0.203125" y="-0.078125" width="1.40625" height="1.40625"><feFlood flood-opacity="0" result="BackgroundImageFix"/><feColorMatrix in="SourceAlpha" type="matrix" values="0 0 0 0 0 0 0 0 0 0 0 0 0 0 0 0 0 0 127 0"/><feOffset dy="16" dx="0"/><feGaussianBlur stdDeviation="6.5"/><feColorMatrix type="matrix" values="0 0 0 0 0 0 0 0 0 0 0 0 0 0 0 0 0 0 0.029999999329447746 0"/><feBlend mode="normal" in2="BackgroundImageFix" result="effect1_dropShadow"/><feBlend mode="normal" in="SourceGraphic" in2="effect1_dropShadow" result="shape"/></filter><clipPath id="master_svg1_0_909"><rect x="26" y="10" width="128" height="128" rx="0"/></clipPath></defs><g filter="url(#master_svg0_0_909)"><g clip-path="url(#master_svg1_0_909)"><path d="M54,10C54,10,126,10,126,10C144.667,10,154,19.3333302,154,38C154,38,154,110,154,110C154,128.667,144.667,138,126,138C126,138,54,138,54,138C35.3333302,138,26,128.667,26,110C26,110,26,38,26,38C26,19.3333302,35.3333302,10,54,10C54,10,54,10,54,10Z" fill="#FFFFFF" fill-opacity="1"/><path d="M90,31.5C113.472,31.5,132.5,50.528,132.5,74C132.5,97.472,113.472,116.5,90,116.5C66.52799999999999,116.5,47.5,97.472,47.5,74C47.5,50.528,66.52799999999999,31.5,90,31.5C90,31.5,90,31.5,90,31.5ZM56.7969999,74C56.7969999,90.759998,69.2145,104.620003,85.351501,106.879997C85.351501,106.879997,85.351501,91.265499,85.351501,91.265499C85.351501,91.265499,76.914,91.265499,76.914,91.265499C72.771999,91.265499,69.414,87.908001,69.414,83.765499C69.414,83.765499,69.414,64.235001,69.414,64.235001C69.414,60.092501,72.771999,56.735001,76.914,56.735001C76.914,56.735001,85.351501,56.734501,85.351501,56.734501C85.351501,56.734501,85.351501,41.1195002,85.351501,41.1195002C69.2145,43.3805,56.7965002,57.239999999999995,56.7965002,74C56.7965002,74,56.7969999,74,56.7969999,74C56.7969999,74,56.7969999,74,56.7969999,74ZM94.648499,41.119999899999996C94.648499,41.119999899999996,94.647999,56.733999,94.647999,56.733999C94.647999,56.733999,103.085999,56.733999,103.085999,56.733999C107.228001,56.733999,110.585999,60.091999,110.585999,64.234001C110.585999,64.234001,110.585999,83.765499,110.585999,83.765499C110.585999,87.908001,107.228001,91.265499,103.085999,91.265499C103.085999,91.265499,94.647999,91.265499,94.647999,91.265499C94.647999,91.265499,94.648499,106.880501,94.648499,106.880501C110.7855,104.619499,123.203499,90.759998,123.203499,74C123.203499,57.407499,111.032501,43.658,95.1315,41.191C95.1315,41.191,94.648499,41.1195002,94.648499,41.1195002C94.648499,41.1195002,94.648499,41.119999899999996,94.648499,41.119999899999996C94.648499,41.119999899999996,94.648499,41.119999899999996,94.648499,41.119999899999996ZM99.289001,66.030998C99.289001,66.030998,80.710999,66.030998,80.710999,66.030998C80.197899,66.030998,79.704399,66.22819899999999,79.3326,66.581902C78.9608,66.935501,78.73920100000001,67.418499,78.713499,67.931C78.713499,67.931,78.711,68.030998,78.711,68.030998C78.711,68.030998,78.711,79.969002,78.711,79.969002C78.711,80.482101,78.908199,80.975601,79.2619,81.34740099999999C79.615501,81.7192,80.098499,81.9408,80.61099999999999,81.966499C80.61099999999999,81.966499,80.710999,81.969002,80.710999,81.969002C80.710999,81.969002,99.289001,81.969002,99.289001,81.969002C99.802101,81.969002,100.295601,81.77180100000001,100.6674,81.418098C101.0392,81.064499,101.26079899999999,80.581501,101.28649899999999,80.069C101.28649899999999,80.069,101.289001,79.969002,101.289001,79.969002C101.289001,79.969002,101.289001,68.031502,101.289001,68.031502C101.289001,67.50109900000001,101.0783,66.992401,100.703201,66.617298C100.328098,66.242199,99.819401,66.031502,99.289001,66.031502C99.289001,66.031502,99.289001,66.030998,99.289001,66.030998C99.289001,66.030998,99.289001,66.030998,99.289001,66.030998Z" fill="#B81C22" fill-opacity="1"/></g></g></svg>