<svg xmlns="http://www.w3.org/2000/svg" xmlns:xlink="http://www.w3.org/1999/xlink" fill="none" version="1.1" width="85" height="85" viewBox="0 0 85 85"><path d="M42.5,0C65.972,0,85,19.028,85,42.5C85,65.972,65.972,85,42.5,85C19.028,85,0,65.972,0,42.5C0,19.028,19.028,0,42.5,0C42.5,0,42.5,0,42.5,0ZM9.2969999,42.5C9.2969999,59.259998,21.7145,73.120003,37.851501,75.379997C37.851501,75.379997,37.851501,59.765499,37.851501,59.765499C37.851501,59.765499,29.414,59.765499,29.414,59.765499C25.271999,59.765499,21.914,56.408001,21.914,52.265499C21.914,52.265499,21.914,32.735001,21.914,32.735001C21.914,28.592501,25.271999,25.235001,29.414,25.235001C29.414,25.235001,37.851501,25.234501,37.851501,25.234501C37.851501,25.234501,37.851501,9.6195002,37.851501,9.6195002C21.7145,11.8805,9.2965002,25.74,9.2965002,42.5C9.2965002,42.5,9.2969999,42.5,9.2969999,42.5C9.2969999,42.5,9.2969999,42.5,9.2969999,42.5ZM47.148499,9.6199999C47.148499,9.6199999,47.147999,25.233999,47.147999,25.233999C47.147999,25.233999,55.585999,25.233999,55.585999,25.233999C59.728001,25.233999,63.085999,28.591999,63.085999,32.734001C63.085999,32.734001,63.085999,52.265499,63.085999,52.265499C63.085999,56.408001,59.728001,59.765499,55.585999,59.765499C55.585999,59.765499,47.147999,59.765499,47.147999,59.765499C47.147999,59.765499,47.148499,75.380501,47.148499,75.380501C63.2855,73.119499,75.703499,59.259998,75.703499,42.5C75.703499,25.907499,63.532501,12.158,47.6315,9.691C47.6315,9.691,47.148499,9.6195002,47.148499,9.6195002C47.148499,9.6195002,47.148499,9.6199999,47.148499,9.6199999C47.148499,9.6199999,47.148499,9.6199999,47.148499,9.6199999ZM51.789001,34.530998C51.789001,34.530998,33.210999,34.530998,33.210999,34.530998C32.697899,34.530998,32.204399,34.728199,31.8326,35.081902C31.4608,35.435501,31.239201,35.918499,31.213499,36.431C31.213499,36.431,31.211,36.530998,31.211,36.530998C31.211,36.530998,31.211,48.469002,31.211,48.469002C31.211,48.982101,31.408199,49.475601,31.7619,49.847401C32.115501,50.2192,32.598499,50.4408,33.111,50.466499C33.111,50.466499,33.210999,50.469002,33.210999,50.469002C33.210999,50.469002,51.789001,50.469002,51.789001,50.469002C52.302101,50.469002,52.795601,50.271801,53.1674,49.918098C53.5392,49.564499,53.760799,49.081501,53.786499,48.569C53.786499,48.569,53.789001,48.469002,53.789001,48.469002C53.789001,48.469002,53.789001,36.531502,53.789001,36.531502C53.789001,36.001099,53.5783,35.492401,53.203201,35.117298C52.828098,34.742199,52.319401,34.531502,51.789001,34.531502C51.789001,34.531502,51.789001,34.530998,51.789001,34.530998C51.789001,34.530998,51.789001,34.530998,51.789001,34.530998Z" fill="#B81C22" fill-opacity="1"/></svg>