<svg xmlns="http://www.w3.org/2000/svg" xmlns:xlink="http://www.w3.org/1999/xlink" fill="none" version="1.1" width="82.5" height="45.00019836425781" viewBox="0 0 82.5 45.00019836425781"><path d="M82.5,7.9502401C82.5,7.9502401,82.5,0.950239,82.5,0.950239C82.5,0.35023901,82.150002,0.00023782234,81.550003,0.00023782234C81.550003,0.00023782234,55.5,0.00023782234,55.5,0.00023782234C52.799999,0.00023782234,52.700001,0.950239,52.700001,2.4502399C52.700001,2.4502399,52.700001,19.100201,52.700001,19.100201C52.700001,20.8002,52.450001,20.5002,51.950001,19.950199C48.900002,16.2502,37.049999,2.0002401,36.450001,1.30024C35.299999,-0.049763002,34.549999,0.00023782234,32.299999,0.00023782234C32.299999,0.00023782234,3.5999999,0.00023782234,3.5999999,0.00023782234C4.7683699e-7,0.00023782234,0,1.75024,0,3.7002399C0,3.7002399,0,42.550201,0,42.550201C0,44.100201,0.90000099,45.000198,2.95,45.000198C2.95,45.000198,23.200001,45.000198,23.200001,45.000198C24.549999,45.000198,25.35,44.4002,25.35,43.250198C25.35,43.250198,25.35,26.0002,25.35,26.0002C25.35,25.5502,25.5,25.5002,25.799999,25.8002C26.049999,26.0502,36.25,38.300201,40.200001,43.100201C41.849998,44.800201,42.150002,45.000198,45,45.000198C45,45.000198,75.300003,45.000198,75.300003,45.000198C77.900002,45.000198,78.050003,43.800201,78.050003,42.550201C78.050003,42.550201,78.050003,9.6502399,78.050003,9.6502399C78.050003,9.6502399,80.25,9.4502401,81.199997,9.3502398C82.199997,9.2502403,82.5,8.9502401,82.5,7.9502401C82.5,7.9502401,82.5,7.9502401,82.5,7.9502401Z" fill="#EC1D24" fill-opacity="1"/></svg>