<svg xmlns="http://www.w3.org/2000/svg" xmlns:xlink="http://www.w3.org/1999/xlink" fill="none" version="1.1" width="85" height="45.5" viewBox="0 0 85 45.5"><path d="M79.082497,0C79.082497,0,79.684502,0.0499992,79.684502,0.0499992C79.684502,0.0499992,80.286003,0.150002,80.286003,0.150002C80.286003,0.150002,80.837997,0.299999,80.837997,0.299999C80.837997,0.299999,81.389503,0.5,81.389503,0.5C81.389503,0.5,81.890999,0.75,81.890999,0.75C81.890999,0.75,82.392502,1.05,82.392502,1.05C82.392502,1.05,82.843498,1.4,82.843498,1.4C82.843498,1.4,83.245003,1.8,83.245003,1.8C83.245003,1.8,83.646004,2.2,83.646004,2.2C83.646004,2.2,83.997002,2.6500001,83.997002,2.6500001C83.997002,2.6500001,84.297997,3.1500001,84.297997,3.1500001C84.297997,3.1500001,84.5485,3.6500001,84.5485,3.6500001C84.5485,3.6500001,84.749496,4.1999998,84.749496,4.1999998C84.749496,4.1999998,84.899498,4.75,84.899498,4.75C84.899498,4.75,84.949501,5.4000001,84.949501,5.4000001C84.949501,5.4000001,85,6,85,6C85,6,85,39.549999,85,39.549999C85,39.549999,84.949997,40.150002,84.949997,40.150002C84.949997,40.150002,84.849998,40.75,84.849998,40.75C84.849998,40.75,84.698997,41.299999,84.698997,41.299999C84.698997,41.299999,84.499001,41.849998,84.499001,41.849998C84.499001,41.849998,84.248001,42.349998,84.248001,42.349998C84.248001,42.349998,83.946999,42.849998,83.946999,42.849998C83.946999,42.849998,83.596001,43.299999,83.596001,43.299999C83.596001,43.299999,82.793503,44.099998,82.793503,44.099998C82.793503,44.099998,82.342003,44.450001,82.342003,44.450001C82.342003,44.450001,81.8405,44.75,81.8405,44.75C81.8405,44.75,81.338997,45,81.338997,45C81.338997,45,80.787498,45.200001,80.787498,45.200001C80.787498,45.200001,80.236,45.349998,80.236,45.349998C80.236,45.349998,79.634003,45.450001,79.634003,45.450001C79.634003,45.450001,79.032501,45.5,79.032501,45.5C79.032501,45.5,5.9675002,45.5,5.9675002,45.5C5.9675002,45.5,5.3660002,45.450001,5.3660002,45.450001C5.3660002,45.450001,4.7639999,45.349998,4.7639999,45.349998C4.7639999,45.349998,4.2125001,45.200001,4.2125001,45.200001C4.2125001,45.200001,3.661,45,3.661,45C3.661,45,3.1594999,44.75,3.1594999,44.75C3.1594999,44.75,2.658,44.450001,2.658,44.450001C2.658,44.450001,2.2065001,44.099998,2.2065001,44.099998C2.2065001,44.099998,1.404,43.299999,1.404,43.299999C1.404,43.299999,1.053,42.849998,1.053,42.849998C1.053,42.849998,0.75200099,42.349998,0.75200099,42.349998C0.75200099,42.349998,0.501499,41.849998,0.501499,41.849998C0.501499,41.849998,0.30100101,41.299999,0.30100101,41.299999C0.30100101,41.299999,0.150499,40.75,0.150499,40.75C0.150499,40.75,0.0505009,40.099998,0.0505009,40.099998C0.0505009,40.099998,0,39.5,0,39.5C0,39.5,0,5.9499998,0,5.9499998C0,5.9499998,0.0499992,5.3499999,0.0499992,5.3499999C0.0499992,5.3499999,0.15000001,4.75,0.15000001,4.75C0.15000001,4.75,0.30100101,4.1999998,0.30100101,4.1999998C0.30100101,4.1999998,0.50099897,3.6500001,0.50099897,3.6500001C0.50099897,3.6500001,0.75200099,3.1500001,0.75200099,3.1500001C0.75200099,3.1500001,1.053,2.6500001,1.053,2.6500001C1.053,2.6500001,1.404,2.2,1.404,2.2C1.404,2.2,2.2065001,1.4,2.2065001,1.4C2.2065001,1.4,2.658,1.05,2.658,1.05C2.658,1.05,3.1594999,0.75,3.1594999,0.75C3.1594999,0.75,3.661,0.5,3.661,0.5C3.661,0.5,4.2125001,0.299999,4.2125001,0.299999C4.2125001,0.299999,4.7639999,0.150002,4.7639999,0.150002C4.7639999,0.150002,5.3660002,0.0499992,5.3660002,0.0499992C5.3660002,0.0499992,5.9675002,0,5.9675002,0C5.9675002,0,79.082497,0,79.082497,0C79.082497,0,79.082497,0,79.082497,0C79.082497,0,79.082497,0,79.082497,0ZM79.082497,0.950001C79.082497,0.950001,6.0675001,0.950001,6.0675001,0.950001C3.3065,0.950001,1.0785,3.1255,1.005,5.8600001C1.005,5.8600001,1.003,6,1.003,6C1.003,6,1.003,39.5,1.003,39.5C1.003,42.253502,3.1849999,44.474998,5.928,44.548C5.928,44.548,6.0679998,44.549999,6.0679998,44.549999C6.0679998,44.549999,79.083,44.549999,79.083,44.549999C81.844002,44.549999,84.071999,42.3745,84.1455,39.639999C84.1455,39.639999,84.147499,39.5,84.147499,39.5C84.147499,39.5,84.147499,6,84.147499,6C84.097504,3.2,81.8405,0.950001,79.082497,0.950001C79.082497,0.950001,79.082497,0.950001,79.082497,0.950001ZM78.975502,2.6659999C80.829498,2.6659999,82.332497,4.1634998,82.332497,6.0110002C82.332497,6.0110002,82.332497,28.825001,82.332497,28.825001C82.332497,30.672501,80.829498,32.169998,78.975502,32.169998C78.975502,32.169998,6.0250001,32.169998,6.0250001,32.169998C4.171,32.169998,2.668,30.672501,2.668,28.825001C2.668,28.825001,2.668,6.0110002,2.668,6.0110002C2.668,4.1634998,4.171,2.6659999,6.0250001,2.6659999C6.0250001,2.6659999,78.974998,2.6659999,78.974998,2.6659999C78.974998,2.6659999,78.975502,2.6659999,78.975502,2.6659999C78.975502,2.6659999,78.975502,2.6659999,78.975502,2.6659999ZM57.981998,11.602C57.981998,11.602,44.855,11.602,44.855,11.602C44.705002,11.602,44.6045,11.702,44.6045,11.852C44.6045,11.852,44.6045,13,44.6045,13C44.6045,13.15,44.704498,13.2495,44.8545,13.2495C44.8545,13.2495,50.265999,13.2495,50.265999,13.2495C50.265999,13.2495,50.265999,19.0905,50.265999,19.0905C50.265999,19.0905,44.403999,19.0905,44.403999,19.0905C44.254002,19.0905,44.1535,19.1905,44.1535,19.34C44.1535,19.34,44.1535,20.538,44.1535,20.538C44.1535,20.688,44.253502,20.788,44.4035,20.788C44.4035,20.788,50.265999,20.788,50.265999,20.788C50.265999,20.788,50.265999,23.034,50.265999,23.034C50.265999,23.184,50.366001,23.284,50.516499,23.284C50.516499,23.284,52.320499,23.284,52.320499,23.284C52.470501,23.284,52.570499,23.184,52.570499,23.034C52.570499,23.034,52.570499,20.7875,52.570499,20.7875C52.570499,20.7875,58.432999,20.7875,58.432999,20.7875C58.583,20.7875,58.683498,20.6875,58.683498,20.538C58.683498,20.538,58.683498,19.34,58.683498,19.34C58.683498,19.190001,58.5835,19.09,58.433498,19.09C58.433498,19.09,52.570999,19.09,52.570999,19.09C52.570999,19.09,52.570999,13.25,52.570999,13.25C52.570999,13.25,57.981998,13.25,57.981998,13.25C58.132,13.25,58.232498,13.15,58.232498,13C58.232498,13,58.232498,11.852,58.232498,11.852C58.232498,11.702,58.1325,11.6025,57.982498,11.6025C57.982498,11.6025,57.981998,11.602,57.981998,11.602C57.981998,11.602,57.981998,11.602,57.981998,11.602ZM19.000999,10.953C19.000999,10.953,17.0975,10.953,17.0975,10.953C16.947001,10.953,16.847,11.053,16.847,11.203C16.847,11.203,16.847,12.6005,16.847,12.6005C16.847,12.6005,12.137,12.6005,12.137,12.6005C11.285,12.6005,10.584,13.2995,10.584,14.148C10.584,14.148,10.584,19.24,10.584,19.24C10.584,20.089001,11.285,20.7875,12.137,20.7875C12.137,20.7875,16.847,20.7875,16.847,20.7875C16.847,20.7875,16.847,22.984501,16.847,22.984501C16.847,23.134501,16.947001,23.233999,17.097,23.233999C17.097,23.233999,19.000999,23.233999,19.000999,23.233999C19.151501,23.233999,19.252001,23.134001,19.252001,22.983999C19.252001,22.983999,19.252001,20.7875,19.252001,20.7875C19.252001,20.7875,23.962,20.7875,23.962,20.7875C24.813499,20.7875,25.514999,20.089001,25.514999,19.24C25.514999,19.24,25.514999,14.148,25.514999,14.148C25.514999,13.2995,24.813499,12.6005,23.9615,12.6005C23.9615,12.6005,19.251499,12.6005,19.251499,12.6005C19.251499,12.6005,19.251499,11.2025,19.251499,11.2025C19.251499,11.0525,19.151501,10.953,19.001499,10.953C19.001499,10.953,19.000999,10.953,19.000999,10.953C19.000999,10.953,19.000999,10.953,19.000999,10.953ZM40.8465,11.3525C40.8465,11.3525,29.2225,11.3525,29.2225,11.3525C28.370501,11.3525,27.669001,12.0515,27.669001,12.9C27.669001,12.9,27.669001,21.386999,27.669001,21.386999C27.669001,22.2355,28.370501,22.9345,29.2225,22.9345C29.2225,22.9345,40.8465,22.9345,40.8465,22.9345C41.698502,22.9345,42.400002,22.2355,42.400002,21.386999C42.400002,21.386999,42.400002,12.9,42.400002,12.9C42.400002,12.0515,41.698502,11.3525,40.8465,11.3525C40.8465,11.3525,40.8465,11.3525,40.8465,11.3525C40.8465,11.3525,40.8465,11.3525,40.8465,11.3525ZM64.545502,14.2975C64.545502,14.2975,62.9925,14.2975,62.9925,14.2975C62.842499,14.2975,62.742001,14.3975,62.742001,14.5475C62.742001,14.5475,62.742001,15.546,62.742001,15.546C62.742001,15.546,60.286999,15.546,60.286999,15.546C60.137001,15.546,60.036499,15.646,60.036499,15.7955C60.036499,15.7955,60.036499,16.943501,60.036499,16.943501C60.036499,17.0935,60.136501,17.193501,60.286499,17.193501C60.286499,17.193501,62.591499,17.193501,62.591499,17.193501C62.591499,17.193501,62.591499,17.892,62.591499,17.892C62.591499,18.740999,62.9925,19.539499,63.994499,20.039C64.3955,20.239,64.8965,20.438,65.397499,20.688C64.495499,21.0375,63.644001,21.237,62.7925,21.237C62.7925,21.237,60.587502,21.237,60.587502,21.237C60.4375,21.237,60.286999,21.337,60.286999,21.487C60.286999,21.487,60.286999,22.635,60.286999,22.635C60.286999,22.785,60.387001,22.884501,60.587502,22.884501C60.587502,22.884501,62.742001,22.884501,62.742001,22.884501C63.594002,22.884501,64.646004,22.6845,65.547997,22.385C65.898499,22.235001,66.599998,21.936001,67.351501,21.5865C68.153,21.936001,68.804497,22.2355,69.205498,22.385C70.107498,22.735001,71.1595,22.884501,72.011002,22.884501C72.011002,22.884501,74.166,22.884501,74.166,22.884501C74.316002,22.884501,74.416,22.7845,74.416,22.634501C74.416,22.634501,74.416,21.4865,74.416,21.4865C74.416,21.3365,74.316002,21.237,74.166,21.237C74.166,21.237,71.960999,21.237,71.960999,21.237C71.109497,21.237,70.307503,21.087,69.356003,20.688C69.857002,20.438,70.358002,20.188499,70.758499,20.039C71.810997,19.539499,72.161499,18.740999,72.161499,17.892C72.161499,17.892,72.161499,17.243,72.161499,17.243C72.161499,17.243,74.466499,17.243,74.466499,17.243C74.616501,17.243,74.716499,17.143,74.716499,16.9935C74.716499,16.9935,74.716499,15.8455,74.716499,15.8455C74.817001,15.6955,74.716499,15.5455,74.566498,15.5455C74.566498,15.5455,72.261497,15.5455,72.261497,15.5455C72.261497,15.5455,72.261497,14.5475,72.261497,14.5475C72.261497,14.3975,72.161499,14.2975,72.011497,14.2975C72.011497,14.2975,70.458,14.2975,70.458,14.2975C70.307999,14.2975,70.157501,14.3975,70.157501,14.5475C70.157501,14.5475,70.157501,15.546,70.157501,15.546C70.157501,15.546,64.796501,15.546,64.796501,15.546C64.796501,15.546,64.796501,14.5475,64.796501,14.5475C64.796501,14.3975,64.696503,14.2975,64.545502,14.2975C64.545502,14.2975,64.545502,14.2975,64.545502,14.2975C64.545502,14.2975,64.545502,14.2975,64.545502,14.2975ZM40.295502,12.9C40.295502,12.9,40.295502,21.337,40.295502,21.337C40.295502,21.337,29.723499,21.337,29.723499,21.337C29.723499,21.337,29.723499,12.9,29.723499,12.9C29.723499,12.9,40.295502,12.9,40.295502,12.9C40.295502,12.9,40.295502,12.9,40.295502,12.9C40.295502,12.9,40.295502,12.9,40.295502,12.9ZM39.243,13.8485C39.243,13.8485,30.826,13.8485,30.826,13.8485C30.826,13.8485,30.826,15.2465,30.826,15.2465C30.826,15.2465,33.982498,15.2465,33.982498,15.2465C33.982498,15.2465,33.982498,16.195,33.982498,16.195C33.982498,16.195,31.276501,16.195,31.276501,16.195C31.276501,16.195,31.276501,17.493,31.276501,17.493C31.276501,17.493,33.982498,17.493,33.982498,17.493C33.982498,17.493,33.982498,18.890499,33.982498,18.890499C33.982498,18.890499,30.826,18.890499,30.826,18.890499C30.826,18.890499,30.826,20.2885,30.826,20.2885C30.826,20.2885,39.243,20.2885,39.243,20.2885C39.243,20.2885,39.243,18.2915,39.243,18.2915C39.243,18.2915,37.639999,18.2915,37.639999,18.2915C37.639999,18.2915,37.639999,18.890499,37.639999,18.890499C37.639999,18.890499,36.086498,18.890499,36.086498,18.890499C36.086498,18.890499,36.086498,17.493,36.086498,17.493C36.086498,17.493,38.7925,17.493,38.7925,17.493C38.7925,17.493,38.7925,16.245001,38.7925,16.245001C38.7925,16.245001,36.086498,16.245001,36.086498,16.245001C36.086498,16.245001,36.086498,15.2465,36.086498,15.2465C36.086498,15.2465,39.243,15.2465,39.243,15.2465C39.243,15.2465,39.243,13.8485,39.243,13.8485C39.243,13.8485,39.243,13.8485,39.243,13.8485C39.243,13.8485,39.243,13.8485,39.243,13.8485ZM70.056999,17.2435C70.056999,17.2435,70.107002,17.7425,70.107002,17.7425C70.107002,18.191999,70.007004,18.591,69.405998,18.890499C68.904999,19.140499,68.102997,19.4895,67.401497,19.839001C66.699997,19.4895,65.898499,19.140499,65.397499,18.890499C64.796501,18.591,64.695999,18.241501,64.695999,17.7425C64.695999,17.7425,64.695999,17.243,64.695999,17.243C64.695999,17.243,70.056999,17.243,70.056999,17.243C70.056999,17.243,70.056999,17.2435,70.056999,17.2435C70.056999,17.2435,70.056999,17.2435,70.056999,17.2435ZM16.797001,14.3975C16.797001,14.3975,16.797001,19.190001,16.797001,19.190001C16.797001,19.190001,12.7385,19.190001,12.7385,19.190001C12.7385,19.190001,12.7385,14.3975,12.7385,14.3975C12.7385,14.3975,16.796499,14.3975,16.796499,14.3975C16.796499,14.3975,16.797001,14.3975,16.797001,14.3975C16.797001,14.3975,16.797001,14.3975,16.797001,14.3975ZM23.309999,14.3975C23.309999,14.3975,23.309999,19.190001,23.309999,19.190001C23.309999,19.190001,19.252001,19.190001,19.252001,19.190001C19.252001,19.190001,19.252001,14.3975,19.252001,14.3975C19.252001,14.3975,23.309999,14.3975,23.309999,14.3975C23.309999,14.3975,23.309999,14.3975,23.309999,14.3975ZM57.331001,14.198C57.331001,14.198,55.527,14.198,55.527,14.198C55.327,14.198,55.125999,14.298,55.076,14.448C55.076,14.448,53.272499,17.941999,53.272499,17.941999C53.2225,18.091999,53.272499,18.191999,53.422501,18.191999C53.422501,18.191999,55.226501,18.191999,55.226501,18.191999C55.426498,18.191999,55.626999,18.091999,55.677502,17.941999C55.677502,17.941999,57.480999,14.4475,57.480999,14.4475C57.530998,14.2975,57.480999,14.198,57.331001,14.198C57.331001,14.198,57.331001,14.198,57.331001,14.198ZM47.209999,14.198C47.209999,14.198,45.405998,14.198,45.405998,14.198C45.256001,14.198,45.155499,14.298,45.256001,14.448C45.256001,14.448,47.059502,17.941999,47.059502,17.941999C47.109501,18.042,47.259499,18.191999,47.510502,18.191999C47.510502,18.191999,49.313999,18.191999,49.313999,18.191999C49.464001,18.191999,49.564499,18.091999,49.464001,17.941999C49.464001,17.941999,47.6605,14.4475,47.6605,14.4475C47.6105,14.2975,47.4105,14.198,47.209999,14.198C47.209999,14.198,47.209999,14.198,47.209999,14.198C47.209999,14.198,47.209999,14.198,47.209999,14.198ZM68.253502,10.903C68.253502,10.903,66.449501,10.903,66.449501,10.903C66.2995,10.903,66.199501,11.003,66.199501,11.153C66.199501,11.153,66.199501,11.8015,66.199501,11.8015C66.199501,11.8015,61.439499,11.8015,61.439499,11.8015C60.6875,11.8015,60.036499,12.401,60.036499,13.1995C60.036499,13.1995,60.036499,14.098,60.036499,14.098C60.136501,14.248,60.2365,14.348,60.387001,14.348C60.387001,14.348,61.6395,14.348,61.6395,14.348C61.790001,14.348,61.889999,14.248,61.889999,14.098C61.889999,14.098,61.889999,13.3,61.889999,13.3C61.889999,13.3,72.913002,13.3,72.913002,13.3C72.913002,13.3,72.913002,14.0985,72.913002,14.0985C72.913002,14.2485,73.013,14.3485,73.163498,14.3485C73.163498,14.3485,74.416,14.3485,74.416,14.3485C74.566498,14.3485,74.666496,14.2485,74.666496,14.0985C74.666496,14.0985,74.666496,13.2,74.666496,13.2C74.666496,13.016,74.630203,12.8339,74.5597,12.664C74.489098,12.4941,74.385696,12.3397,74.255402,12.2099C74.125198,12.08,73.970497,11.9771,73.8004,11.9071C73.630203,11.8371,73.447998,11.8014,73.264,11.802C73.264,11.802,68.503998,11.802,68.503998,11.802C68.503998,11.802,68.503998,11.1535,68.503998,11.1535C68.503998,11.0035,68.403999,10.9035,68.253502,10.9035C68.253502,10.9035,68.253502,10.903,68.253502,10.903C68.253502,10.903,68.253502,10.903,68.253502,10.903Z" fill="#EC681B" fill-opacity="1"/><path d="M26.528010631265627,37.43499C26.593010634265625,37.58199,26.716010437265624,37.622999899999996,26.895510437265624,37.557499899999996C28.038508447265624,37.035,28.773508547265624,36.61049,29.100008447265626,36.28399497C29.296008347265627,36.13699502,29.418508547265624,36.06349802,29.467508347265625,36.06349802C29.532508347265626,36.07949799,29.655008347265625,36.16150099,29.835008347265624,36.30850101C30.555608247265624,36.80729,31.337778547265625,37.21064,32.162008247265625,37.5085001C32.34150834726562,37.5734899,32.464008347265626,37.533500000000004,32.52900834726562,37.386C32.562008347265625,37.223,32.48850824726563,37.1005,32.30900864726563,37.0185C31.487838247265625,36.73084,30.712248347265625,36.32671303,30.006008347265624,35.81849599C29.728508447265625,35.605996,29.549008347265627,35.5,29.467508347265625,35.5C29.369508547265625,35.5,29.189508447265624,35.605996,28.928508547265626,35.81849599C28.252538447265625,36.35211402,27.490424457265625,36.76641,26.675010427265626,37.0434999C26.511510031265626,37.125,26.462510630265626,37.2554899,26.528010631265627,37.43499C26.528010631265627,37.43499,26.528010631265627,37.43499,26.528010631265627,37.43499C26.528010631265627,37.43499,26.528010631265627,37.43499,26.528010631265627,37.43499ZM32.333008247265624,41.08499C32.44800854726562,41.06849,32.51300854726563,40.98699,32.52900834726562,40.8399901C32.51300854726563,40.7089901,32.447508347265625,40.64399,32.333008247265624,40.64399C32.333008247265624,40.64399,30.937008347265625,40.64399,30.937008347265625,40.64399C30.969508647265627,40.64399,31.002008447265624,40.62749,31.035008447265625,40.5949898C31.231008547265624,40.3499899,31.468008547265626,39.9414902,31.745008447265626,39.3699901C31.794508447265624,39.223,31.753508547265625,39.10899,31.623008247265624,39.0269899C31.492008247265623,38.9779899,31.394508347265624,39.027,31.329008547265623,39.174C31.165508247265624,39.5500002,30.937008347265625,39.9254899,30.643008247265627,40.3009901C30.545008647265625,40.464489900000004,30.561508647265626,40.5784898,30.692008447265625,40.64399C30.692008447265625,40.64399,29.786008347265625,40.64399,29.786008347265625,40.64399C29.786008347265625,40.64399,29.786008347265625,38.8559999,29.786008347265625,38.8559999C29.786008347265625,38.8559999,32.01500844726563,38.8559999,32.01500844726563,38.8559999C32.145008547265626,38.8559999,32.21900844726562,38.78249,32.235008247265625,38.6354899C32.21900844726562,38.5044899,32.145008547265626,38.43099,32.01500844726563,38.4149899C32.01500844726563,38.4149899,29.786008347265625,38.4149899,29.786008347265625,38.4149899C29.786008347265625,38.4149899,29.786008347265625,37.6554999,29.786008347265625,37.6554999C29.786008347265625,37.6554999,31.182008247265625,37.6554999,31.182008247265625,37.6554999C31.312508547265626,37.6554999,31.386008247265625,37.582,31.402008547265623,37.4355C31.386008247265625,37.3045,31.312508547265626,37.2305,31.182008247265625,37.2145C31.182008247265625,37.2145,27.899508447265625,37.2145,27.899508447265625,37.2145C27.752508447265626,37.2309999,27.679508447265626,37.30449,27.679508447265626,37.43499C27.679508447265626,37.58199,27.752508447265626,37.6554999,27.899508447265625,37.6554999C27.899508447265625,37.6554999,29.271508447265624,37.6554999,29.271508447265624,37.6554999C29.271508447265624,37.6554999,29.271508447265624,38.4149899,29.271508447265624,38.4149899C29.271508447265624,38.4149899,27.091509397265625,38.4149899,27.091509397265625,38.4149899C26.944510427265627,38.43099,26.871009437265624,38.505000100000004,26.871009437265624,38.635C26.871009437265624,38.7825,26.944510427265627,38.8559999,27.091010447265624,38.8559999C27.091010447265624,38.8559999,29.271008447265626,38.8559999,29.271008447265626,38.8559999C29.271008447265626,38.8559999,29.271008447265626,40.64399,29.271008447265626,40.64399C29.271008447265626,40.64399,26.846011427265626,40.64399,26.846011427265626,40.64399C26.699511437265624,40.64399,26.626010437265624,40.7089901,26.626010437265624,40.8399901C26.626010437265624,40.98699,26.699511437265624,41.06849,26.846011427265626,41.08499C26.846011427265626,41.08499,32.333008247265624,41.08499,32.333008247265624,41.08499C32.333008247265624,41.08499,32.333008247265624,41.08499,32.333008247265624,41.08499C32.333008247265624,41.08499,32.333008247265624,41.08499,32.333008247265624,41.08499ZM27.948508347265626,40.3744898C28.030508447265625,40.5374899,28.144508447265626,40.5864902,28.291508447265624,40.5214901C28.406008447265624,40.45649,28.430508347265626,40.333489900000004,28.365008447265623,40.1539898C28.208438347265623,39.823160200000004,28.028308347265625,39.504010199999996,27.826008447265625,39.1989901C27.712008447265625,39.0839901,27.589508447265626,39.0599899,27.459010417265624,39.12499C27.344510437265626,39.22299,27.328010437265625,39.3374901,27.410010457265624,39.4679899C27.606008447265626,39.7619901,27.785008447265625,40.0639901,27.948508347265626,40.3744898C27.948508347265626,40.3744898,27.948508347265626,40.3744898,27.948508347265626,40.3744898C27.948508347265626,40.3744898,27.948508347265626,40.3744898,27.948508347265626,40.3744898ZM38.48500844726563,41.2804899C38.51750844726563,41.3954902,38.60750844726562,41.4354901,38.75450844726562,41.4029899C38.884508447265624,41.3704901,38.94200844726562,41.28899,38.92600844726562,41.15799C38.86050844726562,40.8154898,38.713508447265625,40.3579898,38.48500844726563,39.78649C38.42000844726562,39.6724901,38.32150844726563,39.6314902,38.191008447265624,39.66399C38.060508447265626,39.7289901,38.01950844726562,39.8274899,38.06850844726563,39.9579902C38.06850844726563,39.99049,38.133508447265626,40.1864901,38.26450844726563,40.54599C38.26450844726563,40.54599,37.725508447265625,40.6194901,37.725508447265625,40.6194901C37.725508447265625,40.6194901,37.725508447265625,39.2720001,37.725508447265625,39.2720001C37.725508447265625,39.2720001,38.33800844726562,39.2720001,38.33800844726562,39.2720001C38.550008447265625,39.2885001,38.65650844726562,39.1659901,38.65650844726562,38.90499C38.65650844726562,38.90499,38.65650844726562,36.627,38.65650844726562,36.627C38.65650844726562,36.41449702,38.53400844726563,36.30850101,38.28900844726562,36.30850101C38.28900844726562,36.30850101,37.725508447265625,36.30850101,37.725508447265625,36.30850101C37.725508447265625,36.30850101,37.725508447265625,35.76949999,37.725508447265625,35.76949999C37.709008447265624,35.639,37.627508447265626,35.5655035,37.48050844726563,35.5490035C37.33350844726563,35.5655035,37.26050844726562,35.638997,37.26050844726562,35.76899701C37.26050844726562,35.76899701,37.26050844726562,36.30850101,37.26050844726562,36.30850101C37.26050844726562,36.30850101,36.72150844726563,36.30850101,36.72150844726563,36.30850101C36.443508147265625,36.30850101,36.31300834726562,36.43099701,36.32950874726562,36.6755C36.32950874726562,36.6755,36.32950874726562,38.95349,36.32950874726562,38.95349C36.29650874726563,39.1984899,36.443508147265625,39.3050001,36.77050844726563,39.2720001C36.77050844726563,39.2720001,37.26050844726562,39.2720001,37.26050844726562,39.2720001C37.26050844726562,39.2720001,37.26050844726562,40.64399,37.26050844726562,40.64399C36.72150844726563,40.6764898,36.443508147265625,40.7009902,36.42750834726563,40.7174902C36.264008547265625,40.73349,36.182508447265626,40.8154898,36.182508447265626,40.9624901C36.21500874726563,41.1094899,36.31300834726562,41.1824899,36.476508147265626,41.1824899C36.50900844726563,41.1664901,37.14600844726563,41.08499,38.386508447265626,40.93749C38.43600844726562,41.1339898,38.46850844726563,41.2479901,38.48500844726563,41.2804899C38.48500844726563,41.2804899,38.48500844726563,41.2804899,38.48500844726563,41.2804899C38.48500844726563,41.2804899,38.48500844726563,41.2804899,38.48500844726563,41.2804899ZM35.839508047265625,36.03899997C35.98650834726563,36.03899997,36.05950834726563,35.97400099,36.05950834726563,35.84300199C36.05950834726563,35.712502,35.98650834726563,35.638997,35.839508047265625,35.622497C35.839508047265625,35.622497,33.39000844726563,35.622497,33.39000844726563,35.622497C33.226508647265625,35.638997,33.137008647265624,35.71249799,33.120508147265625,35.842498C33.137008647265624,35.97349799,33.226508647265625,36.03899997,33.39000844726563,36.03899997C33.39000844726563,36.03899997,35.839508047265625,36.03899997,35.839508047265625,36.03899997C35.839508047265625,36.03899997,35.839508047265625,36.03899997,35.839508047265625,36.03899997ZM35.349508247265625,37.582C35.627008447265624,37.6145,35.758008047265626,37.4759901,35.74150844726562,37.16549C35.74150844726562,37.16549,35.74150844726562,36.749,35.74150844726562,36.749C35.758008047265626,36.47149903,35.63550854726562,36.34099603,35.37400814726563,36.35749602C35.37400814726563,36.35749602,33.78200864726563,36.35749602,33.78200864726563,36.35749602C33.50450844726562,36.35749602,33.37350844726562,36.487499,33.39000844726563,36.749C33.39000844726563,36.749,33.39000844726563,37.16549,33.39000844726563,37.16549C33.37350844726562,37.4429899,33.50450844726562,37.582,33.78200864726563,37.582C33.78200864726563,37.582,35.349508247265625,37.582,35.349508247265625,37.582C35.349508247265625,37.582,35.349508247265625,37.582,35.349508247265625,37.582C35.349508247265625,37.582,35.349508247265625,37.582,35.349508247265625,37.582ZM36.91700844726562,38.83149C36.803008447265626,38.8474901,36.754008447265626,38.8064899,36.77050844726563,38.7089901C36.77050844726563,38.7089901,36.77050844726563,36.9205,36.77050844726563,36.9205C36.754008447265626,36.8225,36.81100844726562,36.7654999,36.941508447265626,36.749C36.941508447265626,36.749,37.260008447265626,36.749,37.260008447265626,36.749C37.260008447265626,36.749,37.260008447265626,38.83149,37.260008447265626,38.83149C37.260008447265626,38.83149,36.91700844726562,38.83149,36.91700844726562,38.83149C36.91700844726562,38.83149,36.91700844726562,38.83149,36.91700844726562,38.83149C36.91700844726562,38.83149,36.91700844726562,38.83149,36.91700844726562,38.83149ZM38.21550844726563,38.7089901C38.21550844726563,38.8069899,38.16650844726563,38.8474901,38.06850844726563,38.83149C38.06850844726563,38.83149,37.725508447265625,38.83149,37.725508447265625,38.83149C37.725508447265625,38.83149,37.725508447265625,36.749,37.725508447265625,36.749C37.725508447265625,36.749,38.044008447265625,36.749,38.044008447265625,36.749C38.158508447265625,36.749,38.21550844726563,36.8145,38.21550844726563,36.9450001C38.21550844726563,36.9450001,38.21550844726563,38.7089901,38.21550844726563,38.7089901C38.21550844726563,38.7089901,38.21550844726563,38.7089901,38.21550844726563,38.7089901ZM35.20250794726562,37.16549C35.20250794726562,37.16549,33.953508347265625,37.16549,33.953508347265625,37.16549C33.855508347265626,37.16549,33.80650854726562,37.1165,33.80650854726562,37.0185C33.80650854726562,37.0185,33.80650854726562,36.8715,33.80650854726562,36.8715C33.79000854726563,36.8065,33.831008447265624,36.7735,33.92900844726562,36.7735C33.92900844726562,36.7735,35.20250794726562,36.7735,35.20250794726562,36.7735C35.284508747265626,36.7735,35.32500834726562,36.8065,35.32500834726562,36.8715C35.32500834726562,36.8715,35.32500834726562,37.043,35.32500834726562,37.043C35.32500834726562,37.125,35.284508747265626,37.16549,35.20250794726562,37.16549C35.20250794726562,37.16549,35.20250794726562,37.16549,35.20250794726562,37.16549C35.20250794726562,37.16549,35.20250794726562,37.16549,35.20250794726562,37.16549ZM33.316508247265624,41.25599C33.447008647265626,41.2399802,33.520508247265624,41.17449,33.536508547265626,41.0604901C33.536508547265626,41.0604901,33.536508547265626,38.51299,33.536508547265626,38.51299C33.520508247265624,38.39849,33.57800864726563,38.34149,33.70850844726562,38.34149C33.70850844726562,38.34149,35.545508347265624,38.34149,35.545508347265624,38.34149C35.610507947265624,38.34149,35.651508347265626,38.39849,35.668008847265625,38.51299C35.668008847265625,38.51299,35.668008847265625,40.64399,35.668008847265625,40.64399C35.668008847265625,40.7909899,35.52100844726563,40.8154898,35.22700884726562,40.7174902C35.09650804726562,40.6684899,35.00700854726563,40.7009902,34.95750804726563,40.8154898C34.92500874726562,40.9459901,34.974008547265626,41.03549,35.10450844726562,41.08499C35.725008047265625,41.2804899,36.05200864726562,41.1499901,36.084508847265624,40.6929898C36.084508847265624,40.6929898,36.084508847265624,38.3905001,36.084508847265624,38.3905001C36.084508847265624,38.0964999,35.91300864726563,37.9495001,35.570008247265626,37.9495001C35.570008247265626,37.9495001,33.561508647265626,37.9495001,33.561508647265626,37.9495001C33.26750854726563,37.9660001,33.120508147265625,38.0964899,33.120508147265625,38.34149C33.120508147265625,38.34149,33.120508147265625,41.0604901,33.120508147265625,41.0604901C33.120508147265625,41.17449,33.18550824726562,41.2399802,33.316508247265624,41.25599C33.316508247265624,41.25599,33.316508247265624,41.25599,33.316508247265624,41.25599C33.316508247265624,41.25599,33.316508247265624,41.25599,33.316508247265624,41.25599ZM34.565508847265626,40.98699C34.69650844726563,40.97049,34.77000804726563,40.9049902,34.78600884726563,40.7909899C34.78600884726563,40.7909899,34.78600884726563,39.83599,34.78600884726563,39.83599C34.78600884726563,39.83599,35.349508247265625,39.83599,35.349508247265625,39.83599C35.56200884726562,39.7049899,35.56200884726562,39.56599,35.349508247265625,39.4189899C35.349508247265625,39.4189899,35.08000854726562,39.4189899,35.08000854726562,39.4189899C35.18312834726562,39.2463701,35.27336884726562,39.06639,35.350008047265625,38.8804901C35.366008747265624,38.83149,35.39000794726562,38.78249,35.423007947265624,38.73349C35.45550824726563,38.586489900000004,35.41500854726563,38.47999,35.30050854726562,38.4149899C35.153508147265626,38.38199,35.064008747265625,38.43099,35.03100874726562,38.56199C34.949508647265624,38.7579899,34.84350874726562,38.9779899,34.712508247265625,39.22299C34.66350844726563,39.3049901,34.65550804726563,39.3699901,34.68800834726562,39.4189899C34.68800834726562,39.4189899,33.855508347265626,39.4189899,33.855508347265626,39.4189899C33.70850844726562,39.4354899,33.635008347265625,39.5089998,33.635008347265625,39.6394901C33.635008347265625,39.76999,33.70850844726562,39.8354902,33.85500864726563,39.8354902C33.85500864726563,39.8354902,34.370008447265626,39.8354902,34.370008447265626,39.8354902C34.370008447265626,39.8354902,34.370008447265626,40.8154898,34.370008447265626,40.8154898C34.370008447265626,40.9294901,34.435008547265625,40.98699,34.565508847265626,40.98699C34.565508847265626,40.98699,34.565508847265626,40.98699,34.565508847265626,40.98699C34.565508847265626,40.98699,34.565508847265626,40.98699,34.565508847265626,40.98699ZM34.02700854726562,39.22299C34.09200854726562,39.3699901,34.19000864726563,39.42749,34.321008247265624,39.39449C34.45100834726563,39.3294899,34.49250844726563,39.22299,34.443508647265624,39.07599C34.39450834726563,38.9779899,34.328508347265625,38.8559899,34.247508547265625,38.7089901C34.21450854726562,38.6434901,34.19850824726562,38.5944901,34.19850824726562,38.56199C34.133008447265624,38.44749,34.035008447265625,38.4069901,33.90450854726562,38.4394901C33.77400824726563,38.5044899,33.741008247265626,38.6024899,33.80650854726562,38.73349C33.855508347265626,38.8474901,33.90450854726562,38.97,33.953508347265625,39.1004901C33.98600864726563,39.1659901,34.01050854726562,39.20699,34.02700854726562,39.22299C34.02700854726562,39.22299,34.02700854726562,39.22299,34.02700854726562,39.22299C34.02700854726562,39.22299,34.02700854726562,39.22299,34.02700854726562,39.22299ZM42.40750844726563,38.90499C42.73400844726562,38.90499,42.91400944726563,38.73349,42.94650844726563,38.3899901C42.91400944726563,38.0639901,42.73400844726562,37.8840001,42.40750844726563,37.8515C42.081008447265624,37.8840001,41.90950844726562,38.0639999,41.89300844726563,38.3905001C41.90950844726562,38.717,42.081008447265624,38.88849,42.40800844726562,38.90499C42.40800844726562,38.90499,42.40750844726563,38.90499,42.40750844726563,38.90499C42.40750844726563,38.90499,42.40750844726563,38.90499,42.40750844726563,38.90499ZM47.383508447265626,41.3049898C47.530508447265625,41.28899,47.61200944726562,41.2149901,47.628507447265626,41.08499C47.628507447265626,41.08499,47.628507447265626,38.4885001,47.628507447265626,38.4885001C47.87350844726562,38.7335,48.06950744726562,39.00249,48.216508447265625,39.29649C48.281507447265625,39.44349,48.387508447265624,39.4679899,48.534507447265625,39.3699901C48.649007447265625,39.2720001,48.67350744726562,39.1500001,48.60800944726563,39.0025001C48.31290844726563,38.59304,47.98510944726563,38.2081201,47.628007447265624,37.8515C47.628007447265624,37.8515,47.628007447265624,37.7289901,47.628007447265624,37.7289901C47.628007447265624,37.7289901,48.43650844726562,37.7289901,48.43650844726562,37.7289901C48.698007447265624,37.56549,48.698007447265624,37.3940001,48.43650844726562,37.2145C48.43650844726562,37.2145,47.628507447265626,37.2145,47.628507447265626,37.2145C47.628507447265626,37.2145,47.628507447265626,36.21050102,47.628507447265626,36.21050102C47.67750944726562,36.21050102,47.75100944726562,36.20200002,47.84850844726563,36.18550003C48.09350744726562,36.153,48.27350844726563,36.11249799,48.387508447265624,36.06349802C48.518508447265624,36.014498,48.567508447265624,35.9165,48.534507447265625,35.76949999C48.48550844726563,35.639,48.396007447265625,35.581499398,48.265508447265624,35.597999401C47.75900844726563,35.728499,47.10550844726562,35.81799999,46.305507447265626,35.86750001C46.17550844726563,35.88350001,46.118007447265626,35.96550199,46.13400844726563,36.11250198C46.15050844726562,36.25950199,46.224008447265625,36.33249497,46.35450944726563,36.33249497C46.664508447265625,36.33249497,46.934509447265626,36.316495,47.16300744726563,36.28399497C47.16300744726563,36.28399497,47.16300744726563,37.2145,47.16300744726563,37.2145C47.16300744726563,37.2145,46.23200844726563,37.2145,46.23200844726563,37.2145C45.971008447265625,37.378,45.96300844726562,37.54949,46.207508447265624,37.7289901C46.207508447265624,37.7289901,47.08950844726563,37.7289901,47.08950844726563,37.7289901C46.81200744726563,38.44749,46.44450744726562,38.9944999,45.987508447265625,39.3699901C45.889509447265624,39.5009899,45.88100844726563,39.6314902,45.962509447265624,39.7619901C46.060508447265626,39.8434901,46.18300844726562,39.8189902,46.33000744726563,39.6884899C46.67540944726562,39.35869,46.957708447265624,38.9686301,47.16300744726563,38.5374899C47.16300744726563,38.5374899,47.16300744726563,41.08499,47.16300744726563,41.08499C47.16300744726563,41.2149901,47.236509447265625,41.28899,47.38300944726562,41.3049898C47.38300944726562,41.3049898,47.383508447265626,41.3049898,47.383508447265626,41.3049898C47.383508447265626,41.3049898,47.383508447265626,41.3049898,47.383508447265626,41.3049898ZM50.88600944726562,41.37849C51.03300844726563,41.362490199999996,51.11500944726562,41.2884898,51.13100844726563,41.1584902C51.13100844726563,41.1584902,51.13100844726563,39.71349,51.13100844726563,39.71349C51.21300844726562,39.69699,51.425008447265625,39.66399,51.76800944726563,39.6149902C51.882509447265626,39.59899,51.939508447265624,39.5169902,51.939508447265624,39.3699901C51.90700944726562,39.207,51.833507447265625,39.12499,51.719007447265625,39.12499C51.670007447265625,39.14149,51.56400844726562,39.158,51.40050844726562,39.174C51.31150844726562,39.1896999,51.221408447265624,39.19806,51.13100844726563,39.1989901C51.13100844726563,39.1989901,51.13100844726563,35.941001,51.13100844726563,35.941001C51.11500944726562,35.81050101,51.03300844726563,35.73699699,50.88600944726562,35.720497C50.723009447265625,35.73699699,50.64100844726563,35.810498,50.64100844726563,35.94049701C50.64100844726563,35.94049701,50.64100844726563,39.2720001,50.64100844726563,39.2720001C50.36350844726563,39.3210001,49.98800844726563,39.3864901,49.514509447265624,39.4679899C49.10600844726562,39.53299,48.72250944726562,39.5904999,48.36300844726563,39.6394901C48.216508447265625,39.6724901,48.151008447265625,39.76999,48.16750944726563,39.933489800000004C48.216508447265625,40.0804901,48.314508447265624,40.145989900000004,48.46100844726563,40.1294899C48.62450744726563,40.1129899,48.86950844726562,40.0804901,49.196008447265626,40.0314898C49.75100944726562,39.933489800000004,50.23300944726563,39.85149,50.64100844726563,39.78649C50.64100844726563,39.78649,50.64100844726563,41.1829901,50.64100844726563,41.1829901C50.64100844726563,41.2969899,50.723009447265625,41.362490199999996,50.88600944726562,41.37849C50.88600944726562,41.37849,50.88600944726562,41.37849,50.88600944726562,41.37849ZM50.029008447265625,37.386C50.11050844726563,37.5165,50.216508447265625,37.53299,50.34750944726562,37.43499C50.44550944726562,37.33699,50.461507447265625,37.21499,50.39650944726563,37.06749C50.11880844726562,36.65935,49.789407447265624,36.28893399,49.41650744726563,35.96549901C49.28600844726563,35.88399899,49.163509447265625,35.89199701,49.049009447265625,35.989997C48.951007447265624,36.12049699,48.96750844726563,36.234999,49.098009447265625,36.33299899C49.40800844726563,36.6105,49.71850744726562,36.9615,50.029008447265625,37.386C50.029008447265625,37.386,50.029008447265625,37.386,50.029008447265625,37.386ZM49.661508447265625,38.73349C49.759508447265624,38.8634901,49.87350844726562,38.872,50.004509447265626,38.7579999C50.10250844726562,38.6600001,50.11050844726563,38.5374999,50.029008447265625,38.3905001C49.783607447265624,38.01559,49.47720944726562,37.68436,49.12250944726563,37.4105C48.992008447265626,37.329,48.877508447265626,37.3455,48.77950844726563,37.4595C48.681509447265626,37.5899999,48.689508447265624,37.6965001,48.804508447265626,37.7780001C49.13090944726562,38.05726,49.419109447265626,38.37837,49.661508447265625,38.733C49.661508447265625,38.733,49.661508447265625,38.73349,49.661508447265625,38.73349C49.661508447265625,38.73349,49.661508447265625,38.73349,49.661508447265625,38.73349ZM58.11550944726562,41.3049898C58.29550944726563,41.3539901,58.41750944726563,41.2969899,58.48300944726563,41.1339898C58.53200944726562,40.98699,58.47500844726562,40.8804898,58.31150844726562,40.8154898C57.83800844726562,40.6684899,57.315507447265624,40.3904901,56.744009447265626,39.9824901C57.26650844726562,39.5414901,57.67450944726562,38.95349,57.969007447265625,38.2190001C58.08300744726563,37.810499899999996,57.977008447265625,37.5899999,57.650009447265624,37.557499899999996C57.650009447265624,37.557499899999996,56.47450844726562,37.557499899999996,56.47450844726562,37.557499899999996C56.47450844726562,37.557499899999996,56.47450844726562,36.6755,56.47450844726562,36.6755C56.47450844726562,36.6755,58.066509447265624,36.6755,58.066509447265624,36.6755C58.19750744726562,36.6755,58.271007447265625,36.59399,58.28700844726562,36.43049401C58.271007447265625,36.28399497,58.197008447265624,36.20200002,58.067009447265626,36.18550003C58.067009447265626,36.18550003,56.47450844726562,36.18550003,56.47450844726562,36.18550003C56.47450844726562,36.18550003,56.47450844726562,35.81849599,56.47450844726562,35.81849599C56.45800744726563,35.687996,56.37650844726562,35.614499,56.22950944726563,35.597999401C56.066007447265626,35.597999401,55.984508447265625,35.66299801,55.984508447265625,35.793998C55.984508447265625,35.793998,55.984508447265625,36.185996,55.984508447265625,36.185996C55.984508447265625,36.185996,54.56400844726562,36.185996,54.56400844726562,36.185996C54.433507447265626,36.20199603,54.36000844726563,36.28399801,54.34350744726562,36.43099803C54.36000844726563,36.594,54.433507447265626,36.676,54.56350944726562,36.676C54.56350944726562,36.676,55.984508447265625,36.676,55.984508447265625,36.676C55.984508447265625,36.676,55.984508447265625,37.557499899999996,55.984508447265625,37.557499899999996C55.984508447265625,37.557499899999996,54.85800944726563,37.557499899999996,54.85800944726563,37.557499899999996C54.71100844726563,37.5739999,54.629009447265624,37.6554899,54.61300844726563,37.80249C54.629009447265624,37.9659901,54.703008447265624,38.0474999,54.83300744726563,38.0474999C54.83300744726563,38.0474999,57.307508447265626,38.0474999,57.307508447265626,38.0474999C57.405508447265625,38.0799999,57.437507447265624,38.1535001,57.405508447265625,38.2674999C57.154607447265626,38.7935801,56.785709447265624,39.2546899,56.32750844726563,39.6149902C56.082508447265624,39.4679899,55.71500744726562,39.0514901,55.22550744726563,38.3659899C55.11050844726563,38.2349899,54.98850844726563,38.211,54.85800944726563,38.2925C54.74350944726562,38.3905001,54.73550844726563,38.5125,54.83300744726563,38.6600001C55.25800944726562,39.313,55.60900844726562,39.7454901,55.886508447265626,39.9579902C55.54350844726562,40.2194901,54.99650744726563,40.4724898,54.24550844726562,40.7174902C54.065507447265624,40.76649,53.99250744726562,40.8724899,54.025009447265624,41.0359902C54.09000744726562,41.1829901,54.21300844726562,41.2319899,54.39250744726563,41.1829901C55.05230944726563,40.9513402,55.69140844726563,40.6644902,56.30300944726562,40.32549C56.867307447265624,40.7210999,57.47550744726563,41.049950100000004,58.11550944726562,41.30548C58.11550944726562,41.30548,58.11550944726562,41.3049898,58.11550944726562,41.3049898C58.11550944726562,41.3049898,58.11550944726562,41.3049898,58.11550944726562,41.3049898ZM52.825008447265624,41.20749C53.42900844726562,41.3374801,53.755508447265626,41.20749,53.80500744726562,40.8154898C53.80500744726562,40.8154898,53.80500744726562,38.9779899,53.80500744726562,38.9779899C54.09850844726563,38.8639901,54.319007447265626,38.7414899,54.46600944726562,38.61099C54.54750844726563,38.54549,54.56400844726562,38.4560001,54.51500844726563,38.3410001C54.433507447265626,38.227,54.34350744726562,38.19449,54.245008447265626,38.24349C54.04950944726562,38.3739901,53.90250744726562,38.4554999,53.80500744726562,38.4885001C53.80500744726562,38.4885001,53.80500744726562,37.2389899,53.80500744726562,37.2389899C53.80500744726562,37.2389899,54.29450844726563,37.2389899,54.29450844726563,37.2389899C54.425008447265625,37.2389899,54.49850844726562,37.16549,54.514509447265624,37.01899C54.49850844726562,36.88799,54.425008447265625,36.81449,54.29450844726563,36.79799C54.29450844726563,36.79799,53.804508447265626,36.79799,53.804508447265626,36.79799C53.804508447265626,36.79799,53.804508447265626,35.86750001,53.804508447265626,35.86750001C53.78800744726563,35.75299999,53.70650844726563,35.687501,53.559509447265626,35.671501C53.41250844726562,35.68800101,53.33950844726563,35.75299999,53.33950844726563,35.86750001C53.33950844726563,35.86750001,53.33950844726563,36.79799,53.33950844726563,36.79799C53.33950844726563,36.79799,52.75150844726562,36.79799,52.75150844726562,36.79799C52.62050844726562,36.81449,52.547008447265625,36.888,52.53100744726562,37.0185C52.547008447265625,37.1655,52.621007447265626,37.2389899,52.75100944726562,37.2389899C52.75100944726562,37.2389899,53.33900844726563,37.2389899,53.33900844726563,37.2389899C53.33900844726563,37.2389899,53.33900844726563,38.6600001,53.33900844726563,38.6600001C53.012508447265624,38.8069999,52.75900844726563,38.8964901,52.58000744726563,38.9294901C52.43300844726562,38.9944899,52.37550944726563,39.1004901,52.408508447265625,39.2474899C52.457508447265624,39.37849,52.56350944726562,39.4189899,52.727008447265625,39.3699901C52.92300844726563,39.3375001,53.127008447265624,39.2639899,53.33900844726563,39.1499901C53.33900844726563,39.1499901,53.33900844726563,40.6684899,53.33900844726563,40.6684899C53.35550844726562,40.8154898,53.216508447265625,40.84799,52.92300844726563,40.76649C52.759508447265624,40.7174902,52.65300744726562,40.76649,52.60450944726563,40.9134898C52.58800844726562,41.0434899,52.661508447265625,41.1419902,52.82450844726563,41.20749C52.82450844726563,41.20749,52.825008447265624,41.20749,52.825008447265624,41.20749C52.825008447265624,41.20749,52.825008447265624,41.20749,52.825008447265624,41.20749Z" fill="#EC681B" fill-opacity="1"/></svg>