<svg xmlns="http://www.w3.org/2000/svg" xmlns:xlink="http://www.w3.org/1999/xlink" fill="none" version="1.1" width="84.9000244140625" height="84.94970703125" viewBox="0 0 84.9000244140625 84.94970703125"><path d="M42.300064012695316,0C22.450064012695314,0,7.550063512695313,16.75,8.950067259695313,35.349998C9.950063512695312,48.450001,16.75006341269531,54.650002,27.45006401269531,61.450001C34.300064012695316,65.800003,40.300064012695316,69.900002,42.45006201269531,71.199997C42.45006201269531,71.199997,42.600063012695315,71.199997,42.600063012695315,71.199997C42.600063012695315,71.199997,52.100063012695315,64.699997,59.40006301269531,60.049999C69.20006201269531,54.049999,75.30006401269532,46.349998,75.65006301269531,35.299999C76.65006301269531,16.35,62.20006201269531,0,42.300064012695316,0C42.300064012695316,0,42.300064012695316,0,42.300064012695316,0C42.300064012695316,0,42.300064012695316,0,42.300064012695316,0Z" fill="#0A7DB7" fill-opacity="1"/><path d="M75.75,33.24968766894531C75.75,42.29968666894531,72.150002,49.74968766894531,66.25,55.04968666894531C66.25,55.04968666894531,66.25,33.04968666894531,66.25,33.04968666894531C66.25,33.04968666894531,54.200001,41.84968566894531,54.200001,41.84968566894531C54.200001,41.84968566894531,54.200001,47.39968466894531,54.200001,47.39968466894531C54.200001,47.39968466894531,52.200001,48.84968566894531,52.200001,48.84968566894531C52.200001,48.84968566894531,52.200001,43.34968566894531,52.200001,43.34968566894531C52.200001,43.34968566894531,43.900002,49.44968366894531,43.900002,49.44968366894531C43.900002,49.44968366894531,43.900002,54.44968366894531,43.900002,54.44968366894531C43.900002,54.44968366894531,42.450001,55.49968766894531,42.450001,55.49968766894531C42.450001,55.49968766894531,41,54.44968366894531,41,54.44968366894531C41,54.44968366894531,41,49.44968366894531,41,49.44968366894531C41,49.44968366894531,32.650002,43.34968566894531,32.650002,43.34968566894531C32.650002,43.34968566894531,32.650002,48.84968566894531,32.650002,48.84968566894531C32.650002,48.84968566894531,30.700001,47.39968466894531,30.700001,47.39968466894531C30.700001,47.39968466894531,30.700001,41.89968466894531,30.700001,41.89968466894531C30.700001,41.89968466894531,18.65,33.04968666894531,18.65,33.04968666894531C18.65,33.04968666894531,18.65,54.99968766894531,18.65,54.99968766894531C12.8,49.74968766894531,9.1499996,42.24968766894531,9.1499996,33.19968366894531C9.1499996,17.449685668945314,20.200001,4.249685768945312,35,0.8496856689453125C15.1,4.399685668945312,0,21.699685668945314,0,42.59968566894531C0,65.99968766894531,19,84.94968366894531,42.450001,84.94968366894531C65.900002,84.94968366894531,84.900002,65.99968766894531,84.900002,42.59968566894531C84.900002,21.74968566894531,69.800003,4.399685668945312,49.950001,0.8996848689453125C64.699997,4.249685768945312,75.75,17.449685668945314,75.75,33.24968766894531C75.75,33.24968766894531,75.75,33.24968766894531,75.75,33.24968766894531C75.75,33.24968766894531,75.75,33.24968766894531,75.75,33.24968766894531ZM57.450001,53.84968566894531C57.450001,53.84968566894531,57.450001,49.84968566894531,57.450001,49.84968566894531C57.450001,49.84968566894531,59.099998,48.64968466894531,59.099998,48.64968466894531C59.099998,48.64968466894531,59.099998,60.14968466894531,59.099998,60.14968466894531C59.099998,60.14968466894531,42.450001,71.19968366894531,42.450001,71.19968366894531C42.450001,71.19968366894531,25.799999,60.14968466894531,25.799999,60.14968466894531C25.799999,60.14968466894531,25.799999,48.64968466894531,25.799999,48.64968466894531C25.799999,48.64968466894531,27.450001,49.84968566894531,27.450001,49.84968566894531C27.450001,49.84968566894531,27.450001,53.84968566894531,27.450001,53.84968566894531C27.450001,53.84968566894531,35.549999,59.79968666894531,35.549999,59.79968666894531C35.549999,59.79968666894531,35.549999,55.09968566894531,35.549999,55.09968566894531C35.549999,55.09968566894531,37.200001,56.29968666894531,37.200001,56.29968666894531C37.200001,56.29968666894531,37.200001,61.04968666894531,37.200001,61.04968666894531C37.200001,61.04968666894531,42.400002,64.84968566894531,42.400002,64.84968566894531C42.400002,64.84968566894531,47.599998,61.04968666894531,47.599998,61.04968666894531C47.599998,61.04968666894531,47.599998,56.29968666894531,47.599998,56.29968666894531C47.599998,56.29968666894531,49.25,55.09968566894531,49.25,55.09968566894531C49.25,55.09968566894531,49.25,59.79968666894531,49.25,59.79968666894531C49.25,59.79968666894531,57.450001,53.84968566894531,57.450001,53.84968566894531C57.450001,53.84968566894531,57.450001,53.84968566894531,57.450001,53.84968566894531C57.450001,53.84968566894531,57.450001,53.84968566894531,57.450001,53.84968566894531Z" fill="#FFC82F" fill-opacity="1"/></svg>