<svg xmlns="http://www.w3.org/2000/svg" xmlns:xlink="http://www.w3.org/1999/xlink" fill="none" version="1.1" width="85" height="85" viewBox="0 0 85 85"><path d="M33.75,38.900002C33.75,38.900002,45.950001,33.549999,45.950001,33.549999C45.950001,33.549999,51.299999,45.799999,51.299999,45.799999C51.299999,45.799999,39.099998,51.150002,39.099998,51.150002C39.099998,51.150002,33.75,38.900002,33.75,38.900002C33.75,38.900002,33.75,38.900002,33.75,38.900002C33.75,38.900002,33.75,38.900002,33.75,38.900002ZM37.849998,85C37.849998,85,21.700001,68.099998,21.700001,68.099998C21.700001,68.099998,38.200001,73.75,49.450001,68.099998C60.700001,62.450001,62.599998,51.099998,61.349998,46.25C60.099998,41.400002,57.599998,38.25,54.049999,36.200001C50.5,34.150002,47.900002,33.349998,47.900002,33.349998C47.900002,33.349998,59.849998,35,64.599998,45.400002C69.349998,55.799999,67.400002,65.550003,62.200001,72.199997C56.099998,79.349998,49.299999,83.449997,37.849998,85C37.849998,85,37.849998,85,37.849998,85ZM85,47.049999C85,47.049999,68.150002,63.25,68.150002,63.25C68.150002,63.25,73.75,46.75,68.150002,35.450001C62.549999,24.200001,51.200001,22.25,46.349998,23.5C41.5,24.75,38.349998,27.25,36.299999,30.85C34.25,34.450001,33.450001,37,33.450001,37C33.450001,37,35.099998,25.049999,45.450001,20.299999C55.799999,15.55,65.550003,17.5,72.199997,22.700001C79.400002,28.799999,83.449997,35.599998,85,47.049999C85,47.049999,85,47.049999,85,47.049999C85,47.049999,85,47.049999,85,47.049999ZM0,37.299999C0,37.299999,16.85,21.1,16.85,21.1C16.85,21.1,11.25,37.599998,16.85,48.900002C22.450001,60.150002,33.799999,62.099998,38.650002,60.849998C43.5,59.599998,46.650002,57.099998,48.700001,53.5C50.75,49.900002,51.549999,47.349998,51.549999,47.349998C51.549999,47.349998,49.900002,59.299999,39.549999,64.050003C29.200001,68.800003,19.450001,66.849998,12.8,61.650002C5.5999999,55.549999,1.55,48.75,0,37.299999C0,37.299999,0,37.299999,0,37.299999C0,37.299999,0,37.299999,0,37.299999ZM47.75,0C47.75,0,63.900002,16.9,63.900002,16.9C63.900002,16.9,47.400002,11.25,36.150002,16.9C24.9,22.5,23,33.900002,24.25,38.700001C25.5,43.549999,28,46.700001,31.549999,48.75C35.099998,50.799999,37.700001,51.599998,37.700001,51.599998C37.700001,51.599998,25.75,49.950001,21,39.549999C16.25,29.15,18.200001,19.4,23.4,12.75C29.5,5.6500001,36.299999,1.55,47.75,0C47.75,0,47.75,0,47.75,0Z" fill="#E30016" fill-opacity="1"/></svg>