<svg xmlns="http://www.w3.org/2000/svg" xmlns:xlink="http://www.w3.org/1999/xlink" fill="none" version="1.1" width="82" height="78" viewBox="0 0 82 78"><path d="M48.5,73C47.950001,73.199997,47.400002,73.349998,46.849998,73.550003C46,73.75,45.5,73.949997,45.299999,74.199997C45.099998,74.400002,45,74.599998,45,74.949997C45,75.199997,45.150002,75.5,45.299999,75.699997C45.5,75.900002,45.799999,76.050003,46.25,76.050003C46.650002,76.050003,47.099998,75.900002,47.450001,75.699997C47.75,75.5,48.099998,75.25,48.200001,74.900002C48.349998,74.550003,48.450001,74.150002,48.450001,73.699997C48.450001,73.699997,48.450001,73,48.450001,73C48.450001,73,48.5,73,48.5,73C48.5,73,48.5,73,48.5,73ZM56,67.75C56,67.75,59.5,67.75,59.5,67.75C59.5,67.75,59.5,69.449997,59.5,69.449997C60.049999,68.75,60.549999,68.300003,61.150002,67.949997C61.650002,67.599998,62.349998,67.5,63.099998,67.5C64.150002,67.5,65,67.800003,65.599998,68.449997C66.150002,69.099998,66.5,70.050003,66.5,71.449997C66.5,71.449997,66.5,78,66.5,78C66.5,78,62.650002,78,62.650002,78C62.650002,78,62.650002,72.349998,62.650002,72.349998C62.650002,71.699997,62.549999,71.25,62.25,71C62.049999,70.75,61.75,70.599998,61.299999,70.599998C60.849998,70.599998,60.5,70.75,60.150002,71.099998C59.849998,71.5,59.700001,72.150002,59.700001,73.050003C59.700001,73.050003,59.700001,78,59.700001,78C59.700001,78,56,78,56,78C56,78,56,67.75,56,67.75C56,67.75,56,67.75,56,67.75ZM70,64C70,64,74,64,74,64C74,64,74,71.199997,74,71.199997C74,71.199997,76.949997,67.900002,76.949997,67.900002C76.949997,67.900002,81.699997,67.900002,81.699997,67.900002C81.699997,67.900002,78.099998,71.400002,78.099998,71.400002C78.099998,71.400002,82,78,82,78C82,78,77.550003,78,77.550003,78C77.550003,78,75.5,73.949997,75.5,73.949997C75.5,73.949997,74,75.349998,74,75.349998C74,75.349998,74,77.949997,74,77.949997C74,77.949997,70,77.949997,70,77.949997C70,77.949997,70,64,70,64C70,64,70,64,70,64ZM13.5,30.85C30.35,14.65,53.150002,17.35,63.900002,25.5C58.75,27.85,53.099998,31.6,49.700001,36.849998C52.950001,36.400002,60.25,36.099998,66,38.549999C52.5,44.450001,44.150002,55.200001,37.150002,69.949997C41.349998,49.75,50.799999,41.950001,53.700001,40.25C53.700001,40.25,49.349998,39.549999,43.599998,40.950001C44.349998,36.900002,48,29.5,52.150002,26.049999C39.799999,21.75,27.4,24.6,13.5,30.85C13.5,30.85,13.5,30.85,13.5,30.85C13.5,30.85,13.5,30.85,13.5,30.85ZM39,0C60.5,0,78,17.5,78,39C78,46.799999,75.699997,54.049999,71.800003,60.150002C71.800003,60.150002,63.049999,60.150002,63.049999,60.150002C67.949997,54.549999,70.900002,47.200001,70.900002,39.200001C70.900002,21.5,56.599998,7.1999998,39,7.1999998C21.4,7.1999998,7.0999999,21.5,7.0999999,39.200001C7.0999999,53.099998,16.049999,64.949997,28.4,69.25C29.049999,65.699997,29.6,63.25,29.799999,59.299999C30.1,53.549999,30.1,48.75,29.950001,46C29.299999,36,28.15,34,18.700001,35C18.700001,35,29.950001,29.200001,34.400002,36.900002C38.099998,42.349998,35,69.900002,30.049999,76.949997C12.85,73,0,57.549999,0,39C0,17.5,17.5,0,39,0C39,0,39,0,39,0ZM45,71C45,71,41.349998,70.599998,41.349998,70.599998C41.450001,69.949997,41.650002,69.449997,41.900002,69.099998C42.200001,68.699997,42.599998,68.400002,43.049999,68.150002C43.450001,67.949997,43.950001,67.75,44.5,67.699997C45.150002,67.550003,45.849998,67.5,46.5,67.5C47.650002,67.5,48.599998,67.550003,49.299999,67.699997C50,67.800003,50.549999,68.150002,51,68.5C51.299999,68.75,51.650002,69.199997,51.75,69.699997C51.950001,70.199997,52.049999,70.699997,52.049999,71.150002C52.049999,71.150002,52.049999,75.599998,52.049999,75.599998C52.049999,76.099998,52.049999,76.5,52.099998,76.75C52.150002,77,52.299999,77.300003,52.5,77.75C52.5,77.75,48.950001,77.75,48.950001,77.75C48.75,77.5,48.700001,77.300003,48.650002,77.199997C48.599998,77,48.599998,76.849998,48.549999,76.550003C48.049999,77,47.549999,77.349998,47.049999,77.550003C46.400002,77.800003,45.599998,78,44.700001,78C43.5,78,42.599998,77.699997,42,77.099998C41.349998,76.599998,41.049999,75.900002,41.049999,75.099998C41.049999,74.349998,41.299999,73.699997,41.75,73.199997C42.200001,72.75,43,72.400002,44.200001,72.099998C45.650002,71.849998,46.549999,71.599998,47,71.550003C47.450001,71.449997,47.900002,71.25,48.400002,71.050003C48.400002,70.599998,48.299999,70.300003,48.099998,70.099998C47.900002,69.900002,47.599998,69.800003,47.099998,69.800003C46.450001,69.800003,45.950001,69.949997,45.650002,70.099998C45.349998,70.199997,45.099998,70.550003,45,71C45,71,45,71,45,71C45,71,45,71,45,71Z" fill="#C8171E" fill-opacity="1"/></svg>