<svg xmlns="http://www.w3.org/2000/svg" xmlns:xlink="http://www.w3.org/1999/xlink" fill="none" version="1.1" width="84.999755859375" height="84.472900390625" viewBox="0 0 84.999755859375 84.472900390625"><defs><linearGradient x1="0.9223474264144897" y1="0.306558221578598" x2="0.3983015716075897" y2="0.306558221578598" id="master_svg0_0_3508"><stop offset="0%" stop-color="#F4D400" stop-opacity="1"/><stop offset="100%" stop-color="#FF4A00" stop-opacity="1"/></linearGradient><linearGradient x1="0" y1="0" x2="0" y2="1" id="master_svg1_0_3511"><stop offset="0%" stop-color="#F3405F" stop-opacity="1"/><stop offset="49.59651529788971%" stop-color="#CD0000" stop-opacity="1"/><stop offset="100%" stop-color="#CE0000" stop-opacity="1"/></linearGradient><linearGradient x1="0" y1="0" x2="0" y2="1" id="master_svg2_0_3514"><stop offset="0%" stop-color="#FEFF00" stop-opacity="1"/><stop offset="100%" stop-color="#FF5000" stop-opacity="1"/></linearGradient><linearGradient x1="0.047699879854917526" y1="0.8072569370269775" x2="0.6622137427330017" y2="0.8072569370269775" id="master_svg3_0_3517"><stop offset="0%" stop-color="#FADC00" stop-opacity="1"/><stop offset="100%" stop-color="#F94900" stop-opacity="1"/></linearGradient><linearGradient x1="0" y1="0" x2="0" y2="1" id="master_svg4_0_3520"><stop offset="0%" stop-color="#CE0000" stop-opacity="1"/><stop offset="47.419604659080505%" stop-color="#CE0000" stop-opacity="1"/><stop offset="100%" stop-color="#F74061" stop-opacity="1"/></linearGradient></defs><path d="M51.845514928649905,17.572536653160096C45.146715928649904,17.139538653160095,38.4240159286499,16.373237653160096,31.671215928649904,16.087137653160095C24.4839159286499,15.782137653160095,17.712485828649903,15.975437653160094,10.190115928649902,15.868737653160096C10.190115928649902,15.868737653160096,20.518915928649903,2.9040576531600952,34.9284159286499,0.5703376531600952C34.9284159286499,0.5703376531600952,47.118414928649905,7.609147453160095,51.845514928649905,17.572536653160096Z" fill-rule="evenodd" fill="url(#master_svg0_0_3508)" fill-opacity="1"/><path d="M51.747511309814456,65.17880092620838C69.97410930981445,33.673700926208376,51.688011309814456,13.682899926208377,34.84331130981445,0.5749729862083772C77.30601130981445,-6.746570273791622,114.07361230981445,58.14349992620838,51.747511309814456,65.17880092620838C51.747511309814456,65.17880092620838,51.747511309814456,65.17880092620838,51.747511309814456,65.17880092620838Z" fill-rule="evenodd" fill="url(#master_svg1_0_3511)" fill-opacity="1"/><path d="M31.442873001098633,53.277217877197266C31.442873001098633,53.277217877197266,52.69567300109863,53.277217877197266,52.69567300109863,53.277217877197266C52.69567300109863,53.277217877197266,52.69567300109863,32.024417877197266,52.69567300109863,32.024417877197266C52.69567300109863,32.024417877197266,31.442873001098633,32.024417877197266,31.442873001098633,32.024417877197266C31.442873001098633,32.024417877197266,31.442873001098633,53.277217877197266,31.442873001098633,53.277217877197266C31.442873001098633,53.277217877197266,31.442873001098633,53.277217877197266,31.442873001098633,53.277217877197266Z" fill-rule="evenodd" fill="url(#master_svg2_0_3514)" fill-opacity="1"/><path d="M33.14309310913086,66.87893676757812C39.84212300913086,67.31217676757812,46.56449310913086,68.07819676757812,53.545692109130854,68.57915676757813C60.50449410913086,68.66934676757812,67.27619210913086,68.47606666757812,74.79849210913086,68.57915676757813C74.79849210913086,68.58274676757813,64.46979310913086,81.54743676757812,50.145292109130864,83.88113576757813C50.06029310913086,83.88113576757813,37.87018300913086,76.84232716757812,33.14309310913086,66.87893676757812Z" fill-rule="evenodd" fill="url(#master_svg3_0_3517)" fill-opacity="1"/><path d="M33.241398493793355,19.272764205932617C15.014800493793357,50.777763205932615,33.334298493793355,70.79026620593262,50.17900149379336,83.89806220593262C7.7161097937933585,91.21966320593262,-29.08470050620664,26.308044405932616,33.241398493793355,19.272764205932617C33.241398493793355,19.272764205932617,33.241398493793355,19.272764205932617,33.241398493793355,19.272764205932617Z" fill-rule="evenodd" fill="url(#master_svg4_0_3520)" fill-opacity="1"/></svg>