<svg xmlns="http://www.w3.org/2000/svg" xmlns:xlink="http://www.w3.org/1999/xlink" fill="none" version="1.1" width="85" height="59.59765625" viewBox="0 0 85 59.59765625"><path d="M0,59.597698C0,59.597698,85,59.597698,85,59.597698C85,59.597698,85,0,85,0C85,0,0,0,0,0C0,0,0,59.597698,0,59.597698C0,59.597698,0,59.597698,0,59.597698Z" fill="#5AAB35" fill-opacity="1"/><path d="M30.629717656921386,45.91950643615723C30.629717656921386,45.91950643615723,30.629717656921386,17.586206436157227,30.629717656921386,17.586206436157227C30.629717656921386,17.586206436157227,31.997519656921387,17.586206436157227,31.997519656921387,17.586206436157227C31.997519656921387,17.586206436157227,31.997519656921387,45.91950643615723,31.997519656921387,45.91950643615723C31.997519656921387,45.91950643615723,30.629717656921386,45.91950643615723,30.629717656921386,45.91950643615723C30.629717656921386,45.91950643615723,30.629717656921386,45.91950643615723,30.629717656921386,45.91950643615723ZM52.514719656921386,45.91950643615723C52.514719656921386,45.91950643615723,52.514719656921386,17.586206436157227,52.514719656921386,17.586206436157227C52.514719656921386,17.586206436157227,53.88251765692139,17.586206436157227,53.88251765692139,17.586206436157227C53.88251765692139,17.586206436157227,53.88251765692139,45.91950643615723,53.88251765692139,45.91950643615723C53.88251765692139,45.91950643615723,52.514719656921386,45.91950643615723,52.514719656921386,45.91950643615723C52.514719656921386,45.91950643615723,52.514719656921386,45.91950643615723,52.514719656921386,45.91950643615723ZM27.942917656921388,26.62356663615723C27.942917656921388,26.62356663615723,23.83941865692139,27.893706436157224,23.83941865692139,27.893706436157224C23.302118656921387,26.379306836157227,22.129718656921387,25.597696336157227,20.32221885692139,25.597696336157227C18.417048456921385,25.597696336157227,17.488888756921387,26.183906536157227,17.488888756921387,27.30746653615723C17.488888756921387,27.747106436157225,17.684288456921387,28.137906436157227,18.026238456921387,28.47990643615723C18.36819885692139,28.821806436157225,19.198658456921386,29.066106436157227,20.419919056921387,29.310306436157227C22.52051865692139,29.701106436157225,24.034818656921388,30.091906436157224,25.011918656921388,30.482706436157226C25.988918656921385,30.873606436157225,26.81931865692139,31.508606436157226,27.454418656921387,32.43680643615723C28.138317656921387,33.31610643615723,28.431418656921387,34.34190543615723,28.431418656921387,35.41670643615723C28.431418656921387,37.12640543615723,27.698618656921386,38.64080643615723,26.282018656921387,39.91090543615722C24.86531865692139,41.18100743615723,22.71591865692139,41.81610643615723,19.931418456921385,41.81610643615723C17.830838656921387,41.81610643615723,16.023368856921387,41.37640543615723,14.557848656921387,40.497106436157225C13.092338656921386,39.61780743615722,12.115324646921387,38.298807436157226,11.626818656921387,36.54020643615723C11.626818656921387,36.54020643615723,16.07221885692139,35.61210643615723,16.07221885692139,35.61210643615723C16.560728556921386,37.41950643615723,17.977388856921387,38.298807436157226,20.224518756921388,38.298807436157226C21.34807875692139,38.298807436157226,22.129718656921387,38.10340643615723,22.667018656921385,37.71260643615723C23.204418656921387,37.32180643615723,23.497518656921386,36.83330743615723,23.497518656921386,36.296007436157225C23.497518656921386,35.75860643615722,23.253218656921387,35.319006436157224,22.76471865692139,34.977006436157225C22.276218656921387,34.63510743615723,21.34807875692139,34.39080643615723,19.931418456921385,34.09770543615723C17.342338556921387,33.60920743615723,15.437158556921386,32.92530643615723,14.362448656921387,32.04600643615723C13.238888656921386,31.166706436157227,12.701528656921386,29.896506436157225,12.701528656921386,28.186806436157227C12.701528656921386,26.477006936157224,13.385438656921387,25.060346636157227,14.704398656921388,23.887926536157227C16.023368856921387,22.715516536157224,17.830838656921387,22.129316336157228,20.126818656921387,22.129316336157228C24.230218656921387,22.129316336157228,26.81931865692139,23.643676236157226,27.942917656921388,26.62356663615723C27.942917656921388,26.62356663615723,27.942917656921388,26.62356663615723,27.942917656921388,26.62356663615723C27.942917656921388,26.62356663615723,27.942917656921388,26.62356663615723,27.942917656921388,26.62356663615723ZM49.87681865692139,26.232756636157227C49.87681865692139,26.232756636157227,40.057818656921384,26.232756636157227,40.057818656921384,26.232756636157227C40.057818656921384,26.232756636157227,40.057818656921384,30.092006436157227,40.057818656921384,30.092006436157227C40.057818656921384,30.092006436157227,47.77621765692139,30.092006436157227,47.77621765692139,30.092006436157227C47.77621765692139,30.092006436157227,47.77621765692139,33.60920743615723,47.77621765692139,33.60920743615723C47.77621765692139,33.60920743615723,40.057818656921384,33.60920743615723,40.057818656921384,33.60920743615723C40.057818656921384,33.60920743615723,40.057818656921384,37.71260643615723,40.057818656921384,37.71260643615723C40.057818656921384,37.71260643615723,49.87681865692139,37.71260643615723,49.87681865692139,37.71260643615723C49.87681865692139,37.71260643615723,49.87681865692139,41.42530643615723,49.87681865692139,41.42530643615723C49.87681865692139,41.42530643615723,35.12391965692139,41.42530643615723,35.12391965692139,41.42530643615723C35.12391965692139,41.42530643615723,35.12391965692139,22.666666536157226,35.12391965692139,22.666666536157226C35.12391965692139,22.666666536157226,49.87681865692139,22.666666536157226,49.87681865692139,22.666666536157226C49.87681865692139,22.666666536157226,49.87681865692139,26.232756636157227,49.87681865692139,26.232756636157227C49.87681865692139,26.232756636157227,49.87681865692139,26.232756636157227,49.87681865692139,26.232756636157227C49.87681865692139,26.232756636157227,49.87681865692139,26.232756636157227,49.87681865692139,26.232756636157227ZM61.21012065692139,33.36490643615723C61.21012065692139,33.36490643615723,61.21012065692139,37.85920743615723,61.21012065692139,37.85920743615723C61.21012065692139,37.85920743615723,64.87391965692139,37.85920743615723,64.87391965692139,37.85920743615723C66.09521765692139,37.85920743615723,67.02331865692139,37.66380643615723,67.51191965692138,37.27300643615723C68.0492196569214,36.882206436157226,68.29351665692138,36.296007436157225,68.29351665692138,35.563205436157226C68.29351665692138,34.977006436157225,68.0492196569214,34.43970643615722,67.56071765692138,34.000005436157224C67.0722186569214,33.56030643615723,66.2417176569214,33.36490643615723,65.11822065692138,33.36490643615723C65.11822065692138,33.36490643615723,61.21012065692139,33.36490643615723,61.21012065692139,33.36490643615723C61.21012065692139,33.36490643615723,61.21012065692139,33.36490643615723,61.21012065692139,33.36490643615723ZM61.21012065692139,25.939656236157226C61.21012065692139,25.939656236157226,61.21012065692139,30.043106436157224,61.21012065692139,30.043106436157224C61.21012065692139,30.043106436157224,64.82511765692138,30.043106436157224,64.82511765692138,30.043106436157224C66.14401865692139,30.043106436157224,66.9745166569214,29.79880643615723,67.31651965692139,29.310306436157227C67.65841965692138,28.821806436157225,67.80501865692139,28.382206436157226,67.80501865692139,27.942506436157224C67.80501865692139,27.454026236157226,67.65841965692138,27.063216236157224,67.36531765692138,26.721266736157226C67.0722186569214,26.379306836157227,66.77912065692138,26.183906536157227,66.43711765692139,26.086206436157227C66.09521765692139,25.988506336157226,65.46012065692139,25.939656236157226,64.4343176569214,25.939656236157226C64.4343176569214,25.939656236157226,61.21012065692139,25.939656236157226,61.21012065692139,25.939656236157226C61.21012065692139,25.939656236157226,61.21012065692139,25.939656236157226,61.21012065692139,25.939656236157226ZM56.47161765692139,22.666666536157226C56.47161765692139,22.666666536157226,65.94861865692138,22.666666536157226,65.94861865692138,22.666666536157226C67.65841965692138,22.666666536157226,68.9285196569214,22.862066236157226,69.75901665692139,23.252876236157228C70.5894196569214,23.643676236157226,71.3222186569214,24.18103643615723,71.85961865692138,24.913796436157227C72.39691865692139,25.64654633615723,72.69002065692138,26.47701643615723,72.69002065692138,27.502876236157228C72.69002065692138,29.55460643615723,71.46881765692139,30.971306436157228,69.02621765692139,31.65520643615723C70.44291965692139,31.948306436157225,71.46881765692139,32.53450643615723,72.2015176569214,33.41380643615723C72.8854166569214,34.29310643615723,73.27621765692139,35.22130543615722,73.27621765692139,36.247106436157225C73.27621765692139,37.66380643615723,72.69002065692138,38.83620643615723,71.56651965692139,39.86210643615723C70.39401865692139,40.88790743615723,68.53771865692138,41.37640543615723,65.94861865692138,41.37640543615723C65.94861865692138,41.37640543615723,56.47161765692139,41.37640543615723,56.47161765692139,41.37640543615723C56.47161765692139,41.37640543615723,56.47161765692139,22.666666536157226,56.47161765692139,22.666666536157226C56.47161765692139,22.666666536157226,56.47161765692139,22.666666536157226,56.47161765692139,22.666666536157226C56.47161765692139,22.666666536157226,56.47161765692139,22.666666536157226,56.47161765692139,22.666666536157226Z" fill="#FEFEFE" fill-opacity="1"/></svg>