<svg xmlns="http://www.w3.org/2000/svg" xmlns:xlink="http://www.w3.org/1999/xlink" fill="none" version="1.1" width="71.16571044921875" height="85" viewBox="0 0 71.16571044921875 85"><path d="M69.810303,40.1049C69.101997,40.080002,66.373802,40.866501,65.4646,41.051502C64.006302,41.3507,62.544601,41.655502,61.0863,41.9384C53.707199,43.373501,44.749699,44.347099,37.1689,44.3536C35.648399,44.3549,33.377399,44.182301,31.968901,44.326099C31.131399,45.4105,30.308901,46.409401,29.526699,47.685299C27.1635,51.533802,25.603001,55.4202,24.9471,60.135899C24.3482,64.479004,24.6912,71.109398,26.5054,75.085098C27.190901,76.584602,28.669001,78.383301,28.472799,78.802299C27.715099,79.527802,26.1873,79.013504,25.2085,78.753799C18.636101,77.010399,11.7988,73.112,9.2247801,66.3293C6.2978902,58.609802,9.5201302,50.710899,13.3271,44.0951C13.8237,43.2318,14.4376,42.410599,14.8528,41.6096C14.4947,41.3657,12.0401,40.626499,11.3296,40.347401C10.7526,40.1199,10.2439,39.906601,9.6420498,39.658001C9.1153097,39.438202,8.5864296,39.089199,7.9974399,38.968601C4.44207,43.597599,1.29667,51.160801,0.317467,57.218502C-0.62439299,63.047802,0.553146,67.9524,3.5349901,72.740303C4.6030598,74.459602,6.0119801,75.859497,6.3622799,76.412399C5.49297,77.057198,-2.89061,79.1689,1.25589,81.427803C4.65028,83.275497,15.3142,83.994499,19.3916,84.259399C29.720699,84.930397,41.239399,85.501701,51.458599,84.300598C55.523998,83.823204,61.936298,82.824699,64.550201,80.646904C66.809097,78.763199,64.8507,76.959801,63.9986,74.903503C61.817402,69.642097,65.184303,59.2812,66.804001,53.960201C68.091003,49.737701,69.268997,44.7798,69.810303,40.1049C69.810303,40.1049,69.810303,40.1049,69.810303,40.1049C69.810303,40.1049,69.810303,40.1049,69.810303,40.1049ZM13.8753,26.790901C14.6008,26.836901,16.1591,27.355,17.0361,27.534901C18.0123,27.7362,19.347,28.1054,20.3305,28.1574C19.593,25.5984,19.426399,23.933599,20.546801,21.136801C22.907499,15.2482,28.413099,11.3662,35.5144,11.0403C40.871498,10.7943,44.752701,13.2902,46.479301,16.7812C48.533901,20.939301,47.373501,25.860201,44.829601,29.5637C46.863998,29.5959,49.537998,29.2542,51.5951,29.034401C53.787399,28.797501,55.973099,28.5033,58.150002,28.152201C62.3218,27.4825,66.4412,26.617901,70.349899,25.553301C69.7313,21.527,69.544601,19.4097,67.974197,15.5298C66.809097,12.645,65.266296,10.0684,63.2066,7.8983603C59.499199,3.9901204,53.6059,0.80822939,46.047001,0.15270542C32.868698,-0.98920256,21.021601,4.2773104,15.4314,15.812301C15.0511,16.5996,14.845,17.340601,14.5098,18.084501C12.4427,18.1129,10.793,18.159201,9.0410404,18.8113C5.2723198,20.2164,4.9039898,22.9977,9.3690205,25.1558C10.7397,25.818201,13.7864,26.737301,13.8753,26.790901C13.8753,26.790901,13.8753,26.790901,13.8753,26.790901C13.8753,26.790901,13.8753,26.790901,13.8753,26.790901Z" fill="#040000" fill-opacity="1"/><path d="M44.829505737304686,29.56321285625C40.905807737304684,29.928542656250002,35.92950673730469,29.77957245625,31.991204737304688,29.539602756249998C29.963205737304687,29.416822656249998,27.940805737304686,29.26743265625,25.943305737304687,29.01544265625C24.552005737304686,28.83900265625,21.471005737304687,28.55481265625,20.330405737304687,28.15686275625C19.346905737304688,28.104912756250002,18.012705737304685,27.73573255625,17.036035537304688,27.53439275625C16.158995637304688,27.35452265625,14.600685637304688,26.836362556250002,13.875185937304687,26.79043265625C13.636925737304686,27.17937265625,13.271605937304688,27.60651255625,12.975825737304689,28.03365255625C12.024525637304688,29.40652275625,11.216595637304687,30.93436285625,10.525875837304687,32.41541245625C9.556965737304687,34.49789235625,8.731877747304688,36.68172265625,7.9965057373046875,38.96762265625C8.585489747304688,39.08832265625,9.114375737304687,39.437322656250004,9.641105737304688,39.657122656249996C10.242545837304688,39.90562265625,10.751675837304688,40.11942265625,11.328645737304686,40.34652265625C12.039115937304688,40.62602265625,14.493785837304689,41.36522265625,14.851815737304687,41.60862365625C14.851815737304687,41.60862365625,18.800005737304687,42.58222165625,18.800005737304687,42.58222165625C21.610105737304686,43.23952265625,24.527105737304687,43.63962165625,27.40160573730469,43.93412165625C27.91850673730469,43.98642365625,31.864505737304686,44.20882265625,31.968805737304688,44.325622656250005C33.37730573730469,44.18182165625,35.64830573730469,44.354322656250005,37.16880573730469,44.35312265625C44.74960673730469,44.34662265625,53.706706737304685,43.37302165625,61.08620473730469,41.93792365625C62.54450573730469,41.65452165625,64.0062067373047,41.35022265625,65.46450473730468,41.05102265625C66.37380573730468,40.86592265625,69.10190573730469,40.07952265625,69.8102077373047,40.10442265625C70.82850673730468,35.61192265625,71.98200573730469,30.11485245625,70.34940673730469,25.55322265625C66.44120373730469,26.61786265625,62.321304737304686,27.48245265625,58.14940673730469,28.15214275625C55.97250773730469,28.50308275625,53.78690673730469,28.79724265625,51.594604737304685,29.03432275625C49.53790673730469,29.25369265625,46.86390673730469,29.59541275625,44.829505737304686,29.56321285625C44.829505737304686,29.56321285625,44.829505737304686,29.56321285625,44.829505737304686,29.56321285625C44.829505737304686,29.56321285625,44.829505737304686,29.56321285625,44.829505737304686,29.56321285625Z" fill="#D10C18" fill-opacity="1"/><path d="M30.51761098129883,17.441933758632814C25.44170118129883,18.126649258632813,26.440658151298827,25.594127648632814,31.489520981298828,24.974237448632813C33.36508128129883,24.74413724863281,34.98307128129883,22.955287448632813,34.73452088129883,20.757757148632813C34.513431081298826,18.817377248632813,32.696680981298826,17.14787125863281,30.51761098129883,17.441933758632814C30.51761098129883,17.441933758632814,30.51761098129883,17.441933758632814,30.51761098129883,17.441933758632814C30.51761098129883,17.441933758632814,30.51761098129883,17.441933758632814,30.51761098129883,17.441933758632814Z" fill="#040000" fill-opacity="1"/></svg>