<svg xmlns="http://www.w3.org/2000/svg" xmlns:xlink="http://www.w3.org/1999/xlink" fill="none" version="1.1" width="84.65999603271484" height="84.57250213623047" viewBox="0 0 84.65999603271484 84.57250213623047"><path d="M39.610001,84.572502C28.641701,83.866302,18.378201,78.921501,10.9901,70.784103C3.6019399,62.646702,-0.33140898,51.954601,0.021898327,40.969299C0.37520602,29.983999,4.9874601,19.566799,12.8832,11.9209C20.7789,4.2750101,31.339001,1.38911e-14,42.330002,0C53.320999,9.9653604e-15,63.8811,4.2750101,71.776802,11.9209C79.6726,19.566799,84.284798,29.983999,84.6381,40.969299C84.991402,51.954601,81.058098,62.646702,73.669998,70.784103C66.281898,78.921501,56.018299,83.866302,45.049999,84.572502C45.049999,84.572502,45.049999,49.892502,45.049999,49.892502C46.722198,49.256401,48.1185,48.054401,48.996201,46.495399C49.873798,44.936501,50.177399,43.119202,49.854,41.3596C49.530602,39.600101,48.6008,38.009499,47.2262,36.864498C45.851501,35.719398,44.119099,35.0924,42.330002,35.0924C40.541,35.0924,38.808498,35.719398,37.433899,36.864498C36.059299,38.009499,35.129398,39.600101,34.806,41.3596C34.4827,43.119202,34.786201,44.936501,35.663898,46.495399C36.541599,48.054401,37.937901,49.256401,39.610001,49.892502" fill="#1166DD" fill-opacity="1"/></svg>