<svg xmlns="http://www.w3.org/2000/svg" xmlns:xlink="http://www.w3.org/1999/xlink" fill="none" version="1.1" width="82.490234375" height="92" viewBox="0 0 82.490234375 92"><path d="M41.145170389770506,0C41.145170389770506,0,50.54516838977051,9.8000002,50.54516838977051,9.8000002C50.54516838977051,9.8000002,4.3451385897705075,55.849998,4.3451385897705075,55.849998C-5.9048614102294925,45.200001,5.195138489770508,36.25,5.195138489770508,36.25C5.195138489770508,36.25,41.145170389770506,0,41.145170389770506,0C41.145170389770506,0,41.145170389770506,0,41.145170389770506,0ZM19.49516838977051,70.599998C19.49516838977051,70.599998,55.84516738977051,34.75,55.84516738977051,34.75C55.84516738977051,34.75,64.84517138977051,23.65,75.49516438977051,33.900002C75.49516438977051,33.900002,28.895168389770507,80,28.895168389770507,80C28.895168389770507,80,19.49516838977051,70.599998,19.49516838977051,70.599998C19.49516838977051,70.599998,19.49516838977051,70.599998,19.49516838977051,70.599998Z" fill="#F29600" fill-opacity="1"/><path d="M62.7951161875,21.3999996C62.7951161875,21.3999996,26.5951171875,57.349998,26.5951171875,57.349998C26.5951171875,57.349998,17.6451171875,68.450001,6.9951171875,58.200001C6.9951171875,58.200001,52.9951171875,12,52.9951171875,12C52.9951171875,12,62.7951161875,21.3999996,62.7951161875,21.3999996C62.7951161875,21.3999996,62.7951161875,21.3999996,62.7951161875,21.3999996ZM41.4951171875,92C41.4951171875,92,77.2951201875,55.650002,77.2951201875,55.650002C77.2951201875,55.650002,88.3951191875,46.650002,78.1451191875,35.950001C78.1451191875,35.950001,31.6951181875,82.150002,31.6951181875,82.150002C31.6951181875,82.150002,41.4951171875,92,41.4951171875,92C41.4951171875,92,41.4951171875,92,41.4951171875,92Z" fill="#E50012" fill-opacity="1"/></svg>