<svg xmlns="http://www.w3.org/2000/svg" xmlns:xlink="http://www.w3.org/1999/xlink" fill="none" version="1.1" width="85.00699615478516" height="79.02519989013672" viewBox="0 0 85.00699615478516 79.02519989013672"><path d="M19.1227,45.550201C16.572701,44.550201,12.3727,43.450199,7.7227001,44.1502C4.3726997,44.6502,2.6726999,45.800201,1.7727,46.550201C0.27269492,47.800201,-0.82730412,50.050201,0.82269591,52.300201C2.5226998,54.6502,18.022699,72.850197,22.172699,77.550201C22.772699,78.250198,24.022699,79.1502,25.672699,78.850197C27.7227,78.4002,30.022699,76.050201,30.922699,74.300201C31.572701,73.050201,32.022701,72.050201,32.472698,70.200203C33.972698,63.800201,32.422699,57.6502,29.422699,53.600201C26.522699,49.800201,22.422699,46.850201,19.1227,45.550201C19.1227,45.550201,19.1227,45.550201,19.1227,45.550201C19.1227,45.550201,19.1227,45.550201,19.1227,45.550201ZM83.172699,46.600201C82.222702,45.850201,80.572701,44.700199,77.222702,44.200199C72.522697,43.500198,68.322701,44.600201,65.822701,45.600201C62.522701,46.9002,58.422699,49.850201,55.6227,53.700199C52.672699,57.750198,51.072701,63.9002,52.572701,70.300201C52.972698,72.100197,53.422699,73.100197,54.1227,74.4002C55.022701,76.1502,57.322701,78.500198,59.3727,78.950203C60.972698,79.300201,62.272701,78.350197,62.8727,77.6502C66.972702,72.950203,82.522697,54.750198,84.222702,52.4002C85.822701,50.050201,84.722702,47.850201,83.172699,46.600201C83.172699,46.600201,83.172699,46.600201,83.172699,46.600201C83.172699,46.600201,83.172699,46.600201,83.172699,46.600201ZM42.472698,23.0502C46.222698,23.0502,50.472698,26.2502,50.472698,30.700199C50.472698,33.200199,49.672699,35.1502,48.472698,36.9002C47.722698,38.050201,47.1227,39.350201,46.8727,40.300201C46.6227,41.350201,46.072701,43.9002,49.222698,44.000198C51.272701,44.050201,56.322701,42.250198,60.422699,37.350201C63.572701,33.4002,65.422699,28.450199,65.422699,23.0002C65.422699,10.3002,55.1227,0.00018127108,42.422699,0.00018127108C29.772699,-0.049818702,19.4727,10.2502,19.4727,22.950199C19.4727,28.4002,21.3727,33.350201,24.4727,37.300201C28.572701,42.200199,33.6227,43.950199,35.672699,43.950199C38.822701,43.9002,38.272701,41.350201,38.022701,40.250198C37.772701,39.300201,37.222698,38.000198,36.422699,36.850201C35.222698,35.100201,34.422699,33.1502,34.422699,30.6502C34.472698,26.2502,38.722698,23.0502,42.472698,23.0502Z" fill="#0096D6" fill-opacity="1"/></svg>