<svg xmlns="http://www.w3.org/2000/svg" xmlns:xlink="http://www.w3.org/1999/xlink" fill="none" version="1.1" width="84.89990234375" height="84.85009765625" viewBox="0 0 84.89990234375 84.85009765625"><path d="M27.199981689453125,38.050029517578125C27.199981689453125,38.050029517578125,42.449981689453125,23.450031517578125,42.449981689453125,23.450031517578125C42.449981689453125,23.450031517578125,62.549979689453124,42.850028517578124,62.549979689453124,42.850028517578124C62.549979689453124,42.850028517578124,57.299979689453124,48.700031517578125,57.299979689453124,48.700031517578125C57.299979689453124,48.700031517578125,74.74998468945313,54.700031517578125,82.89997868945312,30.650030517578124C82.89997868945312,30.650030517578124,83.04997968945312,30.200031517578125,83.04997968945312,30.200031517578125C77.84998368945313,12.700030517578124,61.649982689453125,0.000030517578125,42.449981689453125,0.000030517578125C20.199981689453125,0.000030517578125,1.999981689453125,17.100030517578126,0.199981689453125,38.900032517578126C1.599981689453125,38.050029517578125,12.549981689453125,31.850030517578126,27.199981689453125,38.050029517578125C27.199981689453125,38.050029517578125,27.199981689453125,38.050029517578125,27.199981689453125,38.050029517578125ZM42.449981689453125,64.05003351757813C42.449981689453125,64.05003351757813,31.899982689453125,52.600028517578124,31.899982689453125,52.600028517578124C31.899982689453125,52.600028517578124,24.149982689453125,58.950031517578125,27.799981689453126,67.75003051757812C31.449981689453125,76.55003351757813,38.349983689453126,82.30003351757813,40.799979689453124,84.80003351757813C41.349983689453126,84.80003351757813,41.899982689453125,84.85002851757812,42.449981689453125,84.85002851757812C60.949981689453125,84.85002851757812,76.69998168945312,73.00003051757812,82.49998468945313,56.450031517578125C81.14997868945312,57.350028517578124,74.34998368945313,60.950031517578125,53.049979689453124,53.550029517578125C53.049979689453124,53.550029517578125,42.449981689453125,64.05003351757813,42.449981689453125,64.05003351757813C42.449981689453125,64.05003351757813,42.449981689453125,64.05003351757813,42.449981689453125,64.05003351757813Z" fill="#1D2088" fill-opacity="1"/><path d="M61.400002,53.949462890625C61.400002,53.949462890625,77.050003,58.849462890625,83.5,53.199462890625C84.400002,49.749462890625,84.900002,46.149462890625,84.900002,42.399462690625C84.900002,40.049462790625,84.699997,37.699462890625,84.300003,35.449462890625C81.150002,42.049462790625,72.449997,54.049462890625,52.25,49.399462890625C52.25,49.399462890625,37.450001,44.099462490625,28.75,39.999463090625C28.75,39.999463090625,13.6,33.599462890625,0,42.499463090625C0,47.099462890625,0.75,51.549462890625,2.0999999,55.699462890625C14.95,42.199462890625,28.799999,44.099462490625,34.700001,45.849462890625C40.700001,47.599462890625,54.099998,51.099462890625,54.099998,51.099462890625C41.099998,48.749462890625,42.349998,47.999462890625,31.4,47.199462890625C20.450001,46.399462890625,5.4499998,56.199462890625,3.4000001,59.199462890625C9.25,72.699462890625,21.9,82.599464890625,37.049999,84.499461890625C31.950001,79.649463890625,14.55,62.599462890625,30.950001,50.899462890625C31.1,50.849462890625,39.049999,46.949462890625,61.400002,53.949462890625C61.400002,53.949462890625,61.400002,53.949462890625,61.400002,53.949462890625C61.400002,53.949462890625,61.400002,53.949462890625,61.400002,53.949462890625Z" fill="#F9C500" fill-opacity="1"/></svg>