<svg xmlns="http://www.w3.org/2000/svg" xmlns:xlink="http://www.w3.org/1999/xlink" fill="none" version="1.1" width="79.1455078125" height="85" viewBox="0 0 79.1455078125 85"><path d="M25.29552046661377,77.2403259616211C25.29552046661377,77.2403259616211,25.29552046661377,76.29208566162109,25.29552046661377,76.29208566162109C25.710720466613772,76.1978454616211,26.01992146661377,76.0977258616211,26.237919466613768,75.9917058616211C26.53232146661377,75.67366556162109,26.76202146661377,75.34678556162109,26.76202146661377,74.82555576162109C26.76202146661377,74.3926558616211,26.53232146661377,74.1070055616211,26.237919466613768,73.7683458616211C26.01992146661377,73.6800055616211,25.707820466613768,73.57104586162109,25.29552046661377,73.4679756616211C25.29552046661377,73.4679756616211,25.29552046661377,72.53151556162109,25.29552046661377,72.53151556162109C25.59592046661377,72.53151556162109,25.81972046661377,72.4196057616211,26.01992146661377,72.1840257616211C26.32911946661377,72.0014457616211,26.53232146661377,71.6834056616211,26.53232146661377,71.25639556162109C26.53232146661377,70.8559056616211,26.33211946661377,70.4995756616211,26.12302146661377,70.3052157616211C25.916920466613767,70.1020256616211,25.59292046661377,69.9930556616211,25.29552046661377,69.9930556616211C25.29552046661377,69.9930556616211,25.29552046661377,69.05954466162109,25.29552046661377,69.05954466162109C26.01992146661377,69.17733866162109,26.53232146661377,69.2627396616211,26.96822046661377,69.5896176716211C27.48651946661377,69.9960056616211,27.70442146661377,70.50546566162109,27.70442146661377,71.17394566162109C27.70442146661377,71.58033566162109,27.58952046661377,72.0073356616211,27.26862046661377,72.33126566162109C27.06242046661377,72.63164566162109,26.67661946661377,72.8436655616211,26.237919466613768,72.9496855616211C26.76202146661377,73.0586457616211,27.15962146661377,73.3560757616211,27.48651946661377,73.6858954616211C27.81922046661377,73.98921586162109,27.92232046661377,74.3985457616211,27.92232046661377,74.94629576162109C27.92232046661377,75.6825055616211,27.70442146661377,76.3009157616211,27.15672046661377,76.6277956616211C26.76202146661377,77.0224056616211,26.12302146661377,77.2403259616211,25.29552046661377,77.2403259616211C25.29552046661377,77.2403259616211,25.29552046661377,77.2403259616211,25.29552046661377,77.2403259616211ZM10.29448845661377,69.0507096616211C10.29448845661377,69.0507096616211,11.64617046661377,69.0507096616211,11.64617046661377,69.0507096616211C11.64617046661377,69.0507096616211,13.73996046661377,72.31948566162109,13.73996046661377,72.31948566162109C13.73996046661377,72.31948566162109,15.73067046661377,69.0507096616211,15.73067046661377,69.0507096616211C15.73067046661377,69.0507096616211,16.99695066661377,69.0507096616211,16.99695066661377,69.0507096616211C16.99695066661377,69.0507096616211,14.361320466613769,72.9379055616211,14.361320466613769,72.9379055616211C14.361320466613769,72.9379055616211,17.317940266613768,77.2373752616211,17.317940266613768,77.2373752616211C17.317940266613768,77.2373752616211,15.93681046661377,77.2373752616211,15.93681046661377,77.2373752616211C15.93681046661377,77.2373752616211,13.63100056661377,73.67411566162109,13.63100056661377,73.67411566162109C13.63100056661377,73.67411566162109,11.20445046661377,77.2373752616211,11.20445046661377,77.2373752616211C11.20445046661377,77.2373752616211,9.96172046661377,77.2373752616211,9.96172046661377,77.2373752616211C9.96172046661377,77.2373752616211,12.894790366613769,72.9379055616211,12.894790366613769,72.9379055616211C12.894790366613769,72.9379055616211,10.29448845661377,69.0507096616211,10.29448845661377,69.0507096616211C10.29448845661377,69.0507096616211,10.29448845661377,69.0507096616211,10.29448845661377,69.0507096616211ZM25.29552046661377,69.0507096616211C25.29552046661377,69.0507096616211,25.29552046661377,69.9842256616211,25.29552046661377,69.9842256616211C25.29552046661377,69.9842256616211,23.83492046661377,69.9842256616211,23.83492046661377,69.9842256616211C23.83492046661377,69.9842256616211,23.83492046661377,72.52562566162109,23.83492046661377,72.52562566162109C23.83492046661377,72.52562566162109,25.29552046661377,72.52562566162109,25.29552046661377,72.52562566162109C25.29552046661377,72.52562566162109,25.29552046661377,73.4620857616211,25.29552046661377,73.4620857616211C25.29552046661377,73.4620857616211,23.83492046661377,73.4620857616211,23.83492046661377,73.4620857616211C23.83492046661377,73.4620857616211,23.83492046661377,76.28619576162109,23.83492046661377,76.28619576162109C23.83492046661377,76.28619576162109,25.29552046661377,76.28619576162109,25.29552046661377,76.28619576162109C25.29552046661377,76.28619576162109,25.29552046661377,77.2344360616211,25.29552046661377,77.2344360616211C25.29552046661377,77.2344360616211,22.774720466613772,77.2344360616211,22.774720466613772,77.2344360616211C22.774720466613772,77.2344360616211,22.774720466613772,69.0477656616211,22.774720466613772,69.0477656616211C22.774720466613772,69.0477656616211,24.97162046661377,69.0477656616211,24.97162046661377,69.0477656616211C24.97162046661377,69.0477656616211,25.29552046661377,69.0507096616211,25.29552046661377,69.0507096616211C25.29552046661377,69.0507096616211,25.29552046661377,69.0507096616211,25.29552046661377,69.0507096616211ZM18.98473076661377,69.0507096616211C18.98473076661377,69.0507096616211,20.16262046661377,69.0507096616211,20.16262046661377,69.0507096616211C20.16262046661377,69.0507096616211,20.16262046661377,77.2285451616211,20.16262046661377,77.2285451616211C20.16262046661377,77.2285451616211,18.98473076661377,77.2285451616211,18.98473076661377,77.2285451616211C18.98473076661377,77.2285451616211,18.98473076661377,69.0507096616211,18.98473076661377,69.0507096616211C18.98473076661377,69.0507096616211,18.98473076661377,69.0507096616211,18.98473076661377,69.0507096616211ZM66.64392146661376,73.8773755616211C66.64392146661376,73.8773755616211,66.64392146661376,72.9409055616211,66.64392146661376,72.9409055616211C66.96492146661376,72.9409055616211,67.27122246661378,72.8348955616211,67.47142146661378,72.62286566162109C67.78072046661377,72.32249566162109,67.90142146661377,72.0015056616211,67.90142146661377,71.45670556162109C67.90142146661377,70.94724556162109,67.78072046661377,70.6409855616211,67.47142146661378,70.30232556162109C67.27122246661378,70.21692566162109,66.96492146661376,69.9901755616211,66.64392146661376,69.9901755616211C66.64392146661376,69.9901755616211,66.64392146661376,69.05666266162109,66.64392146661376,69.05666266162109C67.38602146661377,69.1744556616211,68.00742046661377,69.3776506516211,68.42562246661376,69.68980467162109C68.83491946661377,70.09913566162109,69.16182046661376,70.6409855616211,69.16182046661376,71.4596557616211C69.16182046661376,72.18408556162109,68.83491946661377,72.84078576162109,68.33432146661377,73.2589554616211C67.90432046661377,73.67712546162109,67.38602146661377,73.8773755616211,66.64392146661376,73.8773755616211C66.64392146661376,73.8773755616211,66.64392146661376,73.8773755616211,66.64392146661376,73.8773755616211ZM66.64392146661376,69.05076966162109C66.64392146661376,69.05076966162109,66.64392146661376,69.9842857616211,66.64392146661376,69.9842857616211C66.64392146661376,69.9842857616211,65.27462146661377,69.9842857616211,65.27462146661377,69.9842857616211C65.27462146661377,69.9842857616211,65.27462146661377,73.0469255616211,65.27462146661377,73.0469255616211C65.27462146661377,73.0469255616211,66.02262246661377,73.0469255616211,66.02262246661377,73.0469255616211C66.22871846661377,73.0469255616211,66.42012146661378,73.04986576162109,66.64392146661376,72.9409055616211C66.64392146661376,72.9409055616211,66.64392146661376,73.8773755616211,66.64392146661376,73.8773755616211C66.64392146661376,73.8773755616211,66.10802146661376,73.87442586162109,66.10802146661376,73.87442586162109C66.10802146661376,73.87442586162109,65.27462146661377,73.87442586162109,65.27462146661377,73.87442586162109C65.27462146661377,73.87442586162109,65.27462146661377,77.2344961616211,65.27462146661377,77.2344961616211C65.27462146661377,77.2344961616211,64.10842246661377,77.2344961616211,64.10842246661377,77.2344961616211C64.10842246661377,77.2344961616211,64.10842246661377,69.05076966162109,64.10842246661377,69.05076966162109C64.10842246661377,69.05076966162109,66.64392146661376,69.05076966162109,66.64392146661376,69.05076966162109C66.64392146661376,69.05076966162109,66.64392146661376,69.05076966162109,66.64392146661376,69.05076966162109ZM50.68882046661377,77.45241546162109C50.68882046661377,77.45241546162109,50.68882046661377,76.52184586162109,50.68882046661377,76.52184586162109C51.41912146661377,76.52184586162109,52.04052046661377,76.19791556162109,52.48222046661377,75.5529856616211C52.88562146661377,74.9375157616211,53.20662046661377,74.18363576162109,53.20662046661377,73.1529354616211C53.20662046661377,72.1016256616211,52.88562146661377,71.34480576162109,52.48222046661377,70.74110566162109C52.04052046661377,70.09618566162109,51.41912146661377,69.80759567162109,50.68882046661377,69.80759567162109C50.68882046661377,69.80759567162109,50.68882046661377,68.9477009615211,50.68882046661377,68.9477009615211C51.74012046661377,68.9477009615211,52.69131946661377,69.2598546716211,53.32442146661377,69.9901755616211C54.03122046661377,70.8559656616211,54.35511846661377,71.8925456616211,54.35511846661377,73.1529354616211C54.35511846661377,74.5046257616211,54.03411946661377,75.5529856616211,53.32442146661377,76.2921457616211C52.69131946661377,77.0224656616211,51.74012046661377,77.45241546162109,50.68882046661377,77.45241546162109C50.68882046661377,77.45241546162109,50.68882046661377,77.45241546162109,50.68882046661377,77.45241546162109ZM55.933522466613766,69.05076966162109C55.933522466613766,69.05076966162109,57.08501946661377,69.05076966162109,57.08501946661377,69.05076966162109C57.08501946661377,69.05076966162109,57.08501946661377,73.8773755616211,57.08501946661377,73.8773755616211C57.08501946661377,74.7284355616211,57.18801946661377,75.4558057616211,57.50611946661377,75.8739757616211C57.83892146661377,76.2921457616211,58.33952046661377,76.52184586162109,58.97852046661377,76.52184586162109C59.72652146661377,76.52184586162109,60.14471946661377,76.1979055616211,60.54811946661377,75.7826857616211C60.86322146661377,75.34979586162109,60.97811946661377,74.73137566162109,60.97811946661377,73.7654657616211C60.97811946661377,73.7654657616211,60.97811946661377,69.05076966162109,60.97811946661377,69.05076966162109C60.97811946661377,69.05076966162109,62.02052046661377,69.05076966162109,62.02052046661377,69.05076966162109C62.02052046661377,69.05076966162109,62.02052046661377,73.7654657616211,62.02052046661377,73.7654657616211C62.02052046661377,75.0288057616211,61.808522466613766,75.8739757616211,61.27251946661377,76.52184586162109C60.76012146661377,77.1255359616211,60.02982046661377,77.45241546162109,58.97852046661377,77.45241546162109C57.93312146661377,77.45241546162109,57.19102146661377,77.1255359616211,56.66682146661377,76.52184586162109C56.160321466613766,75.9917755616211,55.93652046661377,75.0288057616211,55.93652046661377,73.88031576162109C55.93652046661377,73.88031576162109,55.933522466613766,69.05076966162109,55.933522466613766,69.05076966162109C55.933522466613766,69.05076966162109,55.933522466613766,69.05076966162109,55.933522466613766,69.05076966162109ZM50.68882046661377,68.9418088917211C50.68882046661377,68.9418088917211,50.68882046661377,69.8017036316211,50.68882046661377,69.8017036316211C50.68882046661377,69.8017036316211,50.59751946661377,69.8017036316211,50.59751946661377,69.8017036316211C49.849518466613766,69.8017036316211,49.22222246661377,70.0932456616211,48.81581946661377,70.73522566162109C48.38591846661377,71.33891556162109,48.05022146661377,72.0957455616211,48.05022146661377,73.1470556616211C48.05022146661377,74.18069556162109,48.38301946661377,74.9316258616211,48.81581946661377,75.5470957616211C49.22522046661377,76.1920156616211,49.85242146661377,76.51595546162109,50.59751946661377,76.51595546162109C50.59751946661377,76.51595546162109,50.68882046661377,76.51595546162109,50.68882046661377,76.51595546162109C50.68882046661377,76.51595546162109,50.68882046661377,77.44652556162109,50.68882046661377,77.44652556162109C50.68882046661377,77.44652556162109,50.59751946661377,77.44652556162109,50.59751946661377,77.44652556162109C49.52851946661377,77.44652556162109,48.60091846661377,77.01657586162109,47.96181946661377,76.2833056616211C47.21392146661377,75.5441555616211,46.91642046661377,74.4957857616211,46.91642046661377,73.1441054616211C46.91642046661377,71.8807656616211,47.21682046661377,70.84712566162109,47.96181946661377,69.98134566162109C48.60091846661377,69.2510196616211,49.525620466613766,68.9388656616211,50.59751946661377,68.9388656616211C50.59751946661377,68.9388656616211,50.68882046661377,68.9418088917211,50.68882046661377,68.9418088917211C50.68882046661377,68.9418088917211,50.68882046661377,68.9418088917211,50.68882046661377,68.9418088917211ZM43.03812146661377,73.7654657616211C43.03812146661377,73.7654657616211,43.03812146661377,72.7318255616211,43.03812146661377,72.7318255616211C43.45332046661377,72.61992576162109,43.65942146661377,72.52863576162109,43.95982046661377,72.3195457616211C44.28081946661377,72.0957455616211,44.395619466613766,71.7894756616211,44.395619466613766,71.33891556162109C44.395619466613766,70.8500755616211,44.28081946661377,70.49374566162109,43.95982046661377,70.2964455616211C43.77132146661377,70.09030566162109,43.45332046661377,69.9842857616211,43.03812146661377,69.9842857616211C43.03812146661377,69.9842857616211,43.03812146661377,69.05076966162109,43.03812146661377,69.05076966162109C43.86562046661377,69.05076966162109,44.481019466613766,69.25396567162109,44.91981946661377,69.5808436916211C45.32922046661377,69.87238264162109,45.535321466613766,70.42012556162109,45.535321466613766,71.16516566162109C45.535321466613766,71.6805157616211,45.44402046661377,72.0957355616211,45.13192046661377,72.4167256616211C44.80502046661377,72.8348955616211,44.395619466613766,73.0498757616211,43.76842246661377,73.1499957616211C44.06882146661377,73.2530655616211,44.28081946661377,73.3443555616211,44.395619466613766,73.4650955616211C44.59002046661377,73.6741757616211,44.70192046661377,73.87736556162109,44.91981946661377,74.2896456616211C44.91981946661377,74.2896456616211,46.16841946661377,77.2344961616211,46.16841946661377,77.2344961616211C46.16841946661377,77.2344961616211,44.91981946661377,77.2344961616211,44.91981946661377,77.2344961616211C44.91981946661377,77.2344961616211,43.86851946661377,74.6194758616211,43.86851946661377,74.6194758616211C43.66241946661377,74.18069556162109,43.45332046661377,73.9745554616211,43.229519466613766,73.87442586162109C43.229519466613766,73.7654657616211,43.12942246661377,73.7654657616211,43.03812146661377,73.7654657616211C43.03812146661377,73.7654657616211,43.03812146661377,73.7654657616211,43.03812146661377,73.7654657616211ZM38.426421466613775,69.46893865162109C38.426421466613775,69.46893865162109,38.28802046661377,70.42012556162109,38.28802046661377,70.42012556162109C37.98182046661377,70.2139856616211,37.66672046661377,70.0932456616211,37.251420466613766,69.9872356616211C36.94522046661377,69.9872356616211,36.60652046661377,69.8723796616211,36.20602146661377,69.8723796616211C35.26961946661377,69.8723796616211,34.41261946661377,70.2139856616211,33.88842146661377,70.8530156616211C33.27302046661377,71.34185576162109,32.94612046661377,72.1781957616211,32.94612046661377,73.1499957616211C32.94612046661377,74.18363576162109,33.27302046661377,74.93457556162109,33.88842146661377,75.5500454616211C34.41261946661377,76.09484576162109,35.26961946661377,76.37754586162109,36.20602146661377,76.37754586162109C36.50642146661377,76.37754586162109,36.72432046661377,76.37754586162109,36.94812146661377,76.28920556162109C37.15432046661377,76.28920556162109,37.33981946661377,76.1949658616211,37.56952046661377,76.1949658616211C37.56952046661377,76.1949658616211,37.56952046661377,73.6771154616211,37.56952046661377,73.6771154616211C37.56952046661377,73.6771154616211,35.790820466613766,73.6771154616211,35.790820466613766,73.6771154616211C35.790820466613766,73.6771154616211,35.790820466613766,72.73476576162109,35.790820466613766,72.73476576162109C35.790820466613766,72.73476576162109,38.60311946661377,72.73476576162109,38.60311946661377,72.73476576162109C38.60311946661377,72.73476576162109,38.60311946661377,76.82810546162109,38.60311946661377,76.82810546162109C38.28802046661377,77.0254154616211,37.88461946661377,77.1284856616211,37.46352146661377,77.1284856616211C37.036520466613766,77.24038596162109,36.60652046661377,77.3463954616211,36.10591946661377,77.3463954616211C34.82782046661377,77.3463954616211,33.68521946661377,76.9282355616211,32.94312046661377,76.19791556162109C32.11562046661377,75.4587554616211,31.77991946661377,74.3897757616211,31.77991946661377,73.1529354616211C31.77991946661377,71.8895957616211,32.11271946661377,70.94724556162109,32.94312046661377,70.09618566162109C33.77062146661377,69.37764665162109,34.83082146661377,69.05371366162109,36.20312046661377,69.05371366162109C36.503520466613764,69.05371366162109,36.94522046661377,69.0537156616211,37.24852046661377,69.1715096716211C37.66672046661377,69.16856466162109,38.093720466613775,69.25690967162109,38.426421466613775,69.46893865162109C38.426421466613775,69.46893865162109,38.426421466613775,69.46893865162109,38.426421466613775,69.46893865162109ZM43.03812146661377,69.05076966162109C43.03812146661377,69.05076966162109,43.03812146661377,69.9842857616211,43.03812146661377,69.9842857616211C42.92321846661377,69.9842857616211,42.69352046661377,69.8694366816211,42.51392046661377,69.8694366816211C42.51392046661377,69.8694366816211,41.66281946661377,69.8694366816211,41.66281946661377,69.8694366816211C41.66281946661377,69.8694366816211,41.66281946661377,72.7318255616211,41.66281946661377,72.7318255616211C41.66281946661377,72.7318255616211,43.03812146661377,72.7318255616211,43.03812146661377,72.7318255616211C43.03812146661377,72.7318255616211,43.03812146661377,73.7654657616211,43.03812146661377,73.7654657616211C42.92321846661377,73.67712546162109,42.60522146661377,73.6771154616211,42.39611946661377,73.6771154616211C42.39611946661377,73.6771154616211,41.65992046661377,73.6771154616211,41.65992046661377,73.6771154616211C41.65992046661377,73.6771154616211,41.65992046661377,77.2374458616211,41.65992046661377,77.2374458616211C41.65992046661377,77.2374458616211,40.60272146661377,77.2374458616211,40.60272146661377,77.2374458616211C40.60272146661377,77.2374458616211,40.60272146661377,69.05371366162109,40.60272146661377,69.05371366162109C40.60272146661377,69.05371366162109,42.799519466613766,69.05371366162109,42.799519466613766,69.05371366162109C42.799519466613766,69.05371366162109,43.03812146661377,69.05076966162109,43.03812146661377,69.05076966162109C43.03812146661377,69.05076966162109,43.03812146661377,69.05076966162109,43.03812146661377,69.05076966162109Z" fill="#005A9F" fill-opacity="1"/><path d="M54.13964318792725,7.337922102813721C60.98344318792724,10.90413190281372,66.31654218792724,16.99409210281372,69.16424418792724,24.13529210281372C64.75284518792725,27.910591102813722,59.73194418792725,30.84659210281372,54.13964318792725,32.73719310281372C54.13964318792725,32.73719310281372,54.13964318792725,26.125992102813722,54.13964318792725,26.125992102813722C56.663344187927244,25.08359210281372,59.08694318792725,23.81139210281372,61.27204418792724,22.34489310281372C59.50514518792725,19.299892102813722,56.99324318792725,16.68779210281372,54.13964318792725,14.691192102813721C54.13964318792725,14.691192102813721,54.13964318792725,7.337922102813721,54.13964318792725,7.337922102813721C54.13964318792725,7.337922102813721,54.13964318792725,7.337922102813721,54.13964318792725,7.337922102813721ZM54.13964318792725,38.42369110281372C59.72894618792725,40.29369010281372,64.75284518792725,43.22969110281372,69.16424418792724,47.01089110281372C66.73764318792725,53.20679110281372,62.343943187927245,58.56639110281372,56.76354518792725,62.22389310281372C55.93604518792725,62.77169110281372,54.98484318792725,63.28409210281372,54.13964318792725,63.80239110281372C54.13964318792725,63.80239110281372,54.13964318792725,56.45789410281372,54.13964318792725,56.45789410281372C56.99324318792725,54.467190102813724,59.50514518792725,51.85809410281372,61.27204418792724,48.91029010281372C59.08694318792725,47.32009210281372,56.66634318792725,46.06849310281372,54.13964318792725,45.01429010281372C54.13964318792725,45.01429010281372,54.13964318792725,38.42369110281372,54.13964318792725,38.42369110281372C54.13964318792725,38.42369110281372,54.13964318792725,38.42369110281372,54.13964318792725,38.42369110281372C54.13964318792725,38.42369110281372,54.13964318792725,38.42369110281372,54.13964318792725,38.42369110281372ZM51.009246187927246,5.983292102813721C52.03994318792724,6.40735009281372,53.108943187927245,6.922698082813721,54.13964318792725,7.337922102813721C54.13964318792725,7.337922102813721,54.13964318792725,14.691192102813721,54.13964318792725,14.691192102813721C53.742144187927245,14.36137250281372,53.32394318792725,14.061002302813721,52.885142187927244,13.84308190281372C49.95204418792724,18.15429210281372,47.84654518792725,22.96329210281372,46.91594618792725,28.231593102813722C49.419043187927244,27.81929210281372,51.83974318792725,27.06539210281372,54.13964318792725,26.125992102813722C54.13964318792725,26.125992102813722,54.13964318792725,32.73719310281372,54.13964318792725,32.73719310281372C51.53934418792725,33.682492102813725,48.900744187927245,34.297991102813725,46.162043187927246,34.73379210281372C46.162043187927246,34.73379210281372,46.162043187927246,35.56719210281372,46.162043187927246,35.56719210281372C46.162043187927246,35.56719210281372,46.162043187927246,36.53019210281372,46.162043187927246,36.53019210281372C48.900744187927245,36.82469210281372,51.53934418792725,37.56969110281372,54.13964318792725,38.42369110281372C54.13964318792725,38.42369110281372,54.13964318792725,45.01429010281372,54.13964318792725,45.01429010281372C51.83974318792725,44.06899310281372,49.416144187927245,43.34159110281372,46.91594618792725,42.93519210281372C47.84654518792725,48.16229310281372,49.95204418792724,53.01839110281372,52.885142187927244,57.30309310281372C53.320945187927244,57.09399110281372,53.742144187927245,56.76719310281372,54.13964318792725,56.45789410281372C54.13964318792725,56.45789410281372,54.13964318792725,63.80239110281372,54.13964318792725,63.80239110281372C53.108943187927245,64.33249310281371,52.03994318792724,64.76529310281373,51.009246187927246,65.15999310281373C45.52894518792725,58.76379110281372,41.75954318792725,50.88919110281372,40.516845187927245,42.20189310281372C40.516845187927245,42.20189310281372,39.56264418792725,42.20189310281372,39.56264418792725,42.20189310281372C39.56264418792725,42.20189310281372,38.60264518792725,42.20189310281372,38.60264518792725,42.20189310281372C37.33634518792725,50.88919110281372,33.58164518792725,58.76379110281372,28.110144187927247,65.15999310281373C27.058844187927246,64.76529310281373,26.016345187927246,64.33249310281371,24.970944187927245,63.80239110281372C24.970944187927245,63.80239110281372,24.970944187927245,56.45789410281372,24.970944187927245,56.45789410281372C25.397944187927244,56.76719310281372,25.816144187927247,57.09399110281372,26.237244187927246,57.30309310281372C29.193845187927245,53.01839110281372,31.275843187927247,48.16229310281372,32.21234418792724,42.93519210281372C29.709245187927245,43.34159110281372,27.265044187927245,44.06899310281372,24.970944187927245,45.01429010281372C24.970944187927245,45.01429010281372,24.970944187927245,38.42369110281372,24.970944187927245,38.42369110281372C27.588944187927247,37.56969110281372,30.227544187927247,36.82469210281372,32.94264518792725,36.53019210281372C32.94264518792725,36.53019210281372,32.94264518792725,35.56719210281372,32.94264518792725,35.56719210281372C32.94264518792725,35.56719210281372,32.94264518792725,34.73379210281372,32.94264518792725,34.73379210281372C30.227544187927247,34.30089210281372,27.588944187927247,33.685492102813726,24.970944187927245,32.73719310281372C24.970944187927245,32.73719310281372,24.970944187927245,26.125992102813722,24.970944187927245,26.125992102813722C27.265044187927245,27.06539210281372,29.709245187927245,27.81929210281372,32.21234418792724,28.231593102813722C31.275843187927247,22.96329210281372,29.193845187927245,18.15429210281372,26.237244187927246,13.84308190281372C25.819044187927247,14.061002302813721,25.397944187927244,14.36137250281372,24.970944187927245,14.691192102813721C24.970944187927245,14.691192102813721,24.970944187927245,7.337922102813721,24.970944187927245,7.337922102813721C26.016345187927246,6.807849112813721,27.058844187927246,6.40735009281372,28.110144187927247,5.983292102813721C33.57874418792724,12.37655210281372,37.33634518792725,20.262892102813723,38.60264518792725,28.96189210281372C38.60264518792725,28.96189210281372,39.56264418792725,28.96189210281372,39.56264418792725,28.96189210281372C39.56264418792725,28.96189210281372,40.516845187927245,28.96189210281372,40.516845187927245,28.96189210281372C41.762444187927244,20.262892102813723,45.52894518792725,12.37655210281372,51.009246187927246,5.983292102813721C51.009246187927246,5.983292102813721,51.009246187927246,5.983292102813721,51.009246187927246,5.983292102813721ZM24.970944187927245,63.80239110281372C18.15659428792725,60.22729110281372,12.799924087927247,54.26699110281372,9.958144187927246,47.01089110281372C14.357744187927246,43.22969110281372,19.414044387927248,40.29369010281372,24.970944187927245,38.42369110281372C24.970944187927245,38.42369110281372,24.970944187927245,45.01429010281372,24.970944187927245,45.01429010281372C22.456044187927247,46.06849310281372,20.035444187927247,47.32009210281372,17.832663987927248,48.91029010281372C19.61429408792725,51.85809410281372,22.135044187927246,54.467190102813724,24.970944187927245,56.45789410281372C24.970944187927245,56.45789410281372,24.970944187927245,63.80239110281372,24.970944187927245,63.80239110281372C24.970944187927245,63.80239110281372,24.970944187927245,63.80239110281372,24.970944187927245,63.80239110281372ZM24.970944187927245,32.73719310281372C19.414044387927248,30.84659210281372,14.357744187927246,27.910591102813722,9.958144187927246,24.13529210281372C10.164283187927246,23.71419210281372,10.290911197927246,23.29599210281372,10.482326207927246,22.86609110281372C13.000164287927246,17.19429210281372,17.096444087927246,12.264642202813722,22.347144187927245,8.91930200281372C23.195244187927244,8.40395210281372,24.131644187927247,7.882712102813721,24.970944187927245,7.337922102813721C24.970944187927245,7.337922102813721,24.970944187927245,14.691192102813721,24.970944187927245,14.691192102813721C22.138044187927246,16.68779210281372,19.617234187927245,19.299892102813722,17.835604187927245,22.34489310281372C20.038344187927244,23.81139210281372,22.459044187927248,25.08359210281372,24.973944187927245,26.125992102813722C24.973944187927245,26.125992102813722,24.973944187927245,32.73719310281372,24.973944187927245,32.73719310281372C24.973944187927245,32.73719310281372,24.970944187927245,32.73719310281372,24.970944187927245,32.73719310281372C24.970944187927245,32.73719310281372,24.970944187927245,32.73719310281372,24.970944187927245,32.73719310281372Z" fill="#005A9F" fill-opacity="1"/><path d="M39.566898,84.997101C39.566898,84.997101,71.156303,84.997101,71.156303,84.997101C75.573502,84.997101,79.145599,81.327797,79.145599,77.122498C79.145599,77.122498,79.145599,7.8833499,79.145599,7.8833499C79.145599,3.5720999,75.6707,0,71.156303,0C71.156303,0,39.566898,0,39.566898,0C39.566898,0,39.566898,2.9360099,39.566898,2.9360099C39.566898,2.9360099,71.156303,2.9360099,71.156303,2.9360099C73.68,2.9360099,76.085899,5.3537302,76.085899,7.8833499C76.085899,7.8833499,76.194901,77.025398,76.194901,77.025398C76.194901,79.646301,73.559303,82.055199,71.156303,82.055199C71.156303,82.055199,39.566898,82.055199,39.566898,82.055199C39.566898,82.055199,39.566898,84.997101,39.566898,84.997101C39.566898,84.997101,39.566898,84.997101,39.566898,84.997101ZM7.9716902,0C3.6633899,0,0,3.5720999,0,7.8833499C0,7.8833499,0,77.025398,0,77.025398C0,81.330704,3.7664599,85,7.9716902,85C7.9716902,85,39.566898,85,39.566898,85C39.566898,85,39.566898,82.055199,39.566898,82.055199C39.566898,82.055199,7.9716902,82.055199,7.9716902,82.055199C5.5745902,82.055199,3.01847,79.437202,3.01847,77.125504C3.01847,77.125504,3.01847,7.8833499,3.01847,7.8833499C3.01847,5.3566699,5.4568,2.9360099,7.9716902,2.9360099C7.9716902,2.9360099,39.566898,2.9360099,39.566898,2.9360099C39.566898,2.9360099,39.566898,0,39.566898,0C39.566898,0,7.9716902,0,7.9716902,0C7.9716902,0,7.9716902,0,7.9716902,0Z" fill="#005A9F" fill-opacity="1"/></svg>