<svg xmlns="http://www.w3.org/2000/svg" xmlns:xlink="http://www.w3.org/1999/xlink" fill="none" version="1.1" width="180" height="180" viewBox="0 0 180 180"><defs><filter id="master_svg0_0_930" filterUnits="objectBoundingBox" color-interpolation-filters="sRGB" x="-0.203125" y="-0.078125" width="1.40625" height="1.40625"><feFlood flood-opacity="0" result="BackgroundImageFix"/><feColorMatrix in="SourceAlpha" type="matrix" values="0 0 0 0 0 0 0 0 0 0 0 0 0 0 0 0 0 0 127 0"/><feOffset dy="16" dx="0"/><feGaussianBlur stdDeviation="6.5"/><feColorMatrix type="matrix" values="0 0 0 0 0 0 0 0 0 0 0 0 0 0 0 0 0 0 0.029999999329447746 0"/><feBlend mode="normal" in2="BackgroundImageFix" result="effect1_dropShadow"/><feBlend mode="normal" in="SourceGraphic" in2="effect1_dropShadow" result="shape"/></filter><clipPath id="master_svg1_0_930"><rect x="26" y="10" width="128" height="128" rx="0"/></clipPath></defs><g filter="url(#master_svg0_0_930)"><g clip-path="url(#master_svg1_0_930)"><path d="M54.14015395507813,10C54.14015395507813,10,125.85995495507812,10,125.85995495507812,10C144.4540539550781,10,153.75105395507813,19.29702,153.75105395507813,37.8911C153.75105395507813,37.8911,153.75105395507813,109.610901,153.75105395507813,109.610901C153.75105395507813,128.20499999999998,144.4540539550781,137.502,125.85995495507812,137.502C125.85995495507812,137.502,54.14015395507813,137.502,54.14015395507813,137.502C35.54607395507813,137.502,26.249053955078125,128.20499999999998,26.249053955078125,109.610901C26.249053955078125,109.610901,26.249053955078125,37.8911,26.249053955078125,37.8911C26.249053955078125,19.29702,35.54607395507813,10.000000000000007,54.14015395507813,10.000000000000007C54.14015395507813,10.000000000000007,54.14015395507813,10,54.14015395507813,10C54.14015395507813,10,54.14015395507813,10,54.14015395507813,10Z" fill="#FFFFFF" fill-opacity="1"/><path d="M79.73006467285157,32.129530250742185C79.73006467285157,32.129530250742185,79.73006467285157,56.28071826074219,79.73006467285157,56.28071826074219C79.74196667285156,58.37051726074219,79.94066667285156,59.386017260742186,82.48426467285157,59.386017260742186C83.98636667285156,59.386017260742186,85.48856367285157,59.30241726074219,86.94936367285156,59.386017260742186C89.40476567285157,59.54541826074219,89.11586367285156,61.52121726074219,89.08046367285156,63.51741826074219C89.08046367285156,63.51741826074219,89.07756467285157,63.838115260742185,89.07756467285157,63.838115260742185C89.07756467285157,63.838115260742185,89.07756467285157,73.53931826074219,89.07756467285157,73.53931826074219C88.20096567285157,71.69151726074219,85.33916467285155,72.32151826074218,83.25726367285156,72.61541726074219C81.86916367285156,72.81161926074219,80.01196267285155,72.76981726074219,77.68556367285156,72.48941826074218C76.55746467285157,72.32751826074218,76.05186467285156,71.77371626074219,75.90546367285157,70.7148172607422C75.90546367285157,70.7148172607422,75.89106567285157,70.59971626074218,75.89106567285157,70.59971626074218C75.89106567285157,70.59971626074218,75.89106567285157,42.88101726074218,75.89106567285157,42.88101726074218C64.12346467285155,48.34071726074219,56.36231427285156,60.56191626074219,56.36231427285156,73.62341726074219C56.36231427285156,90.08811526074219,68.67226367285156,104.57751426074219,84.83106567285157,107.02501726074219C84.83106567285157,107.02501726074219,85.32166267285156,107.09571826074219,85.32166267285156,107.09571826074219C85.32166267285156,107.09571826074219,85.32166267285156,89.3724172607422,85.32166267285156,89.3724172607422C85.32166267285156,88.53271826074219,85.65536467285156,87.6925162607422,84.73746467285156,87.6925162607422C84.73746467285156,87.6925162607422,83.92866467285157,87.71491626074219,83.92866467285157,87.71491626074219C82.18896467285157,87.7662162607422,80.83666567285155,87.8329162607422,79.87196367285156,87.9151152607422C79.87196367285156,87.9151152607422,79.73006467285157,87.92751726074218,79.73006467285157,87.92751726074218C78.09636467285156,88.07501626074219,76.01756467285156,87.76571626074218,75.93486367285156,85.99711626074219C75.93486367285156,85.99711626074219,75.93286467285157,85.88651626074218,75.93286467285157,85.88651626074218C75.93286467285157,85.88651626074218,75.93236567285156,73.10001726074219,75.93236567285156,73.10001726074219C75.93236567285156,73.10001726074219,75.93686467285156,73.17221826074218,75.93686467285156,73.17221826074218C75.98866467285157,73.82561826074219,76.33026467285157,74.31521626074219,76.96286367285157,74.51891726074219C76.96286367285157,74.51891726074219,77.05946567285156,74.54731726074219,77.05946567285156,74.54731726074219C79.10246467285157,75.03141826074219,81.78446567285155,74.82121626074219,83.78216567285156,74.61501726074218C83.78216567285156,74.61501726074218,85.03576267285156,74.47911826074218,85.03576267285156,74.47911826074218C86.82926567285156,74.29381526074218,88.72036367285156,74.24801626074219,89.03516367285155,75.97521626074219C89.03516367285155,75.97521626074219,89.07756467285157,87.6925162607422,89.07756467285157,87.6925162607422C89.07756467285157,87.6925162607422,90.99706667285156,87.6925162607422,90.99706667285156,87.6925162607422C90.99706667285156,87.6925162607422,90.99706667285156,75.97521626074219,90.99706667285156,75.97521626074219C90.99706667285156,74.49001726074218,93.27266267285157,74.07961626074218,96.45966367285156,74.52291826074219C96.45966367285156,74.52291826074219,96.92386667285156,74.58921826074219,96.92386667285156,74.58921826074219C100.02226667285157,75.0145182607422,103.91206367285156,75.06231726074219,104.13416267285156,73.06511726074218C104.13416267285156,73.06511726074218,104.14116267285156,72.9735182607422,104.14116267285156,72.9735182607422C104.14116267285156,72.9735182607422,104.14116267285156,85.88651626074218,104.14116267285156,85.88651626074218C104.14116267285156,89.3331182607422,96.30826567285156,87.44241726074219,95.12386367285157,87.76471726074219C95.12386367285157,87.76471726074219,95.08606367285157,87.7766192607422,95.08606367285157,87.7766192607422C94.60496567285156,87.93801926074218,94.56806567285156,88.72101626074219,94.57606467285157,89.22651626074219C94.57606467285157,89.22651626074219,94.58546467285157,89.58261826074218,94.58546467285157,89.58261826074218C94.58546467285157,89.58261826074218,94.58546467285157,107.17931326074219,94.58546467285157,107.17931326074219C110.98496667285156,104.95351426074218,123.54536467285156,90.2963182607422,123.54536467285156,73.70761826074218C123.54536467285156,60.81801826074219,116.01976767285156,48.711218260742186,104.45146567285155,43.13201726074219C104.45146567285155,43.13201726074219,104.09986467285157,42.965217260742186,104.09986467285157,42.965217260742186C104.09986467285157,42.965217260742186,104.09986467285157,70.64211626074218,104.09986467285157,70.64211626074218C104.09986467285157,71.56551726074218,103.68246467285157,72.36341826074218,102.72276267285156,72.5735172607422C100.70306367285156,72.97991526074219,98.09926567285157,72.83351926074218,96.08366367285157,72.67811626074219C96.08366367285157,72.67811626074219,95.01436567285157,72.59201826074218,95.01436567285157,72.59201826074218C93.12176467285155,72.42511726074218,91.73916667285155,72.19351626074219,91.00746567285157,73.56221726074219C91.00746567285157,73.56221726074219,90.95516567285156,73.66531726074219,90.95516567285156,73.66531726074219C90.95516567285156,73.66531726074219,90.95516567285156,63.838115260742185,90.95516567285156,63.838115260742185C90.95516567285156,62.45211826074219,90.56666567285157,59.846718260742186,91.99466367285157,59.386017260742186C93.42256567285156,58.92531826074219,100.20406367285156,60.75071726074219,100.26036467285157,58.12601626074219C100.34396367285157,54.248617260742186,100.30216567285157,49.60081626074219,100.30216567285157,45.52721726074219C100.30216567285157,41.11741736074219,100.34396367285157,36.707647360742186,100.34396367285157,32.25553727074219C118.03686567285156,36.791317460742185,131.13966367285155,52.79281826074219,132.26626567285155,71.01961926074219C133.51846267285157,92.90061526074219,117.36946067285156,112.76501426074219,95.75396367285157,115.70501726074218C71.80146367285155,118.98072026074219,49.434874672851564,100.66981526074218,47.766390692851566,76.39511826074218C46.34693467285156,56.026718260742186,60.07576467285156,37.08566716074219,79.73006467285157,32.129530250742185C79.73006467285157,32.129530250742185,79.73006467285157,32.129530250742185,79.73006467285157,32.129530250742185C79.73006467285157,32.129530250742185,79.73006467285157,32.129530250742185,79.73006467285157,32.129530250742185ZM94.54366267285155,31.415817260742188C94.54366267285155,31.415817260742188,94.58546467285157,57.58011826074218,94.58546467285157,57.58011826074218C94.58546467285157,57.58011826074218,85.32166267285156,57.58011826074218,85.32166267285156,57.58011826074218C85.32166267285156,57.58011826074218,85.44666267285156,31.415817260742188,85.44666267285156,31.415817260742188C85.44666267285156,31.415817260742188,94.54366267285155,31.415817260742188,94.54366267285155,31.415817260742188C94.54366267285155,31.415817260742188,94.54366267285155,31.415817260742188,94.54366267285155,31.415817260742188Z" fill="#009882" fill-opacity="1"/></g></g></svg>