<svg xmlns="http://www.w3.org/2000/svg" xmlns:xlink="http://www.w3.org/1999/xlink" fill="none" version="1.1" width="84.66874694824219" height="84.66912841796875" viewBox="0 0 84.66874694824219 84.66912841796875"><path d="M32.0644,0.71371299C32.0644,0.71371299,32.0644,24.864901,32.0644,24.864901C32.076302,26.9547,32.275002,27.9702,34.8186,27.9702C36.320702,27.9702,37.822899,27.8866,39.283699,27.9702C41.739101,28.129601,41.450199,30.1054,41.414799,32.101601C41.414799,32.101601,41.4119,32.422298,41.4119,32.422298C41.4119,32.422298,41.4119,42.123501,41.4119,42.123501C40.535301,40.2757,37.6735,40.905701,35.591599,41.1996C34.203499,41.395802,32.346298,41.354,30.019899,41.073601C28.8918,40.911701,28.3862,40.357899,28.239799,39.299C28.239799,39.299,28.225401,39.183899,28.225401,39.183899C28.225401,39.183899,28.225401,11.4652,28.225401,11.4652C16.4578,16.9249,8.6966496,29.146099,8.6966496,42.2076C8.6966496,58.672298,21.006599,73.161697,37.165401,75.6092C37.165401,75.6092,37.655998,75.679901,37.655998,75.679901C37.655998,75.679901,37.655998,57.9566,37.655998,57.9566C37.655998,57.116901,37.9897,56.276699,37.0718,56.276699C37.0718,56.276699,36.263,56.299099,36.263,56.299099C34.5233,56.350399,33.171001,56.417099,32.206299,56.499298C32.206299,56.499298,32.0644,56.5117,32.0644,56.5117C30.4307,56.659199,28.3519,56.349899,28.269199,54.581299C28.269199,54.581299,28.2672,54.470699,28.2672,54.470699C28.2672,54.470699,28.266701,41.6842,28.266701,41.6842C28.266701,41.6842,28.2712,41.756401,28.2712,41.756401C28.323,42.409801,28.6646,42.899399,29.297199,43.1031C29.297199,43.1031,29.393801,43.1315,29.393801,43.1315C31.4368,43.615601,34.118801,43.405399,36.116501,43.1992C36.116501,43.1992,37.370098,43.063301,37.370098,43.063301C39.163601,42.877998,41.054699,42.832199,41.369499,44.559399C41.369499,44.559399,41.4119,56.276699,41.4119,56.276699C41.4119,56.276699,43.331402,56.276699,43.331402,56.276699C43.331402,56.276699,43.331402,44.559399,43.331402,44.559399C43.331402,43.0742,45.606998,42.663799,48.793999,43.107101C48.793999,43.107101,49.258202,43.173401,49.258202,43.173401C52.356602,43.598701,56.246399,43.6465,56.468498,41.6493C56.468498,41.6493,56.475498,41.557701,56.475498,41.557701C56.475498,41.557701,56.475498,54.470699,56.475498,54.470699C56.475498,57.917301,48.642601,56.0266,47.458199,56.3489C47.458199,56.3489,47.420399,56.360802,47.420399,56.360802C46.939301,56.522202,46.902401,57.305199,46.9104,57.810699C46.9104,57.810699,46.9198,58.166801,46.9198,58.166801C46.9198,58.166801,46.9198,75.763496,46.9198,75.763496C63.319302,73.537697,75.8797,58.880501,75.8797,42.291801C75.8797,29.402201,68.354103,17.295401,56.785801,11.7162C56.785801,11.7162,56.4342,11.5494,56.4342,11.5494C56.4342,11.5494,56.4342,39.226299,56.4342,39.226299C56.4342,40.1497,56.0168,40.947601,55.057098,41.1577C53.037399,41.564098,50.433601,41.417702,48.417999,41.262299C48.417999,41.262299,47.348701,41.176201,47.348701,41.176201C45.4561,41.0093,44.073502,40.777699,43.341801,42.1464C43.341801,42.1464,43.289501,42.2495,43.289501,42.2495C43.289501,42.2495,43.289501,32.422298,43.289501,32.422298C43.289501,31.036301,42.901001,28.430901,44.328999,27.9702C45.756901,27.509501,52.538399,29.3349,52.5947,26.710199C52.678299,22.8328,52.636501,18.184999,52.636501,14.1114C52.636501,9.7016001,52.678299,5.2918301,52.678299,0.83972001C70.371201,5.3755002,83.473999,21.377001,84.600601,39.603802C85.852798,61.484798,69.703796,81.349197,48.088299,84.2892C24.135799,87.564903,1.76921,69.253998,0.10072602,44.979301C-1.31873,24.610901,12.4101,5.6698499,32.0644,0.71371299C32.0644,0.71371299,32.0644,0.71371299,32.0644,0.71371299C32.0644,0.71371299,32.0644,0.71371299,32.0644,0.71371299ZM46.877998,0C46.877998,0,46.9198,26.164301,46.9198,26.164301C46.9198,26.164301,37.655998,26.164301,37.655998,26.164301C37.655998,26.164301,37.780998,0,37.780998,0C37.780998,0,46.877998,0,46.877998,0C46.877998,0,46.877998,0,46.877998,0Z" fill="#009882" fill-opacity="1"/></svg>