<svg xmlns="http://www.w3.org/2000/svg" xmlns:xlink="http://www.w3.org/1999/xlink" fill="none" version="1.1" width="85.05000305175781" height="84.94999694824219" viewBox="0 0 85.05000305175781 84.94999694824219"><path d="M42.5,0C44.700001,0,46.900002,0.15000001,49.049999,0.5C49,0.64999998,54,0.69999999,48.450001,6.75C42.200001,13.8,43.150002,25.9,48.150002,34.349998C58.200001,50.650002,58.25,56.700001,58.25,56.700001C58.599998,57.75,58.599998,59.5,60.400002,58.099998C62.349998,56,75.400002,32.650002,50.400002,21C45.450001,14.95,53.049999,4.9000001,56.299999,3.5C58.049999,2.8499999,61.25,4.3499999,61.75,4.5500002C75.550003,11.55,85.050003,25.9,85.050003,42.450001C85.050003,65.900002,66,84.949997,42.549999,84.949997C39.599998,84.949997,36.75,84.650002,34,84.099998C33.549999,83.800003,33.049999,83.449997,32.75,82.949997C31.85,81.900002,34.549999,80.5,36.5,77.5C44.400002,67.099998,41.849998,54.599998,34.549999,43.049999C27.299999,31.5,28.1,28.700001,28,28.200001C27.9,26.65,27.9,24.4,26.1,26.549999C24.950001,27.799999,18.950001,34.700001,19.450001,43.5C19.799999,49.75,23.25,59.549999,34.549999,63.900002C40.049999,66.699997,30.4,80.5,28.65,81.400002C26.75,82.099998,23.15,80.300003,23.15,80.300003C9.3999996,73.300003,0,59,0,42.5C0,19.049999,19.049999,0,42.5,0C42.5,0,42.5,0,42.5,0Z" fill="#106FB8" fill-opacity="1"/></svg>