<svg xmlns="http://www.w3.org/2000/svg" xmlns:xlink="http://www.w3.org/1999/xlink" fill="none" version="1.1" width="84.1396484375" height="72.3629150390625" viewBox="0 0 84.1396484375 72.3629150390625"><path d="M41.967029517578126,28.821470482421876C38.60192851757812,35.52307148242188,34.825431517578124,42.00986848242187,30.659030517578124,48.244968482421875C19.957031517578127,48.88597148242187,9.506530717578125,50.47747048242187,0.000030517578125,53.058467482421875C13.579030517578126,38.303970482421875,24.819030517578124,19.071470482421876,30.748531517578126,-0.000030517578125C30.748531517578126,-0.000030517578125,30.770030517578125,-0.000030517578125,30.770030517578125,-0.000030517578125C33.34852951757812,9.452969582421876,37.190029517578125,19.270969482421876,41.967029517578126,28.821470482421876Z" fill="#BD0016" fill-opacity="1"/><path d="M30.65528466796875,48.2364169659375C38.186685667968746,47.7920799659375,45.73818566796875,47.8104479659375,53.26728466796875,48.2914169759375C59.23528266796875,57.2394218359375,65.92028466796876,65.4738828359375,72.98528266796875,72.3628828359375C53.31028366796875,67.9568828359375,30.84278466796875,67.8508818359375,11.15928646696875,72.2693828359375C11.15928646696875,72.2693828359375,11.14178466796875,72.23938183593751,11.14178466796875,72.23938183593751C11.14178466796875,72.23938183593751,11.47078665796875,71.91738083593751,11.47078665796875,71.91738083593751C11.47078665796875,71.91738083593751,11.79528468796875,71.5903818359375,11.79528468796875,71.5903818359375C11.79528468796875,71.5903818359375,12.11978566796875,71.26338183593751,12.11978566796875,71.26338183593751C12.11978566796875,71.26338183593751,12.44378466796875,70.9368818359375,12.44378466796875,70.9368818359375C12.44378466796875,70.9368818359375,12.76878466796875,70.6018808359375,12.76878466796875,70.6018808359375C12.76878466796875,70.6018808359375,13.09278466796875,70.25738183593751,13.09278466796875,70.25738183593751C13.09278466796875,70.25738183593751,13.41278456796875,69.9263818359375,13.41278456796875,69.9263818359375C13.41278456796875,69.9263818359375,13.73778466796875,69.5868818359375,13.73778466796875,69.5868818359375C13.73778466796875,69.5868818359375,14.06178476796875,69.24738083593749,14.06178476796875,69.24738083593749C14.06178476796875,69.24738083593749,14.38178466796875,68.9073808359375,14.38178466796875,68.9073808359375C14.38178466796875,68.9073808359375,14.69828466796875,68.5683818359375,14.69828466796875,68.5683818359375C14.69828466796875,68.5683818359375,15.01828456796875,68.2118818359375,15.01828456796875,68.2118818359375C15.01828456796875,68.2118818359375,15.33828446796875,67.8718818359375,15.33828446796875,67.8718818359375C15.33828446796875,67.8718818359375,15.65828466796875,67.5198818359375,15.65828466796875,67.5198818359375C15.65828466796875,67.5198818359375,15.97828486796875,67.1633818359375,15.97828486796875,67.1633818359375C15.97828486796875,67.1633818359375,16.29878476796875,66.8153818359375,16.29878476796875,66.8153818359375C16.29878476796875,66.8153818359375,16.61878486796875,66.4628808359375,16.61878486796875,66.4628808359375C16.61878486796875,66.4628808359375,16.93078466796875,66.1018808359375,16.93078466796875,66.1018808359375C16.93078466796875,66.1018808359375,17.242284767968748,65.7498818359375,17.242284767968748,65.7498818359375C17.242284767968748,65.7498818359375,17.55378486796875,65.3933808359375,17.55378486796875,65.3933808359375C17.55378486796875,65.3933808359375,17.86528446796875,65.0323808359375,17.86528446796875,65.0323808359375C17.86528446796875,65.0323808359375,18.18128486796875,64.66738083593751,18.18128486796875,64.66738083593751C18.18128486796875,64.66738083593751,18.50128456796875,64.3063808359375,18.50128456796875,64.3063808359375C18.50128456796875,64.3063808359375,18.80878446796875,63.945882835937496,18.80878446796875,63.945882835937496C23.05928466796875,58.9408818359375,27.014784667968748,53.6959219359375,30.65528466796875,48.2364169659375Z" fill="#730000" fill-opacity="1"/><path d="M53.26710205078125,48.28754831640625C49.10035225078125,42.04095031640625,45.32638215078125,35.54105031640625,41.96710205078125,28.82555031640625C46.74860195078125,19.27554931640625,50.56910225078125,9.47454931640625,53.06210205078125,0.00054931640625C59.17060305078125,19.15205031640625,70.38960305078125,38.51205031640625,84.13960305078125,53.15604831640625C84.13960305078125,53.15604831640625,84.12210105078125,53.18605031640625,84.12210105078125,53.18605031640625C74.56010105078124,50.62204731640625,64.04160105078125,48.97954931640625,53.26710205078125,48.28754831640625C53.26710205078125,48.28754831640625,53.26710205078125,48.28754831640625,53.26710205078125,48.28754831640625Z" fill="#E5001F" fill-opacity="1"/><path d="M53.27105712890625,48.28729248046875C64.04155712890625,48.97929245046875,74.56455812890624,50.62179258046875,84.12655612890624,53.18528268046875C84.12655612890624,53.18528268046875,72.98905712890625,72.35879348046875,72.98905712890625,72.35879348046875C65.92405712890626,65.46979348046875,59.23905702890625,57.23479268046875,53.27105712890625,48.28729248046875Z" fill="#BD0016" fill-opacity="1"/><path d="M30.65898928125,48.2362060546875C24.72948828125,57.1077060546875,18.10398828125,65.3122060546875,11.14148828125,72.2397060546875C11.14148828125,72.2397060546875,0.00048828125,53.0622062546875,0.00048828125,53.0622062546875C9.50698848125,50.4772059546875,19.95748928125,48.8812060346875,30.65948828125,48.2362060546875" fill="#E5001F" fill-opacity="1"/><path d="M53.062169921875,0.0044708251953125C50.569169921875,9.478470825195313,46.748669921875,19.27497082519531,41.963169921875,28.82146982519531C37.186170121875,19.270970825195313,33.344169821875,9.456971125195313,30.774169921875,0.0044708251953125C30.774169921875,0.0044708251953125,53.062169921875,0.0044708251953125,53.062169921875,0.0044708251953125C53.062169921875,0.0044708251953125,53.062169921875,0.0044708251953125,53.062169921875,0.0044708251953125Z" fill="#730000" fill-opacity="1"/></svg>