<svg xmlns="http://www.w3.org/2000/svg" xmlns:xlink="http://www.w3.org/1999/xlink" fill="none" version="1.1" width="85" height="85" viewBox="0 0 85 85"><path d="M0.25,47C0.1,45.5,0,44,0,42.450001C0,40.950001,0.1,39.450001,0.25,38C0.25,38,29.5,38,29.5,38C29.5,38,29.5,47,29.5,47C29.5,47,0.25,47,0.25,47C0.25,47,0.25,47,0.25,47ZM42.950001,0C63.900002,0,81.349998,15,85,34.799999C85,34.799999,44.200001,34.799999,44.200001,34.799999C44.200001,34.799999,44.200001,50.549999,44.200001,50.549999C44.200001,50.549999,84.949997,50.549999,84.949997,50.549999C81.150002,70.150002,63.799999,85,43,85C22.15,85,4.8000002,70.150002,1.05,50.549999C1.05,50.549999,29.799999,50.549999,29.799999,50.549999C29.799999,50.549999,29.799999,59.5,29.799999,59.5C29.799999,59.5,15.3,59.5,15.3,59.5C21.049999,68.75,31.35,74.949997,43.099998,74.949997C54.849998,74.949997,65.150002,68.800003,70.900002,59.5C70.900002,59.5,34.650002,59.5,34.650002,59.5C34.650002,59.5,34.650002,25.799999,34.650002,25.799999C34.650002,25.799999,71,25.799999,71,25.799999C65.300003,16.35,54.900002,10.05,43,10.05C31.1,10.05,20.75,16.35,15,25.799999C15,25.799999,29.700001,25.799999,29.700001,25.799999C29.700001,25.799999,29.700001,34.450001,29.700001,34.450001C29.700001,34.450001,1,34.450001,1,34.450001C4.8000002,14.85,22.15,0,42.950001,0C42.950001,0,42.950001,0,42.950001,0Z" fill="#E50113" fill-opacity="1"/></svg>