<svg xmlns="http://www.w3.org/2000/svg" xmlns:xlink="http://www.w3.org/1999/xlink" fill="none" version="1.1" width="72.9951171875" height="79.487060546875" viewBox="0 0 72.9951171875 79.487060546875"><path d="M71.19504577636718,6.89347836484375C59.19504577636719,-5.45652153515625,34.89504577636719,-0.75652539515625,17.145044776367186,17.34343896484375C3.8450050763671877,30.84343896484375,-2.1549949236328123,48.14343996484375,0.6950041063671875,61.19343996484375C0.6950041063671875,61.19343996484375,34.24504477636719,46.89343996484375,34.24504477636719,46.89343996484375C33.34504677636719,39.59343696484375,35.24504477636719,30.69343996484375,40.04504377636719,22.59343896484375C48.49504477636719,8.34347816484375,62.74504477636719,1.74347866484375,71.74504877636718,7.94347856484375C72.09504677636718,8.19347856484375,72.49504877636718,8.49347876484375,72.7950437763672,8.74347876484375C72.2950437763672,8.14347836484375,71.74504877636718,7.49347876484375,71.19504577636718,6.89347836484375C71.19504577636718,6.89347836484375,71.19504577636718,6.89347836484375,71.19504577636718,6.89347836484375C71.19504577636718,6.89347836484375,71.19504577636718,6.89347836484375,71.19504577636718,6.89347836484375ZM3.4450051763671876,68.34343696484375C4.345005076367188,69.89343996484375,5.395005176367188,71.34343696484375,6.645005176367188,72.59343696484375C18.645044776367186,84.94343596484374,42.94504577636719,80.24343896484375,60.69504577636719,62.14343996484375C65.99504877636718,56.74343896484375,70.09504677636718,50.79343796484375,72.99504877636718,44.74343896484375C72.94504577636718,44.84343696484375,72.84504677636718,44.99343896484375,72.7950437763672,45.09343696484375C64.34504677636718,59.34343696484375,50.14504577636719,65.89343996484375,41.09504677636719,59.74343896484375C39.09504677636719,58.39343996484375,37.54504377636719,56.49343896484375,36.39504577636719,54.29343796484375C36.39504577636719,54.29343796484375,3.4450051763671876,68.34343696484375,3.4450051763671876,68.34343696484375C3.4450051763671876,68.34343696484375,3.4450051763671876,68.34343696484375,3.4450051763671876,68.34343696484375C3.4450051763671876,68.34343696484375,3.4450051763671876,68.34343696484375,3.4450051763671876,68.34343696484375Z" fill="#003A81" fill-opacity="1"/><path d="M52.144873146875,26.4931640625C52.144873146875,26.4931640625,46.994873046875,41.3431640625,46.994873046875,41.3431640625C46.994873046875,41.3431640625,61.844873046875,46.4931640625,61.844873046875,46.4931640625C61.844873046875,46.4931640625,66.994873046875,31.6431641625,66.994873046875,31.6431641625C66.994873046875,31.6431641625,52.144873146875,26.4931640625,52.144873146875,26.4931640625C52.144873146875,26.4931640625,52.144873146875,26.4931640625,52.144873146875,26.4931640625Z" fill="#EF7D27" fill-opacity="1"/></svg>