<svg xmlns="http://www.w3.org/2000/svg" xmlns:xlink="http://www.w3.org/1999/xlink" fill="none" version="1.1" width="72.357666015625" height="88.2386474609375" viewBox="0 0 72.357666015625 88.2386474609375"><path d="M20.55442824609375,85.247886765625C20.55442824609375,85.247886765625,22.03392824609375,75.534782765625,22.03392824609375,75.534782765625C22.03392824609375,75.534782765625,18.73812724609375,75.455383765625,18.73812724609375,75.455383765625C18.73812724609375,75.455383765625,3.00042724609375,75.455383765625,3.00042724609375,75.455383765625C3.00042724609375,75.455383765625,13.93762724609375,3.778211775625,13.93762724609375,3.778211775625C13.97162724609375,3.561164735625,14.08182724609375,3.359678775625,14.24272724609375,3.216345775625C14.40432724609375,3.073013163625,14.61032724609375,2.994384765625,14.82592724609375,2.994384765625C14.82592724609375,2.994384765625,41.36212524609375,2.994384765625,41.36212524609375,2.994384765625C50.17242824609375,2.994384765625,56.25192624609375,4.888834665625,59.42562824609375,8.628594865625C60.91382624609375,10.382994665624999,61.86162524609375,12.216835065625,62.32042724609375,14.234184765625C62.80142624609375,16.351384765625,62.80932624609375,18.880584765625002,62.34022924609375,21.965984765625C62.34022924609375,21.965984765625,62.30612524609375,22.190383765625,62.30612524609375,22.190383765625C62.30612524609375,22.190383765625,62.30612524609375,24.167484765625,62.30612524609375,24.167484765625C62.30612524609375,24.167484765625,63.79432724609375,25.038984765625,63.79432724609375,25.038984765625C65.04712724609375,25.726184765625,66.04322824609375,26.512485765625,66.80712924609375,27.412584765625C68.07982624609375,28.913083765625,68.90312924609376,30.819783765625,69.25103024609375,33.079583765625C69.61082424609376,35.403983765625,69.49192824609375,38.170783765625,68.90312924609376,41.302783765625C68.22402924609375,44.904983765625,67.12652624609375,48.042686765625,65.64382524609374,50.609584765625C64.28092624609374,52.974982765625,62.54382724609375,54.937484765625,60.48112824609375,56.457584765625C58.51192824609375,57.902385765625,56.17272524609375,58.999084765625,53.52752724609375,59.700984765625C50.96402724609375,60.390685765625,48.04152724609375,60.738784765625,44.83612824609375,60.738784765625C44.83612824609375,60.738784765625,42.77102624609375,60.738784765625,42.77102624609375,60.738784765625C41.29472724609375,60.738784765625,39.86042824609375,61.288284765625,38.73442824609375,62.273586765625C37.60522824609375,63.279384765625,36.85872624609375,64.653785765625,36.62972624609375,66.156684765625C36.62972624609375,66.156684765625,36.47362924609375,67.031486765625,36.47362924609375,67.031486765625C36.47362924609375,67.031486765625,33.85932724609375,84.151984765625,33.85932724609375,84.151984765625C33.85932724609375,84.151984765625,33.741327246093746,84.780181765625,33.741327246093746,84.780181765625C33.709627246093746,84.979186765625,33.65572724609375,85.078284765625,33.57642724609375,85.145484765625C33.505928246093745,85.206886765625,33.40452724609375,85.247886765625,33.30542724609375,85.247886765625C33.30542724609375,85.247886765625,20.55442824609375,85.247886765625,20.55442824609375,85.247886765625Z" fill-rule="evenodd" fill="#28356A" fill-opacity="1"/><path d="M65.2044335703125,22.4185791015625C65.1260335703125,22.9419491315625,65.03483557031251,23.4767891015625,64.9334335703125,24.0263691015625C61.4340365703125,42.5973801015625,49.4611335703125,49.0129791015625,34.1703335703125,49.0129791015625C34.1703335703125,49.0129791015625,26.3846940703125,49.0129791015625,26.3846940703125,49.0129791015625C24.5145544703125,49.0129791015625,22.9384045703125,50.4159791015625,22.6475744703125,52.3227791015625C22.6475744703125,52.3227791015625,17.5324181283125,85.8585781015625,17.5324181283125,85.8585781015625C17.3430265303125,87.1108781015625,18.2765135203125,88.2386781015625,19.4984445703125,88.2386781015625C19.4984445703125,88.2386781015625,33.3074345703125,88.2386781015625,33.3074345703125,88.2386781015625C34.942233570312496,88.2386781015625,36.3313345703125,87.0109791015625,36.5888345703125,85.34417710156251C36.5888345703125,85.34417710156251,36.7243345703125,84.61938110156251,36.7243345703125,84.61938110156251C36.7243345703125,84.61938110156251,39.3243355703125,67.5659791015625,39.3243355703125,67.5659791015625C39.3243355703125,67.5659791015625,39.4915355703125,66.63068010156249,39.4915355703125,66.63068010156249C39.7459355703125,64.95817910156251,41.1382355703125,63.7295801015625,42.773034570312504,63.7295801015625C42.773034570312504,63.7295801015625,44.838134570312505,63.7295801015625,44.838134570312505,63.7295801015625C58.2167355703125,63.7295801015625,68.6903345703125,58.1158791015625,71.7515335703125,41.869280101562495C73.02973557031251,35.0826791015625,72.3680345703125,29.415679001562502,68.9843325703125,25.4302092015625C67.96053357031249,24.2286690015625,66.6902355703125,23.2310721315625,65.2044335703125,22.4185791015625Z" fill-rule="evenodd" fill="#298FC2" fill-opacity="1"/><path d="M61.54216784765625,20.910128476562498C61.00726684765625,20.7487684765625,60.45576884765625,20.6029834765625,59.88996884765625,20.4711164865625C59.32096884765625,20.3425264965625,58.73856784765625,20.2286794765625,58.13866784765625,20.1287564665625C56.03947084765625,19.7782044665625,53.73906884765625,19.6119384765625,51.27536984765625,19.6119384765625C51.27536984765625,19.6119384765625,30.47639894765625,19.6119384765625,30.47639894765625,19.6119384765625C29.96368884765625,19.6119384765625,29.47713894765625,19.7315194765625,29.04208894765625,19.9477474665625C28.08245894765625,20.4244315065625,27.370059047656248,21.3630584765625,27.19730904765625,22.5121783765625C27.19730904765625,22.5121783765625,22.77235784765625,51.4785384765625,22.77235784765625,51.4785384765625C22.77235784765625,51.4785384765625,22.64556884765625,52.3229374765625,22.64556884765625,52.3229374765625C22.93639185765625,50.4162384765625,24.51253874765625,49.0132384765625,26.38268874765625,49.0132384765625C26.38268874765625,49.0132384765625,34.168368847656254,49.0132384765625,34.168368847656254,49.0132384765625C49.45916984765625,49.0132384765625,61.43196884765625,42.594339476562496,64.93136984765624,24.0265884765625C65.03596884765625,23.4770085765625,65.12396984765624,22.9421784765625,65.20246884765625,22.4188084765625C64.31726884765625,21.9331085765625,63.35846684765625,21.517858476562502,62.32587084765625,21.1640284765625C62.07076984765625,21.0763884765625,61.80767084765625,20.9920284765625,61.54216784765625,20.910128476562498Z" fill-rule="evenodd" fill="#22284F" fill-opacity="1"/><path d="M27.1985,22.5123C27.371201,21.363199,28.083599,20.4245,29.0432,19.951099C29.481501,19.7341,29.9648,19.6145,30.477499,19.6145C30.477499,19.6145,51.276501,19.6145,51.276501,19.6145C53.7402,19.6145,56.040699,19.781601,58.139801,20.132099C58.7397,20.231199,59.322102,20.3459,59.891098,20.474501C60.456902,20.605499,61.0084,20.7521,61.543301,20.912701C61.8088,20.9946,62.071899,21.0798,62.329399,21.164101C63.3619,21.518,64.321602,21.936501,65.206703,22.4189C66.248001,15.5561,65.197998,10.8835,61.608299,6.6522899C57.650101,1.99356,50.507099,0,41.366402,0C41.366402,0,14.8294,0,14.8294,0C12.962399,0,11.3696,1.40302,11.0811,3.31304C11.0811,3.31304,0.028286798,75.727303,0.028286798,75.727303C-0.1896321,77.159798,0.8793599,78.452301,2.27721,78.452301C2.27721,78.452301,18.66,78.452301,18.66,78.452301C18.66,78.452301,27.1985,22.5123,27.1985,22.5123Z" fill-rule="evenodd" fill="#28356A" fill-opacity="1"/></svg>