<svg xmlns="http://www.w3.org/2000/svg" xmlns:xlink="http://www.w3.org/1999/xlink" fill="none" version="1.1" width="85" height="72.5" viewBox="0 0 85 72.5"><path d="M51.376999,49.028999C59.336498,64.917503,79.116997,62.308998,83.535004,48.777C83.535004,48.777,84.8825,45.679001,85,40.009499C85,40.009499,85,12.2915,85,12.2915C85,12.2915,72.066498,0,72.066498,0C72.066498,0,72.066498,33.8405,72.066498,33.8405C72.066498,33.8405,70.655502,50.017502,51.3815,49.028999C51.3815,49.028999,51.376999,49.028999,51.376999,49.028999C51.376999,49.028999,51.376999,49.028999,51.376999,49.028999ZM36.621498,30.2665C36.286499,9.6234999,62.461498,8.2510004,69.583504,23.091499C69.583504,23.091499,51.024502,23.3475,49.070999,38.906502C49.070999,38.906502,49.310501,58.098999,34.6675,60.0755C34.6675,60.0755,18.803499,62.867001,14.6475,49.276001C14.6475,49.276001,35.897499,52.241001,36.620998,30.2665C36.620998,30.2665,36.621498,30.2665,36.621498,30.2665C36.621498,30.2665,36.621498,30.2665,36.621498,30.2665ZM1.1035,23.5305C1.1035,23.5305,0,28.2355,0,32.490501C0,32.490501,0,60.203999,0,60.203999C0,60.203999,12.9425,72.5,12.9425,72.5C12.9425,72.5,12.9475,38.6595,12.9475,38.6595C12.9475,38.6595,14.34,22.478001,33.636501,23.466499C25.667999,7.5735002,5.5215001,10.0035,1.1035,23.5305C1.1035,23.5305,1.1035,23.5305,1.1035,23.5305C1.1035,23.5305,1.1035,23.5305,1.1035,23.5305Z" fill="#012882" fill-opacity="1"/></svg>