<svg xmlns="http://www.w3.org/2000/svg" xmlns:xlink="http://www.w3.org/1999/xlink" fill="none" version="1.1" width="88" height="84.834228515625" viewBox="0 0 88 84.834228515625"><defs><linearGradient x1="0.08294931054115295" y1="0.500012218952179" x2="1.235023021697998" y2="0.500012218952179" id="master_svg0_0_3484"><stop offset="0%" stop-color="#0097E0" stop-opacity="1"/><stop offset="40.00000059604645%" stop-color="#0075C2" stop-opacity="1"/><stop offset="87.99999952316284%" stop-color="#003786" stop-opacity="1"/><stop offset="100%" stop-color="#003786" stop-opacity="1"/></linearGradient><linearGradient x1="0.08478513360023499" y1="0.49957141280174255" x2="1.246225357055664" y2="0.49957141280174255" id="master_svg1_0_3487"><stop offset="0%" stop-color="#0081CC" stop-opacity="1"/><stop offset="60.00000238418579%" stop-color="#093190" stop-opacity="1"/><stop offset="100%" stop-color="#0E3776" stop-opacity="1"/></linearGradient></defs><path d="M104.05489137060547,-4.325449772210738e-24C105.13029337060547,-4.325449772210738e-24,106.12899237060547,0.768179,106.35939237060546,1.92044C110.73799337060547,17.8985,112.27439337060547,34.414299,111.50619337060547,51.006901C111.50619337060547,51.006901,152.75719437060548,51.006901,152.75719437060548,51.006901C153.06449137060548,56.7682,153.75589037060547,62.452702,154.67768837060547,67.983597C154.67768837060547,67.983597,140.38959137060547,67.983597,140.38959137060547,67.983597C140.23599237060546,73.053596,140.69689137060547,80.197601,141.61869037060546,83.577599C141.69549137060545,84.038498,141.38819137060545,84.499397,140.92729137060547,84.499397C140.92729137060547,84.499397,123.02879337060547,84.499397,123.02879337060547,84.499397C122.49109237060547,84.499397,122.18379237060546,84.038498,122.33749437060547,83.577599C123.25929237060546,80.197601,123.72019237060547,73.053596,123.56659337060546,67.983597C123.56659337060546,67.983597,91.53360247060547,67.983597,91.53360247060547,67.983597C95.22084237060547,45.8601,94.06858257060547,22.891701,88.07680957060546,1.3059C87.99999195029648,1.22908,87.99999237060547,1.0754499,87.99999237060547,0.99862999C87.99999237060547,0.46090701,88.46089736060547,-4.325449772210738e-24,88.99862134060547,-4.325449772210738e-24C88.99862134060547,-4.325449772210738e-24,104.05489137060547,-4.325449772210738e-24,104.05489137060547,-4.325449772210738e-24C104.05489137060547,-4.325449772210738e-24,104.05489137060547,-4.325449772210738e-24,104.05489137060547,-4.325449772210738e-24Z" fill="url(#master_svg0_0_3484)" fill-opacity="1" transform="matrix(-1,8.59402149444577e-8,8.594015810103883e-8,1,175.99998474121094,-0.000007562738259440471)"/><path d="M35.0378,169.61823995654296C34.498798,169.61823995654296,34.1908,169.079246956543,34.344799,168.61714195654298C35.268902,165.22884395654296,35.7309,157.83624295654297,35.499901,152.75384495654296C35.499901,152.75384495654296,3.4652801,152.75384495654296,3.4652801,152.75384495654296C7.2385898,130.65304195654298,6.0834899,107.70524195654298,0,86.06644295654297C0,85.98944295654297,0,85.91243295654297,0,85.75841992654297C0,85.21937596654297,0.46203801,84.83434295654297,1.00108,84.83434295654297C1.00108,84.83434295654297,16.0173,84.83434295654297,16.0173,84.83434295654297C17.0954,84.83434295654297,18.0965,85.60440498654297,18.327499,86.68249295654297C22.716801,102.69984195654297,24.257,119.25614195654296,23.4869,135.81244295654295C23.4869,135.81244295654295,64.377197,135.81244295654295,64.377197,135.81244295654295C64.685303,141.58794395654297,65.378304,147.20944195654297,66.302399,152.75384495654296C66.302399,152.75384495654296,52.3643,152.75384495654296,52.3643,152.75384495654296C52.210201,157.83624295654297,52.672298,165.22884395654296,53.596401,168.61714195654298C53.673401,169.079246956543,53.365299,169.61823995654296,52.903301,169.61823995654296C52.903301,169.61823995654296,35.0378,169.61823995654296,35.0378,169.61823995654296C35.0378,169.61823995654296,35.0378,169.61823995654296,35.0378,169.61823995654296Z" fill="url(#master_svg1_0_3487)" fill-opacity="1" transform="matrix(1,0,0,-1,0,169.66868591308594)"/><path d="M18.3277,1.89878C18.0888,0.80478299,17.120501,0,16.007601,0C16.007601,0,1.00598,0,1.00598,0C0.44954601,0.0094310502,0,0.45269001,0,1.00283C0,1.10343,0.028292499,1.2008899,0.0502983,1.29834C1.48382,6.4005399,2.6281199,11.5813,3.5052099,16.812401C3.5052099,16.812401,21.594,16.812401,21.594,16.812401C20.7577,11.8045,19.6763,6.8280802,18.3277,1.89878C18.3277,1.89878,18.3277,1.89878,18.3277,1.89878Z" fill-rule="evenodd" fill="#00A1E9" fill-opacity="1"/><path d="M69.41840911865235,82.66091257324219C69.65103911865235,83.75491357324219,70.64129921865235,84.54711357324219,71.73214911865234,84.54711357324219C71.73214911865234,84.54711357324219,86.75260911865234,84.54711357324219,86.75260911865234,84.54711357324219C87.29960811865234,84.54711357324219,87.72090911865234,84.09131257324219,87.72090911865234,83.55051257324219C87.72090911865234,83.44051257324219,87.72090911865234,83.34931257324219,87.69570911865235,83.25821257324219C87.69570911865235,83.25821257324219,87.69570911865235,83.25191257324218,87.69570911865235,83.25191257324218C86.27170911865234,78.14971257324218,85.11160811865234,72.96894267324218,84.25340811865235,67.74101257324219C84.25340811865235,67.74101257324219,66.15840911865234,67.74101257324219,66.15840911865234,67.74101257324219C66.98834013865235,72.74574277324218,68.06347901865234,77.72532277324218,69.41840911865235,82.66091257324219C69.41840911865235,82.66091257324219,69.41840911865235,82.66091257324219,69.41840911865235,82.66091257324219Z" fill-rule="evenodd" fill="#004098" fill-opacity="1"/></svg>