<svg xmlns="http://www.w3.org/2000/svg" xmlns:xlink="http://www.w3.org/1999/xlink" fill="none" version="1.1" width="84.17120361328125" height="82.52760314941406" viewBox="0 0 84.17120361328125 82.52760314941406"><path d="M61.360298,63.053699C50.154099,62.3564,41.338501,53.042801,41.338501,41.687199C41.338501,29.883301,50.951,20.2708,62.754902,20.2708C74.5588,20.2708,84.171204,29.883301,84.171204,41.687199C84.171204,53.491001,74.5588,63.1035,62.754902,63.1035C62.754902,63.1035,62.754902,82.527603,62.754902,82.527603C62.754902,82.527603,41.338501,82.527603,41.338501,82.527603C18.527599,82.527603,1.8605787e-30,64,1.8605787e-30,41.189098C-7.1054299e-15,18.427999,18.427999,0,41.189098,0C41.189098,0,41.338501,0,41.338501,0C41.338501,0,62.754902,0.099611297,62.754902,0.099611297C62.754902,0.099611297,62.754902,20.221001,62.754902,20.221001C62.754902,20.221001,40.8405,20.221001,40.8405,20.221001C29.0366,20.221001,19.424101,29.8335,19.424101,41.637402C19.424101,53.4412,29.0366,63.053699,40.8405,63.053699C40.8405,63.053699,61.360298,63.053699,61.360298,63.053699C61.360298,63.053699,61.360298,63.053699,61.360298,63.053699C61.360298,63.053699,61.360298,63.053699,61.360298,63.053699ZM54.985199,33.867699C54.985199,33.867699,54.985199,49.456799,54.985199,49.456799C54.985199,49.456799,70.574303,49.456799,70.574303,49.456799C70.574303,49.456799,70.574303,33.867699,70.574303,33.867699C70.574303,33.867699,54.985199,33.867699,54.985199,33.867699C54.985199,33.867699,54.985199,33.867699,54.985199,33.867699Z" fill="#007A55" fill-opacity="1"/></svg>