<svg xmlns="http://www.w3.org/2000/svg" xmlns:xlink="http://www.w3.org/1999/xlink" fill="none" version="1.1" width="84.97301483154297" height="85.05770111083984" viewBox="0 0 84.97301483154297 85.05770111083984"><path d="M51.574799,55.257702C51.574799,55.257702,54.9748,51.8577,54.9748,51.8577C55.924801,50.9077,57.4748,50.9077,58.374802,51.8577C58.374802,51.8577,61.774799,55.257702,61.774799,55.257702C62.7248,56.207703,62.7248,57.757702,61.774799,58.6577C61.774799,58.6577,58.374802,62.057701,58.374802,62.057701C57.424801,63.007702,55.874802,63.007702,54.9748,62.057701C54.9748,62.057701,51.574799,58.6577,51.574799,58.6577C50.624802,57.757702,50.624802,56.207703,51.574799,55.257702C51.574799,55.257702,51.574799,55.257702,51.574799,55.257702ZM33.574799,29.8577C33.574799,29.8577,30.174801,33.257702,30.174801,33.257702C29.2248,34.207703,27.674801,34.207703,26.774799,33.257702C26.774799,33.257702,23.3748,29.8577,23.3748,29.8577C22.424801,28.907701,22.424801,27.3577,23.3748,26.457701C23.3748,26.457701,26.774799,23.057701,26.774799,23.057701C27.7248,22.1077,29.274799,22.1077,30.174801,23.057701C30.174801,23.057701,33.574799,26.457701,33.574799,26.457701C34.524799,27.3577,34.524799,28.907701,33.574799,29.8577C33.574799,29.8577,33.574799,29.8577,33.574799,29.8577ZM72.024803,22.3577C67.624802,19.407701,63.074799,18.707701,59.624802,18.757702C52.374802,18.807701,45.874802,21.707701,40.624802,25.3577C39.424801,19.707701,34.424801,15.507701,28.424801,15.457701C21.524799,15.457701,15.9248,21.007702,15.8748,27.907701C15.8748,34.807701,21.424801,40.4077,28.3248,40.457703C30.524799,40.457703,32.624802,39.9077,34.424801,38.8577C41.7248,35.4077,46.374802,26.1077,59.374802,25.6077C64.9748,25.407701,69.9748,27.807701,72.124802,29.457701C76.024803,32.4077,81.024803,36.6577,84.924797,44.4077C85.074799,41.3577,84.874802,38.257702,84.324799,35.1077C80.274803,12.057701,58.174801,-3.4422591,35.074799,0.65773904C18.274799,3.6077411,5.5247703,16.1077,1.37477,31.6077C2.32477,33.6077,3.4747701,35.807701,4.82477,38.057701C8.8747702,45.4077,15.3748,52.507702,25.5748,52.8577C33.374802,53.1077,38.874802,49.057701,44.2248,45.1077C49.4748,41.257702,54.424801,37.557701,61.374802,38.307701C69.524803,39.1577,74.174797,46.9077,76.674797,55.3577C72.274803,67.057701,61.9748,76.207703,48.774799,78.507698C33.574799,81.207703,18.8248,74.007698,11.2248,61.557701C12.2248,62.257702,12.8748,62.6577,12.9748,62.707703C17.3748,65.6577,21.924801,66.357704,25.3748,66.307701C32.624802,66.257698,39.124802,63.3577,44.374802,59.707703C45.574799,65.357704,50.574799,69.557701,56.574799,69.607704C63.4748,69.607704,69.074799,64.057701,69.124802,57.1577C69.124802,50.257702,63.574799,44.6577,56.674801,44.6077C54.4748,44.6077,52.374802,45.1577,50.574799,46.207703C43.274799,49.6577,38.624802,58.957703,25.6248,59.457703C20.024799,59.6577,15.1248,57.1077,12.8748,55.6077C9.6747704,53.457703,4.7247701,49.557701,0.024773225,41.207703C-0.075226776,44.057701,0.12477303,47.007702,0.67477304,49.9077C4.3747702,70.507698,22.3248,85.057701,42.574799,85.057701C45.024799,85.057701,47.4748,84.857704,49.9748,84.4077C65.9748,81.607704,78.274803,70.107704,83.024803,55.6577C82.624802,53.257702,80.424797,47.957703,80.074799,47.1577C75.9748,38.307701,69.774803,33.257702,62.174801,32.457703C52.924801,31.507702,46.524799,36.207703,40.874802,40.3577C35.924801,44.007702,31.674801,47.1577,25.924801,46.957703C16.524799,46.6577,11.0248,37.957703,8.0247698,30.6077C12.2248,18.457701,22.7248,8.9077406,36.2248,6.507741C38.374802,6.1077409,40.4748,5.9577413,42.574799,5.9577413C55.4748,5.9577413,67.274803,12.807701,73.824799,23.557701C72.824799,22.8577,72.124802,22.407701,72.024803,22.3577C72.024803,22.3577,72.024803,22.3577,72.024803,22.3577C72.024803,22.3577,72.024803,22.3577,72.024803,22.3577Z" fill="#E50113" fill-opacity="1"/></svg>