<svg xmlns="http://www.w3.org/2000/svg" xmlns:xlink="http://www.w3.org/1999/xlink" fill="none" version="1.1" width="97.5" height="53" viewBox="0 0 97.5 53"><path d="M32.55002544882812,25.049999C32.55002544882812,18.1,37.050025048828125,11.9,43.75002504882812,9.75C50.45002604882812,7.5999999,57.75002504882812,9.8500004,61.950024048828126,15.45C61.950024048828126,15.45,55.80002604882813,20,55.80002604882813,20C53.60002504882813,17.049999,49.75002504882812,15.8,46.20002604882812,16.950001C42.70002604882812,18.1,40.300025048828125,21.35,40.300025048828125,25C40.300025048828125,28.75,42.75002504882812,32.099998,46.40002404882813,33.150002C50.05002604882813,34.25,53.95002604882812,32.849998,56.05002604882813,29.700001C56.05002604882813,29.700001,62.25002704882812,34.299999,62.25002704882812,34.299999C58.15002404882813,40.049999,50.75002504882812,42.5,44.00002504882812,40.349998C37.250026048828126,38.200001,32.600025148828124,32.099998,32.55002544882812,25.049999C32.55002544882812,25.049999,32.55002544882812,25.049999,32.55002544882812,25.049999ZM29.100025148828124,11.3C28.600025148828124,11.85,27.750025248828123,11.95,27.150029298828127,11.5C26.550029288828124,11.1,26.350028097828126,10.3,26.750028278828125,9.6499996C32.200025048828124,3.55,40.250026048828126,0,48.75002504882812,0C57.25002504882812,0,65.30002604882813,3.55,70.80002604882813,9.6499996C71.20002404882813,10.25,71.00002704882812,11.05,70.40002404882813,11.5C69.80002604882813,11.9,68.95002404882813,11.85,68.45002404882813,11.3C63.50002704882812,5.9000001,56.30002604882813,2.75,48.80002604882813,2.75C41.20002604882812,2.8,34.00002524882812,5.9000001,29.100025148828124,11.3C29.100025148828124,11.3,29.100025148828124,11.3,29.100025148828124,11.3C29.100025148828124,11.3,29.100025148828124,11.3,29.100025148828124,11.3ZM68.40002404882813,41.700001C68.90002404882813,41.150002,69.75002704882812,41.049999,70.35002504882812,41.5C70.95002404882813,41.900002,71.15002404882813,42.700001,70.75002704882812,43.349998C65.25002704882812,49.5,57.20002604882812,53,48.70002604882812,53C40.20002604882812,53,32.15002534882812,49.450001,26.650029298828127,43.349998C26.250029298828125,42.75,26.450027295428125,41.900002,27.050027308828124,41.5C27.650025248828126,41.099998,28.500025248828123,41.150002,29.000025248828123,41.700001C33.950025048828124,47.099998,41.15002504882813,50.25,48.65002404882813,50.25C56.30002604882813,50.200001,63.50002704882812,47.099998,68.40002404882813,41.700001C68.40002404882813,41.700001,68.40002404882813,41.700001,68.40002404882813,41.700001C68.40002404882813,41.700001,68.40002404882813,41.700001,68.40002404882813,41.700001Z" fill="#D80C18" fill-opacity="1"/><path d="M26.6,32.25C26.6,32.25,26.6,32.15,26.6,32.15C26.6,27.85,24.35,25.700001,20.700001,24.3C23.25,23,24.85,20.3,24.799999,17.3999996C24.799999,17.3999996,24.799999,17.3000002,24.799999,17.3000002C24.799999,12.25,20.85,9,14.5,9C14.5,9,0,9,0,9C0,9,0,41,0,41C0,41,14.9,41,14.9,41C21.950001,41,26.6,38.1,26.6,32.25C26.6,32.25,26.6,32.25,26.6,32.25C26.6,32.25,26.6,32.25,26.6,32.25ZM18,18.5500002C18,20.95,16.1,21.95,13.05,21.95C13.05,21.95,6.6999998,21.95,6.6999998,21.95C6.6999998,21.95,6.6999998,15.1500001,6.6999998,15.1500001C6.6999998,15.1500001,13.5,15.1500001,13.5,15.1500001C16.450001,15.1500001,18,16.3499999,18,18.4499998C18,18.4499998,18,18.5500002,18,18.5500002C18,18.5500002,18,18.5500002,18,18.5500002ZM19.75,31.299999C19.75,33.700001,17.9,34.799999,14.9,34.799999C14.9,34.799999,6.6999998,34.799999,6.6999998,34.799999C6.6999998,34.799999,6.6999998,27.799999,6.6999998,27.799999C6.6999998,27.799999,14.7,27.799999,14.7,27.799999C18.200001,27.799999,19.799999,29.1,19.75,31.299999C19.75,31.299999,19.75,31.299999,19.75,31.299999ZM97.5,31.4C97.5,31.4,97.5,31.299999,97.5,31.299999C97.5,25.85,93.650002,23.6,86.849998,21.95C81.050003,20.55,79.599998,19.9,79.599998,17.8500004C79.599998,17.8500004,79.599998,17.75,79.599998,17.75C79.599998,16.3000002,81.099998,15.0500002,83.949997,15.0500002C87.150002,15.1999998,90.199997,16.3000002,92.800003,18.1499996C92.800003,18.1499996,96.650002,13,96.650002,13C93.050003,10.35,88.650002,8.949999198,84.150002,9.0499992C77.199997,9.0499992,72.25,12.8,72.25,18.4499998C72.25,18.4499998,72.25,18.5,72.25,18.5C72.25,24.7,76.650002,26.4,83.400002,28.049999C89.050003,29.4,90.199997,30.299999,90.199997,32C90.199997,32,90.199997,32.1,90.199997,32.1C90.199997,33.950001,88.349998,35.049999,85.349998,35.049999C81.650002,34.950001,78.150002,33.6,75.349998,31.200001C75.349998,31.200001,70.949997,36.049999,70.949997,36.049999C74.849998,39.25,79.949997,41.049999,85.199997,41.049999C92.449997,41.049999,97.5,37.6,97.5,31.4C97.5,31.4,97.5,31.4,97.5,31.4C97.5,31.4,97.5,31.4,97.5,31.4Z" fill="#9FA0A0" fill-opacity="1"/></svg>