<svg xmlns="http://www.w3.org/2000/svg" xmlns:xlink="http://www.w3.org/1999/xlink" fill="none" version="1.1" width="58.5" height="84" viewBox="0 0 58.5 84"><path d="M39.019001,18.870501C39.019001,18.870501,39.019001,27.735001,39.019001,27.735001C39.019001,29.0065,39.553001,30.158001,40.41,30.9935C40.41,30.9935,46.5965,36.966,46.5965,36.966C47.0065,37.361,47.0065,38.008499,46.5965,38.4035C46.5965,38.4035,40.420502,44.368999,40.420502,44.368999C39.5555,45.206501,39.019001,46.3615,39.019001,47.637501C39.019001,47.637501,39.019001,56.4995,39.019001,56.4995C49.778,56.4995,58.5,48.076,58.5,37.684502C58.5,27.295,49.778,18.871,39.019001,18.871C39.019001,18.871,39.019001,18.870501,39.019001,18.870501C39.019001,18.870501,39.019001,18.870501,39.019001,18.870501ZM45.941502,17.459999C46.806499,18.296499,48.002499,18.813999,49.3255,18.813999C49.3255,18.813999,58.5,18.813999,58.5,18.813999C58.5,8.4230003,49.778,0,39.019001,0C28.2605,0,19.540001,8.4230003,19.540001,18.813999C19.540001,18.813999,28.7155,18.813999,28.7155,18.813999C29.9725,18.8193,31.182699,18.3374,32.091999,17.4695C32.091999,17.4695,38.275002,11.495,38.275002,11.495C38.685001,11.1,39.355,11.1,39.764999,11.495C39.764999,11.495,45.941002,17.459999,45.941002,17.459999C45.941002,17.459999,45.941502,17.459999,45.941502,17.459999C45.941502,17.459999,45.941502,17.459999,45.941502,17.459999ZM26.409,39.029999C26.409,39.029999,20.223,45.003502,20.223,45.003502C19.8155,45.398499,19.1455,45.398499,18.7355,45.003502C18.7355,45.003502,12.56,39.039501,12.56,39.039501C11.6496,38.165798,10.4353,37.680099,9.1735001,37.685001C9.1735001,37.685001,0,37.685001,0,37.685001C0,48.0755,8.7200003,56.5,19.4795,56.5C30.238001,56.5,38.9585,48.0755,38.9585,37.685001C38.9585,37.685001,29.783001,37.685001,29.783001,37.685001C28.5266,37.679699,27.3172,38.1619,26.409,39.029999C26.409,39.029999,26.409,39.029999,26.409,39.029999C26.409,39.029999,26.409,39.029999,26.409,39.029999ZM19.479,37.628502C19.479,37.628502,19.479,28.765499,19.479,28.765499C19.479,27.493999,18.948,26.341,18.087999,25.506001C18.087999,25.506001,11.902,19.534,11.902,19.534C11.8048,19.441099,11.7275,19.3295,11.6746,19.2059C11.6218,19.082199,11.5945,18.9492,11.5945,18.8148C11.5945,18.6803,11.6218,18.5473,11.6746,18.423599C11.7275,18.299999,11.8048,18.1884,11.902,18.095501C11.902,18.095501,18.077999,12.1305,18.077999,12.1305C18.945499,11.2945,19.4795,10.138,19.4795,8.8625002C19.4795,8.8625002,19.4795,0,19.4795,0C8.7229996,0,0,8.4235001,0,18.815001C0,29.205,8.7229996,37.628502,19.4795,37.628502C19.4795,37.628502,19.479,37.628502,19.479,37.628502C19.479,37.628502,19.479,37.628502,19.479,37.628502Z" fill="#4ABDD2" fill-opacity="1"/><path d="M31.027,34C32.6630001,34,34,32.6634998,34,31.0275002C34,31.0275002,34,26.4719999,34,26.4719999C34,24.837,32.6630001,23.5,31.027,23.5C31.027,23.5,26.473,23.5,26.473,23.5C24.837,23.5,23.5,24.837,23.5,26.4719999C23.5,26.4719999,23.5,31.027,23.5,31.027C23.5,32.6634998,24.837,34,26.473,34C26.473,34,31.027,34,31.027,34C31.027,34,31.027,34,31.027,34Z" fill="#FBCF00" fill-opacity="1"/><path d="M18.5,64.5C18.5,64.5,0,64.5,0,64.5C0,64.5,0,66.638,0,66.638C0,66.638,6.7775002,66.638,6.7775002,66.638C6.7775002,66.638,6.7775002,82.968,6.7775002,82.968C6.7775002,83.538,7.2645001,84,7.8660002,84C7.8660002,84,10.634,84,10.634,84C11.233,84,11.72,83.538,11.72,82.967501C11.72,82.967501,11.72,66.638,11.72,66.638C11.72,66.638,18.5,66.638,18.5,66.638C18.5,66.638,18.5,64.5,18.5,64.5C18.5,64.5,18.5,64.5,18.5,64.5ZM36.615002,67.661C36.865501,67.32581,37.000599,66.9184501,37,66.5C37,65.3955,36.075001,64.5,34.934502,64.5C34.934502,64.5,21.219999,64.5,21.219999,64.5C21.219999,64.5,21.219999,66.6385,21.219999,66.6385C21.219999,66.6385,31.851999,66.6385,31.851999,66.6385C31.851999,66.6385,19.7985,81.41850099999999,19.7985,81.41850099999999C19.597,81.68849900000001,19.5,82.019501,19.5,82.379499C19.5,83.28450000000001,20.2335,83.9965,21.165501,84C21.165501,84,36.917999,84,36.917999,84C36.917999,84,36.917999,81.861,36.917999,81.861C36.917999,81.861,25.046,81.861,25.046,81.861C25.046,81.861,36.614498,67.661,36.614498,67.661C36.614498,67.661,36.615002,67.661,36.615002,67.661C36.615002,67.661,36.615002,67.661,36.615002,67.661ZM52.333,78.7175C52.333,80.84649999999999,50.391499,82.261,48.533001,82.261C48.533001,82.261,44.645,82.261,44.645,82.261C43.945999,82.240999,43.387501,81.6945,43.380001,81.019501C43.380001,81.019501,43.380001,75.0515,43.380001,75.0515C43.380001,75.0515,48.470001,75.0515,48.470001,75.0515C50.296501,75.0515,52.333,76.29599999999999,52.333,78.7175C52.333,78.7175,52.333,78.7175,52.333,78.7175C52.333,78.7175,52.333,78.7175,52.333,78.7175ZM44.637501,66.237C44.637501,66.237,48.032001,66.237,48.032001,66.237C49.928001,66.237,51.646999,67.4944999,51.646999,69.4000001C51.646999,71.763,49.768002,72.8730001,47.964001,72.8730001C47.964001,72.8730001,43.380001,72.8730001,43.380001,72.8730001C43.380001,72.8730001,43.380001,67.4660001,43.380001,67.4660001C43.392502,66.7985001,43.945999,66.261,44.637501,66.237C44.637501,66.237,44.637501,66.237,44.637501,66.237C44.637501,66.237,44.637501,66.237,44.637501,66.237ZM53.613998,73.7574997C55.449501,72.9049997,56.312,71.1069999,56.312,69.2104998C56.312,67.3195,54.759998,64.5,50.249001,64.5C50.249001,64.5,40.143501,64.5,40.143501,64.5C39.234001,64.5,38.5,65.14200199,38.5,65.9345C38.5,65.9345,38.5,82.40299999999999,38.5,82.40299999999999C38.5,83.302999,39.234001,84,40.143501,84C40.143501,84,50.9375,84,50.9375,84C55.447498,84,57,80.797501,57,78.6825C57,76.2745,55.926498,74.619,53.613998,73.7574997C53.613998,73.7574997,53.613998,73.7574997,53.613998,73.7574997Z" fill="#4ABDD2" fill-opacity="1"/></svg>