<svg xmlns="http://www.w3.org/2000/svg" xmlns:xlink="http://www.w3.org/1999/xlink" fill="none" version="1.1" width="84" height="84" viewBox="0 0 84 84"><path d="M0,42C0,18.799999,18.799999,0,42,0C65.199997,0,84,18.799999,84,42C84,65.199997,65.199997,84,42,84C18.799999,84,0,65.199997,0,42C0,42,0,42,0,42ZM72.849998,38.599998C72.849998,38.599998,51.200001,38.599998,51.200001,38.599998C51.200001,38.599998,42.349998,29.75,42.349998,29.75C42.349998,29.75,30.9,41.200001,30.9,41.200001C30.9,41.200001,42.349998,52.650002,42.349998,52.650002C42.349998,52.650002,51.200001,43.799999,51.200001,43.799999C51.200001,43.799999,65.199997,43.799999,65.199997,43.799999C64.199997,55.549999,54.299999,64.75,42.25,64.75C29.5,64.75,19.25,54.5,19.25,41.75C19.25,29,29.5,18.75,42.25,18.75C51.450001,18.75,59.400002,24.15,63.099998,32.049999C63.099998,32.049999,71.400002,32,71.400002,32C67.300003,19.799999,55.75,11,42.25,11C25.299999,11,11.5,24.799999,11.5,41.75C11.5,58.700001,25.299999,72.5,42.25,72.5C59.200001,72.5,73,58.700001,73,41.75C73,40.599998,72.949997,39.549999,72.849998,38.599998C72.849998,38.599998,72.849998,38.599998,72.849998,38.599998Z" fill="#D82321" fill-opacity="1"/></svg>