<svg xmlns="http://www.w3.org/2000/svg" xmlns:xlink="http://www.w3.org/1999/xlink" fill="none" version="1.1" width="90" height="61.00001907348633" viewBox="0 0 90 61.00001907348633"><path d="M59.560001,0.000020614712C76.345001,0.000020614712,90,13.6825,90,30.5C90,47.317501,76.345001,61,59.560001,61C54.470699,61.005798,49.462399,59.7257,45,57.2785C40.537701,59.7258,35.529301,61.005901,30.440001,61C13.655,61,0,47.317501,0,30.5C0,13.6825,13.655,0.000020614712,30.440001,0.000020614712C35.710499,0.000020614712,40.672501,1.3500201,45,3.7215199C49.462299,1.2742,54.4706,-0.0059247003,59.560001,0.000020614712C59.560001,0.000020614712,59.560001,0.000020614712,59.560001,0.000020614712ZM59.560001,4.65802C56.0933,4.6542902,52.661999,5.35461,49.473999,6.7165198C53.699001,10.118,57.001999,14.623,58.942501,19.7915C58.942501,19.7915,59.064499,20.122499,59.064499,20.122499C59.064499,20.122499,66.248001,20.122499,66.248001,20.122499C67.0242,20.122499,67.770203,20.4233,68.329201,20.9617C68.888298,21.5002,69.216904,22.2344,69.246002,23.01C69.246002,23.01,69.248001,23.122499,69.248001,23.122499C69.248001,23.122499,69.248001,37.5425,69.248001,37.5425C69.248001,38.318699,68.947197,39.064701,68.408798,39.623699C67.8703,40.1828,67.136101,40.511398,66.360497,40.540501C66.360497,40.540501,66.248001,40.5425,66.248001,40.5425C66.248001,40.5425,51.868,40.5425,51.868,40.5425C51.091801,40.5425,50.345798,40.241699,49.7868,39.7033C49.227699,39.164799,48.899101,38.430698,48.869999,37.654999C48.869999,37.654999,48.868,37.5425,48.868,37.5425C48.868,37.5425,48.868,23.122499,48.868,23.122499C48.868,22.3463,49.1688,21.6003,49.707199,21.0413C50.245701,20.482201,50.9799,20.153601,51.755501,20.1245C51.755501,20.1245,51.868,20.122499,51.868,20.122499C51.868,20.122499,54.057999,20.122499,54.057999,20.122499C52.112999,15.7053,48.976601,11.9168,45,9.1815205C40.718601,6.2301602,35.640099,4.65236,30.440001,4.65802C16.2185,4.65802,4.6490002,16.250999,4.6490002,30.5C4.6490002,44.749001,16.219,56.341499,30.440001,56.341499C33.9067,56.345402,37.338001,55.645199,40.526001,54.283501C36.210999,50.808998,32.858002,46.183498,30.936001,40.875C30.936001,40.875,30.817499,40.5425,30.817499,40.5425C30.817499,40.5425,23.0825,40.5425,23.0825,40.5425C22.306299,40.5425,21.560301,40.241699,21.001301,39.7033C20.4422,39.164799,20.1136,38.430698,20.084499,37.654999C20.084499,37.654999,20.0825,37.5425,20.0825,37.5425C20.0825,37.5425,20.0825,23.122499,20.0825,23.122499C20.0825,22.3463,20.383301,21.6003,20.9217,21.0413C21.460199,20.482201,22.194401,20.153601,22.969999,20.1245C22.969999,20.1245,23.0825,20.122499,23.0825,20.122499C23.0825,20.122499,37.462502,20.122499,37.462502,20.122499C38.238701,20.122499,38.984699,20.4233,39.543701,20.9617C40.102798,21.5002,40.4314,22.2344,40.460499,23.01C40.460499,23.01,40.462502,23.122499,40.462502,23.122499C40.462502,23.122499,40.462502,37.5425,40.462502,37.5425C40.462502,38.318699,40.161701,39.064701,39.623299,39.623699C39.084801,40.1828,38.350601,40.511398,37.575001,40.540501C37.575001,40.540501,37.462502,40.5425,37.462502,40.5425C37.462502,40.5425,35.796001,40.5425,35.796001,40.5425C37.7272,45.1012,40.920502,49.013302,45,51.818501C49.281399,54.769699,54.360001,56.347401,59.560001,56.341499C73.780998,56.341499,85.350998,44.749001,85.350998,30.5C85.350998,16.250999,73.780998,4.65802,59.560001,4.65802C59.560001,4.65802,59.560001,4.65802,59.560001,4.65802ZM63.098999,24.781C63.098999,24.781,55.016499,24.781,55.016499,24.781C54.618698,24.781,54.237099,24.9391,53.955799,25.2204C53.6745,25.501699,53.516499,25.8832,53.516499,26.281C53.516499,26.281,53.516499,34.384499,53.516499,34.384499C53.516499,34.782299,53.6745,35.163898,53.955799,35.445202C54.237099,35.726501,54.618698,35.884499,55.016499,35.884499C55.016499,35.884499,63.098999,35.884499,63.098999,35.884499C63.496799,35.884499,63.878399,35.726501,64.159698,35.445202C64.441002,35.163898,64.598999,34.782299,64.598999,34.384499C64.598999,34.384499,64.598999,26.281,64.598999,26.281C64.598999,25.8832,64.441002,25.501699,64.159698,25.2204C63.878399,24.9391,63.496799,24.781,63.098999,24.781C63.098999,24.781,63.098999,24.781,63.098999,24.781C63.098999,24.781,63.098999,24.781,63.098999,24.781ZM34.313999,24.781C34.313999,24.781,26.231501,24.781,26.231501,24.781C25.8337,24.781,25.452101,24.9391,25.170799,25.2204C24.8895,25.501699,24.731501,25.8832,24.731501,26.281C24.731501,26.281,24.731501,34.384499,24.731501,34.384499C24.731501,34.782299,24.8895,35.163898,25.170799,35.445202C25.452101,35.726501,25.8337,35.884499,26.231501,35.884499C26.231501,35.884499,34.313999,35.884499,34.313999,35.884499C34.7118,35.884499,35.093399,35.726501,35.374699,35.445202C35.655998,35.163898,35.813999,34.782299,35.813999,34.384499C35.813999,34.384499,35.813999,26.281,35.813999,26.281C35.813999,25.8832,35.655998,25.501699,35.374699,25.2204C35.093399,24.9391,34.7118,24.781,34.313999,24.781C34.313999,24.781,34.313999,24.781,34.313999,24.781C34.313999,24.781,34.313999,24.781,34.313999,24.781Z" fill="#004098" fill-opacity="1"/></svg>