<svg xmlns="http://www.w3.org/2000/svg" xmlns:xlink="http://www.w3.org/1999/xlink" fill="none" version="1.1" width="85" height="85" viewBox="0 0 85 85"><path d="M21.282801092118113,63.750000000003475C21.282801092118113,63.750000000003475,21.282801092118113,21.29910100000347,21.282801092118113,21.29910100000347C21.282801092118113,21.29910100000347,63.733601092118114,21.29910100000347,63.733601092118114,21.29910100000347C63.733601092118114,21.29910100000347,63.733601092118114,23.28160100000347,63.733601092118114,23.28160100000347C63.733601092118114,23.28160100000347,61.75120209211811,23.28160100000347,61.75120209211811,23.28160100000347C61.62440109211811,23.24539900000347,61.490898092118115,23.23910000000347,61.36130109211811,23.26320100000347C61.231602092118116,23.28739900000347,61.10940209211812,23.34120000000347,61.00410109211811,23.42070000000347C60.898800092118115,23.50009900000347,60.813400092118115,23.60280000000347,60.754601092118115,23.72090000000347C60.69580109211812,23.83890000000347,60.665199092118115,23.96890100000347,60.665199092118115,24.10080000000347C60.665199092118115,24.232700000003472,60.69580109211812,24.36270000000347,60.754601092118115,24.48080100000347C60.813400092118115,24.598801000003473,60.898800092118115,24.70150000000347,61.00410109211811,24.78100000000347C61.10940209211812,24.860399000003472,61.231602092118116,24.91430100000347,61.36130109211811,24.938400000003472C61.490898092118115,24.96250000000347,61.62440109211811,24.95620000000347,61.75120209211811,24.920000000003473C61.75120209211811,24.920000000003473,63.733601092118114,24.920000000003473,63.733601092118114,24.920000000003473C63.733601092118114,24.920000000003473,63.733601092118114,26.90250000000347,63.733601092118114,26.90250000000347C63.733601092118114,26.90250000000347,58.08120009211812,26.90250000000347,58.08120009211812,26.90250000000347C57.90309909211811,26.95330000000347,57.74649809211812,27.060801000003472,57.63499809211812,27.20859900000347C57.523499092118115,27.35640000000347,57.463200092118115,27.536501000003472,57.463200092118115,27.72170100000347C57.463200092118115,27.90679900000347,57.523499092118115,28.086901000003472,57.63499809211812,28.23469900000347C57.74649809211812,28.38250000000347,57.90309909211811,28.49000000000347,58.08120009211812,28.54089900000347C58.08120009211812,28.54089900000347,63.750000092118114,28.54089900000347,63.750000092118114,28.54089900000347C63.750000092118114,28.54089900000347,63.750000092118114,30.52330000000347,63.750000092118114,30.52330000000347C63.750000092118114,30.52330000000347,54.394798092118116,30.52330000000347,54.394798092118116,30.52330000000347C54.21670209211811,30.574200000003472,54.06010109211812,30.68160100000347,53.94860109211811,30.82939900000347C53.83710109211811,30.97730100000347,53.77679809211811,31.15740000000347,53.77679809211811,31.34250100000347C53.77679809211811,31.52770000000347,53.83710109211811,31.70780000000347,53.94860109211811,31.85560000000347C54.06010109211812,32.003399000003476,54.21670209211811,32.11090100000347,54.394798092118116,32.161701000003475C54.394798092118116,32.161701000003475,63.750000092118114,32.161701000003475,63.750000092118114,32.161701000003475C63.750000092118114,32.161701000003475,63.750000092118114,34.144199000003475,63.750000092118114,34.144199000003475C63.750000092118114,34.144199000003475,50.773899092118114,34.144199000003475,50.773899092118114,34.144199000003475C50.661999092118116,34.144199000003475,50.55120109211811,34.16619900000347,50.447899092118114,34.20900000000348C50.344501092118115,34.251801000003475,50.250599092118115,34.314602000003475,50.17150109211811,34.39370000000348C50.09240009211811,34.47280100000347,50.029598092118114,34.56670000000347,49.986801092118114,34.67010100000348C49.94400009211812,34.773499000003476,49.92190209211812,34.88430000000348,49.92190209211812,34.99610100000348C49.89180009211812,35.123199000003474,49.891201092118116,35.25550100000348,49.92030009211811,35.382801000003475C49.94929909211812,35.50999800000348,50.00730109211811,35.629002000003474,50.08960009211811,35.73030100000347C50.172001092118116,35.831600000003476,50.27650109211812,35.91270100000347,50.39510009211811,35.96720100000348C50.51380209211811,36.02170200000347,50.64339809211811,36.04819900000347,50.773899092118114,36.04470100000348C50.773899092118114,36.04470100000348,63.79919809211811,36.04470100000348,63.79919809211811,36.04470100000348C63.79919809211811,36.04470100000348,63.79919809211811,38.02719900000348,63.79919809211811,38.02719900000348C63.79919809211811,38.02719900000348,47.005600092118115,38.02719900000348,47.005600092118115,38.02719900000348C46.82759909211811,38.07799900000347,46.67100109211811,38.18550100000348,46.559502092118116,38.33330200000348C46.44799809211811,38.48109800000348,46.38760009211811,38.66120100000347,46.38760009211811,38.846401000003475C46.38760009211811,39.03150200000348,46.44799809211811,39.211601000003476,46.559502092118116,39.35940200000348C46.67100109211811,39.50719800000348,46.82759909211811,39.614700000003474,47.005600092118115,39.66560000000347C47.005600092118115,39.66560000000347,63.733601092118114,39.66560000000347,63.733601092118114,39.66560000000347C63.733601092118114,39.66560000000347,63.733601092118114,41.64799900000347,63.733601092118114,41.64799900000347C63.733601092118114,41.64799900000347,43.335602092118116,41.64799900000347,43.335602092118116,41.64799900000347C43.208801092118115,41.611801000003474,43.07529809211811,41.605499000003476,42.94570209211811,41.629601000003476C42.81610109211812,41.653801000003476,42.693798092118115,41.70769900000347,42.588501092118115,41.78710200000347C42.48320009211811,41.866501000003474,42.39780009211811,41.969200000003475,42.33900109211812,42.087299000003476C42.28020109211811,42.20529900000347,42.24959909211812,42.335400000003474,42.24959909211812,42.46720100000348C42.24959909211812,42.59909800000347,42.28020109211811,42.72919800000347,42.33900109211812,42.84719800000347C42.39780009211811,42.96519900000347,42.48320009211811,43.06800100000348,42.588501092118115,43.14740000000347C42.693798092118115,43.226799000003474,42.81610109211812,43.280701000003475,42.94570209211811,43.30479800000347C43.07529809211811,43.328899000003474,43.208801092118115,43.32260100000347,43.335602092118116,43.286400000003475C43.335602092118116,43.286400000003475,63.733601092118114,43.286400000003475,63.733601092118114,43.286400000003475C63.733601092118114,43.286400000003475,63.733601092118114,45.26890200000347,63.733601092118114,45.26890200000347C63.733601092118114,45.26890200000347,47.005600092118115,45.26890200000347,47.005600092118115,45.26890200000347C46.878799092118115,45.232700000003476,46.745300092118114,45.22639800000348,46.61570009211811,45.25050000000348C46.48609909211812,45.27460100000347,46.36380009211811,45.328499000003475,46.258499092118115,45.407902000003475C46.15319809211812,45.48730100000348,46.067799092118115,45.59009900000348,46.00899909211812,45.70809900000347C45.95019909211811,45.826099000003474,45.919601092118114,45.95620000000348,45.919601092118114,46.08810000000347C45.919601092118114,46.219898000003475,45.95019909211811,46.349998000003474,46.00899909211812,46.46799900000347C46.067799092118115,46.58610200000347,46.15319809211812,46.68880100000347,46.258499092118115,46.768200000003475C46.36380009211811,46.84759900000348,46.48609909211812,46.90150100000348,46.61570009211811,46.92570100000347C46.745300092118114,46.94979900000347,46.878799092118115,46.94350100000347,47.005600092118115,46.907299000003476C47.005600092118115,46.907299000003476,63.733601092118114,46.907299000003476,63.733601092118114,46.907299000003476C63.733601092118114,46.907299000003476,63.733601092118114,48.889702000003474,63.733601092118114,48.889702000003474C63.733601092118114,48.889702000003474,50.773899092118114,48.889702000003474,50.773899092118114,48.889702000003474C50.64709909211811,48.85350000000347,50.51359909211811,48.84719800000347,50.38399909211812,48.87139900000347C50.254398092118116,48.89550000000347,50.13209909211811,48.949402000003474,50.02679809211811,49.028801000003476C49.92160009211811,49.10820000000347,49.83620109211812,49.210999000003476,49.77730209211811,49.32899900000348C49.71849809211811,49.44699900000347,49.68790109211811,49.57709900000347,49.68790109211811,49.708900000003474C49.68790109211811,49.840801000003474,49.71849809211811,49.97090100000347,49.77730209211811,50.08890200000347C49.83620109211812,50.206902000003474,49.92160009211811,50.309700000003474,50.02679809211811,50.389099000003476C50.13209909211811,50.46849800000347,50.254398092118116,50.52240000000347,50.38399909211812,50.546501000003474C50.51359909211811,50.570599000003476,50.64709909211811,50.564400000003474,50.773899092118114,50.52809900000347C50.773899092118114,50.52809900000347,63.79919809211811,50.52809900000347,63.79919809211811,50.52809900000347C63.79919809211811,50.52809900000347,63.79919809211811,52.510601000003476,63.79919809211811,52.510601000003476C63.79919809211811,52.510601000003476,54.394798092118116,52.510601000003476,54.394798092118116,52.510601000003476C54.21670209211811,52.561501000003474,54.06010109211812,52.668900000003475,53.94860109211811,52.81670000000347C53.83710109211811,52.964500000003476,53.77679809211811,53.14460000000347,53.77679809211811,53.32980000000347C53.77679809211811,53.51490000000347,53.83710109211811,53.695000000003475,53.94860109211811,53.84289900000348C54.06010109211812,53.99070000000347,54.21670209211811,54.09809900000347,54.394798092118116,54.14899800000347C54.394798092118116,54.14899800000347,63.750000092118114,54.14899800000347,63.750000092118114,54.14899800000347C63.750000092118114,54.14899800000347,63.750000092118114,56.13150000000348,63.750000092118114,56.13150000000348C63.750000092118114,56.13150000000348,58.08120009211812,56.13150000000348,58.08120009211812,56.13150000000348C57.90309909211811,56.18230100000348,57.74649809211812,56.28979900000348,57.63499809211812,56.43759900000347C57.523499092118115,56.585400000003474,57.463200092118115,56.76549900000347,57.463200092118115,56.950600000003476C57.463200092118115,57.13579900000347,57.523499092118115,57.315899000003476,57.63499809211812,57.46369900000347C57.74649809211812,57.611500000003474,57.90309909211811,57.71900200000348,58.08120009211812,57.769798000003476C58.08120009211812,57.769798000003476,63.750000092118114,57.769798000003476,63.750000092118114,57.769798000003476C63.750000092118114,57.769798000003476,63.750000092118114,59.75230000000347,63.750000092118114,59.75230000000347C63.750000092118114,59.75230000000347,61.75120209211811,59.75230000000347,61.75120209211811,59.75230000000347C61.63930109211812,59.75230000000347,61.528500092118115,59.77430000000347,61.42509809211811,59.817200000003474C61.32180009211812,59.86000100000347,61.227798092118114,59.922699000003476,61.14870109211812,60.001801000003475C61.06959909211811,60.08089800000347,61.00690109211811,60.174900000003475,60.96400109211812,60.27819800000348C60.92120009211811,60.381599000003476,60.899200092118114,60.492401000003476,60.899200092118114,60.604301000003474C60.899200092118114,60.71620200000348,60.92120009211811,60.82690000000348,60.96400109211812,60.93030200000347C61.00690109211811,61.03369900000347,61.06959909211811,61.12760200000348,61.14870109211812,61.206699000003475C61.227798092118114,61.285801000003474,61.32180009211812,61.34859800000348,61.42509809211811,61.391399000003474C61.528500092118115,61.43420000000347,61.63930109211812,61.45620000000348,61.75120209211811,61.45620000000348C61.75120209211811,61.45620000000348,63.733601092118114,61.45620000000348,63.733601092118114,61.45620000000348C63.733601092118114,61.45620000000348,63.733601092118114,63.438702000003474,63.733601092118114,63.438702000003474C63.733601092118114,63.438702000003474,21.282801092118113,63.750000000003475,21.282801092118113,63.750000000003475C21.282801092118113,63.750000000003475,21.282801092118113,63.750000000003475,21.282801092118113,63.750000000003475ZM42.483601092118114,0.000003158349971875348C34.07859809211811,0.003243339903471875,25.863300092118113,2.498580000003472,18.876400092118114,7.1705098000034715C11.889400092118114,11.84240000000347,6.444649792118114,18.48119900000347,3.230439992118114,26.247299000003473C0.016226101118114025,34.013401000003476,-0.823078007881886,42.55830000000348,0.818643002118114,50.80139900000348C2.460359892118114,59.04449800000347,6.509389992118114,66.61570000000347,12.453800092118113,72.55780000000347C18.398199092118116,78.49990100000346,25.971001092118115,82.54599800000346,34.21469909211812,84.18450200000346C42.458401092118116,85.82309700000347,51.00289909211811,84.98049900000346,58.76779909211811,81.76329800000347C66.53270009211812,78.54609700000347,73.16940309211812,73.09880100000346,77.83860009211811,66.11000100000346C82.50779709211811,59.12130000000347,85.00000009211811,50.90499900000347,85.00000009211811,42.500000000003475C85.00000009211811,36.917400000003475,83.90020009211811,31.38960100000347,81.76329809211812,26.23220100000347C79.62650309211811,21.07480000000347,76.49449909211812,16.38890100000347,72.54620409211812,12.44220000000347C68.59800009211811,8.495459600003471,63.91090009211811,5.365280200003472,58.752701092118116,3.230420100003472C53.594501092118115,1.095560000003472,48.066200092118116,-0.0021489499965281246,42.483601092118114,0.000003158349971875348C42.483601092118114,0.000003158349971875348,42.483601092118114,0.000003158349971875348,42.483601092118114,0.000003158349971875348C42.483601092118114,0.000003158349971875348,42.483601092118114,0.000003158349971875348,42.483601092118114,0.000003158349971875348Z" fill="#D82B17" fill-opacity="1"/></svg>