<svg xmlns="http://www.w3.org/2000/svg" xmlns:xlink="http://www.w3.org/1999/xlink" fill="none" version="1.1" width="59.5" height="87" viewBox="0 0 59.5 87"><path d="M8.2965002,68.505997C8.2965002,68.505997,12.3705,79.112,12.3705,79.112C12.3705,79.112,16.342501,68.505997,16.342501,68.505997C16.342501,68.505997,22.441999,68.505997,22.441999,68.505997C22.441999,68.505997,23.875,87,23.875,87C23.875,87,19.749001,87,19.749001,87C19.749001,87,18.685499,73.634499,18.685499,73.634499C18.685499,73.634499,14.178,87,14.178,87C14.178,87,10.4615,87,10.4615,87C10.4615,87,6.2045002,74.629997,6.2045002,74.629997C6.2045002,74.629997,5.1409998,87,5.1409998,87C5.1409998,87,1,87,1,87C1,87,2.701,68.505997,2.701,68.505997C2.701,68.505997,8.2959995,68.505997,8.2959995,68.505997C8.2959995,68.505997,8.2965002,68.505997,8.2965002,68.505997C8.2965002,68.505997,8.2965002,68.505997,8.2965002,68.505997ZM38.929501,68.505997C38.929501,68.505997,38.929501,70.917,38.929501,70.917C38.929501,70.917,33.314499,70.917,33.314499,70.917C33.314499,70.917,33.314499,87,33.314499,87C33.314499,87,29.0345,87,29.0345,87C29.0345,87,29.0345,70.917,29.0345,70.917C29.0345,70.917,23.312,70.917,23.312,70.917C23.312,70.917,23.312,68.505997,23.312,68.505997C23.312,68.505997,38.929501,68.505997,38.929501,68.505997C38.929501,68.505997,38.929501,68.505997,38.929501,68.505997C38.929501,68.505997,38.929501,68.505997,38.929501,68.505997ZM53.5,68.5C54.560902,68.5,55.5783,68.921402,56.3284,69.6716C57.078602,70.4217,57.5,71.439102,57.5,72.5C57.5,72.5,57.5,74.197502,57.5,74.197502C57.500099,74.930901,57.298599,75.650299,56.9175,76.276901C56.5364,76.903503,55.990299,77.4133,55.339001,77.750504C55.990299,78.087402,56.5364,78.597,56.9175,79.223503C57.298698,79.849998,57.500198,80.569199,57.5,81.302498C57.5,81.302498,57.5,83,57.5,83C57.5,84.060898,57.078602,85.0783,56.3284,85.8284C55.5783,86.578598,54.560902,87,53.5,87C53.5,87,40.3895,87,40.3895,87C40.3895,87,40.3895,72.950996,40.3895,72.950996C40.3895,72.950996,44.643501,72.950996,44.643501,72.950996C44.643501,72.950996,44.643501,75.106003,44.643501,75.106003C44.643501,75.106003,44.6455,75.106003,44.6455,75.106003C44.6455,75.106003,44.6455,79.457497,44.6455,79.457497C44.6455,79.457497,44.643501,79.457497,44.643501,79.457497C44.643501,79.457497,44.643501,83.767502,44.643501,83.767502C44.643501,83.767502,50.997501,83.767502,50.997501,83.767502C51.569,83.767502,52.117199,83.540497,52.521301,83.136299C52.925499,82.732201,53.1525,82.183998,53.1525,81.612503C53.1525,81.041,52.925499,80.492798,52.521301,80.088699C52.117199,79.684502,51.569,79.457497,50.997501,79.457497C50.997501,79.457497,46.772999,79.457497,46.772999,79.457497C46.772999,79.457497,46.772999,75.106003,46.772999,75.106003C46.772999,75.106003,50.998001,75.106003,50.998001,75.106003C51.5695,75.106003,52.117699,74.878998,52.521801,74.4748C52.925999,74.070702,53.153,73.522499,53.153,72.950996C53.153,72.379501,52.925999,71.831299,52.521801,71.4272C52.117699,71.023003,51.5695,70.795998,50.998001,70.795998C50.998001,70.795998,40.389,70.795998,40.389,70.795998C40.389,70.795998,40.389,68.5,40.389,68.5C40.389,68.5,53.5,68.5,53.5,68.5C53.5,68.5,53.5,68.5,53.5,68.5ZM4.9239998,12.74C1.2309999,28.356001,7.3860002,42.740002,21.337999,49.314999C22.9795,49.726002,24.210501,50.548,25.8515,50.959C27.493,51.369999,28.724001,51.780998,30.365499,51.780998C32.007,52.192001,33.237999,52.192001,34.879501,52.192001C43.907001,52.192001,52.524502,47.671001,59.5,40.273998C54.986,51.780998,45.5485,57.945,35.290001,59.589001C33.648499,60,32.417,60,30.775999,60C29.134501,60,27.9035,59.589001,26.261999,59.589001C22.569,59.178001,18.875999,57.945,15.593,55.890499C6.2494998,50.601501,0.5255,41.2845,0.0139999,31.129999C0.0139999,31.129999,0,30.822001,0,30.822001C0,30.822001,0,28.767,0,28.767C0,23.4245,2.0515001,17.671,4.9239998,12.7395C4.9239998,12.7395,4.9239998,12.74,4.9239998,12.74C4.9239998,12.74,4.9239998,12.74,4.9239998,12.74ZM34.879002,20.548C34.879002,20.548,39.393002,34.109501,39.393002,34.109501C39.393002,34.109501,25.8515,38.393501,25.8515,38.393501C25.8515,38.393501,21.337999,25.068501,21.337999,25.068501C21.337999,25.068501,34.879501,20.548,34.879501,20.548C34.879501,20.548,34.879002,20.548,34.879002,20.548C34.879002,20.548,34.879002,20.548,34.879002,20.548ZM34.879002,8.664798e-18C38.161999,8.664798e-18,41.855,0.82199901,45.138,2.8764999C60.320499,11.918,57.448002,30.410999,51.702999,36.5755C55.3965,22.191999,46.368999,10.685,34.879501,8.2189999C33.3405,7.8340001,32.162498,7.8099999,30.668501,7.8084998C30.668501,7.8084998,30.0625,7.8084998,30.0625,7.8084998C28.568501,7.8099999,27.390499,7.8334999,25.8515,8.2189999C21.337999,9.0410004,16.414,11.918,12.3105,16.438499C13.5415,11.918,18.8755,5.3425002,25.8515,2.0550001C27.493,1.233,28.724001,0.82199901,30.365499,0.410999C32.007,-7.1525602e-7,33.237999,8.664798e-18,34.879501,8.664798e-18C34.879501,8.664798e-18,34.879002,8.664798e-18,34.879002,8.664798e-18C34.879002,8.664798e-18,34.879002,8.664798e-18,34.879002,8.664798e-18Z" fill="#ED1C24" fill-opacity="1"/></svg>