<svg xmlns="http://www.w3.org/2000/svg" xmlns:xlink="http://www.w3.org/1999/xlink" fill="none" version="1.1" width="79.20438385009766" height="85" viewBox="0 0 79.20438385009766 85"><path d="M33.953701,1.17778C31.6063,0.93326002,30.188101,1.17778,29.4056,1.3245C28.5742,1.47121,27.400499,1.76464,26.080099,2.7427299C25.8356,2.9383399,25.444401,3.2806699,25.101999,3.81862C27.938499,2.4003899,32.193199,4.1120501,33.758099,5.8237C35.616501,7.8776898,35.5187,11.4477,35.225201,13.5017C34.931801,15.7513,33.464699,21.8155,26.618099,22.989201C24.123899,23.4293,17.228399,23.184799,15.908,17.3162C18.0109,17.609699,20.162701,15.1156,18.5488,12.817C16.9839,10.5185,13.0715,10.6163,10.3329,11.3499C6.9584799,12.2791,4.1709199,15.8002,2.9483099,18.245399C1.4322799,21.326401,0.35637897,25.629999,0.16076198,29.0044C-0.083760627,32.7211,-0.034856923,36.877998,0.20966497,39.959C0.55199599,43.822498,1.4322799,47.783699,2.7527001,51.207001C4.0731201,54.679199,5.6380601,57.7113,7.3008099,60.890099C7.3008099,60.890099,7.4475198,61.183498,7.4475198,61.183498C7.4964299,61.134602,7.7409501,60.890099,7.9854698,60.596699C8.6701298,59.814201,10.1862,58.0047,10.773,57.173401C11.3599,56.341999,13.3161,52.918701,13.854,51.696098C16.4459,53.4077,16.886101,54.581402,16.9839,56.244202C17.081699,58.0536,15.5657,62.063801,13.1693,66.318497C13.0226,66.563004,12.827,66.9543,12.6314,67.247704C12.7781,67.100998,12.9737,66.905403,13.4139,66.416298C13.9518,65.829498,16.0058,63.5798,18.0109,60.6945C20.016001,57.809101,22.803499,53.212101,24.319599,49.104099C26.373501,49.935501,27.253799,51.1092,27.7918,52.234001C28.525299,53.799,27.938499,57.173401,25.8356,62.161598C24.3685,65.633797,22.314501,68.861504,19.9182,72.235901C19.624701,72.627197,19.2335,73.213997,18.9401,73.556396C18.9401,73.556396,19.673599,74.143204,19.673599,74.143204C22.3634,76.197197,25.591101,78.4468,28.6721,80.256302C31.997601,82.163498,36.252201,84.217499,39.577702,85C42.903198,84.217499,47.157902,82.163498,50.483398,80.256302C53.515499,78.495697,56.792099,76.246101,59.4818,74.143204C59.4818,74.143204,60.215401,73.556396,60.215401,73.556396C59.970901,73.213997,59.5308,72.627197,59.237301,72.235901C56.8899,68.861504,54.835899,65.633797,53.368801,62.161598C51.216999,57.173401,50.6301,53.750099,51.412601,52.234001C51.9506,51.1092,52.830799,49.984402,54.8848,49.104099C56.400902,53.212101,59.1884,57.809101,61.193501,60.6945C63.198601,63.530899,65.252602,65.829498,65.790497,66.416298C66.230698,66.905403,66.4263,67.100998,66.572998,67.247704C66.4263,66.905403,66.181801,66.563004,66.035004,66.318497C63.638699,62.063801,62.1227,58.0536,62.220501,56.244202C62.318298,54.532501,62.7584,53.4077,65.350403,51.696098C65.937202,52.918701,67.844498,56.341999,68.431396,57.173401C69.018204,58.0047,70.534302,59.814201,71.218903,60.596699C71.463402,60.890099,71.708,61.134602,71.756897,61.183498C71.756897,61.183498,71.903603,60.890099,71.903603,60.890099C73.566299,57.7113,75.131302,54.679199,76.451698,51.207001C77.723198,47.783699,78.652397,43.822498,78.994698,39.959C79.239304,36.877998,79.288101,32.7211,79.043602,29.0044C78.848,25.629999,77.772102,21.326401,76.256104,18.245399C75.082397,15.8002,72.245903,12.328,68.871498,11.3499C66.0839,10.5674,62.220501,10.4696,60.655602,12.817C59.041698,15.1645,61.242401,17.6586,63.296398,17.3162C63.296398,17.3162,63.247501,17.3162,63.247501,17.3162C63.247501,17.3162,63.296398,17.3162,63.296398,17.3162C62.660599,20.2505,59.970901,23.1359,54.395802,23.1359C51.803902,23.1359,48.3316,21.668699,46.7178,18.979C44.614899,15.409,44.7127,11.839,44.4193,8.80688C44.223701,7.1441202,44.1259,5.4324698,43.587898,3.81862C43.049999,2.2047801,42.022999,1.12888,40.506901,0.68873799C39.235401,0.29750299,38.208401,0.15078901,36.643501,0.0040753684C36.643501,0.0040753684,36.105499,0.0040753684,36.105499,0.0040753684C34.931801,-0.044829093,34.198299,0.346407,33.953701,1.17778C33.953701,1.17778,33.953701,1.17778,33.953701,1.17778C33.953701,1.17778,33.953701,1.17778,33.953701,1.17778Z" fill="#009DDF" fill-opacity="1"/></svg>