<svg xmlns="http://www.w3.org/2000/svg" xmlns:xlink="http://www.w3.org/1999/xlink" fill="none" version="1.1" width="88.07470703125" height="96.921630859375" viewBox="0 0 88.07470703125 96.921630859375"><path d="M41.02404935605469,32.150787832128906C43.82404945605469,28.950786832128905,48.774039256054685,28.650788782128906,51.974029956054686,31.500787832128907C55.17402995605469,34.350787632128906,55.42402995605469,39.250787732128906,52.62402895605469,42.450767932128905C49.77402995605469,45.65076793212891,44.87403965605469,45.950767932128905,41.67404935605469,43.1007679321289C38.47404843605469,40.25076793212891,38.17405140605469,35.350787632128906,41.02404935605469,32.150787832128906Z" fill="#009863" fill-opacity="1"/><path d="M32.6241,46.35096714892578C33.474102,47.85096714892578,34.6241,49.25096714892578,36.024101,50.50096714892578C38.0741,52.35096714892578,40.524101,53.55096614892578,43.024101,54.20096614892579C43.0741,54.55096614892578,42.924099,54.95096614892579,42.8241,55.40096614892578C42.774101,55.60096714892578,42.924099,56.00096714892578,42.924099,56.30096614892578C43.024101,58.70096614892579,40.8741,61.55096814892578,41.3241,62.60096714892578C42.0741,63.95096614892578,41.424099,67.45096614892577,41.8241,68.50096514892579C42.274101,69.75096514892579,41.474102,72.70096614892577,41.674099,73.80096814892579C41.924099,75.15096614892579,40.774101,77.35096714892578,40.674099,77.75096514892579C40.474102,78.60096714892578,39.274101,78.50096514892579,39.3241,79.75096514892579C39.3241,80.35096714892578,37.3241,81.80096814892579,37.3741,82.40096614892579C35.974102,84.50096514892579,33.674099,86.10096714892578,31.8241,87.95096614892577C31.4741,87.65096614892579,27.6241,90.80096814892579,27.2241,91.25096514892579C26.5741,92.00096914892578,23.8741,96.40097014892578,22.2241,96.45096614892579C21.8241,96.50096914892578,21.5741,96.75096914892578,21.2241,96.90097014892578C20.8241,97.10096714892578,19.8741,95.80096414892579,19.774101,95.30096414892579C19.6241,94.65097014892578,18.174101,92.25096914892578,17.2241,91.75096914892578C16.3741,91.15096614892579,15.374101,89.45096614892577,15.5241,88.85096714892578C15.5741,88.65096614892579,15.9741,87.30096814892579,15.7741,87.15096614892579C16.274101,86.65096614892579,15.8241,85.55096814892579,15.874101,84.85096714892578C15.9241,84.65096614892579,17.1241,83.45096614892577,16.924101,83.30096814892579C17.4741,82.75096514892579,18.2241,80.40096614892579,17.774101,79.95096614892577C17.8741,79.50096514892579,18.3741,78.50096514892579,18.174101,78.10096714892578C17.924101,77.55096814892579,18.8741,74.40096614892579,18.9741,74.35096714892578C18.5741,73.15096614892579,18.274101,71.10096714892578,19.1241,70.05096814892579C19.3741,69.25096514892579,20.7241,66.75096514892579,22.6241,66.05096814892579C23.6241,65.70096614892577,27.9741,61.85096714892578,28.2241,61.25096514892578C28.924101,59.10096714892578,31.024101,57.75096714892578,32.524101,55.75096714892578C32.674099,55.60096714892578,33.3741,53.45096614892579,33.474102,53.30096614892578C33.724102,52.70096614892579,34.0741,51.05096614892578,33.974102,50.60096714892578C33.924099,50.30096614892578,33.674099,50.30096614892578,33.474102,50.15096614892578C33.524101,49.90096614892578,33.224102,50.00096714892578,33.3741,49.70096614892579C33.0741,49.50096714892578,33.174099,48.90096614892578,32.3241,48.50096714892578C31.8741,48.45096614892579,31.4741,48.10096714892578,31.024101,47.95096614892579C30.424101,47.65096614892578,29.774101,46.85096714892578,29.2241,46.65096614892578C28.8741,46.55096614892578,27.2241,45.70096614892579,26.924101,45.70096614892579C26.4741,45.75096714892578,25.6241,45.85096714892578,25.174101,45.95096614892579C24.6241,46.05096614892578,22.674101,46.95096614892579,21.424101,46.45096614892579C21.274101,46.60096714892578,19.1241,46.65096614892578,18.924101,46.90096614892578C17.924101,46.95096614892579,16.774101,48.05096614892578,16.924101,47.95096614892579C16.6241,48.25096714892578,15.5241,48.45096614892579,15.0741,48.45096614892579C14.9741,48.50096714892578,13.8241,48.35096714892578,13.5741,48.30096614892578C12.5241,47.40096614892578,10.124101,45.15096614892578,4.7741203,43.200967148925784C4.7741203,43.200967148925784,4.2741203,42.75096714892578,4.2741203,42.75096714892578C3.7241204,43.35096614892578,2.1241202,41.40096614892578,1.7741203,41.10096614892578C1.7241204,40.75096714892578,1.7241204,40.40096614892578,1.7741203,40.05096614892578C2.7741203,38.950967148925784,-0.92588264,35.85100654892578,0.22411734,34.55100674892578C0.17411734,34.05100674892578,0.87411833,33.20100684892578,0.17411834,32.60100654892578C-0.22588165,32.10100654892578,0.72411734,31.10100674892578,1.2241204,31.05100674892578C1.4241203,30.85100674892578,2.8741202,30.90100664892578,3.3241203,30.40100664892578C3.8741202,30.45100664892578,4.7741203,29.10100674892578,5.1241202,28.70100664892578C9.7741203,25.65100664892578,16.4741,28.90100664892578,18.8741,30.10100674892578C22.774101,32.30100674892578,26.024101,33.15100664892578,28.274101,35.10100654892578C28.9741,35.55100634892578,29.7241,35.40100664892578,30.3741,35.60100654892578C30.0741,39.05096614892578,30.6241,42.450967148925784,32.174099,45.50096714892578C32.174099,45.50096714892578,32.5741,46.25096714892578,32.6241,46.35096714892578Z" fill="#EC1D24" fill-opacity="1"/><path d="M50.87403869628906,22.1C51.02403869628906,21.85,51.12403869628906,21.6,51.17403769628906,21.4C51.42403769628906,21.049999,51.82403969628906,20.75,51.82403969628906,20.299999C51.82403969628906,20.049999,52.17403769628906,18.5,52.07403969628906,18.25C51.87403869628906,17.799999,51.82403969628906,17.15,51.62403869628906,16.700001C47.77403869628906,11.55,45.02403869628906,8.8000002,41.62403869628906,6.5C40.02403869628906,5.4000001,38.37403869628906,3.9000001,37.22403859628906,2.2C37.22403859628906,2.2,36.27403879628906,0.80000001,36.27403879628906,0.80000001C36.02403879628906,0.44999999,35.72403859628906,0.30000001,35.42403889628906,0C35.32403849628906,0,35.22403859628906,1.8999e-7,35.07403849628906,0.050000198C34.82403849628906,0.15000001,34.57403849628906,0.44999999,34.22403859628906,0.55000001C34.22403859628906,0.55000001,34.12403869628906,0.55000001,34.12403869628906,0.55000001C33.67403889628906,0.75,32.77403879628906,2.2,33.074038696289065,2.45C32.97403859628906,2.95,30.824038696289062,4.8000002,30.52403968628906,5.8499999C30.52403968628906,5.8499999,30.574039696289063,6.3499999,30.574039696289063,6.3499999C30.12403970628906,6.9000001,29.824038696289062,8,29.624038696289062,8.8500004C29.624038696289062,9,29.774039696289062,9,29.824039696289063,9.1000004C29.474039706289062,10.1,29.72403789328906,10.15,29.67403789628906,10.6C29.574037894289063,10.7,29.724038696289064,12.35,29.874038696289062,12.45C29.774038706289062,12.95,29.924039696289064,14.15,30.074039696289063,14.3C30.224039676289063,14.6,30.224039676289063,14.85,30.324039696289063,15.1C30.674038696289063,15.4,31.02403869628906,17.4,30.77403869628906,17.75C30.824038696289062,18.15,31.02403869628906,20.200001,31.224038696289064,20.4C31.574038696289062,20.65,31.424038696289063,21.700001,31.424038696289063,22.15C31.924038696289063,23.35,33.97403859628906,25.049999,34.82403849628906,25C34.82403849628906,25,36.07403849628906,26.15,36.07403849628906,26.15C40.12403869628906,22.35,45.724038696289064,20.950001,50.87403869628906,22.1Z" fill="#F89C1C" fill-opacity="1"/><path d="M48.07414245605469,55.20141744150391C48.12414245705469,55.501417641503906,48.02414095805469,55.351417541503906,48.174140952054685,55.70141744150391C48.87414044605469,56.901417741503906,52.62414265605469,59.851417541503906,52.57414245605469,61.20141754150391C52.72414255605469,61.351417541503906,53.47414255605469,62.251417541503905,53.32414245605469,62.351417541503906C53.62414265605469,62.70141754150391,55.97414255605469,65.4514175415039,55.32414245605469,65.9514175415039C55.77414225605469,66.4514175415039,55.87414265605469,67.2014175415039,56.32414245605469,67.75141754150391C56.32414245605469,67.75141754150391,56.27414225605469,68.3514175415039,56.27414225605469,68.3514175415039C57.92414285605469,70.3014185415039,58.124142456054685,72.1014175415039,61.07414245605469,72.5514185415039C62.92414245605469,72.7014175415039,64.52414345605469,71.5514185415039,65.87414145605469,71.6014175415039C68.82414245605469,71.6514165415039,70.62414145605469,72.1514165415039,71.92414245605468,71.25141754150391C73.17414245605468,71.4014165415039,76.07414245605469,68.9014165415039,77.07414245605469,68.1514165415039C78.27414345605469,66.6514165415039,77.02414345605469,63.20141754150391,76.82414245605469,60.95141754150391C76.37414145605469,60.45141754150391,75.2241424560547,58.75141714150391,73.32414245605469,58.151417741503906C72.12414145605469,56.80141734150391,68.62414145605469,54.601417541503906,66.77414345605469,54.351417541503906C66.77414345605469,54.351417541503906,66.32414245605469,53.80141734150391,66.32414245605469,53.80141734150391C64.02414245605469,53.501417641503906,61.974142456054686,51.30141754150391,59.974142456054686,49.601417541503906C59.92414245605469,49.65141754250391,59.92414245605469,49.701416037503904,59.874142456054685,49.701416037503904C56.77414225605469,53.1514175415039,52.47414255605469,55.001417641503906,48.07414245605469,55.20141744150391Z" fill="#231F20" fill-opacity="1"/><path d="M66.82414245605469,44.850843811035155C66.82414245605469,44.850843811035155,67.02413275605468,45.000842811035156,67.02413275605468,45.000842811035156C67.02413275605468,45.000842811035156,67.7241424560547,44.55084381103516,67.7241424560547,44.55084381103516C69.2241424560547,44.250842811035156,70.57414245605469,42.700843811035156,71.7241424560547,42.100843811035155C74.52414345605469,40.750842811035156,77.52414345605469,40.950843811035156,80.12414145605469,39.40084481103516C84.17414245605468,37.25084381103515,87.17414245605468,34.90084381103516,88.02414345605469,30.200843811035156C87.9741424560547,29.900843611035157,88.2241424560547,28.200843811035156,87.92414245605468,27.900843611035157C88.32414245605469,27.450843811035156,87.62414145605469,26.850843911035156,87.92414245605468,26.500844011035156C87.7241424560547,26.350843911035156,87.67414245605468,26.050843711035157,87.67414245605468,26.050843711035157C87.67414245605468,26.050843711035157,86.67414245605468,25.150843811035156,86.67414245605468,25.150843811035156C86.4741424560547,25.150843811035156,86.17414245605468,25.100843911035156,85.9741424560547,25.100843911035156C85.67414245605468,25.400843811035156,85.12414145605469,25.400843811035156,84.87414145605469,25.700843811035156C83.82414245605469,25.500843811035157,82.42414245605468,25.600843911035156,81.77414345605469,25.150843811035156C79.92414245605468,23.650843811035156,78.12414145605469,23.400842781035156,75.57414245605469,22.500843011035155C75.12414145605469,22.700842811035155,73.67414245605468,22.900843801035155,73.17414245605468,22.450843811035156C72.92414245605468,22.750843821035158,72.2241424560547,22.450843811035156,71.92414245605468,22.450843811035156C70.12414245605468,22.750843821035158,65.82414245605469,25.200843811035156,63.37414265605469,25.350843911035156C62.27414225605469,25.200843811035156,62.62414265605469,25.550843711035157,61.47414255605469,25.500843811035157C60.97414255605469,25.050843711035157,59.27414245605469,25.200843811035156,58.92414245605469,24.900843811035156C58.624142456054685,25.000843811035157,58.32414245605469,24.950843811035156,58.07414245605469,24.750843811035157C57.624142466054685,24.650843811035156,57.52414244605469,24.650843811035156,57.07414245605469,24.750843811035157C57.624142466054685,25.100843911035156,58.17414245605469,25.550843711035157,58.67414245605469,26.000843811035157C64.12414265605469,30.750844011035156,65.67414285605469,38.30084381103516,63.12414265605469,44.65084481103516C65.52414225605469,45.600843811035155,65.27414225605469,44.250842811035156,66.82414245605469,44.850843811035155Z" fill="#0066B2" fill-opacity="1"/></svg>