<svg xmlns="http://www.w3.org/2000/svg" xmlns:xlink="http://www.w3.org/1999/xlink" fill="none" version="1.1" width="76.001953125" height="82" viewBox="0 0 76.001953125 82"><path d="M24.951849465234375,70.25C25.401849265234375,70.1500001,25.701849465234375,69.9000001,25.951849465234375,69.6500001C26.201848965234376,69.3,26.401849765234374,68.95,26.401849765234374,68.5C26.401849765234374,67.9,26.151849765234374,67.35000002,25.701849465234375,67C25.251849165234376,66.75,24.751849165234376,66.550000001,24.101849565234374,66.5C24.101849565234374,66.5,21.601849365234376,66.5,21.601849365234376,66.5C21.601849365234376,66.5,21.601849365234376,74.5,21.601849365234376,74.5C21.601849365234376,74.5,24.101849565234374,74.5,24.101849565234374,74.5C24.851849565234374,74.4000001,25.401849265234375,74.25,25.901849265234375,73.9000001C26.351849565234374,73.4499998,26.601849565234374,72.9499998,26.601849565234374,72.25C26.601849565234374,71.75,26.501849165234376,71.3000002,26.151849765234374,70.9499998C25.901849265234375,70.6500001,25.451849465234375,70.4000001,24.951849465234375,70.25C24.951849465234375,70.25,24.951849465234375,70.25,24.951849465234375,70.25C24.951849465234375,70.25,24.951849465234375,70.25,24.951849465234375,70.25ZM22.751849165234376,67.349998C22.751849165234376,67.349998,24.101849565234374,67.349998,24.101849565234374,67.349998C24.351849565234374,67.44999802,24.601849565234374,67.49999702,24.851849565234374,67.7C25.101849565234374,67.85,25.301849365234375,68.2,25.301849365234375,68.55C25.301849365234375,69,25.151849265234375,69.3499999,24.801849365234375,69.5C24.651849265234375,69.6500001,24.351849565234374,69.75,24.101849565234374,69.8499999C24.101849565234374,69.8499999,22.751849165234376,69.8499999,22.751849165234376,69.8499999C22.751849165234376,69.8499999,22.751849165234376,67.349998,22.751849165234376,67.349998C22.751849165234376,67.349998,22.751849165234376,67.349998,22.751849165234376,67.349998C22.751849165234376,67.349998,22.751849165234376,67.349998,22.751849165234376,67.349998ZM24.951849465234375,73.1999998C24.801849365234375,73.3499999,24.451849465234375,73.4499998,24.101849565234374,73.5500002C24.101849565234374,73.5500002,22.751849165234376,73.5500002,22.751849165234376,73.5500002C22.751849165234376,73.5500002,22.751849165234376,70.75,22.751849165234376,70.75C22.751849165234376,70.75,24.151849265234375,70.75,24.151849265234375,70.75C24.501849165234376,70.8499999,24.851849565234374,70.9000001,25.101849565234374,71.0999999C25.351849565234374,71.3499999,25.551849365234375,71.6999998,25.551849365234375,72.1500001C25.551849365234375,72.5999999,25.301849365234375,72.9499998,24.951849465234375,73.1999998C24.951849465234375,73.1999998,24.951849465234375,73.1999998,24.951849465234375,73.1999998C24.951849465234375,73.1999998,24.951849465234375,73.1999998,24.951849465234375,73.1999998ZM18.051849365234375,66.5C18.051849365234375,66.5,19.151849365234376,66.5,19.151849365234376,66.5C19.151849365234376,66.5,19.151849365234376,74.5,19.151849365234376,74.5C19.151849365234376,74.5,18.051849365234375,74.5,18.051849365234375,74.5C18.051849365234375,74.5,18.051849365234375,66.5,18.051849365234375,66.5C18.051849365234375,66.5,18.051849365234375,66.5,18.051849365234375,66.5ZM34.301849365234375,70.9499998C34.301849365234375,70.9499998,36.051849365234375,70.9499998,36.051849365234375,70.9499998C36.051849365234375,70.9499998,36.051849365234375,73.3000002,36.051849365234375,73.3000002C35.801849365234375,73.4000001,35.601848365234375,73.4499998,35.451849365234374,73.4499998C35.201849365234374,73.5500002,35.001850365234375,73.5500002,34.751850365234375,73.5500002C33.801849365234375,73.5500002,33.00184936523438,73.3000002,32.401849365234376,72.6999998C31.901849365234376,72.1999998,31.551849365234375,71.4499998,31.551849365234375,70.5C31.551849365234375,69.55,31.901849365234376,68.8,32.401849365234376,68.3C33.00184936523438,67.7,33.801849365234375,67.44999701,34.751850365234375,67.44999701C35.101848365234375,67.44999701,35.451849365234374,67.45000303,35.801849365234375,67.55C36.151849365234376,67.65,36.401849365234376,67.7,36.751850365234375,67.9C36.751850365234375,67.9,36.901849365234376,66.94999701,36.901849365234376,66.94999701C36.451849365234374,66.84999701,36.101848365234375,66.69999699,35.801849365234375,66.69999699C35.451849365234374,66.599996902,35.101848365234375,66.599998496,34.701849365234374,66.599998496C33.401849365234376,66.599998496,32.35184936523437,66.94999799,31.601849365234376,67.6C30.801849365234375,68.35,30.501849365234374,69.3,30.501849365234374,70.45C30.501849365234374,71.6500001,30.851849365234376,72.5500002,31.601849365234376,73.3000002C32.401849365234376,73.9499998,33.401849365234376,74.3000002,34.701849365234374,74.3000002C35.151849365234376,74.3000002,35.551849365234375,74.3000002,36.001850365234375,74.1999998C36.351848365234375,74.0999999,36.801849365234375,74.0500002,37.101848365234375,73.8499999C37.101848365234375,73.8499999,37.101848365234375,70,37.101848365234375,70C37.101848365234375,70,34.351848365234375,70,34.351848365234375,70C34.351848365234375,70,34.351848365234375,70.9499998,34.351848365234375,70.9499998C34.351848365234375,70.9499998,34.301849365234375,70.9499998,34.301849365234375,70.9499998C34.301849365234375,70.9499998,34.301849365234375,70.9499998,34.301849365234375,70.9499998C34.301849365234375,70.9499998,34.301849365234375,70.9499998,34.301849365234375,70.9499998Z" fill="#0062AB" fill-opacity="1"/><path d="M68.452003,0C68.452003,0,7.6519799,0,7.6519799,0C3.55198,0,0.0019816158,3.3499999,0.0019816158,7.5999999C0.0019816158,7.5999999,0.0019816158,74.400002,0.0019816158,74.400002C-0.098018393,78.449997,3.60198,82,7.6519799,82C7.6519799,82,68.452003,82,68.452003,82C72.601997,82,76.001999,78.449997,76.001999,74.400002C76.001999,74.400002,76.001999,7.5999999,76.001999,7.5999999C76.001999,3.3499999,72.751999,0,68.452003,0C68.452003,0,68.452003,0,68.452003,0C68.452003,0,68.452003,0,68.452003,0ZM73.152,74.400002C73.152,76.900002,70.751999,79.150002,68.402,79.150002C68.402,79.150002,7.6519799,79.150002,7.6519799,79.150002C5.3519802,79.150002,2.85198,76.650002,2.85198,74.400002C2.85198,74.400002,2.9519801,7.5999999,2.9519801,7.5999999C2.9519801,5.1999998,5.2519798,2.8499999,7.7019801,2.8499999C7.7019801,2.8499999,68.452003,2.8499999,68.452003,2.8499999C70.751999,2.8499999,73.202003,5.0999999,73.202003,7.5999999C73.202003,7.5999999,73.152,74.400002,73.152,74.400002C73.152,74.400002,73.152,74.400002,73.152,74.400002Z" fill="#0062AB" fill-opacity="1"/><path d="M16.151953225,66.5C16.151953225,66.5,14.951952925,66.5,14.951952925,66.5C14.951952925,66.5,13.001953125,69.650002,13.001953125,69.650002C13.001953125,69.650002,11.051953125,66.5,11.051953125,66.5C11.051953125,66.5,9.751953125,66.5,9.751953125,66.5C9.751953125,66.5,12.301953125,70.349998,12.301953125,70.349998C12.301953125,70.349998,9.501953125,74.5,9.501953125,74.5C9.501953125,74.5,10.701953125,74.5,10.701953125,74.5C10.701953125,74.5,12.901953225,70.949997,12.901953225,70.949997C12.901953225,70.949997,15.151953225,74.5,15.151953225,74.5C15.151953225,74.5,16.401953225,74.5,16.401953225,74.5C16.401953225,74.5,13.601953025,70.349998,13.601953025,70.349998C13.601953025,70.349998,16.151953225,66.5,16.151953225,66.5C16.151953225,66.5,16.151953225,66.5,16.151953225,66.5ZM64.101951125,66.650002C64.101951125,66.650002,61.651955125,66.650002,61.651955125,66.650002C61.651955125,66.650002,61.651955125,74.400002,61.651955125,74.400002C61.651955125,74.400002,62.751953125,74.400002,62.751953125,74.400002C62.751953125,74.400002,62.751953125,71.199997,62.751953125,71.199997C62.751953125,71.199997,64.051952125,71.199997,64.051952125,71.199997C64.751953125,71.099998,65.251953125,70.949997,65.701954125,70.599998C66.201954125,70.199997,66.501953125,69.650002,66.501953125,68.900002C66.501953125,68.150002,66.251953125,67.549999,65.801952125,67.200001C65.401955125,66.900002,64.751953125,66.75,64.101951125,66.650002C64.101951125,66.650002,64.101951125,66.650002,64.101951125,66.650002C64.101951125,66.650002,64.101951125,66.650002,64.101951125,66.650002ZM64.851951125,70.050003C64.701954125,70.199997,64.401955125,70.300003,64.051952125,70.400002C64.051952125,70.400002,62.801952125,70.400002,62.801952125,70.400002C62.801952125,70.400002,62.801952125,67.5,62.801952125,67.5C62.801952125,67.5,64.101951125,67.5,64.101951125,67.5C64.451954125,67.599998,64.701954125,67.650002,64.951954125,67.849998C65.201954125,68.099998,65.401955125,68.450001,65.401955125,68.950001C65.401955125,69.349998,65.201954125,69.799999,64.851951125,70.050003C64.851951125,70.050003,64.851951125,70.050003,64.851951125,70.050003C64.851951125,70.050003,64.851951125,70.050003,64.851951125,70.050003ZM58.651955125,71.150002C58.651955125,72,58.501953125,72.599998,58.151955125,73C57.901955125,73.400002,57.351951125,73.650002,56.751953125,73.650002C56.051952125,73.650002,55.651955125,73.400002,55.301952125,73.050003C55.051952125,72.650002,54.851951125,72.050003,54.851951125,71.199997C54.851951125,71.199997,54.851951125,66.650002,54.851951125,66.650002C54.851951125,66.650002,53.751953125,66.650002,53.751953125,66.650002C53.751953125,66.650002,53.751953125,71.199997,53.751953125,71.199997C53.751953125,72.300003,54.001953125,73.150002,54.551952125,73.75C55.051952125,74.25,55.751953125,74.5,56.701954125,74.5C57.751953125,74.5,58.451954125,74.25,58.951954125,73.650002C59.451954125,73.150002,59.751953125,72.300003,59.751953125,71.099998C59.751953125,71.099998,59.751953125,66.650002,59.751953125,66.650002C59.751953125,66.650002,58.701954125,66.650002,58.701954125,66.650002C58.701954125,66.650002,58.701954125,71.150002,58.701954125,71.150002C58.701954125,71.150002,58.651955125,71.150002,58.651955125,71.150002C58.651955125,71.150002,58.651955125,71.150002,58.651955125,71.150002C58.651955125,71.150002,58.651955125,71.150002,58.651955125,71.150002ZM52.051952125,31.6C57.401955125,29.799999,62.301952125,27,66.501953125,23.4C63.851951125,16.45,58.601951125,10.75,52.051952125,7.3C51.101951125,6.84999901,50.051952125,6.34999999,49.051952125,6C43.801952125,12.0999999,40.201954125,19.6,38.901953125,27.9C38.901953125,27.9,37.151953125,27.9,37.151953125,27.9C35.951954125,19.6,32.351953125,12.0500002,27.001953125,6C25.951954125,6.34999999,25.001953125,6.84999901,24.051953125,7.3C23.201953125,7.8,22.351953125,8.25,21.451953125,8.8499999C16.401953225,12.0999999,12.451953125,16.7,10.001953125,22.200001C9.851953115,22.65,9.651953135,22.950001,9.501953125,23.4C13.701952925,27,18.651952725,29.799999,24.051953125,31.6C26.451954125,32.450001,29.051952125,33.049999,31.651953125,33.5C31.651953125,33.5,31.651953125,35.200001,31.651953125,35.200001C29.051952125,35.549999,26.501953125,36.15,24.051953125,37C18.651952725,38.799999,13.701952925,41.599998,9.501953125,45.200001C12.251953125,52.049999,17.401953225,57.799999,24.051953125,61.200001C25.001953125,61.700001,25.951954125,62.150002,27.001953125,62.5C32.351953125,56.400002,35.951954125,48.900002,37.151953125,40.650002C37.151953125,40.650002,38.851953125,40.650002,38.851953125,40.650002C40.151953125,48.849998,43.751953125,56.400002,49.001953125,62.5C50.051952125,62.150002,51.051952125,61.75,52.001953125,61.200001C52.851951125,60.75,53.701954125,60.25,54.501953125,59.75C59.901955125,56.25,64.151955125,51.099998,66.451954125,45.200001C62.251953125,41.599998,57.301952125,38.799999,52.001953125,37C49.501953125,36.15,47.001953125,35.549999,44.401955125,35.200001C44.401955125,34.85,44.301952125,34.6,44.301952125,34.35C44.301952125,34,44.401955125,33.75,44.401955125,33.5C47.051952125,33.049999,49.551952125,32.450001,52.051952125,31.6C52.051952125,31.6,52.051952125,31.6,52.051952125,31.6ZM50.851951125,13.4499998C51.301952125,13.6999998,51.601951125,13.9499998,52.051952125,14.3000002C54.801952125,16.2,57.201954125,18.65,58.951954125,21.6C56.801952125,23.049999,54.451954125,24.25,52.051952125,25.299999C49.801952125,26.15,47.501953125,26.85,45.101951125,27.35C46.001953125,22.25,48.001953125,17.55,50.851951125,13.4499998C50.851951125,13.4499998,50.851951125,13.4499998,50.851951125,13.4499998ZM24.051953125,25.25C21.551953125,24.200001,19.251953125,23,17.101953025,21.55C18.901952725,18.65,21.251953125,16.15,24.051953125,14.25C24.401953125,13.9000001,24.801953125,13.6500001,25.251953125,13.4000001C28.001953125,17.5,30.001953125,22.200001,30.951954125,27.25C28.551952125,26.799999,26.201954125,26.1,24.051953125,25.25C24.051953125,25.25,24.051953125,25.25,24.051953125,25.25C24.051953125,25.25,24.051953125,25.25,24.051953125,25.25ZM25.251953125,55.049999C24.801953125,54.799999,24.401953125,54.549999,24.051953125,54.299999C21.201953125,52.349998,18.901952725,49.849998,17.101953025,46.950001C19.251953125,45.5,21.601953125,44.299999,24.051953125,43.349998C26.201954125,42.5,28.551952125,41.799999,30.951954125,41.400002C30.001953125,46.25,28.001953125,50.950001,25.251953125,55.049999C25.251953125,55.049999,25.251953125,55.049999,25.251953125,55.049999C25.251953125,55.049999,25.251953125,55.049999,25.251953125,55.049999ZM52.051952125,43.299999C54.451954125,44.25,56.801952125,45.450001,58.951954125,46.900002C57.251953125,49.799999,54.801952125,52.299999,52.051952125,54.25C51.601951125,54.5,51.301952125,54.75,50.851951125,55C48.001953125,50.900002,46.051952125,46.200001,45.101951125,41.299999C47.451954125,41.799999,49.801952125,42.450001,52.051952125,43.299999C52.051952125,43.299999,52.051952125,43.299999,52.051952125,43.299999C52.051952125,43.299999,52.051952125,43.299999,52.051952125,43.299999ZM42.601951125,70.900002C42.501953125,70.75,42.251953125,70.650002,42.101951125,70.550003C42.601951125,70.400002,43.051952125,70.199997,43.301952125,69.900002C43.651955125,69.549999,43.801952125,69.150002,43.801952125,68.650002C43.801952125,68.049999,43.551952125,67.549999,43.101951125,67.200001C42.651955125,66.849998,42.051952125,66.700001,41.301952125,66.700001C41.301952125,66.700001,38.901953125,66.700001,38.901953125,66.700001C38.901953125,66.700001,38.901953125,74.449997,38.901953125,74.449997C38.901953125,74.449997,40.001953125,74.449997,40.001953125,74.449997C40.001953125,74.449997,40.001953125,71,40.001953125,71C40.001953125,71,40.701954125,71,40.701954125,71C40.951954125,71,41.151953125,71,41.301952125,71.099998C41.401953125,71.199997,41.451954125,71.199997,41.551952125,71.199997C41.701954125,71.349998,41.901955125,71.599998,42.051952125,71.949997C42.051952125,71.949997,43.101951125,74.5,43.101951125,74.5C43.101951125,74.5,44.301952125,74.5,44.301952125,74.5C44.301952125,74.5,43.101951125,71.699997,43.101951125,71.699997C42.951954125,71.199997,42.751953125,70.949997,42.601951125,70.900002C42.601951125,70.900002,42.601951125,70.900002,42.601951125,70.900002C42.601951125,70.900002,42.601951125,70.900002,42.601951125,70.900002ZM41.301952125,70.099998C41.301952125,70.099998,40.001953125,70.099998,40.001953125,70.099998C40.001953125,70.099998,40.001953125,67.5,40.001953125,67.5C40.001953125,67.5,41.301952125,67.5,41.301952125,67.5C41.751953125,67.599998,42.001953125,67.650002,42.151955125,67.849998C42.501953125,68,42.651955125,68.349998,42.651955125,68.799999C42.651955125,69.25,42.501953125,69.549999,42.151955125,69.799999C42.001953125,69.950001,41.651955125,70.050003,41.301952125,70.099998C41.301952125,70.099998,41.301952125,70.099998,41.301952125,70.099998C41.301952125,70.099998,41.301952125,70.099998,41.301952125,70.099998ZM48.651955125,66.5C47.551952125,66.5,46.651955125,66.900002,46.051952125,67.599998C45.351951125,68.25,45.001953125,69.299999,45.001953125,70.550003C45.001953125,71.800003,45.351951125,72.75,46.051952125,73.5C46.651955125,74.150002,47.501953125,74.5,48.651955125,74.5C49.751953125,74.5,50.651955125,74.150002,51.251953125,73.5C51.951954125,72.75,52.301952125,71.800003,52.301952125,70.550003C52.301952125,69.299999,51.951954125,68.299999,51.251953125,67.599998C50.601951125,66.900002,49.751953125,66.5,48.651955125,66.5C48.651955125,66.5,48.651955125,66.5,48.651955125,66.5ZM50.451954125,72.800003C49.951954125,73.300003,49.401955125,73.650002,48.651955125,73.650002C47.901955125,73.650002,47.351951125,73.300003,46.851951125,72.800003C46.401955125,72.199997,46.251953125,71.449997,46.251953125,70.550003C46.251953125,69.549999,46.401955125,68.799999,46.851951125,68.299999C47.351951125,67.700001,47.901955125,67.349998,48.651955125,67.349998C49.401955125,67.349998,49.951954125,67.700001,50.451954125,68.299999C50.901955125,68.799999,51.051952125,69.549999,51.051952125,70.550003C51.051952125,71.449997,50.901955125,72.25,50.451954125,72.800003C50.451954125,72.800003,50.451954125,72.800003,50.451954125,72.800003Z" fill="#0062AB" fill-opacity="1"/></svg>