<svg xmlns="http://www.w3.org/2000/svg" xmlns:xlink="http://www.w3.org/1999/xlink" fill="none" version="1.1" width="85.00039672851562" height="85" viewBox="0 0 85.00039672851562 85"><path d="M15,42.5C15.95,44.400002,32.450001,61.549999,40.299999,69.400002C42,71.099998,43.450001,70.650002,45,69C50.5,63.400002,64.449997,50.25,65.5,48.650002C63.25,48.650002,47.299999,48.599998,41.450001,48.650002C38.900002,48.650002,36.950001,48.299999,37.150002,44.900002C37.200001,44.150002,35.799999,42.599998,35.049999,42.599998C28.700001,42.450001,22.35,42.5,15,42.5C15,42.5,15,42.5,15,42.5C15,42.5,15,42.5,15,42.5ZM44.450001,15.55C43.75,14.9,41.400002,14.75,40.5,15.55C35.75,19.9,21.5,34,19,36.700001C19,36.700001,39.799999,36.700001,39.799999,36.700001C43.5,36.700001,46.549999,37,45.150002,42.5C45.150002,42.5,70,42.5,70,42.5C69.650002,41.349998,52.900002,23.75,44.450001,15.55C44.450001,15.55,44.450001,15.55,44.450001,15.55ZM42.5,0C66.150002,0,85.099998,19.1,85,42.950001C84.900002,65.949997,65.599998,85,42.349998,85C19.049999,84.949997,0,66,0,42.799999C0,18.799999,18.65,0,42.5,0C42.5,0,42.5,0,42.5,0Z" fill="#CC1C20" fill-opacity="1"/></svg>