<svg xmlns="http://www.w3.org/2000/svg" xmlns:xlink="http://www.w3.org/1999/xlink" fill="none" version="1.1" width="94.5" height="47.02273941040039" viewBox="0 0 94.5 47.02273941040039"><path d="M0,46.897999C0,46.897999,24.9,0.49795839,24.9,0.49795839C24.9,0.49795839,34.299999,1.9479594,39.849998,9.6979589C45.400002,17.448,53.950001,42.798,67.050003,46.647999C67.050003,46.647999,51.599998,47.397999,45.200001,42.348C38.799999,37.298,36.299999,30.397999,36.299999,30.397999C36.299999,30.397999,32.650002,23.698,32.650002,23.698C32.650002,23.698,31.549999,21.798,29.200001,20.747999C26.65,19.598,22.549999,19.247999,19.35,22.747999C13.7,28.948,19.15,38.248001,27.9,36.348C27.9,36.348,30.950001,36.147999,30,38.947998C29.049999,41.798,24.35,46.897999,19.950001,46.897999C19.950001,46.897999,0,46.897999,0,46.897999C0,46.897999,0,46.897999,0,46.897999C0,46.897999,0,46.897999,0,46.897999ZM32,0.097956903C48.450001,-1.2520406,54.400002,11.797999,54.400002,11.797999C54.400002,11.797999,61.950001,24.948,66.75,34.197998C71.550003,43.447998,81,46.947998,81,46.947998C77.349998,47.248001,73.150002,46.548,73.150002,46.548C65.449997,45.348,58.599998,34.147999,53.450001,24.348C51.299999,20.247999,46.549999,11.297999,43.400002,7.7479596C38.650002,2.3479595,32,0.097956903,32,0.097956903C32,0.097956903,32,0.097956903,32,0.097956903C32,0.097956903,32,0.097956903,32,0.097956903ZM45.5,0.097956903C61.950001,-1.2520406,67.900002,11.797999,67.900002,11.797999C67.900002,11.797999,75.449997,24.948,80.25,34.197998C85.050003,43.447998,94.5,46.947998,94.5,46.947998C90.849998,47.248001,86.650002,46.548,86.650002,46.548C78.949997,45.348,72.099998,34.147999,66.949997,24.348C64.800003,20.247999,60.049999,11.297999,56.900002,7.7479596C52.150002,2.3479595,45.5,0.097956903,45.5,0.097956903C45.5,0.097956903,45.5,0.097956903,45.5,0.097956903C45.5,0.097956903,45.5,0.097956903,45.5,0.097956903Z" fill="#E50113" fill-opacity="1"/></svg>