<svg xmlns="http://www.w3.org/2000/svg" xmlns:xlink="http://www.w3.org/1999/xlink" fill="none" version="1.1" width="85" height="85" viewBox="0 0 85 85"><path d="M83.97559316902161,125.34115625097655C83.97559316902161,102.47125825097656,65.4348901690216,83.93055725097656,42.56499416902161,83.93055725097656C19.693494169021605,83.93055725097656,1.1527931690216064,102.47125825097656,1.1527931690216064,125.34115625097655C1.1527931690216064,148.21115925097655,19.693494169021605,166.75175525097654,42.56499416902161,166.75175525097654C65.4348901690216,166.75175525097654,83.97559316902161,148.21115925097655,83.97559316902161,125.34115625097655C83.97559316902161,125.34115625097655,83.97559316902161,125.34115625097655,83.97559316902161,125.34115625097655Z" fill="#FFFFFF" fill-opacity="1" transform="matrix(1,0,0,-1,0,167.86111450195312)"/><path d="M69.51229846801758,84.70734224755859C67.98549846801758,87.0761412475586,63.40169946801758,89.0020412475586,62.96659846801758,89.14654124755859C62.53309846801758,89.2926402475586,62.883398468017575,89.52504124755859,63.01219946801758,89.6036412475586C65.86169846801758,91.3472402475586,67.86289746801758,93.84494224755859,68.06559946801758,98.1506422475586C68.27289746801758,102.44684224755859,67.20319946801757,103.9705432475586,64.92389846801758,105.9090422475586C62.66819746801758,107.82224224755859,59.63329846801758,107.51124224755858,58.39389846801758,107.48614124755859C56.92829846801758,107.4610402475586,49.47305866801758,107.47194324755858,48.91069836801758,107.47194324755858C48.169258568017575,107.47194324755858,47.31942846801758,107.47194324755858,44.39137547801758,107.51124224755858C44.044218898017576,107.51284024755859,43.86985449801758,107.2913402475586,44.04578929401758,107.2033422475586C44.21386949801758,107.11693924755859,44.90975451801758,106.6300432475586,45.487828468017575,105.9341432475586C46.014058568017575,105.3010402475586,46.43975856801758,103.91403924755859,46.43975856801758,103.39723924755859C46.43975856801758,103.39723924755859,46.46645856801758,67.68876124755859,46.46645856801758,67.68876124755859C46.46645856801758,66.6849913475586,45.569508568017575,65.58069228755859,44.90975451801758,65.1801263075586C44.24842849801758,64.7764192875586,44.883049488017576,64.6931636915586,45.11238846801758,64.6931636915586C45.11238846801758,64.6931636915586,54.980398468017576,64.6271881905586,55.962198468017576,64.6931636915586C56.94089846801758,64.74500159155859,58.66879846801758,64.7481435905586,60.31189946801758,64.8863782875586C61.956598468017575,65.03403728755859,66.25439846801757,66.47764134755859,68.82119946801758,69.1889214475586C71.38789946801758,71.90020134755859,71.67539746801758,75.5037412475586,71.70369946801758,77.46724124755859C71.73189946801757,79.43084124755859,71.04079846801758,82.33844224755859,69.51229846801758,84.70734224755859C69.51229846801758,84.70734224755859,69.51229846801758,84.70734224755859,69.51229846801758,84.70734224755859ZM53.98139846801758,104.31774124755859C54.03479846801758,104.9743422475586,54.99459846801758,105.63414024755859,55.75639846801758,105.63414024755859C56.77119846801758,105.63414024755859,58.69859846801758,105.1282422475586,59.90979846801758,103.70664224755859C60.85539846801758,102.60554124755859,61.98479846801758,100.66864024755859,61.93769846801758,97.8317412475586C61.86699846801758,93.80404124755859,60.05579746801757,91.87664224755859,58.24149846801758,90.93724024755859C56.77119846801758,90.1754412475586,56.41309846801758,90.12514124755859,55.60249846801758,90.12514124755859C54.79669846801758,90.12514124755859,53.98139846801758,90.1801412475586,53.98139846801758,91.29224224755859C53.98139846801758,91.29224224755859,53.98139846801758,104.31774124755859,53.98139846801758,104.31774124755859C53.98139846801758,104.31774124755859,53.98139846801758,104.31774124755859,53.98139846801758,104.31774124755859ZM62.24249846801758,69.8078413475586C60.321298468017574,67.8301413475586,58.28859846801758,67.27092124755859,56.51669846801758,67.0180113475586C56.04079846801758,66.95361134755859,54.99459846801758,67.0274412475586,54.57829846801758,67.48455114755859C54.16989846801758,67.93853144755859,54.03479846801758,68.5982813475586,54.03479846801758,69.0475511475586C54.03479846801758,69.0475511475586,53.98139846801758,86.0189422475586,53.98139846801758,86.0189422475586C53.98139846801758,86.88454024755859,55.04639846801758,87.34004224755859,55.55069846801758,87.34004224755859C56.059598468017576,87.34004224755859,57.47649846801758,87.34004224755859,57.883398468017575,87.23954224755859C58.28859846801758,87.1326412475586,61.686397468017574,86.0723422475586,63.00429946801758,83.6391412475586C64.32069746801758,81.20904124755859,64.52489846801758,79.53924124755859,64.52489846801758,77.45784124755859C64.52489846801758,75.3827412475586,63.94369846801758,71.5530414475586,62.24249846801758,69.8078413475586Z" fill="#D0121B" fill-opacity="1" transform="matrix(1,0,0,-1,0,129.3276824951172)"/><path d="M43.926441637207034,79.0694969553711C37.56614063720703,79.0694969553711,34.31443963720703,82.02425715537109,33.51484063720703,88.0107377553711C33.46304163720703,88.4506367553711,33.35784163720703,89.2171377553711,33.58084063720703,89.59263675537109C34.85954063720703,90.2460367553711,37.539440637207036,92.6871367553711,38.356241637207035,93.7726367553711C40.12973963720703,96.13513775537109,40.75493963720703,98.71603775537109,40.65284163720703,102.02423675537109C40.533441637207034,105.6827377553711,38.86834163720703,109.13233575537109,36.526241637207036,111.6834377553711C35.60724063720703,112.68553575537109,34.41974063720703,113.8967357553711,33.39233963720703,115.14083875537109C33.37984063720703,115.1643367553711,33.46774063720703,129.0757367553711,33.46774063720703,129.0522387553711C36.17274063720703,129.0522387553711,38.06723963720703,125.2005387553711,38.79133963720703,123.0987357553711C38.79133963720703,123.0987357553711,39.05214163720703,123.0987357553711,39.05214163720703,123.0987357553711C39.05214163720703,123.0987357553711,39.05214163720703,132.8269387553711,39.05214163720703,132.8269387553711C38.70184163720703,132.8269387553711,38.79133963720703,132.9149357553711,38.79133963720703,132.55363875537108C38.370340637207036,132.3494377553711,37.84104163720703,132.1389347553711,37.36503963720703,131.8938367553711C36.296840637207026,131.3896367553711,35.15174063720703,131.3252377553711,33.61223963720703,131.9080357553711C33.61223963720703,132.97303775537108,33.59024063720703,133.5495377553711,33.79294063720703,134.69473675537108C34.07254063720703,136.4446377553711,34.78884163720703,137.8301357553711,35.65904063720703,139.2501377553711C36.92204063720703,141.3393397553711,38.59184063720703,142.5112377553711,40.91824163720703,143.1835407553711C46.997440637207035,144.9507367553711,51.92673863720703,139.44493875537108,53.64374163720703,134.4480357553711C53.64374163720703,134.4480357553711,53.92013963720703,134.4480357553711,53.92013963720703,134.4480357553711C53.92013963720703,134.4480357553711,53.92013963720703,143.09083575537107,53.92013963720703,143.09083575537107C53.92013963720703,143.09083575537107,53.64374163720703,143.09083575537107,53.64374163720703,143.09083575537107C53.64374163720703,143.09083575537107,53.64374163720703,142.8191377553711,53.64374163720703,142.8191377553711C50.86804163720703,142.8191377553711,49.928642637207034,144.0836337553711,47.64464163720703,144.84394075537108C45.24594163720703,145.6513367553711,42.91324063720703,146.2592387553711,39.87054063720703,145.7927397553711C35.00563963720703,144.8690337553711,31.37544063720703,143.4835357553711,28.65784063720703,138.1631357553711C27.899140637207033,136.81373575537108,27.31634063720703,135.2759357553711,26.90474063720703,133.6375347553711C26.90474063720703,133.05003775537108,25.52871033720703,132.8850367553711,25.04803083720703,132.7107357553711C20.426600437207032,131.0582347553711,16.78067063720703,128.17253875537108,16.18532162720703,122.8159367553711C15.563266387207031,117.41693875537109,18.486610637207033,113.4615367553711,22.588090437207033,110.70003475537109C23.708100337207032,109.9507367553711,24.83439063720703,109.2218357553711,25.96074063720703,108.47573675537109C25.92614063720703,106.4273377553711,25.92614063720703,94.5659367553711,25.91984063720703,92.3415367553711C25.91514063720703,91.4336367553711,25.01190093720703,91.4650377553711,24.19663043720703,91.7572377553711C20.59782073720703,93.0201367553711,16.81837053720703,97.5693377553711,16.09421163720703,101.2200377553711C15.64337863820703,101.2200377553711,15.81460162720703,100.8147377553711,15.81460162720703,100.4063377553711C15.74077163720703,96.6237377553711,15.643378839207031,92.8395367553711,15.553840637207031,89.0663367553711C15.553840637207031,89.0663367553711,15.819314627207032,89.0663367553711,15.819314627207032,89.0663367553711C15.819314627207032,89.1417367553711,17.324180637207032,91.5121377553711,19.30188063720703,91.26863675537109C20.082590537207032,91.18543675537109,26.12564063720703,88.6799377553711,26.565440637207033,88.2008367553711C26.879640637207032,86.73050685537109,27.792340637207033,85.5900773553711,28.40334063720703,84.28784705537109C31.27954063720703,79.29098705537109,34.62704063720703,77.66202199537109,39.87054063720703,77.1986229793711C42.182840637207036,76.9912709753711,43.951539637207034,77.2850189853711,45.78634063720703,77.81753599537109C49.281440637207034,78.8228769553711,56.09263963720703,83.5039968553711,54.73854063720703,85.5492372553711C52.79384263720703,82.9934668553711,48.04053863720703,79.26585695537109,43.926441637207034,79.0694969553711C43.926441637207034,79.0694969553711,43.926441637207034,79.0694969553711,43.926441637207034,79.0694969553711ZM26.292140637207034,117.8536377553711C26.20574063720703,117.8536377553711,24.680450437207032,118.6610377553711,23.472470737207033,119.6900367553711C20.382620837207032,122.3384357553711,19.74800063720703,127.2127377553711,23.525880837207033,129.6522367553711C24.46053023720703,130.2240367553711,25.431320237207032,130.5508387553711,26.292140637207034,130.8885387553711C26.19634063720703,129.26903575537108,26.36284063720703,117.85993575537108,26.292140637207034,117.8536377553711C26.292140637207034,117.8536377553711,26.292140637207034,117.8536377553711,26.292140637207034,117.8536377553711C26.292140637207034,117.8536377553711,26.292140637207034,117.8536377553711,26.292140637207034,117.8536377553711ZM33.120639637207034,105.00413675537109C36.10364163720703,102.5740377553711,37.48754163720703,98.76943775537109,35.67794063720703,95.0795367553711C34.71034063720703,93.10343775537109,33.13004063720703,92.29603675537109,33.02324063720703,92.29603675537109C32.96514163720703,92.57723675537109,33.133140637207035,101.03303675537109,33.120639637207034,105.00413675537109C33.120639637207034,105.00413675537109,33.120639637207034,105.00413675537109,33.120639637207034,105.00413675537109Z" fill="#D0121B" fill-opacity="1" transform="matrix(1,0,0,-1,0,154.2634735107422)"/><path d="M42.503899,170C19.070101,170,0,150.936203,0,127.50550100000001C0,104.062201,19.070101,85,42.503899,85C65.931503,85,85,104.062201,85,127.50550100000001C85,150.936203,65.931503,170,42.503899,170C42.503899,170,42.503899,170,42.503899,170ZM42.503899,87.63431C20.5184,87.63431,2.63588,105.5184,2.63588,127.50550100000001C2.63588,149.4832,20.5184,167.372002,42.503899,167.372002C64.480003,167.372002,82.367302,149.4832,82.367302,127.50550100000001C82.367302,105.5184,64.480003,87.63431,42.503899,87.63431C42.503899,87.63431,42.503899,87.63431,42.503899,87.63431Z" fill="#D0121B" fill-opacity="1" transform="matrix(1,0,0,-1,0,170)"/></svg>