<svg xmlns="http://www.w3.org/2000/svg" xmlns:xlink="http://www.w3.org/1999/xlink" fill="none" version="1.1" width="85.0635986328125" height="85.0999984741211" viewBox="0 0 85.0635986328125 85.0999984741211"><path d="M38.663601,84.949997C38.663601,84.949997,38.663601,84.900002,38.663601,84.900002C36.613602,84.75,34.763599,84.400002,32.9636,84C31.313601,83.550003,29.6136,83.099998,28.2136,82.599998C27.263599,82.199997,26.313601,81.849998,25.3636,81.5C23.4636,80.599998,21.663601,79.599998,19.9636,78.599998C17.4636,77,15.1636,75.199997,13.2136,73.349998C10.9136,71.050003,9.0636301,68.800003,7.3136301,66.400002C6.8636298,65.650002,6.41363,64.900002,5.91363,64.199997C4.7636299,62.200001,3.7636299,60.150002,2.96363,58.200001C2.16363,56.049999,1.46363,53.849998,1.01363,51.849998C1.01363,51.849998,0.41362697,48.849998,0.41362697,48.849998C0.21362698,47.349998,0.063627273,45.75,0.013627275,44.400002C-0.036372725,42.549999,0.063625678,40.599998,0.11362597,38.900002C0.21362598,38.200001,0.26362598,37.599998,0.31362596,36.950001C0.41362599,36.099998,0.563627,35.200001,0.76362699,34.349998C1.01363,33.150002,1.31363,32,1.56363,30.85C2.1136301,29.15,2.71363,27.549999,3.2636299,26C3.6136301,25.200001,3.96363,24.450001,4.3136301,23.700001C5.16363,22.049999,6.0636301,20.549999,7.0136299,19C7.7636299,17.85,8.6136303,16.799999,9.4136295,15.7C10.0136,15,10.6136,14.3,11.2136,13.65C12.2136,12.65,13.2136,11.65,14.2636,10.65C15.2636,9.8500004,16.2136,9,17.263599,8.1999998C18.913601,7.0500002,20.563601,6,22.413601,4.9499998C24.513599,3.9000001,26.663601,2.95,28.9636,2.1500001C29.913601,1.85,30.8636,1.55,31.813601,1.3C33.163601,1,34.513599,0.75,35.863602,0.5C35.863602,0.5,39.4636,0.0500011,39.4636,0.0500011C39.4636,0.0500011,39.4636,11.85,39.4636,11.85C38.263599,11.95,37.113602,12.2,36.063599,12.35C35.013599,12.65,33.9636,12.95,32.9636,13.2C31.513599,13.7,30.263599,14.2,28.8636,14.85C26.663601,15.95,24.813601,17.299999,22.913601,18.75C22.413601,19.15,21.9636,19.549999,21.513599,19.950001C20.663601,20.85,19.813601,21.75,19.013599,22.65C18.413601,23.4,17.813601,24.200001,17.263599,24.950001C16.813601,25.6,16.3636,26.35,15.9136,27.049999C14.5636,29.450001,13.5136,32,12.7636,34.75C12.5636,35.599998,12.3636,36.5,12.2136,37.400002C11.9636,39.25,11.8136,41.200001,11.8136,43.200001C11.8636,44,11.9136,44.75,11.9636,45.549999C12.0136,46.25,12.1136,47,12.2136,47.700001C12.5636,49.400002,13.0136,51.150002,13.6136,53.049999C14.1636,54.450001,14.7636,55.849998,15.6136,57.450001C16.013599,58.150002,16.4636,58.900002,16.913601,59.650002C17.763599,60.75,18.6136,61.849998,19.413601,62.950001C20.263599,63.799999,21.163601,64.699997,22.063601,65.550003C23.7136,67,25.6136,68.349998,27.813601,69.599998C27.813601,55.849998,27.8636,42.200001,27.8636,28.450001C27.9636,28.25,28.013599,28,28.063601,27.799999C28.6136,26.799999,29.2136,26.299999,30.3636,26C35.4636,25.950001,40.613602,25.950001,45.7136,25.950001C45.7136,17.299999,45.763599,8.6499996,45.763599,3.5527137e-15C48.513599,0.25,51.2136,0.75,54.113602,1.5C55.263599,1.85,56.413601,2.25,57.563599,2.5999999C59.163601,3.2,60.863602,4.0500002,62.613602,4.9000001C64.9636,6.1999998,67.163597,7.6500001,69.4636,9.4499998C69.913597,9.8500004,70.363602,10.25,70.863602,10.65C71.4636,11.25,72.113602,11.85,72.7136,12.45C73.263603,13.05,73.813599,13.6,74.363602,14.25C75.9636,16.15,77.513603,18.25,78.9636,20.549999C78.9636,20.549999,80.763603,23.85,80.763603,23.85C81.4636,25.4,82.2136,27.15,82.863602,29C84.063599,32.849998,84.813599,36.849998,85.063599,41.049999C85.063599,41.049999,85.063599,44.049999,85.063599,44.049999C85.013603,44.950001,84.913597,45.900002,84.863602,46.75C84.663597,48.400002,84.413597,50.150002,84.013603,52C83.413597,54.349998,82.7136,56.700001,81.763603,59.049999C81.363602,59.849998,81.013603,60.700001,80.663597,61.549999C80.013603,62.700001,79.313599,63.900002,78.663597,65.099998C77.663597,66.5,76.663597,67.900002,75.7136,69.25C75.013603,70.050003,74.363602,70.800003,73.7136,71.599998C72.863602,72.449997,71.9636,73.300003,71.063599,74.199997C68.813599,76.099998,66.313599,78,63.763599,79.550003C62.9636,79.949997,62.2136,80.349998,61.4636,80.800003C58.113602,82.400002,54.413601,83.75,50.813599,84.449997C49.413601,84.650002,47.663601,85.050003,46.4636,85.050003C46.4636,85.050003,46.4636,85.099998,46.4636,85.099998C46.4636,85.099998,45.663601,85.099998,45.663601,85.099998C45.663601,85.099998,45.663601,73.349998,45.663601,73.349998C47.513599,73.150002,49.263599,72.75,51.263599,72.25C52.7136,71.800003,54.2136,71.199997,55.7136,70.550003C55.7136,70.550003,57.9636,69.349998,57.9636,69.349998C60.013599,68.099998,61.9636,66.599998,63.813599,65C64.663597,64.099998,65.563599,63.25,66.263603,62.349998C67.563599,60.599998,68.913597,58.650002,69.913597,56.75C70.563599,55.450001,71.063599,54.099998,71.613602,52.849998C72.063599,51.200001,72.513603,49.599998,72.863602,48.049999C72.9636,47.400002,73.013603,46.75,73.163597,46.150002C73.313599,43.799999,73.313599,41.549999,73.2136,39.400002C72.9636,37.150002,72.413597,34.900002,71.813599,32.900002C71.413597,31.9,71.063599,30.950001,70.7136,30C70.313599,29.25,69.9636,28.450001,69.563599,27.700001C68.663597,26.15,67.613602,24.65,66.7136,23.450001C65.563599,22.15,64.413597,20.9,63.413601,19.85C62.7136,19.299999,62.063599,18.75,61.413601,18.15C60.013599,17.15,58.7136,16.299999,57.363602,15.5C57.313599,29.15,57.313599,42.799999,57.313599,56.450001C57.163601,57.5,56.613602,58.200001,55.763599,58.799999C55.363602,58.900002,55.013599,59.049999,54.663601,59.150002C49.613602,59.150002,44.513599,59.150002,39.4636,59.200001C39.4636,59.200001,39.4636,84.949997,39.4636,84.949997C39.4636,84.949997,38.663601,84.949997,38.663601,84.949997C38.663601,84.949997,38.663601,84.949997,38.663601,84.949997C38.663601,84.949997,38.663601,84.949997,38.663601,84.949997ZM38.063599,47.450001C38.063599,47.450001,47.563599,47.450001,47.563599,47.450001C47.563599,47.450001,47.563599,37.950001,47.563599,37.950001C47.563599,37.950001,38.063599,37.950001,38.063599,37.950001C38.063599,37.950001,38.063599,47.450001,38.063599,47.450001C38.063599,47.450001,38.063599,47.450001,38.063599,47.450001Z" fill="#C00415" fill-opacity="1"/></svg>