<svg xmlns="http://www.w3.org/2000/svg" xmlns:xlink="http://www.w3.org/1999/xlink" fill="none" version="1.1" width="74.79499816894531" height="88" viewBox="0 0 74.79499816894531 88"><path d="M74.794998,1.09043C74.791199,0.48700601,74.337097,0,73.784203,0C73.784203,0,1.01282,0,1.01282,0C0.45208001,0,0,0.48700601,0,1.09043C0,1.09043,0,42.790501,0,42.790501C0,42.790501,60.819401,42.790501,60.819401,42.790501C63.4077,41.232399,74.261497,34.707401,74.261497,34.707401C74.620399,34.476501,74.794998,34.1311,74.794998,33.725601C74.794998,33.725601,74.794998,1.09043,74.794998,1.09043C74.794998,1.09043,74.794998,1.09043,74.794998,1.09043ZM74.794998,46.299999C74.791199,45.696499,74.337097,45.211498,73.784203,45.211498C73.784203,45.211498,0,45.211498,0,45.211498C0,45.211498,0,86.927002,0,86.927002C0,87.522697,0.44043899,88,0.98953199,88C0.98953199,88,60.819401,88,60.819401,88C63.4077,86.438103,74.261497,79.913002,74.261497,79.913002C74.620399,79.689903,74.794998,79.3367,74.794998,78.942902C74.794998,78.942902,74.794998,46.299999,74.794998,46.299999C74.794998,46.299999,74.794998,46.299999,74.794998,46.299999Z" fill-rule="evenodd" fill="#00295A" fill-opacity="1"/></svg>