<svg xmlns="http://www.w3.org/2000/svg" xmlns:xlink="http://www.w3.org/1999/xlink" fill="none" version="1.1" width="85.0000228881836" height="85" viewBox="0 0 85.0000228881836 85"><defs><radialGradient cx="0" cy="0" r="1" gradientUnits="userSpaceOnUse" id="master_svg0_0_4056" gradientTransform="translate(63.99322951428576 18.58129806816578) rotate(90) scale(34.9438001960516 28.731043956773547)"><stop offset="0%" stop-color="#FAD700" stop-opacity="1"/><stop offset="100%" stop-color="#722058" stop-opacity="1"/></radialGradient></defs><path d="M82.748299,37.064301C82.748299,37.064301,65.122398,19.438,65.122398,19.438C51.717899,42.0653,62.804302,56.767399,62.804302,56.767399C62.804302,56.767399,39.756702,44.146297,39.756702,44.146297C39.756702,44.146297,17.5319,59.510601,17.5319,59.510601C39.071201,30.152699,25.900101,17.668699,25.900101,17.668699C25.900101,17.668699,47.0275,28.6439,47.0275,28.6439C47.0275,28.6439,63.515499,17.8307,63.515499,17.8307C63.515499,17.8307,47.935699,2.2515593,47.935699,2.2515593C44.933601,-0.75051975,40.0662,-0.75051975,37.064503,2.2515593C37.064503,2.2515593,2.2518408,37.064301,2.2518408,37.064301C-0.75100309,40.066399,-0.75022411,44.9338,2.2518408,47.935501C2.2518408,47.935501,37.064503,82.747902,37.064503,82.747902C40.066902,85.750702,44.933601,85.750702,47.935699,82.747902C47.935699,82.747902,82.748299,47.935501,82.748299,47.935501C85.750404,44.9338,85.750801,40.065998,82.748299,37.064301C82.748299,37.064301,82.748299,37.064301,82.748299,37.064301C82.748299,37.064301,82.748299,37.064301,82.748299,37.064301Z" fill-rule="evenodd" fill="url(#master_svg0_0_4056)" fill-opacity="1"/></svg>