<svg xmlns="http://www.w3.org/2000/svg" xmlns:xlink="http://www.w3.org/1999/xlink" fill="none" version="1.1" width="85" height="85" viewBox="0 0 85 85"><path d="M68.849998,33.299999C77.75,33.299999,85,40.549999,85,49.400002C85,58.299999,77.75,65.5,68.849998,65.5C67.550003,65.5,66.25,65.349998,65,65.050003C65.300003,66.25,65.449997,67.5,65.449997,68.75C65.449997,77.650002,58.25,84.900002,49.349998,84.900002C47.900002,84.900002,46.5,84.699997,45.150002,84.349998C47,83.25,48.599998,81.800003,49.950001,80.099998C55.950001,79.800003,60.700001,74.800003,60.700001,68.75C60.700001,62.5,55.599998,57.400002,49.299999,57.400002C43.049999,57.400002,37.950001,62.5,37.950001,68.800003C37.950001,68.800003,37.950001,68.849998,37.950001,68.849998C37.950001,68.849998,35.599998,70.550003,35.599998,70.550003C35.599998,70.550003,33.200001,68.650002,33.200001,68.650002C33.299999,59.849998,40.450001,52.700001,49.299999,52.700001C50.650002,52.700001,51.900002,52.849998,53.150002,53.150002C52.849998,51.950001,52.700001,50.700001,52.700001,49.400002C52.700001,47.900002,52.900002,46.5,53.299999,45.099998C54.400002,46.900002,55.849998,48.5,57.5,49.849998C57.75,55.900002,62.75,60.75,68.849998,60.75C75.099998,60.75,80.199997,55.650002,80.199997,49.400002C80.199997,43.150002,75.099998,38.049999,68.849998,38.049999C65.900002,38.049999,63.25,39.150002,61.25,41C60.299999,39.650002,59.700001,38,59.599998,36.25C62.25,34.400002,65.449997,33.299999,68.849998,33.299999C68.849998,33.299999,68.849998,33.299999,68.849998,33.299999C68.849998,33.299999,68.849998,33.299999,68.849998,33.299999ZM16.15,51.700001C7.25,51.700001,0,44.450001,0,35.599998C0,26.700001,7.25,19.5,16.15,19.5C17.450001,19.5,18.75,19.65,20,19.950001C19.700001,18.75,19.549999,17.5,19.549999,16.25C19.549999,7.3499999,26.75,0.1,35.650002,0.1C37.099998,0.1,38.5,0.30000001,39.849998,0.64999998C38,1.75,36.400002,3.2,35.049999,4.9000001C29.049999,5.1999998,24.299999,10.2,24.299999,16.25C24.299999,22.5,29.4,27.6,35.700001,27.6C41.950001,27.6,47.049999,22.5,47.049999,16.200001C47.049999,16.200001,47.049999,16.15,47.049999,16.15C47.049999,16.15,49.400002,14.45,49.400002,14.45C49.400002,14.45,51.799999,16.35,51.799999,16.35C51.700001,25.15,44.549999,32.299999,35.700001,32.299999C34.349998,32.299999,33.099998,32.150002,31.85,31.85C32.150002,33.049999,32.299999,34.299999,32.299999,35.599998C32.299999,37.099998,32.099998,38.5,31.700001,39.900002C30.6,38.099998,29.15,36.5,27.5,35.150002C27.25,29.1,22.25,24.25,16.15,24.25C9.8999996,24.25,4.8000002,29.35,4.8000002,35.599998C4.8000002,41.849998,9.8999996,46.950001,16.15,46.950001C19.1,46.950001,21.75,45.849998,23.75,44C24.700001,45.349998,25.299999,47,25.4,48.75C22.75,50.599998,19.549999,51.700001,16.15,51.700001C16.15,51.700001,16.15,51.700001,16.15,51.700001C16.15,51.700001,16.15,51.700001,16.15,51.700001ZM51.75,68.849998C51.75,77.75,44.549999,85,35.650002,85C26.75,85,19.5,77.800003,19.5,68.900002C19.5,67.550003,19.65,66.199997,20,64.949997C18.75,65.25,17.450001,65.400002,16.15,65.400002C7.25,65.400002,0,58.150002,0,49.299999C0,47.849998,0.199999,46.450001,0.549999,45.099998C1.65,46.950001,3.0999999,48.549999,4.75,49.900002C5.0500002,55.900002,10.05,60.650002,16.1,60.650002C22.35,60.650002,27.450001,55.549999,27.450001,49.299999C27.450001,43.049999,22.35,37.950001,16.1,37.950001C16.1,37.950001,16.049999,37.950001,16.049999,37.950001C16.049999,37.950001,14.35,35.599998,14.35,35.599998C14.35,35.599998,16.25,33.200001,16.25,33.200001C25.049999,33.299999,32.200001,40.5,32.200001,49.299999C32.200001,50.650002,32.049999,51.950001,31.700001,53.200001C32.900002,52.900002,34.200001,52.75,35.5,52.75C37,52.75,38.450001,52.950001,39.799999,53.349998C38,54.450001,36.400002,55.900002,35.049999,57.549999C29,57.799999,24.15,62.799999,24.15,68.900002C24.15,75.150002,29.25,80.25,35.549999,80.25C41.799999,80.25,46.900002,75.150002,46.900002,68.849998C46.900002,65.949997,45.799999,63.25,43.950001,61.25C45.299999,60.299999,46.950001,59.700001,48.700001,59.599998C50.650002,62.200001,51.75,65.400002,51.75,68.849998C51.75,68.849998,51.75,68.849998,51.75,68.849998C51.75,68.849998,51.75,68.849998,51.75,68.849998ZM33.25,16.15C33.25,7.25,40.450001,0,49.349998,0C58.25,0,65.5,7.1999998,65.5,16.1C65.5,17.450001,65.349998,18.799999,65,20.049999C66.25,19.75,67.550003,19.6,68.849998,19.6C77.75,19.6,85,26.85,85,35.700001C85,37.150002,84.800003,38.549999,84.449997,39.900002C83.349998,38.049999,81.900002,36.450001,80.25,35.099998C79.949997,29.1,74.949997,24.35,68.900002,24.35C62.650002,24.35,57.549999,29.450001,57.549999,35.700001C57.549999,41.950001,62.650002,47.049999,68.900002,47.049999C68.900002,47.049999,68.949997,47.049999,68.949997,47.049999C68.949997,47.049999,70.650002,49.400002,70.650002,49.400002C70.650002,49.400002,68.75,51.799999,68.75,51.799999C59.950001,51.700001,52.799999,44.5,52.799999,35.700001C52.799999,34.349998,52.950001,33.049999,53.299999,31.799999C52.049999,32.099998,50.799999,32.25,49.5,32.25C48,32.25,46.549999,32.049999,45.200001,31.65C47,30.549999,48.599998,29.1,49.950001,27.450001C56,27.200001,60.849998,22.200001,60.849998,16.1C60.849998,9.8500004,55.75,4.75,49.450001,4.75C43.200001,4.75,38.099998,9.8500004,38.099998,16.15C38.099998,19.049999,39.200001,21.75,41.049999,23.75C39.700001,24.700001,38.049999,25.299999,36.299999,25.4C34.349998,22.799999,33.25,19.6,33.25,16.15C33.25,16.15,33.25,16.15,33.25,16.15C33.25,16.15,33.25,16.15,33.25,16.15Z" fill="#CA7038" fill-opacity="1"/></svg>