<svg xmlns="http://www.w3.org/2000/svg" xmlns:xlink="http://www.w3.org/1999/xlink" fill="none" version="1.1" width="83.9716796875" height="87" viewBox="0 0 83.9716796875 87"><path d="M74.10003662109375,44.799999C72.85003662109375,43.700001,72.75003862109375,42.849998,73.95003462109375,41.799999C76.60003662109375,39.150002,79.30003762109375,36.5,81.95003462109375,33.849998C83.65003962109375,32.099998,84.60003662109375,29.5,83.50003862109375,26.700001C77.05003762109375,11.3,62.00003862109375,0.40000001,44.40003562109375,0C44.40003562109375,0,44.40003562109375,12.9,44.40003562109375,12.9C55.15003562109375,13.25,64.35003662109375,19,69.50003862109375,27.700001C69.50003862109375,27.700001,63.30003762109375,33.950001,63.30003762109375,33.950001C63.30003762109375,33.950001,50.00003862109375,20.450001,50.00003862109375,20.450001C46.35003662109375,16.75,40.35003662109375,16.75,36.70003662109375,20.450001C36.70003662109375,20.450001,20.75003672109375,36.599998,20.75003672109375,36.599998C17.05003661109375,40.349998,17.05003661109375,46.349998,20.75003672109375,50.099998C20.75003672109375,50.099998,36.15003562109375,65.699997,36.15003562109375,65.699997C39.80003762109375,69.400002,45.75003662109375,69.400002,49.45003662109375,65.699997C49.45003662109375,65.699997,63.05003762109375,52.299999,63.05003762109375,52.299999C63.05003762109375,52.299999,70.15003562109375,59,70.15003562109375,59C70.15003562109375,59,72.30003762109375,61.25,72.30003762109375,61.25C72.30003762109375,61.25,79.00003862109375,68.050003,79.00003862109375,68.050003C80.75003862109375,65.5,82.25003862109375,62.799999,83.50003862109375,59.900002C84.30003362109375,57.849998,83.90003962109375,54.849998,82.45003462109375,53.25C79.65003562109375,50.5,76.90003562109375,47.650002,74.10003662109375,44.799999C74.10003662109375,44.799999,74.10003662109375,44.799999,74.10003662109375,44.799999C74.10003662109375,44.799999,74.10003662109375,44.799999,74.10003662109375,44.799999ZM52.55003762109375,44.349998C52.55003762109375,44.349998,44.10003662109375,53,44.10003662109375,53C43.80003762109375,53.299999,43.45003662109375,53.5,43.00003662109375,53.5C42.60003662109375,53.5,42.20003662109375,53.349998,41.95003662109375,53.049999C41.95003662109375,53.049999,33.50003662109375,44.349998,33.50003662109375,44.349998C33.20003662109375,44.049999,33.05003662109375,43.650002,33.05003662109375,43.25C33.05003662109375,42.799999,33.20003662109375,42.450001,33.50003662109375,42.150002C33.50003662109375,42.150002,42.00003662109375,33.450001,42.00003662109375,33.450001C42.30003762109375,33.150002,42.65003562109375,33,43.05003762109375,33C43.45003662109375,33,43.85003662109375,33.200001,44.15003562109375,33.450001C44.15003562109375,33.450001,52.60003662109375,42.150002,52.60003662109375,42.150002C52.90003562109375,42.450001,53.05003762109375,42.799999,53.05003762109375,43.25C53.00003862109375,43.700001,52.85003662109375,44.099998,52.55003762109375,44.349998C52.55003762109375,44.349998,52.55003762109375,44.349998,52.55003762109375,44.349998Z" fill="#0086B2" fill-opacity="1"/><path d="M43.299999,74.050003C26.549999,74.050003,12.85,60.299999,12.85,43.450001C12.85,27.799999,24.65,14.8,39.75,13C39.75,13,39.75,0,39.75,0C17.549999,1.85,0,20.65,0,43.450001C0,67.449997,19.450001,87,43.299999,87C56.349998,87,68.050003,81.150002,76,71.949997C76,71.949997,66.949997,62.700001,66.949997,62.700001C61.349998,69.599998,52.799999,74.050003,43.299999,74.050003C43.299999,74.050003,43.299999,74.050003,43.299999,74.050003C43.299999,74.050003,43.299999,74.050003,43.299999,74.050003Z" fill="#0086B2" fill-opacity="1"/></svg>