<svg xmlns="http://www.w3.org/2000/svg" xmlns:xlink="http://www.w3.org/1999/xlink" fill="none" version="1.1" width="40" height="32.009124755859375" viewBox="0 0 40 32.009124755859375"><path d="M40,21C40,24.361756,38.092318,27.336067,35.166945,29.149025C34.927616,29.297346,36.155844,31.844156,36,32C35.844156,32.155844,32.876404,30.255186,32.557861,30.359665C31.295993,30.773544,29.92841,31,28.5,31C22.1487255,31,17,26.522848,17,21C17,15.4771523,22.1487255,11,28.5,11C34.851274000000004,11,40,15.4771523,40,21Z" fill="#6BB657" fill-opacity="1"/><g><path d="M17.444206,23.75247C24.040667,22.626528,29,17.792566,29,12C29,11.665868,28.9835,11.334926,28.951134,11.007701Q28.725651,11,28.5,11Q28.21769,11,27.935722,11.012045Q27.653751,11.024091,27.372803,11.048153Q27.091852,11.072214,26.812597,11.108234Q26.533344,11.144255,26.256458,11.192147Q25.979572,11.24004,25.705725,11.299688Q25.431877,11.359337,25.161724,11.430597Q24.891571,11.501858,24.625767,11.584559Q24.359959,11.667261,24.099138,11.761204Q23.838318,11.855147,23.583113,11.960106Q23.327909,12.065065,23.078936,12.180787Q22.82996,12.296508,22.587814,12.422712Q22.345671,12.548918,22.110939,12.685303Q21.876207,12.821688,21.649456,12.967924Q21.422703,13.114161,21.204475,13.269896Q20.986248,13.42563,20.777071,13.590487Q20.567894,13.755346,20.368271,13.928931Q20.168648,14.102516,19.979061,14.28441Q19.789473,14.466303,19.610378,14.656067Q19.431282,14.845829,19.263111,15.043005Q19.09494,15.240181,18.938097,15.444296Q18.781254,15.648411,18.63612,15.858971Q18.490984,16.06953,18.357904,16.286032Q18.224825,16.502529,18.104122,16.724447Q17.983419,16.946365,17.875383,17.173164Q17.767349,17.399963,17.672241,17.6311Q17.577133,17.862236,17.495186,18.097153Q17.413235,18.332069,17.344639,18.570198Q17.276043,18.808327,17.220968,19.049097Q17.165894,19.289865,17.12447,19.532694Q17.083046,19.775524,17.055376,20.019829Q17.027704,20.264133,17.013853,20.509323Q17,20.754513,17,21Q17,22.403337,17.444206,23.75247ZM16.407717,23.897064Q16,22.523762,16,21Q16,16.402233,19.712093,13.174327Q23.362568,10,28.5,10Q28.650677,10,28.800068,10.00273C27.650908,4.3259602,21.685894,0,14.5,0C6.4918709,0,0,5.3725829,0,12C0,15.866199,2.2092748,19.305361,5.6400304,21.5C5.961885,21.705889,5.421659,22.991049,4.9755864,24.052225C4.6686926,24.782305,4.4063644,25.406364,4.5,25.5C4.5996356,25.599636,5.396668,25.143915,6.3241591,24.613602C7.5352316,23.921144,8.9687338,23.101507,9.3625031,23.225006C10.959394,23.725847,12.691011,24,14.5,24C15.146669,24,15.783451,23.964968,16.407717,23.897064Z" fill-rule="evenodd" fill="#6BB657" fill-opacity="1"/></g><ellipse cx="10" cy="8" rx="2" ry="2" fill="#FFFFFF" fill-opacity="1"/><ellipse cx="19" cy="8" rx="2" ry="2" fill="#FFFFFF" fill-opacity="1"/><ellipse cx="32.5" cy="17.5" rx="1.5" ry="1.5" fill="#FFFFFF" fill-opacity="1"/><ellipse cx="24.5" cy="17.5" rx="1.5" ry="1.5" fill="#FFFFFF" fill-opacity="1"/></svg>