<svg xmlns="http://www.w3.org/2000/svg" xmlns:xlink="http://www.w3.org/1999/xlink" fill="none" version="1.1" width="84.75" height="83.349609375" viewBox="0 0 84.75 83.349609375"><path d="M84.75009965625,20.199462890625C84.75009965625,20.199462890625,64.20009765625,40.949462890625,64.20009765625,40.949462890625C64.20009765625,40.949462890625,43.10009765625,20.199462890625,43.10009765625,20.199462890625C43.10009765625,20.199462890625,84.75009965625,20.199462890625,84.75009965625,20.199462890625C84.75009965625,20.199462890625,84.75009965625,20.199462890625,84.75009965625,20.199462890625Z" fill="#FBC400" fill-opacity="1"/><path d="M84.75009965625,60.599609375C84.75009965625,60.599609375,64.20009765625,83.349609375,64.20009765625,83.349609375C64.20009765625,83.349609375,43.10009765625,60.599609375,43.10009765625,60.599609375C43.10009765625,60.599609375,84.75009965625,60.599609375,84.75009965625,60.599609375C84.75009965625,60.599609375,84.75009965625,60.599609375,84.75009965625,60.599609375Z" fill="#F39800" fill-opacity="1"/><path d="M43.099998,60.599609375C43.099998,60.599609375,21.700001,83.349609375,21.700001,83.349609375C21.700001,83.349609375,0,60.599609375,0,60.599609375C0,60.599609375,43.099998,60.599609375,43.099998,60.599609375C43.099998,60.599609375,43.099998,60.599609375,43.099998,60.599609375Z" fill="#C30E19" fill-opacity="1"/><path d="M84.75009965625,20.200001C84.75009965625,20.200001,63.90009665625,0,63.90009665625,0C63.90009665625,0,43.10009765625,20.200001,43.10009765625,20.200001C43.10009765625,20.200001,84.75009965625,20.200001,84.75009965625,20.200001C84.75009965625,20.200001,84.75009965625,20.200001,84.75009965625,20.200001Z" fill="#F39800" fill-opacity="1"/><path d="M84.75009965625,60.59892678125C84.75009965625,60.59892678125,63.90009665625,41.64892578125,63.90009665625,41.64892578125C63.90009665625,41.64892578125,43.10009765625,60.59892678125,43.10009765625,60.59892678125C43.10009765625,60.59892678125,84.75009965625,60.59892678125,84.75009965625,60.59892678125C84.75009965625,60.59892678125,84.75009965625,60.59892678125,84.75009965625,60.59892678125Z" fill="#FCC902" fill-opacity="1"/><path d="M0,60.599464890625C0,60.599464890625,21.4,40.399463890625,21.4,40.399463890625C21.4,40.399463890625,0,20.199462890625,0,20.199462890625C0,20.199462890625,0,60.599464890625,0,60.599464890625C0,60.599464890625,0,60.599464890625,0,60.599464890625Z" fill="#8D202E" fill-opacity="1"/><path d="M63.900390625,0C63.900390625,0,43.100391625,20.200001,43.100391625,20.200001C43.100391625,20.200001,21.400390625,0,21.400390625,0C21.400390625,0,63.900390625,0,63.900390625,0C63.900390625,0,63.900390625,0,63.900390625,0Z" fill="#ED6D00" fill-opacity="1"/><path d="M21.4,0C21.4,0,0,20.200001,0,20.200001C0,20.200001,43.099998,20.200001,43.099998,20.200001C43.099998,20.200001,21.4,0,21.4,0C21.4,0,21.4,0,21.4,0Z" fill="#DA4206" fill-opacity="1"/><path d="M43.10029196875,60.599609375C43.10029196875,60.599609375,21.55029296875,83.349609375,21.55029296875,83.349609375C21.55029296875,83.349609375,64.65029096875,83.349609375,64.65029096875,83.349609375C64.65029096875,83.349609375,43.10029196875,60.599609375,43.10029196875,60.599609375C43.10029196875,60.599609375,43.10029196875,60.599609375,43.10029196875,60.599609375Z" fill="#ED6D00" fill-opacity="1"/><path d="M21.4,40.39892578125C21.4,40.39892578125,0,60.59892678125,0,60.59892678125C0,60.59892678125,43.099998,60.59892678125,43.099998,60.59892678125C43.099998,60.59892678125,21.4,40.39892578125,21.4,40.39892578125C21.4,40.39892578125,21.4,40.39892578125,21.4,40.39892578125Z" fill="#DA4206" fill-opacity="1"/><path d="M43.099998,20.199462890625C43.099998,20.199462890625,21.4,40.399463890625,21.4,40.399463890625C21.4,40.399463890625,0,20.199462890625,0,20.199462890625" fill="#C30E19" fill-opacity="1"/></svg>