<svg xmlns="http://www.w3.org/2000/svg" xmlns:xlink="http://www.w3.org/1999/xlink" fill="none" version="1.1" width="85" height="85" viewBox="0 0 85 85"><path d="M66.944603,50.469799C66.698601,53.525398,62.619701,52.622501,60.196701,52.451801C60.168499,52.788601,56.918598,53.3493,55.536999,53.455502C55.366199,53.815201,55.198101,54.1796,55.022701,54.542C54.857899,56.889599,55.028702,60.862999,55.734001,64.6642C55.896702,65.5429,56.3955,65.809097,56.5676,66.727501C57.276199,70.330299,57.597599,70.921303,58.624199,74.511398C58.739799,74.915497,60.4683,77.183098,60.673401,77.721603C60.8428,78.165398,60.988701,78.6474,61.106998,79.058197C58.943501,80.162804,56.667801,81.077797,54.307999,81.787102C53.132801,77.737801,52.617199,75.242897,51.778801,70.6073C51.697399,70.144096,50.349499,67.462303,50.2775,67.001801C50.020699,65.442703,49.817001,63.888302,49.6651,62.344002C49.350399,59.191601,49.274502,56.111099,49.476799,53.229C49.440498,52.363701,49.4062,51.501801,49.371899,50.639198C49.743099,49.5938,48.151001,46.899899,49.964199,47.211201C51.302101,47.449799,51.6632,46.657902,52.650101,46.7258C55.384399,45.901501,58.955601,45.690399,58.943501,45.346901C58.927399,44.755901,58.9086,44.1623,58.893101,43.571301C58.84,40.2481,58.783501,36.925598,58.7304,33.605099C58.7425,33.470001,58.7519,33.334202,58.761299,33.199699C58.624199,33.084702,58.485699,32.973801,58.3479,32.8629C55.871799,32.909302,53.391701,32.955601,50.910198,33.0061C49.889,33.0639,48.864399,33.123699,47.840401,33.186199C47.744999,32.7351,47.648201,32.2887,47.5574,31.8423C45.6548,31.959299,43.755501,32.079601,41.8596,32.202702C41.208801,32.124001,40.565399,32.042702,39.919399,31.963301C39.568401,31.9156,40.245399,33.573502,39.825199,33.518398C38.906898,33.396,37.899101,33.258202,36.669399,33.5984C35.442501,33.939201,32.653099,34.668701,28.9877,34.4072C27.9046,34.330502,27.7971,36.5229,27.2041,37.995899C25.950199,41.0905,25.715599,44.181099,25.5576,46.412498C25.5415,46.613499,25.527399,46.818501,25.5119,47.022301C26.1479,48.2869,27.2794,47.437099,28.504999,47.525101C29.618999,47.6045,30.736401,47.683102,31.8517,47.7631C34.613499,48.299,35.177601,47.927799,35.464001,48.258598C36.415298,49.898998,35.281101,53.4925,34.920799,57.666801C34.742001,59.3503,34.124802,60.727798,34.036701,62.173302C33.738899,66.968803,33.4478,66.124397,33.3442,66.697197C32.360001,72.053497,32.081001,76.900101,31.683001,82.073502C29.6129,81.508698,27.614901,80.785301,25.686001,79.917397C25.692101,79.854202,25.7015,79.794998,25.7075,79.7332C25.8911,78.506897,26.132401,77.2873,26.5257,76.110802C26.914301,74.944397,26.892799,73.631302,27.058901,72.343201C27.226299,71.053703,27.3769,69.734001,27.5019,68.417C27.555,67.872398,27.655899,67.067001,27.7211,66.531799C28.367201,61.363201,28.511,57.212399,29.0879,54.222599C28.066,53.8092,27.046101,53.397701,26.0229,52.987598C25.841299,53.044102,25.657101,53.097198,25.4722,53.150299C22.111401,52.5755,16.1628,52.164001,17.2311,52.135799C17.434799,50.5149,17.726601,48.490601,18.038601,46.550301C18.2799,45.041,17.2721,44.6315,17.504101,43.457001C17.6453,42.751801,18.445999,40.595001,18.6154,39.6679C19.140499,36.888599,20.4219,33.697201,21.096201,31.5774C21.445101,30.478901,21.102301,30.819099,21.521799,29.697001C21.864,28.7726,22.024,29.4617,22.4872,28.855301C23.493601,27.5133,25.3801,28.584299,26.668301,28.676399C27.423901,28.728201,28.182301,28.782,28.934601,28.836399C29.7918,28.9622,30.649,29.095301,31.5014,29.225C31.5667,28.281799,33.334801,28.6549,35.0284,28.224001C35.7477,28.0438,36.426102,28.045799,37.000198,27.219601C37.364601,26.697201,37.669201,26,37.887001,25.0783C38.101501,24.184799,38.480598,24.4154,39.269199,24.3636C41.068298,24.2325,42.865398,24.1054,44.661098,23.976999C45.288399,24.0597,45.911598,24.1465,46.5368,24.2325C46.8004,25.1623,47.061901,26.090799,47.3255,27.024599C48.713799,27.037399,50.1175,26.7994,51.503201,26.812099C53.8992,26.621901,56.271801,26.7348,58.667198,26.5452C60.425999,26.6696,62.215599,26.494801,63.976398,26.6185C65.200699,26.7066,65.760002,27.460199,65.659798,28.8801C65.5718,30.1555,65.575104,31.627199,65.625603,33.199699C65.650398,33.817501,65.678703,34.446098,65.710297,35.090199C65.816498,37.0527,65.462196,41.648499,65.599998,43.682201C65.650398,44.432499,66.679703,43.178001,66.723396,43.9081C66.751701,44.347198,66.938599,44.294701,66.957397,44.720299C66.985603,45.408699,67.010498,46.077702,67.026604,46.7318C67.051498,48.083099,67.038696,49.349098,66.944603,50.469799C66.944603,50.469799,66.944603,50.469799,66.944603,50.469799ZM47.312698,78.280998C47.691898,81.231697,47.491501,80.164101,47.6791,81.084503C47.757801,81.465698,48.023998,81.862999,48.105999,82.236198C48.169899,82.526604,48.234402,82.816399,48.300301,83.105499C46.408401,83.375702,44.4702,83.5149,42.500301,83.5149C41.448898,83.5149,40.4081,83.474503,39.377499,83.398598C39.184502,80.030296,39.057499,76.8974,38.935101,73.137901C38.919601,72.555,39.029202,71.614403,38.828899,70.954201C38.828899,70.954201,38.787899,67.340599,38.787899,67.340599C38.687698,61.059898,38.916302,54.539299,39.2155,48.1558C39.247101,47.496899,38.822201,48.157101,38.8605,47.496899C38.885399,47.027,39.2155,45.478001,39.243698,45.006699C39.253101,44.8722,39.262501,44.735699,39.275299,44.5979C39.303501,44.191898,36.073799,44.723,33.422199,44.3344C33.428299,42.770599,33.435001,41.214199,33.4384,39.655201C33.2057,38.1021,35.8008,38.687698,40.2864,38.664799C42.254299,38.6991,44.225498,38.7341,46.194,38.771702C49.103699,38.822201,51.765999,38.4585,51.722301,39.069599C53.1637,39.171101,52.6562,41.506001,52.557999,42.9259C52.448399,44.412998,51.042,44.378799,48.701,44.755901C48.409901,44.800999,48.1147,44.8507,47.820301,44.900501C47.3913,44.8689,46.959702,44.835899,46.527401,44.805698C45.999699,45.110199,46.250401,45.046398,44.357201,45.185501C43.998199,53.246399,45.839699,66.8545,47.312698,78.280998C47.312698,78.280998,47.312698,78.280998,47.312698,78.280998ZM42.500301,0C19.0336,0,0,19.036301,0,42.499699C0,65.968399,19.0336,85,42.500301,85C65.969803,85,85,65.968399,85,42.499699C85,19.036301,65.969803,0,42.500301,0C42.500301,0,42.500301,0,42.500301,0Z" fill-rule="evenodd" fill="#0066B3" fill-opacity="1"/></svg>