<svg xmlns="http://www.w3.org/2000/svg" xmlns:xlink="http://www.w3.org/1999/xlink" fill="none" version="1.1" width="85" height="85" viewBox="0 0 85 85"><path d="M42.5,0C60.049999,0,75.199997,10.75,81.650002,26C81.650002,26,25.65,26,25.65,26C25.65,26,25.65,52.25,25.65,52.25C25.65,52.25,51.099998,52.25,51.099998,52.25C51.099998,52.25,51.099998,56.150002,51.099998,56.150002C51.099998,56.150002,2.25,56.150002,2.25,56.150002C0.80000001,51.900002,0,47.299999,0,42.549999C0,19.1,19.1,0,42.5,0C42.5,0,42.5,0,42.5,0ZM83,29.65C84.300003,33.700001,85,38.049999,85,42.5C85,65.900002,65.900002,85,42.5,85C25.200001,85,10.3,74.599998,3.6500001,59.75C3.6500001,59.75,59.349998,59.75,59.349998,59.75C59.349998,59.75,59.349998,32.75,59.349998,32.75C59.349998,32.75,33.900002,32.75,33.900002,32.75C33.900002,32.75,33.900002,29.6,33.900002,29.6C33.900002,29.6,83,29.6,83,29.6C83,29.6,83,29.65,83,29.65C83,29.65,83,29.65,83,29.65Z" fill="#E30016" fill-opacity="1"/></svg>