<svg xmlns="http://www.w3.org/2000/svg" xmlns:xlink="http://www.w3.org/1999/xlink" fill="none" version="1.1" width="85" height="85.95030212402344" viewBox="0 0 85 85.95030212402344"><path d="M30,43.200302C30,42.900299,42.150002,30.6003,42.5,30.550301C42.799999,30.500301,54.299999,41.750301,55,43.000301C55,43.000301,42.5,55.550301,42.5,55.550301C42.5,55.550301,30,43.200302,30,43.200302C30,43.200302,30,43.200302,30,43.200302ZM85,39.300301C85,35.700302,84.550003,32.150299,83.599998,28.650301C82.949997,26.3503,82.050003,24.000301,81,22.000301C78.75,17.7003,76.449997,14.5003,73.150002,11.300301C69.949997,8.2002907,66.400002,5.7502909,62.150002,3.7002907C60,2.7002907,57.75,1.9502908,55.25,1.2502908C48.549999,-0.49970624,41.200001,-0.29970723,34.450001,1.1502907C31.75,1.7502908,29.25,2.5002909,26.9,3.4502907C22.049999,5.4502907,18.4,7.7002907,14.7,10.950301C8.8500004,16.1003,1.7,26.6003,1.7,37.3503C1.7,37.3503,1.7,41.8503,1.7,41.8503C1.7,59.250301,16.9,76.050301,34.5,76.050301C34.5,76.050301,37.700001,76.050301,37.700001,76.050301C42.25,76.050301,47.349998,74.150299,50.650002,72.800301C52.299999,72.100304,59.849998,67.300301,59.950001,66.000298C61.150002,65.900299,65.349998,59.000301,66.099998,57.500301C68.849998,51.800301,70.300003,44.500301,68.349998,38.300301C68.150002,37.700302,66.75,33.700302,66.75,33.650299C69,35.300301,71.199997,42.550301,71.199997,46.8503C71.199997,64.850304,55.849998,79.800301,37.799999,79.800301C37.799999,79.800301,36.599998,79.800301,36.599998,79.800301C25.950001,79.800301,17.35,75.150299,12,69.850304C8.75,66.650299,7,64.000298,4.6500001,59.900299C3.5999999,58.050301,2.75,56.050301,1.95,53.950302C1.55,52.950302,0.2,47.750301,0,47.400299C0,58.550301,5.75,69.400299,11.4,75.050301C19.200001,82.850304,30.25,85.950302,41.049999,85.950302C63.700001,85.950302,83.550003,69.700302,83.550003,47.400299C83.550003,47.400299,83.550003,45.3503,83.550003,45.3503C83.550003,35.800301,78.849998,25.9503,74.150002,20.9503C68.699997,15.100301,61.5,11.150301,50.799999,10.550301C32.75,9.5002909,16.049999,24.1003,16.049999,42.450302C16.049999,45.6003,16.85,49.050301,17.4,52.400299C17.4,52.400299,17.6,52.3503,17.6,52.3503C15.35,51.550301,13.8,43.450302,13.8,39.550301C13.8,20.800301,29.4,6.6002908,48.5,6.6002908C79,6.7002907,84.949997,39.300301,85,39.300301C85,39.300301,85,39.300301,85,39.300301C85,39.300301,85,39.300301,85,39.300301Z" fill="#00509E" fill-opacity="1"/></svg>