<svg xmlns="http://www.w3.org/2000/svg" xmlns:xlink="http://www.w3.org/1999/xlink" fill="none" version="1.1" width="88" height="36.6021728515625" viewBox="0 0 88 36.6021728515625"><defs><linearGradient x1="0.7842418551445007" y1="0.022096650674939156" x2="0.2949961022355113" y2="1.1095172257432018" id="master_svg0_0_974"><stop offset="0%" stop-color="#FAC03D" stop-opacity="1"/><stop offset="7.159999758005142%" stop-color="#F5A42F" stop-opacity="1"/><stop offset="15.929999947547913%" stop-color="#F08523" stop-opacity="1"/><stop offset="25.40999948978424%" stop-color="#EC681A" stop-opacity="1"/><stop offset="35.589998960494995%" stop-color="#EA4F15" stop-opacity="1"/><stop offset="46.72999978065491%" stop-color="#E83813" stop-opacity="1"/><stop offset="59.32999849319458%" stop-color="#E72112" stop-opacity="1"/><stop offset="74.61000084877014%" stop-color="#E60812" stop-opacity="1"/><stop offset="100%" stop-color="#E60012" stop-opacity="1"/></linearGradient></defs><path d="M39.90160755197754,13.15624618007202C34.88798715197754,13.282485980072021,31.85816705197754,14.90560578007202,31.85816705197754,14.90560578007202C31.85816705197754,14.90560578007202,31.85816705197754,20.32499598007202,31.85816705197754,20.32499598007202C31.85816705197754,20.32499598007202,33.98624705197754,18.539595980072022,37.30462695197754,18.007595980072022C40.622977651977536,17.475495980072022,42.66087765197754,18.07069598007202,42.66087765197754,19.756895980072024C42.66087765197754,21.45219598007202,42.66087765197754,22.326895980072024,42.66087765197754,22.326895980072024C42.66087765197754,22.326895980072024,37.93583725197754,21.07349598007202,34.32890705197754,22.66949598007202C31.28105715197754,24.02209598007202,28.91851715197754,27.656094980072023,30.51458311197754,31.858195980072022C33.20174715197754,38.91869498007202,41.65097665197754,36.06929498007202,44.43727665197754,35.85279598007202C46.917077651977536,35.654496980072025,47.728677651977534,35.76269698007202,47.728677651977534,35.76269698007202C47.728677651977534,35.76269698007202,47.728677651977534,23.327795980072022,47.728677651977534,19.45029598007202C47.728677651977534,15.572885980072021,45.943177651977535,13.002955880072022,39.90160755197754,13.15624618007202C39.90160755197754,13.15624618007202,39.90160755197754,13.15624618007202,39.90160755197754,13.15624618007202ZM42.59777765197754,32.002394980072026C42.59777765197754,32.002394980072026,40.875476651977536,32.09259598007202,39.65814685197754,32.28199498007202C38.44080735197754,32.47129598007202,36.08728695197754,32.87709598007202,35.02323725197754,31.06459598007202C33.95919705197754,29.25219698007202,34.644516951977536,26.80849598007202,36.71849725197754,26.17729498007202C38.78346725197754,25.55509498007202,41.20007665197754,25.92479698007202,42.60677765197754,26.17729498007202C42.60677765197754,26.17729498007202,42.60677765197754,32.002394980072026,42.60677765197754,32.002394980072026C42.60677765197754,32.002394980072026,42.59777765197754,32.002394980072026,42.59777765197754,32.002394980072026C42.59777765197754,32.002394980072026,42.59777765197754,32.002394980072026,42.59777765197754,32.002394980072026ZM49.89277665197754,14.09396598007202C49.89277665197754,14.09396598007202,49.89277665197754,36.29459498007202,49.89277665197754,36.29459498007202C49.89277665197754,36.29459498007202,54.96957765197754,36.29459498007202,54.96957765197754,36.29459498007202C54.96957765197754,36.29459498007202,54.96957765197754,18.35009598007202,54.96957765197754,18.35009598007202C54.96957765197754,18.35009598007202,57.223876651977534,17.88119598007202,59.505277651977536,17.90829598007202C61.78657765197754,17.93529598007202,61.97597665197754,19.35109598007202,61.97597665197754,20.73069598007202C61.97597665197754,22.11039598007202,61.97597665197754,36.29459498007202,61.97597665197754,36.29459498007202C61.97597665197754,36.29459498007202,67.10687865197754,36.29459498007202,67.10687865197754,36.29459498007202C67.10687865197754,36.29459498007202,67.10687865197754,28.332295980072022,67.10687865197754,21.56929598007202C67.10687865197754,14.806335880072021,64.76237665197755,13.886566180072021,61.470977651977535,13.372585780072022C58.360076651977536,12.885645880072023,55.30317665197754,13.751306080072021,53.26527765197754,13.940676180072021C51.227376651977536,14.130035880072022,49.89277665197754,14.09396598007202,49.89277665197754,14.09396598007202C49.89277665197754,14.09396598007202,49.89277665197754,14.09396598007202,49.89277665197754,14.09396598007202ZM69.25297765197755,6.3751959800720215C69.25297765197755,6.3751959800720215,69.25297765197755,36.29469598007202,69.25297765197755,36.29469598007202C69.25297765197755,36.29469598007202,74.55517765197754,36.29469598007202,74.55517765197754,36.29469598007202C74.55517765197754,36.29469598007202,74.55517765197754,26.58299598007202,74.55517765197754,26.58299598007202C74.55517765197754,26.58299598007202,81.94937665197753,36.29469598007202,81.94937665197753,36.29469598007202C81.94937665197753,36.29469598007202,87.99997565197754,36.29469598007202,87.99997565197754,36.29469598007202C87.99997565197754,36.29469598007202,78.63097565197754,23.44499498007202,78.63097565197754,23.44499498007202C78.63097565197754,23.44499498007202,87.79257765197754,13.426735880072021,87.79257765197754,13.426735880072021C87.79257765197754,13.426735880072021,81.61577765197754,13.47182608007202,81.61577765197754,13.47182608007202C81.61577765197754,13.47182608007202,74.51007665197754,20.85699598007202,74.51007665197754,20.85699598007202C74.51007665197754,20.85699598007202,74.55517765197754,6.3751959800720215,74.55517765197754,6.3751959800720215C74.55517765197754,6.3751959800720215,69.25297765197755,6.3751959800720215,69.25297765197755,6.3751959800720215C69.25297765197755,6.3751959800720215,69.25297765197755,6.3751959800720215,69.25297765197755,6.3751959800720215Z" fill="#6B1685" fill-opacity="1"/><path d="M6.11374,26.384701C6.11374,26.384701,28.188101,26.384701,28.188101,26.384701C28.188101,26.2043,28.170099,25.7535,28.115999,25.3657C28.098,25.248501,28.079901,25.1313,28.061899,25.014C28.061899,25.014,6.11374,25.014,6.11374,25.014C6.11374,25.014,6.11374,23.877899,6.11374,23.877899C6.11374,23.877899,27.818399,23.877899,27.818399,23.877899C27.755301,23.652399,27.683201,23.3999,27.575001,23.147499C27.5299,23.030199,27.4848,22.913,27.4307,22.8048C27.4126,22.7507,27.385599,22.6966,27.367599,22.6425C27.349501,22.597401,27.3225,22.552299,27.304399,22.5072C27.304399,22.5072,6.11374,22.5072,6.11374,22.5072C6.11374,22.5072,6.11374,21.3801,6.11374,21.3801C6.11374,21.3801,26.7183,21.3801,26.7183,21.3801C26.4207,20.893101,26.087099,20.433201,25.7174,20.000401C25.7174,20.000401,17.015699,20.000401,17.015699,20.000401C17.015699,20.000401,17.015699,18.873199,17.015699,18.873199C17.015699,18.873199,24.572201,18.873199,24.572201,18.873199C23.9049,18.314199,23.1565,17.8543,22.353901,17.493601C22.353901,17.493601,17.0247,17.493601,17.0247,17.493601C17.0247,17.493601,17.0247,16.3664,17.0247,16.3664C17.0247,16.3664,20.8661,16.3664,20.8661,16.3664C21.839899,16.0779,22.7327,15.6,23.5172,14.9868C23.5172,14.9868,17.033701,14.9868,17.033701,14.9868C17.033701,14.9868,17.033701,14.9688,17.033701,14.9688C17.033701,14.9688,6.11374,14.9688,6.11374,14.9688C6.11374,14.9688,6.11374,13.8596,6.11374,13.8596C6.11374,13.8596,24.6894,13.8596,24.6894,13.8596C25.0501,13.4358,25.374701,12.9759,25.6453,12.48C25.6453,12.48,6.11374,12.48,6.11374,12.48C6.11374,12.48,6.11374,11.3528,6.11374,11.3528C6.11374,11.3528,26.1863,11.3528,26.1863,11.3528C26.2314,11.2356,26.492901,10.3248,26.565001,9.9731503C26.565001,9.9731503,6.11374,9.9731503,6.11374,9.9731503C6.11374,9.9731503,6.11374,8.8459902,6.11374,8.8459902C6.11374,8.8459902,26.727301,8.8459902,26.727301,8.8459902C26.727301,8.82796,26.7724,7.9352398,26.7003,7.4663401C26.7003,7.4663401,6.11374,7.4663401,6.11374,7.4663401C6.11374,7.4663401,6.11374,6.3752398,6.11374,6.3752398C6.11374,6.3752398,26.492901,6.3752398,26.492901,6.3752398C26.384701,5.8973298,26.2314,5.4374399,26.042,4.9955902C26.042,4.9955902,18.6388,4.9955902,18.6388,4.9955902C18.6388,4.9955902,18.6388,3.87745,18.6388,3.87745C18.6388,3.87745,25.4559,3.87745,25.4559,3.87745C25.1493,3.38149,24.788601,2.9216101,24.3918,2.4978001C24.3918,2.4978001,18.6388,2.4978001,18.6388,2.4978001C18.6388,2.4978001,18.6388,1.37965,18.6388,1.37965C18.6388,1.37965,23.057301,1.37965,23.057301,1.37965C21.885,0.58612603,20.5054,0.099190503,19.008499,0.0270519C18.972401,0.0270519,18.936399,0.0270519,18.900299,0.0180346C18.810101,0.0180346,18.719999,0.0090173203,18.6388,0C18.6388,0,18.602699,0,18.602699,0C18.602699,0,18.4855,0,18.4855,0C18.4855,0,0,0,0,0C0,0,0,36.384899,0,36.384899C0,36.384899,18.4855,36.384899,18.4855,36.384899C18.4855,36.384899,18.6388,36.384899,18.6388,36.384899C18.6388,36.384899,18.6388,36.3759,18.6388,36.3759C19.603701,36.3578,20.5054,36.204498,21.362,35.924999C21.515301,35.879902,21.6686,35.816799,21.821899,35.762699C21.8309,35.7537,21.849001,35.7537,21.858,35.744701C22.399,35.546299,22.913,35.2938,23.3999,34.996201C23.3999,34.996201,18.6388,34.996201,18.6388,34.996201C18.6388,34.996201,18.6388,33.8871,18.6388,33.8871C18.6388,33.8871,24.9149,33.8871,24.9149,33.8871C24.987,33.814899,25.0681,33.751801,25.140301,33.679699C25.1583,33.661701,25.167299,33.652599,25.1854,33.6436C25.3657,33.472301,25.537001,33.282902,25.6994,33.093601C25.708401,33.084499,25.708401,33.084499,25.7174,33.0755C25.8797,32.895199,26.033001,32.705799,26.177299,32.507401C26.177299,32.507401,18.6388,32.507401,18.6388,32.507401C18.6388,32.507401,18.6388,31.380301,18.6388,31.380301C18.6388,31.380301,26.925699,31.380301,26.925699,31.380301C27.0159,31.2089,27.1061,31.0376,27.196199,30.866301C27.196199,30.866301,27.367599,30.5417,27.575001,30.000601C27.575001,30.000601,6.11374,30.000601,6.11374,30.000601C6.11374,30.000601,6.11374,28.873501,6.11374,28.873501C6.11374,28.873501,27.917601,28.873501,27.917601,28.873501C27.935699,28.8013,27.953699,28.7292,27.971701,28.657C27.971701,28.657,28.0709,28.2062,28.143101,27.547899C28.143101,27.5299,28.143101,27.511801,28.143101,27.4848C28.143101,27.4848,6.11374,27.4848,6.11374,27.4848C6.11374,27.4848,6.11374,26.384701,6.11374,26.384701C6.11374,26.384701,6.11374,26.384701,6.11374,26.384701Z" fill="url(#master_svg0_0_974)" fill-opacity="1"/></svg>