<svg xmlns="http://www.w3.org/2000/svg" xmlns:xlink="http://www.w3.org/1999/xlink" fill="none" version="1.1" width="31.614776611328125" height="37.875" viewBox="0 0 31.614776611328125 37.875"><path d="M3.8073871,27C3.8073871,27,0.80738717,31.5,0.30738717,31C-0.49557281,30.197001,0.36913717,24.3785,1.8073871,20C1.8073871,20,3.8073874,21,6.3073874,21.5C6.3073874,21.5,4.5664878,30.960501,10.575288,34.741501C12.575288,36,15.807387,36,15.807387,36C15.807387,36,19.039486,36,21.039486,34.741501C27.048286,30.960501,25.307386,21.5,25.307386,21.5C27.807386,21,29.807386,20,29.807386,20C31.245586,24.3785,32.110386,30.197001,31.307386,31C30.807386,31.5,27.807386,27,27.807386,27C27.807386,27,28.039484,31.776001,24.415785,34.741501C24.415785,34.741501,21.039488,37.5,15.807387,37.5C10.575287,37.5,7.198987,34.741501,7.198987,34.741501C3.5752871,31.776001,3.8073871,27,3.8073871,27Z" fill-rule="evenodd" fill="#000000" fill-opacity="1"/><path d="M3.807387351989746,16C3.807387351989746,3,10.807387351989746,0,15.807387351989746,0C20.807387351989746,0,27.807387351989746,3,27.807387351989746,16C23.774586351989747,16.782299,20.307387351989746,17.5,15.807387351989746,17.5C11.307387351989746,17.5,7.840187551989746,16.782299,3.807387351989746,16ZM8.807387351989746,13.5C8.807387351989746,14.5,12.307387351989746,16,15.807387351989746,16C19.307387351989746,16,22.807387351989746,14.5,22.807387351989746,13.5C22.807387351989746,12.5,17.807387351989746,12,15.807387351989746,12C13.807387351989746,12,8.807387351989746,12.5,8.807387351989746,13.5Z" fill-rule="evenodd" fill="#000000" fill-opacity="1"/><path d="M27.539488351989746,37.49999995449219C26.539488351989746,37.99999995449219,19.307387351989746,37.99999995449219,15.807387351989746,37.49999995449219C21.039487351989745,37.49999995449219,24.415785751989745,34.74150085449219,24.415785751989745,34.74150085449219C24.334085451989747,34.80830085249219,29.539488351989746,36.49999995449219,27.539488351989746,37.49999995449219Z" fill-rule="evenodd" fill="#F9AD08" fill-opacity="1"/><path d="M15.807387019226073,37.49999995449219C12.307387319226073,37.99999995449219,5.0752883192260745,37.99999995449219,4.075288239226074,37.49999995449219C2.0752883192260745,36.49999995449219,7.280687619226074,34.80830085249219,7.198987519226074,34.74150085449219C7.198987519226074,34.74150085449219,10.575287319226074,37.49999995449219,15.807387019226073,37.49999995449219Z" fill-rule="evenodd" fill="#F8AE08" fill-opacity="1"/><path d="M1.807387351989746,20C2.3716873519897463,18.2820001,3.243787251989746,16.98629999,3.807387351989746,16C7.840187551989746,16.7823,11.307387351989746,17.5,15.807387351989746,17.5C20.307387351989746,17.5,23.774586351989747,16.7823,27.807387351989746,16C28.370988351989745,16.98629999,29.243086351989746,18.2820001,29.807387351989746,20C29.807387351989746,20,27.807387351989746,21,25.307387351989746,21.5C22.807387351989746,22,19.807387351989746,22.5,15.807387351989746,22.5C15.017487351989747,22.5,14.266487351989745,22.480499299999998,13.550686351989746,22.4452991C13.550686351989746,23.960099200000002,13.550687351989746,24.9481993,13.566188351989746,26.818899000000002C13.566188351989746,26.9077,13.509086351989746,26.986599,13.423586351989746,27.010799C11.733686451989746,27.489499000000002,9.844787551989747,27.4737,8.428187351989745,26.557199C8.373687251989747,26.521999,8.340287251989746,26.461501,8.340287251989746,26.396601C8.307387351989746,24.5119009,8.307987651989746,23.9623995,8.342087751989746,21.8768997C7.625187851989746,21.7569995,6.949787151989746,21.6285,6.307387351989746,21.5C3.807387351989746,21,1.807387351989746,20,1.807387351989746,20Z" fill-rule="evenodd" fill="#EA1C26" fill-opacity="1"/><path d="M8.807387351989746,13.5C8.807387351989746,14.5,12.307387351989746,16,15.807387351989746,16C19.307387351989746,16,22.807387351989746,14.5,22.807387351989746,13.5C22.807387351989746,12.5,17.807387351989746,12,15.807387351989746,12C13.807387351989746,12,8.807387351989746,12.5,8.807387351989746,13.5Z" fill-rule="evenodd" fill="#F9AD08" fill-opacity="1"/><path d="M6.307386954494629,21.5C6.949786964494629,21.6285,7.625187294494629,21.75699973,8.342087294494629,21.87689972C8.307987194494629,23.9623997,8.307386594494629,24.5119009,8.34028669449463,26.3966007C8.34028669449463,26.4615006,8.37368679449463,26.5219994,8.42818689449463,26.5571995C9.844786894494629,27.4736996,11.733686494494629,27.489499600000002,13.42358639449463,27.0107994C13.50908659449463,26.9865994,13.56618739449463,26.907699100000002,13.56618739449463,26.8188992C13.55068729449463,24.9481993,13.55068639449463,23.960099200000002,13.55068639449463,22.44529915C14.266486194494629,22.48049915,15.01748749449463,22.5,15.80738739449463,22.5C19.807387294494628,22.5,22.807387294494628,22,25.307387294494628,21.5C25.307387294494628,21.5,27.048287294494628,30.9605007,21.039487294494627,34.741501C19.039487294494627,36.000001,15.80738739449463,36,15.80738739449463,36C15.80738739449463,36,12.575287294494629,36.000001,10.575287294494629,34.741501C4.566487294494629,30.9605007,6.307386954494629,21.5,6.307386954494629,21.5Z" fill-rule="evenodd" fill="#FFFFFF" fill-opacity="1"/><path d="M14.807387351989746,7Q14.807387351989746,7.1473808000000005,14.797756951989747,7.2940515999999995Q14.788126251989747,7.4407225,14.768957651989746,7.585270899999999Q14.749789251989746,7.7298198,14.721267651989747,7.8708541Q14.692746151989747,8.011888500000001,14.655145851989746,8.148049799999999Q14.617546051989747,8.284212100000001,14.571229451989746,8.4141903Q14.524913051989746,8.5441685,14.470325951989746,8.6667104Q14.415739551989747,8.789253200000001,14.353407851989747,8.9031796Q14.291076651989746,9.0171061,14.221600551989745,9.1213198Q14.152124851989747,9.225534,14.076173751989746,9.319031200000001Q14.000222451989746,9.412528,13.918527151989746,9.494408100000001Q13.836832551989746,9.5762887,13.750180751989745,9.6457634Q13.663528451989746,9.7152381,13.572753951989746,9.7716379Q13.481979351989747,9.8280382,13.387956651989747,9.870821Q13.293933651989747,9.9136028,13.197567651989747,9.9423552Q13.101202051989747,9.9711084,13.003421751989746,9.9855542Q12.905641051989747,10,12.807387351989746,10Q12.709133751989746,10,12.611353151989746,9.9855542Q12.513572451989745,9.9711084,12.417206651989746,9.9423552Q12.320840851989747,9.9136028,12.226817951989746,9.870821Q12.132794951989746,9.8280382,12.042020351989747,9.7716379Q11.951245751989745,9.7152381,11.864593751989746,9.6457634Q11.777941821989746,9.5762887,11.696246801989746,9.494408100000001Q11.614551901989746,9.412528,11.538600801989746,9.319031200000001Q11.462649701989745,9.2255344,11.393173751989746,9.1213202Q11.323697921989746,9.017107,11.261366451989746,8.903180599999999Q11.199034961989746,8.7892537,11.144448101989745,8.6667109Q11.089861271989745,8.5441685,11.043544811989745,8.4141908Q10.997228321989747,8.284212100000001,10.959628271989747,8.148050300000001Q10.922028211989746,8.011888500000001,10.893506675989746,7.8708544Q10.864985133989746,7.7298198,10.845816786989745,7.585270899999999Q10.826648443989747,7.4407225,10.817017897989746,7.2940515999999995Q10.807387351989746,7.1473808000000005,10.807387351989746,7Q10.807387351989746,6.8526194,10.817017897989746,6.7059484000000005Q10.826648443989747,6.5592775,10.845816786989745,6.4147286Q10.864985133989746,6.2701802,10.893506675989746,6.1291459Q10.922028211989746,5.9881115000000005,10.959628271989747,5.8519496Q10.997228321989747,5.7157879000000005,11.043544801989746,5.5858097Q11.089861271989745,5.4558318,11.144448101989745,5.3332891Q11.199034961989746,5.2107468,11.261366421989747,5.0968201Q11.323697921989746,4.9828934700000005,11.393173751989746,4.87867963Q11.462649701989745,4.77446592,11.538600801989746,4.68096864Q11.614551961989745,4.58747137,11.696246861989746,4.50559109Q11.777941821989746,4.42371088,11.864593751989746,4.35423619Q11.951245751989745,4.28476149,12.042020351989747,4.22836138Q12.132794951989746,4.17196131,12.226817951989746,4.12917899Q12.320840851989747,4.086396672,12.417206651989746,4.057644151Q12.513572451989745,4.028891638,12.611353151989746,4.014445819Q12.709133751989746,4,12.807387351989746,4Q12.905641051989747,4,13.003421551989746,4.014445819Q13.101202051989747,4.028891638,13.197567651989747,4.057644151Q13.293933651989747,4.086396672,13.387956651989747,4.12917899Q13.481979351989747,4.17196131,13.572753951989746,4.22836138Q13.663528451989746,4.28476149,13.750180451989745,4.35423622Q13.836832551989746,4.42371094,13.918527151989746,4.50559115Q14.000222451989746,4.58747143,14.076173751989746,4.68096864Q14.152124851989747,4.77446592,14.221600551989745,4.87867963Q14.291076651989746,4.9828934700000005,14.353407851989747,5.0968201Q14.415739551989747,5.2107468,14.470325951989746,5.3332891Q14.524913051989746,5.4558318,14.571229651989746,5.5858099Q14.617546051989747,5.7157879000000005,14.655146151989745,5.8519496Q14.692746351989745,5.9881115000000005,14.721267951989747,6.1291459Q14.749789451989745,6.2701802,14.768957651989746,6.4147289Q14.788126251989747,6.5592775,14.797756951989747,6.7059484000000005Q14.807387351989746,6.8526194,14.807387351989746,7Z" fill="#FFFFFF" fill-opacity="1"/><path d="M20.807388305664062,7Q20.807388305664062,7.1473808000000005,20.797757905664064,7.2940515999999995Q20.78812720566406,7.4407225,20.76895860566406,7.585270899999999Q20.749790205664063,7.7298198,20.72126860566406,7.8708541Q20.69274710566406,8.011888500000001,20.655146805664064,8.148049799999999Q20.61754700566406,8.284212100000001,20.571230405664064,8.4141903Q20.524914005664062,8.5441685,20.470326905664063,8.6667104Q20.41574050566406,8.789253200000001,20.353408805664063,8.9031796Q20.291077605664064,9.0171061,20.22160150566406,9.1213198Q20.152125805664063,9.225534,20.076174705664062,9.319031200000001Q20.000223405664062,9.412528,19.918528105664063,9.494408100000001Q19.836833505664064,9.5762887,19.750181705664062,9.6457634Q19.66352940566406,9.7152381,19.572754905664063,9.7716379Q19.481980305664063,9.8280382,19.387957605664063,9.870821Q19.293934605664063,9.9136028,19.197568605664063,9.9423552Q19.10120300566406,9.9711084,19.00342270566406,9.9855542Q18.905642005664063,10,18.807388305664062,10Q18.709134705664063,10,18.611354105664063,9.9855542Q18.51357340566406,9.9711084,18.417207605664064,9.9423552Q18.320841805664063,9.9136028,18.22681890566406,9.870821Q18.13279590566406,9.8280382,18.04202130566406,9.7716379Q17.95124670566406,9.7152381,17.86459470566406,9.6457634Q17.777942775664062,9.5762887,17.69624775566406,9.494408100000001Q17.614552855664062,9.412528,17.53860175566406,9.319031200000001Q17.462650655664063,9.2255344,17.393174705664062,9.1213202Q17.323698875664064,9.017107,17.261367405664064,8.903180599999999Q17.199035915664062,8.7892537,17.14444905566406,8.6667109Q17.089862225664064,8.5441685,17.043545765664064,8.4141908Q16.99722927566406,8.284212100000001,16.959629225664063,8.148050300000001Q16.922029165664064,8.011888500000001,16.89350762966406,7.8708544Q16.86498608766406,7.7298198,16.845817740664064,7.585270899999999Q16.826649397664063,7.4407225,16.817018851664063,7.2940515999999995Q16.807388305664062,7.1473808000000005,16.807388305664062,7Q16.807388305664062,6.8526194,16.817018851664063,6.7059484000000005Q16.826649397664063,6.5592775,16.845817740664064,6.4147286Q16.86498608766406,6.2701802,16.89350762966406,6.1291459Q16.922029165664064,5.9881115000000005,16.959629225664063,5.8519496Q16.99722927566406,5.7157879000000005,17.043545755664063,5.5858097Q17.089862225664064,5.4558318,17.14444905566406,5.3332891Q17.199035915664062,5.2107468,17.26136737566406,5.0968201Q17.323698875664064,4.9828934700000005,17.393174705664062,4.87867963Q17.462650655664063,4.77446592,17.53860175566406,4.68096864Q17.614552915664063,4.58747137,17.696247815664062,4.50559109Q17.777942775664062,4.42371088,17.86459470566406,4.35423619Q17.95124670566406,4.28476149,18.04202130566406,4.22836138Q18.13279590566406,4.17196131,18.22681890566406,4.12917899Q18.320841805664063,4.086396672,18.417207605664064,4.057644151Q18.51357340566406,4.028891638,18.611354105664063,4.014445819Q18.709134705664063,4,18.807388305664062,4Q18.905642005664063,4,19.003422505664062,4.014445819Q19.10120300566406,4.028891638,19.197568605664063,4.057644151Q19.293934605664063,4.086396672,19.387957605664063,4.12917899Q19.481980305664063,4.17196131,19.572754905664063,4.22836138Q19.66352940566406,4.28476149,19.750181405664062,4.35423622Q19.836833505664064,4.42371094,19.918528105664063,4.50559115Q20.000223405664062,4.58747143,20.076174705664062,4.68096864Q20.152125805664063,4.77446592,20.22160150566406,4.87867963Q20.291077605664064,4.9828934700000005,20.353408805664063,5.0968201Q20.41574050566406,5.2107468,20.470326905664063,5.3332891Q20.524914005664062,5.4558318,20.571230605664063,5.5858099Q20.61754700566406,5.7157879000000005,20.655147105664064,5.8519496Q20.692747305664064,5.9881115000000005,20.72126890566406,6.1291459Q20.74979040566406,6.2701802,20.76895860566406,6.4147289Q20.78812720566406,6.5592775,20.797757905664064,6.7059484000000005Q20.807388305664062,6.8526194,20.807388305664062,7Z" fill="#FFFFFF" fill-opacity="1"/><path d="M13.807387351989746,7.21875Q13.807387351989746,7.2786233,13.802572151989747,7.3382084Q13.797756751989747,7.3977935,13.788172451989746,7.4565163000000005Q13.778588251989746,7.5152392,13.764327551989746,7.5725344Q13.750066751989745,7.6298296,13.731266651989745,7.6851454Q13.712466751989746,7.7404612,13.689308451989746,7.7932649000000005Q13.666150251989746,7.8460684,13.638856651989746,7.8958511Q13.611563451989745,7.9456340999999995,13.580397651989745,7.9919169Q13.549232051989746,8.0381997,13.514493951989746,8.0805364Q13.479756151989747,8.1228733,13.441780551989746,8.1608565Q13.403804851989745,8.1988397,13.362957251989746,8.2321033Q13.322109951989747,8.2653673,13.278784051989746,8.2935915Q13.235457851989747,8.3218155,13.190070651989746,8.344728Q13.144683351989746,8.367640699999999,13.097671951989746,8.385021Q13.050660451989746,8.4024014,13.002477551989745,8.4140818Q12.954294651989747,8.4257627,12.905404551989745,8.4316316Q12.856514251989747,8.4375,12.807387351989746,8.4375Q12.758260551989746,8.4375,12.709370251989746,8.4316316Q12.660479901989746,8.4257629,12.612297001989747,8.4140821Q12.564114091989746,8.4024014,12.517102661989746,8.3850212Q12.470091161989746,8.367640699999999,12.424703831989746,8.344728Q12.379316571989746,8.3218155,12.335990551989745,8.2935915Q12.292664591989746,8.2653673,12.251817081989746,8.2321033Q12.210969621989745,8.1988397,12.172994081989746,8.1608565Q12.135018531989747,8.1228733,12.100280551989746,8.0805361Q12.065542641989746,8.0381994,12.034376901989747,7.9919165Q12.003211151989746,7.9456339,11.975917721989745,7.8958509Q11.948624311989747,7.8460681,11.925466081989747,7.7932646000000005Q11.902307837989746,7.7404611,11.883507810989746,7.6851453Q11.864707782989747,7.6298295,11.850447013989745,7.5725343Q11.836186242989745,7.5152392,11.826602069989747,7.4565163000000005Q11.817017897989746,7.3977935,11.812202624989746,7.3382084Q11.807387351989746,7.2786233,11.807387351989746,7.21875Q11.807387351989746,7.1588768,11.812202624989746,7.0992917Q11.817017897989746,7.0397067,11.826602069989747,6.98098361Q11.836186242989745,6.92226076,11.850447013989745,6.86496556Q11.864707782989747,6.8076703,11.883507810989746,6.7523545Q11.902307837989746,6.69703877,11.925466071989746,6.64423513Q11.948624311989747,6.59143162,11.975917721989745,6.54164875Q12.003211151989746,6.49186587,12.034376891989746,6.44558316Q12.065542641989746,6.39930046,12.100280551989746,6.35696357Q12.135018531989747,6.31462675,12.172994081989746,6.27664348Q12.210969651989746,6.23866025,12.251817111989746,6.20539638Q12.292664591989746,6.17213255,12.335990551989745,6.14390846Q12.379316571989746,6.11568435,12.424703831989746,6.092771806Q12.470091161989746,6.069859274,12.517102661989746,6.052478962Q12.564114091989746,6.035098646,12.612297001989747,6.023417935Q12.660479901989746,6.011737227,12.709370251989746,6.0058686137Q12.758260551989746,6,12.807387351989746,6Q12.856514251989747,6,12.905404451989746,6.0058686137Q12.954294651989747,6.011737227,13.002477551989745,6.023417935Q13.050660451989746,6.035098646,13.097671951989746,6.052478962Q13.144683351989746,6.069859274,13.190070651989746,6.092771806Q13.235457851989747,6.11568435,13.278783951989746,6.14390844Q13.322109951989747,6.17213255,13.362957251989746,6.20539638Q13.403804851989745,6.23866025,13.441780551989746,6.2766435099999995Q13.479756151989747,6.31462675,13.514493951989746,6.35696357Q13.549232051989746,6.39930046,13.580397651989745,6.44558316Q13.611563451989745,6.49186587,13.638856651989746,6.54164875Q13.666150251989746,6.59143162,13.689308551989747,6.64423513Q13.712466751989746,6.69703877,13.731266751989747,6.7523545Q13.750066851989747,6.8076703,13.764327651989746,6.86496556Q13.778588451989746,6.92226076,13.788172451989746,6.98098361Q13.797756751989747,7.0397067,13.802572151989747,7.0992917Q13.807387351989746,7.1588768,13.807387351989746,7.21875Z" fill="#000000" fill-opacity="1"/><path d="M19.234653205664063,7.0476777Q19.431770205664062,7.11935657,19.559901005664063,7.24748737L19.559950505664062,7.24743795Q19.609168805664062,7.29665637,19.673475705664064,7.32329321Q19.737782705664063,7.34992999,19.807388305664062,7.34993005Q19.84185340566406,7.34992999,19.875656105664063,7.34320617Q19.909459105664062,7.33648229,19.94130060566406,7.32329309Q19.973142105664063,7.31010389,20.001798905664064,7.29095608Q20.030455605664063,7.27180839,20.05482630566406,7.2474378900000005Q20.079196705664064,7.2230674,20.098344305664064,7.19441068Q20.117492205664064,7.16575396,20.130681305664062,7.13391238Q20.143870305664063,7.10207078,20.150594205664063,7.06826791Q20.15731810566406,7.0344650699999995,20.157318305664063,7Q20.157318305664063,6.93039459,20.130681505664064,6.86608756Q20.104044705664062,6.80178054,20.05482630566406,6.75256208L20.054875605664062,6.75251263Q19.81693480566406,6.51457193,19.47387340566406,6.3898223Q19.158112005664062,6.27500001,18.807388305664062,6.27500001Q18.456664565664063,6.27500001,18.140903235664062,6.3898223Q17.797841578764064,6.514572,17.55990093566406,6.75251263L17.559950415664062,6.75256211Q17.510731965664064,6.80178057,17.484095125664062,6.86608759Q17.457458285664064,6.93039459,17.457458285664064,7Q17.457458315664063,7.0344650699999995,17.46418210566406,7.06826794Q17.470905925664063,7.10207078,17.48409515566406,7.13391238Q17.497284355664064,7.16575396,17.516432165664064,7.19441068Q17.535579915664062,7.22306734,17.559950425664063,7.24743783Q17.584320935664064,7.27180833,17.61297762566406,7.29095608Q17.64163428566406,7.31010389,17.673475895664062,7.32329309Q17.70531748566406,7.33648229,17.739120349664063,7.34320617Q17.77292320866406,7.34992999,17.807388305664062,7.34993005Q17.876993715664064,7.34993005,17.941300715664063,7.32329321Q18.005607735664064,7.29665637,18.054826195664063,7.2474378900000005L18.054875675664064,7.24748737Q18.18300646566406,7.11935657,18.380123375664063,7.0476777Q18.579987045664062,6.97499999,18.807388305664062,6.97499999Q19.034789605664063,6.97499999,19.234653205664063,7.0476777Z" fill-rule="evenodd" fill="#000000" fill-opacity="1"/></svg>