<svg xmlns="http://www.w3.org/2000/svg" xmlns:xlink="http://www.w3.org/1999/xlink" fill="none" version="1.1" width="84.96309661865234" height="85.01811981201172" viewBox="0 0 84.96309661865234 85.01811981201172"><path d="M18.7034,41.316898C29.8034,36.066898,37.353401,28.166901,42.353401,16.516899C45.503399,21.2169,46.003399,25.4669,52.753399,32.2169C54.553402,34.016899,57.4534,36.316898,60.053402,38.016899C61.6534,39.066898,67.653397,41.866901,68.4534,42.566898C67.153397,43.416901,65.4534,43.916901,64.103401,44.616901C59.503399,47.016899,56.4534,49.516899,52.9034,53.066898C44.603401,61.366901,47.103401,61.266899,42.4534,68.516899C38.503399,62.116901,39.2034,60.016899,31.9534,52.816898C24.603401,45.516899,21.0534,45.7169,16.4534,42.566898C16.4534,42.566898,18.7034,41.316898,18.7034,41.316898C18.7034,41.316898,18.7034,41.316898,18.7034,41.316898ZM41.2034,0.21687882C35.803402,1.9168798,34.503399,7.8168797,29.5534,10.116899C24.1534,12.6669,14.5534,8.1168795,11.6034,13.4669C8.8534002,18.4669,13.453401,25.166901,9.0034008,31.366899C6.9034004,34.266899,-1.3965997,38.616901,0.20340337,44.166901C1.5034003,48.516899,8.2034006,50.9669,10.203401,55.566898C12.453401,60.666901,8.5534,70.416901,13.003401,73.216896C17.9534,76.316902,25.9034,72.016899,31.003401,75.716896C34.9034,78.566902,38.053402,85.966896,43.6534,84.916901C47.4534,84.216896,51.353401,77.016899,55.1534,74.966896C60.2034,72.266899,69.253403,76.616898,72.853401,72.216896C76.353401,67.966896,71.553398,59.2169,75.803398,53.816898C79.153397,49.566898,85.903397,46.366901,84.853401,41.416901C84.003403,37.366901,77.053398,33.766899,74.9534,29.916901C72.003403,24.5669,76.753403,14.866899,71.753403,11.7669C66.803398,8.6668797,58.853401,13.5669,53.4034,8.8168802C49.503399,5.3668799,46.003399,-1.2831202,41.2034,0.21687882C41.2034,0.21687882,41.2034,0.21687882,41.2034,0.21687882C41.2034,0.21687882,41.2034,0.21687882,41.2034,0.21687882Z" fill="#735222" fill-opacity="1"/></svg>