<svg xmlns="http://www.w3.org/2000/svg" xmlns:xlink="http://www.w3.org/1999/xlink" fill="none" version="1.1" width="78.48828125" height="85" viewBox="0 0 78.48828125 85"><path d="M22.21280078531575,18.463200060227088C41.62239778531575,-0.8036539697729123,65.16930378531575,-5.804050039772912,74.59229978531575,7.328249860227087C84.01529678531575,20.460601060227088,75.73359678531575,47.00330106022709,56.324000785315754,66.27020006022708C36.91450078531575,85.67979906022708,13.367700785315751,90.67310006022709,3.801969985315751,77.39809906022708C-5.471249814684249,64.13029906022709,2.810430085315751,37.723000060227086,22.21280078531575,18.463200060227088Z" fill="#F06321" fill-opacity="1"/><path d="M35.061268971252446,8.184072094974518C32.921268971252445,9.753391794974517,30.781269971252442,11.608062094974517,28.64126897125244,13.612462094974518C11.657049371252441,30.446962094974516,4.516629671252441,53.56576109497452,12.941019571252442,65.12876109497452C21.64356997125244,76.68466109497452,42.47976797125244,72.40466309497452,59.89196897125244,55.420463094974515C69.31496897125244,46.28986309497452,75.59227097125245,35.72556309497452,78.16027197125244,25.88166209497452C78.87356697125244,18.60576209497452,77.87506997125244,12.178662094974518,74.59366697125245,7.328092194974518C67.17506897125244,-2.9437780050254823,51.18956897125244,-2.094928005025482,35.061268971252446,8.184072094974518Z" fill="#AE282E" fill-opacity="1"/><path d="M59.60453945007324,10.324109830322266C59.60453945007324,10.324109830322266,59.60453945007324,10.752110030322266,59.60453945007324,10.752110030322266C59.46214145007324,13.177419630322266,58.035238450073244,16.173359830322266,55.46724145007324,18.741369830322263C51.61533945007324,22.450569830322266,46.47933945007324,23.877269830322266,44.332239450073246,21.744469830322267C41.90693845007324,19.461769830322268,43.34083945007325,14.461400030322267,47.19273945007324,10.466779930322266C51.187337450073244,6.6148269003222655,56.32324045007324,5.330839830322265,58.46323945007324,7.613479830322266C59.176538450073245,8.326799830322265,59.60453945007324,9.182789830322266,59.60453945007324,10.324109830322266C59.60453945007324,10.324109830322266,59.60453945007324,10.324109830322266,59.60453945007324,10.324109830322266C59.60453945007324,10.324109830322266,59.60453945007324,10.324109830322266,59.60453945007324,10.324109830322266ZM44.76733945007324,75.82867083032227C35.629638450073244,82.67657083032226,26.213788950073244,86.10766983032227,17.076139450073242,84.68107183032227C20.928089350073243,84.82367283032227,24.07381965007324,80.53667083032227,26.64176945007324,74.83006683032227C29.209739450073243,68.98076983032226,30.63643945007324,63.55947083032227,31.920339450073243,58.416469830322264C33.77503945007324,50.284568830322264,33.91773945007324,44.57796883032226,32.91903945007324,43.293967830322266C31.349739450073244,41.289569830322264,27.925739450073245,41.72467083032227,23.92399935007324,44.00727083032226C21.926699650073243,45.148570830322264,19.358759450073244,44.435268830322265,22.361829250073242,40.72597083032227C25.500479650073242,37.01676983032226,37.62703945007324,28.164369830322265,41.90693845007324,26.737668830322267C46.76463845007324,25.453670830322267,52.18593745007324,27.308370830322264,50.33133845007324,32.58696983032226C49.040239450073244,36.43897083032226,32.20573945007324,80.39397083032226,44.76733945007324,75.82867083032227Z" fill="#FFFFFF" fill-opacity="1"/></svg>