<svg xmlns="http://www.w3.org/2000/svg" xmlns:xlink="http://www.w3.org/1999/xlink" fill="none" version="1.1" width="85" height="85" viewBox="0 0 85 85"><path d="M22.9,80.199997C27.65,74,30.700001,66.5,31.450001,58.299999C31.450001,58.299999,54.299999,58.299999,54.299999,58.299999C55.049999,66.400002,58,73.800003,62.650002,79.949997C56.650002,83.150002,49.799999,85,42.549999,85C35.450001,85,28.75,83.25,22.9,80.199997C22.9,80.199997,22.9,80.199997,22.9,80.199997C22.9,80.199997,22.9,80.199997,22.9,80.199997ZM19,77.900002C7.5500002,70.300003,0,57.25,0,42.5C0,34.75,2.05,27.5,5.6999998,21.25C15.1,29.799999,21.299999,44.400002,21.299999,60.950001C21.299999,66.949997,20.5,72.650002,19,77.900002C19,77.900002,19,77.900002,19,77.900002ZM79.400002,21.35C82.949997,27.549999,85,34.799999,85,42.5C85,57.200001,77.550003,70.150002,66.150002,77.800003C64.699997,72.550003,63.900002,66.900002,63.900002,60.950001C63.950001,44.5,70.050003,29.950001,79.400002,21.35C79.400002,21.35,79.400002,21.35,79.400002,21.35C79.400002,21.35,79.400002,21.35,79.400002,21.35ZM46.450001,26.6C46.5,23.799999,46.599998,21.450001,46.75,19.549999C46.75,19.549999,48.599998,19.549999,48.599998,19.549999C49.650002,19.549999,50.900002,19.65,52.349998,19.9C52.349998,19.9,52.349998,14.4,52.349998,14.4C51,14.65,49.75,14.75,48.599998,14.75C48.299999,14.75,47.950001,14.75,47.549999,14.7C48.150002,12.7,49.150002,10.8,50.549999,8.8999996C50.549999,8.8999996,35.25,8.8999996,35.25,8.8999996C36.700001,11.1,37.700001,13.4,38.200001,15.9C38.650002,18.15,38.900002,21.75,38.950001,26.549999C27.299999,25.85,16.799999,22.049999,9,16.299999C16.75,6.4000001,28.9,0,42.5,0C56.25,0,68.5,6.5500002,76.25,16.700001C68.449997,22.299999,58,25.950001,46.450001,26.6C46.450001,26.6,46.450001,26.6,46.450001,26.6ZM35.400002,33.700001C35.400002,33.700001,50.25,33.700001,50.25,33.700001C50.799999,33.700001,51.25,34.150002,51.25,34.700001C51.25,34.700001,51.25,49.549999,51.25,49.549999C51.25,50.099998,50.799999,50.549999,50.25,50.549999C50.25,50.549999,35.400002,50.549999,35.400002,50.549999C34.849998,50.549999,34.400002,50.099998,34.400002,49.549999C34.400002,49.549999,34.400002,34.700001,34.400002,34.700001C34.400002,34.150002,34.849998,33.700001,35.400002,33.700001C35.400002,33.700001,35.400002,33.700001,35.400002,33.700001C35.400002,33.700001,35.400002,33.700001,35.400002,33.700001Z" fill="#A62626" fill-opacity="1"/></svg>