<svg xmlns="http://www.w3.org/2000/svg" xmlns:xlink="http://www.w3.org/1999/xlink" fill="none" version="1.1" width="84.95068359375" height="85.10009765625" viewBox="0 0 84.95068359375 85.10009765625"><path d="M61.24996337890625,64.5C61.24996337890625,64.5,67.69996237890625,64.5,67.69996237890625,64.5C71.39996337890625,64.450001,72.84996437890625,63.049999,73.79996537890625,61.450001C74.69996237890625,59.849998,74.79996537890625,58,74.79996537890625,57.599998C74.79996537890625,57.599998,74.79996537890625,22.5,74.79996537890625,22.5C74.74996137890625,19,73.64996337890625,17.6,72.64996337890625,16.85C71.59996437890625,16.1,70.34996437890625,16.05,70.14996337890625,16.05C70.14996337890625,16.05,66.64996337890625,16.05,66.64996337890625,16.05C63.94996237890625,16.1,62.89996337890625,17.05,62.14996337890625,18.25C61.44996237890625,19.5,61.24996337890625,21.1,61.24996337890625,22C61.24996337890625,22,61.24996337890625,64.5,61.24996337890625,64.5C61.24996337890625,64.5,61.24996337890625,64.5,61.24996337890625,64.5C61.24996337890625,64.5,61.24996337890625,64.5,61.24996337890625,64.5ZM69.94996237890625,12.9C69.94996237890625,12.9,70.09996437890625,12.9,70.09996437890625,12.9C70.59996437890625,12.9,71.99996137890625,12.95,73.54996537890625,13.75C68.39996337890625,8.25,61.79996337890625,4.1500001,54.34996437890625,2C50.94996237890625,2,45.89996337890625,2.59999901,41.69996357890625,5.45C37.49996327890625,8.25,33.89996337890625,13.15,33.14996337890625,22.5C33.14996337890625,22.5,33.14996337890625,31.299999,33.14996337890625,31.299999C34.14996337890625,30.700001,35.24996327890625,30.35,36.49996327890625,30.35C36.49996327890625,30.35,48.44996337890625,30.35,48.44996337890625,30.35C51.99996337890625,30.35,54.89996337890625,33.200001,54.89996337890625,36.75C54.89996337890625,36.75,54.89996337890625,36.799999,54.89996337890625,36.799999C54.89996337890625,37,54.94996237890625,37.25,54.89996337890625,37.5C54.89996337890625,37.5,54.89996337890625,63.5,54.89996337890625,63.5C54.89996337890625,63.650002,54.74996337890625,69.400002,51.39996337890625,75.349998C49.34996437890625,79.050003,45.89996337890625,82.800003,40.59996317890625,85.050003C41.19996357890625,85.050003,41.79996297890625,85.099998,42.44996357890625,85.099998C47.99996337890625,85.099998,53.29996337890625,84.050003,58.14996337890625,82.099998C58.14996337890625,82.099998,58.14996337890625,22.75,58.14996337890625,22.75C58.14996337890625,22.6,58.09996437890625,22.299999,58.09996437890625,21.950001C58.09996437890625,20.799999,58.24996337890625,18.700001,59.39996337890625,16.7C60.54996337890625,14.65,62.94996237890625,12.85,66.59996437890625,12.9C66.59996437890625,12.9,69.94996237890625,12.9,69.94996237890625,12.9C69.94996237890625,12.9,69.94996237890625,12.9,69.94996237890625,12.9C69.94996237890625,12.9,69.94996237890625,12.9,69.94996237890625,12.9ZM77.29996537890625,18.4C77.64996337890625,19.549999,77.89996337890625,20.9,77.84996437890625,22.450001C77.84996437890625,22.450001,77.84996437890625,57.599998,77.84996437890625,57.599998C77.84996437890625,58.25,77.79996537890625,60.599998,76.44996237890625,62.950001C75.14996337890625,65.349998,72.29996537890625,67.599998,67.64996337890625,67.550003C67.64996337890625,67.550003,61.19996237890625,67.550003,61.19996237890625,67.550003C61.19996237890625,67.550003,61.19996237890625,80.650002,61.19996237890625,80.650002C75.29996537890625,73.75,84.94996237890625,59.299999,84.94996237890625,42.650002C84.99996137890625,33.65,82.14996337890625,25.299999,77.29996537890625,18.4C77.29996537890625,18.4,77.29996537890625,18.4,77.29996537890625,18.4C77.29996537890625,18.4,77.29996537890625,18.4,77.29996537890625,18.4Z" fill="#E30016" fill-opacity="1"/><path d="M5.1500001,28.65C4.3499999,27.1,4.0999999,25.549999,4,24.4C1.4,29.85,0,35.950001,0,42.400002C0,48.799999,1.45,54.849998,4,60.299999C4,60.299999,4,48.849998,4,48.849998C4,48.849998,4,48.349998,4,48.349998C4,47.349998,4.0999999,45.150002,5.1999998,42.950001C6.25,40.75,8.6499996,38.650002,12.35,38.700001C12.35,38.700001,13.8,38.700001,13.8,38.700001C13.8,38.700001,13.8,32.849998,13.8,32.849998C13.8,32.849998,12.35,32.849998,12.35,32.849998C8.6000004,32.900002,6.1999998,30.85,5.1500001,28.65C5.1500001,28.65,5.1500001,28.65,5.1500001,28.65C5.1500001,28.65,5.1500001,28.65,5.1500001,28.65ZM21.35,42.700001C20.200001,41.900002,18.799999,41.849998,18.549999,41.849998C18.549999,41.849998,16.85,41.849998,16.85,41.849998C16.85,41.849998,16.85,76.150002,16.85,76.150002C19,77.75,21.299999,79.150002,23.700001,80.349998C23.700001,80.349998,23.700001,48.5,23.700001,48.5C23.700001,44.900002,22.5,43.5,21.35,42.700001C21.35,42.700001,21.35,42.700001,21.35,42.700001C21.35,42.700001,21.35,42.700001,21.35,42.700001ZM47.549999,75.400002C50.75,70.949997,51.599998,65.849998,51.799999,63.900002C51.849998,63.349998,51.849998,63.049999,51.849998,63.049999C51.849998,63.049999,51.849998,53.799999,51.849998,53.799999C50.849998,54.400002,49.75,54.75,48.5,54.75C48.5,54.75,36.549999,54.75,36.549999,54.75C33.049999,54.75,30.200001,51.950001,30.1,48.450001C30.1,48.450001,30.1,22,30.1,22C30.85,11.95,35,5.8499999,40,2.55C41.650002,1.45,43.299999,0.69999802,45,0.099998496C44.200001,0.049998499,43.349998,0,42.5,0C37,0.050000001,31.700001,1.1,26.85,3.05C26.85,3.05,26.85,23.200001,26.85,23.200001C26.9,27.5,25.15,30.200001,23.15,31.5C21.15,32.799999,19.200001,32.900002,18.65,32.900002C18.65,32.900002,16.9,32.900002,16.9,32.900002C16.9,32.900002,16.9,38.75,16.9,38.75C16.9,38.75,18.6,38.75,18.6,38.75C19.200001,38.75,21.15,38.799999,23.15,40.150002C25.15,41.450001,26.9,44.200001,26.85,48.5C26.85,48.5,26.85,81.75,26.85,81.75C28.75,82.5,30.700001,83.099998,32.700001,83.599998C40.349998,82.699997,44.75,79.199997,47.549999,75.400002C47.549999,75.400002,47.549999,75.400002,47.549999,75.400002C47.549999,75.400002,47.549999,75.400002,47.549999,75.400002ZM7.0999999,18.950001C7.0999999,18.950001,7.0999999,23.299999,7.0999999,23.299999C7.0999999,24.049999,7.1999998,25.85,7.9499998,27.25C8.75,28.65,9.6999998,29.700001,12.35,29.75C12.35,29.75,13.8,29.75,13.8,29.75C13.8,29.75,13.8,11.25,13.8,11.25C11.25,13.55,9,16.15,7.0999999,18.950001C7.0999999,18.950001,7.0999999,18.950001,7.0999999,18.950001ZM18.549999,29.75C18.85,29.75,20.200001,29.700001,21.35,28.9C22.5,28.1,23.65,26.700001,23.700001,23.200001C23.700001,23.200001,23.700001,4.4499998,23.700001,4.4499998C21.299999,5.6500001,19,7.0500002,16.85,8.6499996C16.85,8.6499996,16.85,29.75,16.85,29.75C16.85,29.75,18.549999,29.75,18.549999,29.75C18.549999,29.75,18.549999,29.75,18.549999,29.75ZM7.9499998,44.349998C7.1999998,45.799999,7.0999999,47.599998,7.0999999,48.349998C7.0999999,48.349998,7.0999999,65.800003,7.0999999,65.800003C9,68.650002,11.25,71.25,13.75,73.550003C13.75,73.550003,13.75,41.849998,13.75,41.849998C13.75,41.849998,12.3,41.849998,12.3,41.849998C9.6999998,41.900002,8.6999998,42.950001,7.9499998,44.349998C7.9499998,44.349998,7.9499998,44.349998,7.9499998,44.349998C7.9499998,44.349998,7.9499998,44.349998,7.9499998,44.349998Z" fill="#EC6519" fill-opacity="1"/></svg>