<svg xmlns="http://www.w3.org/2000/svg" xmlns:xlink="http://www.w3.org/1999/xlink" fill="none" version="1.1" width="80" height="80" viewBox="0 0 80 80"><path d="M16.15,39.5C13.6,35.599998,13,30.1,13,26C13,11.9,25.549999,0,38.75,0C38.75,0,80,0,80,0C80,0,64.099998,16.049999,64.099998,16.049999C64.099998,16.049999,38.549999,16.049999,38.549999,16.049999C28.299999,16.049999,15.75,26.4,16.15,39.5C16.15,39.5,16.15,39.5,16.15,39.5ZM32,28C33,24.65,36.349998,20.35,39.5,18C33.549999,18,26.85,20.950001,21.5,28C21.5,28,32,28,32,28C32,28,32,28,32,28ZM40.349998,20C37.950001,22.15,35.400002,25.25,34,28C34,28,46.5,28,46.5,28C45.299999,25.25,42.75,22.15,40.349998,20C40.349998,20,40.349998,20,40.349998,20ZM20.5,30.5C18.950001,33.25,18.35,36.349998,18,39.5C18,39.5,29.450001,39.5,29.450001,39.5C29.450001,36.349998,30.049999,33.25,31,30.5C31,30.5,20.5,30.5,20.5,30.5C20.5,30.5,20.5,30.5,20.5,30.5ZM32.799999,30.5C31.799999,33.25,31.4,36.349998,31,39.5C31,39.5,49,39.5,49,39.5C48.599998,36.349998,48.200001,33.25,47,30.5C47,30.5,32.799999,30.5,32.799999,30.5C32.799999,30.5,32.799999,30.5,32.799999,30.5ZM58.5,28C53.599998,20.950001,46.900002,18,41,18C44.150002,20.35,47.099998,24.65,48.450001,28C48.450001,28,58.5,28,58.5,28C58.5,28,58.5,28,58.5,28ZM49,30.5C49.950001,33.25,50.549999,36.349998,50.549999,39.5C50.549999,39.5,62,39.5,62,39.5C61.799999,36.349998,61.049999,33.25,59.5,30.5C59.5,30.5,49,30.5,49,30.5C49,30.5,49,30.5,49,30.5ZM21.5,52C26.85,59.450001,33.549999,62,39.5,62C36.349998,59.650002,32.950001,55.349998,32,52C32,52,21.5,52,21.5,52C21.5,52,21.5,52,21.5,52ZM40.349998,60C42.75,58.099998,45.299999,54.849998,46.5,52C46.5,52,34,52,34,52C35.400002,54.849998,37.950001,58.099998,40.349998,60C40.349998,60,40.349998,60,40.349998,60ZM31,50.5C30.049999,47.349998,29.450001,44.25,29.450001,41.5C29.450001,41.5,18,41.5,18,41.5C18.4,44.650002,18.950001,47.549999,20.5,50.5C20.5,50.5,31,50.5,31,50.5C31,50.5,31,50.5,31,50.5ZM47,50.5C48.200001,47.549999,48.599998,44.650002,49,41.5C49,41.5,31,41.5,31,41.5C31.4,44.650002,31.799999,47.549999,32.799999,50.5C32.799999,50.5,47,50.5,47,50.5C47,50.5,47,50.5,47,50.5ZM48.450001,52C47.049999,55.349998,44.150002,59.650002,41,62C46.900002,62,53.599998,59.450001,58.5,52C58.5,52,48.450001,52,48.450001,52C48.450001,52,48.450001,52,48.450001,52ZM59.5,50.5C61.049999,47.549999,61.849998,44.650002,62,41.5C62,41.5,50.549999,41.5,50.549999,41.5C50.549999,44.25,49.950001,47.349998,49,50.5C49,50.5,59.5,50.5,59.5,50.5C59.5,50.5,59.5,50.5,59.5,50.5ZM63.849998,40C64.050003,53.599998,51.700001,64.050003,41.5,64.050003C41.5,64.050003,16.049999,64.050003,16.049999,64.050003C16.049999,64.050003,0,80,0,80C0,80,41.150002,80,41.150002,80C54.25,80,67,68.199997,67,54C67,49.849998,66.400002,44.349998,63.849998,40.200001C63.849998,40.200001,63.849998,40,63.849998,40C63.849998,40,63.849998,40,63.849998,40Z" fill="#E30016" fill-opacity="1"/></svg>