<svg xmlns="http://www.w3.org/2000/svg" xmlns:xlink="http://www.w3.org/1999/xlink" fill="none" version="1.1" width="88" height="85.621826171875" viewBox="0 0 88 85.621826171875"><defs><linearGradient x1="-0.001652575796470046" y1="0.5241005420684814" x2="0.9824901205184668" y2="0.49141454368469084" id="master_svg0_0_3812"><stop offset="0%" stop-color="#00418F" stop-opacity="1"/><stop offset="7.000000029802322%" stop-color="#00418F" stop-opacity="1"/><stop offset="60.00000238418579%" stop-color="#39A6C1" stop-opacity="1"/><stop offset="97.00000286102295%" stop-color="#84CABF" stop-opacity="1"/><stop offset="100%" stop-color="#84CABF" stop-opacity="1"/></linearGradient><linearGradient x1="0.4754023551940918" y1="0.09211301058530807" x2="0.7324321306189175" y2="0.9324919686158977" id="master_svg1_0_3815"><stop offset="0%" stop-color="#0A6FAC" stop-opacity="1"/><stop offset="10.000000149011612%" stop-color="#0A6FAC" stop-opacity="1"/><stop offset="31.00000023841858%" stop-color="#0A6FAC" stop-opacity="1"/><stop offset="80.0000011920929%" stop-color="#004097" stop-opacity="1"/><stop offset="100%" stop-color="#004097" stop-opacity="1"/></linearGradient><linearGradient x1="0" y1="0.4999927282333374" x2="1" y2="0.4999927282333374" id="master_svg2_0_3818"><stop offset="0%" stop-color="#00418F" stop-opacity="1"/><stop offset="7.000000029802322%" stop-color="#00418F" stop-opacity="1"/><stop offset="60.00000238418579%" stop-color="#39A6C1" stop-opacity="1"/><stop offset="97.00000286102295%" stop-color="#84CABF" stop-opacity="1"/><stop offset="100%" stop-color="#84CABF" stop-opacity="1"/></linearGradient></defs><path d="M0.0008537240171863041,42.8088C-0.029045999042813696,47.287998,0.7271689779571863,51.9855,2.1529499979571867,56.304401C2.1529499979571867,56.304401,5.198389997957186,56.924,8.642600097957185,56.920601C15.273299997957187,56.926899,25.690099997957187,55.190102,34.26660199795719,51.1362C35.52859899795719,50.555099,36.79059999795719,49.974098,38.13849999795719,49.388699C44.14269999795719,45.551998,53.880401997957186,38.9417,59.65059999795719,37.2696C65.2534029979572,35.692299,66.87640399795718,35.437302,71.3556979979572,35.467201C71.3556979979572,35.467201,59.77679799795719,34.679901,45.84649999795719,40.1264C38.24819899795719,43.097099,23.162700997957185,52.908001,16.880099997957185,44.5313C27.174800997957185,53.908901,40.61199999795719,32.040699,68.68099999795719,31.987C78.92769599795719,31.9811,85.8063959979572,35.160801,87.4005969979572,36.026699C87.28399699795719,35.429901,87.2576979979572,34.914501,87.2576979979572,34.914501C83.40730299795719,15.1335,65.50129699795718,0.030285999,44.14459999795719,0C20.121098997957187,0.019607199,-0.023133399042813696,18.6994,0.0008537240171863041,42.8088C0.0008537240171863041,42.8088,0.0008537240171863041,42.8088,0.0008537240171863041,42.8088Z" fill="url(#master_svg0_0_3812)" fill-opacity="1"/><path d="M59.651745961975095,37.259435631103514C53.904846961975096,38.90065573110351,44.175346961975094,45.554615631103516,38.138847961975095,49.416915631103514C38.138847961975095,49.416915631103514,45.4379469619751,46.15631563110352,54.3431479619751,46.157515631103514C62.4119459619751,46.12571563110352,70.6197439619751,51.19021563110351,70.6024489619751,60.006114631103515C70.5979469619751,67.62001463110352,58.6396459619751,73.43211763110352,43.830048961975095,73.43961763110352C28.975845961975097,73.45521563110351,16.902646961975098,67.43011463110352,16.902946961975097,60.047614631103514C16.935646961975095,59.718715631103514,17.0864469619751,58.768615631103515,17.0864469619751,58.768615631103515C17.0864469619751,58.768615631103515,13.963246961975099,59.61141563110351,10.089236761975098,59.621314631103516C6.2152669619750975,59.631215631103515,3.2593469619750977,59.10561563110352,3.2593469619750977,59.10561563110352C3.2593469619750977,59.10561563110352,3.5594679719750975,59.743314631103516,3.5594679719750975,59.743314631103516C10.550996761975098,75.40981663110352,26.422546961975097,85.59131663110352,43.8228459619751,85.62191363110352C55.3554469619751,85.60831463110353,66.00924796197509,81.50921663110351,74.5780499619751,73.54291563110351C83.03714896197509,65.73501563110352,87.9613499619751,54.461215631103514,88.0000469619751,43.98042583110352C88.0000469619751,43.98042583110352,87.5544439619751,42.03099583110352,85.0542459619751,39.94635583110352C82.0629429619751,37.44316553110352,76.6674429619751,35.42179861110352,71.3599479619751,35.414615631103516C66.93374696197509,35.432315530103516,65.2646459619751,35.642492641103516,59.651745961975095,37.259435631103514C59.651745961975095,37.259435631103514,59.651745961975095,37.259435631103514,59.651745961975095,37.259435631103514Z" fill="url(#master_svg1_0_3815)" fill-opacity="1"/><path d="M10.075371257684326,59.651308894746094C6.170251157684326,59.651308894746094,3.275081157684326,59.11267086474609,3.275081157684326,59.11267086474609C3.275081157684326,59.11267086474609,3.5443991676843263,59.718637884746094,3.5443991676843263,59.718637884746094C6.439571157684326,66.1822738647461,11.085310957684326,72.10732386474609,16.740981157684324,76.4837248647461C16.740981157684324,76.4837248647461,17.481581157684325,76.9550248647461,17.481581157684325,76.9550248647461C24.753181157684327,79.8502238647461,30.947582157684327,80.5908238647461,37.61318115768432,80.5908238647461C53.70498215768433,80.5908238647461,70.60467815768433,72.10732386474609,70.60467815768433,60.055283864746094C70.60467815768433,67.7308540647461,58.35068115768433,73.4538238647461,43.80747915768433,73.4538238647461C28.994981157684325,73.4538238647461,16.875681157684326,67.3942041647461,16.875681157684326,60.055283864746094C16.875681157684326,59.718636874746096,17.077681157684324,58.776023864746094,17.077681157684324,58.776023864746094C17.077681157684324,58.776023864746094,13.913181157684326,59.651308894746094,10.075371257684326,59.651308894746094C10.075371257684326,59.651308894746094,10.075371257684326,59.651308894746094,10.075371257684326,59.651308894746094Z" fill="url(#master_svg2_0_3818)" fill-opacity="1"/></svg>