<svg xmlns="http://www.w3.org/2000/svg" xmlns:xlink="http://www.w3.org/1999/xlink" fill="none" version="1.1" width="85.51187896728516" height="84.98704528808594" viewBox="0 0 85.51187896728516 84.98704528808594"><path d="M0,42.2925C0.050000001,41.7925,0.1,41.342499,0.1,40.842499C0.44999999,31.442499,3.7,23.092501,9.6499996,15.7925C12.75,11.9925,16.450001,8.7925196,20.65,6.2425199C20.799999,6.14252,20.950001,6.0925198,21,5.9925199C20.200001,7.54252,19.35,9.0425301,18.65,10.6425C17.799999,12.6925,17.25,14.8425,17.1,17.0425C17,18.442499,16.950001,19.7925,16.950001,21.192499C16.950001,21.192499,16.950001,64.542503,16.950001,64.542503C16.15,64.392502,15.4,64.292503,14.7,64.142502C8.5,62.692501,4.1500001,59.092499,1.75,53.2425C1.15,51.7425,0.85000002,50.092499,0.60000002,48.4925C0.34999999,46.692501,0.25,44.892502,0.1,43.092499C0.1,42.9925,0.050000001,42.892502,0,42.7925C0,42.7925,0,42.2925,0,42.2925C0,42.2925,0,42.2925,0,42.2925C0,42.2925,0,42.2925,0,42.2925ZM6,63.9925C7.25,64.642502,8.5,65.442497,9.8000002,66.042503C12.25,67.142502,14.85,67.792503,17.5,67.892502C18.799999,67.942497,20.1,67.9925,21.35,67.9925C21.35,67.9925,65,67.9925,65,67.9925C64.849998,68.892502,64.699997,69.7425,64.5,70.592499C63.650002,74.092499,62,77.142502,59.400002,79.642502C56.900002,81.9925,53.849998,83.542503,50.5,84.192497C47.049999,84.892502,43.549999,85.142502,40.049999,84.892502C33.599998,84.4925,27.299999,82.592499,21.700001,79.392502C15.35,75.792503,10,70.592499,6.1999998,64.342499C6.1999998,64.342499,6,63.9925,6,63.9925C6,63.9925,6,63.9925,6,63.9925C6,63.9925,6,63.9925,6,63.9925ZM64.5,78.9925C65.150002,77.792503,65.849998,76.642502,66.449997,75.392502C67.5,73.192497,68.099998,70.892502,68.300003,68.4925C68.449997,66.942497,68.5,65.342499,68.5,63.7925C68.5,63.7925,68.5,20.4925,68.5,20.4925C69.550003,20.692499,70.599998,20.8925,71.599998,21.1425C77.550003,22.7425,81.599998,26.4925,83.900002,32.142502C84.5,33.692501,84.75,35.392502,85.050003,37.0425C85.449997,39.192501,85.550003,41.392502,85.5,43.5425C85.400002,48.892502,84.25,54.142502,82.150002,59.0425C78.599998,67.292503,72.550003,74.2425,64.800003,78.892502C64.800003,78.892502,64.5,78.9925,64.5,78.9925C64.5,78.9925,64.5,78.9925,64.5,78.9925C64.5,78.9925,64.5,78.9925,64.5,78.9925ZM20.5,16.7925C21.200001,11.6925,23.25,7.39252,27.35,4.2425199C29.65,2.4425199,32.349998,1.2925199,35.200001,0.74252391C38.299999,0.14252393,41.5,-0.10747707,44.650002,0.04252293C52.900002,0.39252293,60.900002,3.1925199,67.599998,8.0425196C72.25,11.3925,76.199997,15.6425,79.199997,20.4925C79.199997,20.4925,79.449997,20.9925,79.449997,20.9925C78.849998,20.592501,78.349998,20.2925,77.849998,19.9925C75,18.2925,71.800003,17.2925,68.5,16.9925C67.150002,16.8925,65.800003,16.7925,64.449997,16.7925C64.449997,16.7925,20.5,16.7925,20.5,16.7925C20.5,16.7925,20.5,16.7925,20.5,16.7925Z" fill="#E70012" fill-opacity="1"/></svg>