<svg xmlns="http://www.w3.org/2000/svg" xmlns:xlink="http://www.w3.org/1999/xlink" fill="none" version="1.1" width="80" height="80" viewBox="0 0 80 80"><path d="M80,40C80,40,80,75,80,75C80,77.761497,77.761497,80,75,80C75,80,40,80,40,80C40,80,40,53.5,40,53.5C40,53.5,51.5,53.5,51.5,53.5C52.0131,53.5,52.506599,53.302799,52.878399,52.9491C53.250198,52.595501,53.471802,52.112499,53.497501,51.599998C53.497501,51.599998,53.5,51.5,53.5,51.5C53.5,51.5,53.5,40,53.5,40C53.5,40,80,40,80,40C80,40,80,40,80,40ZM40,0C40,0,40,26.5,40,26.5C40,26.5,28.5,26.5,28.5,26.5C27.9869,26.5,27.493401,26.697201,27.121599,27.0509C26.7498,27.404499,26.5282,27.887501,26.502501,28.4C26.502501,28.4,26.5,28.5,26.5,28.5C26.5,28.5,26.5,40,26.5,40C26.5,40,0,40,0,40C0,40,0,5,0,5C0,2.2385001,2.2385001,0,5,0C5,0,40,0,40,0C40,0,40,0,40,0Z" fill="#D8B350" fill-opacity="1"/><path d="M26.5,40C26.5,40,26.5,51.5,26.5,51.5C26.5,52.0131,26.697201,52.506599,27.0509,52.878399C27.404499,53.250198,27.887501,53.471802,28.4,53.497501C28.4,53.497501,28.5,53.5,28.5,53.5C28.5,53.5,40,53.5,40,53.5C40,53.5,40,80,40,80C40,80,5,80,5,80C2.2850001,80,0.076000802,77.836502,0.0020008101,75.139999C0.0020008101,75.139999,0,75,0,75C0,75,0,40,0,40C0,40,26.5,40,26.5,40C26.5,40,26.5,40,26.5,40ZM75,0C77.714996,0,79.924004,2.1635001,79.998001,4.8600001C79.998001,4.8600001,80,5,80,5C80,5,80,40,80,40C80,40,53.5,40,53.5,40C53.5,40,53.5,28.5,53.5,28.5C53.5,27.9869,53.302799,27.493401,52.9491,27.121599C52.595501,26.7498,52.112499,26.5282,51.599998,26.502501C51.599998,26.502501,51.5,26.5,51.5,26.5C51.5,26.5,40,26.5,40,26.5C40,26.5,40,0,40,0C40,0,75,0,75,0C75,0,75,0,75,0Z" fill="#E50113" fill-opacity="1"/></svg>