<svg xmlns="http://www.w3.org/2000/svg" xmlns:xlink="http://www.w3.org/1999/xlink" fill="none" version="1.1" width="85.03030395507812" height="84.91110229492188" viewBox="0 0 85.03030395507812 84.91110229492188"><path d="M40.3745,42.361099C40.324501,42.411098,40.324501,42.461102,40.274502,42.511101C40.224499,42.461102,40.224499,42.411098,40.1745,42.411098C39.8745,42.511101,39.6245,42.861099,39.524502,43.361099C39.4245,43.861099,39.224499,44.361099,39.1245,44.861099C39.024502,45.3111,39.024502,45.8111,38.8745,46.461102C38.324501,45.861099,37.6745,45.3111,37.224499,44.661098C36.324501,43.361099,35.6745,42.011101,35.474499,40.361099C35.274502,38.911098,34.224499,38.0611,32.9245,37.461102C32.1745,37.111099,32.1745,37.0611,32.6245,36.361099C34.1745,34.211102,36.1745,32.761101,38.724499,32.0611C41.024502,31.4611,43.324501,31.5611,45.474499,32.861099C46.9245,33.761101,48.024502,34.961102,49.1245,36.211102C49.9245,37.161098,50.774502,38.111099,51.774502,38.911098C52.3745,39.411098,53.1745,39.661098,53.9245,39.8111C55.524502,40.161098,57.1245,40.211102,58.6745,40.611099C59.774502,40.911098,60.574501,41.761101,61.024502,42.911098C61.224499,43.461102,61.074501,43.861099,60.724499,44.261101C59.974499,45.011101,59.1745,45.711102,58.4245,46.461102C57.6245,47.261101,56.8745,48.111099,56.1245,48.911098C55.474499,49.611099,54.824501,50.3111,54.1245,50.961102C53.9245,51.161098,53.474499,51.261101,53.224499,51.111099C51.724499,50.361099,50.1245,49.661098,48.774502,48.661098C47.4245,47.661098,46.574501,46.261101,47.1245,44.361099C47.274502,43.911098,47.274502,43.411098,47.1245,42.961102C47.074501,42.8111,46.9245,42.611099,46.724499,42.511101C46.6245,42.461102,46.524502,42.411098,46.4245,42.411098C46.1745,42.411098,45.724499,42.711102,45.6745,42.961102C45.4245,44.161098,45.274502,45.411098,45.1245,46.661098C45.024502,47.411098,45.3745,48.011101,45.824501,48.5611C45.824501,48.5611,46.1245,49.011101,46.1245,49.011101C45.1245,49.111099,43.774502,47.961102,43.724499,46.911098C43.6745,46.161098,43.774502,45.361099,43.824501,44.5611C43.8745,44.111099,44.024502,43.611099,44.024502,43.161098C44.024502,42.911098,43.724499,42.461102,43.574501,42.461102C43.274502,42.461102,42.824501,42.711102,42.774502,42.961102C42.474499,44.011101,42.224499,45.0611,42.1245,46.111099C42.074501,46.861099,42.3745,47.661098,42.474499,48.411098C41.524502,48.361099,40.3745,46.761101,40.6245,45.911098C40.824501,45.161098,40.974499,44.411098,41.1245,43.661098C41.224499,43.161098,41.224499,42.661098,40.574501,42.461102C40.474499,42.361099,40.4245,42.361099,40.3745,42.361099C40.3745,42.361099,40.3745,42.361099,40.3745,42.361099C40.3745,42.361099,40.3745,42.361099,40.3745,42.361099ZM46.9245,40.461102C46.774502,40.261101,46.6245,40.111099,46.4245,40.0611C46.224499,40.011101,45.974499,40.111099,45.824501,40.261101C45.6745,40.411098,45.6245,40.661098,45.6245,40.861099C45.6245,41.011101,45.724499,41.161098,45.8745,41.3111C45.824501,41.0611,45.9245,40.8111,46.074501,40.611099C46.224499,40.411098,46.474499,40.3111,46.6745,40.361099C46.824501,40.361099,46.8745,40.411098,46.9245,40.461102C46.9245,40.461102,46.9245,40.461102,46.9245,40.461102C46.9245,40.461102,46.9245,40.461102,46.9245,40.461102ZM41.024502,40.861099C41.074501,40.411098,40.724499,40.111099,40.274502,40.111099C40.074501,40.111099,39.8745,40.161098,39.724499,40.3111C39.574501,40.461102,39.524502,40.661098,39.574501,40.861099C39.574501,40.861099,39.574501,40.911098,39.574501,40.911098C39.574501,40.911098,39.724499,40.611099,39.724499,40.611099C39.8745,40.411098,40.074501,40.3111,40.274502,40.361099C40.6245,40.361099,40.8745,40.5611,41.024502,40.861099C41.024502,40.861099,41.024502,40.861099,41.024502,40.861099ZM44.074501,40.861099C44.024502,40.5611,43.6745,40.161098,43.3745,40.111099C43.1245,40.0611,42.774502,40.461102,42.474499,40.661098C42.474499,40.661098,42.474499,40.961102,42.474499,40.961102C42.524502,41.011101,42.574501,41.011101,42.6245,41.0611C42.9245,40.8111,43.274502,40.361099,43.524502,40.411098C43.724499,40.461102,43.9245,40.661098,44.074501,40.861099C44.074501,40.861099,44.074501,40.861099,44.074501,40.861099ZM75.074501,39.511101C75.074501,39.511101,68.324501,39.511101,68.324501,39.511101C67.874496,39.511101,67.524498,39.411098,67.374496,38.961102C67.274498,38.8111,67.1745,38.661098,67.074501,38.5611C65.6745,37.211102,64.274498,35.911098,62.8745,34.5611C61.974499,33.711102,61.1745,32.761101,60.274502,31.861099C59.024502,30.611099,57.724499,29.4111,56.4245,28.1611C55.3745,27.1611,54.324501,26.1611,53.324501,25.111099C52.4245,24.2111,51.574501,23.2111,50.6245,22.3111C49.4245,21.111099,48.074501,20.011101,46.974499,18.761101C46.1245,17.761101,45.1245,17.0611,43.8745,16.761101C41.824501,16.3111,40.1745,16.9111,38.774502,18.4611C38.024502,19.3111,37.1245,20.0611,36.324501,20.861099C34.974499,22.261101,33.6245,23.6611,32.224499,25.011101C31.4245,25.8111,30.574501,26.5611,29.7745,27.361099C28.474501,28.6611,27.224501,30.011101,25.9245,31.3111C25.074501,32.161098,24.1745,32.911098,23.3745,33.761101C22.1245,35.011101,20.9245,36.3111,19.6745,37.5611C19.1245,38.161098,18.574501,38.761101,17.974501,39.261101C16.574501,40.511101,16.3745,42.8111,16.9245,44.261101C17.3745,45.461102,18.324501,46.3111,19.224501,47.211102C20.1745,48.161098,21.1245,49.0611,22.074501,50.011101C22.074501,50.011101,27.574501,55.361099,27.574501,55.361099C28.474501,56.261101,29.324501,57.161098,30.224501,58.011101C32.324501,60.0611,34.3745,62.161098,36.474499,64.211098C37.3745,65.111099,38.274502,66.061096,39.224499,66.911102C40.524502,68.161102,42.1245,68.361099,43.824501,68.061096C44.974499,67.861099,45.824501,67.211098,46.6245,66.411102C53.324501,59.711102,60.074501,53.0611,66.724503,46.3111C67.624496,45.411098,68.474503,45.111099,69.6745,45.161098C73.724503,45.211102,77.824501,45.161098,81.874496,45.161098C84.524498,45.161098,85.224503,46.0611,84.9245,48.5611C84.724503,50.411098,84.324501,52.211102,83.774498,53.961102C83.074501,56.211102,82.224503,58.411098,81.274498,60.5611C80.624496,62.0611,79.724503,63.461102,78.824501,64.811096C77.6745,66.561096,76.4245,68.211098,75.1745,69.861099C74.374496,70.861099,73.374496,71.761101,72.4245,72.711098C71.524498,73.561096,70.6745,74.411102,69.724503,75.211098C67.9245,76.661102,66.024498,78.061096,63.974499,79.161102C62.024502,80.161102,60.074501,81.161102,58.024502,82.011101C56.4245,82.711098,54.824501,83.211098,53.1245,83.611099C49.774502,84.311096,46.4245,84.911102,42.974499,84.911102C40.1245,84.911102,37.324501,84.611099,34.524502,84.111099C32.274502,83.711098,30.074501,83.161102,27.974501,82.311096C26.474501,81.711098,24.974501,81.111099,23.474501,80.461098C22.974501,80.211098,22.474501,79.961098,22.0245,79.661102C20.1745,78.461098,18.324501,77.311096,16.574501,76.011101C15.0745,74.911102,13.6745,73.761101,12.3745,72.461098C11.0745,71.111099,9.9245205,69.611099,8.7245207,68.161102C7.8245201,67.061096,7.0245204,65.861099,6.2245202,64.711098C5.7245202,63.961102,5.3745203,63.211102,4.9245205,62.411098C3.1245203,59.161098,1.7745203,55.661098,1.0245203,52.011101C-0.12547573,46.5611,-0.37547472,41.111099,0.62452525,35.611099C1.1245203,32.8111,1.8745203,30.0611,2.9245203,27.4111C3.6245203,25.5611,4.5745201,23.761101,5.5745201,22.0611C6.5245204,20.4111,7.5745201,18.8111,8.7245207,17.3111C9.8245201,15.8111,10.974501,14.3611,12.2745,13.0111C13.5745,11.6611,15.0245,10.5611,16.4245,9.4111099C17.574501,8.4611101,18.7745,7.5111098,20.074501,6.7111101C21.4245,5.8611097,22.8745,5.2111101,24.2745,4.4111099C26.474501,3.2611098,28.7745,2.31111,31.1245,1.7111099C37.024502,0.11111192,43.024502,-0.53888905,49.074501,0.5111109C52.224499,1.0611099,55.324501,1.7611099,58.324501,2.9611099C60.574501,3.86111,62.724499,4.81111,64.774498,6.1111097C66.274498,7.1111097,67.824501,8.1111097,69.274498,9.2111101C70.724503,10.3611,72.1745,11.5611,73.524498,12.8111C74.324501,13.5611,74.974503,14.4611,75.624496,15.3111C76.524498,16.4111,77.474503,17.511101,78.274498,18.7111C79.4245,20.5611,80.624496,22.4111,81.524498,24.361099C82.874496,27.261101,83.9245,30.261101,84.624496,33.411098C84.824501,34.361099,84.974503,35.3111,85.024498,36.3111C85.124496,38.161098,83.9245,39.461102,82.024498,39.511101C82.024498,39.511101,75.074501,39.511101,75.074501,39.511101C75.074501,39.511101,75.074501,39.511101,75.074501,39.511101C75.074501,39.511101,75.074501,39.511101,75.074501,39.511101ZM27.824501,40.361099C29.0245,40.511101,30.074501,41.011101,30.9245,41.861099C31.824501,42.711102,32.724499,43.5611,33.524502,44.511101C34.274502,45.361099,34.9245,46.3111,35.574501,47.211102C35.974499,47.761101,36.4245,48.361099,36.824501,48.961102C37.6745,50.361099,38.824501,51.511101,40.3745,52.011101C41.274502,52.3111,42.274502,52.511101,43.224499,52.5611C44.524502,52.611099,45.774502,52.511101,47.074501,52.461102C48.3745,52.411098,49.574501,52.461102,50.724499,53.161098C51.1245,53.411098,51.1745,53.611099,50.824501,53.961102C49.9245,54.861099,49.1245,55.8111,48.274502,56.761101C47.3745,57.711102,46.474499,58.661098,45.6245,59.611099C45.224499,60.0611,44.774502,60.461102,44.324501,60.861099C43.574501,61.461102,42.6245,61.461102,41.9245,60.861099C40.824501,59.961102,39.774502,58.961102,38.724499,58.011101C37.8745,57.261101,37.024502,56.461102,36.224499,55.661098C35.524502,54.961102,34.824501,54.161098,34.1245,53.461102C34.1245,53.461102,31.574501,50.911098,31.574501,50.911098C30.824501,50.161098,30.1245,49.411098,29.4245,48.661098C28.574501,47.761101,27.724501,46.911098,26.9245,46.011101C26.1745,45.211102,25.474501,44.411098,24.724501,43.611099C24.5245,43.361099,24.2745,43.0611,24.0245,42.861099C23.6745,42.5611,23.724501,42.3111,24.0245,41.961102C24.6745,40.961102,26.724501,40.361099,27.824501,40.361099C27.824501,40.361099,27.824501,40.361099,27.824501,40.361099C27.824501,40.361099,27.824501,40.361099,27.824501,40.361099Z" fill="#DA251C" fill-opacity="1"/></svg>