<svg xmlns="http://www.w3.org/2000/svg" xmlns:xlink="http://www.w3.org/1999/xlink" fill="none" version="1.1" width="88" height="61.634979248046875" viewBox="0 0 88 61.634979248046875"><path d="M62.00780487060547,39.21790267314453C62.00780487060547,39.21790267314453,72.09310487060547,33.81397247314453,72.09310487060547,33.81397247314453C72.09310487060547,33.81397247314453,79.58630587060547,49.38957247314453,79.58630587060547,49.38957247314453C79.58630587060547,49.38957247314453,68.43286467060547,49.38957247314453,68.43286467060547,49.38957247314453C68.43286467060547,49.40297247314453,66.28858467060547,49.40297247314453,65.43244477060547,47.46527247314453C64.63913487060547,45.33667247314453,62.01565529030547,39.21790267314453,62.00780487060547,39.21790267314453C62.00780487060547,39.21790267314453,62.00780487060547,39.21790267314453,62.00780487060547,39.21790267314453Z" fill="#43494D" fill-opacity="1"/><path d="M0.8472901582717896,54.36166000366211C0.8472901582717896,54.36166000366211,81.98499315827179,54.36166000366211,81.98499315827179,54.36166000366211C81.98499315827179,54.36166000366211,81.98499315827179,61.63497020366211,81.98499315827179,61.63497020366211C81.98499315827179,61.63497020366211,0.8472901582717896,61.63497020366211,0.8472901582717896,61.63497020366211C0.8472901582717896,61.63497020366211,0.8472901582717896,54.36166000366211,0.8472901582717896,54.36166000366211C0.8472901582717896,54.36166000366211,0.8472901582717896,54.36166000366211,0.8472901582717896,54.36166000366211Z" fill="#43494D" fill-opacity="1"/><g transform="matrix(1,0,0,-1,0,100.11640930175781)"><path d="M67.59379666609078,76.63110544375309C67.59379666609078,76.63110544375309,59.19730066609078,95.19930444375308,59.19730066609078,95.19930444375308C59.19730066609078,95.19930444375308,47.022697666090785,95.19930444375308,47.022697666090785,95.19930444375308C47.022697666090785,95.19930444375308,29.907598666090784,63.26260444375309,29.907598666090784,63.26260444375309C29.923300666090785,63.24690544375309,38.319901666090786,63.52180444375309,43.70809966609078,67.56690344375309C45.082600666090784,68.37590344375309,48.609299666090784,77.87210444375309,52.12820166609078,84.64270544375309C52.40309966609078,85.48310644375309,52.69369966609079,84.6663034437531,52.69369966609079,84.64270544375309C52.69369966609079,84.64270544375309,57.917000666090786,71.54130544375309,57.917000666090786,71.54130544375309C49.630398666090784,67.3077044437531,41.77579966609078,63.57670444375309,37.55009866609078,62.39070444375309C26.372999666090784,59.170334543753086,12.768999666090785,57.23814454375309,7.883430166090784,61.57390444375309C3.2963599660907845,65.64250444375308,13.907899666090785,82.7341054437531,33.96839966609078,86.53570344375308C37.19670166609078,87.3369044437531,39.13670066609078,87.08550444375308,39.13670066609078,87.08550444375308C39.13670066609078,87.08550444375308,37.51870066609079,93.3299044437531,36.67820066609078,94.13100544375308C35.06800166609079,95.81190644375309,33.724899666090785,96.34600644375308,31.525599666090784,96.06330644375309C27.166399666090783,95.81190644375309,8.715980266090785,90.88710544375309,1.4033699660907843,75.4686044437531C-2.6495800339092157,66.7186044437531,3.0135499660907845,57.50520484375309,6.5559598660907845,55.11742464375309C7.639889866090784,54.23770444375309,18.502800666090785,44.772904543753086,42.647697666090785,54.221954543753085C66.55699966609079,63.52180444375309,87.98429966609078,78.13920344375309,88.00000066609078,78.13920344375309C88.00000066609078,78.13920344375309,88.00000066609078,87.91020344375309,88.00000066609078,87.91020344375309C88.00000066609078,87.91020344375309,78.55100366609078,82.5063034437531,67.59379666609078,76.63110544375309Z" fill="#43494D" fill-opacity="1"/></g><path d="M87.99825842285156,8.396539699980293C87.98485742285156,8.396539699980293,75.23457812285156,15.716999999980294,72.24983832285156,16.832299999980293C69.50860832285156,17.916299999980293,68.43254852285156,16.533898999980295,68.18119832285156,15.984099999980293C67.63137842285157,15.449999999980292,66.02122452485156,10.595899999980293,66.03692537345157,10.580199999980293C66.02354392385156,10.597999999980294,66.81451344285156,10.597999999980294,68.43254852285156,10.313099999980293C70.36477852285157,9.770799599980293,87.98255942285157,-0.01568200101970615,87.99825842285156,0.000018871700293850093C87.99825842285156,0.000018871700293850093,87.99825842285156,8.396539699980293,87.99825842285156,8.396539699980293Z" fill="#277656" fill-opacity="1"/></svg>