<svg xmlns="http://www.w3.org/2000/svg" xmlns:xlink="http://www.w3.org/1999/xlink" fill="none" version="1.1" width="85.00022888183594" height="84.99949645996094" viewBox="0 0 85.00022888183594 84.99949645996094"><path d="M76.631599,36.125C76.631599,36.125,48.7351,8.3365002,48.7351,8.3365002C46.766102,6.375,46.766102,3.4324999,48.7351,1.4715C50.704102,-0.4905,53.6581,-0.4905,55.627102,1.4715C55.627102,1.4715,83.522598,29.259501,83.522598,29.259501C85.492104,31.221001,85.492104,34.163502,83.522598,36.125C81.881599,38.086498,78.600098,38.086498,76.631104,36.125C76.631104,36.125,76.631599,36.125,76.631599,36.125C76.631599,36.125,76.631599,36.125,76.631599,36.125ZM46.1101,24.682501C46.1101,24.682501,30.357101,8.9905005,30.357101,8.9905005C28.388102,7.0289998,28.388102,4.0865002,30.357101,2.125C32.326603,0.163499,35.280102,0.163499,37.2491,2.125C37.2491,2.125,53.002102,17.817499,53.002102,17.817499C54.9711,19.778999,54.9711,22.721001,53.002102,24.682501C51.0331,26.643999,48.079102,26.643999,46.1101,24.682501C46.1101,24.682501,46.1101,24.682501,46.1101,24.682501C46.1101,24.682501,46.1101,24.682501,46.1101,24.682501ZM36.592602,34.163502C36.592602,34.163502,20.840101,18.471001,20.840101,18.471001C18.870602,16.509501,18.870602,13.5675,20.840101,11.606C22.809101,9.6440001,25.762602,9.6440001,27.731602,11.606C27.731602,11.606,43.4846,27.298,43.4846,27.298C45.453602,29.259501,45.453602,32.202,43.4846,34.162998C41.515602,35.798,38.562099,35.798,36.592602,34.162998C36.592602,34.162998,36.592602,34.163502,36.592602,34.163502C36.592602,34.163502,36.592602,34.163502,36.592602,34.163502ZM27.075602,43.317501C27.075602,43.317501,11.322601,27.625,11.322601,27.625C9.3536215,25.6635,9.3536215,22.721001,11.322601,20.76C13.291601,18.798,16.245102,18.798,18.214602,20.76C18.214602,20.76,33.967102,36.452,33.967102,36.452C35.9366,38.413502,35.9366,41.355999,33.967102,43.317001C32.326603,45.278999,29.044601,45.278999,27.075602,43.317001C27.075602,43.317001,27.075602,43.317501,27.075602,43.317501C27.075602,43.317501,27.075602,43.317501,27.075602,43.317501ZM1.8051312,37.105999C-0.16387275,35.144001,-0.16387275,32.202,1.8051312,30.240499C3.7741313,28.278999,6.7281313,28.278999,8.6971312,30.240499C8.6971312,30.240499,24.450102,45.932499,24.450102,45.932499C26.419102,47.894001,26.419102,50.836498,24.450102,52.798C22.809101,54.759499,19.527102,54.759499,17.558102,52.798C17.558102,52.798,1.8051312,37.105999,1.8051312,37.105999C1.8051312,37.105999,1.8051312,37.105999,1.8051312,37.105999ZM76.631599,54.759499C76.631599,54.759499,60.878601,39.067501,60.878601,39.067501C58.909603,37.105999,58.909603,34.163502,60.878601,32.202C62.847603,30.240499,65.801102,30.240499,67.770599,32.202C67.770599,32.202,83.523102,47.894001,83.523102,47.894001C85.492599,49.855999,85.492599,52.798,83.523102,54.759499C81.5541,56.721001,78.272102,56.721001,76.631599,54.759499C76.631599,54.759499,76.631599,54.759499,76.631599,54.759499ZM67.114098,64.240501C67.114098,64.240501,51.361103,48.548,51.361103,48.548C49.392101,46.586498,49.392101,43.644001,51.361103,41.682999C53.330101,39.721001,56.2841,39.721001,58.253101,41.682999C58.253101,41.682999,74.006104,57.375,74.006104,57.375C75.975098,59.336498,75.975098,62.278999,74.006104,64.239998C72.036598,66.202003,69.083099,66.202003,67.114098,64.239998C67.114098,64.239998,67.114098,64.240501,67.114098,64.240501C67.114098,64.240501,67.114098,64.240501,67.114098,64.240501ZM57.5966,73.721001C57.5966,73.721001,41.843601,58.028999,41.843601,58.028999C39.874599,56.067501,39.874599,53.125,41.843601,51.163502C43.812603,49.202,46.766602,49.202,48.7356,51.163502C48.7356,51.163502,64.488602,66.856003,64.488602,66.856003C66.457603,68.817497,66.457603,71.759499,64.488602,73.721001C62.5196,75.682503,59.565601,75.682503,57.5966,73.721001C57.5966,73.721001,57.5966,73.721001,57.5966,73.721001C57.5966,73.721001,57.5966,73.721001,57.5966,73.721001ZM48.079102,83.202003C48.079102,83.202003,32.326603,67.509499,32.326603,67.509499C30.357101,65.547997,30.357101,62.605999,32.326603,60.644501C34.295601,58.682499,37.2491,58.682499,39.218102,60.644501C39.218102,60.644501,54.9711,76.336502,54.9711,76.336502C56.940102,78.297997,56.940102,81.240501,54.9711,83.2015C53.002102,85.163498,50.048603,85.163498,48.079102,83.2015C48.079102,83.2015,48.079102,83.202003,48.079102,83.202003C48.079102,83.202003,48.079102,83.202003,48.079102,83.202003ZM29.372601,83.528999C29.372601,83.528999,1.4771212,55.740002,1.4771212,55.740002C-0.49237376,53.7785,-0.49237376,50.835999,1.4771212,48.8745C3.4461312,46.912998,6.399631,46.912998,8.3686314,48.8745C8.3686314,48.8745,36.264603,76.663002,36.264603,76.663002C38.233601,78.624496,38.233601,81.567001,36.264603,83.528C34.295601,85.489998,31.3416,85.489998,29.372601,83.528C29.372601,83.528,29.372601,83.528999,29.372601,83.528999C29.372601,83.528999,29.372601,83.528999,29.372601,83.528999Z" fill="#E60012" fill-opacity="1"/></svg>