<svg xmlns="http://www.w3.org/2000/svg" xmlns:xlink="http://www.w3.org/1999/xlink" fill="none" version="1.1" width="64.435546875" height="85" viewBox="0 0 64.435546875 85"><path d="M0,0C0,0,64.435501,0,64.435501,0C64.435501,0,64.435501,53.2393,64.435501,53.2393C64.435501,53.2393,32.400501,21.569901,32.400501,21.569901C32.400501,21.569901,32.400501,85,32.400501,85C32.400501,85,0,53.2393,0,53.2393C0,53.2393,0,0,0,0C0,0,0,0,0,0Z" fill="#029286" fill-opacity="1"/><path d="M32.44623565673828,84.99999464416504C32.44623565673828,84.99999464416504,32.44623565673828,21.47849464416504,32.44623565673828,21.47849464416504C32.44623565673828,21.47849464416504,64.43543665673829,53.193593644165034,64.43543665673829,53.193593644165034C64.43543665673829,53.193593644165034,32.44623565673828,84.99999464416504,32.44623565673828,84.99999464416504C32.44623565673828,84.99999464416504,32.44623565673828,84.99999464416504,32.44623565673828,84.99999464416504Z" fill="#F3C003" fill-opacity="1"/></svg>