<svg xmlns="http://www.w3.org/2000/svg" xmlns:xlink="http://www.w3.org/1999/xlink" fill="none" version="1.1" width="85" height="84.984375" viewBox="0 0 85 84.984375"><path d="M50.642399134110605,64.78235477197265C50.642399134110605,64.78235477197265,50.642399134110605,83.40445377197265,50.642399134110605,83.40445377197265C50.642399134110605,84.75875477197266,50.303799134110605,84.98445477197265,49.06240113411061,84.98445477197265C49.06240113411061,84.98445477197265,35.85760113411061,84.98445477197265,35.85760113411061,84.98445477197265C34.61610013411061,84.98445477197265,34.27750013411061,84.64595377197266,34.27750013411061,83.29155377197266C34.27750013411061,83.29155377197266,34.27750013411061,66.24955377197266,34.27750013411061,66.24955377197266C34.27750013411061,66.24955377197266,34.27750013411061,64.66945477197265,34.27750013411061,64.66945477197265C32.810398134110606,64.55665377197266,31.455999134110606,64.33095377197266,30.101700134110608,64.21805377197265C28.295900134110607,63.99235377197266,26.37730013411061,63.76655377197265,24.57150113411061,63.54085377197266C23.330000134110605,63.42805277197266,23.104300134110606,63.54085377197266,22.76569913411061,64.89525377197265C21.524200134110608,71.32825477197265,19.831301134110607,77.64855177197265,17.461201134110606,83.74305377197265C17.122700134110605,84.53305477197266,16.671200134110606,84.98445477197265,15.768300134110607,84.98445477197265C15.768300134110607,84.98445477197265,1.209229934110607,84.98445477197265,1.209229934110607,84.98445477197265C0.08061510311060706,84.98445477197265,-0.25796799588939295,84.42015477197265,0.19347600411060706,83.29155377197266C2.4506999341106073,78.09995277197265,4.143620134110607,72.68265377197265,5.385090034110607,67.03955477197266C6.2879802341106075,62.976552771972656,6.852289834110607,58.800653771972655,7.416589834110607,54.62483407197266C7.755170034110607,51.916173971972654,7.868040234110607,49.094643571972654,8.093759634110608,46.273113871972654C8.206620334110607,45.03163878197265,8.770930434110607,44.693057791972656,10.012400134110607,44.91878008797266C13.172500134110606,45.70880776197266,16.44549913411061,46.611693771972654,19.605600134110606,47.28886387197266C23.55570013411061,47.96603367197265,27.505899134110606,48.643193671972654,31.455999134110606,48.98178387197265C36.98619813411061,49.320363971972654,42.51639913411061,49.433223771972656,47.933800134110605,49.320363971972654C53.01250113411061,49.207503771972654,57.978401134110605,48.756063671972655,62.94430213411061,47.740303771972656C67.0073011341106,46.83742377197266,70.95739713411061,45.934533871972654,75.02040113411061,45.03163978197266C76.37480213411061,44.69305679197266,76.93910213411061,45.031640781972655,77.0519031341106,46.498833771972656C77.50340313411061,54.73770337197266,78.51909613411061,62.976552771972656,80.66349813411061,70.98975377197266C81.7920991341106,75.05275377197266,83.2593001341106,78.88995377197266,84.7265011341106,82.84015277197265C85.2908021341106,84.53305477197266,85.0651021341106,84.98445477197265,83.2593001341106,84.98445477197265C83.2593001341106,84.98445477197265,69.8287961341106,84.98445477197265,69.8287961341106,84.98445477197265C68.70020313411061,84.98445477197265,68.02300313411061,84.64595377197266,67.5716021341106,83.51725377197266C65.31440013411061,77.19705177197265,63.508598134110606,70.87685377197266,62.38000113411061,64.21805377197265C62.267101134110604,63.42805277197266,61.70280113411061,63.54085377197266,61.251400134110604,63.54085377197266C59.21989813411061,63.76655377197265,57.075500134110605,63.99235377197266,55.04399913411061,64.21805377197265C53.57680113411061,64.55665377197266,52.10960013411061,64.55665377197266,50.642399134110605,64.78235477197265C50.642399134110605,64.78235477197265,50.642399134110605,64.78235477197265,50.642399134110605,64.78235477197265C50.642399134110605,64.78235477197265,50.642399134110605,64.78235477197265,50.642399134110605,64.78235477197265Z" fill="#0A69B8" fill-opacity="1"/><path d="M34.39048886771107,20.31500099999977C34.39048886771107,19.75069999999977,34.50328886771107,19.299298999999774,34.50328886771107,18.84779899999977C34.50328886771107,18.84779899999977,34.50328886771107,1.6929199999997726,34.50328886771107,1.6929199999997726C34.50328886771107,0.22572199999977263,34.61618886771107,0.11286099999977263,36.08338986771107,0.11286099999977263C36.08338986771107,0.11286099999977263,49.06238986771107,0.11286099999977263,49.06238986771107,0.11286099999977263C50.64249086771107,0.11286099999977263,50.75528786771107,0.22572199999977263,50.75528786771107,1.8057800999997726C50.75528786771107,1.8057800999997726,50.75528786771107,20.427899999999774,50.75528786771107,20.427899999999774C52.33538886771107,20.54070099999977,53.91548986771107,20.766499999999773,55.60839186771107,20.879298999999772C57.526989867711066,21.104999999999773,59.44558786771107,21.33079899999977,61.25138986771107,21.55649899999977C61.92858986771107,21.669299999999772,62.26718986771107,21.55649899999977,62.492889867711064,20.65360099999977C63.621491867711065,13.994799999999772,65.42728886771107,7.561699899999772,67.79739086771107,1.2414699999997727C68.02309086771106,0.7900279799997726,68.70029186771107,0.4514450099997726,69.15169186771107,0.11286099999977263C69.37739286771107,5.991257262632456e-8,69.71599286771107,8.376397162632456e-8,69.94169286771107,-2.2737367544323206e-13C69.94169286771107,-2.2737367544323206e-13,83.71078986771107,-2.2737367544323206e-13,83.71078986771107,-2.2737367544323206e-13C84.83939086771106,-2.2737367544323206e-13,85.17799086771107,0.4514450099997726,84.72658986771107,1.4671999999997727C84.04938986771107,3.3858398999997728,83.25938886771107,5.304480099999773,82.58218886771107,7.223120199999773C80.77638686771107,12.076099999999773,79.53488586771107,17.154899999999774,78.63199286771106,22.34649999999977C77.61629186771107,27.65099899999977,77.16489086771107,33.06829799999977,76.93909186771107,38.48569899999977C76.93909186771107,39.50139999999977,76.26199086771106,40.06570099999977,75.13338986771107,39.72709999999977C72.98898786771106,39.16279999999977,70.73179286771106,38.59849899999977,68.58739186771106,38.034198999999774C64.07299086771107,36.905601999999774,59.445690867711065,36.22840099999977,54.70549086771107,35.776999999999774C48.04668886771107,35.099799999999775,41.27499086771107,34.986999999999775,34.61618886771107,35.438399999999774C30.440289867711066,35.776999999999774,26.264488867711066,36.22840099999977,22.201489867711068,36.905601999999774C18.025589867711066,37.695598999999774,13.962589867711067,38.82419999999977,9.899579967711068,39.839999999999776C8.883830067711067,40.06570099999977,8.206669767711068,39.50139999999977,8.093810067711068,38.25989899999977C7.980939867711067,36.22840099999977,7.868079567711067,34.196898999999775,7.642359667711067,32.165400999999775C7.078059667711067,26.409499999999774,6.288029667711068,20.65360099999977,4.707969667711067,15.123399999999773C3.4664997677110674,10.608999999999773,1.7735797677110672,6.207369799999773,0.3063848177110672,1.8057800999997726C-0.1450601822889328,0.5643060199997726,0.08066252071106719,0.11286099999977263,1.4349997677110673,0.11286099999977263C1.4349997677110673,0.11286099999977263,15.655489867711067,0.11286099999977263,15.655489867711067,0.11286099999977263C16.445488867711067,0.11286099999977263,17.009789867711067,0.4514450099997726,17.235588867711066,1.2414699999997727C19.379889867711068,6.884530099999773,21.07278886771107,12.640499999999772,22.201489867711068,18.50919899999977C22.314289867711068,19.186398999999774,22.53999086771107,19.863599999999774,22.53999086771107,20.54070099999977C22.53999086771107,21.443599999999773,22.991489867711067,21.55649899999977,23.78148886771107,21.443599999999773C25.925888867711066,21.217898999999772,27.957390867711066,20.879298999999772,30.10168886771107,20.65360099999977C31.456089867711068,20.54070099999977,32.92329086771107,20.427899999999774,34.39048886771107,20.31500099999977C34.39048886771107,20.31500099999977,34.39048886771107,20.31500099999977,34.39048886771107,20.31500099999977Z" fill="#87C793" fill-opacity="1"/></svg>