<svg xmlns="http://www.w3.org/2000/svg" xmlns:xlink="http://www.w3.org/1999/xlink" fill="none" version="1.1" width="82" height="82" viewBox="0 0 82 82"><path d="M0,82C0,82,82,82,82,82C82,82,82,0,82,0C82,0,0,0,0,0C0,0,0,82,0,82C0,82,0,82,0,82Z" fill="#18568F" fill-opacity="1"/><path d="M2.900390625,79.54995012011719C2.900390625,79.54995012011719,2.900390625,2.8999481201171875,2.900390625,2.8999481201171875C2.900390625,2.8999481201171875,78.600387625,2.8999481201171875,78.600387625,2.8999481201171875C78.600387625,2.8999481201171875,78.600387625,79.54995012011719,78.600387625,79.54995012011719C78.600387625,79.54995012011719,2.900390625,79.54995012011719,2.900390625,79.54995012011719C2.900390625,79.54995012011719,2.900390625,79.54995012011719,2.900390625,79.54995012011719C2.900390625,79.54995012011719,2.900390625,79.54995012011719,2.900390625,79.54995012011719ZM14.150390625,35.84994912011719C14.150390625,35.84994912011719,12.600390425,41.69994712011719,12.600390425,41.69994712011719C12.600390425,41.69994712011719,29.700389625,41.69994712011719,29.700389625,41.69994712011719C29.700389625,41.69994712011719,37.750388625,40.59994912011719,32.800390625,34.74994812011719C27.450389625,29.49994812011719,18.450390625,20.399948120117188,18.450390625,20.399948120117188C18.450390625,20.399948120117188,16.300390625,27.299948120117186,16.300390625,27.299948120117186C16.300390625,27.299948120117186,22.700389625,33.24994812011719,22.700389625,33.24994812011719C22.700389625,33.24994812011719,25.850391625,36.04995012011719,23.400390625,35.99994612011719C20.650390625,35.89994812011719,14.150390625,35.84994912011719,14.150390625,35.84994912011719C14.150390625,35.84994912011719,14.150390625,35.84994912011719,14.150390625,35.84994912011719C14.150390625,35.84994912011719,14.150390625,35.84994912011719,14.150390625,35.84994912011719ZM67.850387625,35.84994912011719C67.850387625,35.84994912011719,61.350391625,35.84994912011719,58.650390625,35.89994812011719C56.200389625,35.94994712011719,59.350391625,33.14994812011719,59.350391625,33.14994812011719C59.350391625,33.14994812011719,65.750388625,27.199947120117187,65.750388625,27.199947120117187C65.750388625,27.199947120117187,63.600391625,20.299948120117186,63.600391625,20.299948120117186C63.600391625,20.299948120117186,54.600391625,29.449947120117187,49.200389625,34.69994712011719C44.300392625,40.54995012011719,52.300392625,41.64994812011719,52.300392625,41.64994812011719C52.300392625,41.64994812011719,69.400390625,41.64994812011719,69.400390625,41.64994812011719C69.400390625,41.64994812011719,67.850387625,35.84994912011719,67.850387625,35.84994912011719C67.850387625,35.84994912011719,67.850387625,35.84994912011719,67.850387625,35.84994912011719C67.850387625,35.84994912011719,67.850387625,35.84994912011719,67.850387625,35.84994912011719ZM24.700389625,15.249948120117187C24.700389625,15.249948120117187,19.900390625,18.599948120117187,19.900390625,18.599948120117187C19.900390625,18.599948120117187,30.150390625,28.99994812011719,30.150390625,28.99994812011719C30.150390625,28.99994812011719,31.950389625,30.649948120117188,34.000390625,31.24994812011719C36.500388625,31.949947120117187,39.350391625,31.299948120117186,39.800392625,26.149948120117188C39.750388625,18.149948120117188,39.800392625,7.699948320117188,39.800392625,7.699948320117188C39.800392625,7.699948320117188,33.250390625,11.499948520117188,33.250390625,11.499948520117188C33.250390625,11.499948520117188,33.250390625,21.74994812011719,33.250390625,21.74994812011719C33.250390625,21.74994812011719,33.100391625,23.24994812011719,31.550390625,21.799948120117186C29.950389625,20.399948120117188,24.700389625,15.249948120117187,24.700389625,15.249948120117187C24.700389625,15.249948120117187,24.700389625,15.249948120117187,24.700389625,15.249948120117187C24.700389625,15.249948120117187,24.700389625,15.249948120117187,24.700389625,15.249948120117187ZM56.800392625,15.749948120117187C56.800392625,15.749948120117187,51.600391625,20.899948120117188,50.000388625,22.349949120117188C48.450389625,23.799948120117186,48.300392625,22.299948120117186,48.300392625,22.299948120117186C48.300392625,22.299948120117186,48.300392625,12.049947720117187,48.300392625,12.049947720117187C48.300392625,12.049947720117187,41.750388625,8.249948020117188,41.750388625,8.249948020117188C41.750388625,8.249948020117188,41.800392625,18.699948120117188,41.750388625,26.699947120117187C42.150390625,31.849949120117188,45.050392625,32.49994812011719,47.500388625,31.799948120117186C49.600391625,31.199947120117187,51.350391625,29.549948120117186,51.350391625,29.549948120117186C51.350391625,29.549948120117186,61.600391625,19.149948120117188,61.600391625,19.149948120117188C61.600391625,19.149948120117188,56.800392625,15.749948120117187,56.800392625,15.749948120117187C56.800392625,15.749948120117187,56.800392625,15.749948120117187,56.800392625,15.749948120117187C56.800392625,15.749948120117187,56.800392625,15.749948120117187,56.800392625,15.749948120117187ZM46.100391625,37.09994912011719C46.100391625,34.299948120117186,43.800392625,31.99994812011719,41.000388625,31.99994812011719C38.200389625,31.99994812011719,35.900390625,34.299948120117186,35.900390625,37.09994912011719C35.900390625,39.89994812011719,38.200389625,42.19994712011719,41.000388625,42.19994712011719C43.800392625,42.19994712011719,46.100391625,39.94994712011719,46.100391625,37.09994912011719C46.100391625,37.09994912011719,46.100391625,37.09994912011719,46.100391625,37.09994912011719Z" fill="#E6D245" fill-opacity="1"/><path d="M5.7998046875,76.20003662109374C5.7998046875,76.20003662109374,5.7998046875,45.60003662109375,5.7998046875,45.60003662109375C5.7998046875,45.60003662109375,75.6498026875,45.60003662109375,75.6498026875,45.60003662109375C75.6498026875,45.60003662109375,75.6498026875,76.15003562109375,75.6498026875,76.15003562109375C75.6498026875,76.15003562109375,5.7998046875,76.15003562109375,5.7998046875,76.15003562109375C5.7998046875,76.15003562109375,5.7998046875,76.20003662109374,5.7998046875,76.20003662109374C5.7998046875,76.20003662109374,5.7998046875,76.20003662109374,5.7998046875,76.20003662109374ZM42.6998066875,57.90003662109375C41.9998056875,52.30003642109375,38.8498036875,49.50003672109375,33.2498056875,49.50003672109375C29.9998056875,49.50003672109375,27.4498046875,50.55003642109375,25.5998036875,52.65003682109375C23.7498056875,54.75003622109375,22.7998046875,57.40003662109375,22.7998046875,60.65003662109375C22.7998046875,64.15003562109375,23.7498056875,66.90003562109375,25.6998046875,68.85003662109375C27.6498046875,70.85003662109375,30.1498046875,71.80003762109375,33.1998046875,71.80003762109375C35.6998046875,71.80003762109375,37.8498036875,71.15003562109375,39.5498046875,69.80003762109375C41.2998046875,68.45003662109374,42.2998046875,66.50003662109376,42.6498026875,63.90003562109375C42.6498026875,63.90003562109375,37.3498036875,63.60003662109375,37.3498036875,63.60003662109375C36.8498036875,66.35003662109375,35.4498046875,67.70003662109374,33.1998046875,67.70003662109374C31.7998046875,67.70003662109374,30.7498056875,67.20003662109374,29.9498046875,66.25003662109376C29.1498046875,65.30003762109375,28.7998046875,63.45003662109375,28.7998046875,60.70003662109375C28.7998046875,56.00003662109375,30.2498056875,53.65003682109375,33.0498046875,53.65003682109375C35.5498046875,53.65003682109375,36.7998046875,55.20003702109375,36.8998046875,58.25003662109375C36.8998046875,58.25003662109375,42.6998066875,57.90003662109375,42.6998066875,57.90003662109375C42.6998066875,57.90003662109375,42.6998066875,57.90003662109375,42.6998066875,57.90003662109375C42.6998066875,57.90003662109375,42.6998066875,57.90003662109375,42.6998066875,57.90003662109375ZM51.2498056875,67.10003662109375C51.2498056875,67.10003662109375,51.2498056875,50.00003672109375,51.2498056875,50.00003672109375C51.2498056875,50.00003672109375,45.5998036875,50.00003672109375,45.5998036875,50.00003672109375C45.5998036875,50.00003672109375,45.5998036875,71.35003662109375,45.5998036875,71.35003662109375C45.5998036875,71.35003662109375,60.6498026875,71.35003662109375,60.6498026875,71.35003662109375C60.6498026875,71.35003662109375,60.6498026875,67.15003562109375,60.6498026875,67.15003562109375C60.6498026875,67.15003562109375,51.2498056875,67.15003562109375,51.2498056875,67.15003562109375C51.2498056875,67.15003562109375,51.2498056875,67.10003662109375,51.2498056875,67.10003662109375C51.2498056875,67.10003662109375,51.2498056875,67.10003662109375,51.2498056875,67.10003662109375Z" fill="#18568F" fill-opacity="1"/></svg>