<svg xmlns="http://www.w3.org/2000/svg" xmlns:xlink="http://www.w3.org/1999/xlink" fill="none" version="1.1" width="67.53130340576172" height="85" viewBox="0 0 67.53130340576172 85"><path d="M54.715302,137.557301C54.715302,137.557301,48.107399,144.165199,48.107399,144.165199C48.107399,144.165199,19.846399,144.165199,19.846399,144.165199C19.846399,144.165199,13.2128,137.528801,13.2128,137.528801C13.2128,137.528801,10.5326,140.21189900000002,10.5326,140.21189900000002C10.5326,140.21189900000002,33.975498,163.6548,33.975498,163.6548C33.975498,163.6548,57.3955,140.234699,57.3955,140.234699C57.3955,140.234699,54.715302,137.557301,54.715302,137.557301C54.715302,137.557301,54.715302,137.557301,54.715302,137.557301ZM23.451401,127.293098C23.451401,127.293098,33.975498,137.814201,33.975498,137.814201C33.975498,137.814201,44.4767,127.315899,44.4767,127.315899C44.4767,127.315899,33.952599,116.789,33.952599,116.789C33.952599,116.789,23.451401,127.293098,23.451401,127.293098C23.451401,127.293098,23.451401,127.293098,23.451401,127.293098ZM51.5555,108.5513C51.5555,108.5513,51.549801,108.5513,51.549801,108.5513C51.549801,108.5513,33.952599,90.9541998,33.952599,90.9541998C33.952599,90.9541998,10.5326,114.37140099999999,10.5326,114.37140099999999C10.5326,114.37140099999999,13.2128,117.051601,13.2128,117.051601C13.2128,117.051601,19.4268,110.84049999999999,19.4268,110.84049999999999C19.4268,110.84049999999999,48.4785,110.84049999999999,48.4785,110.84049999999999C48.4785,110.84049999999999,54.715302,117.077301,54.715302,117.077301C54.715302,117.077301,57.3955,114.3971,57.3955,114.3971C57.3955,114.3971,51.5555,108.5513,51.5555,108.5513C51.5555,108.5513,51.5555,108.5513,51.5555,108.5513ZM19.846399,170C19.846399,170,0,150.159302,0,150.159302C0,150.159302,0,130.2616,0,130.2616C0,130.2616,2.9742701,127.293098,2.9742701,127.293098C2.9742701,127.293098,0,124.318802,0,124.318802C0,124.318802,0,104.423901,0,104.423901C0,104.423901,19.4268,85,19.4268,85C19.4268,85,48.4785,85,48.4785,85C48.4785,85,67.531303,104.0529,67.531303,104.0529C67.531303,104.0529,67.531303,124.741299,67.531303,124.741299C67.531303,124.741299,64.953796,127.315899,64.953796,127.315899C64.953796,127.315899,67.531303,129.887699,67.531303,129.887699C67.531303,129.887699,67.531303,150.578903,67.531303,150.578903C67.531303,150.578903,48.107399,170,48.107399,170C48.107399,170,19.846399,170,19.846399,170C19.846399,170,19.846399,170,19.846399,170Z" fill="#ED1C24" fill-opacity="1" transform="matrix(1,0,0,-1,0,170)"/></svg>