<svg xmlns="http://www.w3.org/2000/svg" xmlns:xlink="http://www.w3.org/1999/xlink" fill="none" version="1.1" width="122.2913818359375" height="88" viewBox="0 0 122.2913818359375 88"><defs><radialGradient cx="0" cy="0" r="1" gradientUnits="userSpaceOnUse" id="master_svg0_0_3239" gradientTransform="translate(73.80177838908503 52.578209009175794) rotate(138.10641263392952) scale(29.341720461494322 44.93370332563803)"><stop offset="0%" stop-color="#FFE740" stop-opacity="1"/><stop offset="88.99999856948853%" stop-color="#EB6100" stop-opacity="1"/><stop offset="100%" stop-color="#EB6100" stop-opacity="1"/></radialGradient><linearGradient x1="0.9638456106185913" y1="-0.034632209688425064" x2="0.18373965617599153" y2="0.9404636234578314" id="master_svg1_0_3246"><stop offset="0%" stop-color="#E94721" stop-opacity="1"/><stop offset="46.99999988079071%" stop-color="#BC1320" stop-opacity="1"/><stop offset="100%" stop-color="#711419" stop-opacity="1"/></linearGradient><linearGradient x1="0.13839557766914368" y1="0.0007982062525115907" x2="0.32680124628244955" y2="1.130775959991503" id="master_svg2_0_3249"><stop offset="0%" stop-color="#E94721" stop-opacity="1"/><stop offset="46.99999988079071%" stop-color="#BD2721" stop-opacity="1"/><stop offset="100%" stop-color="#711419" stop-opacity="1"/></linearGradient><linearGradient x1="0.9270572662353516" y1="-0.011058048345148563" x2="0.6844788940820415" y2="1.0513688142376614" id="master_svg3_0_3252"><stop offset="0%" stop-color="#CA3A1C" stop-opacity="1"/><stop offset="87.99999952316284%" stop-color="#70080D" stop-opacity="1"/><stop offset="100%" stop-color="#70080D" stop-opacity="1"/></linearGradient><linearGradient x1="0.15404924750328064" y1="1.029693365097046" x2="0.36032244918538153" y2="-0.12339501320200882" id="master_svg4_0_3255"><stop offset="0%" stop-color="#CA3A1C" stop-opacity="1"/><stop offset="87.99999952316284%" stop-color="#70080D" stop-opacity="1"/><stop offset="100%" stop-color="#70080D" stop-opacity="1"/></linearGradient></defs><path d="M64.81096446533203,78.96681207788086C75.39276546533203,78.96681207788086,83.97106546533203,70.38851207788086,83.97106546533203,59.80671107788086C83.97106546533203,49.22480107788086,75.39276546533203,40.64651107788086,64.81096446533203,40.64651107788086C54.229054465332034,40.64651107788086,45.65076446533203,49.22480107788086,45.65076446533203,59.80671107788086C45.65076446533203,70.38851207788086,54.229054465332034,78.96681207788086,64.81096446533203,78.96681207788086C64.81096446533203,78.96681207788086,64.81096446533203,78.96681207788086,64.81096446533203,78.96681207788086Z" fill="url(#master_svg0_0_3239)" fill-opacity="1" transform="matrix(1,-1,1,1,-40.64651107788086,45.65076446533203)"/><path d="M74.4930190890625,22.42228559926758C75.3031591890625,21.015685599267577,74.4642691890625,19.928735699267577,74.4642691890625,19.928735699267577C74.4642691890625,19.928735699267577,73.1969189890625,17.73454549926758,72.7058691890625,16.85111549926758C71.8867189890625,15.380245509267578,73.1501187890625,14.457355499267578,73.1501187890625,14.457355499267578C73.1501187890625,14.457355499267578,69.5267790890625,14.457355499267578,69.5267790890625,14.457355499267578C68.4454670590625,14.457355499267578,67.6291280690625,15.586585499267578,68.2058640590625,16.638015499267578C68.4866220690625,17.15386559926758,73.0131291890625,24.985755499267576,73.0131291890625,24.985755499267576C73.0131291890625,24.985755499267576,73.9929589890625,23.288235699267577,74.4930190890625,22.42228559926758C74.4930190890625,22.42228559926758,74.4930190890625,22.42228559926758,74.4930190890625,22.42228559926758Z" fill="#FFFFFF" fill-opacity="1"/><path d="M68.11981203134766,22.42228559926758C68.93220183134765,21.015685599267577,68.09331183134766,19.928735699267577,68.09331183134766,19.928735699267577C68.09331183134766,19.928735699267577,66.82539173134765,17.73454549926758,66.33153203134765,16.85111549926758C65.51238203134766,15.380245509267578,66.77635193134766,14.457355499267578,66.77635193134766,14.457355499267578C66.77635193134766,14.457355499267578,63.155262031347654,14.457355499267578,63.155262031347654,14.457355499267578C62.07451299134765,14.457355499267578,61.255357001347654,15.586585499267578,61.833220001347655,16.638015499267578C62.11341300134766,17.15386559926758,66.64048193134765,24.985755499267576,66.64048193134765,24.985755499267576C66.64048193134765,24.985755499267576,67.61975193134765,23.288235699267577,68.11981203134766,22.42228559926758C68.11981203134766,22.42228559926758,68.11981203134766,22.42228559926758,68.11981203134766,22.42228559926758Z" fill="#FFFFFF" fill-opacity="1"/><path d="M56.560504906933595,17.626305599267578C56.13317490693359,17.858015499267577,55.599284606933594,17.69846559926758,55.3692651069336,17.271695599267577C55.13699480693359,16.84435559926758,55.2942848069336,16.31272549926758,55.72274490693359,16.08101549926758C56.150085006933594,15.849865599267577,56.682284806933595,16.008845399267578,56.9134350069336,16.435625599267578C57.14513490693359,16.862395499267578,56.98615500693359,17.39515539926758,56.560504906933595,17.626305599267578C56.560504906933595,17.626305599267578,56.560504906933595,17.626305599267578,56.560504906933595,17.626305599267578ZM66.8532356069336,29.55455549926758C66.8532356069336,29.55455549926758,59.74355510693359,17.396285499267577,58.73440500693359,15.664945499267578C58.02913470693359,14.457354558375588,56.813075106933596,14.457355499267578,56.813075106933596,14.457355499267578C56.813075106933596,14.457355499267578,50.974112866933595,14.457355499267578,50.974112866933595,14.457355499267578C50.80216267293359,14.457355499267578,50.6149908769336,14.731910499267578,50.88672786693359,14.820422499267577C52.55830490693359,15.373480499267577,53.04484490693359,16.562465399267577,53.99197480693359,18.18556549926758C54.450884806933594,18.97089529926758,61.20543460693359,30.563156499267578,61.20543460693359,30.563156499267578C61.20543460693359,30.563156499267578,62.943534606933596,33.98235549926758,65.66763460693359,33.98235549926758C67.2456336069336,33.98235549926758,68.9482346069336,32.93485649926758,69.33383560693359,30.78415449926758C67.69213460693359,31.073354499267577,66.8532356069336,29.55455549926758,66.8532356069336,29.55455549926758C66.8532356069336,29.55455549926758,66.8532356069336,29.55455549926758,66.8532356069336,29.55455549926758Z" fill="#FFFFFF" fill-opacity="1"/><path d="M82.23624468007813,14.228920048767188C83.31135468007813,14.158448807867188,84.20041468007813,15.232431613867188,83.69415478007812,16.318811613867187C83.60282468007813,16.518951613867188,82.97816468007812,17.766011713867186,82.23624468007813,19.24534181386719C82.23624468007813,19.24534181386719,79.02444458007812,14.438642713867187,79.02444458007812,14.438642713867187C79.02444458007812,14.438642713867187,82.23624468007813,14.228920048767188,82.23624468007813,14.228920048767188C82.23624468007813,14.228920048767188,82.23624468007813,14.228920048767188,82.23624468007813,14.228920048767188Z" fill="#FFFFFF" fill-opacity="1" transform="matrix(-0.9978730082511902,0.06518367677927017,0.06518372148275375,0.9978730082511902,156.9535252030272,-5.120846051892158)"/><path d="M62.32013866674805,44.09846115112305C62.32013866674805,44.09846115112305,45.71393966674805,60.679260151123046,45.71393966674805,60.679260151123046C45.71393966674805,60.679260151123046,45.72593356674805,87.99996215112304,45.72593356674805,87.99996215112304C69.16963966674805,87.07856015112304,87.90214166674804,67.77386115112304,87.92034166674804,44.12911495212305C87.92034166674804,44.12911495212305,62.32013866674805,44.09846115112305,62.32013866674805,44.09846115112305C62.32013866674805,44.09846115112305,62.32013866674805,44.09846115112305,62.32013866674805,44.09846115112305Z" fill="url(#master_svg1_0_3246)" fill-opacity="1"/><path d="M0,43.944901C0.0487759,67.6073,18.7062,86.9534,42.197701,87.8825C42.197701,87.8825,42.194801,60.5298,42.194801,60.5298C42.194801,60.5298,25.614401,43.932999,25.614401,43.932999C25.614401,43.932999,42.211201,27.352699,42.211201,27.352699C42.211201,27.352699,42.208302,0,42.208302,0C18.771,0.99128997,0.042313602,20.2509,0,43.944901C0,43.944901,0,43.944901,0,43.944901Z" fill="url(#master_svg2_0_3249)" fill-opacity="1"/><path d="M19.35625613259839,26.328606718205453C19.366609104150392,32.98850971820545,21.59564540415039,39.34490871820545,25.70290570415039,43.98740671820545C25.70290570415039,43.98740671820545,42.30113650415039,27.378108718205453,42.30113650415039,27.378108718205453C42.30113650415039,27.378108718205453,42.288536504150386,0.11000771820545197,42.288536504150386,0.11000771820545197C29.34180550415039,1.812627718205452,19.33965770315039,12.919107718205453,19.35625613259839,26.328606718205453C19.35625613259839,26.328606718205453,19.35625613259839,26.328606718205453,19.35625613259839,26.328606718205453Z" fill="url(#master_svg3_0_3252)" fill-opacity="1"/><path d="M45.75564956665039,60.63599766845703C45.75564956665039,60.63599766845703,45.78743436565039,87.88619566845703,45.78743436565039,87.88619566845703C58.699249566650394,86.13939666845704,68.68185056665038,75.09499766845703,68.71895056665039,61.696697668457034C68.7061495666504,55.01299766845703,66.44215056665038,48.65604786845703,62.385148566650386,44.03479766845703C62.385148566650386,44.03479766845703,45.75564956665039,60.63599766845703,45.75564956665039,60.63599766845703C45.75564956665039,60.63599766845703,45.75564956665039,60.63599766845703,45.75564956665039,60.63599766845703Z" fill="url(#master_svg4_0_3255)" fill-opacity="1"/></svg>