<svg xmlns="http://www.w3.org/2000/svg" xmlns:xlink="http://www.w3.org/1999/xlink" fill="none" version="1.1" width="85.02734375" height="85.99267578125" viewBox="0 0 85.02734375 85.99267578125"><path d="M55.4,47.11227188110352C54.450001,48.062270881103515,51.25,51.262271881103516,50.1,52.462272881103516C49.75,52.812270881103515,49.4,52.812270881103515,49.049999,52.512271881103516C47.549999,51.012271881103516,43,46.412271881103514,41.3,44.662271881103514C41,44.36227188110352,41,44.11227188110352,41.35,43.762271881103516C42.95,42.162271881103514,47.5,37.56227188110351,49.25,35.81227188110351C49.4,35.662271881103514,49.700001,35.61227188110352,49.9,35.81227188110351C51.1,37.012271881103516,54.200001,40.162271881103514,55.299999,41.262271881103516C55.549999,41.512271881103516,55.9,41.562270881103515,56.299999,41.412271881103514C59.35,40.11227188110352,68.549999,36.31227188110351,68.549999,36.31227188110351C65.450001,28.812272081103515,58.15,23.512271881103516,49.6,23.512271881103516C38.1999998,23.512271881103516,29,32.812272081103515,29,44.262271881103516C29,55.712272881103516,38.1999998,65.01227188110352,49.549999,65.01227188110352C58.1,65.01227188110352,65.450001,59.712272881103516,68.5,52.212272881103516C68.5,52.212272881103516,56.1,47.012271881103516,56.1,47.012271881103516C55.799999,46.912271881103514,55.549999,46.912271881103514,55.4,47.11227188110352Z" fill="#C5C7C8" fill-opacity="1"/><path d="M56,44.311905C56,44.311905,63.349998,47.361904,68.400002,42.961803C74.699997,37.411804,72.300003,27.361803,66.300003,21.311804C57.450001,12.411803,40.150002,12.761804,29.15,22.211803C14.65,34.661804,15.5,58.411804,32.799999,69.411804C49,79.711906,73.449997,72.711906,81.949997,48.911804C83.800003,43.661804,82.599998,40.461803,84.5,40.811802C84.5,40.811802,88.300003,57.061905,75.5,68.561905C71.550003,72.1119,71,79.511803,58.25,85.111801C53.200001,87.361801,44.700001,84.661804,37.650002,84.061905C31.299999,83.511803,25.799999,84.261803,21.35,82.311905C14.9,79.511803,12.7,71.011803,9.6499996,65.111801C6.5500002,59.211803,0,48.761803,0,48.761803C1.2,30.161802,9.8500004,11.511804,29.9,3.1618531C58.049999,-8.538147,87.650002,14.311803,78.400002,37.661804C76.150002,43.311905,70.349998,46.411804,65.650002,46.561905C59.900002,46.761902,56,44.311905,56,44.311905C56,44.311905,56,44.311905,56,44.311905Z" fill="#E30016" fill-opacity="1"/></svg>