<svg xmlns="http://www.w3.org/2000/svg" xmlns:xlink="http://www.w3.org/1999/xlink" fill="none" version="1.1" width="97.931640625" height="38.499755859375" viewBox="0 0 97.931640625 38.499755859375"><path d="M94,12.999917722265625C90.150002,12.649917722265625,87.099998,12.949917722265624,84.849998,13.949917822265625C81.449997,15.399917622265626,78.200001,18.299917722265626,71.150002,24.749967822265624C64.099998,31.249967822265624,51.049999,38.499868822265626,38.1,38.499868822265626C29.45,38.499868822265626,22.25,37.949968822265625,16.5,36.899966822265625C19.8,37.449968822265625,24.6499996,37.449968822265625,31.05,36.899966822265625C40.65,36.049966822265624,51.549999,31.199866822265626,55.900002,28.199866822265626C60.25,25.199866822265626,65.099998,21.499967822265624,68,18.999917522265626C70.900002,16.499917522265626,77.400002,11.799922702265626,82.800003,11.149922682265625C86.349998,10.699922682265624,90.099998,11.299920682265626,94,12.999917722265625C94,12.999917722265625,94,12.999917722265625,94,12.999917722265625Z" fill="#F2A100" fill-opacity="1"/><path d="M0,33.400002C5.1500001,35.75,10.8,36.5,17.049999,35.75C26.4,34.599998,38.200001,30.9,46.900002,24.4C55.599998,17.9,64.099998,9,72.050003,7.1500001C80,5.3000002,89.199997,7.6500001,94.099998,11.55C99,15.5,98.900002,14.85,95.5,11.55C92.099998,8.25,82.5,0,72.099998,0C61.700001,0,54.400002,3.1500001,48,4.0500002C41.599998,4.9499998,25.6,4.25,20.5,2.5C15.4,0.75,11.85,3.5,10.1,5.3000002C8.3500004,7.0999999,4,8.8000002,2.5,8.8000002C1,8.8000002,2.3,10.55,6.8000002,10.55C6.8000002,10.55,42.599998,10.55,42.599998,10.55C43.549999,10.55,29.4,23.65,20.5,29.15C14.55,32.799999,7.75,34.25,0,33.400002C0,33.400002,0,33.400002,0,33.400002C0,33.400002,0,33.400002,0,33.400002Z" fill="#AE1F33" fill-opacity="1"/></svg>