<svg xmlns="http://www.w3.org/2000/svg" xmlns:xlink="http://www.w3.org/1999/xlink" fill="none" version="1.1" width="85" height="90.49991607666016" viewBox="0 0 85 90.49991607666016"><path d="M36.087002,4.6449447C45.818501,3.9949446,51.195499,11.170415,54.278999,14.580914C54.278999,14.580914,56.223999,16.686914,56.223999,16.686914C56.223999,16.686914,74.026001,35.787415,74.026001,35.787415C74.026001,35.787415,62.969002,46.606415,62.969002,46.606415C62.969002,46.606415,42.344002,25.815914,42.344002,25.815914C42.344002,25.815914,21.295,47.877914,21.295,47.877914C21.295,47.877914,41.7075,69.728912,41.7075,69.728912C41.7075,69.728912,63.183498,47.666916,63.183498,47.666916C63.183498,47.666916,66.065002,47.586914,66.065002,47.586914C70.110001,47.488914,77.343498,47.369915,80.616501,47.666916C83.885498,47.963413,84.765503,49.189915,85,49.903416C83.684998,72.548416,65.183502,90.499916,42.541,90.499916C19.0445,90.499916,0,71.169914,0,47.325417C0,25.707415,15.655,7.8004446,36.087002,4.6454449C36.087002,4.6454449,36.087002,4.6449447,36.087002,4.6449447C36.087002,4.6449447,36.087002,4.6449447,36.087002,4.6449447ZM85,23.716415C85,23.716415,76.023003,32.486916,76.023003,32.486916C76.023003,32.486916,75.733498,32.109913,75.733498,32.109913C72.793999,28.300415,48.240002,-2.9435554,38.182999,3.0454447C38.182999,3.0454447,37.889,3.2339447,37.889,3.2339447C38.711498,2.6604447,59.528,-11.330086,85,23.716415C85,23.716415,85,23.716415,85,23.716415Z" fill="#06569F" fill-opacity="1"/></svg>