<svg xmlns="http://www.w3.org/2000/svg" xmlns:xlink="http://www.w3.org/1999/xlink" fill="none" version="1.1" width="180" height="180" viewBox="0 0 180 180"><defs><filter id="master_svg0_0_920" filterUnits="objectBoundingBox" color-interpolation-filters="sRGB" x="-0.203125" y="-0.078125" width="1.40625" height="1.40625"><feFlood flood-opacity="0" result="BackgroundImageFix"/><feColorMatrix in="SourceAlpha" type="matrix" values="0 0 0 0 0 0 0 0 0 0 0 0 0 0 0 0 0 0 127 0"/><feOffset dy="16" dx="0"/><feGaussianBlur stdDeviation="6.5"/><feColorMatrix type="matrix" values="0 0 0 0 0 0 0 0 0 0 0 0 0 0 0 0 0 0 0.029999999329447746 0"/><feBlend mode="normal" in2="BackgroundImageFix" result="effect1_dropShadow"/><feBlend mode="normal" in="SourceGraphic" in2="effect1_dropShadow" result="shape"/></filter><clipPath id="master_svg1_0_920"><rect x="26" y="10" width="128" height="128" rx="0"/></clipPath></defs><g filter="url(#master_svg0_0_920)"><g clip-path="url(#master_svg1_0_920)"><path d="M54,10C54,10,126,10,126,10C144.667,10,154,19.3333302,154,38C154,38,154,110,154,110C154,128.667,144.667,138,126,138C126,138,54,138,54,138C35.3333302,138,26,128.667,26,110C26,110,26,38,26,38C26,19.3333302,35.3333302,10,54,10C54,10,54,10,54,10Z" fill="#FFFFFF" fill-opacity="1"/><path d="M83.587002,33.64521935820312C93.318501,32.99521925820312,98.695499,40.17068965820312,101.778999,43.581188658203125C101.778999,43.581188658203125,103.72399899999999,45.68718865820313,103.72399899999999,45.68718865820313C103.72399899999999,45.68718865820313,121.526001,64.78768965820313,121.526001,64.78768965820313C121.526001,64.78768965820313,110.469002,75.60668965820312,110.469002,75.60668965820312C110.469002,75.60668965820312,89.844002,54.816188658203124,89.844002,54.816188658203124C89.844002,54.816188658203124,68.795,76.87818865820313,68.795,76.87818865820313C68.795,76.87818865820313,89.20750000000001,98.72918665820312,89.20750000000001,98.72918665820312C89.20750000000001,98.72918665820312,110.683498,76.66719065820313,110.683498,76.66719065820313C110.683498,76.66719065820313,113.565002,76.58718865820313,113.565002,76.58718865820313C117.610001,76.48918865820312,124.843498,76.37018965820312,128.116501,76.66719065820313C131.38549799999998,76.96368765820313,132.265503,78.19018965820312,132.5,78.90369065820312C131.184998,101.54869065820313,112.683502,119.50019065820312,90.041,119.50019065820312C66.5445,119.50019065820312,47.5,100.17018865820313,47.5,76.32569165820313C47.5,54.70768965820312,63.155,36.800719258203124,83.587002,33.645719558203126C83.587002,33.645719558203126,83.587002,33.64521935820312,83.587002,33.64521935820312C83.587002,33.64521935820312,83.587002,33.64521935820312,83.587002,33.64521935820312ZM132.5,52.71668965820312C132.5,52.71668965820312,123.523003,61.487190658203126,123.523003,61.487190658203126C123.523003,61.487190658203126,123.233498,61.110187658203124,123.233498,61.110187658203124C120.293999,57.300689658203126,95.740002,26.056719258203124,85.682999,32.04571935820312C85.682999,32.04571935820312,85.38900000000001,32.23421935820313,85.38900000000001,32.23421935820313C86.211498,31.660719358203124,107.02799999999999,17.670188658203124,132.5,52.71668965820312C132.5,52.71668965820312,132.5,52.71668965820312,132.5,52.71668965820312Z" fill="#06569F" fill-opacity="1"/></g></g></svg>