<svg xmlns="http://www.w3.org/2000/svg" xmlns:xlink="http://www.w3.org/1999/xlink" fill="none" version="1.1" width="85" height="52.783203125" viewBox="0 0 85 52.783203125"><defs><linearGradient x1="-0.28489208221435547" y1="0.4999854862689972" x2="1.1539568901062012" y2="0.4999854862689972" id="master_svg0_0_6483"><stop offset="0%" stop-color="#FDF6F2" stop-opacity="1"/><stop offset="31.00000023841858%" stop-color="#5DA9A5" stop-opacity="1"/><stop offset="100%" stop-color="#219C99" stop-opacity="1"/></linearGradient><linearGradient x1="0.0756663829088211" y1="0.49967318773269653" x2="0.935511589050293" y2="0.49967318773269653" id="master_svg1_0_6491"><stop offset="0%" stop-color="#0075C2" stop-opacity="1"/><stop offset="3.999999910593033%" stop-color="#0075C2" stop-opacity="1"/><stop offset="100%" stop-color="#004098" stop-opacity="1"/></linearGradient><linearGradient x1="0.04511278122663498" y1="0.4994020462036133" x2="0.9849624037742615" y2="0.4994020462036133" id="master_svg2_0_6497"><stop offset="0%" stop-color="#0075C2" stop-opacity="1"/><stop offset="3.999999910593033%" stop-color="#0075C2" stop-opacity="1"/><stop offset="100%" stop-color="#004098" stop-opacity="1"/></linearGradient><linearGradient x1="-0.003316749818623066" y1="0.5000080466270447" x2="0.82587069272995" y2="0.5000080466270447" id="master_svg3_0_6503"><stop offset="0%" stop-color="#0075C2" stop-opacity="1"/><stop offset="3.999999910593033%" stop-color="#0075C2" stop-opacity="1"/><stop offset="100%" stop-color="#004098" stop-opacity="1"/></linearGradient></defs><g transform="matrix(-0.6775326132774353,0.7354927659034729,0.735598623752594,0.6774176955223083,46.45273872804211,-20.365968862120383)"><path d="M46.05233139038086,9.369941382911975C46.05233139038086,9.369941382911975,45.88823139038086,19.315910982911973,45.88823139038086,19.315910982911973C45.847231390380855,21.059041382911975,44.41173139038086,22.638041382911975,42.66863139038086,22.822641382911975C42.66863139038086,22.822641382911975,31.79983139038086,23.889041382911977,31.79983139038086,23.889041382911977C31.79983139038086,23.889041382911977,32.02541038038086,10.764431382911974,32.02541038038086,10.764431382911974C32.02541038038086,10.764431382911974,46.05233139038086,9.369941382911975,46.05233139038086,9.369941382911975C46.05233139038086,9.369941382911975,46.05233139038086,9.369941382911975,46.05233139038086,9.369941382911975Z" fill="url(#master_svg0_0_6483)" fill-opacity="1" transform="matrix(1,-1.2039344632341908e-8,1.2039344632341908e-8,1,-1.1280795320089965e-7,3.8284913017605504e-7)"/></g><path d="M32.66669501953125,10.482220649719238C32.66669501953125,10.482220649719238,22.14239501953125,19.84980104971924,22.14239501953125,19.84980104971924C22.14239501953125,19.84980104971924,29.57609511953125,26.46922064971924,29.57609511953125,26.46922064971924C30.88234521953125,27.62882164971924,33.02129501953125,27.62882164971924,34.32869501953125,26.46922064971924C34.32869501953125,26.46922064971924,42.477295019531255,19.213940649719238,42.477295019531255,19.213940649719238C42.477295019531255,19.213940649719238,32.66669501953125,10.482220649719238,32.66669501953125,10.482220649719238C32.66669501953125,10.482220649719238,32.66669501953125,10.482220649719238,32.66669501953125,10.482220649719238Z" fill-rule="evenodd" fill="#00ADA9" fill-opacity="1"/><g transform="matrix(0.7837046980857849,0.6211336255073547,0.6212531924247742,-0.783609926700592,-2.0168374242541063,5.785839983324706)"><path d="M31.815169342749023,27.662790525941297C31.815169342749023,27.662790525941297,29.321569442749023,13.454990525941298,29.321569442749023,13.454990525941298C29.321569442749023,13.454990525941298,31.867119542749023,17.377080625941296,35.945209542749026,17.532930525941296C37.97125914274902,17.4030605259413,43.21826944274902,17.117340425941297,43.21826944274902,17.117340425941297C43.21826944274902,17.117340425941297,54.10176844274902,16.493960525941297,54.10176844274902,16.493960525941297C55.84206944274902,16.390060525941298,57.50446844274902,17.714750425941297,57.81616944274902,19.429040525941296C57.81616944274902,19.429040525941296,59.53056944274903,29.247290525941295,59.53056944274903,29.247290525941295C59.53056944274903,29.247290525941295,45.478069442749025,30.0264915259413,45.478069442749025,30.0264915259413C45.478069442749025,30.0264915259413,35.52960964274902,30.6238905259413,35.52960964274902,30.6238905259413C34.67242954274902,30.6498915259413,33.81524944274902,30.364191525941298,33.13989944274903,29.818691525941297C32.464549542749026,29.2991905259413,31.971019542749023,28.519990525941296,31.815169342749023,27.662790525941297C31.815169342749023,27.662790525941297,31.815169342749023,27.662790525941297,31.815169342749023,27.662790525941297Z" fill="url(#master_svg1_0_6491)" fill-opacity="1" transform="matrix(1,-9.928630362310287e-9,9.928630362310287e-9,1,-1.3358962647203043e-7,2.9112302435407855e-7)"/></g><path d="M10.5243,30.239521026611328C10.5243,30.239521026611328,0,39.60710142661133,0,39.60710142661133C0,39.60710142661133,7.43256,46.22652102661133,7.43256,46.22652102661133C8.7399502,47.38612202661133,10.8789,47.38612202661133,12.1863,46.22652102661133C12.1863,46.22652102661133,20.3337,38.972380626611326,20.3337,38.972380626611326C20.3337,38.972380626611326,10.5243,30.239521026611328,10.5243,30.239521026611328C10.5243,30.239521026611328,10.5243,30.239521026611328,10.5243,30.239521026611328Z" fill-rule="evenodd" fill="#00ADA9" fill-opacity="1"/><g transform="matrix(0.7567731142044067,0.6536776423454285,0.6537949442863464,-0.7566717863082886,-19.967190400341792,53.64842758516846)"><path d="M9.08226132056308,47.52102139282226C9.08226132056308,47.52102139282226,7.19733132056308,33.218021392822266,7.19733132056308,33.218021392822266C7.19733132056308,33.218021392822266,9.58121122056308,37.237271292822264,13.62827152056308,37.569891492822265C15.65180102056308,37.51445149282227,20.89083132056308,37.45902159282227,20.89083132056308,37.45902159282227C20.89083132056308,37.45902159282227,31.81233132056308,37.292701292822265,31.81233132056308,37.292701292822265C33.55863132056308,37.264991292822266,35.16633132056308,38.650931392822265,35.388131320563076,40.39722159282226C35.388131320563076,40.39722159282226,36.69093232056308,50.265121392822266,36.69093232056308,50.265121392822266C36.69093232056308,50.265121392822266,22.609431320563083,50.45922039282227,22.609431320563083,50.45922039282227C22.609431320563083,50.45922039282227,12.65808142056308,50.62552039282227,12.65808142056308,50.62552039282227C11.79878132056308,50.62552039282227,10.93947142056308,50.292921392822265,10.30192122056308,49.71082139282227C9.63665142056308,49.15642139282227,9.19314132056308,48.38032139282227,9.08226132056308,47.52102139282226C9.08226132056308,47.52102139282226,9.08226132056308,47.52102139282226,9.08226132056308,47.52102139282226Z" fill="url(#master_svg2_0_6497)" fill-opacity="1" transform="matrix(1,2.8373845495366368e-8,-2.8373845495366368e-8,1,9.425230063087042e-7,-2.042159650272879e-7)"/></g><path d="M54.86164512329101,30.18696403503418C54.86164512329101,30.18696403503418,44.337345123291016,39.55569363503418,44.337345123291016,39.55569363503418C44.337345123291016,39.55569363503418,51.76990512329102,46.17396403503418,51.76990512329102,46.17396403503418C53.07729532329101,47.333565035034184,55.21624512329102,47.333565035034184,56.52364512329102,46.17396403503418C56.52364512329102,46.17396403503418,64.67104512329101,38.91982363503418,64.67104512329101,38.91982363503418C64.67104512329101,38.91982363503418,54.86164512329101,30.18696403503418,54.86164512329101,30.18696403503418C54.86164512329101,30.18696403503418,54.86164512329101,30.18696403503418,54.86164512329101,30.18696403503418Z" fill-rule="evenodd" fill="#00ADA9" fill-opacity="1"/><g transform="matrix(0.7354896068572998,0.6775360107421875,0.6776509284973145,-0.7353837490081787,-8.840972664371293,22.63263493614886)"><path d="M52.95966445142666,47.52001049194336C52.95966445142666,47.52001049194336,51.51843435142666,33.15591049194336,51.51843435142666,33.15591049194336C51.51843435142666,33.15591049194336,53.776364351426665,37.23934029194336,57.835824351426666,37.69573069194336C59.85354405142667,37.74377059194336,65.09003435142667,37.81583069194336,65.09003435142667,37.81583069194336C65.09003435142667,37.81583069194336,75.99533435142666,38.00799039194336,75.99533435142666,38.00799039194336C77.74883435142667,38.03201059194336,79.31013435142665,39.49724059194336,79.50233435142667,41.22670079194336C79.50233435142667,41.22670079194336,80.48713435142666,51.12301049194336,80.48713435142666,51.12301049194336C80.48713435142666,51.12301049194336,66.38713435142667,50.88281049194336,66.38713435142667,50.88281049194336C66.38713435142667,50.88281049194336,56.44263445142666,50.714710491943364,56.44263445142666,50.714710491943364C55.57790455142666,50.714710491943364,54.73718435142666,50.33031049194336,54.112644251426666,49.75391049194336C53.46409435142666,49.17741049194336,53.03172435142666,48.38471049194336,52.95966445142666,47.52001049194336C52.95966445142666,47.52001049194336,52.95966445142666,47.52001049194336,52.95966445142666,47.52001049194336Z" fill="url(#master_svg3_0_6503)" fill-opacity="1" transform="matrix(1,2.6494982208191686e-8,-2.6494982208191686e-8,1,8.784652578697205e-7,-0.0000013649800010284707)"/></g></svg>