<svg xmlns="http://www.w3.org/2000/svg" xmlns:xlink="http://www.w3.org/1999/xlink" fill="none" version="1.1" width="84.900390625" height="83.758056640625" viewBox="0 0 84.900390625 83.758056640625"><path d="M0.549999,44.647202C2,49.647202,4.25,54.097198,6.4000001,58.797199C7.0999999,61.097198,7.4000001,62.897202,7.4000001,65.297203C6.9499998,68.897202,6.9499998,68.897202,6.9499998,69.647202C7.3499999,71.297203,8.4499998,72.147202,10.1,72.797203C12.45,73.2472,14.85,73.697197,17.15,73.9972C19.200001,74.647202,20.85,76.047203,22.450001,77.397202C22.450001,77.397202,22.450001,77.597198,22.450001,77.597198C22.799999,77.647202,23.75,78.597198,24.1,78.847198C24.799999,79.647202,26.049999,80.7472,27,81.297203C29.450001,83.7472,32.849998,82.9972,35.849998,82.397202C39.549999,82.397202,42.599998,84.097198,46.299999,83.697197C49.450001,82.697197,52.200001,81.197197,55.25,80.097198C57.099998,79.7472,59,79.947197,60.849998,79.947197C62.549999,79.797203,66.949997,79.097198,67.75,77.647202C68.650002,77.397202,69.650002,76.2472,70.300003,75.7472C71.599998,74.297203,72.849998,72.347198,74.449997,71.297203C75.5,70.047203,77.599998,68.447197,79,67.897202C79.199997,67.447197,79.400002,66.9972,79.599998,66.4972C80,64.047203,78.949997,61.7472,79.599998,59.547199C81.849998,55.547199,84.050003,51.597198,84.900002,47.147202C84.900002,45.397202,84.900002,45.397202,84.75,43.797199C84.349998,42.4972,83.050003,38.597198,81.900002,37.9972C81.849998,37.947201,79.75,34.597198,79.25,34.397202C79.099998,33.9972,79,33.597198,78.849998,33.297199C77.550003,32.447201,77.75,28.1472,77.75,26.8972C77.800003,26.3472,77.900002,25.797201,77.949997,25.2472C77.949997,19.5972,77.150002,16.2472,73.849998,11.647201C73.650002,10.7972,70.349998,8.1472006,69.599998,7.9472003C69.400002,7.2972002,66.849998,6.4472003,66.25,5.8472004C63.799999,4.6472006,60.799999,3.9972003,58.049999,3.5972004C57.849998,3.5472004,57.650002,3.3972003,57.450001,3.3472004C52.5,2.6472003,47.900002,2.1472003,43.200001,0.34720337C42.150002,0.19720337,40.549999,-0.35279664,39.650002,0.34720337C36.900002,0.74720335,34.25,1.8472004,31.5,2.1972003C31.1,2.3972003,30.9,2.3972003,30.4,2.4472003C30.4,2.4972003,30.35,2.5972004,30.35,2.6472003C25.9,3.2972004,25.9,3.2972004,25.4,3.4472003C24.5,4.7472005,23.65,5.9472003,22.85,7.5472002C21.450001,8.7472,19.9,9.2472,18.25,10.197201C15.95,11.0472,15.1,11.4972,14.75,11.5972C14.75,11.5972,14.75,11.7972,14.75,11.7972C11.45,12.5972,9.4499998,14.897201,8.3500004,18.047201C8.5,18.8472,8.3999996,19.697201,8.3000002,20.5972C8.3000002,21.297201,8.25,21.9972,8.1499996,22.6472C7.6999998,24.547201,7.0999999,28.7472,5.0500002,29.8972C4.4499998,30.697201,3.55,31.1472,2.9000001,31.9972C2.05,32.347198,1.5,33.397202,0.85000002,34.147202C0.40000001,35.597198,0.15000001,36.797199,0,38.047199C0,38.047199,0,42.197201,0,42.197201C0.15000001,42.4972,0.199999,42.947201,0.549999,44.647202C0.549999,44.647202,0.549999,44.647202,0.549999,44.647202C0.549999,44.647202,0.549999,44.647202,0.549999,44.647202ZM17.5,38.2472C17.85,36.947201,17.950001,36.797199,18.15,36.147202C18.4,32.2472,17.950001,28.447201,19.450001,24.8972C20.15,23.8472,20.85,22.797201,21.950001,22.3472C23,21.547201,23,21.547201,23.049999,21.447201C23.6,21.297201,23.950001,21.297201,24.25,20.9972C27.1,19.797201,29.700001,18.7472,32.349998,17.3972C36.25,13.5972,41.349998,13.697201,46.349998,13.697201C49.5,14.147201,52.650002,15.7972,55.549999,17.047201C57.900002,18.2472,59.950001,19.5972,62,21.1472C63.400002,22.547201,63.400002,22.547201,63.950001,22.9972C64.75,24.447201,66.050003,25.3472,66.599998,27.1472C66.599998,27.1472,66.949997,27.4972,66.949997,27.4972C68.599998,30.447201,69.5,33.697201,69.5,37.097198C68.949997,41.447201,68.599998,45.797199,68.300003,50.2472C68.099998,52.097198,68.150002,55.397202,66.599998,56.7472C66,57.947201,63.700001,58.697201,63.299999,59.847198C63.150002,59.847198,63.099998,59.897202,62.950001,59.897202C61.950001,61.797199,60.049999,63.847198,58.75,65.7472C58.75,65.7472,58.150002,66.347198,58.150002,66.347198C57.900002,67.147202,57.049999,67.147202,56.900002,67.797203C54.799999,69.047203,53.099998,69.397202,50.5,69.547203C49.650002,69.4972,48.849998,69.4972,48,69.397202C45.950001,69.197197,44.200001,68.797203,42,68.197197C40.400002,68.047203,39.25,67.147202,37.75,66.7472C37.549999,66.297203,33.150002,64.447197,32.349998,64.047203C31.549999,63.847198,30.700001,63.697201,29.9,63.4972C26.35,63.097198,20.549999,62.597198,18.65,58.947201C17.65,58.047199,17.200001,56.197201,16.700001,54.9972C15.5,49.597198,15.65,43.397202,17.5,38.2472C17.5,38.2472,17.5,38.2472,17.5,38.2472C17.5,38.2472,17.5,38.2472,17.5,38.2472Z" fill="#E50B1A" fill-opacity="1"/><path d="M64.65023393749999,31.796799609375C63.8502349375,29.646798609375,61.6502339375,28.096798609375,60.5002369375,25.996789009375C59.7002369375,25.296789209375,58.8002359375,22.496789009375,58.0002369375,22.196789309375C57.6502339375,21.646789109375,56.4002339375,19.896799109375,55.9002339375,19.846799109375C55.9002339375,19.846799109375,55.9002339375,19.646799109375,55.9002339375,19.646799109375C55.6502339375,19.596799109375,55.5002369375,19.246799209375,54.4002339375,18.646799209375C50.2002349375,17.046794209375,46.7502369375,17.446795404375,42.3002359375,18.096795199375C42.3002359375,18.146795209375,42.3002359375,18.246793209375,42.2502369375,18.246793209375C38.7502369375,18.846789209375,35.3502369375,19.896789309375,31.6502359375,20.196789309375C31.0502359375,20.396789309375,28.350226437499998,21.396799109375,28.1502256375,21.896799109375C25.8502259375,22.946789309375,23.9502258375,26.096798909375,23.1502261375,28.596798609375C22.7002260375,31.696799609375,22.5502259375,34.796798609375,22.0502259375,37.946798609375C21.6002259375,39.146798609375,21.1502258375,40.596799609375,20.1502260375,41.546798609375C18.5502259775,44.496799609375,19.1002246885,46.096799609375,20.0002250075,49.296798609375C21.5002260375,53.896800609375,21.5002260375,53.896800609375,21.7502260375,54.296798609375C22.4502260375,54.996799609375,23.0002260375,57.196800609375,24.2002258375,57.596797609375C24.4502258375,58.146800609375,24.6502261375,58.196800609375,25.2002258375,58.396800609375C25.4002261375,58.996799609375,26.1002259375,58.996799609375,26.6002259375,59.296798609375C31.0502359375,60.746799609375,31.0502359375,60.746799609375,34.2502359375,61.596797609375C35.8502369375,61.846797609375,42.4502349375,62.646800609375,43.4002359375,63.946800609375C43.9502349375,64.14680060937499,43.9502349375,64.14680060937499,46.5502359375,65.546798609375C47.9502349375,66.14680060937499,49.4502349375,66.39680060937499,50.9502349375,66.446800609375C52.0502359375,66.296798609375,54.5502359375,65.996799609375,55.1002349375,65.196800609375C56.8502349375,63.796798609375,57.7502369375,62.946800609375,58.8002359375,60.996799609375C61.1002349375,55.696800609375,61.1002349375,55.696800609375,61.3002359375,54.946800609375C62.2002369375,53.196800609375,63.2502369375,51.746799609375,64.40023393749999,50.146800609375C65.05023593749999,47.446798609375,65.05023593749999,44.946798609375,65.05023593749999,42.246799609375C65.3502349375,39.996799609375,66.55023593749999,33.746799609375,64.65023393749999,31.796799609375C64.65023393749999,31.796799609375,64.65023393749999,31.796799609375,64.65023393749999,31.796799609375C64.65023393749999,31.796799609375,64.65023393749999,31.796799609375,64.65023393749999,31.796799609375ZM54.4502369375,45.196798609375C54.2502369375,46.046798609375,53.2002369375,49.196798609375,52.3502349375,49.446798609375C51.5502359375,50.846797609375,47.9002359375,53.246799609375,46.1002369375,53.596797609375C46.1002369375,53.596797609375,46.1002369375,53.796798609375,46.1002369375,53.796798609375C45.0502359375,54.246799609375,44.3502369375,54.446800609375,43.1502359375,54.646800609375C42.2502369375,54.646800609375,39.5502359375,54.596797609375,38.9502349375,53.596797609375C38.3502369375,53.246799609375,37.7502369375,52.746799609375,37.5002369375,52.696800609375C37.5002369375,52.546798609375,37.4502349375,52.496799609375,37.4502349375,52.446800609375C36.5502359375,52.046798609375,34.2502359375,49.046798609375,33.6502359375,47.796798609375C33.6502359375,47.796798609375,33.4502359375,47.796798609375,33.4502359375,47.796798609375C33.4002359375,47.646798609375,33.4002359375,47.646798609375,33.2502359375,47.596799609375C30.5002359375,42.346799609375,32.0502359375,38.646798609375,35.0002359375,33.996799609375C35.4002359375,33.646798609375,35.4502349375,33.546798609375,35.6002369375,33.146798609375C35.7502369375,33.096798609375,35.8002359375,33.096798609375,35.8502369375,33.096798609375C36.7002349375,32.096798609375,37.6002369375,30.946799609375,38.7502369375,30.546799609375C40.6502359375,29.146798609375,42.9502349375,29.496799609375,45.1502359375,29.496799609375C49.6002369375,29.946799609375,49.6002369375,31.246799609375,51.0002369375,35.196798609375C52.2502369375,37.846799609375,53.8502349375,39.996799609375,54.5002369375,42.946798609375C54.5002369375,42.946798609375,54.4502369375,45.196798609375,54.4502369375,45.196798609375C54.4502369375,45.196798609375,54.4502369375,45.196798609375,54.4502369375,45.196798609375Z" fill="#E50B1A" fill-opacity="1"/><path d="M45.150390625,34.09689355634375C40.900390625,33.89689394734375,37.850390625,34.79689192734375,36.350391625,39.24688812734375C36.300391625,39.69688792734375,36.200390626,40.14688782734375,36.150390625,40.64688782734375C36.150390625,43.79689792734375,37.350390625,46.34692802734375,39.500390525,48.54692802734375C40.600390425,49.19692802734375,41.250390525,49.64692802734375,42.450390825,50.146929027343745C43.350390425,50.146929027343745,44.350390425,50.146929027343745,45.350390425,50.196928027343745C48.350390625,49.29692802734375,50.400390625,47.94692802734375,50.850390625,44.69692802734375C50.700390625,41.79688782734375,49.450390625,39.94689802734375,48.300390625,37.34689782734375C47.000390625,35.34689792734375,47.150390625,34.94689392734375,45.150390625,34.09689355634375C45.150390625,34.09689355634375,45.150390625,34.09689355634375,45.150390625,34.09689355634375C45.150390625,34.09689355634375,45.150390625,34.09689355634375,45.150390625,34.09689355634375Z" fill="#E50B1A" fill-opacity="1"/></svg>