<svg xmlns="http://www.w3.org/2000/svg" xmlns:xlink="http://www.w3.org/1999/xlink" fill="none" version="1.1" width="85" height="80.97759246826172" viewBox="0 0 85 80.97759246826172"><path d="M0.40000001,23.049999C0.40000001,23.049999,23.75,0,23.75,0C23.75,0,56,0,56,0C56,0,80.150002,22.65,80.150002,22.65C80.150002,22.65,80.150002,53,80.150002,53C80.150002,53,72.099998,57.049999,64.849998,55C57.200001,53,53.950001,49.75,53.950001,49.75C53.950001,49.75,53.950001,22.65,53.950001,22.65C53.950001,22.65,26.6,22.65,26.6,22.65C26.6,22.65,26.6,55,26.6,55C26.6,55,39.900002,48.549999,47.950001,51.75C56.400002,55,65.25,62.25,74.949997,59.849998C85,57.400002,85,53.400002,85,53.400002C85,53.400002,85,76.050003,85,76.050003C85,76.050003,75.349998,81.699997,65.650002,80.900002C56,80.099998,52.75,75.650002,45.5,74C38.25,72.400002,36.25,72.800003,31.799999,74C27.35,75.199997,22.15,78.050003,22.15,78.050003C22.15,78.050003,0,56.25,0,56.25C0,56.25,0.40000001,23.049999,0.40000001,23.049999C0.40000001,23.049999,0.40000001,23.049999,0.40000001,23.049999Z" fill="#D80313" fill-opacity="1"/></svg>