<svg xmlns="http://www.w3.org/2000/svg" xmlns:xlink="http://www.w3.org/1999/xlink" fill="none" version="1.1" width="92.5" height="77" viewBox="0 0 92.5 77"><path d="M46.5,30C46.5,30,37,39.5,37,39.5C37,39.5,46.5,49,46.5,49C46.5,49,56,39.5,56,39.5C56,39.5,46.5,30,46.5,30C46.5,30,46.5,30,46.5,30Z" fill="#E60012" fill-opacity="1"/><path d="M76.400002,23.049999C76.400002,23.049999,68.849998,8.75,47.700001,17.65C47.700001,17.65,59.75,14.75,66.900002,21.700001C66.900002,21.700001,84,42,84,42C84,42,49.549999,77,49.549999,77C49.549999,77,57.700001,77,57.700001,77C57.700001,77,92.5,41.400002,92.5,41.400002C92.5,41.400002,76.400002,23.049999,76.400002,23.049999C76.400002,23.049999,76.400002,23.049999,76.400002,23.049999C76.400002,23.049999,76.400002,23.049999,76.400002,23.049999ZM67.099998,26.1C67.099998,26.1,59.150002,16.049999,42.25,23.799999C42.25,23.799999,57.900002,23.5,61.25,35.599998C63.400002,43.349998,57,48.950001,57,48.950001C57,48.950001,29.85,77,29.85,77C29.85,77,45.950001,77,45.950001,77C45.950001,77,80.300003,41.400002,80.300003,41.400002C80.300003,41.400002,67.099998,26.1,67.099998,26.1C67.099998,26.1,67.099998,26.1,67.099998,26.1C67.099998,26.1,67.099998,26.1,67.099998,26.1ZM44.799999,59.400002C44.799999,59.400002,32.75,62.299999,25.6,55.349998C25.6,55.349998,8.5,35,8.5,35C8.5,35,42.950001,0,42.950001,0C42.950001,0,34.799999,0,34.799999,0C34.799999,0,0,35.599998,0,35.599998C0,35.599998,16.1,54,16.1,54C16.1,53.950001,23.65,68.300003,44.799999,59.400002C44.799999,59.400002,44.799999,59.400002,44.799999,59.400002C44.799999,59.400002,44.799999,59.400002,44.799999,59.400002ZM25.4,50.900002C25.4,50.900002,33.349998,60.950001,50.200001,53.200001C50.200001,53.200001,34.549999,53.5,31.200001,41.400002C29.1,33.650002,35.5,28.049999,35.5,28.049999C35.5,28.049999,62.650002,0,62.650002,0C62.650002,0,46.549999,0,46.549999,0C46.549999,0,12.2,35.599998,12.2,35.599998C12.2,35.599998,25.4,50.900002,25.4,50.900002C25.4,50.900002,25.4,50.900002,25.4,50.900002C25.4,50.900002,25.4,50.900002,25.4,50.900002Z" fill="#005BAC" fill-opacity="1"/></svg>