<svg xmlns="http://www.w3.org/2000/svg" xmlns:xlink="http://www.w3.org/1999/xlink" fill="none" version="1.1" width="85" height="81.611328125" viewBox="0 0 85 81.611328125"><path d="M85,81.61131286621094C85,81.61131286621094,0,81.61131286621094,0,81.61131286621094C0,81.61131286621094,0,163.22261086621094,0,163.22261086621094C0,163.22261086621094,85,163.22261086621094,85,163.22261086621094C85,163.22261086621094,85,81.61131286621094,85,81.61131286621094C85,81.61131286621094,85,81.61131286621094,85,81.61131286621094C85,81.61131286621094,85,81.61131286621094,85,81.61131286621094Z" fill="#790008" fill-opacity="1" transform="matrix(1,0,0,-1,0,163.22262573242188)"/><path d="M56.67509603326416,66.21018799438477C56.67509603326416,66.21018799438477,11.48299503326416,66.21018799438477,11.48299503326416,66.21018799438477C11.48299503326416,66.21018799438477,31.48319503326416,40.816287994384766,31.48319503326416,40.816287994384766C31.48319503326416,40.816287994384766,76.67539303326416,40.816287994384766,76.67539303326416,40.816287994384766C76.67539303326416,40.816287994384766,56.67509603326416,66.21018799438477,56.67509603326416,66.21018799438477C56.67509603326416,66.21018799438477,56.67509603326416,66.21018799438477,56.67509603326416,66.21018799438477Z" fill="#FFFFFF" fill-opacity="1" transform="matrix(1,0,0,-1,0,81.63257598876953)"/><path d="M76.67139503326416,91.5725016977539C76.67139503326416,91.5725016977539,31.48319503326416,91.5725016977539,31.48319503326416,91.5725016977539C31.48319503326416,91.5725016977539,11.48299503326416,66.1937026977539,11.48299503326416,66.1937026977539C11.48299503326416,66.1937026977539,56.67119703326416,66.1937026977539,56.67119703326416,66.1937026977539C56.67119703326416,66.1937026977539,76.67139503326416,91.5725016977539,76.67139503326416,91.5725016977539C76.67139503326416,91.5725016977539,76.67139503326416,91.5725016977539,76.67139503326416,91.5725016977539Z" fill="#ED1D24" fill-opacity="1" transform="matrix(1,0,0,-1,0,132.3874053955078)"/></svg>