<svg xmlns="http://www.w3.org/2000/svg" xmlns:xlink="http://www.w3.org/1999/xlink" fill="none" version="1.1" width="71" height="72" viewBox="0 0 71 72"><path d="M64.650002,9.6000004C63.799999,9.6000004,41.25,9.5500002,36.599998,9.5500002C36.599998,9.5500002,15.45,9.5500002,15.45,9.5500002C14.3,9.5500002,8.9499998,9.1499996,8.9499998,10.1C8.9499998,10.1,8.9499998,15.7,8.9499998,15.7C8.9499998,16.65,14.45,16.25,15.65,16.25C15.65,16.25,36.799999,16.25,36.799999,16.25C41.150002,16.25,62.099998,16.200001,64.650002,16.200001C64.650002,16.200001,64.650002,19.15,64.650002,19.15C64.650002,19.15,8.9499998,19.299999,8.9499998,19.299999C8.9499998,19.299999,8.75,19.5,8.75,19.5C8.75,19.5,8.75,24.75,8.75,24.75C8.75,24.75,64.650002,24.75,64.650002,24.75C64.650002,24.75,64.650002,27.65,64.650002,27.65C64.650002,27.65,8.9499998,27.85,8.9499998,27.85C8.9499998,27.85,8.75,28.049999,8.75,28.049999C8.75,28.049999,8.75,33.650002,8.75,33.650002C8.75,33.650002,64.650002,33.849998,64.650002,33.849998C64.650002,33.849998,64.650002,36.75,64.650002,36.75C64.650002,36.75,8.75,36.75,8.75,36.75C8.75,36.75,8.75,62.400002,8.75,62.400002C8.75,62.400002,28.299999,62.400002,28.299999,62.400002C28.299999,62.400002,28.299999,62.200001,28.299999,62.200001C28.299999,62.200001,28.5,58.400002,28.5,58.400002C29,55.150002,29.950001,53.700001,31.950001,51.700001C37.450001,48.049999,45.25,50.25,46.25,57.299999C46.25,57.299999,46.450001,58.200001,46.450001,58.200001C46.450001,58.200001,46.799999,62.150002,46.799999,62.150002C46.799999,62.150002,46.799999,62.349998,46.799999,62.349998C46.799999,62.349998,60.200001,62.349998,60.200001,62.349998C60.200001,62.349998,60.549999,62.150002,60.549999,62.150002C60.549999,62.150002,60.549999,45.349998,60.549999,45.349998C60.549999,45.349998,18.15,45.349998,18.15,45.349998C18.15,45.349998,18.15,57.450001,18.15,57.450001C18.15,57.450001,14.35,57.450001,14.35,57.450001C14.35,57.450001,14.35,42.299999,14.35,42.299999C14.35,42.299999,65,42.299999,65,42.299999C65,42.299999,65,65.5,65,65.5C65,65.5,42.75,65.5,42.75,65.5C42.900002,62.200001,44.25,55.900002,40.400002,54.150002C31.700001,52.099998,31.35,59.200001,31.700001,65.150002C31.700001,65.150002,5.5,64.949997,5.5,64.949997C5.5,45.450001,5.5999999,25.950001,5.6999998,6.5C5.6999998,6.5,64.650002,6.5,64.650002,6.5C64.650002,6.5,64.650002,9.6000004,64.650002,9.6000004C64.650002,9.6000004,64.650002,9.6000004,64.650002,9.6000004ZM0,72C0,72,71,72,71,72C71,72,71,0,71,0C71,0,0,0,0,0C0,0,0,72,0,72C0,72,0,72,0,72Z" fill="#DE0516" fill-opacity="1"/></svg>