<svg xmlns="http://www.w3.org/2000/svg" xmlns:xlink="http://www.w3.org/1999/xlink" fill="none" version="1.1" width="103.5" height="92.5" viewBox="0 0 103.5 92.5"><path d="M67,61.511501C67,61.511501,66.3965,53.841,66.3965,53.841C66.3965,53.841,52.815498,49.852501000000004,52.815498,49.852501000000004C52.815498,49.852501000000004,59.153,37.2725,59.153,37.2725C59.153,37.2725,52.815498,31.4429998,52.815498,31.4429998C52.815498,31.4429998,40.743,38.193,40.743,38.193C40.743,38.193,36.216,25,36.216,25C36.216,25,28.370001,25,28.370001,25C28.370001,25,25.049999,39.1135,25.049999,39.1135C25.049999,39.1135,12.0725,32.6704998,12.0725,32.6704998C12.0725,32.6704998,6.6399999,38.807,6.6399999,38.807C6.6399999,38.807,13.5815,51.079499999999996,13.5815,51.079499999999996C13.5815,51.079499999999996,0,55.988501,0,55.988501C0,55.988501,0.60350001,63.966,0.60350001,63.966C0.60350001,63.966,14.1845,68.26100199999999,14.1845,68.26100199999999C14.1845,68.26100199999999,8.1485004,80.53399999999999,8.1485004,80.53399999999999C8.1485004,80.53399999999999,13.883,86.36399800000001,13.883,86.36399800000001C13.883,86.36399800000001,26.257,79,26.257,79C26.257,79,30.482,92.5,30.482,92.5C30.482,92.5,33.198002,92.5,33.198002,92.5C33.198002,92.5,38.630501,92.193001,38.630501,92.193001C38.630501,92.193001,42.554001,78.69300100000001,42.554001,78.69300100000001C42.554001,78.69300100000001,54.625999,84.829498,54.625999,84.829498C54.625999,84.829498,60.661999,78.38650100000001,60.661999,78.38650100000001C60.661999,78.38650100000001,53.418999,66.420502,53.418999,66.420502C53.418999,66.420502,67,61.511501,67,61.511501C67,61.511501,67,61.511501,67,61.511501ZM55.128502,78.877499C55.431,79.183498,55.128502,79.490002,54.826,79.183498C54.826,79.183498,36.070999,63.265499,36.070999,63.265499C35.768501,62.959,34.558498,62.959,34.558498,63.877499C34.558498,63.877499,34.861,88.3675,34.861,88.3675C34.861,89.2855,34.256001,89.2855,34.256001,88.3675C34.256001,88.3675,33.046001,75.509998,33.046001,75.509998C33.046001,75.509998,32.139,64.490002,32.139,64.490002C31.8365,63.571499,31.534,63.264999,30.929001,63.571499C30.929001,63.571499,14.2915,80.102001,14.2915,80.102001C13.989,80.408001,13.384,80.102001,13.989,79.79600099999999C13.989,79.79600099999999,27.903999,61.734501,27.903999,61.734501C28.509001,60.816502,28.206499,60.204498,27.299,60.204498C27.299,60.204498,4.0064998,59.897999,4.0064998,59.897999C3.704,59.897999,3.704,59.591999,4.0064998,59.591999C4.0064998,59.591999,27.6015,57.143002,27.6015,57.143002C28.509001,57.143002,28.811501,56.224501000000004,28.206499,55.611999999999995C28.206499,55.611999999999995,11.8715,37.857,11.8715,37.857C11.569,37.245,11.8715,37.245,12.174,37.551C12.174,37.551,30.323999,53.4695,30.323999,53.4695C31.231501,54.081499,32.139,53.775498999999996,32.139,52.857C32.139,52.857,33.046501,28.6735001,33.046501,28.6735001C33.046501,28.3675001,33.348999,28.3675001,33.348999,28.6735001C33.348999,28.6735001,33.651001,32.6535001,33.651001,32.6535001C33.651001,32.6535001,35.163502,52.857,35.163502,52.857C35.163502,53.775498999999996,36.070999,54.082001000000005,36.675999,53.4695C36.675999,53.4695,53.011002,36.939,53.011002,36.939C53.313499,36.6325,53.616001,36.939,53.313499,37.245C53.313499,37.245,38.793499,55.611999999999995,38.793499,55.611999999999995C38.491001,55.918501,38.491001,57.143002,39.398499,57.143002C39.398499,57.143002,62.9935,57.755001,62.9935,57.755001C63.296001,57.755001,63.296001,58.061001,62.9935,58.061001C62.9935,58.061001,38.793499,60.203999,38.793499,60.203999C38.188499,60.203999,37.886002,61.122501,38.188499,61.734501C38.188499,61.734501,55.128502,78.877499,55.128502,78.877499C55.128502,78.877499,55.128502,78.877499,55.128502,78.877499C55.128502,78.877499,55.128502,78.877499,55.128502,78.877499Z" fill="#F08300" fill-opacity="1"/><path d="M103.5,24.485001C103.5,24.485001,102.575001,18.67,102.575001,18.67C102.575001,18.67,91.781502,16.8335,91.781502,16.8335C91.781502,16.8335,95.790501,7.0395002,95.790501,7.0395002C95.790501,7.0395002,90.548,3.3664999,90.548,3.3664999C90.548,3.3664999,81.605,9.4879999,81.605,9.4879999C81.605,9.4879999,77.2875,0,77.2875,0C77.2875,0,71.120001,0.61199999,71.120001,0.61199999C71.120001,0.61199999,69.886,11.324,69.886,11.324C69.886,11.324,59.400999999999996,7.039,59.400999999999996,7.039C59.400999999999996,7.039,55.701,11.9365,55.701,11.9365C55.701,11.9365,61.8684998,20.5065,61.8684998,20.5065C61.8684998,20.5065,52,25.096001,52,25.096001C52,25.096001,52.92500299,30.911501,52.92500299,30.911501C52.92500299,30.911501,63.7185,33.360001,63.7185,33.360001C63.7185,33.360001,60.017999599999996,42.848,60.017999599999996,42.848C60.017999599999996,42.848,64.952,46.827,64.952,46.827C64.952,46.827,73.895,40.400002,73.895,40.400002C73.895,40.400002,77.903999,48.970001,77.903999,48.970001C77.903999,48.970001,77.903999,50.5,77.903999,50.5C77.903999,50.5,84.071999,49.582001,84.071999,49.582001C84.071999,49.582001,85.922001,39.175999,85.922001,39.175999C85.922001,39.175999,95.790501,42.848499,95.790501,42.848499C95.790501,42.848499,99.7995,37.6455,99.7995,37.6455C99.7995,37.6455,93.6315,29.0755,93.6315,29.0755C93.6315,29.0755,103.5,24.485001,103.5,24.485001C103.5,24.485001,103.5,24.485001,103.5,24.485001ZM95.830502,38.689999C96.1395,38.996498,95.830502,39.303001,95.5215,38.996498C95.5215,38.996498,80.068001,28.2675,80.068001,28.2675C79.759001,27.961,78.83149900000001,28.2675,79.141001,28.880501C79.141001,28.880501,80.995001,47.272999,80.995001,47.272999C80.995001,47.886002,80.686001,47.886002,80.377001,47.272999C80.377001,47.272999,77.286501,31.333,77.286501,31.333C77.286501,31.333,76.977501,29.799999,76.977501,29.799999C76.66850099999999,28.880501,76.358999,28.880501,76.049999,29.187C76.049999,29.187,64.615,42.674999,64.615,42.674999C64.3055,42.981499,63.9965,42.674999,64.3055,42.3685C64.3055,42.3685,73.886499,27.654499,73.886499,27.654499C74.195499,27.0415,73.886499,26.428499,73.26849899999999,26.428499C73.26849899999999,26.428499,55.3425,27.961,55.3425,27.961C55.033500000000004,27.961,55.033500000000004,27.654499,55.3425,27.654499C55.3425,27.654499,73.26849899999999,23.976,73.26849899999999,23.976C74.195499,23.6695,74.195499,23.056,73.577499,22.75C73.577499,22.75,59.3604999,11.1015,59.3604999,11.1015C59.0514998,10.7945,59.3604999,10.488,59.6694999,10.7945C59.6694999,10.7945,74.504499,21.216999,74.504499,21.216999C75.431999,21.83,76.049999,21.5235,75.740999,20.604C75.740999,20.604,74.504999,2.2114999,74.504999,2.2114999C74.504999,2.2114999,74.813999,1.905,74.813999,2.2114999C74.813999,2.2114999,77.286501,16.618999,77.286501,16.618999C77.286501,16.618999,77.904499,20.297501,77.904499,20.297501C77.904499,20.9105,78.83149900000001,21.217501,79.141001,20.604C79.141001,20.604,90.576,7.1160002,90.576,7.1160002C90.576,6.8095002,90.885502,7.1160002,90.885502,7.4229999C90.885502,7.4229999,81.304501,22.136499,81.304501,22.136499C80.995001,22.443501,81.304501,23.363001,81.922501,23.056499C81.922501,23.056499,100.157501,21.83,100.157501,21.83C100.466499,21.83,100.466499,22.136499,100.157501,22.136499C100.157501,22.136499,81.922501,25.508499,81.922501,25.508499C81.304501,25.508499,81.304501,26.428499,81.613501,26.735001C81.613501,26.735001,95.830502,38.689999,95.830502,38.689999C95.830502,38.689999,95.830502,38.689999,95.830502,38.689999Z" fill="#FDD000" fill-opacity="1"/></svg>