<svg xmlns="http://www.w3.org/2000/svg" xmlns:xlink="http://www.w3.org/1999/xlink" fill="none" version="1.1" width="85.400390625" height="96.64990234375" viewBox="0 0 85.400390625 96.64990234375"><path d="M41.74945783886719,46.150002C41.74945783886719,46.150002,37.64945983886719,52.549999,37.64945983886719,52.549999C35.74945783886719,53.150002,33.29946183886719,54.049999,30.399459838867188,55.349998C27.49945983886719,56.650002,23.049459838867186,58.700001,17.149459838867188,61.599998C19.549459838867186,58.799999,22.99945983886719,55.950001,27.399459838867188,53C31.799459838867186,50.049999,36.59946083886719,47.799999,41.74945783886719,46.150002C41.74945783886719,46.150002,41.74945783886719,46.150002,41.74945783886719,46.150002ZM48.54946183886719,34.5C48.54946183886719,34.5,43.74945783886719,41.349998,43.74945783886719,41.349998C40.24945783886719,42.75,36.24945783886719,44.700001,31.74945983886719,47.150002C27.24945983886719,49.599998,20.649459838867188,53.5,11.899459838867188,58.849998C10.849459838867187,58.700001,10.599459838867187,58.400002,11.149459838867188,57.799999C16.349460838867188,52.650002,23.99945983886719,47.099998,27.74945983886719,44.650002C32.89945983886719,41.25,39.84946083886719,37.900002,48.54946183886719,34.5C48.54946183886719,34.5,48.54946183886719,34.5,48.54946183886719,34.5ZM54.94945883886719,22.9C54.94945883886719,22.9,49.94945883886719,30.15,49.94945883886719,30.15C44.49945783886719,32.599998,38.29946183886719,35.599998,31.449458838867187,39.150002C24.599460838867188,42.700001,16.74945983886719,48.25,7.8994598388671875,55.75C7.8994598388671875,55.75,6.199460038867188,54.599998,6.199460038867188,54.599998C14.449459838867188,46.150002,22.149459838867188,39.700001,29.399459838867188,35.299999C36.64945983886719,30.9,45.14945983886719,26.799999,54.94945883886719,22.9C54.94945883886719,22.9,54.94945883886719,22.9,54.94945883886719,22.9ZM61.94945883886719,11.25C61.94945883886719,11.25,56.59946083886719,18.950001,56.59946083886719,18.950001C43.54946183886719,24.549999,33.94945883886719,29.25,27.949458838867187,33.150002C21.949458838867187,37.049999,14.049459838867188,43.5,4.299459938867187,52.599998C4.299459938867187,52.599998,1.6994598388671875,50.599998,1.6994598388671875,50.599998C10.949459838867188,40.549999,20.24945983886719,32.549999,29.699458838867187,26.5C39.14945983886719,20.450001,49.89945983886719,15.35,61.94945883886719,11.25C61.94945883886719,11.25,61.94945883886719,11.25,61.94945883886719,11.25C61.94945883886719,11.25,61.94945883886719,11.25,61.94945883886719,11.25ZM68.54946183886719,0C68.54946183886719,0,63.54946183886719,7.3499999,63.54946183886719,7.3499999C57.29946183886719,9.25,47.64945983886719,13.85,34.69945883886719,21.15C21.74945983886719,28.450001,10.499459838867187,37.049999,0.9994598588671875,47C-0.3005401511328125,47,-0.3005401511328125,45.900002,0.9994598588671875,43.75C3.3494598388671877,39.75,10.299459838867188,30.549999,31.949458838867187,17.200001C38.09946083886719,13.35,50.29946183886719,7.6500001,68.54946183886719,0C68.54946183886719,0,68.54946183886719,0,68.54946183886719,0C68.54946183886719,0,68.54946183886719,0,68.54946183886719,0Z" fill="#1B9DD6" fill-opacity="1"/><path d="M85.400002,84.849998C85.400002,84.849998,73.150002,89.349998,73.150002,89.349998C38.150002,74.4,17.299999,64.450001,10.55,59.5C3.8,54.5500002,0.34999999,50.75,0,48C1.7,50.5999999,5.8499999,53.5999999,12.5,56.9499998C19.200001,60.3,43.5,69.6,85.400002,84.849998C85.400002,84.849998,85.400002,84.849998,85.400002,84.849998ZM2.4000001,55.3499999C3.9000001,56.8500004,6.6500001,59.05,10.65,62C14.65,64.9,33.950001,74.700001,68.550003,91.349998C68.550003,91.349998,58.599998,94.849998,58.599998,94.849998C39.400002,84.099998,25.85,75.9,17.9,70.35C10,64.799999,4.8000002,59.8,2.4000001,55.3499999C2.4000001,55.3499999,2.4000001,55.3499999,2.4000001,55.3499999ZM53.700001,95.549999C53.700001,95.549999,44.150002,96.650002,44.150002,96.650002C21.1,80.5,7.9499998,68.950001,4.5500002,62C2.5999999,57.9499998,3.45,62.25,14.95,70.5C20.4,74.450001,33.299999,82.799999,53.700001,95.549999C53.700001,95.549999,53.700001,95.549999,53.700001,95.549999ZM7.3000002,67.9C9.1000004,70.549999,12.45,74.1,17.35,78.549999C22.25,83,29.5,89.049999,39,96.650002C39,96.650002,30.75,96.200001,30.75,96.200001C23.1,88.799999,17.65,83.099998,14.35,79.15C11.05,75.200001,8.75,71.4,7.3000002,67.9C7.3000002,67.9,7.3000002,67.9,7.3000002,67.9C7.3000002,67.9,7.3000002,67.9,7.3000002,67.9ZM9.8500004,74.85C12.4,78.799999,14.55,81.849998,16.25,83.950001C17.950001,86.049999,20.65,89.099998,24.299999,93.049999C19.9,90.200001,16.75,87.599998,14.8,85.25C12.95,82.900002,11.25,79.4,9.8500004,74.85C9.8500004,74.85,9.8500004,74.85,9.8500004,74.85C9.8500004,74.85,9.8500004,74.85,9.8500004,74.85Z" fill="#CE1648" fill-opacity="1"/></svg>