<svg xmlns="http://www.w3.org/2000/svg" xmlns:xlink="http://www.w3.org/1999/xlink" fill="none" version="1.1" width="85.01129913330078" height="84.98320007324219" viewBox="0 0 85.01129913330078 84.98320007324219"><path d="M38.849998,39.583199C41.299999,35.933201,44.25,39.333199,44.5,35.933201C44.5,35.933201,42.5,35.933201,42.5,35.933201C40.450001,35.933201,38.049999,39.633198,37.25,41.183201C38.700001,40.833199,39.150002,40.383198,40.900002,40.383198C43.950001,40.383198,45.849998,41.583199,47.400002,41.583199C47.400002,41.583199,47.799999,41.583199,47.799999,41.583199C50.299999,41.583199,52.450001,40.183201,52.650002,37.933201C52,38.283199,50.799999,39.133198,50.200001,39.133198C50.200001,39.133198,49.799999,39.133198,49.799999,39.133198C49.799999,39.133198,43.349998,38.2332,43.349998,38.2332C42.349998,38.2332,39.799999,39.383198,38.849998,39.583199C38.849998,39.583199,38.849998,39.583199,38.849998,39.583199C38.849998,39.583199,38.849998,39.583199,38.849998,39.583199ZM0,42.833199C0,42.833199,0,43.633198,0,43.633198C0,56.183201,6.4499998,67.083199,13.05,73.133202C21.299999,80.633202,28.549999,84.9832,44.150002,84.9832C61.5,84.9832,78.949997,71.083199,83.5,54.933201C85.349998,48.333199,85.599998,38.533199,83.699997,31.933199C82.699997,28.433199,81.099998,24.7332,80.199997,22.9832C78.099998,18.8832,75.349998,15.533199,72.199997,12.3332C68.400002,8.5332394,60.599998,3.2832396,52.900002,1.2332395C47.099998,-0.36676151,38.700001,-0.36676151,32.849998,0.98323852C24.15,2.9832394,16.1,9.1332397,11.45,13.783199C5.1500001,20.033199,0,30.3832,0,42.833199C0,42.833199,0,42.833199,0,42.833199ZM29.15,18.933199C29.15,15.233199,31.9,12.033199,35.200001,12.033199C35.200001,12.033199,36.799999,12.033199,36.799999,12.033199C39.400002,12.033199,39.900002,12.8332,42.450001,12.8332C45.049999,12.8332,45.549999,12.033199,48.099998,12.033199C48.099998,12.033199,50.099998,12.033199,50.099998,12.033199C52.400002,12.033199,55.75,14.983199,55.75,17.283199C55.75,17.283199,55.75,19.3332,55.75,19.3332C55.75,22.8332,54.349998,23.9832,53.700001,26.6332C55.799999,25.2332,59.400002,21.783199,62.599998,21.783199C66.25,21.783199,69.400002,25.183199,69.5,29.0832C69.599998,34.4832,73.150002,37.133198,73.150002,39.633198C73.150002,39.633198,73.150002,42.4832,73.150002,42.4832C73.150002,48.683201,66.75,48.133198,60.599998,48.133198C61.950001,49.9832,67.900002,52.033199,67.900002,56.2332C67.900002,56.2332,67.900002,57.833199,67.900002,57.833199C67.900002,63.383198,63.299999,63.4832,59.950001,65.683197C56.650002,67.883202,55.450001,71.883202,50.5,71.9832C51.349998,68.783203,53.349998,67.683197,53.349998,62.283199C53.349998,62.283199,53.349998,58.2332,53.349998,58.2332C53.349998,51.433201,47,42.433201,40.400002,42.433201C40.400002,42.433201,37.950001,42.433201,37.950001,42.433201C36.349998,42.433201,35.25,42.633198,34.299999,43.2332C39.950001,43.2332,43.599998,47.933201,43.599998,53.383198C43.599998,53.383198,43.599998,57.433201,43.599998,57.433201C43.599998,62.333199,37.5,71.633202,33.049999,71.633202C33.049999,71.633202,32.650002,71.633202,32.650002,71.633202C29.700001,71.633202,27.5,68.033203,25.65,66.4832C23.25,64.433197,20.25,64.033203,18.15,61.833199C10.8,54.183201,23.15,49.633198,24.549999,47.633198C24.549999,47.633198,18.9,48.133198,18.9,48.133198C15.3,48.4832,11.2,45.083199,11.2,41.633198C11.2,37.033199,13.9,35.683201,14.9,30.7332C15.65,26.933199,16.299999,21.783199,20.950001,21.783199C20.950001,21.783199,22.950001,21.783199,22.950001,21.783199C26.15,21.783199,29.4,25.683199,31.450001,27.033199C31.049999,24.7332,29.15,22.283199,29.15,18.933199Z" fill="#BE3338" fill-opacity="1"/></svg>