<svg xmlns="http://www.w3.org/2000/svg" xmlns:xlink="http://www.w3.org/1999/xlink" fill="none" version="1.1" width="85.013671875" height="74.0068359375" viewBox="0 0 85.013671875 74.0068359375"><path d="M0.299999,46.00683980419922C0.299999,46.00683980419922,0,45.75683980419922,0,45.75683980419922C1.7,44.05683880419922,3.55,42.35683880419922,4.75,41.30683880419922C17.799999,29.80684733419922,34.700001,26.906839404199218,42.5,34.85683920419922C50.299999,42.80683880419922,46.099998,58.50683980419922,33.049999,70.00683980419922C31.4,71.45684080419922,29.65,72.80683880419922,27.9,74.00683980419922C27.9,74.00683980419922,16.549999,74.00683980419922,16.549999,74.00683980419922C18.75,72.50683980419922,21,70.80683880419922,23.15,68.90683780419923C36.5,57.10683980419922,42.25,42.40683980419922,36,36.05683950419922C29.700001,29.70684331419922,13.8,34.10684940419922,0.450001,45.90683980419922C0.450001,45.90683980419922,0.299999,46.00683980419922,0.299999,46.00683980419922C0.299999,46.00683980419922,0.299999,46.00683980419922,0.299999,46.00683980419922C0.299999,46.00683980419922,0.299999,46.00683980419922,0.299999,46.00683980419922ZM1.5,61.45683880419922C5.6500001,58.15683980419922,11.1,52.50683980419922,12.95,45.00683980419922C13.1,44.40683980419922,13.75,44.05683880419922,14.8,44.60683880419922C15.85,45.15683980419922,20.65,47.00683980419922,28.4,44.05683880419922C29.15,43.80683880419922,30.049999,44.15683980419922,28.799999,45.35683880419922C27.549999,46.55683880419922,22.35,52.05683880419922,18.700001,63.00683980419922C18.4,63.95684080419922,17.299999,63.856837804199216,16.700001,63.606837804199216C13.8,62.50683980419922,9.8000002,60.70683880419922,2.1500001,62.856837804199216C0.99999899,63.20684080419922,0.30000001,62.20683880419922,1.5,61.45683880419922C1.5,61.45683880419922,1.5,61.45683880419922,1.5,61.45683880419922C1.5,61.45683880419922,1.5,61.45683880419922,1.5,61.45683880419922Z" fill="#0061AE" fill-opacity="1"/><path d="M44.099895240234375,61.656898C47.149896240234376,57.306896,49.499897240234375,51.806896,49.949898240234376,45.156898C50.049896240234375,43.556896,51.049896240234375,43.906898,51.949898240234376,44.106895C53.499897240234375,44.406898,57.849895240234375,45.056896,64.84989524023437,41.506897C65.44989824023438,41.206898,66.69989824023438,41.456898,65.69989824023438,42.956898C64.69989824023438,44.456898,61.849895240234375,48.506897,61.049896240234375,59.206898C60.999897240234375,60.056896,60.049896240234375,59.906898,59.799896240234375,59.856895C59.549896240234375,59.806896,52.499897240234375,58.406898,44.999897240234375,62.556896C44.349895240234375,62.856895,43.599895240234375,62.406898,44.099895240234375,61.656898C44.099895240234375,61.656898,44.099895240234375,61.656898,44.099895240234375,61.656898C44.099895240234375,61.656898,44.099895240234375,61.656898,44.099895240234375,61.656898ZM24.549896240234375,29.006897C24.149896140234375,29.106897,23.999896040234376,28.756897,24.349896440234374,28.456898C30.549896240234375,23.056896,32.24989624023438,15.806897,32.449896240234374,14.556897C32.59989624023437,13.206897,33.199896240234374,13.256897,33.949896240234374,13.606897C39.149896240234376,15.806897,43.749897240234375,15.056897,45.549896240234375,14.656897C47.549896240234375,14.206897,48.399896240234376,14.606897,47.099895240234375,16.106897C43.049896240234375,20.906897,42.049896240234375,27.306896,41.799896240234375,29.406897C41.749897240234375,30.106897,41.099895240234375,30.006897,40.749897240234375,29.856897C36.349895240234375,27.456898,28.849896240234376,27.506897,24.549896240234375,29.006897C24.549896240234375,29.006897,24.549896240234375,29.006897,24.549896240234375,29.006897C24.549896240234375,29.006897,24.549896240234375,29.006897,24.549896240234375,29.006897ZM52.649894240234374,39.656898C51.499897240234375,40.756897,50.299896240234375,41.756897,49.099895240234375,42.706898C48.899896240234376,39.756897,48.049896240234375,37.106895,46.449896240234374,34.806896C56.399894240234374,23.556896,59.849895240234375,11.106897,54.149894240234374,5.6568871C47.699896240234374,-0.39311612,32.049896240234375,4.506887,19.199896240234374,16.706898C18.999896240234374,16.856897,18.499895210234374,17.406897,17.849895240234375,18.056896C17.849895240234375,18.056896,17.549896240234375,17.856897,17.549896240234375,17.856897C19.599896240234376,15.556897,21.899896140234375,13.106897,23.299896240234375,11.756897C35.899896240234376,-0.14311612,52.649894240234374,-3.5931132,60.749897240234375,4.1068869C68.84989524023437,11.806897,65.19989824023438,27.706898,52.649894240234374,39.656898C52.649894240234374,39.656898,52.649894240234374,39.656898,52.649894240234374,39.656898ZM62.099895240234375,31.306896C70.14989424023437,29.606897,77.44989824023438,30.956898,81.64989424023437,35.706898C88.99989324023437,44.006897,83.89989424023437,59.606895,70.29989624023438,70.456894C68.64989424023437,71.756897,66.94989824023438,72.956894,65.24989724023438,74.006897C65.24989724023438,74.006897,52.999897240234375,74.006897,52.999897240234375,74.006897C55.499897240234375,72.506897,58.049896240234375,70.8069,60.499897240234375,68.856895C74.44989824023438,57.706898,80.99989724023438,43.306896,75.09989524023437,36.606895C72.19989824023438,33.306896,66.79989624023438,32.506897,60.399894240234374,33.906898C60.949898240234376,33.056896,61.549896240234375,32.156898,62.099895240234375,31.306896C62.099895240234375,31.306896,62.099895240234375,31.306896,62.099895240234375,31.306896C62.099895240234375,31.306896,62.099895240234375,31.306896,62.099895240234375,31.306896Z" fill="#009794" fill-opacity="1"/></svg>