<svg xmlns="http://www.w3.org/2000/svg" xmlns:xlink="http://www.w3.org/1999/xlink" fill="none" version="1.1" width="85" height="85" viewBox="0 0 85 85"><path d="M42.5,0C65.959999,0,85,19.040001,85,42.5C85,65.959999,65.959999,85,42.5,85C19.040001,85,0,65.959999,0,42.5C0,19.040001,19.040001,0,42.5,0C42.5,0,42.5,0,42.5,0ZM42.5,8.4434996C23.686501,8.4434996,8.4434996,23.686501,8.4434996,42.5C8.4434996,61.313499,23.686501,76.556503,42.5,76.556503C61.313499,76.556503,76.556503,61.313499,76.556503,42.5C76.556503,23.686501,61.313499,8.4434996,42.5,8.4434996C42.5,8.4434996,42.5,8.4434996,42.5,8.4434996ZM66.413498,20.0035C66.413498,20.0035,66.413498,38.816502,66.413498,38.816502C66.413498,38.816502,52.189999,38.816502,52.189999,38.816502C52.189999,38.816502,52.189999,45.220001,52.189999,45.220001C52.189999,45.220001,66.413498,45.220001,66.413498,45.220001C66.413498,45.220001,66.413498,64.43,66.413498,64.43C66.413498,64.43,45.560001,64.43,45.560001,64.43C45.560001,64.43,45.560001,58.310001,45.560001,58.310001C45.560001,58.310001,59.783501,58.310001,59.783501,58.310001C59.783501,58.310001,59.783501,51.34,59.783501,51.34C59.783501,51.34,45.560001,51.34,45.560001,51.34C45.560001,51.34,45.560001,32.526501,45.560001,32.526501C45.560001,32.526501,59.783501,32.526501,59.783501,32.526501C59.783501,32.526501,59.783501,26.123501,59.783501,26.123501C59.783501,26.123501,45.560001,26.123501,45.560001,26.123501C45.560001,26.123501,45.560001,20.0035,45.560001,20.0035C45.560001,20.0035,66.413498,20.0035,66.413498,20.0035C66.413498,20.0035,66.413498,20.0035,66.413498,20.0035ZM39.439999,20.0035C39.439999,20.0035,39.439999,26.123501,39.439999,26.123501C39.439999,26.123501,25.216499,26.123501,25.216499,26.123501C25.216499,26.123501,25.216499,32.526501,25.216499,32.526501C25.216499,32.526501,39.439999,32.526501,39.439999,32.526501C39.439999,32.526501,39.439999,51.34,39.439999,51.34C39.439999,51.34,25.216499,51.34,25.216499,51.34C25.216499,51.34,25.216499,58.310001,25.216499,58.310001C25.216499,58.310001,39.439999,58.310001,39.439999,58.310001C39.439999,58.310001,39.439999,64.43,39.439999,64.43C39.439999,64.43,18.5865,64.43,18.5865,64.43C18.5865,64.43,18.5865,45.220001,18.5865,45.220001C18.5865,45.220001,32.810001,45.220001,32.810001,45.220001C32.810001,45.220001,32.810001,38.816502,32.810001,38.816502C32.810001,38.816502,18.5865,38.816502,18.5865,38.816502C18.5865,38.816502,18.5865,20.0035,18.5865,20.0035C18.5865,20.0035,39.439999,20.0035,39.439999,20.0035C39.439999,20.0035,39.439999,20.0035,39.439999,20.0035Z" fill="#CF0106" fill-opacity="1"/></svg>