<svg xmlns="http://www.w3.org/2000/svg" xmlns:xlink="http://www.w3.org/1999/xlink" fill="none" version="1.1" width="180" height="180" viewBox="0 0 180 180"><defs><filter id="master_svg0_0_943" filterUnits="objectBoundingBox" color-interpolation-filters="sRGB" x="-0.203125" y="-0.078125" width="1.40625" height="1.40625"><feFlood flood-opacity="0" result="BackgroundImageFix"/><feColorMatrix in="SourceAlpha" type="matrix" values="0 0 0 0 0 0 0 0 0 0 0 0 0 0 0 0 0 0 127 0"/><feOffset dy="16" dx="0"/><feGaussianBlur stdDeviation="6.5"/><feColorMatrix type="matrix" values="0 0 0 0 0 0 0 0 0 0 0 0 0 0 0 0 0 0 0.029999999329447746 0"/><feBlend mode="normal" in2="BackgroundImageFix" result="effect1_dropShadow"/><feBlend mode="normal" in="SourceGraphic" in2="effect1_dropShadow" result="shape"/></filter><clipPath id="master_svg1_0_943"><rect x="26" y="10" width="128" height="128" rx="0"/></clipPath></defs><g filter="url(#master_svg0_0_943)"><g clip-path="url(#master_svg1_0_943)"><path d="M54,10C54,10,126,10,126,10C144.667,10,154,19.3333302,154,38C154,38,154,110,154,110C154,128.667,144.667,138,126,138C126,138,54,138,54,138C35.3333302,138,26,128.667,26,110C26,110,26,38,26,38C26,19.3333302,35.3333302,10,54,10C54,10,54,10,54,10Z" fill="#FFFFFF" fill-opacity="1"/><path d="M90,31.5C113.459999,31.5,132.5,50.540001000000004,132.5,74C132.5,97.459999,113.459999,116.5,90,116.5C66.540001,116.5,47.5,97.459999,47.5,74C47.5,50.540001000000004,66.540001,31.5,90,31.5C90,31.5,90,31.5,90,31.5ZM90,39.9434996C71.18650099999999,39.9434996,55.9434996,55.186501,55.9434996,74C55.9434996,92.81349900000001,71.18650099999999,108.056503,90,108.056503C108.81349900000001,108.056503,124.056503,92.81349900000001,124.056503,74C124.056503,55.186501,108.81349900000001,39.9434996,90,39.9434996C90,39.9434996,90,39.9434996,90,39.9434996ZM113.913498,51.5035C113.913498,51.5035,113.913498,70.316502,113.913498,70.316502C113.913498,70.316502,99.689999,70.316502,99.689999,70.316502C99.689999,70.316502,99.689999,76.720001,99.689999,76.720001C99.689999,76.720001,113.913498,76.720001,113.913498,76.720001C113.913498,76.720001,113.913498,95.93,113.913498,95.93C113.913498,95.93,93.060001,95.93,93.060001,95.93C93.060001,95.93,93.060001,89.810001,93.060001,89.810001C93.060001,89.810001,107.283501,89.810001,107.283501,89.810001C107.283501,89.810001,107.283501,82.84,107.283501,82.84C107.283501,82.84,93.060001,82.84,93.060001,82.84C93.060001,82.84,93.060001,64.026501,93.060001,64.026501C93.060001,64.026501,107.283501,64.026501,107.283501,64.026501C107.283501,64.026501,107.283501,57.623501000000005,107.283501,57.623501000000005C107.283501,57.623501000000005,93.060001,57.623501000000005,93.060001,57.623501000000005C93.060001,57.623501000000005,93.060001,51.5035,93.060001,51.5035C93.060001,51.5035,113.913498,51.5035,113.913498,51.5035C113.913498,51.5035,113.913498,51.5035,113.913498,51.5035ZM86.939999,51.5035C86.939999,51.5035,86.939999,57.623501000000005,86.939999,57.623501000000005C86.939999,57.623501000000005,72.716499,57.623501000000005,72.716499,57.623501000000005C72.716499,57.623501000000005,72.716499,64.026501,72.716499,64.026501C72.716499,64.026501,86.939999,64.026501,86.939999,64.026501C86.939999,64.026501,86.939999,82.84,86.939999,82.84C86.939999,82.84,72.716499,82.84,72.716499,82.84C72.716499,82.84,72.716499,89.810001,72.716499,89.810001C72.716499,89.810001,86.939999,89.810001,86.939999,89.810001C86.939999,89.810001,86.939999,95.93,86.939999,95.93C86.939999,95.93,66.0865,95.93,66.0865,95.93C66.0865,95.93,66.0865,76.720001,66.0865,76.720001C66.0865,76.720001,80.310001,76.720001,80.310001,76.720001C80.310001,76.720001,80.310001,70.316502,80.310001,70.316502C80.310001,70.316502,66.0865,70.316502,66.0865,70.316502C66.0865,70.316502,66.0865,51.5035,66.0865,51.5035C66.0865,51.5035,86.939999,51.5035,86.939999,51.5035C86.939999,51.5035,86.939999,51.5035,86.939999,51.5035Z" fill="#CF0106" fill-opacity="1"/></g></g></svg>