<svg xmlns="http://www.w3.org/2000/svg" xmlns:xlink="http://www.w3.org/1999/xlink" fill="none" version="1.1" width="87" height="75" viewBox="0 0 87 75"><path d="M11,57C11,57,76.5,57,76.5,57C76.5,57,66.099998,75,66.099998,75C66.099998,75,21.4,75,21.4,75C21.4,75,11,57,11,57C11,57,11,57,11,57ZM43.5,0C43.5,0,64.349998,0,64.349998,0C64.349998,0,87,38.400002,87,38.400002C87,38.400002,76.150002,56.5,76.150002,56.5C76.150002,56.5,43.5,0,43.5,0C43.5,0,43.5,0,43.5,0ZM22.299999,0C22.299999,0,43.5,0,43.5,0C43.5,0,10.6,56.5,10.6,56.5C10.6,56.5,0,38.400002,0,38.400002C0,38.400002,22.299999,0,22.299999,0C22.299999,0,22.299999,0,22.299999,0Z" fill="#359230" fill-opacity="1"/></svg>