<svg xmlns="http://www.w3.org/2000/svg" xmlns:xlink="http://www.w3.org/1999/xlink" fill="none" version="1.1" width="112.5" height="12.550000190734863" viewBox="0 0 112.5 12.550000190734863"><path d="M6.75,0C6.75,0,9,0,9,0C9,0,9,11.5,9,11.5C9,11.5,6.75,11.5,6.75,11.5C6.75,11.5,6.75,6.4499998,6.75,6.4499998C6.75,6.4499998,2.3,6.4499998,2.3,6.4499998C2.3,6.4499998,2.3,11.5,2.3,11.5C2.3,11.5,0,11.5,0,11.5C0,11.5,0,0,0,0C0,0,2.25,0,2.25,0C2.25,0,2.25,4.5500002,2.25,4.5500002C2.25,4.5500002,6.6999998,4.5500002,6.6999998,4.5500002C6.6999998,4.5500002,6.6999998,0,6.6999998,0C6.6999998,0,6.75,0,6.75,0C6.75,0,6.75,0,6.75,0ZM15.8,7.9000001C15.5,8,15.05,8.1000004,14.45,8.25C13.8,8.3999996,13.4,8.5,13.2,8.6499996C12.9,8.8500004,12.75,9.1000004,12.75,9.3999996C12.75,9.6999998,12.85,9.9499998,13.1,10.2C13.35,10.4,13.65,10.55,14,10.55C14.4,10.55,14.8,10.4,15.15,10.15C15.4,9.9499998,15.6,9.6999998,15.7,9.4499998C15.75,9.25,15.8,8.8999996,15.8,8.3999996C15.8,8.3999996,15.8,7.9000001,15.8,7.9000001C15.8,7.9000001,15.8,7.9000001,15.8,7.9000001C15.8,7.9000001,15.8,7.9000001,15.8,7.9000001ZM12.8,6.1500001C12.8,6.1500001,10.75,6.1500001,10.75,6.1500001C10.85,5.3000002,11.35,4.4499998,11.95,4.0500002C12.5,3.6500001,13.35,3.5,14.45,3.5C15.45,3.5,16.200001,3.5999999,16.700001,3.8499999C17.200001,4.0999999,17.549999,4.3499999,17.75,4.6999998C17.950001,5.0500002,18.049999,5.6999998,18.049999,6.6500001C18.049999,6.6500001,18.049999,9.1499996,18.049999,9.1499996C18.049999,9.8500004,18.1,10.4,18.15,10.75C18.200001,11.1,18.35,11.45,18.549999,11.85C18.549999,11.85,16.299999,11.85,16.299999,11.85C16.25,11.7,16.15,11.5,16.1,11.2C16.049999,11.05,16.049999,11,16,10.95C15.6,11.3,15.2,11.6,14.75,11.75C14.3,11.95,13.85,12,13.35,12C12.45,12,11.8,11.75,11.3,11.3C10.8,10.85,10.55,10.25,10.55,9.6000004C10.55,9.1499996,10.65,8.75,10.9,8.3500004C11.15,8,11.45,7.6999998,11.85,7.5C12.25,7.3000002,12.85,7.1500001,13.65,7C14.7,6.8000002,15.45,6.6500001,15.85,6.4499998C15.85,6.4499998,15.85,6.25,15.85,6.25C15.85,5.8499999,15.75,5.5500002,15.55,5.3499999C15.35,5.1500001,14.95,5.0999999,14.35,5.0999999C13.95,5.0999999,13.65,5.1999998,13.4,5.3499999C13.1,5.5,12.9,5.8000002,12.8,6.1500001C12.8,6.1500001,12.8,6.1500001,12.8,6.1500001C12.8,6.1500001,12.8,6.1500001,12.8,6.1500001ZM27.5,11.5C27.5,11.5,25.299999,11.5,25.299999,11.5C25.299999,11.5,25.299999,7.25,25.299999,7.25C25.299999,6.3499999,25.25,5.75,25.15,5.5C25.049999,5.25,24.9,5.0500002,24.700001,4.9000001C24.5,4.75,24.25,4.6999998,23.950001,4.6999998C23.549999,4.6999998,23.25,4.8000002,22.950001,5C22.65,5.1999998,22.450001,5.5,22.35,5.8499999C22.25,6.1999998,22.200001,6.8499999,22.200001,7.75C22.200001,7.75,22.200001,11.5,22.200001,11.5C22.200001,11.5,20,11.5,20,11.5C20,11.5,20,3.2,20,3.2C20,3.2,22,3.2,22,3.2C22,3.2,22,4.4000001,22,4.4000001C22.700001,3.45,23.6,3,24.700001,3C25.200001,3,25.6,3.0999999,26,3.25C26.4,3.45,26.700001,3.6500001,26.9,3.9000001C27.1,4.1500001,27.25,4.5,27.35,4.8000002C27.450001,5.1500001,27.450001,5.6500001,27.450001,6.3000002C27.450001,6.3000002,27.450001,11.5,27.450001,11.5C27.450001,11.5,27.5,11.5,27.5,11.5C27.5,11.5,27.5,11.5,27.5,11.5ZM31.200001,7.0500002C31.200001,7.9000001,31.299999,8.5500002,31.549999,8.9499998C31.9,9.5,32.400002,9.8000002,33,9.8000002C33.5,9.8000002,33.900002,9.6000004,34.25,9.1499996C34.599998,8.75,34.75,8.1000004,34.75,7.25C34.75,6.3000002,34.599998,5.6500001,34.25,5.1999998C33.900002,4.8000002,33.5,4.5999999,32.950001,4.5999999C32.450001,4.5999999,32,4.8000002,31.65,5.1999998C31.4,5.5999999,31.200001,6.25,31.200001,7.0500002C31.200001,7.0500002,31.200001,7.0500002,31.200001,7.0500002C31.200001,7.0500002,31.200001,7.0500002,31.200001,7.0500002ZM37,11.3C37,11.3,35,11.3,35,11.3C35,11.3,35,10.1,35,10.1C34.650002,10.55,34.25,10.9,33.799999,11.15C33.349998,11.4,32.900002,11.5,32.400002,11.5C31.450001,11.5,30.65,11.1,30,10.35C29.35,9.6000004,29,8.5500002,29,7.1500001C29,5.75,29.35,4.6999998,30,4C30.65,3.3,31.5,2.9000001,32.5,2.9000001C33.400002,2.9000001,34.200001,3.3,34.900002,4.0500002C34.900002,4.0500002,34.900002,0,34.900002,0C34.900002,0,37,0,37,0C37,0,37,11.3,37,11.3C37,11.3,37,11.3,37,11.3ZM44.25,6.75C44.25,6.0999999,44.049999,5.5999999,43.75,5.25C43.450001,4.9000001,43.049999,4.75,42.549999,4.75C42.049999,4.75,41.650002,4.9499998,41.299999,5.3000002C41,5.6500001,40.799999,6.1500001,40.799999,6.8000002C40.799999,6.8000002,44.25,6.8000002,44.25,6.8000002C44.25,6.8000002,44.25,6.75,44.25,6.75C44.25,6.75,44.25,6.75,44.25,6.75ZM44.099998,9.0500002C44.099998,9.0500002,46.400002,9.0500002,46.400002,9.0500002C46.200001,10.05,45.599998,10.9,45,11.35C44.349998,11.8,43.599998,12,42.650002,12C41.150002,12,40.049999,11.5,39.349998,10.55C38.799999,9.75,38.5,8.8000002,38.5,7.5999999C38.5,6.1500001,38.849998,5.0500002,39.599998,4.25C40.349998,3.45,41.299999,3.05,42.400002,3.05C43.650002,3.05,44.700001,3.45,45.400002,4.3000002C46.150002,5.1500001,46.5,6.4499998,46.450001,8.1999998C46.450001,8.1999998,40.799999,8.1999998,40.799999,8.1999998C40.799999,8.8999996,41,9.3999996,41.349998,9.8000002C41.700001,10.2,42.150002,10.35,42.650002,10.35C43,10.35,43.299999,10.25,43.549999,10.05C43.799999,9.8000002,44,9.5,44.099998,9.0500002C44.099998,9.0500002,44.099998,9.0500002,44.099998,9.0500002C44.099998,9.0500002,44.099998,9.0500002,44.099998,9.0500002ZM47.5,11.5C47.5,11.5,47.5,0,47.5,0C47.5,0,50,0,50,0C50,0,50,11.5,50,11.5C50,11.5,47.5,11.5,47.5,11.5C47.5,11.5,47.5,11.5,47.5,11.5ZM51,9C51,9,53.200001,9,53.200001,9C53.299999,9.4499998,53.5,9.8000002,53.799999,10C54.099998,10.25,54.5,10.35,55.049999,10.35C55.650002,10.35,56.099998,10.25,56.400002,10.05C56.599998,9.8999996,56.700001,9.6999998,56.700001,9.4499998C56.700001,9.3000002,56.650002,9.1499996,56.549999,9C56.450001,8.8999996,56.200001,8.8000002,55.799999,8.6999998C53.950001,8.3000002,52.75,7.9000001,52.299999,7.5999999C51.599998,7.1500001,51.25,6.5,51.25,5.6500001C51.25,4.9000001,51.549999,4.3000002,52.150002,3.75C52.75,3.25,53.650002,3,54.900002,3C56.099998,3,56.950001,3.2,57.549999,3.5999999C58.150002,4,58.599998,4.8000002,58.75,5.6999998C58.75,5.6999998,56.599998,5.6999998,56.599998,5.6999998C56.5,5.3499999,56.349998,5.0999999,56.049999,4.9499998C55.799999,4.75,55.400002,4.6999998,54.950001,4.6999998C54.349998,4.6999998,53.900002,4.8000002,53.650002,4.9499998C53.5,5.0500002,53.400002,5.1999998,53.400002,5.4000001C53.400002,5.5500002,53.5,5.6999998,53.650002,5.8000002C53.849998,5.9499998,54.549999,6.1500001,55.799999,6.4499998C57.049999,6.75,57.900002,7.0500002,58.349998,7.4499998C58.849998,7.8499999,59.049999,8.3999996,59.049999,9.1499996C59.049999,9.9499998,58.700001,10.6,58.049999,11.2C57.400002,11.75,56.400002,12.05,55.099998,12.05C53.900002,12.05,52.950001,11.85,52.299999,11.35C51.5,10.75,51.049999,9.6499996,51,9C51,9,51,9,51,9C51,9,51,9,51,9ZM62.150002,8.0500002C62.150002,8.8999996,62.299999,9.5500002,62.549999,9.9499998C62.950001,10.55,63.400002,10.8,64.050003,10.8C64.550003,10.8,64.949997,10.6,65.25,10.2C65.599998,9.8000002,65.75,9.1499996,65.75,8.25C65.75,7.3000002,65.599998,6.6500001,65.25,6.1999998C64.900002,5.8000002,64.5,5.5999999,63.950001,5.5999999C63.450001,5.5999999,63,5.8000002,62.650002,6.1999998C62.299999,6.5999999,62.150002,7.1999998,62.150002,8.0500002C62.150002,8.0500002,62.150002,8.0500002,62.150002,8.0500002C62.150002,8.0500002,62.150002,8.0500002,62.150002,8.0500002ZM60,12.3C60,12.3,60,1,60,1C60,1,62.150002,1,62.150002,1C62.150002,1,62.150002,5.0999999,62.150002,5.0999999C62.799999,4.3499999,63.599998,3.95,64.550003,3.95C65.550003,3.95,66.349998,4.3000002,67.050003,5.0500002C67.699997,5.75,68.050003,6.8000002,68.050003,8.1499996C68.050003,9.5500002,67.699997,10.65,67.050003,11.4C66.400002,12.15,65.599998,12.55,64.599998,12.55C64.150002,12.55,63.650002,12.45,63.200001,12.2C62.75,11.95,62.349998,11.6,62,11.15C62,11.15,62,12.35,62,12.35C62,12.35,60,12.35,60,12.35C60,12.35,60,12.3,60,12.3C60,12.3,60,12.3,60,12.3ZM74.300003,7.9000001C74,8,73.550003,8.1000004,72.949997,8.25C72.300003,8.3999996,71.900002,8.5,71.699997,8.6499996C71.400002,8.8500004,71.25,9.1000004,71.25,9.3999996C71.25,9.6999998,71.349998,9.9499998,71.599998,10.2C71.849998,10.4,72.150002,10.55,72.5,10.55C72.900002,10.55,73.300003,10.4,73.650002,10.15C73.900002,9.9499998,74.099998,9.6999998,74.199997,9.4499998C74.25,9.25,74.300003,8.8999996,74.300003,8.3999996C74.300003,8.3999996,74.300003,7.9000001,74.300003,7.9000001C74.300003,7.9000001,74.300003,7.9000001,74.300003,7.9000001C74.300003,7.9000001,74.300003,7.9000001,74.300003,7.9000001ZM71.300003,6.1500001C71.300003,6.1500001,69.25,6.1500001,69.25,6.1500001C69.349998,5.1999998,69.900002,4.4499998,70.449997,4.0500002C71,3.6500001,71.849998,3.5,72.949997,3.5C73.949997,3.5,74.699997,3.5999999,75.199997,3.8499999C75.699997,4.0999999,76.050003,4.3499999,76.25,4.6999998C76.449997,5.0500002,76.550003,5.6999998,76.550003,6.6500001C76.550003,6.6500001,76.550003,9.1499996,76.550003,9.1499996C76.550003,9.8500004,76.599998,10.4,76.650002,10.75C76.699997,11.1,76.849998,11.45,77.050003,11.85C77.050003,11.85,74.550003,11.85,74.550003,11.85C74.550003,11.85,74.550003,10.95,74.550003,10.95C74.150002,11.3,73.75,11.6,73.300003,11.75C72.849998,11.95,72.400002,12,71.900002,12C71,12,70.349998,11.75,69.849998,11.3C69.349998,10.85,69.099998,10.25,69.099998,9.6000004C69.099998,9.1499996,69.199997,8.75,69.449997,8.3500004C69.699997,8,70,7.6999998,70.400002,7.5C70.800003,7.3000002,71.400002,7.1500001,72.199997,7C73.25,6.8000002,74,6.6500001,74.400002,6.4499998C74.400002,6.4499998,74.400002,6.25,74.400002,6.25C74.400002,5.8499999,74.300003,5.5500002,74.099998,5.3499999C73.900002,5.1500001,73.5,5.0999999,72.900002,5.0999999C72.5,5.0999999,72.199997,5.1999998,71.949997,5.3499999C71.599998,5.5,71.400002,5.8000002,71.300003,6.1500001C71.300003,6.1500001,71.300003,6.1500001,71.300003,6.1500001C71.300003,6.1500001,71.300003,6.1500001,71.300003,6.1500001ZM86,12C86,12,83.699997,12,83.699997,12C83.699997,12,83.699997,7.75,83.699997,7.75C83.699997,6.8499999,83.650002,6.25,83.550003,6C83.449997,5.75,83.300003,5.5500002,83.050003,5.4000001C82.849998,5.25,82.550003,5.1999998,82.25,5.1999998C81.849998,5.1999998,81.5,5.3000002,81.150002,5.5C80.849998,5.6999998,80.599998,6,80.5,6.3499999C80.400002,6.6999998,80.300003,7.3499999,80.300003,8.25C80.300003,8.25,80.300003,12,80.300003,12C80.300003,12,78,12,78,12C78,12,78,3.7,78,3.7C78,3.7,80.150002,3.7,80.150002,3.7C80.150002,3.7,80.150002,4.9000001,80.150002,4.9000001C80.900002,3.95,81.900002,3.5,83.050003,3.5C83.550003,3.5,84.050003,3.5999999,84.449997,3.75C84.849998,3.9000001,85.199997,4.1500001,85.400002,4.4000001C85.599998,4.6500001,85.75,5,85.849998,5.3000002C85.949997,5.6500001,86,6.1500001,86,6.8000002C86,6.8000002,86,12,86,12C86,12,86,12,86,12C86,12,86,12,86,12ZM87.5,12.5C87.5,12.5,87.5,1,87.5,1C87.5,1,89.800003,1,89.800003,1C89.800003,1,89.800003,7.0999999,89.800003,7.0999999C89.800003,7.0999999,92.5,4.1500001,92.5,4.1500001C92.5,4.1500001,95.300003,4.1500001,95.300003,4.1500001C95.300003,4.1500001,92.349998,7.1999998,92.349998,7.1999998C92.349998,7.1999998,95.5,12.5,95.5,12.5C95.5,12.5,93.050003,12.5,93.050003,12.5C93.050003,12.5,90.900002,8.75,90.900002,8.75C90.900002,8.75,89.849998,9.8000002,89.849998,9.8000002C89.849998,9.8000002,89.849998,12.45,89.849998,12.45C89.849998,12.45,87.5,12.45,87.5,12.45C87.5,12.45,87.5,12.5,87.5,12.5C87.5,12.5,87.5,12.5,87.5,12.5ZM101.25,6.75C101.25,6.0999999,101.05,5.5999999,100.75,5.25C100.45,4.9000001,100.05,4.75,99.550003,4.75C99.050003,4.75,98.650002,4.9499998,98.300003,5.3000002C98,5.6500001,97.800003,6.1500001,97.800003,6.8000002C97.800003,6.8000002,101.25,6.8000002,101.25,6.8000002C101.25,6.8000002,101.25,6.75,101.25,6.75C101.25,6.75,101.25,6.75,101.25,6.75ZM101.1,9.0500002C101.1,9.0500002,103.35,9.0500002,103.35,9.0500002C103.1,10,102.6,10.9,102,11.35C101.35,11.8,100.6,12,99.650002,12C98.150002,12,97.050003,11.5,96.349998,10.55C95.800003,9.75,95.5,8.8000002,95.5,7.5999999C95.5,6.1500001,95.849998,5.0500002,96.599998,4.25C97.349998,3.45,98.300003,3.05,99.400002,3.05C100.65,3.05,101.7,3.45,102.4,4.3000002C103.15,5.1500001,103.5,6.4499998,103.45,8.1999998C103.45,8.1999998,97.75,8.1999998,97.75,8.1999998C97.75,8.8999996,97.949997,9.3999996,98.300003,9.8000002C98.650002,10.2,99.099998,10.35,99.599998,10.35C99.949997,10.35,100.25,10.25,100.5,10.05C100.8,9.8000002,101,9.5,101.1,9.0500002C101.1,9.0500002,101.1,9.0500002,101.1,9.0500002C101.1,9.0500002,101.1,9.0500002,101.1,9.0500002ZM112.5,11.5C112.5,11.5,110.2,11.5,110.2,11.5C110.2,11.5,110.2,7.25,110.2,7.25C110.2,6.3499999,110.15,5.75,110.05,5.5C109.95,5.25,109.8,5.0500002,109.55,4.9000001C109.35,4.75,109.05,4.6999998,108.75,4.6999998C108.35,4.6999998,108,4.8000002,107.65,5C107.35,5.1999998,107.1,5.5,107,5.8499999C106.9,6.1999998,106.8,6.8499999,106.8,7.75C106.8,7.75,106.8,11.5,106.8,11.5C106.8,11.5,104.5,11.5,104.5,11.5C104.5,11.5,104.5,3.2,104.5,3.2C104.5,3.2,106.65,3.2,106.65,3.2C106.65,3.2,106.65,4.4000001,106.65,4.4000001C107.4,3.45,108.4,3,109.55,3C110.05,3,110.55,3.0999999,110.95,3.25C111.35,3.4000001,111.7,3.6500001,111.9,3.9000001C112.1,4.1500001,112.25,4.5,112.35,4.8000002C112.45,5.1500001,112.5,5.6500001,112.5,6.3000002C112.5,6.3000002,112.5,11.5,112.5,11.5C112.5,11.5,112.5,11.5,112.5,11.5C112.5,11.5,112.5,11.5,112.5,11.5Z" fill="#0A3D83" fill-opacity="1"/></svg>