<svg xmlns="http://www.w3.org/2000/svg" xmlns:xlink="http://www.w3.org/1999/xlink" fill="none" version="1.1" width="84.97607421875" height="85.40087890625" viewBox="0 0 84.97607421875 85.40087890625"><path d="M40.121379558755876,83.655323265625C31.621377558755874,88.355324265625,23.921378558755876,82.805320265625,16.671378558755876,76.005321265625C11.571378558755875,71.305320265625,4.3213981587558745,64.905323265625,1.7713980587558746,58.505321265625C-5.028611741244125,45.305322265625,13.721377558755874,28.655322265625,26.921378558755876,26.955322265625C26.921378558755876,26.955322265625,26.921378558755876,58.505321265625,26.921378558755876,58.505321265625C26.921378558755876,58.505321265625,58.421378558755876,58.505321265625,58.421378558755876,58.505321265625C58.421378558755876,58.505321265625,58.421378558755876,58.955322265625,58.421378558755876,58.955322265625C58.471377558755876,60.205322265625,55.921378558755876,74.655323265625,40.121379558755876,83.655323265625C40.121379558755876,83.655323265625,40.121379558755876,83.655323265625,40.121379558755876,83.655323265625C40.121379558755876,83.655323265625,40.121379558755876,83.655323265625,40.121379558755876,83.655323265625Z" fill="#1984BF" fill-opacity="1"/><path d="M26.92138671875,58.555225609375C26.92138671875,59.855224609375,29.47138671875,74.305225609375,45.22138571875,83.305225609375C53.72138571875,88.005226609375,61.42138671875,82.455222609375,68.67138671875,75.655223609375C73.77138471875,70.955222609375,81.02138471875,64.555225609375,83.57138871875,58.155223609375C90.37138771875,44.955224609375,70.97138571875,28.305224609375,57.77138671875,26.605224609375C57.77138671875,26.605224609375,57.77138671875,58.155223609375,57.77138671875,58.155223609375C57.77138671875,58.155223609375,26.92138671875,58.155223609375,26.92138671875,58.155223609375C26.92138671875,58.155223609375,26.92138671875,58.555225609375,26.92138671875,58.555225609375C26.92138671875,58.555225609375,26.92138671875,58.555225609375,26.92138671875,58.555225609375Z" fill="#1984BF" fill-opacity="1"/><path d="M58.4713985945103,26.55507109691405C58.4713985945103,25.255070096914054,55.9213985945103,10.755070096914054,40.1713985945103,1.805100296914053C31.671400594510303,-2.894899703085947,24.0213995945103,2.655100196914053,16.7713995945103,9.455099896914053C11.671399594510302,13.755070096914054,4.021370194510301,20.55507109691405,1.421369994510301,26.55507109691405C-5.378629905489699,39.805071096914055,13.7213995945103,56.455068096914054,26.921400594510303,58.155069096914055C26.921400594510303,58.155069096914055,26.921400594510303,26.55507109691405,26.921400594510303,26.55507109691405C26.921400594510303,26.55507109691405,58.4713985945103,26.55507109691405,58.4713985945103,26.55507109691405C58.4713985945103,26.55507109691405,58.4713985945103,26.55507109691405,58.4713985945103,26.55507109691405Z" fill="#AA2F82" fill-opacity="1"/><path d="M26.271484375,27.155400209341018C26.271484375,25.85539920934102,29.471484375,10.755400209341017,45.271484375,1.8054000093410179C53.771484375,-2.894600090658982,60.771484375,2.305400009341018,68.021484375,9.105400109341018C73.121482375,13.805400209341018,80.371482375,20.205399209341017,82.921486375,26.60539920934102C89.721485375,39.80540220934102,70.971485375,56.45539920934102,57.771484375,58.15540020934102C57.771484375,58.15540020934102,57.771484375,27.155400209341018,57.771484375,27.155400209341018C57.771484375,27.155400209341018,26.271484375,27.155400209341018,26.271484375,27.155400209341018C26.271484375,27.155400209341018,26.271484375,27.155400209341018,26.271484375,27.155400209341018Z" fill="#AA2F82" fill-opacity="1"/><path d="M3.5712890625,42.705126953125C8.6212892625,50.705127953125,18.9212890625,57.305125953125,26.9712890625,58.155126953125C26.9712890625,58.155126953125,26.9712890625,27.255126953125,26.9712890625,27.255126953125C18.9212890625,28.105126973125,8.6212892625,34.705126753125,3.5712890625,42.705126953125C3.5712890625,42.705126953125,3.5712890625,42.705126953125,3.5712890625,42.705126953125Z" fill="#1B2C79" fill-opacity="1"/><path d="M57.77158203125,27.255517578125C57.77158203125,25.955516578125,56.07158303125,12.805517178125,42.72158203125,3.405517578125C29.37158203125,12.405517578125,26.87158203125,26.005517578125,26.87158203125,27.255517578125C26.87158203125,27.255517578125,57.77158203125,27.255517578125,57.77158203125,27.255517578125C57.77158203125,27.255517578125,57.77158203125,27.255517578125,57.77158203125,27.255517578125Z" fill="#86167B" fill-opacity="1"/><path d="M57.771484375,27.255126953125C57.771484375,27.255126953125,57.771484375,58.155126953125,57.771484375,58.155126953125C65.521484375,57.255126953125,76.321483375,50.605126953125,81.471485375,41.855126953125C76.421484375,33.855126853125,65.821484575,28.105126973125,57.771484375,27.255126953125C57.771484375,27.255126953125,57.771484375,27.255126953125,57.771484375,27.255126953125C57.771484375,27.255126953125,57.771484375,27.255126953125,57.771484375,27.255126953125Z" fill="#1B2C79" fill-opacity="1"/><path d="M57.77158203125,58.155517578125C57.77158203125,59.455517578125,56.27158203125,72.455517578125,42.92158103125,81.905517578125C29.57158203125,72.455517578125,26.87158203125,59.455517578125,26.87158203125,58.205520678125C26.87158203125,58.205520678125,57.77158203125,58.155517578125,57.77158203125,58.155517578125C57.77158203125,58.155517578125,57.77158203125,58.155517578125,57.77158203125,58.155517578125Z" fill="#0D579F" fill-opacity="1"/></svg>