<svg xmlns="http://www.w3.org/2000/svg" xmlns:xlink="http://www.w3.org/1999/xlink" fill="none" version="1.1" width="90.80000305175781" height="74.1500015258789" viewBox="0 0 90.80000305175781 74.1500015258789"><path d="M47,31.25C49.25,31.25,49.799999,29.15,52.150002,29.15C52.150002,29.15,52.549999,29.15,52.549999,29.15C53.799999,29.15,54.450001,29.85,55.099998,30.5C55.5,30.950001,56.650002,32.099998,57.200001,32.25C57.25,32.049999,57.400002,31.5,57.549999,31.5C57.549999,31.5,57.950001,31.5,57.950001,31.5C57.950001,31.5,57.950001,31.65,57.950001,31.65C57.950001,32.700001,57.049999,32.599998,56.200001,32.599998C56.200001,32.599998,55.700001,32.599998,55.700001,32.599998C55.400002,32.599998,54.75,33.599998,54.200001,33.599998C54.200001,33.599998,52.799999,33.599998,52.799999,33.599998C51.349998,33.599998,50.950001,33.200001,50.049999,32.599998C49.900002,32.5,49,31.799999,49,31.799999C48.849998,31.75,47.900002,32.049999,47.450001,32.049999C47.450001,32.049999,46.650002,32.049999,46.650002,32.049999C45,32.049999,44.099998,31.450001,43.450001,30.450001C44.299999,30.450001,44.700001,31.200001,45.75,31.200001C45.75,31.200001,47,31.200001,47,31.200001C47,31.200001,47,31.25,47,31.25C47,31.25,47,31.25,47,31.25ZM50.5,31.1C50.849998,30.9,52.150002,30.15,52.599998,30.15C52.599998,30.15,53.349998,30.15,53.349998,30.15C53.150002,30.9,52.650002,30.950001,52.650002,31.35C52.650002,31.35,52.650002,31.9,52.650002,31.9C52.650002,32.450001,53.25,32.75,53.900002,32.75C55.150002,32.75,54.900002,31.9,55.549999,31.85C55.5,32.400002,54.950001,32.75,54.549999,32.950001C54.099998,33.200001,53.299999,33.150002,52.75,33.049999C51.549999,32.75,50.75,32.200001,50.5,31.1C50.5,31.1,50.5,31.1,50.5,31.1ZM0,56.400002C0.40000001,56.200001,0.89999998,56.150002,1.5,56.150002C1.5,56.150002,3.5,56.150002,3.5,56.150002C4.1500001,56.150002,4.25,56.349998,4.5999999,56.599998C5,56.900002,5,57.099998,4.9499998,57.650002C4.9000001,58.5,4.3499999,59.5,4.3499999,60.099998C4.3499999,60.099998,4.25,60.099998,4.25,60.099998C4.25,60.5,4.0500002,61.150002,3.95,61.650002C3.8499999,62.099998,3.8499999,62.900002,3.8499999,63.400002C3.8499999,63.400002,3.8499999,65.150002,3.8499999,65.150002C2.7,64.849998,0,58.400002,0,56.400002C0,56.400002,0,56.400002,0,56.400002C0,56.400002,0,56.400002,0,56.400002ZM0,50.099998C0,50.099998,0,52.299999,0,52.299999C0,52.299999,0.25,54.900002,0.25,54.900002C1.05,54.849998,3.05,52.349998,3.8,51.75C4.5,51.150002,5.25,51.049999,6.0500002,50.650002C6.5500002,50.400002,7.9499998,49.900002,7.9499998,49.25C7.9499998,49.25,7.9499998,49.200001,7.9499998,49.200001C7.9499998,47.799999,4.3000002,47.400002,2.5999999,47.400002C2.75,46.900002,4.5999999,45.549999,5.1999998,45.400002C5.5,45.349998,6.4499998,44.900002,6.8499999,44.75C7.0999999,44.650002,8.3000002,44.25,8.6000004,44.25C8.6000004,44.25,8.6000004,44.150002,8.6000004,44.150002C9.25,44.150002,10.6,43.5,11.25,43.349998C11.45,43.299999,12.2,42.900002,12.4,42.799999C12.75,42.599998,13.05,42.299999,13.05,41.75C13.05,41.75,13.05,41.400002,13.05,41.400002C13.05,40.950001,11.8,40.099998,11.25,40.099998C11.25,40.099998,11.25,40,11.25,40C11.25,40,9.1000004,39.650002,9.1000004,39.650002C9.1000004,39.650002,8.8500004,39.700001,8.8500004,39.700001C9,39.049999,10.65,38.450001,11.35,38.25C12.35,37.900002,13.45,37.799999,14.65,37.599998C16.5,37.349998,19.799999,36.900002,19.799999,34.849998C19.799999,34.849998,19.799999,34.799999,19.799999,34.799999C19.799999,33.549999,17.65,33,16.299999,33C16.549999,32,19.25,31.549999,20.65,31.549999C20.65,31.549999,25.15,31.549999,25.15,31.549999C25.15,31.549999,25.15,32.049999,25.15,32.049999C25.15,32.049999,27.200001,32.049999,27.200001,32.049999C27.200001,31,26.799999,30.35,26.25,29.799999C25.85,29.4,25.75,29.4,25.25,29.200001C24.85,29,24.25,28.950001,24.049999,28.85C24.049999,28.85,24.4,28.450001,24.4,28.450001C24.4,28.450001,25.15,28.4,25.15,28.4C25.15,28.4,25.799999,28.4,25.799999,28.4C27.299999,28.4,28.65,28.450001,29.950001,28.65C30.65,28.75,31.200001,28.85,31.799999,29.049999C32.299999,29.200001,33.049999,29.35,33.700001,29.299999C33.700001,29.299999,35.349998,29.15,35.349998,29.15C35.349998,29.15,35.849998,29.15,35.849998,29.15C35.650002,28.5,34.700001,28.1,34.099998,27.799999C33.849998,27.65,32,27.1,31.65,27.1C31.65,27.1,31.65,27,31.65,27C31.65,27,31.6,27.049999,31.6,27.049999C31.6,27.049999,30.549999,26.549999,30.549999,26.549999C31.75,26.4,35.200001,25.799999,36.049999,26C36.900002,26.200001,37.849998,26.25,38.75,26.450001C39.549999,26.6,40.450001,26.799999,41.450001,26.799999C41.450001,26.799999,42.25,26.799999,42.25,26.799999C42.150002,26.35,40.5,25.15,40.049999,25C39.450001,24.799999,38,23.85,37.25,23.85C37.150002,23.65,36.200001,23.450001,36,23.4C35.400002,23.299999,35.200001,23.200001,34.700001,23.049999C33.799999,22.799999,32.950001,22.6,31.799999,22.6C31.799999,22.6,30.85,22.6,30.85,22.6C30.1,22.6,29.4,22.700001,28.700001,22.6C27.9,22.450001,27.700001,22.049999,27.200001,21.9C27.200001,21.9,27.200001,20.15,27.200001,20.15C27.049999,20.1,26.549999,19.450001,26.4,19.299999C26.1,19.049999,25.85,18.799999,25.549999,18.549999C25.1,18.1,24.4,17.299999,24.4,16.450001C24.4,16.450001,24.4,15.95,24.4,15.95C24.4,15.6,24.65,15.4,25,15.4C25,15.4,25.15,15.4,25.15,15.4C25.950001,15.4,27,16,27.6,16.299999C27.799999,16.4,29.75,17.5,29.75,17.1C29.75,17.1,29.75,15.45,29.75,15.45C30.9,15.45,31.549999,16.299999,32.099998,16.9C32.599998,17.450001,33.25,18.65,33.75,19.049999C33.849998,19.15,34.099998,19.4,34.200001,19.549999C34.25,19.6,34.349998,19.75,34.400002,19.799999C34.5,19.9,34.5,19.85,34.650002,20C35.049999,20.4,35.349998,20.5,35.849998,20.75C36.700001,21.15,37.5,21.65,38.349998,22.049999C38.75,22.25,39.200001,22.5,39.599998,22.75C39.950001,22.950001,40.5,23.15,40.849998,23.4C41.650002,23.9,42.549999,24.200001,43.349998,24.700001C44.150002,25.200001,45.049999,25.5,45.849998,26C46.150002,26.200001,48.150002,27.25,48.349998,27.299999C48.25,26.4,47.349998,25,46.849998,24.5C46.400002,24.049999,44.700001,22.950001,44.599998,22.450001C44.599998,22.450001,45.200001,22.450001,45.200001,22.450001C45.799999,22.450001,46.900002,22.799999,47.349998,23C47.349998,23,48.25,23.450001,48.25,23.450001C48.599998,23.65,48.700001,23.799999,49,24C49.650002,24.450001,51.150002,26.200001,51.349998,27C51.349998,27,53.299999,26.700001,53.299999,26.700001C53.299999,26.700001,53.849998,26.75,53.849998,26.75C59.700001,26.75,56.650002,31.65,63.299999,31.65C63.299999,31.65,66.599998,31.65,66.599998,31.65C67.349998,31.65,68.599998,30.700001,69.150002,30.4C69.449997,30.25,71.349998,29.049999,71.449997,28.85C71.449997,28.85,72.699997,28.85,72.699997,28.85C72.949997,28.85,73.050003,27.85,73.050003,27.549999C73.050003,27.049999,71.699997,26.35,71.349998,26.1C71.050003,26.1,70.849998,25.950001,70.599998,25.85C70.25,25.75,70.199997,25.75,69.75,25.700001C69.25,25.6,68.650002,25.5,68.099998,25.450001C66.800003,25.4,65.599998,25.4,64.400002,25.299999C62.200001,25.15,60.150002,24.25,58.5,23.5C56.700001,22.700001,50.049999,18.549999,49.650002,16.9C50.150002,17.15,50.599998,17.549999,51.049999,17.9C51.299999,18.049999,51.5,18.25,51.75,18.4C51.799999,18.450001,52.349998,18.85,52.400002,18.85C52.799999,19.15,53.349998,19.549999,53.75,19.85C54.150002,20.1,54.75,20.549999,55.150002,20.799999C57.150002,21.950001,59.299999,22.799999,61.700001,23.6C63.700001,24.299999,67.650002,24.200001,70.199997,24.4C71.650002,24.5,72.849998,24.85,73.800003,25.450001C74.300003,25.75,74.699997,26.1,74.949997,26.6C75.099998,26.9,75.199997,27.1,75.300003,27.450001C75.400002,27.65,75.400002,28.35,75.5,28.35C76,28.35,76.650002,27.200001,76.900002,26.85C77.25,26.25,77.550003,25.549999,77.550003,24.65C77.550003,24.65,77.550003,24.15,77.550003,24.15C77.550003,23.450001,76.800003,22.85,76.300003,22.6C75.400002,22.25,75.099998,22.200001,74.050003,22.049999C72.300003,21.85,70.699997,21.799999,69.199997,21.299999C67.800003,20.85,66.400002,20.450001,65.150002,19.75C64.599998,19.4,64,19,63.549999,18.549999C63.349998,18.35,62.400002,17.25,62.349998,16.950001C62.950001,17.25,63.299999,17.549999,63.799999,17.9C64.25,18.200001,64.699997,18.65,65.25,18.9C66.449997,19.4,67.300003,19.85,68.75,20.25C69.849998,20.549999,71.599998,20.85,72.949997,20.85C73.599998,20.85,74.599998,20.9,75.300003,20.950001C76,21,76.849998,21.299999,77.300003,21.299999C77.75,21.6,78.050003,21.6,78.449997,22C78.699997,22.25,79,22.799999,79,23.299999C79,23.299999,79,25.75,79,25.75C79,26.549999,77,28.6,77,29.299999C77,29.299999,77,29.450001,77,29.450001C77,29.6,77.550003,30.200001,77.699997,30.35C77.849998,30.549999,77.949997,31.25,78.050003,31.549999C78.199997,31.950001,78.199997,32.400002,78.349998,32.799999C78.5,33.200001,78.800003,33.400002,78.800003,33.900002C78.800003,33.900002,78.800003,34.900002,78.800003,34.900002C78.699997,34.950001,77.099998,37.650002,76.25,37.75C76.25,37.75,76.25,37.349998,76.25,37.349998C76.25,36.549999,75.550003,36.349998,74.800003,36.450001C74,36.549999,73.199997,36.5,72.449997,36.450001C71.099998,36.400002,69.900002,35.700001,68.300003,35.700001C68.300003,35.700001,67.900002,35.700001,67.900002,35.700001C67.25,35.700001,66.599998,35.849998,66.050003,35.950001C65.75,36.049999,65.5,36,65.150002,36.150002C64.949997,36.25,64.599998,36.349998,64.349998,36.349998C64.349998,36.349998,63.700001,36.700001,63.700001,36.700001C63.700001,36.700001,63.75,36.75,63.75,36.75C63.75,36.75,65.699997,36.75,65.699997,36.75C66.349998,36.75,67.099998,36.799999,67.699997,36.849998C68.300003,36.900002,68.900002,37.200001,69.449997,37.200001C69.449997,37.200001,69.449997,37.299999,69.449997,37.299999C69.900002,37.299999,71.650002,38,72.050003,38.200001C72.599998,38.450001,74.050003,39,74.800003,39C74.800003,39,75.449997,39,75.449997,39C76.150002,39,76.699997,38.849998,77.25,38.650002C77.5,38.549999,78.599998,38.049999,78.800003,38.049999C78.800003,38.049999,78.949997,38.049999,78.949997,38.049999C78.800003,38.700001,77.699997,39.25,77.050003,39.450001C76.199997,39.700001,75.099998,39.700001,74,39.700001C74,39.700001,73.699997,39.700001,73.699997,39.700001C72.349998,39.700001,71.050003,39.25,69.849998,39C68.75,38.75,67.150002,38.400002,65.900002,38.400002C65.900002,38.400002,64.900002,38.400002,64.900002,38.400002C64.400002,38.400002,64.150002,38.549999,63.75,38.650002C63.75,38.650002,63.75,38.75,63.75,38.75C63.849998,38.75,66.199997,40.549999,66.550003,40.75C67,41.049999,69.199997,42.450001,69.650002,42.450001C69.650002,42.450001,69.800003,42.450001,69.800003,42.450001C69.800003,42.450001,69.800003,42.549999,69.800003,42.549999C69.800003,42.549999,72.150002,42.549999,72.150002,42.549999C72.75,42.549999,73.449997,41.5,73.449997,40.849998C73.699997,40.849998,73.949997,40.950001,73.949997,41.25C73.949997,41.25,73.949997,42.549999,73.949997,42.549999C73.949997,42.549999,74.349998,42.549999,74.349998,42.549999C75.050003,42.549999,75.75,42.849998,75.75,43.549999C75.75,43.549999,75.75,43.700001,75.75,43.700001C75.75,44.900002,75.199997,45.75,74.650002,46.400002C74.150002,47.049999,73.150002,47.549999,72.099998,47.650002C72.099998,48.650002,70.599998,49.950001,70.050003,50.549999C69.550003,51.099998,67.800003,52.25,66.849998,52.25C67.349998,51.5,68.199997,51.099998,68.849998,50.450001C69.5,49.799999,70.099998,49.200001,70.099998,47.900002C70.099998,47.900002,66.150002,47.349998,66.150002,47.349998C66.150002,47.349998,66.150002,47.400002,66.150002,47.400002C64.800003,48.299999,63.049999,50.75,60.799999,50.75C60.799999,50.75,60.650002,50.75,60.650002,50.75C60.700001,50.099998,61.400002,49.299999,61.400002,48.5C61.400002,48.5,61.400002,47.950001,61.400002,47.950001C61.400002,47.150002,60.450001,46.900002,59.650002,46.900002C58.650002,46.900002,56.099998,48.75,55.200001,49.200001C54.25,49.650002,51.700001,51.25,50.5,51.25C50.5,51.25,50.200001,51.25,50.200001,51.25C50.349998,50.599998,50.849998,50.200001,51.200001,49.700001C51.549999,49.150002,51.849998,48.75,52.150002,48.099998C52.349998,47.599998,52.650002,46.650002,52.450001,46.049999C52.25,45.549999,51.700001,44.900002,51.049999,44.900002C51.049999,44.900002,51,44.900002,51,44.900002C50.400002,44.900002,48.549999,46.700001,48.099998,47.150002C47.950001,47.299999,47.900002,47.400002,47.799999,47.5C47.799999,47.5,47.5,47.799999,47.5,47.799999C47.299999,48,47.099998,48.299999,46.900002,48.5C46.75,48.75,45.799999,49.450001,45.5,49.650002C45.25,49.799999,45,50,44.75,50.200001C44.450001,50.400002,44.200001,50.299999,43.799999,50.549999C43.400002,50.900002,42.599998,51.150002,42.099998,51.400002C41.25,51.799999,39.099998,52.25,37.849998,52.25C38.950001,50.599998,42.200001,49.049999,42.200001,46.5C42.200001,46.5,42.200001,46.150002,42.200001,46.150002C42.200001,45.450001,41.400002,45.049999,40.700001,45.049999C37.200001,45.049999,33.900002,46.75,32.150002,48.5C30.950001,49.75,30.450001,50.400002,29.549999,51.900002C28.950001,52.950001,28.299999,54.950001,28.299999,56.650002C28.299999,56.650002,28.299999,58.849998,28.299999,58.849998C28.299999,60,28.549999,61.349998,28.799999,62.25C29.15,63.400002,29.450001,64.050003,29.9,65.050003C30.299999,65.849998,30.9,66.75,31.4,67.449997C31.700001,67.849998,32.900002,69.25,33.25,69.449997C33.450001,69.599998,33.950001,70.150002,34.299999,70.400002C34.5,70.550003,34.650002,70.650002,34.849998,70.800003C34.950001,70.900002,35.299999,71.099998,35.400002,71.199997C35.5,71.300003,36.5,71.949997,36.599998,71.949997C37,72.150002,37.5,72.400002,37.849998,72.599998C38.700001,73,39.700001,73.400002,40.75,73.599998C41.299999,73.699997,41.75,73.849998,42.299999,73.949997C42.650002,74,43.849998,74,44.049999,74.150002C44.049999,74.150002,50.150002,74.150002,50.150002,74.150002C50.200001,74.099998,52.299999,73.949997,52.549999,73.900002C53.200001,73.800003,54.099998,73.650002,54.700001,73.5C56.049999,73.150002,57.450001,72.75,58.700001,72.25C61.200001,71.25,63.549999,70.199997,65.75,68.800003C70.050003,66.150002,74.099998,63.150002,77.300003,59.400002C77.300003,59.400002,79.699997,56.549999,79.699997,56.549999C80,56.200001,80.650002,55.400002,80.900002,55.099998C81.25,54.599998,81.699997,54.099998,82,53.599998C82.699997,52.549999,83.5,51.599998,84.150002,50.5C84.5,49.950001,84.800003,49.349998,85.099998,48.799999C85.5,48.200001,85.650002,47.650002,85.949997,47.049999C86.199997,46.599998,86.5,45.75,86.75,45.200001C87,44.599998,87.25,43.950001,87.5,43.349998C87.800003,42.75,88,42.049999,88.25,41.450001C88.449997,41,88.849998,40.099998,88.949997,39.549999C89.099998,38.900002,89.400002,38.200001,89.599998,37.549999C89.800003,36.900002,90,36.150002,90.150002,35.5C90.199997,35.200001,90.300003,34.700001,90.349998,34.400002C90.400002,34.049999,90.5,33.700001,90.550003,33.299999C90.599998,33,90.699997,31.1,90.800003,30.950001C90.800003,30.950001,90.800003,24.15,90.800003,24.15C90.699997,24,90.650002,22.65,90.550003,22.299999C90.449997,21.799999,90.199997,21.1,90.199997,20.6C90.199997,20.6,90.099998,20.6,90.099998,20.6C90.099998,19.799999,88.849998,16.950001,88.550003,16.25C88,15,87.150002,13.55,86.449997,12.45C85.849998,11.45,84.650002,9.8999996,83.900002,9.1000004C83.449997,8.6000004,82.900002,8.1000004,82.400002,7.6500001C82,7.3000002,81.150002,6.6999998,80.699997,6.4000001C80.400002,6.1999998,80.150002,6,79.800003,5.8000002C79.449997,5.5999999,79.25,5.4499998,78.949997,5.1999998C78.400002,4.8499999,77.550003,4.5,77.050003,4.1500001C76.199997,3.55,74.150002,2.6500001,73.050003,2.25C72.349998,2,71.699997,1.6,70.900002,1.4C70.099998,1.2,69.349998,0.94999999,68.599998,0.75C67.800003,0.55000001,66.949997,0.40000001,66.150002,0.25C65.849998,0.2,63.549999,0.050000001,63.5,0C63.5,0,57,0,57,0C56.950001,0,54.5,0.199999,54.25,0.199999C53.400002,0.299999,52.599998,0.449999,51.700001,0.549999C50.950001,0.64999902,50.049999,0.89999998,49.200001,1C48.599998,1.1,47.5,1.4,46.849998,1.55C43.75,2.3499999,40.799999,3.25,37.950001,4.3000002C36.5,4.8499999,35.200001,5.4499998,33.799999,6C33.25,6.1999998,32.299999,6.6500001,31.85,6.9499998C31.549999,7.1500001,31.200001,7.3000002,30.9,7.4499998C30.6,7.5999999,30.25,7.8000002,29.950001,7.9499998C27.1,9.1499996,23.700001,12,21.200001,13.85C20.75,14.2,19.950001,14.75,19.6,15.15C18.65,16.1,17.5,16.950001,16.549999,17.950001C15.55,18.950001,14.65,19.950001,13.65,20.9C13.15,21.4,12.75,21.950001,12.3,22.450001C11.9,22.85,11.25,23.549999,10.95,24C10.15,25.1,9.1999998,26.1,8.3999996,27.299999C8.0500002,27.85,7.5500002,28.5,7.1999998,29C6.8499999,29.6,6.4499998,30.25,6.0999999,30.799999C5.4000001,31.75,4.5999999,33.5,4.0500002,34.599998C3.95,34.799999,3.6500001,35.400002,3.5999999,35.599998C3.5,35.950001,3.25,36.299999,3.1500001,36.599998C3.05,36.900002,2.4000001,38.5,2.3,38.650002C2.3,39.049999,1.6,40.700001,1.5,41.200001C1.3,42.150002,1.05,42.950001,0.85000002,43.950001C0.64999998,44.900002,0.44999999,45.849998,0.34999999,46.849998C0.2,47.400002,0.050000001,50.049999,0,50.099998C0,50.099998,0,50.099998,0,50.099998C0,50.099998,0,50.099998,0,50.099998Z" fill="#1D7A74" fill-opacity="1"/></svg>