<svg xmlns="http://www.w3.org/2000/svg" xmlns:xlink="http://www.w3.org/1999/xlink" fill="none" version="1.1" width="85" height="85.0009994506836" viewBox="0 0 85 85.0009994506836"><path d="M17.668301,65.216599C17.668301,65.216599,16.5797,65.773499,16.5797,65.773499C16.5797,65.773499,17.7743,66.016098,17.7743,66.016098C17.7743,66.016098,17.9704,67.219902,17.9704,67.219902C17.9704,67.219902,18.5604,66.163597,18.5604,66.163597C18.5604,66.163597,19.7654,66.349197,19.7654,66.349197C19.7654,66.349197,18.942499,65.445099,18.942499,65.445099C18.942499,65.445099,19.493099,64.369797,19.493099,64.369797C19.493099,64.369797,18.381001,64.864601,18.381001,64.864601C18.381001,64.864601,17.524401,64.022499,17.524401,64.022499C17.524401,64.022499,17.668301,65.216599,17.668301,65.216599C17.668301,65.216599,17.668301,65.216599,17.668301,65.216599ZM67.555199,64.022499C67.555199,64.022499,66.700104,64.864601,66.700104,64.864601C66.700104,64.864601,65.588997,64.369797,65.588997,64.369797C65.588997,64.369797,66.137398,65.445099,66.137398,65.445099C66.137398,65.445099,65.314201,66.349197,65.314201,66.349197C65.314201,66.349197,66.519402,66.163597,66.519402,66.163597C66.519402,66.163597,67.1091,67.219902,67.1091,67.219902C67.1091,67.219902,67.307999,66.016098,67.307999,66.016098C67.307999,66.016098,68.499702,65.773499,68.499702,65.773499C68.499702,65.773499,67.412498,65.216599,67.412498,65.216599C67.412498,65.216599,67.555199,64.022499,67.555199,64.022499C67.555199,64.022499,67.555199,64.022499,67.555199,64.022499ZM43.645599,49.005699C43.345699,49.005699,42.0755,48.234699,42.062302,48.2253C42.062302,48.2253,41.9398,47.9921,41.9398,47.9921C41.998001,47.787701,42.4216,47.754299,42.6689,47.754299C42.6689,47.754299,42.783199,47.754299,42.783199,47.754299C43.477699,47.754299,44.070301,47.778,44.248798,48.039799C44.248798,48.039799,44.271099,48.339401,44.271099,48.339401C44.102402,48.782101,43.9048,48.991299,43.645599,49.005699C43.645599,49.005699,43.645599,49.005699,43.645599,49.005699ZM44.712601,50.9613C44.916,50.9613,45.1623,51.042099,45.5107,51.232399C45.634499,51.303799,45.820099,51.456001,46.078098,51.6656C46.874001,52.312599,48.2076,53.3974,49.5112,53.464001C49.5112,53.464001,49.825199,53.473499,49.825199,53.473499C51.4109,53.473499,53.464199,52.864498,53.9935,51.970001C54.143299,51.717701,54.181301,51.5228,54.108799,51.398998C54.0242,51.246799,53.769901,51.166,53.411701,51.166C53.411701,51.166,53.1642,51.1754,53.1642,51.1754C53.1642,51.1754,52.848999,51.227798,52.848999,51.227798C52.565899,51.284801,52.211399,51.356201,51.348999,51.356201C50.078499,51.356201,46.832401,50.176102,46.800201,50.166599C46.800201,50.166599,46.627701,50.104801,46.627701,50.104801C46.350498,50.014301,46.035198,49.9095,45.977001,49.6908C45.977001,49.6908,46.107899,49.324402,46.107899,49.324402C46.107899,49.324402,46.191101,49.181599,46.191101,49.181599C46.592098,48.529701,47.2631,47.430801,46.633801,46.9216C46.1982,46.5742,45.791401,46.464802,44.820801,46.445801C44.820801,46.445801,44.776699,46.445801,44.776699,46.445801C44.5186,46.445801,43.984699,46.483799,43.418201,46.521801C42.5844,46.5742,41.620899,46.640701,41.2094,46.612202C41.2094,46.612202,40.864399,46.421902,40.864399,46.421902C40.7444,46.136398,41.1273,45.674999,41.171398,45.617802C41.171398,45.617802,41.196201,45.589199,41.196201,45.589199C41.196201,45.589199,41.235401,45.589199,41.235401,45.589199C41.6959,45.570202,42.162201,45.560799,42.621399,45.560799C45.873501,45.560799,48.252701,46.0509,48.829498,46.222099C48.829498,46.222099,49.0816,46.307701,49.0816,46.307701C49.379101,46.417301,49.715801,46.536201,50.198601,46.536201C50.198601,46.536201,50.7626,46.488701,50.7626,46.488701C51.618999,46.3363,52.2304,45.893799,52.630199,45.1278C52.630199,45.1278,52.654999,44.7281,52.654999,44.7281C52.4921,44.452,51.951,44.361698,51.6297,44.418598C51.2528,44.480598,49.1889,44.5424,47.465302,44.5424C46.692001,44.5424,46.060299,44.528301,45.644001,44.509102C45.2644,44.4855,44.4128,44.428101,43.591999,44.375999C42.795101,44.3237,42.025501,44.275902,41.751701,44.257C41.751701,44.257,41.679401,44.257,41.679401,44.257C41.679401,44.257,41.669899,44.180901,41.669899,44.180901C41.669899,44.180901,41.654202,43.971401,41.654202,43.971401C41.630299,43.567001,41.6101,43.215,40.6646,42.967499C40.6646,42.967499,40.344501,42.915298,40.344501,42.915298C40.1399,42.915298,40.0103,43.000801,39.914101,43.433701C39.7854,44.014301,39.508099,44.333099,39.496498,44.342602C39.496498,44.342602,39.4702,44.375999,39.4702,44.375999C39.4702,44.375999,39.372799,44.375999,39.372799,44.375999C39.056301,44.375999,37.329102,44.3806,34.418301,44.551998C32.910099,44.637699,32.109299,44.832802,31.8228,45.184799C31.617001,45.436901,31.6656,45.779598,31.73,46.2173C31.73,46.2173,31.7334,46.250599,31.7334,46.250599C31.7964,46.683601,32.224701,46.745399,32.473499,46.745399C32.823101,46.745399,33.248901,46.626598,33.670101,46.4077C34.422001,46.017502,35.761299,46.003201,37.1805,45.993698C37.689602,45.9841,38.2178,45.9795,38.706501,45.960499C38.706501,45.960499,38.856602,45.950802,38.856602,45.950802C38.856602,45.950802,38.7873,46.084099,38.7873,46.084099C37.188702,49.200699,33.567902,49.862,32.920502,49.862C32.2747,49.862,31.316099,49.533901,30.865101,49.3293C30.865101,49.3293,30.3964,49.210201,30.3964,49.210201C30.0324,49.210201,29.848,49.491001,29.848,50.0382C29.848,51.0755,31.1054,51.617802,32.351002,51.617802C34.984501,51.617802,36.882999,50.004799,37.901299,49.1437C38.109299,48.967499,38.2724,48.829601,38.399799,48.7393C38.7981,48.4632,39.099201,48.329899,39.345501,48.329899C39.345501,48.329899,39.767601,48.4632,39.767601,48.4632C39.767601,48.4632,39.8853,48.529701,39.8853,48.529701C39.8853,48.529701,40.038799,48.5965,40.038799,48.5965C40.477798,48.791599,41.486698,49.2435,41.9076,49.4338C41.9076,49.4338,42.0005,49.472,42.0005,49.472C42.326401,49.6194,42.5844,49.733601,42.607101,49.933399C42.607101,49.933399,42.368,50.304699,42.368,50.304699C41.396,51.023201,40.281399,51.4086,39.563,51.532299C39.150299,51.598801,38.5294,51.641701,37.943001,51.641701C37.544399,51.641701,36.816399,51.6227,36.4035,51.48C36.4035,51.48,36.2001,51.446499,36.2001,51.446499C36.000301,51.446499,35.911201,51.570301,35.873199,51.675098C35.789902,51.898701,35.853001,52.269798,36.137299,52.5172C36.7831,53.073898,37.675301,53.3736,38.188,53.3736C40.157902,53.3736,43.0984,52.017601,43.757401,51.5513C43.757401,51.5513,44.082199,51.284801,44.082199,51.284801C44.284401,51.104,44.444901,50.9613,44.712601,50.9613C44.712601,50.9613,44.712601,50.9613,44.712601,50.9613ZM39.496498,33.5214C39.193199,33.5214,38.831402,33.482101,38.729198,33.188301C38.729198,33.188301,38.758801,32.958698,38.758801,32.958698C38.896999,32.764801,39.340599,32.7267,40.009102,32.7267C40.009102,32.7267,40.476601,32.727901,40.476601,32.727901C40.476601,32.727901,40.770401,32.722,40.770401,32.722C40.770401,32.722,41.261799,32.706501,41.261799,32.706501C41.435398,32.706501,41.869598,32.710098,42.1576,32.764801C42.352402,32.8018,42.446499,32.921799,42.440701,33.122799C42.440701,33.122799,42.440701,33.152599,42.440701,33.152599C42.440701,33.2537,42.439499,33.394299,42.221699,33.445099C42.112202,33.472698,41.965801,33.483398,41.742199,33.483398C41.742199,33.483398,41.273701,33.472698,41.273701,33.472698C40.878502,33.462002,40.4575,33.466499,40.060299,33.492901C39.858002,33.507099,39.667801,33.5214,39.496498,33.5214C39.496498,33.5214,39.496498,33.5214,39.496498,33.5214ZM41.676899,35.1712C41.676899,35.1712,41.515099,35.1665,41.515099,35.1665C41.3568,35.158298,41.051102,35.158298,40.707298,35.1558C40.089901,35.1534,39.390499,35.152199,39.103802,35.1106C38.751801,35.055901,38.722,34.840599,38.720901,34.7799C38.719601,34.583599,38.9147,34.409901,39.183399,34.364799C39.364498,34.331402,39.848598,34.3279,40.048401,34.3279C40.506302,34.3279,42.0135,34.343399,42.190701,34.536098C42.190701,34.536098,42.228699,34.575401,42.228699,34.575401C42.228699,34.575401,42.231098,34.649101,42.231098,34.649101C42.231098,34.649101,42.2323,34.747799,42.2323,34.747799C42.2323,34.747799,42.1576,35.042801,42.1576,35.042801C42.073002,35.132,41.9291,35.1712,41.676899,35.1712C41.676899,35.1712,41.676899,35.1712,41.676899,35.1712ZM41.736401,36.891399C41.596001,36.891399,40.452702,36.872299,39.583199,36.8675C39.053902,36.858002,38.626801,36.853401,38.594601,36.853401C38.594601,36.853401,38.455502,36.758099,38.455502,36.758099C38.455502,36.758099,38.438999,36.658199,38.438999,36.658199C38.438999,36.4916,38.544701,36.176399,38.788601,36.176399C38.788601,36.176399,41.769699,36.152699,41.769699,36.152699C41.946899,36.152699,42.0825,36.310799,42.0825,36.5154C42.0825,36.5154,42.0005,36.767601,42.0005,36.767601C42.0005,36.767601,41.736401,36.891399,41.736401,36.891399C41.736401,36.891399,41.736401,36.891399,41.736401,36.891399ZM40.099499,38.747002C39.5774,38.747002,39.026501,38.732899,38.812401,38.723099C38.812401,38.723099,38.783901,38.723099,38.783901,38.723099C38.506699,38.723099,38.094002,38.556801,38.087898,38.318802C38.0858,38.0476,38.533001,38.033199,38.681599,38.0285C39.570099,38,40.832298,38.038101,41.167702,38.052399C41.167702,38.052399,41.230801,38.057098,41.230801,38.057098C41.453201,38.061901,41.636501,38.199799,41.6567,38.371101C41.669899,38.490002,41.608002,38.628101,41.396,38.6852C41.251099,38.723099,40.8158,38.747002,40.099499,38.747002C40.099499,38.747002,40.099499,38.747002,40.099499,38.747002ZM41.221298,40.084C41.221298,40.084,41.388901,40.160301,41.388901,40.160301C41.584099,40.360001,41.584099,40.964401,41.563801,41.792198C41.563801,41.792198,41.555599,42.182499,41.555599,42.182499C41.555599,42.758202,41.874199,43.119701,42.407299,43.158001C43.549099,43.2388,43.591999,41.9016,43.630001,41.030899C43.630001,41.030899,43.637299,40.859699,43.637299,40.859699C43.657501,40.450401,43.9286,40.207802,44.363998,40.207802C44.363998,40.207802,44.524502,40.217201,44.524502,40.217201C44.524502,40.217201,45.906898,40.226799,45.906898,40.226799C45.906898,40.226799,45.890301,40.364799,45.890301,40.364799C45.890301,40.364799,45.802101,40.769299,45.802101,40.769299C45.729801,41.054798,45.6381,41.411701,45.6381,41.830299C45.6381,42.4632,46.311298,42.891399,47.313999,42.891399C48.071899,42.891399,48.9879,42.753399,49.036598,42.087299C49.062698,41.7019,48.318199,41.5257,47.958801,41.444901C47.958801,41.444901,47.710098,41.3783,47.710098,41.3783C47.543701,41.311699,46.509998,40.7598,46.451599,40.355301C46.451599,40.355301,46.430401,40.212601,46.430401,40.212601C46.430401,40.212601,46.575401,40.212601,46.575401,40.212601C47.199902,40.212601,48.543999,40.512299,48.888901,40.650398C49.521801,40.897701,50.5093,41.0928,51.136101,41.0928C52.4207,41.0928,53.013199,39.746399,53.1642,39.332199C53.251202,39.099098,53.248798,38.913601,53.1572,38.780399C53.008499,38.571098,52.684799,38.5518,52.548,38.6138C52.216301,38.7519,52.1091,38.799301,51.136101,38.799301C51.136101,38.799301,44.2892,38.799301,44.2892,38.799301C44.2892,38.799301,44.063099,38.675598,44.063099,38.675598C44.063099,38.675598,44.004902,38.466301,44.004902,38.466301C44.004902,38.466301,44.2892,38.099899,44.2892,38.099899C44.2892,38.099899,48.717701,38.171299,48.717701,38.171299C49.398201,38.171299,50.1726,38.171299,50.623299,37.3386C50.623299,37.3386,50.692402,36.915298,50.692402,36.915298C50.692402,36.915298,50.264099,36.7439,50.264099,36.7439C50.264099,36.7439,49.984501,36.796101,49.984501,36.796101C49.815701,36.8675,49.362598,37.067501,48.848598,37.067501C48.848598,37.067501,45.078999,37.067501,45.078999,37.067501C45.078999,37.067501,44.7948,36.7439,44.7948,36.7439C44.7948,36.7439,44.868301,36.563,44.868301,36.563C44.868301,36.563,45.078999,36.487,45.078999,36.487C45.078999,36.487,48.457298,36.487,48.457298,36.487C49.047298,36.487,49.650299,36.0979,49.919201,35.545898C49.919201,35.545898,49.9548,35.249901,49.9548,35.249901C49.9548,35.249901,49.5672,35.1035,49.5672,35.1035C49.5672,35.1035,49.344501,35.141499,49.344501,35.141499C49.065102,35.279598,48.8629,35.331902,48.2799,35.331902C48.2799,35.331902,45.312199,35.331902,45.312199,35.331902C45.312199,35.331902,45.043098,35.2449,45.043098,35.2449C45.043098,35.2449,44.945801,35.0275,44.945801,35.0275C44.945801,35.0275,45.251598,34.685902,45.251598,34.685902C45.251598,34.685902,47.313999,34.685902,47.313999,34.685902C48.5774,34.685902,49.296902,34.427898,49.576698,33.8759C49.576698,33.8759,49.611,33.6534,49.611,33.6534C49.611,33.6534,49.245899,33.555901,49.245899,33.555901C49.0354,33.555901,48.822399,33.597401,48.742802,33.614201C48.642899,33.637901,48.4524,33.648499,48.157398,33.648499C47.3927,33.648499,46.176998,33.572601,46.163898,33.572601C46.163898,33.572601,45.479801,33.577202,45.479801,33.577202C45.479801,33.577202,45.256199,33.498798,45.256199,33.498798C45.256199,33.498798,45.174,33.301399,45.174,33.301399C45.174,33.126499,45.326302,32.928902,45.5499,32.928902C45.5499,32.928902,48.371498,32.928902,48.371498,32.928902C49.588402,32.928902,50.623299,32.284302,50.7924,31.705C50.7924,31.705,50.7626,31.3827,50.7626,31.3827C50.6413,31.2209,50.2486,31.178101,49.9478,31.2862C49.4744,31.4529,48.8736,31.645599,48.414398,31.645599C48.414398,31.645599,45.3811,31.645599,45.3811,31.645599C45.3811,31.645599,45.175201,31.558599,45.175201,31.558599C45.175201,31.558599,45.0956,31.3006,45.0956,31.3006C45.143101,30.4452,44.804199,29.8421,44.4617,29.7066C44.029701,29.5329,43.612202,29.657801,43.2388,30.0644C42.918598,30.415501,42.718899,31.075701,42.647499,31.3445C42.647499,31.3445,42.372601,31.6063,42.372601,31.6063C42.134899,31.614599,41.339001,31.645599,41.0844,31.645599C40.976299,31.645599,40.6194,31.6278,40.503899,31.395599C40.459999,31.3076,40.438599,31.1637,40.5872,30.962601C40.832298,30.6355,40.829899,30.2645,40.7192,30.042C40.670502,29.9443,40.555,29.7838,40.3255,29.7838C40.120899,29.7838,39.883099,29.9135,39.636902,30.1562C38.856602,30.9377,37.0448,31.2148,35.729198,31.2148C35.2617,31.2148,34.878799,31.178101,34.681198,31.1101C34.681198,31.1101,34.345699,30.9792,34.345699,30.9792C34.1423,30.891199,33.953201,30.810499,33.7878,30.810499C33.607101,30.810499,33.375198,30.899599,33.173,31.599001C33.090801,31.875,33.138302,32.130901,33.307201,32.356899C33.730801,32.921799,34.834702,33.223999,35.660301,33.223999C35.660301,33.223999,36.058701,33.194199,36.058701,33.194199C36.058701,33.194199,36.176498,33.176399,36.176498,33.176399C36.176498,33.176399,36.2001,33.292999,36.2001,33.292999C36.380001,34.138699,35.902901,38.361599,35.882599,38.537701C35.882599,38.537701,35.872002,38.6423,35.872002,38.6423C35.872002,38.6423,35.770901,38.652,35.770901,38.652C33.2645,38.880299,32.366299,39.474998,32.053398,39.9366C31.893,40.174702,31.851299,40.426701,31.928499,40.6884C32.0737,41.168999,32.687401,41.221199,32.945599,41.221199C33.2477,41.221199,33.565399,41.154598,33.733002,41.0499C34.213699,40.7644,36.306099,40.3125,36.6213,40.2696C36.6213,40.2696,37.0187,40.231602,37.0187,40.231602C37.0187,40.231602,37.231602,40.331501,37.231602,40.331501C37.231602,40.331501,37.0616,40.678902,37.0616,40.678902C37.0616,40.678902,37.021099,40.721802,37.021099,40.721802C36.985298,40.7644,36.138302,41.692299,35.695801,41.911201C35.5592,41.982601,35.391399,42.282398,35.450699,42.5345C35.522099,42.843899,35.898102,42.905499,36.2001,42.905499C37.3778,42.905499,38.852901,41.811199,39.077801,41.444901C39.239498,41.173698,39.166901,41.059399,39.020699,40.826302C39.020699,40.826302,38.958801,40.726398,38.958801,40.726398C38.958801,40.726398,38.845798,40.207802,38.845798,40.207802C38.845798,40.207802,39.207298,40.0364,39.207298,40.0364C39.207298,40.0364,41.221298,40.084,41.221298,40.084C41.221298,40.084,41.221298,40.084,41.221298,40.084ZM61.6516,58.003399C61.0116,58.545799,53.363098,62.599701,42.571499,62.599701C31.7834,62.599701,24.1371,58.545799,23.495899,58.003399C22.9797,57.556,23.048599,57.361,23.0725,57.279999C23.3127,56.561501,23.7885,55.624401,24.391701,54.572601C24.391701,54.572601,24.659201,54.724899,24.659201,54.724899C27.243,56.2047,32.625801,59.302299,42.571499,59.302299C52.526699,59.302299,57.9128,56.2047,60.496601,54.724899C60.496601,54.724899,60.752399,54.572601,60.752399,54.572601C61.359001,55.624401,61.8419,56.561501,62.071602,57.279999C62.0965,57.361,62.1679,57.556,61.6516,58.003399C61.6516,58.003399,61.6516,58.003399,61.6516,58.003399ZM25.809601,52.179401C25.809601,52.179401,28.402901,47.706799,28.402901,47.706799C30.3036,44.204498,30.813999,33.029999,30.813999,31.6502C30.813999,30.292999,31.146999,27.799801,32.0667,26.4972C32.0667,26.4972,32.3354,26.178301,32.3354,26.178301C33.827,26.648199,36.605801,27.5271,42.571499,27.5271C42.571499,27.5271,42.574902,27.5271,42.574902,27.5271C48.543999,27.5271,51.320499,26.648199,52.811001,26.178301C52.811001,26.178301,53.0858,26.4972,53.0858,26.4972C53.999298,27.799801,54.335999,30.292999,54.335999,31.6502C54.335999,33.029999,54.8428,44.204498,56.7425,47.706799C56.7425,47.706799,59.341702,52.179401,59.341702,52.179401C59.7197,52.807499,60.069599,53.4021,60.407501,53.963699C60.407501,53.963699,60.140999,54.115898,60.140999,54.115898C57.608299,55.562401,52.337601,58.588501,42.571499,58.588501C32.813599,58.588501,27.5392,55.562401,25.0054,54.115898C25.0054,54.115898,24.7425,53.963699,24.7425,53.963699C25.0755,53.4021,25.43,52.807499,25.809601,52.179401C25.809601,52.179401,25.809601,52.179401,25.809601,52.179401ZM44.247501,22.553699C44.178398,22.8214,44.3009,23.0261,44.978001,23.083099C46.7668,23.2544,50.278301,24.1943,52.1936,25.634701C50.652,26.108101,47.9328,26.8256,42.571499,26.8256C37.216,26.8256,34.494301,26.108101,32.955101,25.634701C34.8965,24.177401,38.249699,23.2307,39.959202,23.1618C39.959202,23.1618,40.456402,23.0987,40.456402,23.0987C41.057098,22.990299,41.010502,22.6443,41.026199,22.369499C41.026199,22.369499,41.026199,19.3634,41.026199,19.3634C41.026199,19.196899,41.072498,17.749201,42.571499,17.778799C43.580002,17.800301,44.092899,18.6378,44.077301,19.539499C44.077301,20.0723,44.3438,20.545799,45.021801,20.545799C45.246601,20.545799,45.612999,20.396,45.654701,20.069901C45.697601,19.759399,45.641499,19.5359,45.327499,19.3657C45.119499,19.2456,44.848099,19.2479,44.848099,18.9697C44.848099,18.6877,45.105099,18.515301,45.393002,18.476C46.1008,18.3915,46.367298,18.841101,46.367298,19.139799C46.367298,19.139799,46.398201,22.5907,46.398201,22.5907C45.5275,22.425301,44.340099,22.1971,44.247501,22.553699C44.247501,22.553699,44.247501,22.553699,44.247501,22.553699ZM40.4944,18.5842C40.4944,18.7698,40.542198,19.142099,40.1185,19.130199C39.854401,19.126699,39.636902,19.463301,39.501099,19.780899C39.4156,19.9807,38.848301,20.0557,38.894501,19.408501C38.9184,18.6236,39.530899,18.117901,40.4944,18.5842C40.4944,18.5842,40.4944,18.5842,40.4944,18.5842ZM40.5909,21.126301C40.570702,21.3916,40.4254,21.8864,40.068501,22.0947C39.847301,22.2255,39.1549,22.483601,39.011002,21.939899C38.924301,21.611601,38.993198,21.0383,39.490398,20.9753C39.8629,20.9277,39.994999,20.8421,40.1068,20.3578C40.177898,20.0378,40.663399,20.099701,40.5909,21.126301C40.5909,21.126301,40.5909,21.126301,40.5909,21.126301ZM44.792198,17.891899C44.4664,18.0347,44.227402,17.988199,43.967899,17.737301C43.550301,17.3316,43.084,17.068701,42.491798,17.068701C41.594799,17.068701,41.110699,17.4554,40.767899,17.9265C40.502899,17.808701,40.148201,17.737301,39.811699,17.737301C38.816101,17.737301,38.362701,18.4617,38.362701,19.139799C38.362701,19.139799,38.362701,22.712099,38.362701,22.712099C35.9743,23.2068,32.683998,24.405899,31.4932,26.0952C30.4013,27.641399,30.1134,30.406,30.1134,31.6502C30.1134,33.0098,29.619699,43.9907,27.785299,47.3689C27.785299,47.3689,25.2064,51.813,25.2064,51.813C23.9361,53.935101,22.835699,55.757401,22.4062,57.0564C22.4062,57.0564,22.353901,57.375301,22.353901,57.375301C22.353901,57.936798,22.852301,58.369701,23.0343,58.531502C23.681499,59.102501,31.434999,63.280102,42.554699,63.289501C42.554699,63.289501,42.571499,63.289501,42.571499,63.289501C42.571499,63.289501,42.592899,63.289501,42.592899,63.289501C53.717499,63.280102,61.463799,59.102501,62.108398,58.531502C62.327202,58.341202,62.984001,57.775002,62.737701,57.061199C62.313,55.757401,61.219898,53.935101,59.950699,51.813C59.950699,51.813,57.361,47.3689,57.361,47.3689C55.5256,43.9907,55.037899,33.0098,55.037899,31.6502C55.037899,30.406,54.744999,27.641399,53.658001,26.0952C52.5266,24.4844,49.491001,23.291401,47.154701,22.757099C47.154701,22.757099,47.1464,19.139799,47.1464,19.139799C47.1464,18.446199,46.5634,17.7218,45.616699,17.7218C45.2635,17.7218,45.040798,17.784901,44.792198,17.891899C44.792198,17.891899,44.792198,17.891899,44.792198,17.891899ZM42.334599,22.173201C42.334599,22.173201,42.334599,19.902201,42.334599,19.902201C42.334599,19.902201,42.604599,19.6073,42.604599,19.6073C42.604599,19.6073,42.872299,19.902201,42.872299,19.902201C42.872299,19.902201,42.872299,22.173201,42.872299,22.173201C42.872299,22.173201,42.604599,22.471901,42.604599,22.471901C42.604599,22.471901,42.334599,22.173201,42.334599,22.173201C42.334599,22.173201,42.334599,22.173201,42.334599,22.173201ZM43.466,22.1707C43.466,22.1707,43.466,19.830799,43.466,19.830799C43.466,19.358601,43.080601,18.976801,42.604599,18.976801C42.127602,18.976801,41.744701,19.358601,41.744701,19.830799C41.744701,19.830799,41.744701,22.1707,41.744701,22.1707C41.744701,22.6443,42.127602,23.0285,42.604599,23.0285C43.080601,23.0285,43.466,22.6443,43.466,22.1707C43.466,22.1707,43.466,22.1707,43.466,22.1707ZM42.500099,14.9239C27.294201,14.9239,14.9228,27.296499,14.9228,42.501202C14.9228,57.708302,27.294201,70.079498,42.500099,70.079498C57.706001,70.079498,70.077202,57.708302,70.077202,42.501202C70.077202,27.296499,57.706001,14.9239,42.500099,14.9239C42.500099,14.9239,42.500099,14.9239,42.500099,14.9239ZM42.500099,71.188202C26.682699,71.188202,13.8142,58.317299,13.8142,42.501202C13.8142,26.684999,26.682699,13.8154,42.500099,13.8154C58.317299,13.8154,71.185898,26.684999,71.185898,42.501202C71.185898,58.317299,58.317299,71.188202,42.500099,71.188202C42.500099,71.188202,42.500099,71.188202,42.500099,71.188202ZM70.108101,57.2705C69.987999,57.408699,69.854797,57.632198,69.7145,57.875C68.930397,59.183399,69.249298,60.334702,70.5364,61.0961C71.668701,61.776501,72.744102,61.552898,73.511497,60.253899C73.7006,59.9352,73.813499,59.6735,73.8741,59.4925C73.8741,59.4925,70.108101,57.2705,70.108101,57.2705C70.108101,57.2705,70.108101,57.2705,70.108101,57.2705ZM74.693703,59.140499C74.524902,59.554401,74.304901,60.0256,74.015701,60.510899C73.493401,61.395901,72.926003,61.905102,72.290901,62.095402C71.646103,62.295101,70.942001,62.214298,70.173599,61.7575C69.3955,61.296001,68.905403,60.6726,68.726997,59.9781C68.549599,59.264301,68.742599,58.388699,69.289803,57.460999C69.551399,57.018299,69.778503,56.661499,70.008202,56.3713C70.008202,56.3713,74.693703,59.140499,74.693703,59.140499C74.693703,59.140499,74.693703,59.140499,74.693703,59.140499ZM72.804703,56.399799C72.804703,56.399799,73.605202,54.410999,73.605202,54.410999C73.605202,54.410999,71.755699,53.668598,71.755699,53.668598C71.755699,53.668598,70.861099,55.890701,70.861099,55.890701C70.861099,55.890701,70.305702,55.667,70.305702,55.667C70.305702,55.667,71.4702,52.774101,71.4702,52.774101C71.4702,52.774101,76.599297,54.839199,76.599297,54.839199C76.599297,54.839199,75.4814,57.617901,75.4814,57.617901C75.4814,57.617901,74.926804,57.394199,74.926804,57.394199C74.926804,57.394199,75.776299,55.2864,75.776299,55.2864C75.776299,55.2864,74.153603,54.634499,74.153603,54.634499C74.153603,54.634499,73.352997,56.618801,73.352997,56.618801C73.352997,56.618801,72.804703,56.399799,72.804703,56.399799C72.804703,56.399799,72.804703,56.399799,72.804703,56.399799ZM77.028702,51.246799C77.028702,51.246799,77.452202,49.614799,77.452202,49.614799C77.452202,49.614799,78.041,49.767101,78.041,49.767101C78.041,49.767101,77.009804,53.7304,77.009804,53.7304C77.009804,53.7304,76.423401,53.5783,76.423401,53.5783C76.423401,53.5783,76.846802,51.941399,76.846802,51.941399C76.846802,51.941399,72.080498,50.7043,72.080498,50.7043C72.080498,50.7043,72.262398,50.004799,72.262398,50.004799C72.262398,50.004799,77.028702,51.246799,77.028702,51.246799C77.028702,51.246799,77.028702,51.246799,77.028702,51.246799ZM78.174301,48.715401C78.174301,48.715401,72.711899,47.8494,72.711899,47.8494C72.711899,47.8494,72.826202,47.1357,72.826202,47.1357C72.826202,47.1357,78.287399,48.006401,78.287399,48.006401C78.287399,48.006401,78.174301,48.715401,78.174301,48.715401C78.174301,48.715401,78.174301,48.715401,78.174301,48.715401ZM75.523003,45.417999C76.2938,45.394199,77.231003,45.370499,77.911499,45.384602C77.911499,45.384602,77.911499,45.365601,77.911499,45.365601C77.276299,45.156399,76.585197,44.9184,75.827499,44.623299C75.827499,44.623299,73.168701,43.581299,73.168701,43.581299C73.168701,43.581299,73.180603,43.043701,73.180603,43.043701C73.180603,43.043701,75.834602,42.2015,75.834602,42.2015C76.626801,41.953999,77.338203,41.7589,77.998497,41.620998C77.998497,41.620998,77.998497,41.602001,77.998497,41.602001C77.3097,41.573502,76.392502,41.506699,75.556198,41.440201C75.556198,41.440201,73.190201,41.2356,73.190201,41.2356C73.190201,41.2356,73.205704,40.555099,73.205704,40.555099C73.205704,40.555099,78.725197,41.069,78.725197,41.069C78.725197,41.069,78.703697,41.982601,78.703697,41.982601C78.703697,41.982601,76.007103,42.8629,76.007103,42.8629C75.321701,43.072201,74.710602,43.2435,74.1334,43.376801C74.1334,43.376801,74.132401,43.395699,74.132401,43.395699C74.687897,43.552799,75.289597,43.7621,75.980797,44.0238C75.980797,44.0238,78.632301,45.070599,78.632301,45.070599C78.632301,45.070599,78.612099,45.979599,78.612099,45.979599C78.612099,45.979599,73.074898,46.203201,73.074898,46.203201C73.074898,46.203201,73.090202,45.494099,73.090202,45.494099C73.090202,45.494099,75.523003,45.417999,75.523003,45.417999C75.523003,45.417999,75.523003,45.417999,75.523003,45.417999ZM78.496902,38.994499C78.496902,38.994499,72.998596,39.6036,72.998596,39.6036C72.998596,39.6036,72.918999,38.889801,72.918999,38.889801C72.918999,38.889801,78.418198,38.280701,78.418198,38.280701C78.418198,38.280701,78.496902,38.994499,78.496902,38.994499C78.496902,38.994499,78.496902,38.994499,78.496902,38.994499ZM77.667503,34.0425C77.667503,34.0425,77.815201,34.748901,77.815201,34.748901C77.815201,34.748901,72.983398,35.748299,72.983398,35.748299C72.983398,35.748299,73.461502,38.061901,73.461502,38.061901C73.461502,38.061901,72.876099,38.185501,72.876099,38.185501C72.876099,38.185501,72.250397,35.162899,72.250397,35.162899C72.250397,35.162899,77.667503,34.0425,77.667503,34.0425C77.667503,34.0425,77.667503,34.0425,77.667503,34.0425ZM69.695297,28.3874C69.695297,28.3874,74.753098,26.147301,74.753098,26.147301C74.753098,26.147301,75.073303,26.8682,75.073303,26.8682C75.073303,26.8682,73.229301,29.6138,73.229301,29.6138C72.798897,30.2442,72.406403,30.7782,71.984001,31.2421C71.984001,31.2421,72.001701,31.2626,72.001701,31.2626C72.651199,30.902,73.2593,30.615299,74.039597,30.2703C74.039597,30.2703,76.162697,29.328199,76.162697,29.328199C76.162697,29.328199,76.435402,29.9443,76.435402,29.9443C76.435402,29.9443,71.378502,32.1856,71.378502,32.1856C71.378502,32.1856,71.084702,31.5243,71.084702,31.5243C71.084702,31.5243,72.940399,28.782301,72.940399,28.782301C73.347198,28.180401,73.776802,27.585699,74.214302,27.096701C74.214302,27.096701,74.196503,27.0777,74.196503,27.0777C73.5755,27.396299,72.9701,27.673599,72.130402,28.0446C72.130402,28.0446,69.967796,29.0035,69.967796,29.0035C69.967796,29.0035,69.695297,28.3874,69.695297,28.3874C69.695297,28.3874,69.695297,28.3874,69.695297,28.3874ZM68.367699,25.3468C68.998199,26.286699,70.2211,26.237801,71.264297,25.5373C72.176697,24.924601,72.810799,23.8076,72.145699,22.817801C71.484299,21.829201,70.234299,21.957701,69.238602,22.625099C68.2714,23.275801,67.736198,24.4072,68.3619,25.339701C68.3619,25.339701,68.367699,25.3468,68.367699,25.3468C68.367699,25.3468,68.367699,25.3468,68.367699,25.3468ZM67.865898,25.645399C67.045097,24.4237,67.4198,22.9489,68.809097,22.0161C70.267502,21.035801,71.825897,21.2952,72.650299,22.521799C73.495796,23.7813,73.079498,25.237499,71.716202,26.1535C70.1427,27.2097,68.652,26.816999,67.869499,25.6513C67.869499,25.6513,67.865898,25.645399,67.865898,25.645399C67.865898,25.645399,67.865898,25.645399,67.865898,25.645399ZM70.1605,19.370501C70.1605,19.370501,65.972,22.9832,65.972,22.9832C65.972,22.9832,65.500999,22.433599,65.500999,22.433599C65.500999,22.433599,69.689301,18.824499,69.689301,18.824499C69.689301,18.824499,70.1605,19.370501,70.1605,19.370501C70.1605,19.370501,70.1605,19.370501,70.1605,19.370501ZM66.863197,16.7761C66.863197,16.7761,65.647202,15.6116,65.647202,15.6116C65.647202,15.6116,66.067299,15.1737,66.067299,15.1737C66.067299,15.1737,69.024498,18.0061,69.024498,18.0061C69.024498,18.0061,68.603203,18.445,68.603203,18.445C68.603203,18.445,67.384003,17.2757,67.384003,17.2757C67.384003,17.2757,63.978401,20.831301,63.978401,20.831301C63.978401,20.831301,63.4561,20.331699,63.4561,20.331699C63.4561,20.331699,66.863197,16.7761,66.863197,16.7761C66.863197,16.7761,66.863197,16.7761,66.863197,16.7761ZM62.874599,16.797501C62.874599,16.797501,63.385899,15.1916,63.385899,15.1916C63.510899,14.8324,63.641701,14.522,63.766701,14.2174C63.766701,14.2174,63.7477,14.2008,63.7477,14.2008C63.496498,14.4137,63.2183,14.6361,62.931599,14.8419C62.931599,14.8419,61.538601,15.8007,61.538601,15.8007C61.538601,15.8007,62.874599,16.797501,62.874599,16.797501C62.874599,16.797501,62.874599,16.797501,62.874599,16.797501ZM61.0867,16.158701C61.0867,16.158701,59.585499,17.2115,59.585499,17.2115C59.585499,17.2115,58.994202,16.768999,58.994202,16.768999C58.994202,16.768999,63.809399,13.4585,63.809399,13.4585C63.809399,13.4585,64.500504,13.9747,64.500504,13.9747C64.500504,13.9747,62.703098,19.5371,62.703098,19.5371C62.703098,19.5371,62.093102,19.080299,62.093102,19.080299C62.093102,19.080299,62.659199,17.3328,62.659199,17.3328C62.659199,17.3328,61.0867,16.158701,61.0867,16.158701C61.0867,16.158701,61.0867,16.158701,61.0867,16.158701ZM57.2789,12.5343C57.2789,12.5343,57.9272,12.8697,57.9272,12.8697C58.602699,13.2242,59.224899,13.0779,59.517502,12.5164C59.848301,11.8835,59.534401,11.3685,58.864601,11.0188C58.558899,10.8582,58.332802,10.7796,58.209099,10.7511C58.209099,10.7511,57.2789,12.5343,57.2789,12.5343C57.2789,12.5343,57.2789,12.5343,57.2789,12.5343ZM57.805901,9.9766703C58.160301,10.0791,58.6493,10.2765,59.0797,10.5001C59.7556,10.8546,60.131401,11.2162,60.293201,11.6516C60.422798,11.9894,60.393101,12.3987,60.192101,12.7841C59.8578,13.4251,59.221199,13.6381,58.619499,13.5489C58.619499,13.5489,58.607601,13.5704,58.607601,13.5704C58.9109,13.8939,58.955101,14.3614,58.813499,14.936C58.615898,15.702,58.486301,16.236099,58.4814,16.475201C58.4814,16.475201,57.827301,16.132601,57.827301,16.132601C57.819,15.9541,57.930901,15.4736,58.1175,14.7944C58.3246,14.0425,58.187698,13.6477,57.626301,13.324C57.626301,13.324,57.028,13.0147,57.028,13.0147C57.028,13.0147,55.9193,15.1394,55.9193,15.1394C55.9193,15.1394,55.2864,14.8098,55.2864,14.8098C55.2864,14.8098,57.805901,9.9766703,57.805901,9.9766703C57.805901,9.9766703,57.805901,9.9766703,57.805901,9.9766703ZM52.372002,13.1789C53.446098,13.5347,54.382198,12.7484,54.7784,11.5565C55.124599,10.5144,54.941399,9.2427301,53.8125,8.8668098C52.6838,8.4921703,51.773602,9.3569002,51.395302,10.4941C51.029202,11.5993,51.2967,12.8209,52.363701,13.1766C52.363701,13.1766,52.372002,13.1789,52.372002,13.1789C52.372002,13.1789,52.372002,13.1789,52.372002,13.1789ZM52.156601,13.7214C50.7626,13.2574,50.1548,11.8634,50.682999,10.2718C51.236,8.6074896,52.6278,7.8593602,54.027901,8.3244896C55.468399,8.8037596,56.031101,10.2075,55.512501,11.7657C54.914101,13.5644,53.495998,14.1663,52.164001,13.7238C52.164001,13.7238,52.156601,13.7214,52.156601,13.7214C52.156601,13.7214,52.156601,13.7214,52.156601,13.7214ZM47.329498,9.6198797C47.477001,9.6865196,47.676899,9.7376804,47.903,9.7757196C48.760502,9.91957,49.3423,9.5865698,49.466099,8.8490496C49.5909,8.1198997,49.137699,7.6855898,48.362,7.55475C48.0541,7.5025001,47.813702,7.49648,47.687599,7.49892C47.687599,7.49892,47.329498,9.6198797,47.329498,9.6198797C47.329498,9.6198797,47.329498,9.6198797,47.329498,9.6198797ZM47.067902,6.8779802C47.417599,6.8696098,47.870899,6.8981299,48.439499,6.9933C49.135201,7.1111002,49.618,7.3597398,49.892899,7.7046399C50.1488,8.0139904,50.267799,8.4433804,50.186699,8.9286699C50.102402,9.4236097,49.891899,9.78755,49.559898,10.022C49.122101,10.3561,48.478699,10.4573,47.792198,10.3395C47.580502,10.3051,47.387699,10.2634,47.234299,10.1955C47.234299,10.1955,46.863201,12.3831,46.863201,12.3831C46.863201,12.3831,46.160099,12.263,46.160099,12.263C46.160099,12.263,47.067902,6.8779802,47.067902,6.8779802C47.067902,6.8779802,47.067902,6.8779802,47.067902,6.8779802ZM42.694,9.1463499C42.694,9.1463499,43.425598,9.1690702,43.425598,9.1690702C44.186901,9.1892099,44.682899,8.7847795,44.7019,8.1531C44.722099,7.4394302,44.214199,7.1135302,43.458698,7.0921001C43.115002,7.0814199,42.875999,7.1075802,42.752201,7.1372499C42.752201,7.1372499,42.694,9.1463499,42.694,9.1463499C42.694,9.1463499,42.694,9.1463499,42.694,9.1463499ZM42.052799,6.61622C42.4156,6.5532398,42.942501,6.5187502,43.426498,6.53302C44.187901,6.55445,44.685101,6.7161102,45.020599,7.0385699C45.284599,7.2835798,45.438099,7.66537,45.425201,8.0995703C45.404999,8.8216105,44.923199,9.2926798,44.3438,9.4735498C44.3438,9.4735498,44.341301,9.4973402,44.341301,9.4973402C44.757702,9.6579199,44.999401,10.0576,45.122898,10.6369C45.2812,11.4114,45.3965,11.9502,45.497601,12.1667C45.497601,12.1667,44.757702,12.1453,44.757702,12.1453C44.6735,11.987,44.563801,11.5077,44.4366,10.8154C44.2938,10.047,43.997501,9.7519398,43.351799,9.7079296C43.351799,9.7079296,42.678398,9.6876698,42.678398,9.6876698C42.678398,9.6876698,42.610699,12.0834,42.610699,12.0834C42.610699,12.0834,41.895599,12.0619,41.895599,12.0619C41.895599,12.0619,42.052799,6.61622,42.052799,6.61622C42.052799,6.61622,42.052799,6.61622,42.052799,6.61622ZM38.564899,11.8598C39.688,11.7147,40.191101,10.6001,40.031799,9.3546C39.890099,8.2638102,39.173901,7.1943698,37.992901,7.3477802C36.812801,7.5012202,36.368,8.6753502,36.520302,9.8649597C36.6688,11.0188,37.442001,12.0048,38.556702,11.8621C38.556702,11.8621,38.564899,11.8598,38.564899,11.8598C38.564899,11.8598,38.564899,11.8598,38.564899,11.8598ZM38.606602,12.4427C37.149399,12.6294,35.9958,11.6361,35.782799,9.9755802C35.556702,8.2327805,36.4856,6.9541602,37.951302,6.76614C39.458302,6.5722799,40.5741,7.5965199,40.782299,9.2249098C41.0238,11.1055,40.0079,12.263,38.6161,12.4415C38.6161,12.4415,38.606602,12.4427,38.606602,12.4427C38.606602,12.4427,38.606602,12.4427,38.606602,12.4427ZM35.8839,12.5807C35.676899,12.7792,35.202301,13.0553,34.556198,13.2456C33.062302,13.687,31.6656,13.0731,31.1507,11.3245C30.656799,9.6567097,31.453899,8.20784,33.098999,7.7214098C33.750999,7.5297899,34.2174,7.5453401,34.427898,7.5869098C34.427898,7.5869098,34.418301,8.1959496,34.418301,8.1959496C34.129101,8.1448402,33.731998,8.1590996,33.2906,8.2898998C32.047401,8.6563501,31.4564,9.6959105,31.8666,11.0866C32.252102,12.3951,33.243198,12.9993,34.526402,12.6211C34.951099,12.4961,35.350899,12.2832,35.586498,12.0691C35.586498,12.0691,35.8839,12.5807,35.8839,12.5807C35.8839,12.5807,35.8839,12.5807,35.8839,12.5807ZM29.391199,14.717C29.1747,14.9811,28.7062,15.4534,28.0543,15.8197C27.326401,16.2314,26.6196,16.3836,25.8941,16.198C25.255301,16.0327,24.6332,15.5342,24.211901,14.7825C23.403099,13.3467,23.8029,11.7349,25.418301,10.826C25.9762,10.5109,26.4876,10.3835,26.750401,10.3645C26.750401,10.3645,26.880199,10.9617,26.880199,10.9617C26.5555,10.9855,26.184299,11.0806,25.697701,11.3542C24.5249,12.0168,24.172701,13.1766,24.8519,14.3851C25.5418,15.6069,26.677799,15.9174,27.808001,15.2808C28.2148,15.0501,28.462299,14.8372,28.564699,14.6862C28.564699,14.6862,27.7556,13.248,27.7556,13.248C27.7556,13.248,26.7813,13.7963,26.7813,13.7963C26.7813,13.7963,26.5007,13.2967,26.5007,13.2967C26.5007,13.2967,28.0877,12.401,28.0877,12.401C28.0877,12.401,29.391199,14.717,29.391199,14.717C29.391199,14.717,29.391199,14.717,29.391199,14.717ZM21.728201,20.217501C21.728201,20.217501,18.2453,15.9196,18.2453,15.9196C18.2453,15.9196,18.857901,15.4235,18.857901,15.4235C18.857901,15.4235,21.989799,16.485901,21.989799,16.485901C22.710699,16.7381,23.327999,16.975901,23.887199,17.2614C23.887199,17.2614,23.900299,17.241199,23.900299,17.241199C23.3853,16.7083,22.948799,16.1968,22.4111,15.5342C22.4111,15.5342,20.9492,13.7297,20.9492,13.7297C20.9492,13.7297,21.4702,13.3063,21.4702,13.3063C21.4702,13.3063,24.9554,17.600401,24.9554,17.600401C24.9554,17.600401,24.3929,18.057199,24.3929,18.057199C24.3929,18.057199,21.2619,16.983101,21.2619,16.983101C20.5732,16.747499,19.8892,16.4895,19.3016,16.194401C19.3016,16.194401,19.288401,16.2171,19.288401,16.2171C19.759501,16.731001,20.184099,17.2435,20.7623,17.958599C20.7623,17.958599,22.251699,19.792801,22.251699,19.792801C22.251699,19.792801,21.728201,20.217501,21.728201,20.217501C21.728201,20.217501,21.728201,20.217501,21.728201,20.217501ZM17.001101,17.1877C17.001101,17.1877,20.9599,21.054899,20.9599,21.054899C20.9599,21.054899,20.454399,21.5723,20.454399,21.5723C20.454399,21.5723,16.4942,17.7052,16.4942,17.7052C16.4942,17.7052,17.001101,17.1877,17.001101,17.1877C17.001101,17.1877,17.001101,17.1877,17.001101,17.1877ZM13.3371,21.434401C13.3371,21.434401,13.782,20.8764,13.782,20.8764C13.782,20.8764,15.8685,22.538401,15.8685,22.538401C15.8685,22.538401,15.8851,22.5194,15.8851,22.5194C15.8102,22.270599,15.7472,22.0329,15.6924,21.811399C15.6924,21.811399,15.1227,19.194401,15.1227,19.194401C15.1227,19.194401,15.6746,18.499701,15.6746,18.499701C15.6746,18.499701,16.263399,21.529499,16.263399,21.529499C16.263399,21.529499,20.0987,21.825701,20.0987,21.825701C20.0987,21.825701,19.571699,22.487101,19.571699,22.487101C19.571699,22.487101,16.3169,22.2124,16.3169,22.2124C16.3169,22.2124,16.4585,23.008301,16.4585,23.008301C16.4585,23.008301,18.1085,24.3214,18.1085,24.3214C18.1085,24.3214,17.6647,24.881701,17.6647,24.881701C17.6647,24.881701,13.3371,21.434401,13.3371,21.434401C13.3371,21.434401,13.3371,21.434401,13.3371,21.434401ZM14.968,29.374599C14.968,29.374599,10.1599,26.637501,10.1599,26.637501C10.1599,26.637501,10.5501,25.9524,10.5501,25.9524C10.5501,25.9524,13.8546,25.8048,13.8546,25.8048C14.6183,25.775101,15.2809,25.775101,15.9054,25.837C15.9054,25.837,15.9101,25.813101,15.9101,25.813101C15.2357,25.502701,14.6433,25.182699,13.901,24.7616C13.901,24.7616,11.8823,23.612499,11.8823,23.612499C11.8823,23.612499,12.2154,23.0285,12.2154,23.0285C12.2154,23.0285,17.021299,25.7644,17.021299,25.7644C17.021299,25.7644,16.665501,26.392401,16.665501,26.392401C16.665501,26.392401,13.3562,26.529301,13.3562,26.529301C12.6306,26.561399,11.899,26.569799,11.2435,26.5079C11.2435,26.5079,11.24,26.534,11.24,26.534C11.8656,26.8421,12.4473,27.1656,13.2467,27.621201C13.2467,27.621201,15.3011,28.7882,15.3011,28.7882C15.3011,28.7882,14.968,29.374599,14.968,29.374599C14.968,29.374599,14.968,29.374599,14.968,29.374599ZM12.0108,30.546301C12.0108,30.546301,10.3264,30.5142,10.3264,30.5142C9.9481401,30.496401,9.61024,30.4596,9.2832003,30.428699C9.2832003,30.428699,9.2736502,30.451,9.2736502,30.451C9.5484304,30.629601,9.8410797,30.834299,10.1194,31.0518C10.1194,31.0518,11.4351,32.1106,11.4351,32.1106C11.4351,32.1106,12.0108,30.546301,12.0108,30.546301C12.0108,30.546301,12.0108,30.546301,12.0108,30.546301ZM11.9084,32.4412C11.9084,32.4412,13.3443,33.582001,13.3443,33.582001C13.3443,33.582001,13.0885,34.2756,13.0885,34.2756C13.0885,34.2756,8.54568,30.6024,8.54568,30.6024C8.54568,30.6024,8.8418703,29.792101,8.8418703,29.792101C8.8418703,29.792101,14.6848,29.9303,14.6848,29.9303C14.6848,29.9303,14.4207,30.6474,14.4207,30.6474C14.4207,30.6474,12.5854,30.601101,12.5854,30.601101C12.5854,30.601101,11.9084,32.4412,11.9084,32.4412C11.9084,32.4412,11.9084,32.4412,11.9084,32.4412ZM11.9263,37.262402C11.981,37.1245,12.0274,36.9342,12.0786,36.682098C12.2273,35.958698,12.0988,35.236698,11.3102,35.076099C10.5786,34.923901,10.1348,35.495998,9.9778004,36.260899C9.9778004,36.260899,9.8600397,36.838902,9.8600397,36.838902C9.8600397,36.838902,11.9263,37.262402,11.9263,37.262402C11.9263,37.262402,11.9263,37.262402,11.9263,37.262402ZM9.3379002,36.734299C9.3379002,36.734299,9.4675703,36.0979,9.4675703,36.0979C9.6173697,35.365101,9.3105297,34.851299,8.7871199,34.743099C8.1614504,34.614498,7.8069801,35.0369,7.6618299,35.745899C7.5964098,36.067001,7.58215,36.256302,7.58325,36.3727C7.58325,36.3727,9.3379002,36.734299,9.3379002,36.734299C9.3379002,36.734299,9.3379002,36.734299,9.3379002,36.734299ZM6.9730101,36.9772C6.9647698,36.658199,7.01582,36.158501,7.1158199,35.6758C7.25738,34.9739,7.4703202,34.549198,7.8129201,34.2756C8.0781698,34.0364,8.4362202,33.9258,8.8632698,34.012798C9.3937998,34.120899,9.7792301,34.5695,9.8660603,35.176102C9.8660603,35.176102,9.8898497,35.178501,9.8898497,35.178501C10.1159,34.688301,10.6654,34.173401,11.4696,34.3363C11.937,34.432499,12.2523,34.688301,12.4593,35.026199C12.7305,35.467499,12.7661,36.111,12.5854,36.996201C12.4866,37.476601,12.3784,37.842999,12.2975,38.0714C12.2975,38.0714,6.9730101,36.9772,6.9730101,36.9772C6.9730101,36.9772,6.9730101,36.9772,6.9730101,36.9772ZM6.5103798,44.580502C6.5103798,44.580502,9.7922897,44.523399,9.7922897,44.523399C11.0223,44.504398,11.5374,43.947701,11.5255,43.205502C11.5123,42.396702,10.9616,41.8731,9.7471104,41.892101C9.7471104,41.892101,6.4663501,41.9445,6.4663501,41.9445C6.4663501,41.9445,6.4544601,41.221199,6.4544601,41.221199C6.4544601,41.221199,9.68645,41.168999,9.68645,41.168999C11.3839,41.145199,12.0881,42.025299,12.1072,43.219799C12.1274,44.357101,11.5017,45.218201,9.7779598,45.2467C9.7779598,45.2467,6.5222702,45.299099,6.5222702,45.299099C6.5222702,45.299099,6.5103798,44.580502,6.5103798,44.580502C6.5103798,44.580502,6.5103798,44.580502,6.5103798,44.580502ZM12.4842,48.0588C12.4842,48.0588,10.1694,48.4394,10.1694,48.4394C10.1694,48.4394,7.3168702,50.694801,7.3168702,50.694801C7.3168702,50.694801,7.1812601,49.885899,7.1812601,49.885899C7.1812601,49.885899,8.5599403,48.867699,8.5599403,48.867699C8.9393396,48.5965,9.2426701,48.372799,9.5959597,48.139702C9.5959597,48.139702,9.5936499,48.120701,9.5936499,48.120701C9.2118196,48.035,8.8240404,47.897099,8.3755703,47.7589C8.3755703,47.7589,6.73876,47.221298,6.73876,47.221298C6.73876,47.221298,6.6079202,46.4314,6.6079202,46.4314C6.6079202,46.4314,10.0433,47.7304,10.0433,47.7304C10.0433,47.7304,12.3676,47.345001,12.3676,47.345001C12.3676,47.345001,12.4842,48.0588,12.4842,48.0588C12.4842,48.0588,12.4842,48.0588,12.4842,48.0588ZM7.6618299,51.850899C7.6618299,51.850899,12.9981,50.390301,12.9981,50.390301C12.9981,50.390301,13.1872,51.0896,13.1872,51.0896C13.1872,51.0896,7.85216,52.5457,7.85216,52.5457C7.85216,52.5457,7.6618299,51.850899,7.6618299,51.850899C7.6618299,51.850899,7.6618299,51.850899,7.6618299,51.850899ZM9.58535,57.3848C9.58535,57.3848,11.7325,56.518799,11.7325,56.518799C11.7325,56.518799,10.7333,54.039799,10.7333,54.039799C10.7333,54.039799,8.58603,54.901001,8.58603,54.901001C8.58603,54.901001,8.3172703,54.230099,8.3172703,54.230099C8.3172703,54.230099,13.4478,52.165001,13.4478,52.165001C13.4478,52.165001,13.7166,52.835899,13.7166,52.835899C13.7166,52.835899,11.3114,53.8018,11.3114,53.8018C11.3114,53.8018,12.3117,56.285599,12.3117,56.285599C12.3117,56.285599,14.7169,55.319901,14.7169,55.319901C14.7169,55.319901,14.9859,55.985901,14.9859,55.985901C14.9859,55.985901,9.8565397,58.055599,9.8565397,58.055599C9.8565397,58.055599,9.58535,57.3848,9.58535,57.3848C9.58535,57.3848,9.58535,57.3848,9.58535,57.3848ZM15.1571,56.723301C15.4021,56.870899,15.7888,57.2659,16.137199,57.836899C16.9429,59.173901,16.702299,60.682201,15.1416,61.624199C13.6536,62.523602,12.0489,62.119301,11.1627,60.648701C10.8106,60.068401,10.7083,59.611599,10.694,59.397499C10.694,59.397499,11.2864,59.254799,11.2864,59.254799C11.3102,59.544899,11.4244,59.925598,11.6623,60.320499C12.3332,61.429298,13.4882,61.738499,14.7312,60.991501C15.8982,60.2826,16.2313,59.169102,15.5425,58.027199C15.3129,57.6464,15.0061,57.3134,14.7372,57.141998C14.7372,57.141998,15.1571,56.723301,15.1571,56.723301C15.1571,56.723301,15.1571,56.723301,15.1571,56.723301ZM63.952099,71.359398C63.759399,71.630798,63.335999,72.125603,62.729301,72.525101C62.047798,72.977303,61.374401,73.177002,60.6535,73.0438C60.019699,72.929802,59.380798,72.487198,58.916801,71.787697C58.0271,70.4459,58.303101,68.851898,59.811401,67.852798C60.3325,67.505402,60.820099,67.343597,61.075901,67.310303C61.075901,67.310303,61.243599,67.881302,61.243599,67.881302C60.9296,67.928802,60.5751,68.047897,60.122002,68.347603C59.028599,69.070801,58.7644,70.227097,59.512901,71.354797C60.269402,72.496597,61.396999,72.715599,62.449699,72.020798C62.8293,71.7687,63.055302,71.540398,63.145699,71.388199C63.145699,71.388199,62.256001,70.046303,62.256001,70.046303C62.256001,70.046303,61.348301,70.645798,61.348301,70.645798C61.348301,70.645798,61.037998,70.179497,61.037998,70.179497C61.037998,70.179497,62.5201,69.194603,62.5201,69.194603C62.5201,69.194603,63.952099,71.359398,63.952099,71.359398C63.952099,71.359398,63.952099,71.359398,63.952099,71.359398ZM55.367298,76.384102C55.367298,76.384102,53.147701,71.469002,53.147701,71.469002C53.147701,71.469002,53.847,71.1502,53.847,71.1502C53.847,71.1502,56.540298,72.934402,56.540298,72.934402C57.158798,73.343697,57.680901,73.724197,58.137699,74.133598C58.137699,74.133598,58.1567,74.114502,58.1567,74.114502C57.800999,73.486397,57.515701,72.8964,57.174198,72.135101C57.174198,72.135101,56.2416,70.069901,56.2416,70.069901C56.2416,70.069901,56.841099,69.798698,56.841099,69.798698C56.841099,69.798698,59.060699,74.718697,59.060699,74.718697C59.060699,74.718697,58.418598,75.009003,58.418598,75.009003C58.418598,75.009003,55.73,73.215202,55.73,73.215202C55.140202,72.825104,54.557201,72.411102,54.075401,71.987503C54.075401,71.987503,54.057499,72.001801,54.057499,72.001801C54.374001,72.610901,54.648899,73.195999,55.016399,74.014603C55.016399,74.014603,55.965599,76.117699,55.965599,76.117699C55.965599,76.117699,55.367298,76.384102,55.367298,76.384102C55.367298,76.384102,55.367298,76.384102,55.367298,76.384102ZM51.405998,77.0979C52.4767,76.8172,52.822899,75.675102,52.514801,74.490402C52.242401,73.453003,51.4146,72.511002,50.292702,72.806099C49.168598,73.0961,48.883099,74.290604,49.180599,75.418404C49.467098,76.522102,50.338001,77.378403,51.398998,77.0979C51.398998,77.0979,51.405998,77.0979,51.405998,77.0979C51.405998,77.0979,51.405998,77.0979,51.405998,77.0979ZM51.5191,77.654602C50.1334,78.020897,48.893799,77.1978,48.478699,75.622704C48.0467,73.962196,48.785702,72.610901,50.179699,72.244499C51.613098,71.868599,52.820499,72.720299,53.224899,74.2714C53.692402,76.060501,52.852699,77.307098,51.528599,77.654602C51.528599,77.654602,51.5191,77.654602,51.5191,77.654602C51.5191,77.654602,51.5191,77.654602,51.5191,77.654602ZM44.172501,73.319801C44.172501,73.319801,44.863701,73.248398,44.863701,73.248398C44.863701,73.248398,45.143101,75.836899,45.143101,75.836899C45.143101,75.836899,45.165798,75.832199,45.165798,75.832199C45.2883,75.613297,45.410801,75.4039,45.5275,75.213699C45.5275,75.213699,46.950001,73.024803,46.950001,73.024803C46.950001,73.024803,47.8102,72.934402,47.8102,72.934402C47.8102,72.934402,46.112701,75.418404,46.112701,75.418404C46.112701,75.418404,48.539398,78.277901,48.539398,78.277901C48.539398,78.277901,47.7187,78.368301,47.7187,78.368301C47.7187,78.368301,45.676201,75.9226,45.676201,75.9226C45.676201,75.9226,45.221802,76.569702,45.221802,76.569702C45.221802,76.569702,45.4417,78.615601,45.4417,78.615601C45.4417,78.615601,44.749401,78.686897,44.749401,78.686897C44.749401,78.686897,44.172501,73.319801,44.172501,73.319801C44.172501,73.319801,44.172501,73.319801,44.172501,73.319801ZM41.201199,78.530098C40.879799,78.625298,40.2411,78.739403,39.5168,78.677399C38.701801,78.606003,38.051102,78.3349,37.570499,77.783096C37.149399,77.2929,36.927101,76.550697,37.004299,75.713203C37.149399,74.109596,38.3652,73.0392,40.1684,73.205498C40.791801,73.262802,41.273701,73.438698,41.493698,73.571999C41.493698,73.571999,41.266399,74.124001,41.266399,74.124001C40.992802,73.962196,40.641998,73.833801,40.099499,73.781403C38.792301,73.667198,37.8633,74.400002,37.741699,75.746498C37.615799,77.112198,38.355598,77.992401,39.6166,78.106697C40.0709,78.1493,40.388599,78.116203,40.553799,78.0495C40.553799,78.0495,40.7015,76.4459,40.7015,76.4459C40.7015,76.4459,39.6166,76.3461,39.6166,76.3461C39.6166,76.3461,39.667801,75.789398,39.667801,75.789398C39.667801,75.789398,41.438801,75.951103,41.438801,75.951103C41.438801,75.951103,41.201199,78.530098,41.201199,78.530098C41.201199,78.530098,41.201199,78.530098,41.201199,78.530098ZM31.349199,77.073997C31.349199,77.073997,32.704201,71.849602,32.704201,71.849602C32.704201,71.849602,33.447701,72.044701,33.447701,72.044701C33.447701,72.044701,34.429001,75.118401,34.429001,75.118401C34.648998,75.8274,34.8181,76.450699,34.9179,77.059898C34.9179,77.059898,34.942799,77.055,34.942799,77.055C35.062,76.3414,35.210602,75.703697,35.4198,74.894897C35.4198,74.894897,35.9884,72.701302,35.9884,72.701302C35.9884,72.701302,36.623798,72.867897,36.623798,72.867897C36.623798,72.867897,35.268799,78.092201,35.268799,78.092201C35.268799,78.092201,34.587101,77.911499,34.587101,77.911499C34.587101,77.911499,33.616501,74.832901,33.616501,74.832901C33.403702,74.157303,33.209702,73.472099,33.1003,72.839401C33.1003,72.839401,33.075298,72.839401,33.075298,72.839401C32.943199,73.510002,32.788502,74.138397,32.563801,75.009003C32.563801,75.009003,31.983299,77.240601,31.983299,77.240601C31.983299,77.240601,31.349199,77.073997,31.349199,77.073997C31.349199,77.073997,31.349199,77.073997,31.349199,77.073997ZM27.8174,75.142197C28.8251,75.5942,29.811199,74.923302,30.313101,73.805099C30.7533,72.825104,30.699699,71.573601,29.639999,71.097702C28.582399,70.622002,27.6106,71.373802,27.133699,72.439598C26.6674,73.476898,26.808901,74.690102,27.8092,75.142197C27.8092,75.142197,27.8174,75.142197,27.8174,75.142197C27.8174,75.142197,27.8174,75.142197,27.8174,75.142197ZM27.5546,75.651398C26.247299,75.066101,25.794201,73.6483,26.4615,72.154099C27.163401,70.593498,28.587,70.003403,29.9016,70.593498C31.2542,71.197701,31.660999,72.620399,31.005501,74.0811C30.2491,75.770302,28.810699,76.212799,27.561701,75.656197C27.561701,75.656197,27.5546,75.651398,27.5546,75.651398C27.5546,75.651398,27.5546,75.651398,27.5546,75.651398ZM24.302299,67.476799C24.302299,67.476799,23.049801,69.361099,23.049801,69.361099C23.049801,69.361099,25.2232,70.807602,25.2232,70.807602C25.2232,70.807602,26.4734,68.928101,26.4734,68.928101C26.4734,68.928101,27.061001,69.318199,27.061001,69.318199C27.061001,69.318199,24.0681,73.809898,24.0681,73.809898C24.0681,73.809898,23.481501,73.4198,23.481501,73.4198C23.481501,73.4198,24.8853,71.311897,24.8853,71.311897C24.8853,71.311897,22.7132,69.865601,22.7132,69.865601C22.7132,69.865601,21.3095,71.968399,21.3095,71.968399C21.3095,71.968399,20.723101,71.578499,20.723101,71.578499C20.723101,71.578499,23.7159,67.091499,23.7159,67.091499C23.7159,67.091499,24.302299,67.476799,24.302299,67.476799C24.302299,67.476799,24.302299,67.476799,24.302299,67.476799ZM42.500099,4.2193499C21.3916,4.2193499,4.21805,21.392799,4.21805,42.501202C4.21805,63.608501,21.3916,80.780602,42.500099,80.780602C63.608398,80.780602,80.7808,63.608501,80.7808,42.501202C80.7808,21.392799,63.608398,4.2193499,42.500099,4.2193499C42.500099,4.2193499,42.500099,4.2193499,42.500099,4.2193499ZM42.500099,85.000999C19.0648,85.000999,0,65.935204,0,42.501202C0,19.067101,19.0648,0,42.500099,0C65.933899,0,85,19.067101,85,42.501202C85,65.935204,65.933899,85.000999,42.500099,85.000999C42.500099,85.000999,42.500099,85.000999,42.500099,85.000999Z" fill-rule="evenodd" fill="#D0262D" fill-opacity="1"/></svg>