<svg xmlns="http://www.w3.org/2000/svg" xmlns:xlink="http://www.w3.org/1999/xlink" fill="none" version="1.1" width="84.5" height="84.90010070800781" viewBox="0 0 84.5 84.90010070800781"><path d="M58.049999,36.200001C58.049999,36.200001,84.400002,36.200001,84.400002,36.200001C84.650002,40.849998,84.400002,46.150002,83.699997,50C80.099998,70.25,62.650002,84.900002,42.150002,84.900002C18.950001,84.949997,0,65.900002,0,42.549999C0,31.1,4.3499999,20.4,12.3,12.4C20.25,4.4000001,30.85,0,42.25,0C42.25,0,69.300003,0,69.300003,0C69.300003,0.5,69.25,1,69.199997,1.45C69.099998,2.3,68.949997,3,68.949997,3C68,7.0500002,64.400002,13.9,54.900002,13.9C54.900002,13.9,42.25,13.9,42.25,13.9C26.549999,13.9,13.75,26.75,13.75,42.549999C13.75,58.349998,26.549999,71.199997,42.25,71.199997C56.900002,71.199997,69.050003,60.200001,70.599998,45.549999C70.599998,45.549999,70.75,44.299999,70.75,44.299999C70.75,44.299999,53.400002,44.299999,53.400002,44.299999C53.400002,44.299999,53.400002,39.900002,53.400002,39.900002C53.400002,38,54.049999,36.25,58.049999,36.200001C58.049999,36.200001,58.049999,36.200001,58.049999,36.200001C58.049999,36.200001,58.049999,36.200001,58.049999,36.200001ZM41.950001,17.450001C41.950001,17.450001,84.5,17.450001,84.5,17.450001C84.5,17.450001,84.300003,18.799999,84.300003,18.799999C82.949997,26.9,77.849998,30.950001,68.650002,31.200001C68.650002,31.200001,34.450001,31.200001,34.450001,31.200001C32.400002,31.200001,30.75,32.849998,30.75,34.900002C30.75,34.900002,30.75,49.950001,30.75,49.950001C30.75,52,32.400002,53.650002,34.450001,53.650002C34.450001,53.650002,49.5,53.650002,49.5,53.650002C51.549999,53.650002,53.200001,52,53.200001,49.950001C53.200001,49.950001,53.200001,47.799999,53.200001,47.799999C53.200001,47.799999,66.400002,47.799999,66.400002,47.799999C66.400002,47.799999,66,49.25,66,49.25C62.950001,59.950001,53.099998,67.400002,42,67.400002C28.25,67.400002,17.049999,56.200001,17.049999,42.400002C17,28.65,28.200001,17.450001,41.950001,17.450001C41.950001,17.450001,41.950001,17.450001,41.950001,17.450001Z" fill="#DE0112" fill-opacity="1"/></svg>