<svg xmlns="http://www.w3.org/2000/svg" xmlns:xlink="http://www.w3.org/1999/xlink" fill="none" version="1.1" width="103" height="52.5" viewBox="0 0 103 52.5"><path d="M39.950001,12.6999998C43,13.9000001,46.049999,15.1999998,49,16.6499996C39.5,20.5,30.25,25.15,21.549999,30.5C18.6,28.950001,15.55,27.4,12.5,26.049999C21.299999,20.9,30.450001,16.4000001,39.950001,12.6999998C39.950001,12.6999998,39.950001,12.6999998,39.950001,12.6999998C39.950001,12.6999998,39.950001,12.6999998,39.950001,12.6999998ZM28.4,8.5C31.049999,9.30000001,33.549999,10.2,36.099998,11.1500001C26.5,14.5999999,17.299999,19,8.5500002,24.3C5.75,23.05,2.9000001,21.95,0,20.85C9.0500002,15.8499999,18.549999,11.7,28.4,8.5C28.4,8.5,28.4,8.5,28.4,8.5C28.4,8.5,28.4,8.5,28.4,8.5Z" fill="#0060AA" fill-opacity="1"/><path d="M60.549999,12.55C57.849998,13.5,55.200001,14.4,52.549999,15.45C44.549999,11.6,36.2,8.3999996,27.6999998,5.8000002C30.5,4.9000001,33.4,3.95,36.4,3.0999999C44.65,5.6500001,52.700001,8.8000002,60.549999,12.55C60.549999,12.55,60.549999,12.55,60.549999,12.55C60.549999,12.55,60.549999,12.55,60.549999,12.55ZM73.049999,8.6499996C70.299999,9.3500004,67.5,10.2,64.799999,11.05C56.950001,7.3000002,48.799999,4.25,40.450001,1.8C43.049999,1.1,45.700001,0.5,48.4,2.220446e-16C56.849998,2.3,65.099998,5.1500001,73.049999,8.6499996C73.049999,8.6499996,73.049999,8.6499996,73.049999,8.6499996ZM50.299999,52.5C46.299999,49.5,42.25,46.799999,38,44.150002C54.900002,32.099998,73.549999,22.450001,93.5,15.75C96.699997,17.450001,99.849998,19.25,103,21.200001C84,29.200001,66.25,39.799999,50.299999,52.5C50.299999,52.5,50.299999,52.5,50.299999,52.5C50.299999,52.5,50.299999,52.5,50.299999,52.5ZM79.700001,9.0500002C83.349998,10.5,86.849998,12.2,90.300003,13.95C69.950001,20.1,50.85,29.5,33.65,41.450001C29.8499999,39.25,25.95,37.150002,22,35.200001C39.549999,23.4,59,14.5,79.700001,9.0500002C79.700001,9.0500002,79.700001,9.0500002,79.700001,9.0500002C79.700001,9.0500002,79.700001,9.0500002,79.700001,9.0500002Z" fill="#E41215" fill-opacity="1"/></svg>