<svg xmlns="http://www.w3.org/2000/svg" xmlns:xlink="http://www.w3.org/1999/xlink" fill="none" version="1.1" width="84.99996948242188" height="79.1714859008789" viewBox="0 0 84.99996948242188 79.1714859008789"><path d="M42.482601,55.3801C37.0009,70.444099,21.767799,79.406403,21.2605,79.166801C8.8880301,73.0933,-0.90569097,55.323704,0.066635102,42.274803C9.0571299,36.736801,20.6264,34.2285,31.167,35.778503C31.167,35.778503,31.1952,35.877201,31.1952,35.877201C20.8941,23.603302,20.7391,5.918262,21.204201,5.608242C32.660702,-2.0858181,52.952702,-1.677158,63.747002,5.6927919C64.056999,16.247501,60.449501,27.520802,53.826401,35.877201C53.826401,35.877201,53.741901,35.849003,53.741901,35.849003C69.524498,33.058804,84.898598,41.767502,84.940804,42.331203C85.885002,56.084702,75.386703,73.459702,63.5919,79.124603C54.319599,74.122002,46.3578,65.357002,42.426201,55.4505C42.426201,55.4505,42.4967,55.3801,42.4967,55.3801C42.4967,55.3801,42.482601,55.3801,42.482601,55.3801C42.482601,55.3801,42.482601,55.3801,42.482601,55.3801ZM49.556599,15.402002C49.119801,13.668702,36.183601,12.795002,35.225399,15.528802C33.985298,19.094002,36.944599,32.297901,42.468498,38.526402C47.386501,32.297901,50.571201,19.432201,49.556599,15.402002C49.556599,15.402002,49.556599,15.402002,49.556599,15.402002ZM15.5675,49.715202C14.2992,50.955303,20.006399,62.595001,22.8388,62.059502C26.559,61.3549,36.507702,52.181301,39.142899,44.289902C31.2938,43.148502,18.554899,46.812302,15.5675,49.715202C15.5675,49.715202,15.5675,49.715202,15.5675,49.715202ZM62.281399,61.989101C64.000603,62.468201,71.229599,51.702103,69.3414,49.517902C66.875298,46.643204,53.953201,42.627102,45.794201,44.289902C48.7393,51.659901,58.2794,60.847603,62.281399,61.989101C62.281399,61.989101,62.281399,61.989101,62.281399,61.989101Z" fill-rule="evenodd" fill="#00A650" fill-opacity="1"/></svg>