<svg xmlns="http://www.w3.org/2000/svg" xmlns:xlink="http://www.w3.org/1999/xlink" fill="none" version="1.1" width="85" height="85" viewBox="0 0 85 85"><path d="M71.699997,63.299999C52.599998,89.650002,20.25,70.75,27.6,58.5C29.9,54.650002,34.900002,52.75,39.75,56.299999C51.549999,64.900002,68.25,56.799999,72.900002,42.549999C74.650002,37.650002,75.550003,28.049999,69.25,19.4C69.25,19.4,69.550003,19.1,69.550003,19.1C74.5,24.75,78.349998,32.599998,78.349998,42.549999C78.349998,49.5,76.300003,56.900002,71.699997,63.299999C71.699997,63.299999,71.699997,63.299999,71.699997,63.299999C71.699997,63.299999,71.699997,63.299999,71.699997,63.299999ZM53.849998,42.5C53.849998,42.5,42.700001,53.650002,42.700001,53.650002C42.700001,53.650002,31.549999,42.5,31.549999,42.5C31.549999,42.5,42.700001,31.35,42.700001,31.35C42.700001,31.35,53.849998,42.5,53.849998,42.5C53.849998,42.5,53.849998,42.5,53.849998,42.5ZM6.6500001,42.5C6.6500001,35.5,8.6999998,28.1,13.3,21.700001C32.400002,-4.6500001,64.75,14.25,57.400002,26.5C55.099998,30.35,50.099998,32.25,45.25,28.700001C33.450001,20.1,16.75,28.200001,12.1,42.450001C10.35,47.349998,9.4499998,57,15.85,65.699997C15.85,65.699997,15.55,65.949997,15.55,65.949997C10.55,60.349998,6.6500001,52.5,6.6500001,42.5C6.6500001,42.5,6.6500001,42.5,6.6500001,42.5ZM85,42.5C85,18.299999,65.150002,0,42.5,0C18.700001,0,0,19.200001,0,42.5C0,66.699997,19.85,85,42.5,85C66.300003,85,85,65.800003,85,42.5C85,42.5,85,42.5,85,42.5Z" fill="#DE0112" fill-opacity="1"/></svg>