<svg xmlns="http://www.w3.org/2000/svg" xmlns:xlink="http://www.w3.org/1999/xlink" fill="none" version="1.1" width="85" height="79.78559875488281" viewBox="0 0 85 79.78559875488281"><path d="M49.710999,19.935801C49.710999,19.935801,51.922199,7.9417901,51.922199,7.9417901C51.922199,7.9417901,83.467796,7.9417901,83.467796,7.9417901C83.467796,7.9417901,85,0,85,0C85,0,49.190102,0,49.190102,0C49.190102,0,46.976501,11.9351,46.976501,11.9351C46.976501,11.9351,27.559401,11.9351,27.559401,11.9351C27.559401,11.9351,23.092199,35.8689,23.092199,35.8689C23.092199,35.8689,3.75284,35.8689,3.75284,35.8689C3.75284,35.8689,0,55.866001,0,55.866001C0,55.866001,19.2875,55.866001,19.2875,55.866001C19.2875,55.866001,14.8275,79.785599,14.8275,79.785599C14.8275,79.785599,55.429901,79.785599,55.429901,79.785599C55.429901,79.785599,59.946499,55.8895,59.946499,55.8895C59.946499,55.8895,74.4534,55.8895,74.4534,55.8895C74.4534,55.8895,75.940804,47.9053,75.940804,47.9053C75.940804,47.9053,57.134201,47.879398,57.134201,47.879398C57.134201,47.879398,52.636501,71.829697,52.636501,71.829697C52.636501,71.829697,20.5581,71.829697,20.5581,71.829697C20.5581,71.829697,21.281799,67.883598,21.281799,67.883598C21.281799,67.883598,49.1241,67.883598,49.1241,67.883598C49.1241,67.883598,53.633598,43.876701,53.633598,43.876701C53.633598,43.876701,76.683403,43.8932,76.683403,43.8932C76.683403,43.8932,78.2369,35.942001,78.2369,35.942001C78.2369,35.942001,50.962799,35.9184,50.962799,35.9184C50.962799,35.9184,46.443802,59.856899,46.443802,59.856899C46.443802,59.856899,22.785801,59.856899,22.785801,59.856899C22.785801,59.856899,23.5236,55.849499,23.5236,55.849499C23.5236,55.849499,42.943199,55.910801,42.943199,55.910801C42.943199,55.910801,46.698399,35.9184,46.698399,35.9184C46.698399,35.9184,27.318899,35.8689,27.318899,35.8689C27.318899,35.8689,28.063801,31.8591,28.063801,31.8591C28.063801,31.8591,55.905998,31.8591,55.905998,31.8591C55.905998,31.8591,58.199699,19.912201,58.199699,19.912201C58.199699,19.912201,81.199997,19.891001,81.199997,19.891001C81.199997,19.891001,82.708702,11.8856,82.708702,11.8856C82.708702,11.8856,55.474701,11.9351,55.474701,11.9351C55.474701,11.9351,53.185699,23.900801,53.185699,23.900801C53.185699,23.900801,29.570101,23.900801,29.570101,23.900801C29.570101,23.900801,30.3127,19.935801,30.3127,19.935801C30.3127,19.935801,49.710999,19.935801,49.710999,19.935801C49.710999,19.935801,49.710999,19.935801,49.710999,19.935801ZM20.8221,47.879398C20.8221,47.879398,5.7447701,47.879398,5.7447701,47.879398C5.7447701,47.879398,6.48733,43.876701,6.48733,43.876701C6.48733,43.876701,21.5623,43.876701,21.5623,43.876701C21.5623,43.876701,20.8221,47.879398,20.8221,47.879398C20.8221,47.879398,20.8221,47.879398,20.8221,47.879398ZM40.939499,43.876701C40.939499,43.876701,40.196899,47.8181,40.196899,47.8181C40.196899,47.8181,25.0795,47.8181,25.0795,47.8181C25.0795,47.8181,25.817301,43.876701,25.817301,43.876701C25.817301,43.876701,40.939499,43.876701,40.939499,43.876701C40.939499,43.876701,40.939499,43.876701,40.939499,43.876701Z" fill-rule="evenodd" fill="#005C42" fill-opacity="1"/></svg>