<svg xmlns="http://www.w3.org/2000/svg" xmlns:xlink="http://www.w3.org/1999/xlink" fill="none" version="1.1" width="85" height="76.075927734375" viewBox="0 0 85 76.075927734375"><defs><radialGradient cx="0" cy="0" r="1" gradientUnits="userSpaceOnUse" id="master_svg0_0_4324" gradientTransform="translate(0.674460990127983 35.63578861587621) rotate(90) scale(55.74412586328481 116.30799540899717)"><stop offset="0%" stop-color="#D2E5F6" stop-opacity="1"/><stop offset="6.778459995985031%" stop-color="#CAE1F4" stop-opacity="1"/><stop offset="17.22390055656433%" stop-color="#B4D5F0" stop-opacity="1"/><stop offset="25%" stop-color="#A0CAEC" stop-opacity="1"/><stop offset="34.42629873752594%" stop-color="#8EBBE3" stop-opacity="1"/><stop offset="53.31929922103882%" stop-color="#5E94CB" stop-opacity="1"/><stop offset="69.9999988079071%" stop-color="#2F6EB3" stop-opacity="1"/><stop offset="81.32789731025696%" stop-color="#205CA2" stop-opacity="1"/><stop offset="100%" stop-color="#00357F" stop-opacity="1"/></radialGradient><radialGradient cx="0" cy="0" r="1" gradientUnits="userSpaceOnUse" id="master_svg1_0_4527" gradientTransform="translate(45.786196441390075 9.635738113896998) rotate(0) scale(39.35695238929384 87.11768664226956)"><stop offset="0%" stop-color="#D2E5F6" stop-opacity="1"/><stop offset="6.778459995985031%" stop-color="#CAE1F4" stop-opacity="1"/><stop offset="17.22390055656433%" stop-color="#B4D5F0" stop-opacity="1"/><stop offset="25%" stop-color="#A0CAEC" stop-opacity="1"/><stop offset="34.42629873752594%" stop-color="#8EBBE3" stop-opacity="1"/><stop offset="53.31929922103882%" stop-color="#5E94CB" stop-opacity="1"/><stop offset="69.9999988079071%" stop-color="#2F6EB3" stop-opacity="1"/><stop offset="81.32789731025696%" stop-color="#205CA2" stop-opacity="1"/><stop offset="100%" stop-color="#00357F" stop-opacity="1"/></radialGradient><radialGradient cx="0" cy="0" r="1" gradientUnits="userSpaceOnUse" id="master_svg2_0_4330" gradientTransform="translate(84.32589856261075 40.439307961855775) rotate(90) scale(55.741669857448414 116.2976937476762)"><stop offset="0%" stop-color="#D2E5F6" stop-opacity="1"/><stop offset="6.778459995985031%" stop-color="#CAE1F4" stop-opacity="1"/><stop offset="17.22390055656433%" stop-color="#B4D5F0" stop-opacity="1"/><stop offset="25%" stop-color="#A0CAEC" stop-opacity="1"/><stop offset="34.42629873752594%" stop-color="#8EBBE3" stop-opacity="1"/><stop offset="53.31929922103882%" stop-color="#5E94CB" stop-opacity="1"/><stop offset="69.9999988079071%" stop-color="#2F6EB3" stop-opacity="1"/><stop offset="81.32789731025696%" stop-color="#205CA2" stop-opacity="1"/><stop offset="100%" stop-color="#00357F" stop-opacity="1"/></radialGradient><radialGradient cx="0" cy="0" r="1" gradientUnits="userSpaceOnUse" id="master_svg3_0_4531" gradientTransform="translate(39.21370536566616 66.4411665316652) rotate(180) scale(39.36435949453704 87.13405913480253)"><stop offset="0%" stop-color="#D2E5F6" stop-opacity="1"/><stop offset="6.778459995985031%" stop-color="#CAE1F4" stop-opacity="1"/><stop offset="17.22390055656433%" stop-color="#B4D5F0" stop-opacity="1"/><stop offset="25%" stop-color="#A0CAEC" stop-opacity="1"/><stop offset="34.42629873752594%" stop-color="#8EBBE3" stop-opacity="1"/><stop offset="53.31929922103882%" stop-color="#5E94CB" stop-opacity="1"/><stop offset="69.9999988079071%" stop-color="#2F6EB3" stop-opacity="1"/><stop offset="81.32789731025696%" stop-color="#205CA2" stop-opacity="1"/><stop offset="100%" stop-color="#00357F" stop-opacity="1"/></radialGradient></defs><path d="M14.94609969042335,17.21170997619629C13.275700690423351,20.52156997619629,14.977099690423351,27.354009976196288,17.077399690423352,30.639509976196287C17.077399690423352,30.639509976196287,45.984401690423354,76.0759109761963,45.984401690423354,76.0759109761963C45.984401690423354,76.0759109761963,24.866799690423353,76.0759109761963,24.866799690423353,76.0759109761963C21.534799690423352,76.0759109761963,18.27149969042335,74.17060997619629,16.84250069042335,71.96840897619629C16.84250069042335,71.96840897619629,1.0818899904233512,47.168809976196286,1.0818899904233512,47.168809976196286C-0.39801899957664877,44.853709976196285,-0.32490900957664876,41.18490997619629,1.0885399904233513,38.95400997619629C1.0885399904233513,38.95400997619629,14.94609969042335,17.21170997619629,14.94609969042335,17.21170997619629C14.94609969042335,17.21170997619629,14.94609969042335,17.21170997619629,14.94609969042335,17.21170997619629Z" fill="url(#master_svg0_0_4324)" fill-opacity="1"/><path d="M27.144570344543457,39.594304712890626C26.37807034454346,40.797305712890626,25.673570344543457,43.66410471289063,26.843270344543456,45.985805712890624C26.843270344543456,45.985805712890624,17.077650544543456,30.639505712890625,17.077650544543456,30.639505712890625C14.977420504543456,27.354005712890626,13.275965514543458,20.521605712890626,14.946404514543456,17.211735712890626C14.946404514543456,17.211735712890626,16.683310544543456,14.486745812890625,16.683310544543456,14.486745812890625C18.249620444543456,11.998805712890626,21.167350244543456,10.377105712890625,24.844970344543455,10.377105712890625C24.844970344543455,10.377105712890625,45.61907134454346,10.377105712890625,45.61907134454346,10.377105712890625C45.61907134454346,10.377105712890625,27.144570344543457,39.594304712890626,27.144570344543457,39.594304712890626C27.144570344543457,39.594304712890626,27.144570344543457,39.594304712890626,27.144570344543457,39.594304712890626Z" fill="url(#master_svg1_0_4527)" fill-opacity="1"/><path d="M70.05332227783202,58.864201000000456C71.71712127783204,55.549900000000456,70.02232127783203,48.71970000000046,67.92202227783203,45.43420000000045C67.92202227783203,45.43420000000045,39.01502227783203,4.547473508864641e-13,39.01502227783203,4.547473508864641e-13C39.01502227783203,4.547473508864641e-13,60.13482327783203,4.547473508864641e-13,60.13482327783203,4.547473508864641e-13C63.464622277832035,4.547473508864641e-13,66.73012127783203,1.9030600000004547,68.15462327783203,4.105209800000455C68.15462327783203,4.105209800000455,83.91972327783203,28.904800000000456,83.91972327783203,28.904800000000456C85.39962427783203,31.217699000000454,85.32432127783204,34.88650100000046,83.90642127783204,37.119701000000454C83.90642127783204,37.119701000000454,70.05332227783202,58.864201000000456,70.05332227783202,58.864201000000456C70.05332227783202,58.864201000000456,70.05332227783202,58.864201000000456,70.05332227783202,58.864201000000456Z" fill="url(#master_svg2_0_4330)" fill-opacity="1"/><path d="M57.85176046142578,36.47707705678711C58.62495946142578,35.27630705678711,59.320560461425785,32.41174695678711,58.15526046142578,30.08553695678711C58.15526046142578,30.08553695678711,67.92096146142578,45.43413695678711,67.92096146142578,45.43413695678711C70.02116046142578,48.71953795678711,71.71596146142579,55.54973595678711,70.05216046142579,58.86403695678711C70.05216046142579,58.86403695678711,68.31746146142578,61.58463695678711,68.31746146142578,61.58463695678711C66.75115946142579,64.07703795678711,63.831260461425785,65.70093495678711,60.15356046142578,65.70093495678711C60.15356046142578,65.70093495678711,39.38166046142578,65.70093495678711,39.38166046142578,65.70093495678711C39.38166046142578,65.70093495678711,57.85176046142578,36.47707705678711,57.85176046142578,36.47707705678711C57.85176046142578,36.47707705678711,57.85176046142578,36.47707705678711,57.85176046142578,36.47707705678711Z" fill="url(#master_svg3_0_4531)" fill-opacity="1"/></svg>