<svg xmlns="http://www.w3.org/2000/svg" xmlns:xlink="http://www.w3.org/1999/xlink" fill="none" version="1.1" width="81.05000305175781" height="68" viewBox="0 0 81.05000305175781 68"><path d="M78.900002,0C78.900002,0,43.450001,0,43.450001,0C42.299999,0,41.349998,0.94999999,41.349998,2.0999999C41.349998,2.0999999,41.349998,28.75,41.349998,28.75C41.349998,28.75,39.599998,28.75,39.599998,28.75C39.599998,28.75,39.599998,2.0999999,39.599998,2.0999999C39.599998,0.94999999,38.650002,0,37.5,0C37.5,0,2.0999999,0,2.0999999,0C0.94999999,0,0,0.94999999,0,2.0999999C0,2.0999999,0,65.900002,0,65.900002C0,67.050003,0.94999999,68,2.0999999,68C2.0999999,68,37.549999,68,37.549999,68C38.700001,68,39.650002,67.050003,39.650002,65.900002C39.650002,65.900002,39.650002,61.25,39.650002,61.25C39.650002,61.25,41.400002,61.200001,41.400002,61.200001C41.400002,61.200001,41.400002,65.900002,41.400002,65.900002C41.400002,67.050003,42.349998,68,43.5,68C43.5,68,78.949997,68,78.949997,68C80.099998,68,81.050003,67.050003,81.050003,65.900002C81.050003,65.900002,81.050003,2.0999999,81.050003,2.0999999C81,0.94999999,80.050003,0,78.900002,0C78.900002,0,78.900002,0,78.900002,0C78.900002,0,78.900002,0,78.900002,0ZM36,29.049999C36,29.049999,33.299999,29.049999,33.299999,29.049999C33.299999,29.049999,30.75,8.5,30.75,8.5C30.75,8.5,13.05,8.1499996,13.05,8.1499996C13.05,8.1499996,19.5,50.450001,19.5,50.450001C19.5,50.450001,30.299999,50.450001,30.299999,50.450001C30.299999,50.450001,31.799999,61.599998,31.799999,61.599998C31.799999,61.599998,36,61.5,36,61.5C36,61.5,36,63.700001,36,63.700001C36,64.400002,35.400002,65,34.700001,65C34.700001,65,4.3000002,65,4.3000002,65C3.5999999,65,3,64.400002,3,63.700001C3,63.700001,3,4.8000002,3,4.8000002C3,4.0999999,3.5999999,3.5,4.3000002,3.5C4.3000002,3.5,34.75,3.5,34.75,3.5C35.450001,3.5,36.049999,4.0999999,36.049999,4.8000002C36.049999,4.8000002,36,29.049999,36,29.049999C36,29.049999,36,29.049999,36,29.049999ZM78,64.199997C78,64.900002,77.400002,65.5,76.699997,65.5C76.699997,65.5,46.25,65.5,46.25,65.5C45.549999,65.5,44.950001,64.900002,44.950001,64.199997C44.950001,64.199997,44.950001,61.849998,44.950001,61.849998C44.950001,61.849998,49.599998,61.75,49.599998,61.75C49.599998,61.75,51.099998,51.150002,51.099998,51.150002C51.099998,51.150002,61.549999,51.150002,61.549999,51.150002C61.549999,51.150002,67.25,8.8500004,67.25,8.8500004C67.25,8.8500004,50.599998,9.1999998,50.599998,9.1999998C50.599998,9.1999998,47.549999,29.6,47.549999,29.6C47.549999,29.6,45,29.6,45,29.6C45,29.6,45,5.3000002,45,5.3000002C45,4.5999999,45.599998,4,46.299999,4C46.299999,4,76.75,4,76.75,4C77.449997,4,78.050003,4.5999999,78.050003,5.3000002C78.050003,5.3000002,78.050003,64.199997,78.050003,64.199997C78.050003,64.199997,78,64.199997,78,64.199997C78,64.199997,78,64.199997,78,64.199997Z" fill="#E50113" fill-opacity="1"/></svg>