<svg xmlns="http://www.w3.org/2000/svg" xmlns:xlink="http://www.w3.org/1999/xlink" fill="none" version="1.1" width="93.015625" height="65" viewBox="0 0 93.015625 65"><path d="M84.015625,51.00001525878906C84.015625,51.00001525878906,72.215622,51.00001525878906,72.215622,51.00001525878906C70.715622,50.95001625878906,69.415627,48.65001725878906,69.415627,48.65001725878906C69.415627,48.65001725878906,55.915627,15.200015258789062,55.915627,15.200015258789062C55.915627,15.200015258789062,47.315624,33.00001525878906,47.315624,33.00001525878906C42.115623,37.85001325878906,32.015625,37.90001725878906,32.015625,37.90001725878906C32.015625,37.90001725878906,50.265625,4.5000152587890625,50.265625,4.5000152587890625C50.265625,4.5000152587890625,63.015625,4.5000152587890625,63.015625,4.5000152587890625C63.015625,4.5000152587890625,84.015625,51.00001525878906,84.015625,51.00001525878906C84.015625,51.00001525878906,84.015625,51.00001525878906,84.015625,51.00001525878906ZM0.015625,65.00001525878906C0.015625,65.00001525878906,0.015625,57.00001525878906,0.015625,57.00001525878906C0.015625,57.00001525878906,86.515625,57.00001525878906,86.515625,57.00001525878906C86.515625,57.00001525878906,86.515625,65.00001525878906,86.515625,65.00001525878906C86.515625,65.00001525878906,0.015625,65.00001525878906,0.015625,65.00001525878906C0.015625,65.00001525878906,0.015625,65.00001525878906,0.015625,65.00001525878906Z" fill="#004327" fill-opacity="1"/><path d="M70.015625,11.4C70.015625,11.4,71.715625,11.25,73.215625,10.5C73.215625,10.5,92.865625,0,92.865625,0C92.865625,0,93.015625,8.8500004,93.015625,8.8500004C93.015625,8.8500004,77.0656252,17.450001,77.0656252,17.450001C77.0656252,17.450001,74.2156248,19.15,72.015625,16.65C72.015625,16.65,71.215625,15.15,70.665627,13.75C70.215627,12.55,70.015625,11.4,70.015625,11.4Z" fill="#BE1B21" fill-opacity="1"/><path d="M93.015297,12.800083179345703C93.015297,12.800083179345703,93.015297,23.350122079345702,93.015297,23.350122079345702C93.015297,23.350122079345702,78.965302,32.0501230793457,62.715302,40.6501240793457C50.215302,47.2501220793457,42.965302,49.8500210793457,27.7153,52.2000240793457C7.6153002,54.5000230793457,0.7153011,42.3500210793457,0.065300807,34.1501240793457C0.065300807,34.1501240793457,-2.2347,19.9001240793457,20.4653,8.000083179345703C20.4653,8.000083179345703,33.265301,1.9000830793457033,38.715302,5.8000831793457035C38.715302,5.8000831793457035,41.265301,13.850083379345703,41.265301,13.850083379345703C41.265301,13.850083379345703,30.6653,11.950083279345703,17.9153,22.050123079345703C17.9153,22.050123079345703,6.3653002,30.750124079345703,7.1153002,37.2501220793457C7.8153,43.7000240793457,17.015301,44.400024079345705,25.265301,43.4500240793457C25.265301,43.4500240793457,39.765301,42.3001210793457,61.465302,30.300123079345703C61.465302,30.300123079345703,93.015297,12.800083179345703,93.015297,12.800083179345703C93.015297,12.800083179345703,93.015297,12.800083179345703,93.015297,12.800083179345703C93.015297,12.800083179345703,93.015297,12.800083179345703,93.015297,12.800083179345703Z" fill="#0E7B74" fill-opacity="1"/></svg>