<svg xmlns="http://www.w3.org/2000/svg" xmlns:xlink="http://www.w3.org/1999/xlink" fill="none" version="1.1" width="84.8499984741211" height="84.94999694824219" viewBox="0 0 84.8499984741211 84.94999694824219"><path d="M44.150002,0C57.799999,0.55000001,70.650002,7.75,78.199997,19.549999C82.050003,25.549999,84.449997,32.599998,84.849998,40.150002C84.849998,40.150002,84.849998,43.299999,84.849998,43.299999C84.699997,51.450001,82.199997,59.049999,78.099998,65.5C73.400002,72.849998,66.400002,78.800003,57.599998,82.150002C53.150002,83.849998,48.599998,84.75,44.049999,84.949997C44.049999,84.949997,44.049999,84.900002,44.049999,84.900002C43.5,84.900002,42.900002,84.949997,42.349998,84.949997C41.799999,84.949997,41.200001,84.949997,40.650002,84.900002C40.650002,84.900002,40.650002,84.949997,40.650002,84.949997C26.4,84.349998,13,76.550003,5.5999999,63.799999C2.45,58.299999,0.450001,51.900002,0.0500011,45.099998C0.0500011,45.099998,0,44.5,0,44.5C0,44.5,0,42.5,0,42.5C0,42.5,0,42.549999,0,42.549999C0,32.799999,3.25,23.85,8.75,16.700001C8.75,16.700001,9.0500002,16.299999,9.0500002,16.299999C13.1,11.15,18.4,6.8499999,24.700001,3.95C25.950001,3.3499999,27.25,2.8499999,28.6,2.4000001C32.650002,1,36.700001,0.25,40.799999,0.1C40.799999,0.1,40.799999,0.15000001,40.799999,0.15000001C41.349998,0.15000001,41.950001,0.1,42.5,0.1C43,3.7998001e-7,43.599998,0,44.150002,0C44.150002,0,44.150002,0,44.150002,0C44.150002,0,44.150002,0,44.150002,0ZM42.450001,10.75C37.200001,10.75,32.25,12,27.9,14.25C20.4,18.9,17,28.35,20.299999,36.900002C22.950001,43.799999,29.25,48.25,36.150002,48.849998C36.150002,48.849998,36.150002,59.5,36.150002,59.5C25.25,58.900002,15.2,52.200001,10.75,41.549999C10.75,41.549999,10.75,42.5,10.75,42.5C10.75,60.049999,24.950001,74.25,42.5,74.25C47.75,74.25,52.700001,73,57.049999,70.699997C64.550003,66.050003,67.949997,56.599998,64.699997,48.099998C62.049999,41.200001,55.75,36.75,48.849998,36.150002C48.849998,36.150002,48.849998,25.5,48.849998,25.5C59.75,26.1,69.800003,32.799999,74.25,43.400002C74.25,43.400002,74.25,42.450001,74.25,42.450001C74.199997,24.950001,60,10.75,42.450001,10.75C42.450001,10.75,42.450001,10.75,42.450001,10.75C42.450001,10.75,42.450001,10.75,42.450001,10.75ZM36.099998,36.150002C36.099998,36.150002,48.75,36.150002,48.75,36.150002C48.75,36.150002,48.75,48.849998,48.75,48.849998C48.75,48.849998,36.099998,48.849998,36.099998,48.849998C36.099998,48.849998,36.099998,36.150002,36.099998,36.150002C36.099998,36.150002,36.099998,36.150002,36.099998,36.150002C36.099998,36.150002,36.099998,36.150002,36.099998,36.150002Z" fill="#DE0112" fill-opacity="1"/></svg>