<svg xmlns="http://www.w3.org/2000/svg" xmlns:xlink="http://www.w3.org/1999/xlink" fill="none" version="1.1" width="84.9997329711914" height="85" viewBox="0 0 84.9997329711914 85"><path d="M42.6525,0C57.204498,0,70.250999,7.5444999,77.778,19.112499C77.778,19.112499,68.244003,19.112499,68.244003,19.112499C68.244003,19.112499,83.7995,32.692501,83.7995,32.692501C84.803001,35.709999,85.304497,39.230999,84.803001,42.248501C84.803001,65.887497,65.735001,85,42.150501,85C27.598499,85,14.552,77.455498,7.0254998,66.390503C7.0254998,66.390503,18.5665,66.390503,18.5665,66.390503C18.5665,66.390503,1.0035,52.810501,1.0035,52.810501C0.50199997,49.290001,0,46.271999,0,42.751499C0,19.112499,19.068001,0,42.6525,0C42.6525,0,42.6525,0,42.6525,0ZM42.6525,11.568C25.591499,11.568,11.5415,25.650999,11.5415,42.751499C11.5415,59.852001,25.591499,73.934998,42.6525,73.934998C59.713501,73.934998,73.262001,59.852001,73.763496,42.751499C73.763496,25.650999,59.713501,11.568,42.6525,11.568C42.6525,11.568,42.6525,11.568,42.6525,11.568ZM56,26C57.9585,26,59.4375,27.438,59.498001,29.3755C59.498001,29.3755,59.5,29.5,59.5,29.5C59.5,29.5,59.5,56.5,59.5,56.5C59.5,58.4585,58.062,59.9375,56.1245,59.998001C56.1245,59.998001,56,60,56,60C56,60,29,60,29,60C27.0415,60,25.5625,58.562,25.502001,56.6245C25.502001,56.6245,25.5,56.5,25.5,56.5C25.5,56.5,25.5,29.5,25.5,29.5C25.5,27.5415,26.938,26.0625,28.8755,26.002001C28.8755,26.002001,29,26,29,26C29,26,56,26,56,26C56,26,56,26,56,26ZM38.5,33C38.5,33,32.5,33,32.5,33C32.5,33,32.5,53,32.5,53C32.5,53,38.5,53,38.5,53C38.5,53,38.5,45,38.5,45C38.5,45,45.5,45,45.5,45C45.5,45,45.5,53,45.5,53C45.5,53,52,53,52,53C52,53,52,33,52,33C52,33,45.5,33,45.5,33C45.5,33,45.5,40,45.5,40C45.5,40,38.5,40,38.5,40C38.5,40,38.5,33,38.5,33C38.5,33,38.5,33,38.5,33Z" fill="#E60012" fill-opacity="1"/></svg>