<svg xmlns="http://www.w3.org/2000/svg" xmlns:xlink="http://www.w3.org/1999/xlink" fill="none" version="1.1" width="36" height="36" viewBox="0 0 36 36"><path d="M7.9809904,0C13.943013,0,22.056988,0,28.019011,0C32.43729,0,36,3.5627117,36,7.9809904C36,13.943013,36,22.056988,36,28.019011C36,32.43729,32.43729,36,28.019011,36C22.056988,36,13.943013,36,7.9809904,36C3.5627117,36,0,32.43729,0,28.019011C0,22.056988,0,13.943013,0,7.9809904C0,3.5627117,3.5627117,0,7.9809904,0" fill="#000000" fill-opacity="1"/><path d="M29,11C25.686293,11,22.999992,8.3137083,22.999992,5C22.999992,5,17.999997,5,17.999997,5C17.999997,5,18.00002,23.5,18.00002,23.5C17.999997999999998,25.432997,16.432995,27,14.4999981,27C12.5670018,27,10.999998999999999,25.432997,10.999998999999999,23.5C10.999998999999999,21.567003,12.5670018,20,14.4999981,20C14.4999981,20,15.9999981,20,15.9999981,20C15.9999981,20,15.999999,15,15.999999,15C15.999999,15,14.4999981,15,14.4999981,15C9.8055787,15,6,18.80558,6,23.5C6,28.19442,9.8055787,32,14.4999981,32C19.194418,32,22.999996,28.19442,22.999992,23.5C22.999992,23.5,22.999992,14.2210693,22.999992,14.2210693C24.72555,15.346158,26.786423,16,29,16C29,16,29.5,16,29.5,16C29.5,16,29.5,11,29.5,11C29.5,11,29,11,29,11Z" fill-rule="evenodd" fill="#FA1E5C" fill-opacity="1"/><path d="M28,10C24.686293,10,21.999992,7.3137083,21.999992,4C21.999992,4,16.999997,4,16.999997,4C16.999997,4,17.00002,22.5,17.00002,22.5C16.999997999999998,24.432997,15.432995,26,13.4999981,26C11.5670018,26,9.999998999999999,24.432997,9.999998999999999,22.5C9.999998999999999,20.567003,11.5670018,19,13.4999981,19C13.4999981,19,14.9999981,19,14.9999981,19C14.9999981,19,14.999999,14,14.999999,14C14.999999,14,13.4999981,14,13.4999981,14C8.8055787,14,5,17.80558,5,22.5C5,27.19442,8.8055787,31,13.4999981,31C18.194418,31,21.999996,27.19442,21.999992,22.5C21.999992,22.5,21.999992,13.2210693,21.999992,13.2210693C23.72555,14.346158,25.786423,15,28,15C28,15,28.5,15,28.5,15C28.5,15,28.5,10,28.5,10C28.5,10,28,10,28,10Z" fill-rule="evenodd" fill="#5FFDFF" fill-opacity="1"/><g><path d="M28.5,10.9794631C26.793058,10.838643099999999,25.288712,9.9833131,24.286737,8.7132437C23.142235,7.8103309,22.334513,6.4994586000000005,22.082951,5.000000000000004L17.999997,5L18.00002,23.5C17.999997999999998,25.432997,16.432995,27,14.4999981,27C13.2777605,27,12.2018495,26.373503,11.5758777,25.424122C10.6264963,24.798149,9.999998999999999,23.722239,9.999998999999999,22.5C9.999998999999999,20.567003,11.5670018,19,13.4999981,19L14.9999981,19L14.999999,15L14.4999981,15C9.8055787,15,6,18.80558,6,23.5C6,25.592649,6.75622261,27.508673,8.010298500000001,28.989702C9.4913273,30.243778,11.4073501,31,13.4999981,31C18.194418,31,21.999996,27.19442,21.999992,22.5L21.999992,13.2210693C23.72555,14.346158,25.786423,15,28,15L28.5,15L28.5,10.9794631Z" fill-rule="evenodd" fill="#FFFFFF" fill-opacity="1"/></g></svg>