<svg xmlns="http://www.w3.org/2000/svg" xmlns:xlink="http://www.w3.org/1999/xlink" fill="none" version="1.1" width="87.99208068847656" height="88" viewBox="0 0 87.99208068847656 88"><defs><radialGradient cx="0" cy="0" r="1" gradientUnits="userSpaceOnUse" id="master_svg0_0_3632" gradientTransform="translate(61.604194909061334 21.137325763702393) rotate(44.99999771058521) scale(65.46596669246183 97.40439141839184)"><stop offset="0%" stop-color="#D80D19" stop-opacity="1"/><stop offset="10.000000149011612%" stop-color="#D80D19" stop-opacity="1"/><stop offset="43.00000071525574%" stop-color="#B9020D" stop-opacity="1"/><stop offset="81.00000023841858%" stop-color="#910000" stop-opacity="1"/><stop offset="97.00000286102295%" stop-color="#B9020D" stop-opacity="1"/><stop offset="100%" stop-color="#D80D19" stop-opacity="1"/></radialGradient></defs><path d="M42.329498,0.0462895C36.172798,0.46291199,30.8493,1.8979501,27.562599,4.9994702C27.007099,3.14781,25.1091,3.6570201,23.6278,4.0273499C16.6378,6.29563,7.93501,15.2762,4.9260702,22.173599C4.2316999,23.7938,2.9818301,26.7101,5.1112299,27.636C2.2874501,30.922701,0.52838099,35.644402,0.065466106,41.384499C0.019174602,42.264099,-0.027116898,43.1436,0.019174503,44.023102C0.019174503,44.8564,0.019175302,45.7822,0.065466702,46.6618C0.52838099,52.401901,2.2874601,57.1236,5.1112299,60.410301C2.9818301,61.336102,4.2316999,64.252502,4.8797798,65.826401C7.93501,72.770103,16.684099,81.704399,23.6278,84.018898C25.1091,84.389297,27.007099,84.898499,27.562599,83.046799C30.895599,86.102097,36.172798,87.583397,42.283298,87.953697C42.884998,88,43.440498,88,43.995998,88C44.551498,88,45.106998,88,45.708801,87.953697C51.865601,87.537102,57.142799,86.1483,60.4758,83.000504C60.985001,84.898499,62.8829,84.389297,64.364304,84.018898C71.400597,81.704399,80.103401,72.723801,83.112297,65.826401C83.806702,64.2062,85.010201,61.336102,82.927101,60.363998C85.704597,57.1236,87.463699,52.401901,87.926598,46.6618C87.9729,45.7822,88.019203,44.902699,87.9729,44.023102C88.019203,43.1436,87.9729,42.264099,87.926598,41.384499C87.463699,35.644402,85.704597,30.922701,82.927101,27.682301C85.056503,26.6639,83.760399,23.7938,83.112297,22.2199C80.103401,15.3225,71.400597,6.3419299,64.364304,4.0273499C62.8829,3.6570201,60.985001,3.14782,60.4758,5.0457602C57.142799,1.8979501,51.865601,0.50920302,45.708801,0.092580304C45.106998,0.0462889,44.551498,0.0462914,44.042301,0C43.440498,0.0462914,42.884998,0.0462895,42.329498,0.0462895C42.329498,0.0462895,42.329498,0.0462895,42.329498,0.0462895ZM51.449001,2.6849C50.569401,3.4718599,50.0602,4.5365601,50.152802,6.1104698C50.3843,8.8416595,52.004501,10.7396,53.161701,12.4524C50.708302,11.2951,47.653099,10.4619,44.042301,10.3693C44.042301,10.3693,43.995998,10.323,43.995998,10.323C40.3853,10.4156,37.330101,11.2488,34.830299,12.4524C35.987598,10.7396,37.654099,8.7953701,37.839298,6.1104698C37.9319,4.5365601,37.4226,3.4718599,36.543098,2.6849C38.765099,2.9626501,41.403702,3.1015301,44.042301,3.0552399C46.634701,3.0552399,49.227001,2.9626501,51.449001,2.6849C51.449001,2.6849,51.449001,2.6849,51.449001,2.6849ZM70.104401,10.323C70.474701,10.2304,70.937698,10.0452,70.937698,9.5823202C70.937698,9.3045797,70.798798,9.0731201,70.613602,8.8879604C73.113297,10.8322,76.353699,14.1652,78.8535,17.4056C77.557297,16.5723,77.511002,18.470301,77.557297,19.535C77.557297,20.0905,77.696198,20.692301,77.788803,21.155199C75.5205,16.4797,71.446899,12.6838,66.956596,10.323C67.373199,10.3693,68.113899,10.4619,68.762001,10.4619C69.271202,10.4156,69.7341,10.4156,70.104401,10.323C70.104401,10.323,70.104401,10.323,70.104401,10.323ZM17.424801,8.8416595C17.239599,9.0268297,17.054399,9.3045702,17.054399,9.5823202C17.1007,10.0915,17.5173,10.2304,17.887699,10.323C18.813499,10.5082,20.341101,10.4619,21.0355,10.323C16.5452,12.6838,12.4716,16.4797,10.2496,21.1089C10.2959,20.692301,10.4347,20.0905,10.4347,19.535C10.481,18.470301,10.481,16.525999,9.1385899,17.4056C11.6846,14.1189,14.8787,10.8322,17.424801,8.8416595C17.424801,8.8416595,17.424801,8.8416595,17.424801,8.8416595ZM52.374802,21.8496C57.2817,20.0905,61.679401,17.822201,63.160702,12.6376C65.2901,15.7854,69.687798,20.646,73.529999,23.5623C73.807701,23.840099,74.4095,24.3493,75.242798,24.9048C72.604103,25.599199,70.891403,27.311899,69.502602,29.256201C68.067596,31.1541,67.049202,33.4687,66.308502,36.061001C63.716202,29.3025,59.040798,24.5345,52.374802,21.8496C52.374802,21.8496,52.374802,21.8496,52.374802,21.8496ZM18.5357,29.2099C17.1007,27.311899,15.3879,25.599199,12.7493,24.9048C13.5826,24.3493,14.2306,23.7938,14.4621,23.5623C18.3043,20.646,22.702,15.7854,24.8314,12.6376C26.3127,17.822201,30.7104,20.0905,35.617298,21.8496C28.9513,24.5345,24.3685,29.3025,21.683599,36.061001C20.989201,33.514999,19.9245,31.1541,18.5357,29.2099C18.5357,29.2099,18.5357,29.2099,18.5357,29.2099ZM42.9776,56.151501C40.246399,50.365101,35.617298,46.198799,29.1828,44.023102C35.617298,41.847401,40.246399,37.681198,42.9776,31.8948C43.348,31.061501,43.625702,30.1357,44.042301,29.256201C44.366402,30.1357,44.690399,31.015301,45.106998,31.8948C47.791901,37.727501,52.421101,41.801201,58.809299,44.023102C52.421101,46.1525,47.791901,50.318802,45.106998,56.151501C44.6441,56.984699,44.366402,57.910599,44.042301,58.7901C43.625702,57.910599,43.348,56.984699,42.9776,56.151501C42.9776,56.151501,42.9776,56.151501,42.9776,56.151501ZM77.6036,44.023102C77.6036,40.505001,76.724098,37.4035,75.659401,34.950001C77.511002,36.4314,79.9645,37.7738,82.0476,37.820099C83.297501,37.866402,84.362198,37.264599,85.0103,36.523899C84.732498,38.653301,84.593597,41.292,84.6399,44.023102C84.593597,46.754299,84.732498,49.393002,85.0103,51.5224C84.362198,50.7817,83.297501,50.179901,82.0476,50.2262C79.9645,50.272499,77.464798,51.5686,75.659401,53.096298C76.724098,50.642799,77.6036,47.541302,77.6036,44.023102C77.6036,44.023102,77.6036,44.023102,77.6036,44.023102ZM12.4253,34.950001C11.268,37.4035,10.4347,40.458698,10.3885,44.023102C10.4347,47.587601,11.268,50.642799,12.379,53.049999C10.5273,51.5686,8.0275898,50.272499,5.9907699,50.179901C4.6946101,50.179901,3.62991,50.7817,3.02812,51.476101C3.2595699,49.392899,3.3984499,46.754299,3.4447401,44.023102C3.3984499,41.292,3.2595799,38.653301,3.02812,36.4776C3.62991,37.264599,4.6946101,37.866402,5.9907699,37.7738C8.0738802,37.727501,10.5736,36.4314,12.4253,34.950001C12.4253,34.950001,12.4253,34.950001,12.4253,34.950001ZM52.328499,66.150398C59.040798,63.511799,63.669899,58.697498,66.308502,51.985298C67.002899,54.5313,68.067596,56.8922,69.502602,58.7901C70.891403,60.734402,72.604103,62.447102,75.242798,63.141499C74.4095,63.696999,73.807701,64.2062,73.529999,64.484001C69.687798,67.400299,65.2901,72.260902,63.160702,75.408699C61.679401,70.224098,57.2817,67.955803,52.328499,66.150398C52.328499,66.150398,52.328499,66.150398,52.328499,66.150398ZM14.5084,64.437698C14.1844,64.2062,13.5826,63.696999,12.7493,63.141499C15.3879,62.447102,17.1007,60.734402,18.4895,58.7901C19.9245,56.8922,20.989201,54.5313,21.683599,51.985298C24.3685,58.743801,28.9513,63.511799,35.663601,66.150497C30.7104,67.955803,26.3127,70.224098,24.8314,75.408699C22.702,72.260902,18.3043,67.400299,14.5084,64.437698C14.5084,64.437698,14.5084,64.437698,14.5084,64.437698ZM77.788803,66.891098C77.696198,67.353996,77.6036,67.9095,77.557297,68.511299C77.511002,69.575996,77.557297,71.473999,78.8535,70.640701C76.353798,73.881104,73.113403,77.214104,70.613602,79.158302C70.798798,78.973198,70.983902,78.695396,70.937698,78.463997C70.937698,78.001099,70.521004,77.7696,70.104401,77.723297C69.224899,77.491898,67.651001,77.584396,66.956596,77.723297C71.446899,75.362396,75.566803,71.520302,77.788803,66.891098C77.788803,66.891098,77.788803,66.891098,77.788803,66.891098ZM10.4347,68.511299C10.4347,67.955803,10.2959,67.353996,10.2033,66.891098C12.4716,71.566597,16.5452,75.362396,21.0355,77.723297C20.341101,77.584396,18.8598,77.491798,17.934,77.677002C17.5173,77.815903,17.1007,77.954803,17.054399,78.463997C17.054399,78.741699,17.1933,78.973198,17.3785,79.158302C14.8787,77.214104,11.6846,73.834801,9.1385899,70.640701C9.3700399,70.779602,9.5552101,70.8722,9.7403803,70.8722C10.481,70.8722,10.481,69.3908,10.4347,68.511299C10.4347,68.511299,10.4347,68.511299,10.4347,68.511299ZM43.949699,77.677002C43.949699,77.677002,44.042301,77.677002,44.042301,77.677002C47.653099,77.584396,50.708302,76.751198,53.161701,75.593903C52.004501,77.306702,50.3843,79.204597,50.152802,81.935799C50.0602,83.509697,50.569401,84.574402,51.449001,85.361397C49.227001,85.083603,46.588402,84.944801,43.995998,84.944801C41.403702,84.944801,38.765099,85.083603,36.543098,85.361397C37.422699,84.574402,37.978199,83.463402,37.839298,81.935799C37.700401,79.204597,35.987598,77.306702,34.830299,75.593903C37.330101,76.797501,40.3853,77.630699,43.949699,77.677002C43.949699,77.677002,43.949699,77.677002,43.949699,77.677002Z" fill="url(#master_svg0_0_3632)" fill-opacity="1"/></svg>