<svg xmlns="http://www.w3.org/2000/svg" xmlns:xlink="http://www.w3.org/1999/xlink" fill="none" version="1.1" width="85.55396270751953" height="75.00011444091797" viewBox="0 0 85.55396270751953 75.00011444091797"><path d="M27.794001,36.066502C27.794001,36.066502,28.531,12.7025,28.531,12.7025C28.587999,10.661,29.325001,9.3000002,31.876499,9.3000002C31.876499,9.3000002,35.109001,9.3000002,35.109001,9.3000002C35.109001,9.3000002,35.109001,1.5,35.109001,1.5C35.109001,1.10218,35.266998,0.72064501,35.548302,0.43934101C35.829601,0.15803599,36.211201,5.98978e-29,36.609001,5.98978e-29C36.609001,5.98978e-29,48.692001,5.98978e-29,48.692001,5.98978e-29C49.089802,-3.5527101e-15,49.471298,0.15803599,49.752602,0.43934101C50.033901,0.72064501,50.192001,1.10218,50.192001,1.5C50.192001,1.5,50.192001,9.3000002,50.192001,9.3000002C50.192001,9.3000002,53.424,9.3000002,53.424,9.3000002C56.032001,9.3000002,56.712502,10.661,56.769001,12.7025C56.769001,12.7025,57.5065,35.953499,57.5065,35.953499C57.5065,35.953499,46.733002,42.191002,46.733002,42.191002C46.733002,42.191002,46.733002,28.184,46.733002,28.184C46.733002,26.256001,45.145,24.725,43.273998,24.725C43.273998,24.725,42.139999,24.725,42.139999,24.725C40.212002,24.725,38.681,26.313,38.681,28.184C38.681,28.184,38.681,42.304501,38.681,42.304501C38.681,42.304501,27.794001,36.066502,27.794001,36.066502C27.794001,36.066502,27.794001,36.066502,27.794001,36.066502C27.794001,36.066502,27.794001,36.066502,27.794001,36.066502ZM58.396,37.679501C58.396,37.679501,78.347504,49.997002,78.347504,49.997002C80.095001,51.067001,80.910004,52.382999,79.634003,54.5835C79.634003,54.5835,78.017998,57.370499,78.017998,57.370499C78.017998,57.370499,84.801498,61.2705,84.801498,61.2705C85.132698,61.460899,85.378799,61.7705,85.489502,62.136101C85.600304,62.501701,85.567398,62.895802,85.397499,63.237999C85.397499,63.237999,85.351501,63.323002,85.351501,63.323002C85.351501,63.323002,79.314499,73.734497,79.314499,73.734497C79.115402,74.077797,78.788399,74.328102,78.405197,74.430901C78.021896,74.5336,77.613503,74.480202,77.269501,74.282501C77.269501,74.282501,70.476501,70.377502,70.476501,70.377502C70.476501,70.377502,68.860497,73.164497,68.860497,73.164497C67.556503,75.414001,66.032501,75.320503,64.2285,74.348503C64.2285,74.348503,43.6385,63.358501,43.6385,63.358501C43.6385,63.358501,43.599998,50.949001,43.599998,50.949001C43.599998,50.949001,55.782501,57.952499,55.782501,57.952499C57.459,58.917,59.584499,58.313,60.5205,56.699501C60.5205,56.699501,61.087502,55.7215,61.087502,55.7215C62.051498,54.058998,61.436001,51.945,59.807999,51.008999C59.807999,51.008999,47.5275,43.949001,47.5275,43.949001C47.5275,43.949001,58.396,37.679501,58.396,37.679501C58.396,37.679501,58.396,37.679501,58.396,37.679501C58.396,37.679501,58.396,37.679501,58.396,37.679501ZM27.157999,37.679501C27.157999,37.679501,7.20648,49.997002,7.20648,49.997002C5.4589801,51.067001,4.64397,52.382999,5.91997,54.5835C5.91997,54.5835,7.5359802,57.370499,7.5359802,57.370499C7.5359802,57.370499,0.75247496,61.2705,0.75247496,61.2705C0.42126498,61.460899,0.17517799,61.7705,0.064422287,62.136101C-0.046333011,62.501701,-0.01341051,62.895802,0.15647499,63.237999C0.15647499,63.237999,0.20247599,63.323002,0.20247599,63.323002C0.20247599,63.323002,6.23947,73.734497,6.23947,73.734497C6.43854,74.077797,6.7655101,74.328102,7.1487999,74.430901C7.5320802,74.5336,7.9404402,74.480202,8.2844801,74.282501C8.2844801,74.282501,15.0775,70.377502,15.0775,70.377502C15.0775,70.377502,16.693501,73.164497,16.693501,73.164497C17.997499,75.414001,19.5215,75.320503,21.3255,74.348503C21.3255,74.348503,41.915501,63.358501,41.915501,63.358501C41.915501,63.358501,41.953999,50.949001,41.953999,50.949001C41.953999,50.949001,29.7715,57.952499,29.7715,57.952499C28.094999,58.917,25.9695,58.313,25.033501,56.699501C25.033501,56.699501,24.466499,55.7215,24.466499,55.7215C23.502501,54.058998,24.118,51.945,25.746,51.008999C25.746,51.008999,38.026501,43.949001,38.026501,43.949001C38.026501,43.949001,27.157999,37.679501,27.157999,37.679501C27.157999,37.679501,27.157999,37.679501,27.157999,37.679501C27.157999,37.679501,27.157999,37.679501,27.157999,37.679501Z" fill="#E50619" fill-opacity="1"/></svg>