<svg xmlns="http://www.w3.org/2000/svg" xmlns:xlink="http://www.w3.org/1999/xlink" fill="none" version="1.1" width="85" height="85" viewBox="0 0 85 85"><path d="M3,58C3,58,15.65,58,15.65,58C15.65,58,18.049999,60.5,18.049999,60.5C18.049999,60.5,37,60.5,37,60.5C37,60.5,32.799999,64.949997,32.799999,64.949997C32.799999,64.949997,9.5,65,9.5,65C9.5,65,8.25,60.900002,4.0500002,60.599998C3.5999999,59.450001,3.2,58.650002,3,58C3,58,3,58,3,58C3,58,3,58,3,58ZM42.400002,0C65.849998,0,85,19.1,85,42.5C85,65.900002,65.849998,85,42.400002,85C30.75,85,20.15,80.300003,12.45,72.650002C12.45,72.650002,64.599998,72.650002,64.599998,72.650002C64.599998,72.650002,64.949997,72.25,64.949997,72.25C64.949997,72.25,9.8999996,69.900002,9.8999996,69.900002C9.8000002,69.800003,9.6999998,69.699997,9.6499996,69.550003C9.6499996,69.550003,67.650002,69.550003,67.650002,69.550003C67.650002,69.550003,68,69.199997,68,69.199997C68,69.199997,7.25,66.349998,7.25,66.349998C7.1999998,66.25,7.0999999,66.150002,7.0500002,66.050003C7.0500002,66.050003,29.799999,66.050003,29.799999,66.050003C33.900002,66.050003,40.650002,65.849998,49.5,62.450001C58.299999,59.049999,63.700001,51.349998,63.700001,42.400002C63.700001,30.700001,54.150002,21.200001,42.450001,21.200001C40,21.200001,37.599998,21.6,35.400002,22.4C35.400002,22.4,20.4,6.0500002,20.4,6.0500002C26.799999,2.25,34.349998,0,42.400002,0C42.400002,0,42.400002,0,42.400002,0C42.400002,0,42.400002,0,42.400002,0ZM34,23.25C30.799999,24.65,28,26.799999,25.85,29.5C25.85,29.5,8,17.6,8,17.6C10.9,13.65,14.45,10.25,18.5,7.5C18.5,7.5,34,23.25,34,23.25C34,23.25,34,23.25,34,23.25ZM25,30.65C23,33.5,21.700001,36.849998,21.299999,40.5C21.299999,40.5,1,32.849998,1,32.849998C2.1500001,28.049999,4.1500001,23.5,6.8499999,19.5C6.8499999,19.5,25,30.65,25,30.65C25,30.65,25,30.65,25,30.65ZM21.35,41.75C21.35,41.75,21.35,42.5,21.35,42.5C21.35,44.25,21.6,46.150002,22,47.799999C22.4,49.450001,23.299999,52.400002,25.950001,55.900002C25.950001,55.900002,26.299999,55.700001,26.299999,55.700001C26.299999,55.700001,24,52.099998,23.6,47.599998C23.450001,45.799999,23.4,44.150002,23.549999,42.549999C23.549999,42.549999,45.450001,50.25,45.450001,50.25C45.450001,50.25,45.450001,56.5,45.450001,56.5C45.450001,56.5,2.4000001,56.5,2.4000001,56.5C0.85000002,52.099998,0,47.400002,0,42.450001C0,39.75,0.25,37.049999,0.75,34.5C0.75,34.5,21.35,41.75,21.35,41.75C21.35,41.75,21.35,41.75,21.35,41.75ZM24,41.200001C24.299999,39.25,24.950001,37.349998,26,35.200001C26.549999,34.099998,27.200001,33,28,32C28,32,45.5,43.049999,45.5,43.049999C45.5,43.049999,45.5,49.5,45.5,49.5C45.5,49.5,24,41.200001,24,41.200001C24,41.200001,24,41.200001,24,41.200001ZM28.5,31.15C30.65,28.700001,33.349998,26.75,36.349998,25.5C36.349998,25.5,45.5,34.900002,45.5,34.900002C45.5,34.900002,45.5,42.5,45.5,42.5C45.5,42.5,28.5,31.15,28.5,31.15C28.5,31.15,28.5,31.15,28.5,31.15C28.5,31.15,28.5,31.15,28.5,31.15Z" fill="#E30016" fill-opacity="1"/></svg>