<svg xmlns="http://www.w3.org/2000/svg" xmlns:xlink="http://www.w3.org/1999/xlink" fill="none" version="1.1" width="85.0250244140625" height="82.001708984375" viewBox="0 0 85.0250244140625 82.001708984375"><path d="M24.712469482421874,44.25083687219238C24.712469482421874,44.25083687219238,38.962471482421876,58.550836872192384,38.962471482421876,58.550836872192384C38.962471482421876,58.550836872192384,23.912469482421876,73.30083687219238,23.912469482421876,73.30083687219238C23.912469482421876,73.30083687219238,6.412469382421875,56.10083987219238,6.412469382421875,56.10083987219238C-2.137530517578125,47.90083887219238,-2.137530517578125,34.40083887219238,6.412469382421875,26.250838872192382C6.412469382421875,26.250838872192382,27.162469482421876,6.200878572192383,27.162469482421876,6.200878572192383C35.262470482421875,-1.999121527807617,49.112468482421875,-1.999121527807617,57.662467482421874,5.800878572192383C57.662467482421874,5.800878572192383,24.712469482421874,37.70083787219238,24.712469482421874,37.70083787219238C24.712469482421874,37.70083787219238,21.062469482421875,40.95083787219238,21.062469482421875,40.95083787219238C21.062469482421875,40.95083787219238,24.712469482421874,44.25083687219238,24.712469482421874,44.25083687219238C24.712469482421874,44.25083687219238,24.712469482421874,44.25083687219238,24.712469482421874,44.25083687219238ZM78.61247248242188,25.850837872192383C87.16246748242187,34.45083787219238,87.16246748242187,47.550836872192384,78.61247248242188,55.75083687219238C78.61247248242188,55.75083687219238,57.862468482421875,75.80083687219238,57.862468482421875,75.80083687219238C49.312469482421875,84.00084087219238,35.912467482421874,84.00084087219238,27.362468482421875,76.20083787219238C27.362468482421875,76.20083787219238,60.312469482421875,44.25083687219238,60.312469482421875,44.25083687219238C60.312469482421875,44.25083687219238,63.962471482421876,40.95083787219238,63.962471482421876,40.95083787219238C63.962471482421876,40.95083787219238,60.312469482421875,37.65083887219238,60.312469482421875,37.65083887219238C60.312469482421875,37.65083887219238,46.062469482421875,23.800838872192383,46.062469482421875,23.800838872192383C46.062469482421875,23.800838872192383,61.112468482421875,9.050878572192383,61.112468482421875,9.050878572192383C61.112468482421875,9.050878572192383,78.61247248242188,25.850837872192383,78.61247248242188,25.850837872192383C78.61247248242188,25.850837872192383,78.61247248242188,25.850837872192383,78.61247248242188,25.850837872192383Z" fill="#D8232A" fill-opacity="1"/><path d="M56.662451171875,41.00076904296875C56.662451171875,41.00076904296875,42.362451171875,27.10076904296875,42.362451171875,27.10076904296875C42.362451171875,27.10076904296875,28.012451171875,41.00076904296875,28.012451171875,41.00076904296875C28.012451171875,41.00076904296875,42.762451171875,54.90076804296875,42.762451171875,54.90076804296875C42.762451171875,54.90076804296875,56.662451171875,41.00076904296875,56.662451171875,41.00076904296875C56.662451171875,41.00076904296875,56.662451171875,41.00076904296875,56.662451171875,41.00076904296875Z" fill="#CFAA6B" fill-opacity="1"/></svg>