<svg xmlns="http://www.w3.org/2000/svg" xmlns:xlink="http://www.w3.org/1999/xlink" fill="none" version="1.1" width="84.5" height="85" viewBox="0 0 84.5 85"><path d="M52.395,66.406502C53.072899,67.660202,53.923901,68.812103,54.923,69.828499C56.5242,71.459999,58.4813,72.698799,60.640999,73.447998C59.445,80.144997,53.723499,85,47.004002,85C42.035999,85,37.4165,82.267998,34.947498,77.869499C34.947498,77.869499,34.489498,76.989502,34.489498,76.989502C33.5942,75.097298,33.132301,73.029297,33.137501,70.935997C33.137501,69.638496,33.319,68.353996,33.666,67.111C36.386501,68.069603,39.25,68.559402,42.134499,68.559502C45.667,68.563301,49.161499,67.830002,52.394501,66.406502C52.394501,66.406502,52.395,66.406502,52.395,66.406502C52.395,66.406502,52.395,66.406502,52.395,66.406502ZM18.732,53.789001C21.5835,59.677502,26.480499,64.246498,32.541,66.666496C32.143501,68.037598,31.9412,69.457901,31.940001,70.885498C31.9361,73.184196,32.459,75.4533,33.468498,77.518501C30.7901,79.391197,27.5361,80.257004,24.2813,79.963203C21.0264,79.669296,17.980101,78.234596,15.6805,75.912498C13.048,73.267502,11.598,69.748497,11.598,66.0075C11.5982,64.747398,11.7667,63.493,12.099,62.2775C12.099,62.2775,12.391,61.330502,12.391,61.330502C13.0845,59.357498,14.191,57.598999,15.68,56.101501C16.585899,55.193699,17.6129,54.415501,18.732,53.789001C18.732,53.789001,18.732,53.789001,18.732,53.789001ZM77.362999,51.132999C78.988297,53.4673,79.860001,56.243099,79.861,59.087502C79.861397,60.922798,79.499298,62.740101,78.7957,64.435097C78.092003,66.130203,77.0606,67.669601,75.760498,68.964996C72.218498,72.504997,67.005501,73.877998,62.154499,72.547501C62.154499,72.547501,61.209,72.254501,61.209,72.254501C59.243698,71.5653,57.459499,70.440804,55.990002,68.964996C55.083599,68.056396,54.307098,67.0271,53.682499,65.905998C59.547199,63.060902,64.132698,58.120998,66.533997,52.061001C67.899002,52.458,69.314003,52.665001,70.742996,52.665001C73.059998,52.665001,75.286003,52.146,77.362999,51.132999C77.362999,51.132999,77.362999,51.132999,77.362999,51.132999C77.362999,51.132999,77.362999,51.132999,77.362999,51.132999ZM42.223499,17.586C55.949501,17.586,67.0765,28.735001,67.0765,42.487999C67.0793,46.0089,66.333702,49.490101,64.889,52.701C64.889,52.701,60.092499,48.354,60.092499,48.354C60.712101,46.4603,61.0275,44.4804,61.027,42.487999C61.027,32.083,52.608002,23.647499,42.223499,23.647499C31.838499,23.647499,23.4205,32.0825,23.4205,42.487499C23.4205,52.894001,31.839001,61.328499,42.223499,61.328499C43.763699,61.328701,45.298,61.1395,46.792,60.764999C46.792,60.764999,51.900002,65.431999,51.900002,65.431999C48.839001,66.728699,45.547901,67.394798,42.223499,67.390503C28.497999,67.390503,17.371,56.240501,17.371,42.487999C17.371,28.735001,28.497999,17.586,42.223499,17.586C42.223499,17.586,42.223499,17.586,42.223499,17.586C42.223499,17.586,42.223499,17.586,42.223499,17.586ZM58.850498,50.933998C58.850498,50.933998,63.470501,55.157001,63.470501,55.157001C61.308498,58.7533,58.2826,61.752701,54.6675,63.882999C54.6675,63.882999,49.884499,59.475498,49.884499,59.475498C53.734501,57.718498,56.8955,54.697498,58.850498,50.933998C58.850498,50.933998,58.850498,50.933998,58.850498,50.933998ZM14.0375,33.535C15.331,33.535,16.614,33.717499,17.8535,34.064999C16.8972,36.792,16.4086,39.661098,16.408501,42.550999C16.404699,46.090302,17.1364,49.591801,18.556999,52.8335C17.304899,53.512501,16.1551,54.365299,15.142,55.366501C13.5112,56.971901,12.2725,58.931702,11.522,61.093498C4.842,59.892502,0,54.16,0,47.431499C0,42.452499,2.7265,37.823502,7.1160002,35.349499C7.1160002,35.349499,7.9949999,34.890999,7.9949999,34.890999C9.8924999,33.991001,11.925,33.535999,14.0375,33.535999C14.0375,33.535999,14.0375,33.535,14.0375,33.535C14.0375,33.535,14.0375,33.535,14.0375,33.535ZM37.540501,32.518501C37.540501,31.300501,38.591499,31.466499,38.591499,31.466499C38.591499,31.466499,50.052502,31.466499,50.052502,31.466499C53.046501,31.466499,53.222,34.148499,53.230499,34.588501C53.230499,34.588501,53.230499,50.470001,53.230499,50.470001C53.230499,53.412498,50.393002,53.514,50.197498,53.517502C50.197498,53.517502,32.258999,53.517502,32.258999,53.517502C31.058001,53.517502,31.224001,52.480499,31.224001,52.480499C31.224001,52.480499,31.3055,40.040001,31.3055,38.8815C31.3055,37.723499,32.296501,37.8895,32.296501,37.8895C32.296501,37.8895,36.5975,37.8895,36.5975,37.8895C38.0825,37.8895,37.750999,39.044498,37.750999,39.044498C37.750999,39.044498,37.750999,46.106499,37.750999,46.106499C37.750999,47.112999,38.591,46.947498,38.591,46.947498C38.591,46.947498,45.738499,46.947498,45.738499,46.947498C46.921501,46.947498,46.6735,46.012001,46.6735,46.012001C46.6735,46.012001,46.6735,38.997002,46.6735,38.997002C46.6735,38.119499,45.7145,38.036499,45.7145,38.036499C45.7145,38.036499,38.272999,38.036499,38.272999,38.036499C37.540501,38.036499,37.540501,37.303001,37.540501,37.303001C37.540501,37.303001,37.540501,32.518501,37.540501,32.518501C37.540501,32.518501,37.540501,32.518501,37.540501,32.518501ZM72.970497,23.906C79.654999,25.105,84.5,30.8375,84.5,37.570999C84.5,42.5485,81.773003,47.177502,77.383499,49.651001C77.383499,49.651001,76.504501,50.1105,76.504501,50.1105C74.616798,51.007198,72.552299,51.470001,70.462502,51.465C69.167503,51.465,67.885498,51.282501,66.6465,50.935001C67.602501,48.208,68.090897,45.339199,68.091003,42.449501C68.091003,38.884499,67.365997,35.427502,65.943001,32.168499C67.194801,31.4888,68.344498,30.6359,69.358002,29.635C70.987,28.0291,72.223198,26.068701,72.970001,23.9065C72.970001,23.9065,72.970497,23.906,72.970497,23.906C72.970497,23.906,72.970497,23.906,72.970497,23.906ZM8.7390003,16.035C12.2805,12.495,17.493999,11.122,22.344999,12.4525C22.344999,12.4525,23.290501,12.7455,23.290501,12.7455C25.255699,13.4348,27.039801,14.5591,28.509501,16.0345C29.415899,16.942801,30.1924,17.972099,30.816999,19.093C24.952299,21.9382,20.367001,26.878099,17.9655,32.938C16.598,32.539101,15.181,32.335899,13.7565,32.334499C11.4615,32.3312,9.1965399,32.855499,7.1364999,33.867001C5.26612,31.18,4.4016199,27.9203,4.6946502,24.659599C4.98768,21.3988,6.4195199,18.3454,8.7390003,16.035C8.7390003,16.035,8.7390003,16.035,8.7390003,16.035C8.7390003,16.035,8.7390003,16.035,8.7390003,16.035ZM51.030998,7.4819999C53.710999,5.6090298,56.966499,4.7430401,60.2229,5.03689C63.479198,5.33074,66.5271,6.7655201,68.828499,9.0880003C71.468498,11.7405,72.901497,15.33,72.901497,19.0035C72.901497,20.244499,72.737999,21.494499,72.402496,22.7215C72.402496,22.7215,72.111,23.669001,72.111,23.669001C71.423798,25.6367,70.301804,27.4242,68.828499,28.8985C67.922203,29.806299,66.894798,30.5844,65.775497,31.211C62.922001,25.321501,58.022499,20.7535,51.9585,18.333C52.356201,16.962299,52.558498,15.5423,52.559502,14.115C52.5634,11.8163,52.040501,9.5472002,51.030998,7.4819999C51.030998,7.4819999,51.030998,7.4819999,51.030998,7.4819999C51.030998,7.4819999,51.030998,7.4819999,51.030998,7.4819999ZM37.496498,0C42.4645,0,47.084499,2.7320001,49.552502,7.1300001C49.552502,7.1300001,50.010502,8.0115004,50.010502,8.0115004C50.905899,9.9037905,51.367802,11.972,51.362499,14.0655C51.362499,15.3615,51.181,16.646999,50.834,17.889C48.1133,16.931101,45.249901,16.441601,42.365501,16.4415C38.833,16.437799,35.3386,17.1709,32.105499,18.594C31.4275,17.340099,30.5762,16.188101,29.5765,15.172C27.9755,13.5406,26.0186,12.302,23.858999,11.553C25.054501,4.8544998,30.776501,0,37.496498,0C37.496498,0,37.496498,0,37.496498,0Z" fill="#F29700" fill-opacity="1"/></svg>