<svg xmlns="http://www.w3.org/2000/svg" xmlns:xlink="http://www.w3.org/1999/xlink" fill="none" version="1.1" width="85.01626586914062" height="85.01689910888672" viewBox="0 0 85.01626586914062 85.01689910888672"><path d="M42.4025,12.0134C42.302502,12.7134,42.202499,13.1634,42.202499,13.5634C42.102501,18.263399,40.252499,22.3634,37.6525,26.163401C35.952499,28.6134,34.1525,31.013399,32.4025,33.413399C32.052502,33.8634,31.8025,34.413399,31.502501,34.913399C31.9025,35.013401,32.052502,34.963402,32.1525,34.8634C35.002499,32.8134,37.9025,30.8134,40.752499,28.7134C43.302502,26.8634,45.952499,25.1134,47.852501,22.513399C48.952499,21.013399,49.4025,19.3634,48.6525,17.7134C47.4025,15.1134,45.202499,13.4634,42.4025,12.0134C42.4025,12.0134,42.4025,12.0134,42.4025,12.0134C42.4025,12.0134,42.4025,12.0134,42.4025,12.0134ZM24.502501,54.013401C25.002501,53.713402,25.202499,53.6134,25.4025,53.463402C28.602501,50.5634,31.702499,47.513401,35.002499,44.713402C38.452499,41.763401,42.352501,39.413399,46.4025,37.3634C50.202499,35.463402,54.052502,33.663399,57.802502,31.7134C60.552502,30.3134,63.002499,28.413401,65.002502,26.0634C65.952499,24.913401,66.602501,23.663401,66.852501,22.163401C67.402496,18.763399,65.802498,16.3134,63.702499,14.0134C62.452499,12.6634,62.252499,12.7134,61.502499,14.3634C59.302502,19.263399,55.802502,23.1134,51.6525,26.3634C47.052502,29.913401,42.302502,33.3634,37.702499,36.913399C32.302502,41.1134,28.202499,46.3634,25.1525,52.463402C24.9025,52.8134,24.8025,53.263401,24.502501,54.013401C24.502501,54.013401,24.502501,54.013401,24.502501,54.013401C24.502501,54.013401,24.502501,54.013401,24.502501,54.013401ZM74.152496,24.513399C73.902496,24.9634,73.702499,25.263399,73.552498,25.6134C71.752502,29.3634,69.002502,32.3134,65.202499,34.0634C60.9025,36.0634,56.452499,37.663399,52.1525,39.5634C47.802502,41.513401,43.4025,43.3634,39.252499,45.663399C35.002499,48.013401,31.3025,51.213402,28.002501,54.8134C27.1525,55.763401,26.352501,56.763401,25.5525,57.763401C25.5525,57.763401,25.8025,57.963402,25.8025,57.963402C26.1525,57.763401,26.502501,57.6134,26.852501,57.3634C30.102501,54.913399,33.752499,53.213402,37.502499,51.663399C44.602501,48.763401,52.102501,47.263401,59.502499,45.3134C63.552502,44.213402,67.552498,43.0634,71.202499,40.8134C77.002502,37.263401,76.952499,29.663401,74.152496,24.513399C74.152496,24.513399,74.152496,24.513399,74.152496,24.513399C74.152496,24.513399,74.152496,24.513399,74.152496,24.513399ZM20.0525,73.513397C20.0525,73.513397,20.4025,73.3134,20.4025,73.3134C20.252501,72.763397,20.1525,72.163399,19.952499,71.663399C16.502501,62.213402,17.9025,53.163399,22.202499,44.413399C24.602501,39.513401,27.352501,34.763401,29.9025,29.9634C31.4025,27.2134,32.4025,24.263399,32.802502,21.163401C33.1525,18.8134,33.052502,16.4634,31.9025,14.0134C31.6525,14.4634,31.452499,14.6634,31.352501,14.9634C29.9025,17.8134,28.752501,20.913401,26.952499,23.513399C23.702499,28.163401,20.0525,32.513401,16.502501,37.013401C14.5525,39.463402,12.8525,42.1134,11.7025,45.0634C10.2025,49.013401,10.2025,53.1134,11.1525,57.213402C12.4525,62.5634,14.6525,67.463402,18.1525,71.713402C18.702499,72.363403,19.4025,72.913399,20.0525,73.513397C20.0525,73.513397,20.0525,73.513397,20.0525,73.513397C20.0525,73.513397,20.0525,73.513397,20.0525,73.513397ZM81.002502,43.263401C81.002502,43.263401,80.552498,43.013401,80.552498,43.013401C80.302498,43.163399,80.002502,43.3134,79.752502,43.463402C77.502502,44.5634,75.352501,45.8634,73.052498,46.663399C65.652496,49.163399,57.952499,50.5634,50.302502,52.1134C46.052502,52.963402,41.802502,53.8634,37.6525,55.0634C34.602501,55.963402,31.6525,57.163399,28.852501,58.663399C25.952499,60.163399,23.8025,62.513401,23.5525,66.0634C23.3025,69.863403,25.752501,73.0634,30.002501,74.513397C35.552502,76.413399,40.702499,75.413399,45.6525,72.5634C47.6525,71.413399,49.252499,69.913399,50.302502,67.8134C51.802502,64.863403,50.852501,62.1134,47.702499,61.263401C45.9025,60.763401,43.9025,60.913399,42.002499,60.8134C41.752499,60.8134,41.502499,61.013401,41.102501,61.163399C41.352501,61.513401,41.552502,61.763401,41.752499,61.963402C43.702499,64.263397,43.502499,66.863403,41.252499,68.863403C39.002499,70.8134,36.302502,71.513397,33.4025,71.363403C31.352501,71.263397,29.452499,70.513397,28.102501,68.863403C25.752501,65.963402,26.9025,62.3634,30.6525,60.463402C34.102501,58.6134,37.952499,57.5634,41.9025,57.413399C46.252499,57.263401,50.6525,57.413399,55.002499,57.513401C59.102501,57.6134,63.202499,58.013401,67.252502,57.8134C72.952499,57.6134,77.302498,55.0634,79.252502,49.463402C79.952499,47.463402,80.402496,45.3134,81.002502,43.263401C81.002502,43.263401,81.002502,43.263401,81.002502,43.263401C81.002502,43.263401,81.002502,43.263401,81.002502,43.263401ZM0.0024647322,42.1134C0.15246499,19.013399,19.3025,-0.58657807,43.6525,0.013421549C66.502502,0.56342196,85.602501,19.5634,85.002502,43.8134C84.452499,66.263397,65.502502,85.3134,41.9025,85.013397C18.5525,84.663399,-0.24753501,65.3134,0.0024647322,42.1134Z" fill="#CC291F" fill-opacity="1"/></svg>