<svg xmlns="http://www.w3.org/2000/svg" xmlns:xlink="http://www.w3.org/1999/xlink" fill="none" version="1.1" width="85" height="84.699951171875" viewBox="0 0 85 84.699951171875"><path d="M81.59945683886718,42.299610375C81.59945683886718,63.799610375,64.09946083886719,81.249611375,42.49945783886719,81.249611375C20.899459838867188,81.249611375,3.3994598388671875,63.799610375,3.3994598388671875,42.299610375C3.3994598388671875,20.799610375,20.899459838867188,3.349609375,42.49945783886719,3.349609375C64.09946083886719,3.349609375,81.59945683886718,20.799610375,81.59945683886718,42.299610375C81.59945683886718,42.299610375,81.59945683886718,42.299610375,81.59945683886718,42.299610375Z" fill="#F8C213" fill-opacity="1"/><path d="M42.5,81.25C64.099998,81.25,81.599998,63.799999,81.599998,42.299999C81.599998,20.799999,64.099998,3.3499999,42.5,3.3499999C20.9,3.3499999,3.4000001,20.799999,3.4000001,42.299999C3.4000001,63.799999,20.9,81.25,42.5,81.25C42.5,81.25,42.5,81.25,42.5,81.25C42.5,81.25,42.5,81.25,42.5,81.25ZM42.5,0C65.949997,0,85,18.950001,85,42.349998C85,65.75,65.949997,84.699997,42.5,84.699997C19.049999,84.699997,0,65.699997,0,42.299999C0,18.950001,19.049999,0,42.5,0C42.5,0,42.5,0,42.5,0C42.5,0,42.5,0,42.5,0ZM25.5,40.900002C22.5,40.150002,19.85,43.650002,18.35,46.299999C18.9,42.650002,23.35,36.75,25.5,40.900002C25.5,40.900002,25.5,40.900002,25.5,40.900002ZM18.65,40.75C19.700001,37.150002,22.1,35.849998,23.4,36.900002C21.65,37.5,20.35,38.549999,18.65,40.75C18.65,40.75,18.65,40.75,18.65,40.75ZM26.6,46.5C25.5,43.349998,21,46.950001,19.450001,48.900002C19.85,45.400002,23.75,42.200001,25.6,42.650002C28,43.25,28.15,45.200001,26.6,46.5C26.6,46.5,26.6,46.5,26.6,46.5ZM50.900002,55.700001C51.150002,51.150002,46.75,49,45.900002,44.349998C45.049999,39.700001,52.799999,32.200001,47.900002,24.549999C57.099998,32,49.900002,36.400002,54.549999,42.599998C52.75,42.049999,50.950001,40.450001,50.450001,39.599998C47.849998,43,56.799999,47.700001,50.900002,55.700001C50.900002,55.700001,50.900002,55.700001,50.900002,55.700001C50.900002,55.700001,50.900002,55.700001,50.900002,55.700001ZM35.799999,18.799999C36.900002,18.799999,38.799999,19.549999,38,20.450001C35.450001,22.85,31.950001,21.9,29.200001,24.299999C30.35,21.25,35.349998,20.85,35.799999,18.799999C35.799999,18.799999,35.799999,18.799999,35.799999,18.799999ZM32.650002,28.85C33.25,28.85,33.799999,27.4,35,26.75C33.849998,26.799999,33.200001,26.75,32.799999,26.75C33.450001,28.35,32.349998,28.9,31.9,27.75C32,28.4,32.299999,28.85,32.650002,28.85C32.650002,28.85,32.650002,28.85,32.650002,28.85ZM44.099998,22.200001C43.200001,23.200001,39.049999,24.6,37.849998,26C42.400002,25.9,37.150002,28.299999,35.599998,33.700001C34.950001,36.099998,29.5,35.349998,28.700001,34.099998C30.049999,34.400002,34.349998,33.450001,36,27.75C36.049999,27.6,35.900002,27.549999,35.799999,27.700001C33.700001,30,32.150002,30.4,31.25,29.799999C30.299999,30.6,29.85,31.15,29,32.700001C27.450001,31.299999,28.15,30.1,29.65,28.700001C29.85,28.5,29.6,28.25,29.35,28.1C28,27.5,27.700001,25.65,29.1,24.9C28.700001,26.15,30.049999,26.799999,31.200001,25.799999C32.400002,24.700001,34.299999,26.299999,36.75,25.35C37,21.5,44.400002,21.049999,39.799999,18.799999C44.200001,19.35,45.200001,21,44.099998,22.200001C44.099998,22.200001,44.099998,22.200001,44.099998,22.200001C44.099998,22.200001,44.099998,22.200001,44.099998,22.200001ZM46.700001,19.4C46.299999,18.200001,47.5,14.95,48.349998,15.45C50.299999,16.5,51.599998,21.15,51.349998,23.5C49.900002,21.799999,48.900002,20.85,46.700001,19.4C46.700001,19.4,46.700001,19.4,46.700001,19.4ZM11.25,37.900002C12.65,34.200001,16.15,29.75,21.799999,26.4C23.1,23.1,22.65,20.799999,36.349998,15.55C36.700001,13.55,36.599998,11.15,37.200001,11.15C37.799999,11.15,39.799999,12.05,41.25,14.1C41.849998,14.05,42.400002,13.95,42.75,13.9C43,12.75,43.799999,9.5,44.900002,7.9000001C45.900002,6.3499999,47.799999,6.1999998,50.25,8.1999998C52.799999,10.25,54.599998,11.1,58.099998,15.55C61.049999,16.85,65.650002,18.549999,69.650002,23.4C67.900002,22.25,65.949997,21.85,64.349998,21.65C67.599998,24.5,69.75,29.15,68.099998,35.950001C67.449997,29.549999,62.75,26.9,59.849998,24.9C61.400002,30.299999,54.599998,28.450001,52.549999,24.4C53.25,24.6,53.950001,24.6,54.349998,24.299999C54.150002,16.1,50.25,11.35,48.5,9.8999996C46.299999,8.1000004,45.099998,12.5,44.299999,15.8C44.049999,16.9,43.099998,17.700001,41.900002,17.65C42.150002,17.25,42.5,16.200001,42.549999,15.85C39.099998,16.1,35.25,18.15,32.849998,19.200001C26.799999,21.9,25.299999,23.25,23.950001,27.799999C19.1,29.799999,13.55,35.299999,11.25,37.900002C11.25,37.900002,11.25,37.900002,11.25,37.900002C11.25,37.900002,11.25,37.900002,11.25,37.900002ZM41.25,36.950001C41.900002,37.700001,45.900002,43.650002,41.299999,51.25C42.549999,45.700001,39.049999,35,35.200001,40.450001C37.849998,41.599998,38.700001,43.700001,38,45.75C36.900002,43.75,34.200001,41.650002,31.5,42.5C30.15,42.950001,28.35,42.950001,27,41C25.25,38.450001,28.200001,35.349998,23.200001,35.599998C29.25,32.549999,27.5,38.450001,30.4,39.150002C33.799999,39.950001,34.200001,37.900002,35.349998,36.549999C36.299999,35.450001,38,34.599998,39.849998,35.799999C40.700001,33.200001,39.450001,29.049999,41.900002,26.9C42.799999,26.1,45.700001,26.200001,47.200001,27.4C45,27.35,42.5,29.85,41.25,36.950001C41.25,36.950001,41.25,36.950001,41.25,36.950001C41.25,36.950001,41.25,36.950001,41.25,36.950001ZM27.549999,60.950001C28.299999,60.650002,28.950001,59.5,28.950001,59.5C28.950001,59.5,27.549999,59.200001,26.549999,58.549999C26.450001,59.650002,27.25,60.700001,27.549999,60.950001C27.549999,60.950001,27.549999,60.950001,27.549999,60.950001ZM33.599998,54.349998C33.299999,55.400002,33.349998,56.400002,32.849998,56.900002C35.849998,55.450001,37.099998,54.799999,37.349998,52.849998C37.450001,52.099998,35.349998,51.900002,34.849998,52C35.25,52.5,35.799999,54.099998,35.299999,54.5C34.700001,54.900002,34.200001,54.400002,33.599998,54.349998C33.599998,54.349998,33.599998,54.349998,33.599998,54.349998ZM21.6,52.75C21.6,53.900002,23.950001,55.349998,23.950001,55.349998C23.950001,55.349998,23.35,53,23.5,51.299999C23,51.349998,21.85,52.150002,21.6,52.75C21.6,52.75,21.6,52.75,21.6,52.75ZM13.95,45.150002C14.85,44.549999,14.55,43.849998,14.4,43.599998C14.2,43.150002,13.1,42.849998,13.45,41.849998C13.65,41.200001,14.4,41.200001,14.55,40.950001C14.65,40.700001,14.1,40.200001,13.25,40.450001C12.1,40.75,11.15,41.75,10.95,42C11.15,42.599998,12.85,44.349998,13.95,45.150002C13.95,45.150002,13.95,45.150002,13.95,45.150002C13.95,45.150002,13.95,45.150002,13.95,45.150002ZM72.150002,26.4C82.949997,45.799999,72.650002,70.599998,49.599998,75.849998C52.349998,72.300003,54.549999,67.300003,54.299999,65.599998C51.299999,67.75,45.450001,68.75,44.099998,68.050003C49.599998,63.099998,48.75,57.900002,45.549999,57.5C42.349998,57.099998,38.599998,62,38.900002,68.699997C36.200001,67.5,27.450001,69.199997,26.65,62.299999C25.65,60.799999,25.200001,58.25,25.549999,57.200001C33.400002,61.700001,30.049999,51.599998,34.799999,50.650002C34.299999,49.25,30.299999,46,25,51.299999C24.75,52.150002,24.799999,55.599998,25.200001,56.849998C22.75,56.5,20.799999,54.200001,20.4,53.599998C17.799999,53.349998,15.25,52.650002,12.8,46.099998C10.75,44.75,9.6999998,43.450001,8.9499998,41.950001C9,41.599998,9.25,39.950001,10.8,38.599998C10.8,38.599998,10.25,40,10.6,40.599998C14.75,37.299999,15.3,40.5,17.450001,40.049999C17.5,42.549999,14.9,44.25,15.05,46.700001C16.6,50.700001,17.6,51.099998,20.6,51.549999C24.200001,49.75,27.200001,45.700001,31.6,45.650002C35.150002,45.599998,39.650002,47.349998,40.400002,52.25C40.900002,55.75,33.349998,60.799999,30.4,59.799999C25.549999,65,33.700001,66.75,36.400002,65.949997C38.349998,57.049999,43.099998,54.5,46.900002,55.799999C51.049999,57.200001,51.650002,62.450001,48.799999,65.400002C51.099998,64.849998,54.450001,63.049999,55.599998,58.799999C56.5,59.75,56.799999,62,56.849998,62.799999C59.25,59.349998,58.5,51.700001,56.549999,48.799999C58.150002,48.900002,59.599998,49.5,61.150002,50.849998C62.25,45.25,58.599998,38.200001,56.950001,37.049999C58.049999,36.950001,59.599998,37.049999,61.700001,38.049999C61.150002,34.700001,58.150002,32.549999,58.150002,29.950001C59.349998,32.349998,65.849998,33,65.5,41.799999C64.75,41.099998,63.099998,40.349998,62.299999,40.25C64.599998,45.950001,64.449997,51.549999,63.25,55.5C62.75,54.700001,61.950001,53.75,61.200001,53.450001C61.950001,56.599998,61,65.25,58.799999,68.699997C73.349998,58.75,63.349998,43.549999,69.75,37.349998C68.400002,43.900002,71.75,49.5,71.400002,53.349998C74.349998,47.25,75.25,37,72.150002,26.4C72.150002,26.4,72.150002,26.4,72.150002,26.4C72.150002,26.4,72.150002,26.4,72.150002,26.4Z" fill="#231F20" fill-opacity="1"/></svg>