<svg xmlns="http://www.w3.org/2000/svg" xmlns:xlink="http://www.w3.org/1999/xlink" fill="none" version="1.1" width="85" height="85" viewBox="0 0 85 85"><path d="M42.299999,0C65.900002,0,85,19.049999,85,42.5C85,45.650002,84.599998,48.700001,84,51.5C70.5,51.099998,37.35,49.349998,40,46C42.15,43.25,51.200001,43.650002,58.5,38.650002C60.75,37.200001,54.950001,33.849998,46.900002,32.75C34.200001,31.200001,7.1500001,26.85,29.299999,23.799999C58.799999,19.700001,27.450001,14.7,10.5,14.1C18.3000002,5.5,29.6,0,42.299999,0C42.299999,0,42.299999,0,42.299999,0Z" fill="#0A6BAF" fill-opacity="1"/><path d="M79,64.200001C71.550003,76.599998,58.049999,85,42.5,85C19,85,0,66.049999,0,42.75C0,32.4,3.7,22.8000002,10,15.5C34.400002,18.05,34.200001,19.6999998,19.700001,22.3499999C0.300001,26.15,11.3,29.55,23.799999,32.4C30.15,33.75,36.700001,34.65,40.650002,37.5C44.25,40.049999,23.15,40.6,20.799999,46.299999C18.9,50.450001,42.900002,59.5,79,64.200001Z" fill="#17A252" fill-opacity="1"/></svg>