<svg xmlns="http://www.w3.org/2000/svg" xmlns:xlink="http://www.w3.org/1999/xlink" fill="none" version="1.1" width="85" height="50.122314453125" viewBox="0 0 85 50.122314453125"><defs><linearGradient x1="0.015459835529327393" y1="1.0024598836898804" x2="0.9269783988956427" y2="0.7403030471737249" id="master_svg0_0_4159"><stop offset="0%" stop-color="#F99D1C" stop-opacity="1"/><stop offset="100%" stop-color="#F26522" stop-opacity="1"/></linearGradient></defs><path d="M44.908198999996365,100.24490319116211C43.836898999996365,100.24490319116211,42.74779899999636,99.95820219116212,41.76539999999636,99.34690119116212C40.78959999999636,98.72910319116211,40.04280099999636,97.88220219116211,39.57829999999636,96.91980319116212C39.57829999999636,96.91980319116212,32.37699899999636,82.0460011911621,32.37699899999636,82.0460011911621C32.37699899999636,82.0460011911621,30.86109899999636,82.0460011911621,30.86109899999636,82.0460011911621C30.48329899999636,82.0460011911621,30.09659999999636,82.13270219116211,29.749799999996362,82.3372041911621C29.394198999996362,82.5417021911621,29.12529899999636,82.8328021911621,28.929700999996363,83.14840319116212C28.929700999996363,83.14840319116212,20.26589999999636,96.37530119116211,20.26589999999636,96.37530119116211C18.86339999999636,98.50010319116211,16.960898999996363,100.24490319116211,13.657999999996361,100.24490319116211C13.657999999996361,100.24490319116211,1.251309999996362,100.24490319116211,1.251309999996362,100.24490319116211C1.251309999996362,100.24490319116211,-3.637978807091713e-12,97.65110419116212,-3.637978807091713e-12,97.65110419116212C0.651229979996362,97.65110419116212,2.107029899996362,97.61330019116211,3.598409899996362,95.22620419116211C3.598409899996362,95.22620419116211,19.79919999999636,70.51280219116211,19.79919999999636,70.51280219116211C20.15920099999636,69.90160219116211,20.67709899999636,69.3704011911621,21.346099999996362,68.98810219116211C22.00629999999636,68.60580219116211,22.72190099999636,68.43240119116211,23.43530099999636,68.43240119116211C23.43530099999636,68.43240119116211,25.700198999996363,68.43240119116211,25.700198999996363,68.43240119116211C25.700198999996363,68.43240119116211,25.77349999999636,68.43240119116211,25.77349999999636,68.43240119116211C25.77349999999636,68.43240119116211,18.95009999999636,54.34097239116211,18.95009999999636,54.34097239116211C18.51889999999636,53.47415209116211,18.53669899999636,52.40285229116211,19.094600999996363,51.51602219116211C19.64359999999636,50.61807918116211,20.59929999999636,50.12240219116211,21.57509999999636,50.12240219116211C21.57509999999636,50.12240219116211,58.60409899999636,50.12240219116211,58.60409899999636,50.12240219116211C59.21749899999636,50.12240219116211,59.82419999999636,50.29134118116211,60.377700999996364,50.64251619116211C60.93780099999636,50.99146920116211,61.34899899999636,51.46713219116211,61.617900999996365,52.01612219116211C61.617900999996365,52.01612219116211,67.34559599999636,63.84270219116211,67.34559599999636,63.84270219116211C67.34559599999636,63.84270219116211,40.63410199999636,63.84270219116211,40.63410199999636,63.84270219116211C40.63410199999636,63.84270219116211,42.82109799999636,68.32800319116211,42.82109799999636,68.32800319116211C42.82109799999636,68.32800319116211,67.43450199999636,68.32800319116211,67.43450199999636,68.32800319116211C68.03910099999636,68.32800319116211,68.64359999999637,68.4946021911621,69.20600099999636,68.8414021911621C69.75720199999637,69.18590119116212,70.17500299999637,69.66150319116211,70.43509699999636,70.21270219116211C70.43509699999636,70.21270219116211,76.17839799999636,82.05050319116211,76.17839799999636,82.05050319116211C76.17839799999636,82.05050319116211,49.53350099999636,82.05050319116211,49.53350099999636,82.05050319116211C49.53350099999636,82.05050319116211,51.72499799999636,86.52240419116211,51.72499799999636,86.52240419116211C51.72499799999636,86.52240419116211,76.25610399999636,86.52240419116211,76.25610399999636,86.52240419116211C76.86070299999636,86.52240419116211,77.47640199999636,86.6891021911621,78.03199799999636,87.03360319116211C78.58329799999636,87.3825031911621,78.99439999999636,87.86040119116211,79.26110099999636,88.40940119116212C79.26110099999636,88.40940119116212,84.99999999999636,100.24490319116211,84.99999999999636,100.24490319116211C84.99999999999636,100.24490319116211,44.908198999996365,100.24490319116211,44.908198999996365,100.24490319116211C44.908198999996365,100.24490319116211,44.908198999996365,100.24490319116211,44.908198999996365,100.24490319116211C44.908198999996365,100.24490319116211,44.908198999996365,100.24490319116211,44.908198999996365,100.24490319116211Z" fill="url(#master_svg0_0_4159)" fill-opacity="1" transform="matrix(1,0,0,-1,0,100.24480438232422)"/></svg>