<svg xmlns="http://www.w3.org/2000/svg" xmlns:xlink="http://www.w3.org/1999/xlink" fill="none" version="1.1" width="85" height="85" viewBox="0 0 85 85"><path d="M46.789001,72.466003C46.789001,72.466003,54.531502,80.218498,54.531502,80.218498C51.3815,83.183502,47.140499,85,42.487499,85C37.8405,85,33.599998,83.182999,30.444,80.218498C30.444,80.218498,38.190498,72.466003,38.190498,72.466003C40.989799,71.5905,43.9897,71.5905,46.789001,72.466003C46.789001,72.466003,46.789001,72.466003,46.789001,72.466003C46.789001,72.466003,46.789001,72.466003,46.789001,72.466003ZM63.0765,47.581001C65.875,46.706299,68.873596,46.704899,71.672997,47.577C71.672997,47.577,79.429497,55.327,79.429497,55.327C76.266998,58.292,72.030998,60.108501,67.376999,60.108501C62.7225,60.108501,58.482498,58.292,55.326,55.320999C58.2915,58.4865,60.110001,62.720001,60.110001,67.375C60.110001,72.028503,58.290001,76.2715,55.325001,79.428497C55.325001,79.428497,47.577999,71.676498,47.577999,71.676498C46.701,68.874702,46.701,65.871803,47.577999,63.07C47.577999,63.07,55.325001,55.32,55.325001,55.32C55.325001,55.32,55.326,55.320999,55.326,55.320999C55.326,55.320999,63.0765,47.581001,63.0765,47.581001C63.0765,47.581001,63.0765,47.581001,63.0765,47.581001ZM21.916,47.606499C21.916,47.606499,29.6425,55.332001,29.6425,55.332001C29.6425,55.332001,29.654499,55.32,29.654499,55.32C29.654499,55.32,37.396999,63.07,37.396999,63.07C38.2705,65.870499,38.273899,68.870003,37.407001,71.672501C37.407001,71.672501,29.654499,79.422501,29.654499,79.422501C26.6915,76.2715,24.865499,72.028503,24.865499,67.375C24.865499,62.873501,26.571501,58.765999,29.362,55.639999C26.246,58.436501,22.122,60.139999,17.6145,60.139999C12.9725,60.139999,8.7314997,58.321499,5.5795002,55.359001C5.5795002,55.359001,13.3265,47.606499,13.3265,47.606499C16.1236,46.7369,19.1189,46.7369,21.916,47.606499C21.916,47.606499,21.916,47.606499,21.916,47.606499C21.916,47.606499,21.916,47.606499,21.916,47.606499ZM38.210999,22.714001C41.008999,21.8447,44.005001,21.8447,46.803001,22.714001C46.803001,22.714001,54.526001,30.445499,54.526001,30.445499C54.526001,30.445499,54.535999,30.4345,54.535999,30.4345C54.535999,30.4345,62.291,38.184502,62.291,38.184502C63.1604,40.9841,63.1604,43.9814,62.291,46.780998C62.291,46.780998,54.535999,54.536999,54.535999,54.536999C51.571999,51.380001,49.755501,47.139,49.755501,42.484001C49.755501,37.9585,51.475498,33.816002,54.298,30.692499C51.175499,33.522499,47.0345,35.251499,42.501999,35.251499C37.855,35.251499,33.613998,33.429001,30.4585,30.465C30.4585,30.465,30.465,30.470501,30.465,30.470501C33.423,33.627499,35.244499,37.8675,35.244499,42.5135C35.244499,47.0145,33.539501,51.129501,30.7495,54.250999C33.870998,51.456501,37.988998,49.748501,42.487499,49.748501C47.140499,49.748501,51.3815,51.571499,54.531502,54.535999C54.531502,54.535999,46.789001,62.285999,46.789001,62.285999C43.9911,63.157501,40.9944,63.157501,38.196499,62.285999C38.196499,62.285999,30.469999,54.556499,30.469999,54.556499C30.469999,54.556499,30.459,54.569,30.459,54.569C30.459,54.569,22.7115,46.813,22.7115,46.813C21.8403,44.0158,21.8403,41.019699,22.7115,38.2225C22.7115,38.2225,30.459,30.4645,30.459,30.4645C30.459,30.4645,38.210999,22.714001,38.210999,22.714001C38.210999,22.714001,38.210999,22.714001,38.210999,22.714001ZM4.7800002,30.464001C4.7800002,30.464001,12.5295,38.216499,12.5295,38.216499C13.4007,41.0158,13.4007,44.013699,12.5295,46.813C12.5295,46.813,4.7795,54.569,4.7795,54.569C1.8164999,51.411499,0,47.168999,0,42.514C0,37.863998,1.8164999,33.6175,4.7800002,30.464001C4.7800002,30.464001,4.7800002,30.464001,4.7800002,30.464001ZM80.213501,30.434C83.175499,33.585999,85,37.8325,85,42.484001C85,47.139,83.175499,51.380001,80.213501,54.536999C80.213501,54.536999,72.468498,46.780998,72.468498,46.780998C71.597198,43.981701,71.597198,40.983799,72.468498,38.184502C72.468498,38.184502,80.213501,30.4345,80.213501,30.4345C80.213501,30.4345,80.213501,30.434,80.213501,30.434C80.213501,30.434,80.213501,30.434,80.213501,30.434ZM17.6145,24.8895C22.271999,24.8895,26.518999,26.712,29.6695,29.677C29.6695,29.677,21.922001,37.426998,21.922001,37.426998C19.123301,38.2985,16.1257,38.2985,13.327,37.426998C13.327,37.426998,5.5755,29.677,5.5755,29.677C8.7314997,26.712,12.9725,24.8895,17.6145,24.8895C17.6145,24.8895,17.6145,24.8895,17.6145,24.8895ZM55.3395,5.5770001C58.304501,8.7279997,60.1245,12.9755,60.1245,17.6245C60.1245,22.153,58.400002,26.2925,55.573502,29.421C58.699001,26.5905,62.841,24.8575,67.376999,24.8575C72.030998,24.8575,76.266998,26.682501,79.429497,29.645C79.429497,29.645,71.679001,37.395,71.679001,37.395C68.877701,38.266499,65.8778,38.266499,63.0765,37.395C63.0765,37.395,55.349499,29.665001,55.349499,29.665001C55.349499,29.665001,55.3395,29.675501,55.3395,29.675501C55.3395,29.675501,47.592499,21.9205,47.592499,21.9205C46.715599,19.122601,46.715599,16.1234,47.592499,13.3255C47.592499,13.3255,55.339001,5.5770001,55.339001,5.5770001C55.339001,5.5770001,55.3395,5.5770001,55.3395,5.5770001C55.3395,5.5770001,55.3395,5.5770001,55.3395,5.5770001ZM29.669001,5.5770001C29.669001,5.5770001,37.411499,13.326,37.411499,13.326C38.2864,16.126101,38.2864,19.1264,37.411499,21.9265C37.411499,21.9265,29.669001,29.675501,29.669001,29.675501C26.7055,26.518999,24.879999,22.277,24.879999,17.6245C24.879999,12.9755,26.7055,8.7279997,29.669001,5.5770001C29.669001,5.5770001,29.669001,5.5770001,29.669001,5.5770001C29.669001,5.5770001,29.669001,5.5770001,29.669001,5.5770001ZM42.501999,0C47.154999,0,51.399502,1.8225,54.551998,4.7865C54.551998,4.7865,46.803001,12.5355,46.803001,12.5355C44.0037,13.4097,41.004299,13.4097,38.205002,12.5355C38.205002,12.5355,30.4585,4.7865,30.4585,4.7865C33.613998,1.8225,37.855,0,42.501999,0C42.501999,0,42.501999,0,42.501999,0Z" fill="#A72226" fill-opacity="1"/><path d="M46.789001,72.466003C46.789001,72.466003,54.531502,80.218498,54.531502,80.218498C51.3815,83.183502,47.140499,85,42.487499,85C37.8405,85,33.599998,83.182999,30.444,80.218498C30.444,80.218498,38.190498,72.466003,38.190498,72.466003C40.989799,71.5905,43.9897,71.5905,46.789001,72.466003C46.789001,72.466003,46.789001,72.466003,46.789001,72.466003C46.789001,72.466003,46.789001,72.466003,46.789001,72.466003ZM63.0765,47.581001C65.875,46.706299,68.873596,46.704899,71.672997,47.577C71.672997,47.577,79.429497,55.327,79.429497,55.327C76.266998,58.292,72.030998,60.108501,67.376999,60.108501C62.7225,60.108501,58.482498,58.292,55.326,55.320999C58.2915,58.4865,60.110001,62.720001,60.110001,67.375C60.110001,72.028503,58.290001,76.2715,55.325001,79.428497C55.325001,79.428497,47.577999,71.676498,47.577999,71.676498C46.701,68.874702,46.701,65.871803,47.577999,63.07C47.577999,63.07,55.325001,55.32,55.325001,55.32C55.325001,55.32,55.326,55.320999,55.326,55.320999C55.326,55.320999,63.0765,47.581001,63.0765,47.581001C63.0765,47.581001,63.0765,47.581001,63.0765,47.581001ZM21.916,47.606499C21.916,47.606499,29.6425,55.332001,29.6425,55.332001C29.6425,55.332001,29.654499,55.32,29.654499,55.32C29.654499,55.32,37.396999,63.07,37.396999,63.07C38.2705,65.870499,38.273899,68.870003,37.407001,71.672501C37.407001,71.672501,29.654499,79.422501,29.654499,79.422501C26.6915,76.2715,24.865499,72.028503,24.865499,67.375C24.865499,62.873501,26.571501,58.765999,29.362,55.639999C26.246,58.436501,22.122,60.139999,17.6145,60.139999C12.9725,60.139999,8.7314997,58.321499,5.5795002,55.359001C5.5795002,55.359001,13.3265,47.606499,13.3265,47.606499C16.1236,46.7369,19.1189,46.7369,21.916,47.606499C21.916,47.606499,21.916,47.606499,21.916,47.606499C21.916,47.606499,21.916,47.606499,21.916,47.606499ZM38.210999,22.714001C41.008999,21.8447,44.005001,21.8447,46.803001,22.714001C46.803001,22.714001,54.526001,30.445499,54.526001,30.445499C54.526001,30.445499,54.535999,30.4345,54.535999,30.4345C54.535999,30.4345,62.291,38.184502,62.291,38.184502C63.1604,40.9841,63.1604,43.9814,62.291,46.780998C62.291,46.780998,54.535999,54.536999,54.535999,54.536999C51.571999,51.380001,49.755501,47.139,49.755501,42.484001C49.755501,37.9585,51.475498,33.816002,54.298,30.692499C51.175499,33.522499,47.0345,35.251499,42.501999,35.251499C37.855,35.251499,33.613998,33.429001,30.4585,30.465C30.4585,30.465,30.465,30.470501,30.465,30.470501C33.423,33.627499,35.244499,37.8675,35.244499,42.5135C35.244499,47.0145,33.539501,51.129501,30.7495,54.250999C33.870998,51.456501,37.988998,49.748501,42.487499,49.748501C47.140499,49.748501,51.3815,51.571499,54.531502,54.535999C54.531502,54.535999,46.789001,62.285999,46.789001,62.285999C43.9911,63.157501,40.9944,63.157501,38.196499,62.285999C38.196499,62.285999,30.469999,54.556499,30.469999,54.556499C30.469999,54.556499,30.459,54.569,30.459,54.569C30.459,54.569,22.7115,46.813,22.7115,46.813C21.8403,44.0158,21.8403,41.019699,22.7115,38.2225C22.7115,38.2225,30.459,30.4645,30.459,30.4645C30.459,30.4645,38.210999,22.714001,38.210999,22.714001C38.210999,22.714001,38.210999,22.714001,38.210999,22.714001ZM4.7800002,30.464001C4.7800002,30.464001,12.5295,38.216499,12.5295,38.216499C13.4007,41.0158,13.4007,44.013699,12.5295,46.813C12.5295,46.813,4.7795,54.569,4.7795,54.569C1.8164999,51.411499,0,47.168999,0,42.514C0,37.863998,1.8164999,33.6175,4.7800002,30.464001C4.7800002,30.464001,4.7800002,30.464001,4.7800002,30.464001ZM80.213501,30.434C83.175499,33.585999,85,37.8325,85,42.484001C85,47.139,83.175499,51.380001,80.213501,54.536999C80.213501,54.536999,72.468498,46.780998,72.468498,46.780998C71.597198,43.981701,71.597198,40.983799,72.468498,38.184502C72.468498,38.184502,80.213501,30.4345,80.213501,30.4345C80.213501,30.4345,80.213501,30.434,80.213501,30.434C80.213501,30.434,80.213501,30.434,80.213501,30.434ZM17.6145,24.8895C22.271999,24.8895,26.518999,26.712,29.6695,29.677C29.6695,29.677,21.922001,37.426998,21.922001,37.426998C19.123301,38.2985,16.1257,38.2985,13.327,37.426998C13.327,37.426998,5.5755,29.677,5.5755,29.677C8.7314997,26.712,12.9725,24.8895,17.6145,24.8895C17.6145,24.8895,17.6145,24.8895,17.6145,24.8895ZM55.3395,5.5770001C58.304501,8.7279997,60.1245,12.9755,60.1245,17.6245C60.1245,22.153,58.400002,26.2925,55.573502,29.421C58.699001,26.5905,62.841,24.8575,67.376999,24.8575C72.030998,24.8575,76.266998,26.682501,79.429497,29.645C79.429497,29.645,71.679001,37.395,71.679001,37.395C68.877701,38.266499,65.8778,38.266499,63.0765,37.395C63.0765,37.395,55.349499,29.665001,55.349499,29.665001C55.349499,29.665001,55.3395,29.675501,55.3395,29.675501C55.3395,29.675501,47.592499,21.9205,47.592499,21.9205C46.715599,19.122601,46.715599,16.1234,47.592499,13.3255C47.592499,13.3255,55.339001,5.5770001,55.339001,5.5770001C55.339001,5.5770001,55.3395,5.5770001,55.3395,5.5770001C55.3395,5.5770001,55.3395,5.5770001,55.3395,5.5770001ZM29.669001,5.5770001C29.669001,5.5770001,37.411499,13.326,37.411499,13.326C38.2864,16.126101,38.2864,19.1264,37.411499,21.9265C37.411499,21.9265,29.669001,29.675501,29.669001,29.675501C26.7055,26.518999,24.879999,22.277,24.879999,17.6245C24.879999,12.9755,26.7055,8.7279997,29.669001,5.5770001C29.669001,5.5770001,29.669001,5.5770001,29.669001,5.5770001C29.669001,5.5770001,29.669001,5.5770001,29.669001,5.5770001ZM42.501999,0C47.154999,0,51.399502,1.8225,54.551998,4.7865C54.551998,4.7865,46.803001,12.5355,46.803001,12.5355C44.0037,13.4097,41.004299,13.4097,38.205002,12.5355C38.205002,12.5355,30.4585,4.7865,30.4585,4.7865C33.613998,1.8225,37.855,0,42.501999,0C42.501999,0,42.501999,0,42.501999,0Z" fill="#A72226" fill-opacity="1"/></svg>