<svg xmlns="http://www.w3.org/2000/svg" xmlns:xlink="http://www.w3.org/1999/xlink" fill="none" version="1.1" width="76" height="77.50664520263672" viewBox="0 0 76 77.50664520263672"><path d="M0,12.4188C0,5.5575399,5.4446802,0,12.1744,0C12.1744,0,12.1752,0.00025835799,12.1752,0.00025835799C12.1752,0.00025835799,63.828602,0.00025835799,63.828602,0.00025835799C70.552803,0.00025835799,76,5.5577998,76,12.419C76,12.419,76,52.596298,76,52.596298C75.633102,52.552101,72.790497,52.1292,62.6478,48.6679C60.684502,47.997398,58.288101,47.096802,55.612801,46.091499C54.144501,45.5397,52.592201,44.956299,50.9814,44.362099C53.713001,39.523899,55.888901,34.012299,57.322102,28.024599C57.322102,28.024599,42.345299,28.024599,42.345299,28.024599C42.345299,28.024599,42.345299,22.5208,42.345299,22.5208C42.345299,22.5208,60.693501,22.5208,60.693501,22.5208C60.693501,22.5208,60.693501,19.4487,60.693501,19.4487C60.693501,19.4487,42.345299,19.4487,42.345299,19.4487C42.345299,19.4487,42.345299,10.2749,42.345299,10.2749C42.345299,10.2749,34.854198,10.2749,34.854198,10.2749C33.540001,10.2749,33.540001,11.5975,33.540001,11.5975C33.540001,11.5975,33.540001,19.4487,33.540001,19.4487C33.540001,19.4487,14.98,19.4487,14.98,19.4487C14.98,19.4487,14.98,22.5208,14.98,22.5208C14.98,22.5208,33.540001,22.5208,33.540001,22.5208C33.540001,22.5208,33.540001,28.024599,33.540001,28.024599C33.540001,28.024599,18.216101,28.024599,18.216101,28.024599C18.216101,28.024599,18.216101,31.0942,18.216101,31.0942C18.216101,31.0942,47.9342,31.0942,47.9342,31.0942C46.847301,34.9156,45.388,38.5047,43.653301,41.763599C34.0098,38.518101,23.7208,35.8867,17.2556,37.506599C13.1228,38.5452,10.46,40.400501,8.8945999,42.3423C1.71542,51.250801,6.8642101,64.7836,22.026199,64.7836C30.992599,64.7836,39.628399,59.6856,46.3237,51.282799C56.247799,56.149502,75.772797,64.455002,75.999199,64.5513C75.999199,64.5513,75.999199,65.090202,75.999199,65.090202C75.999199,71.946297,70.5522,77.506599,63.827801,77.506599C63.827801,77.506599,12.1744,77.506599,12.1744,77.506599C5.4446802,77.506599,0,71.945999,0,65.090202C0,65.090202,0,12.4188,0,12.4188C0,12.4188,0,12.4188,0,12.4188ZM18.5453,42.1036C19.204,42.037399,19.8577,42.001202,20.508499,41.993599C20.508499,41.993599,20.5084,41.9935,20.5084,41.9935C26.7997,41.919102,32.7897,44.487202,39.743999,47.947899C34.3498,55.1227,27.483101,59.603699,20.6106,59.603699C8.7881002,59.603699,5.2919998,50.1059,11.1332,44.910599C13.082,43.152802,16.6467,42.298302,18.5453,42.1036C18.5453,42.1036,18.5453,42.1036,18.5453,42.1036Z" fill-rule="evenodd" fill="#00A1E9" fill-opacity="1"/></svg>