<svg xmlns="http://www.w3.org/2000/svg" xmlns:xlink="http://www.w3.org/1999/xlink" fill="none" version="1.1" width="84.78607940673828" height="85.00000762939453" viewBox="0 0 84.78607940673828 85.00000762939453"><path d="M84.781197,42.499699C85.127602,65.481903,66.303001,85.114998,42.3969,84.999496C18.7218,84.884003,-0.56480497,65.8284,0.012637502,41.229401C0.70556802,18.9401,18.837299,0,42.627899,0C66.995903,0.115488,85.127602,20.4415,84.781197,42.499699C84.781197,42.499699,84.781197,42.499699,84.781197,42.499699ZM40.3181,54.741501C42.627899,52.778198,44.706699,53.009201,46.669998,53.2402C50.134602,53.586601,51.636002,52.316299,51.982399,48.2742C52.0979,46.541801,51.982399,44.809502,51.982399,43.077202C51.982399,39.497002,49.903599,37.187302,46.438999,36.956299C43.782799,36.840801,41.126499,36.840801,38.470299,36.956299C35.467602,37.187302,33.2733,39.381599,33.2733,42.153301C33.2733,45.502399,33.157799,48.967098,33.388802,52.316299C33.8508,58.2062,35.3521,63.749599,40.3181,67.560699C49.210701,74.374603,61.914398,72.411301,69.305702,62.9412C79.1222,50.468399,78.313797,31.528299,67.111397,20.210501C57.525902,10.5094,45.8615,7.9686999,32.9268,11.3179C20.8006,14.5515,12.9473,22.520201,9.9446402,34.762001C7.4039001,45.2715,9.8291597,54.856998,17.2204,62.9412C18.2598,64.0961,19.6457,64.904503,20.8006,65.943901C20.916,65.8284,21.0315,65.712898,21.146999,65.481903C20.685101,64.789001,20.3386,64.211601,19.8766,63.5186C16.181,57.975201,14.2177,51.969799,15.3726,45.155998C16.5275,38.111198,19.9921,32.9142,27.152399,30.604401C27.8454,30.373501,28.653799,29.911501,29.0002,29.334101C31.771999,25.061001,35.929501,23.0977,40.780102,22.6357C47.478401,21.942801,53.2528,23.7906,57.179401,29.6805C57.641399,30.257999,58.449799,30.8354,59.258202,31.066401C63.762299,32.683201,67.111397,35.455002,68.150803,40.074501C68.843803,43.192699,69.190201,46.426399,68.959198,49.66C68.612801,56.4739,64.108704,61.901798,57.641399,63.865101C52.790901,65.250999,48.517799,63.749599,45.977001,59.476601C44.822201,57.3978,43.898201,54.9725,40.3181,54.741501C40.3181,54.741501,40.3181,54.741501,40.3181,54.741501C40.3181,54.741501,40.3181,54.741501,40.3181,54.741501Z" fill="#BA8847" fill-opacity="1"/></svg>