<svg xmlns="http://www.w3.org/2000/svg" xmlns:xlink="http://www.w3.org/1999/xlink" fill="none" version="1.1" width="85.003662109375" height="85" viewBox="0 0 85.003662109375 85"><path d="M71.8249151496687,42.7318C71.2183091496687,42.179298,70.60781314966869,41.630699,70.00901214966869,41.0704C67.3238081496687,38.570702,64.6540091496687,36.055401,61.953310149668695,33.575001C61.19811014966869,32.858501,60.214010149668695,32.4319,59.17490914966869,32.370399C58.13570914966869,32.308899,57.108209149668696,32.616501,56.27381314966869,33.238899C51.28971314966869,36.762501,46.317213149668696,40.297699,41.34081014966869,43.825199C41.34081014966869,43.825199,40.9313101496687,44.095699,40.9313101496687,44.095699C40.9313101496687,44.095699,40.85791214966869,44.018398,40.85791214966869,44.018398C40.85791214966869,44.018398,42.44191114966869,42.040199,42.44191114966869,42.040199C42.44191114966869,42.040199,52.29041114966869,29.7654,52.29041114966869,29.7654C53.171312149668694,28.6682,53.51131214966869,27.416401,53.10171314966869,26.0564C52.914110149668694,25.526501,52.615011149668696,25.0429,52.224710149668695,24.638399C50.20791014966869,22.4168,48.16011214966869,20.226101,46.12401014966869,18.023899C46.12401014966869,18.023899,45.86901214966869,17.707001,45.86901214966869,17.707001C46.11240914966869,17.815201,46.232210149668695,17.853901,46.332613149668695,17.915701C49.524011149668695,19.832001,52.707613149668695,21.7523,55.895113149668695,23.672501C56.513311149668695,24.0434,57.19721014966869,24.360201,57.88881114966869,24.174801C58.5842111496687,23.985399,59.23331214966869,23.5952,59.866911149668695,23.232C61.29651014966869,22.4207,62.69901114966869,21.5707,64.2251141496687,20.670401C64.15561114966869,20.9139,64.1247121496687,21.049101,64.0783101496687,21.180401C63.49491314966869,22.806999,62.923113149668694,24.441401,62.312612149668695,26.0602C61.9649101496687,26.975901,62.10011114966869,27.7679,62.63721214966869,28.5793C65.6856091496687,33.180901,68.7031111496687,37.797901,71.73221014966869,42.411098C71.8046131496687,42.502899,71.8379071496687,42.619499,71.8249151496687,42.735699M82.9908081496687,54.952499C81.18651014966869,50.7141,78.6365141496687,46.950901,75.62281214966869,43.489101C74.8617111496687,42.612,74.63371414966869,41.510899,74.2667101496687,40.440701C76.23441514966869,42.350601,78.1252081496687,44.338001,79.93470914966869,46.398399C81.7042101496687,48.461601,83.31151014966869,50.656101,84.9806081496687,52.781101C84.9806081496687,52.781101,84.9806081496687,0,84.9806081496687,0C84.9806081496687,0,0.023111149668693542,0,0.023111149668693542,0C0.023111149668693542,0,0.023111149668693542,21.6364,0.023111149668693542,21.6364C0.8847021296686935,21.021999,1.6922011496686935,20.380699,2.5653810496686935,19.8398C3.4540212496686937,19.2911,4.373561149668694,18.7889,5.3240211496686936,18.3561C9.002200849668693,16.694799,12.912211149668693,16.022499,16.914911149668693,15.8448C22.722011149668692,15.582,28.405410149668693,16.4282,34.01540914966869,17.8654C37.338110149668694,18.715401,40.57971014966869,19.828199,43.79041114966869,21.0452C44.69441014966869,21.389099,44.991911149668695,22.0189,45.36671214966869,22.853399C44.93401114966869,22.6989,44.617212149668696,22.582899,44.29651014966869,22.4786C44.29651014966869,22.4786,43.26881214966869,22.138599,43.26881214966869,22.138599C37.99491314966869,20.3536,32.58971214966869,19.217699,27.006712149668694,19.0709C23.193311149668695,18.9704,19.437912149668694,19.368401,15.833111149668694,20.720699C13.012611149668693,21.779301,10.559211149668693,23.3634,8.781970749668693,25.8477C6.5024211496686934,29.031401,6.027200949668694,32.6091,6.618331249668693,36.391602C7.213331049668693,40.1973,8.766510749668694,43.639801,10.748511149668694,46.9007C13.213511149668694,50.949799,16.269710149668693,54.535198,19.696710149668693,57.796101C24.021211149668694,61.893799,28.802311149668693,65.480797,33.945810149668695,68.486801C38.62331214966869,71.259903,43.57600914966869,73.5401,48.72421014966869,75.290703C53.940111149668695,77.052498,59.26811014966869,78.215401,64.78151114966869,78.389297C68.5099121496687,78.509102,72.1842131496687,78.1343,75.71171014966869,76.816803C78.2115111496687,75.881798,80.4137131496687,74.494698,82.1253141496687,72.412201C83.97220814966869,70.171303,84.8453081496687,67.559502,84.98441514966869,64.688797C85.1428091496687,61.277302,84.30831314966869,58.0588,82.98691014966869,54.952499" fill="#0D3190" fill-opacity="1"/><path d="M23.506399,76.36862365112304C21.1987,74.79442365112305,18.962,73.11852465112304,16.8029,71.34592465112304C14.6393,69.55702365112305,12.5375,67.67542365112305,10.5555,65.68572365112304C8.5772696,63.695923651123046,6.6918201,61.597973851123044,4.9261398,59.415023851123046C3.17204,57.25138375112304,1.615,54.921613651123046,0,52.70002365112305C0,52.70002365112305,0,85.00002265112305,0,85.00002265112305C0,85.00002265112305,37.971802,85.00002265112305,37.971802,85.00002265112305C37.971802,85.00002265112305,38.049099,84.81842465112305,38.049099,84.81842465112305C35.576401,83.50092365112305,33.072701,82.24522365112304,30.6541,80.84272365112305C28.219999,79.43642465112305,25.824499,77.95662265112304,23.506399,76.36862365112304C23.506399,76.36862365112304,23.506399,76.36862365112304,23.506399,76.36862365112304Z" fill="#F2BA86" fill-opacity="1"/><path d="M71.82491678564453,42.73171199438477C71.21451778564453,42.17921299438477,70.60791778564453,41.63051199438476,70.00901778564453,41.070312994384764C67.31991778564453,38.57051299438477,64.65401878564452,36.055312994384764,61.95331778564453,33.574812994384764C61.19811778564453,32.858412994384764,60.214116785644535,32.431812994384764,59.17491678564453,32.37031299438476C58.13581878564453,32.308812994384766,57.10831878564453,32.61641299438477,56.27381778564453,33.23871299438477C51.289717785644534,36.76231399438477,46.31722788564453,40.297612994384764,41.33700677564453,43.82511299438477C41.20564377564453,43.91781199438476,41.06655378564453,44.00281299438477,40.93132708264453,44.095511994384765C40.93132708264453,44.095511994384765,40.85791778564453,44.01831199438477,40.85791778564453,44.01831199438477C40.85791778564453,44.01831199438477,42.442007785644535,42.04011299438477,42.442007785644535,42.04011299438477C42.442007785644535,42.04011299438477,52.29041778564453,29.765312994384765,52.29041778564453,29.765312994384765C53.17131778564453,28.668012994384767,53.51131778564453,27.416233094384765,53.10181778564453,26.056233394384765C52.91301778564453,25.525992894384764,52.61261778564453,25.042452794384765,52.22081778564453,24.638272794384765C50.20790768564453,22.416683194384767,48.16018768564453,20.226002894384767,46.12405778564453,18.023732004384765C46.06609778564453,17.961912994384765,46.01972768564453,17.896230994384766,45.86904768564453,17.706912994384766C46.11245778564453,17.815094994384765,46.23222778564453,17.853730994384765,46.33268788564453,17.915548994384764C46.33268788564453,17.915548994384764,55.89131778564453,23.672362794384767,55.89131778564453,23.672362794384767C56.50951778564453,24.043272994384765,57.19721778564453,24.360093094384766,57.888816785644536,24.174632994384766C58.58431778564453,23.985322994384767,59.229516785644535,23.595092794384765,59.863116785644536,23.231913094384765C61.29271678564453,22.420553194384766,62.699018785644526,21.570543094384767,64.22521778564453,20.670322894384764C64.15561878564453,20.913732994384766,64.12471778564453,21.048963094384767,64.07831778564453,21.180322894384766C63.49111778564453,22.806912894384766,62.92311878564453,24.441233194384765,62.30881678564453,26.060092894384766C61.96111878564453,26.975772894384768,62.09631778564453,27.767812994384766,62.637218785644535,28.579212994384765C65.68181778564453,33.180812994384766,68.70311778564454,37.79781299438477,71.73221778564454,42.41101299438476C71.80321678564454,42.503312994384764,71.83511778564453,42.61991299438476,71.82111778564453,42.73551399438476" fill="#F2BA86" fill-opacity="1"/></svg>