<svg xmlns="http://www.w3.org/2000/svg" xmlns:xlink="http://www.w3.org/1999/xlink" fill="none" version="1.1" width="85" height="82.831787109375" viewBox="0 0 85 82.831787109375"><defs><radialGradient cx="0" cy="0" r="1" gradientUnits="userSpaceOnUse" id="master_svg0_0_3977" gradientTransform="translate(42.5 39.75885978887527) rotate(90) scale(41.40510336650914 102.93517644240538)"><stop offset="0%" stop-color="#FFE500" stop-opacity="1"/><stop offset="41.40094816684723%" stop-color="#FFE500" stop-opacity="1"/><stop offset="100%" stop-color="#F18200" stop-opacity="1"/></radialGradient></defs><path d="M42.69351540625,43.3330078125C42.69351540625,43.3330078125,6.23681640625,53.7401078125,6.23681640625,53.7401078125C7.28257640625,57.8475078125,5.65270840625,63.337506812499996,8.02024640625,66.65890681249999C10.486906506250001,70.1440088125,16.49901640625,70.1756078125,19.892916406250002,72.7170088125C23.30131740625,75.2662088125,25.17221640625,81.0984078125,29.27851640625,82.4554058125C33.26811640625,83.79160681249999,38.21021640625,80.2710078125,42.64301640625,80.25720581249999C46.93101540625,80.2533078125,51.71661740625,83.8252068125,55.59151440625,82.5609088125C59.66381440625,81.2375068125,61.53471740625,75.4319078125,64.93441740624999,72.9408078125C68.35151640625,70.4399068125,74.36471540625,70.4665068125,76.87021640625,67.0198078125C79.37281840625,63.5712068125,77.61181640625,57.7498078125,78.93651540625,53.583307812499996C78.93651540625,53.583307812499996,42.69351540625,43.3330078125,42.69351540625,43.3330078125Z" fill-rule="evenodd" fill="#C00415" fill-opacity="1"/><g><path d="M43.911926,31.727699C43.971207,32.220798,44.284157,32.680302,44.781769,32.8894C45.316307,33.129002,45.927639,32.9949,46.324169,32.5975L64.752304,9.8564005C61.377808,7.3554702,59.502106,1.6031302,55.456108,0.26687118C53.248951,-0.44553527,50.748085,0.40027088,48.210861,1.2583731C46.396431,1.8720233,44.563408,2.491962,42.805908,2.5528202L43.911926,31.727699ZM41.089119,31.727699C41.033722,32.220798,40.720821,32.680302,40.225121,32.8894C39.684822,33.129002,39.079323,32.9949,38.676922,32.5975L20.259521,9.8564005C23.621302,7.3554702,25.50386,1.6031302,29.550831,0.26687118C31.761221,-0.44585583,34.263618,0.40103236,36.800323,1.2595315C38.612431,1.8728033,40.442043,2.4920001,42.195221,2.5528202L41.089119,31.727699ZM36.342121,35.646744C36.539421,35.212845,36.504421,34.736542,36.297421,34.346947L19.743221,10.187744C16.270622,12.394794,10.670542,12.520034,8.2767611,15.825684C6.8229947,17.823362,6.8055334,20.619286,6.7879834,23.429502C6.7754269,25.440104,6.7628245,27.458021,6.2241211,29.196144L35.025223,36.498745C35.579224,36.498745,36.105019,36.190144,36.342121,35.646744ZM48.655064,35.646744C48.459709,35.212845,48.49567,34.736542,48.702682,34.346947L65.255966,10.187744C68.732468,12.394794,74.330566,12.520034,76.727264,15.825684C78.174614,17.82077,78.194321,20.612032,78.214142,23.418564C78.228363,25.432783,78.242645,27.454868,78.784767,29.196144L49.974895,36.498745C49.426746,36.498745,48.898037,36.190144,48.655064,35.646744ZM34.6656,40.569588C34.6656,39.99369,34.334099,39.49369,33.8531,39.253071L6.0199399,29.76709C5.4281974,31.265316,4.3890204,32.714069,3.3388412,34.178162C1.6793017,36.491779,-0.007711424,38.843704,0.000026518115,41.489689C0.0107174,45.801292,4.7943802,49.302193,6.08214,53.210388L33.7967,41.896988C34.3176,41.673088,34.6656,41.161289,34.6656,40.569588ZM50.338379,40.569588C50.338379,39.99369,50.668823,39.49369,51.148937,39.253071L78.984978,29.76709C79.576782,31.26453,80.614388,32.712547,81.662941,34.175854C83.32135,36.490231,85.007149,38.842831,84.999977,41.489689C84.995178,45.801292,80.210579,49.302193,78.917877,53.210388L51.203365,41.896988C50.69215,41.673088,50.338379,41.161289,50.338379,40.569588Z" fill-rule="evenodd" fill="url(#master_svg0_0_3977)" fill-opacity="1"/></g></svg>