<svg xmlns="http://www.w3.org/2000/svg" xmlns:xlink="http://www.w3.org/1999/xlink" fill="none" version="1.1" width="61.5" height="88" viewBox="0 0 61.5 88"><path d="M0,33.34979248046875C0,33.34979248046875,20,33.34979248046875,20,33.34979248046875C20,33.34979248046875,20,59.99979448046875,20,59.99979448046875C20,59.99979448046875,0,59.99979448046875,0,59.99979448046875C0,59.99979448046875,0,33.34979248046875,0,33.34979248046875C0,33.34979248046875,0,33.34979248046875,0,33.34979248046875ZM37,23.64979558046875C50.349998,24.39979547046875,61,35.44979248046875,61,48.99979248046875C61,48.99979248046875,61,59.99979448046875,61,59.99979448046875C61,59.99979448046875,43.549999,59.99979448046875,43.549999,59.99979448046875C43.549999,59.99979448046875,43.549999,52.39979148046875,43.549999,52.39979148046875C43.549999,43.29979348046875,36.150002,35.89979248046875,27.049999,35.89979248046875C27.049999,35.89979248046875,23.549999,35.89979248046875,23.549999,35.89979248046875C23.549999,35.89979248046875,37.150002,35.89979248046875,37.150002,35.89979248046875C37.150002,35.89979248046875,37.150002,26.49979258046875,37.150002,26.49979258046875C37.200001,25.54979248046875,37.150002,24.54979551046875,37,23.64979558046875C36.549999,23.59979553147875,36.049999,23.59979248046875,35.599998,23.59979248046875C35.599998,23.59979248046875,27.25,23.59979248046875,27.25,23.59979248046875C26,23.59979248046875,24.75,23.74979448046875,23.6,23.99979448046875C23.6,23.99979448046875,23.6,35.89979248046875,23.6,35.89979248046875C23.6,35.89979248046875,37,23.64979558046875,37,23.64979558046875C37,23.64979558046875,37,23.64979558046875,37,23.64979558046875C37,23.64979558046875,37,23.64979558046875,37,23.64979558046875Z" fill="#009B63" fill-opacity="1"/><path d="M40,0C40,0,60.5,0,60.5,0C60.5,0,60.5,20.5,60.5,20.5C60.5,20.5,40,20.5,40,20.5C40,20.5,40,0,40,0C40,0,40,0,40,0Z" fill="#E60113" fill-opacity="1"/><path d="M0,75.4499998C0,75.4499998,0,66.650002,0,66.650002C0,66.650002,2.55,66.650002,2.55,66.650002C3.3,66.650002,3.95,66.84999698,4.4000001,67.2C4.8499999,67.55,5.0999999,68.05,5.0999999,68.6500001C5.0999999,69.1500001,4.9499998,69.55,4.6999998,69.95C4.4499998,70.3499999,4.0500002,70.5999999,3.55,70.75C4.1500001,70.8000002,4.5999999,71.0500002,5,71.4499998C5.3499999,71.8499999,5.5500002,72.3000002,5.5500002,72.9000001C5.5500002,73.6500001,5.3000002,74.25,4.75,74.75C4.1999998,75.1999998,3.5,75.4499998,2.6500001,75.4499998C2.6500001,75.4499998,0,75.4499998,0,75.4499998C0,75.4499998,0,75.4499998,0,75.4499998ZM1.15,67.65C1.15,67.65,1.15,70.4000001,1.15,70.4000001C1.15,70.4000001,2.2,70.4000001,2.2,70.4000001C2.75,70.4000001,3.2,70.25,3.5,70C3.8,69.75,3.95,69.3499999,3.95,68.9000001C3.95,68.05,3.4000001,67.65,2.3,67.65C2.3,67.65,1.15,67.65,1.15,67.65C1.15,67.65,1.15,67.65,1.15,67.65ZM1.15,71.4000001C1.15,71.4000001,1.15,74.4499998,1.15,74.4499998C1.15,74.4499998,2.5,74.4499998,2.5,74.4499998C3.0999999,74.4499998,3.55,74.3000002,3.8499999,74.0500002C4.1500001,73.75,4.3499999,73.4000001,4.3499999,72.9000001C4.3499999,71.9000001,3.6500001,71.4000001,2.3,71.4000001C2.3,71.4000001,1.15,71.4000001,1.15,71.4000001C1.15,71.4000001,1.15,71.4000001,1.15,71.4000001C1.15,71.4000001,1.15,71.4000001,1.15,71.4000001ZM12.4,69.5999999C13,69.2,13.75,69,14.55,69C16.049999,69,16.799999,69.8,16.799999,71.4000001C16.799999,71.4000001,16.799999,75.4499998,16.799999,75.4499998C16.799999,75.4499998,15.7,75.4499998,15.7,75.4499998C15.7,75.4499998,15.7,74.5,15.7,74.5C15.7,74.5,15.65,74.5,15.65,74.5C15.2,75.25,14.6,75.6000004,13.75,75.6000004C13.15,75.6000004,12.65,75.4499998,12.3,75.1000004C11.95,74.75,11.75,74.3000002,11.75,73.75C11.75,72.5500002,12.45,71.9000001,13.85,71.6999998C13.85,71.6999998,15.7,71.4499998,15.7,71.4499998C15.7,70.4000001,15.3,69.9000001,14.45,69.9000001C13.7,69.9000001,13,70.1500001,12.4,70.6500001C12.4,70.6500001,12.4,69.5999999,12.4,69.5999999C12.4,69.5999999,12.4,69.5999999,12.4,69.5999999C12.4,69.5999999,12.4,69.5999999,12.4,69.5999999ZM14.25,72.5C13.75,72.5500002,13.4,72.6999998,13.2,72.9000001C13,73.0999999,12.9,73.3499999,12.9,73.6999998C12.9,74,13,74.25,13.2,74.4499998C13.4,74.6499996,13.7,74.75,14.05,74.75C14.55,74.75,14.95,74.6000004,15.25,74.25C15.55,73.9000001,15.7,73.5,15.7,72.9499998C15.7,72.9499998,15.7,72.3499999,15.7,72.3499999C15.7,72.3499999,14.25,72.5,14.25,72.5C14.25,72.5,14.25,72.5,14.25,72.5C14.25,72.5,14.25,72.5,14.25,72.5ZM27.35,75.4499998C27.35,75.4499998,26.25,75.4499998,26.25,75.4499998C26.25,75.4499998,26.25,71.8499999,26.25,71.8499999C26.25,70.5500002,25.799999,69.9000001,24.85,69.9000001C24.35,69.9000001,23.950001,70.0999999,23.65,70.4499998C23.35,70.8000002,23.200001,71.3000002,23.200001,71.8499999C23.200001,71.8499999,23.200001,75.4499998,23.200001,75.4499998C23.200001,75.4499998,22.1,75.4499998,22.1,75.4499998C22.1,75.4499998,22.1,69.1500001,22.1,69.1500001C22.1,69.1500001,23.200001,69.1500001,23.200001,69.1500001C23.200001,69.1500001,23.200001,70.1999998,23.200001,70.1999998C23.65,69.4000001,24.35,69,25.25,69C25.950001,69,26.450001,69.2,26.799999,69.6500001C27.15,70.0999999,27.35,70.75,27.35,71.5999999C27.35,71.5999999,27.35,75.4499998,27.35,75.4499998C27.35,75.4499998,27.35,75.4499998,27.35,75.4499998C27.35,75.4499998,27.35,75.4499998,27.35,75.4499998ZM38.099998,75.4499998C38.099998,75.4499998,36.599998,75.4499998,36.599998,75.4499998C36.599998,75.4499998,33.900002,72.4000001,33.900002,72.4000001C33.900002,72.4000001,33.900002,75.4499998,33.900002,75.4499998C33.900002,75.4499998,32.799999,75.4499998,32.799999,75.4499998C32.799999,75.4499998,32.799999,66.150002,32.799999,66.150002C32.799999,66.150002,33.900002,66.150002,33.900002,66.150002C33.900002,66.150002,33.900002,72.0500002,33.900002,72.0500002C33.900002,72.0500002,36.450001,69.1500001,36.450001,69.1500001C36.450001,69.1500001,37.900002,69.1500001,37.900002,69.1500001C37.900002,69.1500001,35.049999,72.1999998,35.049999,72.1999998C35.049999,72.1999998,38.099998,75.4499998,38.099998,75.4499998C38.099998,75.4499998,38.099998,75.4499998,38.099998,75.4499998ZM45.599998,72.3499999C45.599998,71.3000002,45.900002,70.5,46.450001,69.9000001C47,69.3,47.799999,69,48.799999,69C49.75,69,50.5,69.3,51,69.8499999C51.549999,70.4499998,51.799999,71.25,51.799999,72.25C51.799999,73.25,51.5,74.0500002,50.950001,74.6499996C50.400002,75.25,49.599998,75.5500002,48.650002,75.5500002C47.700001,75.5500002,46.950001,75.25,46.400002,74.6499996C45.900002,74.1000004,45.599998,73.3499999,45.599998,72.3499999C45.599998,72.3499999,45.599998,72.3499999,45.599998,72.3499999ZM46.75,72.3499999C46.75,73.0500002,46.950001,73.6500001,47.299999,74.0500002C47.650002,74.4499998,48.150002,74.6999998,48.75,74.6999998C49.400002,74.6999998,49.849998,74.5,50.200001,74.1000004C50.549999,73.6999998,50.700001,73.0999999,50.700001,72.3499999C50.700001,71.5999999,50.549999,71,50.200001,70.5999999C49.849998,70.1999998,49.400002,70,48.75,70C48.150002,70,47.650002,70.1999998,47.299999,70.6500001C46.900002,71,46.75,71.5999999,46.75,72.3499999C46.75,72.3499999,46.75,72.3499999,46.75,72.3499999C46.75,72.3499999,46.75,72.3499999,46.75,72.3499999ZM59.75,67.1C59.549999,66.99999797,59.299999,66.94999701,59.099998,66.94999701C58.400002,66.94999701,58.049999,67.4,58.049999,68.25C58.049999,68.25,58.049999,69.2,58.049999,69.2C58.049999,69.2,59.5,69.2,59.5,69.2C59.5,69.2,59.5,70.0999999,59.5,70.0999999C59.5,70.0999999,58.049999,70.0999999,58.049999,70.0999999C58.049999,70.0999999,58.049999,75.4499998,58.049999,75.4499998C58.049999,75.4499998,56.950001,75.4499998,56.950001,75.4499998C56.950001,75.4499998,56.950001,70.0999999,56.950001,70.0999999C56.950001,70.0999999,55.900002,70.0999999,55.900002,70.0999999C55.900002,70.0999999,55.900002,69.2,55.900002,69.2C55.900002,69.2,56.950001,69.2,56.950001,69.2C56.950001,69.2,56.950001,68.2,56.950001,68.2C56.950001,67.5,57.150002,66.99999797,57.549999,66.599998C57.950001,66.19999801,58.450001,66,59,66C59.299999,66,59.549999,66.049998499,59.75,66.099998496C59.75,66.099998496,59.75,67.1,59.75,67.1C59.75,67.1,59.75,67.1,59.75,67.1ZM7.6999998,87.200001C7.6999998,87.200001,6.25,87.200001,6.25,87.200001C6.25,87.200001,1.5,80.35,1.5,80.35C1.35,80.15,1.25,79.95,1.2,79.8C1.2,79.8,1.15,79.8,1.15,79.8C1.2,80,1.2,80.4,1.2,81.05C1.2,81.05,1.2,87.25,1.2,87.25C1.2,87.25,0,87.25,0,87.25C0,87.25,0,78.45,0,78.45C0,78.45,1.55,78.45,1.55,78.45C1.55,78.45,6.3000002,85.4,6.3000002,85.4C6.4499998,85.6,6.5,85.75,6.5500002,85.799999C6.5,85.549999,6.5,85.200001,6.5,84.700001C6.5,84.700001,6.5,78.5,6.5,78.5C6.5,78.5,7.6999998,78.5,7.6999998,78.5C7.6999998,78.5,7.6999998,87.200001,7.6999998,87.200001C7.6999998,87.200001,7.6999998,87.200001,7.6999998,87.200001ZM19.5,87.700001C19.5,87.700001,18,87.700001,18,87.700001C18,87.700001,16.950001,85.299999,16.950001,85.299999C16.950001,85.299999,12.7,85.299999,12.7,85.299999C12.7,85.299999,11.7,87.700001,11.7,87.700001C11.7,87.700001,10.25,87.700001,10.25,87.700001C10.25,87.700001,14.15,78.9,14.15,78.9C14.15,78.9,15.55,78.9,15.55,78.9C15.55,78.9,19.5,87.700001,19.5,87.700001C19.5,87.700001,19.5,87.700001,19.5,87.700001ZM16.4,84.299999C16.4,84.299999,15,80.65,15,80.65C14.95,80.55,14.9,80.35,14.85,80.05C14.85,80.05,14.8,80.05,14.8,80.05C14.75,80.3,14.7,80.5,14.65,80.65C14.65,80.65,13.3,84.299999,13.3,84.299999C13.3,84.299999,16.4,84.299999,16.4,84.299999C16.4,84.299999,16.4,84.299999,16.4,84.299999C16.4,84.299999,16.4,84.299999,16.4,84.299999ZM29.25,87.25C28.35,87.75,27.4,88,26.299999,88C25.049999,88,24,87.6,23.25,86.799999C22.450001,86,22.1,84.9,22.1,83.549999C22.1,82.200001,22.549999,81.05,23.4,80.2C24.25,79.35,25.35,78.9,26.700001,78.9C27.65,78.9,28.450001,79.05,29.1,79.35C29.1,79.35,29.1,80.6,29.1,80.6C28.4,80.15,27.549999,79.95,26.6,79.95C25.65,79.95,24.85,80.3,24.25,80.95C23.65,81.6,23.299999,82.450001,23.299999,83.549999C23.299999,84.65,23.6,85.5,24.15,86.15C24.700001,86.799999,25.5,87.049999,26.450001,87.049999C27.1,87.049999,27.700001,86.9,28.15,86.65C28.15,86.65,28.15,84.25,28.15,84.25C28.15,84.25,26.25,84.25,26.25,84.25C26.25,84.25,26.25,83.25,26.25,83.25C26.25,83.25,29.299999,83.25,29.299999,83.25C29.299999,83.25,29.299999,87.25,29.299999,87.25C29.299999,87.25,29.25,87.25,29.25,87.25C29.25,87.25,29.25,87.25,29.25,87.25ZM32.799999,83.549999C32.799999,82.15,33.200001,81,33.950001,80.15C34.700001,79.3,35.75,78.9,37.049999,78.9C38.25,78.9,39.25,79.3,40,80.15C40.75,80.95,41.099998,82.049999,41.099998,83.35C41.099998,84.799999,40.700001,85.9,39.950001,86.75C39.200001,87.6,38.150002,88,36.900002,88C35.650002,88,34.650002,87.6,33.900002,86.75C33.200001,85.950001,32.799999,84.85,32.799999,83.549999C32.799999,83.549999,32.799999,83.549999,32.799999,83.549999ZM34,83.450001C34,84.5,34.25,85.35,34.799999,86C35.349998,86.65,36.049999,86.950001,36.900002,86.950001C37.849998,86.950001,38.549999,86.65,39.099998,86.049999C39.650002,85.450001,39.900002,84.549999,39.900002,83.450001C39.900002,82.299999,39.650002,81.45,39.099998,80.8C38.599998,80.2,37.849998,79.85,36.950001,79.85C36.049999,79.85,35.349998,80.2,34.799999,80.85C34.25,81.55,34,82.4,34,83.450001C34,83.450001,34,83.450001,34,83.450001C34,83.450001,34,83.450001,34,83.450001ZM50.400002,78.9C50.400002,78.9,47.5,84.450001,47.5,84.450001C47.5,84.450001,47.5,87.700001,47.5,87.700001C47.5,87.700001,46.349998,87.700001,46.349998,87.700001C46.349998,87.700001,46.349998,84.5,46.349998,84.5C46.349998,84.5,43.549999,78.9,43.549999,78.9C43.549999,78.9,44.849998,78.9,44.849998,78.9C44.849998,78.9,46.75,82.799999,46.75,82.799999C46.75,82.85,46.849998,83.049999,46.950001,83.35C47,83.200001,47.049999,83,47.200001,82.799999C47.200001,82.799999,49.200001,78.9,49.200001,78.9C49.200001,78.9,50.400002,78.9,50.400002,78.9C50.400002,78.9,50.400002,78.9,50.400002,78.9ZM61.5,87.65C61.5,87.65,60.049999,87.65,60.049999,87.65C60.049999,87.65,59,85.25,59,85.25C59,85.25,54.75,85.25,54.75,85.25C54.75,85.25,53.75,87.65,53.75,87.65C53.75,87.65,52.299999,87.65,52.299999,87.65C52.299999,87.65,56.200001,78.9,56.200001,78.9C56.200001,78.9,57.599998,78.9,57.599998,78.9C57.599998,78.9,61.5,87.65,61.5,87.65C61.5,87.65,61.5,87.65,61.5,87.65C61.5,87.65,61.5,87.65,61.5,87.65ZM58.400002,84.049999C58.400002,84.049999,56.799999,80.5,56.799999,80.5C56.75,80.4,56.700001,80.2,56.650002,79.9C56.650002,79.9,56.599998,79.9,56.599998,79.9C56.549999,80.15,56.5,80.35,56.450001,80.5C56.450001,80.5,54.849998,84.049999,54.849998,84.049999C54.849998,84.049999,58.400002,84.049999,58.400002,84.049999C58.400002,84.049999,58.400002,84.049999,58.400002,84.049999Z" fill="#231916" fill-opacity="1"/></svg>