<svg xmlns="http://www.w3.org/2000/svg" xmlns:xlink="http://www.w3.org/1999/xlink" fill="none" version="1.1" width="85" height="85" viewBox="0 0 85 85"><path d="M36.150002,60C36.150002,60,36.549999,57.150002,38.099998,53.700001C38.099998,53.700001,44.950001,53.700001,44.950001,53.700001C46.450001,57.150002,46.900002,60,46.900002,60C46.900002,60,56,60,56,60C50.75,42.849998,52.299999,30.25,52.299999,30.25C52.299999,30.25,47.549999,30.25,47.549999,30.25C47.549999,30.25,51.799999,22,51.799999,22C51.799999,22,31.25,22,31.25,22C31.25,22,35.5,30.25,35.5,30.25C35.5,30.25,30.75,30.25,30.75,30.25C30.75,30.25,32.25,42.849998,27.049999,60C27.049999,60,36.150002,60,36.150002,60C36.150002,60,36.150002,60,36.150002,60ZM26.799999,34.200001C26.799999,34.200001,16.4,34.200001,16.4,34.200001C19.9,23.25,30.15,15.3,42.25,15.3C54.349998,15.3,64.599998,23.25,68.099998,34.200001C68.099998,34.200001,57.700001,34.200001,57.700001,34.200001C57.700001,34.200001,57.700001,39,57.700001,39C57.700001,39,74,39,74,39C72.300003,23,58.700001,10.5,42.25,10.5C25.799999,10.5,12.2,23,10.5,39C10.5,39,26.799999,39,26.799999,39C26.799999,39,26.799999,34.200001,26.799999,34.200001C26.799999,34.200001,26.799999,34.200001,26.799999,34.200001ZM58.049999,44.5C58.049999,44.5,58.049999,49.25,58.049999,49.25C58.049999,49.25,68.949997,49.25,68.949997,49.25C66,61,55.299999,69.699997,42.549999,69.699997C29.799999,69.699997,19.049999,61,16.15,49.25C16.15,49.25,27.049999,49.25,27.049999,49.25C27.049999,49.25,27.049999,44.5,27.049999,44.5C27.049999,44.5,10.5,44.5,10.5,44.5C11.4,61.200001,25.4,74.5,42.5,74.5C59.599998,74.5,73.599998,61.200001,74.5,44.5C74.5,44.5,58.049999,44.5,58.049999,44.5C58.049999,44.5,58.049999,44.5,58.049999,44.5ZM42.75,80C21.9,80,5,63.099998,5,42.25C5,21.4,21.9,4.5,42.75,4.5C63.599998,4.5,80.5,21.4,80.5,42.25C80.5,63.099998,63.599998,80,42.75,80C42.75,80,42.75,80,42.75,80ZM42.5,0C19.049999,0,0,19.049999,0,42.5C0,65.949997,19.049999,85,42.5,85C65.949997,85,85,65.949997,85,42.5C85,19.049999,65.949997,0,42.5,0C42.5,0,42.5,0,42.5,0Z" fill="#F5AB00" fill-opacity="1"/></svg>