<svg xmlns="http://www.w3.org/2000/svg" xmlns:xlink="http://www.w3.org/1999/xlink" fill="none" version="1.1" width="84.5" height="83" viewBox="0 0 84.5 83"><path d="M41.349998,0C64.199997,0,82.699997,18.6,82.699997,41.5C82.699997,52.049999,78.800003,61.650002,72.349998,68.949997C78.150002,69.349998,82,73.349998,84.5,79.75C80.150002,74.849998,73.25,73.449997,65.099998,75.449997C58.400002,80.199997,50.200001,83,41.349998,83C40.650002,83,40,83,39.299999,82.949997C30.450001,79.699997,30.75,72.650002,36.099998,67.5C44.049999,63.150002,52.200001,64.449997,61.75,56C79.400002,40.349998,75.300003,11.45,45.599998,11.2C55.450001,13.9,60.849998,20.299999,59.849998,27.15C59,32.900002,56.950001,36.599998,51.950001,39.5C51.950001,39.5,51.950001,33.349998,51.950001,33.349998C51.950001,31.549999,50.599998,30.1,49,30.1C49,30.1,32.75,30.1,32.75,30.1C31.15,30.1,29.799999,31.549999,29.799999,33.349998C29.799999,33.349998,29.799999,45.549999,29.799999,45.549999C29.799999,45.900002,29.85,46.25,29.950001,46.599998C28.200001,47,26.35,47.400002,24.450001,47.849998C17.450001,49.400002,10.3,56.5,6.75,64.150002C2.5,57.700001,0,49.900002,0,41.5C0,18.6,18.5,0,41.349998,0C41.349998,0,41.349998,0,41.349998,0ZM22.450001,78.5C19.799999,77.150002,17.299999,75.5,15,73.650002C15,59.900002,23.200001,53.799999,45.049999,50.5C60.650002,47.25,72.150002,30.549999,59.099998,16.5C67.400002,22.35,70.449997,30.200001,65.849998,41.099998C59.849998,53.549999,51.599998,55.25,38.599998,58.099998C23.450001,61.450001,20.950001,70.599998,22.450001,78.5Z" fill="#E30016" fill-opacity="1"/></svg>