<svg xmlns="http://www.w3.org/2000/svg" xmlns:xlink="http://www.w3.org/1999/xlink" fill="none" version="1.1" width="84.2998046875" height="83.699951171875" viewBox="0 0 84.2998046875 83.699951171875"><path d="M0,41.849998C0,18.75,18.85,0,42.150002,0C65.400002,0,84.300003,18.75,84.300003,41.849998C84.300003,64.949997,65.449997,83.699997,42.150002,83.699997C18.9,83.699997,0,64.949997,0,41.849998Z" fill="#D51B19" fill-opacity="1"/><path d="M40.9998149875,67.74989318847656C40.9998149875,67.74989318847656,40.9998149875,71.44989318847657,40.9998149875,71.44989318847657C40.9998149875,72.19989318847657,41.6498145875,72.84989318847656,42.3998046875,72.84989318847656C42.3998046875,72.84989318847656,48.9498046875,72.84989318847656,48.9498046875,72.84989318847656C48.9498046875,72.84989318847656,48.9498046875,57.24989318847656,48.9498046875,57.24989318847656C48.9498046875,57.24989318847656,42.3998046875,57.24989318847656,42.3998046875,57.24989318847656C41.599814387500004,57.24989318847656,40.9998149875,57.89989518847656,40.9998149875,58.64989318847656C40.9998149875,58.64989318847656,40.9998149875,62.09989308847656,40.9998149875,62.09989308847656C40.9998149875,62.09989308847656,44.8498046875,62.09989308847656,44.8498046875,62.09989308847656C45.6498046875,62.09989308847656,46.2498046875,62.74989318847656,46.2498046875,63.49989318847656C46.2498046875,63.49989318847656,46.2498046875,66.29989338847656,46.2498046875,66.29989338847656C46.2498046875,67.04989338847656,45.5998046875,67.69989318847657,44.8498046875,67.69989318847657C44.8498046875,67.69989318847657,40.9998149875,67.69989318847657,40.9998149875,67.69989318847657C40.9998149875,67.69989318847657,40.9998149875,67.74989318847656,40.9998149875,67.74989318847656C40.9998149875,67.74989318847656,40.9998149875,67.74989318847656,40.9998149875,67.74989318847656ZM39.749814487500004,67.74989318847656C39.749814487500004,67.74989318847656,39.749814487500004,71.44989318847657,39.749814487500004,71.44989318847657C39.749814487500004,72.19989318847657,39.0998048875,72.84989318847656,38.3498048875,72.84989318847656C38.3498048875,72.84989318847656,31.7998046875,72.84989318847656,31.7998046875,72.84989318847656C31.7998046875,72.84989318847656,31.7998046875,57.24989318847656,31.7998046875,57.24989318847656C31.7998046875,57.24989318847656,38.3498048875,57.24989318847656,38.3498048875,57.24989318847656C39.1498045875,57.24989318847656,39.749814487500004,57.89989518847656,39.749814487500004,58.64989318847656C39.749814487500004,58.64989318847656,39.749814487500004,62.09989308847656,39.749814487500004,62.09989308847656C39.749814487500004,62.09989308847656,35.8998045875,62.09989308847656,35.8998045875,62.09989308847656C35.0998046875,62.09989308847656,34.4998046875,62.74989318847656,34.4998046875,63.49989318847656C34.4998046875,63.49989318847656,34.4998046875,66.29989338847656,34.4998046875,66.29989338847656C34.4998046875,67.04989338847656,35.1498045875,67.69989318847657,35.8998045875,67.69989318847657C35.8998045875,67.69989318847657,39.749814487500004,67.69989318847657,39.749814487500004,67.69989318847657C39.749814487500004,67.69989318847657,39.749814487500004,67.74989318847656,39.749814487500004,67.74989318847656C39.749814487500004,67.74989318847656,39.749814487500004,67.74989318847656,39.749814487500004,67.74989318847656Z" fill="#009944" fill-opacity="1"/><path d="M80.0494160625,38.29905700683594C80.0494160625,60.99905800683594,61.6994130625,79.34906000683594,39.0994150625,79.34906000683594C27.3994140625,79.34906000683594,16.8494138625,74.44905900683594,9.3994140625,66.54905700683594C16.8994140625,75.89905500683594,28.3994140625,81.89905500683594,41.3494150625,81.89905500683594C63.9994120625,81.89905500683594,82.2994160625,63.49905800683594,82.2994160625,40.84905600683594C82.2994160625,29.89905700683594,77.9994120625,19.949057106835937,71.0494160625,12.549057006835938C76.6494140625,19.599057206835937,80.0494160625,28.549057006835938,80.0494160625,38.29905700683594C80.0494160625,38.29905700683594,80.0494160625,38.29905700683594,80.0494160625,38.29905700683594Z" fill="#F54B49" fill-opacity="1"/><path d="M62.2494506875,32.449057006835936C62.2494506875,32.449057006835936,55.2994536875,32.449057006835936,55.2994536875,32.449057006835936C55.3494526875,35.199057006835936,56.5494536875,36.699057006835936,58.7494506875,36.699057006835936C59.4494516875,36.699057006835936,60.2994536875,36.59905600683594,61.5494536875,35.54905700683594C61.4494516875,35.699057006835936,61.3994526875,35.89905700683594,61.3994526875,36.09905600683594C61.3994526875,36.24905800683594,61.4494516875,36.449057006835936,61.4994506875,36.54905700683594C61.1494526875,36.84905600683594,60.2494506875,37.49905800683594,58.2494506875,37.49905800683594C55.4994506875,37.49905800683594,53.5494536875,35.39905700683594,53.5494536875,32.49905800683594C53.5494536875,29.64905700683594,55.4494516875,27.64905700683594,58.1994516875,27.64905700683594C60.2494506875,27.64905700683594,62.2494506875,28.599057006835938,62.2494506875,32.449057006835936C62.2494506875,32.449057006835936,62.2494506875,32.449057006835936,62.2494506875,32.449057006835936C62.2494506875,32.449057006835936,62.2494506875,32.449057006835936,62.2494506875,32.449057006835936ZM60.6994516875,31.749058006835938C60.6994516875,29.549057006835938,59.6494526875,28.199057006835936,58.1994516875,28.199057006835936C56.6494526875,28.199057006835936,55.3994526875,29.599056006835937,55.3994526875,31.749058006835938C55.3994526875,31.749058006835938,60.6994516875,31.749058006835938,60.6994516875,31.749058006835938C60.6994516875,31.749058006835938,60.6994516875,31.749058006835938,60.6994516875,31.749058006835938ZM57.9994506875,37.949057006835936C58.6494526875,37.89905700683594,59.1494526875,38.29905700683594,59.1994516875,38.74905800683594C59.2494506875,39.199057006835936,58.7994536875,39.64905700683594,58.1494526875,39.699057006835936C57.4994506875,39.74905800683594,56.9994506875,39.34905600683594,56.9494516875,38.89905700683594C56.8994526875,38.449057006835936,57.3494526875,37.99905800683594,57.9994506875,37.949057006835936C57.9994506875,37.949057006835936,57.9994506875,37.949057006835936,57.9994506875,37.949057006835936ZM33.1994516875,27.199057006835936C33.1994516875,27.199057006835936,31.6994516875,27.199057006835936,31.6994516875,27.199057006835936C30.5494516875,23.299057006835938,29.7994516875,20.399056906835938,27.1494526875,12.799057006835938C27.1494526875,12.799057006835938,29.3994526875,12.799057006835938,29.3994526875,12.799057006835938C29.3994526875,12.799057006835938,33.099452687500005,25.199057006835936,33.099452687500005,25.199057006835936C33.099452687500005,25.199057006835936,36.8494526875,12.799057006835938,36.8494526875,12.799057006835938C36.8494526875,12.799057006835938,38.1994516875,12.799057006835938,38.1994516875,12.799057006835938C38.1994516875,12.799057006835938,42.2994536875,24.999057006835937,42.2994536875,24.999057006835937C42.2994536875,24.999057006835937,45.8494526875,12.799057006835938,45.8494526875,12.799057006835938C45.8494526875,12.799057006835938,47.2994536875,12.799057006835938,47.2994536875,12.799057006835938C45.4494516875,17.349057206835937,42.4994506875,27.199057006835936,42.4994506875,27.199057006835936C42.4994506875,27.199057006835936,40.9994506875,27.199057006835936,40.9994506875,27.199057006835936C40.9994506875,27.199057006835936,37.0494536875,15.399056906835938,37.0494536875,15.399056906835938C37.0494536875,15.399056906835938,33.1994516875,27.199057006835936,33.1994516875,27.199057006835936C33.1994516875,27.199057006835936,33.1994516875,27.199057006835936,33.1994516875,27.199057006835936C33.1994516875,27.199057006835936,33.1994516875,27.199057006835936,33.1994516875,27.199057006835936ZM50.0494536875,18.449057106835937C48.4994506875,18.449057106835937,47.2494506875,19.899056906835938,47.2494506875,21.999056806835938C47.2494506875,21.999056806835938,52.5494536875,21.999056806835938,52.5494536875,21.999056806835938C52.4994506875,19.799057006835938,51.4994506875,18.449057106835937,50.0494536875,18.449057106835937C50.0494536875,18.449057106835937,50.0494536875,18.449057106835937,50.0494536875,18.449057106835937ZM45.4494516875,22.749056806835938C45.4494516875,19.899056906835938,47.3494526875,17.899056906835938,50.0994526875,17.899056906835938C52.1494526875,17.899056906835938,54.1494526875,18.849057206835937,54.1494526875,22.69905660683594C54.1494526875,22.69905660683594,47.1994516875,22.69905660683594,47.1994516875,22.69905660683594C47.2494506875,25.449057006835936,48.4494516875,26.949057006835936,50.6494526875,26.949057006835936C51.3994526875,26.949057006835936,52.2994536875,26.799057006835938,53.6994516875,25.599057006835938C53.6494526875,25.799057006835938,53.6494526875,25.949057006835936,53.6494526875,26.599057006835938C53.3494526875,26.849057006835938,52.3994526875,27.749057006835937,50.1994516875,27.749057006835937C47.3994526875,27.749057006835937,45.4494516875,25.64905700683594,45.4494516875,22.749056806835938C45.4494516875,22.749056806835938,45.4494516875,22.749056806835938,45.4494516875,22.749056806835938C45.4494516875,22.749056806835938,45.4494516875,22.749056806835938,45.4494516875,22.749056806835938ZM45.7994536875,32.54905700683594C45.7994536875,32.54905700683594,43.6494526875,32.99905800683594,43.6494526875,32.99905800683594C42.2994536875,33.29905700683594,41.6494526875,33.949057006835936,41.6994516875,35.04905700683594C41.6994516875,36.14905700683594,42.3994526875,36.949057006835936,43.4494516875,36.949057006835936C44.0994526875,36.949057006835936,44.8994526875,36.59905600683594,45.4994506875,36.04905700683594C45.7494506875,35.84905600683594,45.8494526875,35.54905700683594,45.8494526875,35.09905600683594C45.8494526875,35.09905600683594,45.7994536875,32.54905700683594,45.7994536875,32.54905700683594C45.7994536875,32.54905700683594,45.7994536875,32.54905700683594,45.7994536875,32.54905700683594C45.7994536875,32.54905700683594,45.7994536875,32.54905700683594,45.7994536875,32.54905700683594ZM40.0494536875,35.199057006835936C40.0494536875,33.64905700683594,41.0994526875,32.949057006835936,43.0994526875,32.49905800683594C45.0994526875,32.09905600683594,45.3994526875,32.04905700683594,45.8994526875,31.699057006835936C45.8994526875,29.599056006835937,45.5994526875,28.64905700683594,43.5994526875,28.64905700683594C42.5994526875,28.64905700683594,41.7494506875,29.099056006835937,41.0994526875,30.049057006835938C41.0994526875,30.049057006835938,40.8494526875,30.049057006835938,40.8494526875,30.049057006835938C40.8494526875,30.049057006835938,40.8494526875,28.999058006835938,40.8494526875,28.999058006835938C41.8494526875,28.249057006835937,42.8994526875,27.89905700683594,44.1994516875,27.89905700683594C46.7994536875,27.89905700683594,47.2994536875,29.449057006835936,47.2994536875,31.049057006835938C47.2994536875,36.59905600683594,47.2494506875,37.04905700683594,48.2494506875,37.04905700683594C48.2494506875,37.04905700683594,48.4994506875,37.04905700683594,48.4994506875,37.04905700683594C48.4994506875,37.04905700683594,48.5494536875,37.449057006835936,48.5494536875,37.449057006835936C47.8994526875,37.64905700683594,47.3994526875,37.54905700683594,47.0494536875,37.54905700683594C46.3494526875,37.54905700683594,45.9994506875,37.199057006835936,45.7994536875,36.34905600683594C45.3494526875,36.74905800683594,44.5494536875,37.699057006835936,42.7994536875,37.699057006835936C41.0494536875,37.699057006835936,40.0494536875,36.74905800683594,40.0494536875,35.199057006835936C40.0494536875,35.199057006835936,40.0494536875,35.199057006835936,40.0494536875,35.199057006835936C40.0494536875,35.199057006835936,40.0494536875,35.199057006835936,40.0494536875,35.199057006835936ZM52.8494526875,29.449057006835936C51.8494526875,29.449057006835936,50.7494506875,29.799057006835938,50.7494506875,34.199057006835936C50.7494506875,35.09905600683594,50.7994536875,36.09905600683594,50.8994526875,37.54905700683594C50.0994526875,37.449057006835936,49.3494526875,37.49905800683594,49.2994536875,37.49905800683594C49.3994526875,35.24905800683594,49.5994526875,32.04905700683594,49.2994536875,27.89905700683594C49.5994526875,27.949057006835936,49.8994526875,27.999057006835937,50.1994516875,27.999057006835937C50.4494516875,27.999057006835937,50.6994516875,27.999057006835937,50.9494516875,27.949057006835936C50.9494516875,28.39905700683594,50.8994526875,29.14905700683594,50.8494526875,30.299057006835938C51.7494506875,28.499057006835937,52.3994526875,27.999057006835937,53.5494536875,27.999057006835937C53.7494506875,27.999057006835937,53.9494516875,27.999057006835937,54.1494526875,28.049057006835938C54.0994526875,28.699057006835936,54.0494536875,28.949057006835936,54.0494536875,29.599056006835937C54.0494536875,29.599056006835937,53.8994526875,29.699057006835936,53.8994526875,29.699057006835936C53.3994526875,29.499058006835938,53.1494526875,29.449057006835936,52.8494526875,29.449057006835936C52.8494526875,29.449057006835936,52.8494526875,29.449057006835936,52.8494526875,29.449057006835936C52.8494526875,29.449057006835936,52.8494526875,29.449057006835936,52.8494526875,29.449057006835936ZM23.3994526875,50.29905700683594C23.3994526875,50.29905700683594,23.4494516875,50.24905800683594,23.4494516875,50.24905800683594C23.4494516875,50.24905800683594,23.3994526875,50.09905600683594,23.3994526875,50.09905600683594C22.7494526875,43.04905700683594,14.0994516875,34.79905700683594,8.1994323875,38.49905800683594C5.3994323875,40.24905800683594,3.6494283975,45.74905800683594,6.3994323875,48.84905600683594C11.3994321875,54.29905700683594,20.3494526875,52.74905800683594,23.3994526875,50.29905700683594C23.3994526875,50.29905700683594,23.3994526875,50.29905700683594,23.3994526875,50.29905700683594ZM31.6994516875,38.09905600683594C31.2994516875,39.199057006835936,30.7494526875,41.04905700683594,29.7994516875,43.199057006835936C28.8494526875,45.34905600683594,27.4494516875,47.69905900683594,25.4494516875,49.74905800683594C19.8494526875,55.49905800683594,9.7994322875,54.99905800683594,5.4994322874999995,50.84905600683594C3.4494283875,48.89905500683594,1.2994322875000002,43.699057006835936,6.9494323875,38.89905700683594C14.2494526875,32.699057006835936,23.6494526875,40.39905700683594,23.9494516875,49.49905800683594C23.9494516875,49.49905800683594,23.9494516875,49.94905900683594,23.9494516875,49.94905900683594C23.9494516875,49.94905900683594,24.2494526875,49.59905600683594,24.2494526875,49.59905600683594C25.8494526875,47.69905900683594,27.0994526875,45.14905500683594,27.9494516875,42.84905600683594C28.7994516875,40.59905600683594,29.3494526875,38.64905700683594,29.5994526875,37.99905800683594C29.5994526875,37.99905800683594,29.6994516875,37.79905700683594,29.6994516875,37.79905700683594C29.6994516875,37.79905700683594,29.4494516875,37.79905700683594,29.4494516875,37.79905700683594C28.7494526875,37.74905800683594,26.4494516875,37.79905700683594,24.2994516875,37.79905700683594C23.1994516875,37.79905700683594,22.1494526875,37.84905600683594,21.3494526875,37.84905600683594C21.3494526875,37.84905600683594,19.9494516875,37.84905600683594,19.9494516875,37.84905600683594C20.0494516875,37.59905600683594,20.6494526875,36.84905600683594,20.7994516875,36.59905600683594C21.6494526875,36.59905600683594,29.1494526875,36.49905800683594,29.9994526875,36.39905700683594C29.9994526875,36.39905700683594,30.0994526875,36.39905700683594,30.0994526875,36.39905700683594C30.0994526875,36.39905700683594,30.1494526875,36.29905700683594,30.1494526875,36.29905700683594C30.4494516875,35.699057006835936,30.8494526875,34.199057006835936,31.6994516875,32.59905600683594C32.549451687499996,30.999058006835938,33.799451687499996,29.249058006835938,35.7994536875,28.049057006835938C36.2494506875,27.799057006835938,37.0994526875,27.349057006835938,37.9494516875,27.049057006835938C38.3494526875,26.89905700683594,38.7494506875,26.799057006835938,39.0994526875,26.749057006835937C39.4494516875,26.699057006835936,39.5994526875,26.749057006835937,39.6494526875,26.849057006835938C39.6994516875,26.89905700683594,39.6994516875,26.949057006835936,39.6494526875,27.14905700683594C39.5994526875,27.349057006835938,39.4994506875,27.549057006835938,39.3494526875,27.849057006835938C39.0994526875,28.349057006835938,38.7994536875,28.949057006835936,38.5494536875,29.499058006835938C38.4994506875,29.449057006835936,38.4994506875,29.39905700683594,38.4494516875,29.299057006835938C38.3994526875,29.14905700683594,38.2994536875,28.949057006835936,38.1494526875,28.799057006835938C37.7994536875,28.449057006835936,37.1994516875,28.299057006835938,36.1994516875,28.699057006835936C34.749452687499996,29.299057006835938,33.799451687499996,31.14905700683594,33.1994516875,32.79905700683594C32.599452687500005,34.449057006835936,32.299451687499996,36.199057006835936,32.299451687499996,36.199057006835936C32.299451687499996,36.199057006835936,34.4494516875,36.199057006835936,35.5494536875,36.14905700683594C35.6494526875,36.14905700683594,35.7494506875,36.14905700683594,35.8494526875,36.09905600683594C35.9494516875,36.09905600683594,35.9994506875,36.04905700683594,36.0494536875,36.04905700683594C36.1494526875,35.99905800683594,36.1994516875,35.99905800683594,36.2994536875,36.04905700683594C36.3494526875,36.04905700683594,36.3994526875,36.09905600683594,36.3994526875,36.34905600683594C36.3994526875,36.54905700683594,36.3494526875,36.84905600683594,36.2994536875,37.199057006835936C36.1494526875,37.84905600683594,35.9494516875,38.74905800683594,35.7994536875,39.699057006835936C35.7494506875,39.699057006835936,35.6994516875,39.64905700683594,35.6994516875,39.59905600683594C35.249452687499996,38.64905700683594,34.6494526875,38.24905800683594,33.999452687499996,38.04905700683594C33.6494526875,37.949057006835936,33.299451687499996,37.89905700683594,32.9494516875,37.89905700683594C32.599452687500005,37.89905700683594,32.249452687499996,37.89905700683594,31.9494516875,37.84905600683594C31.9494516875,37.84905600683594,31.7994516875,37.84905600683594,31.7994516875,37.84905600683594C31.7994516875,37.84905600683594,31.6994516875,38.09905600683594,31.6994516875,38.09905600683594C31.6994516875,38.09905600683594,31.6994516875,38.09905600683594,31.6994516875,38.09905600683594C31.6994516875,38.09905600683594,31.6994516875,38.09905600683594,31.6994516875,38.09905600683594ZM35.299451687499996,50.74905800683594C35.3494526875,50.79905700683594,35.4994506875,50.74905800683594,35.4994506875,50.74905800683594C35.7994536875,50.64905500683594,36.2494506875,50.49905800683594,36.5994526875,50.39905500683594C36.2494506875,50.64905500683594,35.6994516875,51.04905700683594,35.099452687500005,51.44905900683594C34.1494526875,52.14905500683594,33.599452687500005,52.54905700683594,33.249452687499996,52.84905600683594C33.249452687499996,52.84905600683594,33.049451687499996,52.84905600683594,33.049451687499996,52.84905600683594C32.999452687499996,52.84905600683594,32.9494516875,52.79905700683594,32.8994526875,52.79905700683594C32.8994526875,52.44905900683594,33.3994526875,50.09905600683594,33.9494516875,49.14905500683594C33.9494516875,49.14905500683594,33.6994516875,48.94905900683594,33.6994516875,48.94905900683594C33.4494516875,49.19905900683594,33.099452687500005,49.59905600683594,32.6494526875,50.04905700683594C32.1994516875,50.49905800683594,31.6994516875,50.94905900683594,31.1494526875,51.34905600683594C30.0494516875,52.19905900683594,28.7994516875,52.74905800683594,27.7994516875,52.39905500683594C26.5494516875,51.94905900683594,27.5994526875,46.79905700683594,33.749452687499996,43.49905800683594C35.3494526875,42.64905700683594,37.3994526875,41.79905700683594,39.8994526875,41.949057006835936C39.9494516875,42.34905600683594,39.8494526875,42.949057006835936,39.8494526875,42.949057006835936C39.8494526875,42.949057006835936,39.7994536875,43.14905700683594,39.7994536875,43.14905700683594C39.7994536875,43.14905700683594,39.6494526875,43.29905700683594,39.6494526875,43.29905700683594C39.6494526875,43.29905700683594,39.4994506875,43.449057006835936,39.3494526875,43.54905700683594C38.7494506875,42.84905600683594,35.4494516875,43.14905700683594,33.8994526875,43.949057006835936C31.4994526875,45.24905800683594,27.9494516875,49.29905700683594,29.7994516875,50.69905900683594C31.1494526875,51.74905800683594,35.099452687500005,47.09905600683594,35.4994506875,44.199057006835936C35.4994506875,44.199057006835936,36.0994526875,44.04905700683594,36.0994526875,44.04905700683594C36.1494526875,44.59905600683594,35.8994526875,45.39905500683594,35.5494536875,46.09905600683594C35.1994516875,46.89905500683594,34.799451687499996,47.54905700683594,34.749452687499996,47.59905600683594C34.749452687499996,47.59905600683594,34.999452687499996,47.84905600683594,34.999452687499996,47.84905600683594C35.1494526875,47.74905800683594,35.099452687500005,47.84905600683594,35.5494536875,47.64905500683594C35.7494506875,47.54905700683594,35.9494516875,47.44905900683594,36.1494526875,47.39905500683594C36.2494506875,47.39905500683594,36.2994536875,47.34905600683594,36.3494526875,47.34905600683594C36.3494526875,47.44905900683594,36.2994536875,47.59905600683594,36.2994536875,47.74905800683594C36.2494506875,48.14905500683594,36.1494526875,48.39905500683594,35.9994506875,48.79905700683594C35.7994536875,49.44905900683594,35.6494526875,49.74905800683594,35.3994526875,50.39905500683594C35.249452687499996,50.59905600683594,35.249452687499996,50.69905900683594,35.299451687499996,50.74905800683594C35.299451687499996,50.74905800683594,35.299451687499996,50.74905800683594,35.299451687499996,50.74905800683594C35.299451687499996,50.74905800683594,35.299451687499996,50.74905800683594,35.299451687499996,50.74905800683594ZM50.6494526875,50.64905500683594C50.6494526875,50.64905500683594,50.9494516875,50.54905700683594,50.9494516875,50.54905700683594C51.3494526875,50.39905500683594,51.8494526875,50.34905600683594,51.9994506875,50.34905600683594C51.8494526875,50.49905800683594,51.5494536875,50.64905500683594,51.2494506875,50.84905600683594C50.6494526875,51.24905800683594,49.8494526875,51.74905800683594,49.1994516875,52.29905700683594C48.8994526875,52.54905700683594,48.4494516875,52.74905800683594,48.2494506875,52.69905900683594C48.1994516875,52.64905500683594,48.1494526875,52.59905600683594,48.1494526875,52.49905800683594C48.1494526875,52.29905700683594,48.1994516875,51.99905800683594,48.3494526875,51.59905600683594C48.5994526875,50.79905700683594,49.0494536875,49.74905800683594,49.5494536875,48.64905500683594C50.0494536875,47.54905700683594,50.4994506875,46.44905900683594,50.8494526875,45.54905700683594C50.9994506875,45.09905600683594,51.1494526875,44.699057006835936,51.1994516875,44.34905600683594C51.2494506875,44.04905700683594,51.2994536875,43.74905800683594,51.1494526875,43.54905700683594C51.0494536875,43.39905700683594,50.8494526875,43.39905700683594,50.7494506875,43.449057006835936C50.5994526875,43.49905800683594,50.4494516875,43.54905700683594,50.2994536875,43.64905700683594C49.9994506875,43.84905600683594,49.5994526875,44.09905600683594,49.1994516875,44.39905700683594C48.4494516875,44.99905800683594,47.6994516875,45.64905500683594,47.6994516875,45.64905500683594C47.6994516875,45.64905500683594,47.1994516875,46.84905600683594,46.6994516875,48.14905500683594C46.2494506875,49.34905600683594,45.7494506875,50.64905500683594,45.5994526875,51.19905900683594C44.7994536875,51.59905600683594,44.1994516875,51.94905900683594,43.7494506875,52.19905900683594C43.4994506875,52.34905600683594,43.3494526875,52.44905900683594,43.1494526875,52.49905800683594C42.9994506875,52.59905600683594,42.8494526875,52.64905500683594,42.7494506875,52.69905900683594C42.6494526875,52.74905800683594,42.5494536875,52.74905800683594,42.4994506875,52.74905800683594C42.7994536875,52.19905900683594,43.6494526875,50.49905800683594,44.4494516875,48.74905800683594C44.9494516875,47.69905900683594,45.3994526875,46.59905600683594,45.7494506875,45.79905700683594C45.8994526875,45.39905500683594,46.0494536875,44.99905800683594,46.0994526875,44.74905800683594C46.1494526875,44.59905600683594,46.1494526875,44.49905800683594,46.1494526875,44.39905700683594C46.1494526875,44.29905700683594,46.1494526875,44.199057006835936,46.0494536875,44.09905600683594C45.5494536875,43.74905800683594,43.6494526875,44.89905500683594,42.7494506875,45.89905500683594C42.0494536875,47.09905600683594,40.8994526875,49.19905900683594,40.2494506875,51.39905500683594C40.1494526875,51.69905900683594,38.0494536875,52.79905700683594,37.6494526875,52.64905500683594C37.4494516875,52.59905600683594,37.4494516875,52.39905500683594,37.5994526875,52.24905800683594C39.2994536875,50.74905800683594,41.1494526875,45.54905700683594,41.5994526875,43.79905700683594C41.6494526875,43.699057006835936,41.5494536875,43.59905600683594,41.4994506875,43.54905700683594C41.4494516875,43.49905800683594,41.3994526875,43.449057006835936,41.2994536875,43.449057006835936C41.1494526875,43.39905700683594,40.9994506875,43.34905600683594,40.7994536875,43.34905600683594C40.4994506875,43.29905700683594,40.1494526875,43.34905600683594,39.8994526875,43.49905800683594C39.8494526875,43.39905700683594,39.6994516875,43.199057006835936,39.6994516875,43.14905700683594C39.7994536875,43.14905700683594,40.4994506875,43.04905700683594,41.1494526875,42.84905600683594C41.8494526875,42.64905700683594,42.6994516875,42.24905800683594,43.3494526875,41.59905600683594C43.3994526875,41.54905700683594,43.5494536875,41.449057006835936,43.6494526875,41.39905700683594C43.7494506875,41.34905600683594,43.8494526875,41.34905600683594,43.8494526875,41.34905600683594C43.8494526875,41.449057006835936,43.8494526875,41.54905700683594,43.7994536875,41.699057006835936C43.7494506875,41.949057006835936,43.6994516875,42.29905700683594,43.5994526875,42.699057006835936C43.4494516875,43.449057006835936,43.1994516875,44.199057006835936,43.0494536875,44.39905700683594C43.0494536875,44.39905700683594,43.2994536875,44.59905600683594,43.2994536875,44.59905600683594C44.1994516875,43.64905700683594,47.3494526875,41.84905600683594,47.8494526875,42.14905700683594C48.1494526875,42.29905700683594,48.2494506875,42.699057006835936,48.1994516875,43.14905700683594C48.1994516875,43.39905700683594,48.1494526875,43.59905600683594,48.0994526875,43.79905700683594C48.0494536875,43.99905800683594,47.9994506875,44.199057006835936,47.9494516875,44.29905700683594C47.9494516875,44.29905700683594,47.7994536875,44.79905700683594,47.7994536875,44.79905700683594C47.7994536875,44.79905700683594,48.1994516875,44.449057006835936,48.1994516875,44.449057006835936C48.9994506875,43.79905700683594,50.0494536875,43.09905600683594,50.9494516875,42.64905700683594C51.3994526875,42.39905700683594,51.7994536875,42.24905800683594,52.1494526875,42.14905700683594C52.4994506875,42.04905700683594,52.6994516875,42.09905600683594,52.7494506875,42.14905700683594C53.1494526875,42.49905800683594,52.7994536875,44.04905700683594,52.1994516875,45.89905500683594C51.5994526875,47.69905900683594,50.7994536875,49.54905700683594,50.5494536875,50.34905600683594C50.5494536875,50.34905600683594,50.6494526875,50.64905500683594,50.6494526875,50.64905500683594C50.6494526875,50.64905500683594,50.6494526875,50.64905500683594,50.6494526875,50.64905500683594C50.6494526875,50.64905500683594,50.6494526875,50.64905500683594,50.6494526875,50.64905500683594ZM61.8994526875,39.99905800683594C62.3994526875,38.79905700683594,62.7494506875,37.89905700683594,62.8494526875,37.699057006835936C62.9994506875,37.449057006835936,62.8494526875,37.24905800683594,62.6494526875,37.14905700683594C62.4494516875,37.04905700683594,62.2494506875,37.04905700683594,61.9994506875,36.99905800683594C61.9994506875,36.99905800683594,61.1494526875,36.99905800683594,61.1494526875,36.99905800683594C61.1494526875,36.99905800683594,61.1494526875,36.89905700683594,61.1494526875,36.89905700683594C61.3994526875,36.84905600683594,61.9494516875,36.74905800683594,62.5494536875,36.59905600683594C63.3494526875,36.39905700683594,64.2494506875,36.09905600683594,64.7994536875,35.64905700683594C64.7994536875,35.64905700683594,65.7994536875,35.64905700683594,65.7994536875,35.64905700683594C65.3994526875,36.49905800683594,64.0494536875,39.54905700683594,62.7494506875,42.49905800683594C61.2494506875,45.94905900683594,59.6994516875,49.64905500683594,59.9494516875,50.09905600683594C59.9494516875,50.09905600683594,59.9994506875,50.24905800683594,59.9994506875,50.24905800683594C59.9994506875,50.29905700683594,60.0494536875,50.34905600683594,60.0994526875,50.39905500683594C60.1994516875,50.49905800683594,60.2994536875,50.54905700683594,60.4494516875,50.49905800683594C60.7494506875,50.49905800683594,60.9994506875,50.29905700683594,61.1994516875,50.09905600683594C61.2994536875,49.99905800683594,61.3994526875,49.89905500683594,61.4994506875,49.84905600683594C61.5994526875,49.79905700683594,61.6494526875,49.74905800683594,61.6994516875,49.69905900683594C61.6994516875,49.69905900683594,61.7994536875,49.69905900683594,61.7994536875,49.69905900683594C61.7494506875,49.79905700683594,61.6994516875,49.84905600683594,61.6494526875,49.89905500683594C61.3994526875,50.29905700683594,58.9494516875,52.29905700683594,57.9994506875,52.39905500683594C57.4994506875,52.44905900683594,57.3494526875,52.34905600683594,57.2994536875,52.24905800683594C57.2494506875,52.19905900683594,57.2494506875,52.14905500683594,57.1994516875,52.04905700683594C57.1494526875,51.94905900683594,57.1494526875,51.84905600683594,57.1494526875,51.79905700683594C57.1494526875,51.74905800683594,58.4994506875,48.29905700683594,59.9994506875,44.699057006835936C59.9994506875,44.699057006835936,61.8994526875,39.99905800683594,61.8994526875,39.99905800683594C61.8994526875,39.99905800683594,61.8994526875,39.99905800683594,61.8994526875,39.99905800683594C61.8994526875,39.99905800683594,61.8994526875,39.99905800683594,61.8994526875,39.99905800683594ZM67.9994506875,51.84905600683594C67.9994506875,51.84905600683594,68.1994556875,51.39905500683594,68.1994556875,51.39905500683594C68.1994556875,51.39905500683594,67.7494506875,51.59905600683594,67.7494506875,51.59905600683594C67.0494536875,51.94905900683594,66.0494536875,52.24905800683594,64.8994526875,52.54905700683594C63.7494506875,52.84905600683594,62.4494516875,53.19905900683594,61.1494526875,53.59905600683594C58.5994526875,54.39905500683594,56.0494536875,55.44905900683594,54.8494526875,57.19905900683594C53.2994536875,59.49905800683594,54.0994526875,62.34905600683594,57.5494536875,61.74905800683594C60.7494506875,61.29905700683594,66.09945268749999,55.99905800683594,67.9994506875,51.84905600683594C67.9994506875,51.84905600683594,67.9994506875,51.84905600683594,67.9994506875,51.84905600683594C67.9994506875,51.84905600683594,67.9994506875,51.84905600683594,67.9994506875,51.84905600683594ZM77.2994536875,31.14905700683594C79.1494526875,31.849056006835937,82.1994556875,35.24905800683594,82.2494506875,37.949057006835936C82.2994536875,43.79905700683594,76.7994536875,48.79905700683594,69.3494486875,51.04905700683594C69.3494486875,51.04905700683594,69.2494506875,51.04905700683594,69.2494506875,51.04905700683594C69.2494506875,51.04905700683594,69.1994556875,51.14905500683594,69.1994556875,51.14905500683594C65.4994506875,60.04905700683594,58.3494526875,64.99905800683594,54.2994536875,64.04905700683594C51.2994536875,63.34905600683594,51.6994516875,58.79905700683594,54.0994526875,56.44905900683594C55.7994536875,54.79905700683594,57.8994526875,53.94905900683594,60.3494526875,53.19905900683594C62.7994536875,52.44905900683594,65.59945268749999,51.74905800683594,68.5494536875,50.39905500683594C68.5494536875,50.39905500683594,68.5994486875,50.34905600683594,68.5994486875,50.34905600683594C68.5994486875,50.34905600683594,68.5994486875,50.29905700683594,68.5994486875,50.29905700683594C68.7494506875,49.94905900683594,69.3494486875,48.44905900683594,69.7994536875,46.94905900683594C70.0494536875,46.19905900683594,70.2494506875,45.44905900683594,70.2994536875,44.89905500683594C70.3494486875,44.59905600683594,70.3494486875,44.34905600683594,70.2994536875,44.09905600683594C70.2494506875,43.89905700683594,70.1994556875,43.699057006835936,69.9994506875,43.59905600683594C68.9994506875,43.04905700683594,64.7494506875,48.24905800683594,62.6994516875,51.69905900683594C62.6494526875,51.59905600683594,62.5994526875,51.54905700683594,62.5994526875,51.49905800683594C63.4994506875,49.49905800683594,64.84945268749999,44.449057006835936,63.8994526875,43.54905700683594C63.7994536875,43.449057006835936,63.6494526875,43.449057006835936,63.5994526875,43.449057006835936C63.4994506875,43.449057006835936,63.3994526875,43.49905800683594,63.2994536875,43.59905600683594C63.1494526875,43.699057006835936,63.0494536875,43.79905700683594,62.9494516875,43.84905600683594C62.9494516875,43.84905600683594,62.7994536875,43.74905800683594,62.7994536875,43.74905800683594C63.4494516875,43.24905800683594,65.3994526875,41.74905800683594,65.8994526875,42.09905600683594C65.9994506875,42.199057006835936,66.09945268749999,42.39905700683594,66.09945268749999,42.74905800683594C66.09945268749999,43.09905600683594,66.0494536875,43.54905700683594,65.9994506875,43.99905800683594C65.84945268749999,44.89905500683594,65.59945268749999,45.84905600683594,65.4994506875,46.14905500683594C65.4994506875,46.14905500683594,65.7994536875,46.29905700683594,65.7994536875,46.29905700683594C67.2494506875,43.79905700683594,70.5994486875,41.24905800683594,71.2494506875,41.24905800683594C71.5494536875,41.24905800683594,72.0994486875,41.949057006835936,72.1994556875,42.24905800683594C72.3994526875,42.99905800683594,71.8994526875,44.59905600683594,71.2494506875,46.14905500683594C70.5994486875,47.69905900683594,69.8994526875,49.14905500683594,69.7494506875,49.54905700683594C69.7494506875,49.54905700683594,69.5994486875,49.89905500683594,69.5994486875,49.89905500683594C69.5994486875,49.89905500683594,69.9494556875,49.79905700683594,69.9494556875,49.79905700683594C73.6494526875,48.74905800683594,81.6494526875,43.99905800683594,81.5994486875,38.04905700683594C81.6994556875,34.84905600683594,79.1494526875,32.24905800683594,77.2994536875,31.14905700683594C77.2994536875,31.14905700683594,77.2994536875,31.14905700683594,77.2994536875,31.14905700683594C77.2994536875,31.14905700683594,77.2994536875,31.14905700683594,77.2994536875,31.14905700683594ZM53.8994526875,43.79905700683594C53.7994536875,43.79905700683594,53.5994526875,43.699057006835936,53.6494526875,43.54905700683594C53.8494526875,43.449057006835936,54.3994526875,43.24905800683594,54.8994526875,43.09905600683594C54.8994526875,43.09905600683594,55.6994516875,42.84905600683594,55.6994516875,42.84905600683594C55.9494516875,42.74905800683594,56.1494526875,42.699057006835936,56.1994516875,42.64905700683594C56.3994526875,42.54905700683594,56.7494506875,42.34905600683594,57.1494526875,42.14905700683594C57.5494536875,41.949057006835936,57.9494516875,41.89905700683594,58.1994516875,41.99905800683594C58.1994516875,41.99905800683594,58.1994516875,42.04905700683594,58.2494506875,42.04905700683594C58.2494506875,42.04905700683594,58.2494506875,42.34905600683594,58.2494506875,42.34905600683594C58.1994516875,42.59905600683594,58.0994526875,42.949057006835936,57.9494516875,43.34905600683594C57.6494526875,44.199057006835936,57.1494526875,45.24905800683594,56.6494526875,46.34905600683594C56.1494526875,47.44905900683594,55.6494526875,48.54905700683594,55.3494526875,49.39905500683594C55.1994516875,49.84905600683594,55.0994526875,50.19905900683594,55.0494536875,50.49905800683594C55.0494536875,50.64905500683594,54.9994506875,50.79905700683594,55.0494536875,50.89905500683594C55.0494536875,50.99905800683594,55.1494526875,51.14905500683594,55.2494506875,51.19905900683594C55.7494506875,51.44905900683594,56.1994516875,51.24905800683594,56.5494536875,51.04905700683594C56.6494526875,50.99905800683594,56.6994516875,50.94905900683594,56.7494506875,50.94905900683594C56.7994536875,50.89905500683594,56.8994526875,50.89905500683594,56.9494516875,50.84905600683594C56.9494516875,50.84905600683594,57.0994526875,50.84905600683594,57.0994526875,50.84905600683594C56.9994506875,50.94905900683594,56.8994526875,50.99905800683594,56.6994516875,51.09905600683594C56.3494526875,51.29905700683594,55.7994536875,51.54905700683594,55.2494506875,51.74905800683594C54.0494536875,52.19905900683594,52.8994526875,52.44905900683594,52.6494526875,52.34905600683594C51.9494516875,52.04905700683594,55.8494526875,43.84905600683594,55.8994526875,43.64905700683594C55.8994526875,43.64905700683594,56.0494536875,43.34905600683594,56.0494536875,43.34905600683594C56.0494536875,43.34905600683594,53.8994526875,43.79905700683594,53.8994526875,43.79905700683594C53.8994526875,43.79905700683594,53.8994526875,43.79905700683594,53.8994526875,43.79905700683594C53.8994526875,43.79905700683594,53.8994526875,43.79905700683594,53.8994526875,43.79905700683594Z" fill="#FEFEFE" fill-opacity="1"/></svg>