<svg xmlns="http://www.w3.org/2000/svg" xmlns:xlink="http://www.w3.org/1999/xlink" fill="none" version="1.1" width="85" height="85.00019836425781" viewBox="0 0 85 85.00019836425781"><path d="M0,28.3335C0,28.3335,17.6917,40.139099,17.6917,40.139099C17.6917,40.139099,38.9417,25.972401,38.9417,25.972401C38.9417,25.972401,30.0959,20.052999,30.0959,20.052999C30.0959,20.052999,41.6021,12.4044,41.6021,12.4044C41.6021,12.4044,66.377197,28.9321,66.377197,28.9321C66.377197,28.9321,25.672899,56.068298,25.672899,56.068298C25.672899,56.068298,34.518799,61.987701,34.518799,61.987701C34.518799,61.987701,85,28.3335,85,28.3335C85,28.3335,42.5,0,42.5,0C42.5,0,0,28.3335,0,28.3335C0,28.3335,0,28.3335,0,28.3335ZM85,56.666901C85,56.666901,67.2752,44.861301,67.2752,44.861301C67.2752,44.861301,46.025002,59.028,46.025002,59.028C46.025002,59.028,54.870899,64.913902,54.870899,64.913902C54.870899,64.913902,43.364601,72.5961,43.364601,72.5961C43.364601,72.5961,18.5896,56.068298,18.5896,56.068298C18.5896,56.068298,59.2938,28.9321,59.2938,28.9321C59.2938,28.9321,50.448002,23.012699,50.448002,23.012699C50.448002,23.012699,0,56.666901,0,56.666901C0,56.666901,42.5,85.000198,42.5,85.000198C42.5,85.000198,85,56.666901,85,56.666901C85,56.666901,85,56.666901,85,56.666901ZM85,11.8056C85,11.8056,76.120903,17.725201,76.120903,17.725201C76.120903,17.725201,67.2752,11.8056,67.2752,11.8056C67.2752,11.8056,85,0,85,0C85,0,85,11.8056,85,11.8056C85,11.8056,85,11.8056,85,11.8056ZM0,73.194702C0,73.194702,8.84585,67.275299,8.84585,67.275299C8.84585,67.275299,17.6917,73.194702,17.6917,73.194702C17.6917,73.194702,0,85.000198,0,85.000198C0,85.000198,0,73.194702,0,73.194702C0,73.194702,0,73.194702,0,73.194702Z" fill-rule="evenodd" fill="#003882" fill-opacity="1"/></svg>