<svg xmlns="http://www.w3.org/2000/svg" xmlns:xlink="http://www.w3.org/1999/xlink" fill="none" version="1.1" width="85" height="84.99560546875" viewBox="0 0 85 84.99560546875"><path d="M16.67,50.815582242138674C14.1727,54.20197194213867,12.6956,58.388971942138674,12.6956,62.91957294213867C12.6956,62.91957294213867,12.6956,72.29957194213867,12.6956,72.29957194213867C12.6956,72.29957194213867,22.0791,72.29957194213867,22.0791,72.29957194213867C26.609699,72.29957194213867,30.7932,70.82597194213866,34.1796,68.32517194213867C36.315601,72.04457294213867,39.145901,75.30697294213867,42.5005,77.94247094213867C36.871799,82.35617094213868,29.7836,84.99517094213867,22.0791,84.99517094213867C22.0791,84.99517094213867,0,84.99517094213867,0,84.99517094213867C0,84.99517094213867,0,62.91957294213867,0,62.91957294213867C0,55.211571942138676,2.63901,48.126981742138675,7.0562501,42.49827194213867C9.68818,45.852821842138674,12.9542,48.68312214213867,16.67,50.815582242138674C16.67,50.815582242138674,16.67,50.815582242138674,16.67,50.815582242138674Z" fill="#80CC28" fill-opacity="1" transform="matrix(1,0,0,-1,0,84.99654388427734)"/><path d="M85.00003842163086,85.00095776367188C85.00003842163086,85.00095776367188,62.92443842163086,85.00095776367188,62.92443842163086,85.00095776367188C55.21633842163086,85.00095776367188,48.12824822163086,82.36195776367188,42.49953842163086,77.94465676367187C45.85763832163086,75.31275976367188,48.68792822163086,72.05025876367188,50.82038882163086,68.33085776367187C54.20683842163086,70.83175876367187,58.39023842163086,72.30535676367188,62.92443842163086,72.30535676367188C62.92443842163086,72.30535676367188,72.30793742163087,72.30535676367188,72.30793742163087,72.30535676367188C72.30793742163087,72.30535676367188,72.30793742163087,62.925357763671876,72.30793742163087,62.925357763671876C72.30793742163087,58.39115776367188,70.82723842163085,54.20775776367188,68.32993842163086,50.82130816367187C72.04933942163086,48.685307963671875,75.31184042163086,45.85500766367188,77.94373742163086,42.500457763671875C82.36103842163087,48.12916756367188,85.00003842163086,55.217257763671874,85.00003842163086,62.925357763671876C85.00003842163086,62.925357763671876,85.00003842163086,85.00095776367188,85.00003842163086,85.00095776367188C85.00003842163086,85.00095776367188,85.00003842163086,85.00095776367188,85.00003842163086,85.00095776367188Z" fill="#F47216" fill-opacity="1" transform="matrix(1,0,0,-1,0,85.00091552734375)"/><path d="M34.1796,101.66212072753906C30.7932,99.16832072753907,26.606199,97.68762072753907,22.0756,97.68762072753907C22.0756,97.68762072753907,12.6956,97.68762072753907,12.6956,97.68762072753907C12.6956,97.68762072753907,12.6956,107.07122072753907,12.6956,107.07122072753907C12.6956,111.60181972753907,14.1727,115.78522072753907,16.67,119.17522072753906C12.9506,121.30771972753907,9.68818,124.13801972753906,7.0527101,127.49251972753906C2.63901,121.86381872753907,0,114.77922072753907,0,107.07122072753907C0,107.07122072753907,0,84.99562072753906,0,84.99562072753906C0,84.99562072753906,22.0756,84.99562072753906,22.0756,84.99562072753906C29.7836,84.99562072753906,36.8717,87.63463072753906,42.496899,92.04833082753906C39.142399,94.68025112753907,36.312099,97.94622072753906,34.1796,101.66212072753906C34.1796,101.66212072753906,34.1796,101.66212072753906,34.1796,101.66212072753906Z" fill="#059FB8" fill-opacity="1" transform="matrix(1,0,0,-1,0,169.99124145507812)"/><path d="M68.32993842163086,119.17522072753906C70.82723842163085,115.78522072753907,72.30793742163087,111.60181972753907,72.30793742163087,107.07122072753907C72.30793742163087,107.07122072753907,72.30793742163087,97.68762072753907,72.30793742163087,97.68762072753907C72.30793742163087,97.68762072753907,62.92443842163086,97.68762072753907,62.92443842163086,97.68762072753907C58.39023842163086,97.68762072753907,54.20683842163086,99.16832072753907,50.82038882163086,101.66212072753906C48.68792822163086,97.94622072753906,45.85763832163086,94.68025112753907,42.49953842163086,92.04833082753906C48.12824822163086,87.63463072753906,55.21633842163086,84.99562072753906,62.92443842163086,84.99562072753906C62.92443842163086,84.99562072753906,85.00003842163086,84.99562072753906,85.00003842163086,84.99562072753906C85.00003842163086,84.99562072753906,85.00003842163086,107.07122072753907,85.00003842163086,107.07122072753907C85.00003842163086,114.77922072753907,82.36103842163087,121.86381872753907,77.94373742163086,127.49251972753906C75.31184042163086,124.13801972753906,72.04933942163086,121.30771972753907,68.32993842163086,119.17522072753906C68.32993842163086,119.17522072753906,68.32993842163086,119.17522072753906,68.32993842163086,119.17522072753906Z" fill="#539DDB" fill-opacity="1" transform="matrix(1,0,0,-1,0,169.99124145507812)"/><path d="M42.498775448925784,56.00286717529297C39.144225148925784,53.37096817529297,36.313925248925784,50.10846717529297,34.18146514892578,46.389067175292965C38.82895514892578,42.98846717529297,41.18458504892578,38.06115727529297,42.34291554892578,31.674401175292967C42.34291554892578,31.674401175292967,42.498775448925784,31.52916717529297,42.498775448925784,31.52916717529297C42.498775448925784,31.52916717529297,42.65463544892578,31.674401175292967,42.65463544892578,31.674401175292967C43.81296534892578,38.06115727529297,46.16856514892578,42.98846717529297,50.81606514892578,46.389067175292965C48.68366514892578,50.10846717529297,45.85336514892578,53.37096817529297,42.498775448925784,56.00286717529297C42.498775448925784,56.00286717529297,42.498775448925784,56.00286717529297,42.498775448925784,56.00286717529297Z" fill="#965A2B" fill-opacity="1" transform="matrix(1,0,0,-1,0,63.05833435058594)"/><path d="M7.054844856262207,59.13365551484375C9.686764956262207,55.77909521484375,12.952764956262207,52.94880531484375,16.668634456262208,50.81634521484375C20.06924485626221,55.46383521484375,24.996544856262208,57.81946511484375,31.383345856262206,58.97779561484375C31.383345856262206,58.97779561484375,31.528544856262208,59.13365551484375,31.528544856262208,59.13365551484375C31.528544856262208,59.13365551484375,31.383345856262206,59.28951551484375,31.383345856262206,59.28951551484375C24.996544856262208,60.44784541484375,20.06924485626221,62.799945214843746,16.668634456262208,67.45094521484376C12.952764956262207,65.31854521484375,9.686764956262207,62.48824521484375,7.054844856262207,59.13365551484375C7.054844856262207,59.13365551484375,7.054844856262207,59.13365551484375,7.054844856262207,59.13365551484375Z" fill="#1E8153" fill-opacity="1" transform="matrix(1,0,0,-1,0,101.6326904296875)"/><path d="M42.498775448925784,77.94078063964844C45.85336514892578,80.57270073964844,48.68366514892578,83.83516073964844,50.81606514892578,87.55457023964844C46.16856514892578,90.95158063964844,43.81296534892578,95.88248063964843,42.65463544892578,102.26928163964844C42.65463544892578,102.26928163964844,42.498775448925784,102.41448063964845,42.498775448925784,102.41448063964845C42.498775448925784,102.41448063964845,42.34291554892578,102.26928163964844,42.34291554892578,102.26928163964844C41.18458504892578,95.88248063964843,38.82895514892578,90.95158063964844,34.18146514892578,87.55457023964844C36.313925248925784,83.83516073964844,39.144225148925784,80.57270073964844,42.498775448925784,77.94078063964844C42.498775448925784,77.94078063964844,42.498775448925784,77.94078063964844,42.498775448925784,77.94078063964844Z" fill="#2F718D" fill-opacity="1" transform="matrix(1,0,0,-1,0,155.88156127929688)"/><path d="M77.94452901000977,59.13365551484375C75.31263001000977,62.48824521484375,72.05022801000976,65.31854521484375,68.33072901000976,67.45094521484376C64.93372901000977,62.799945214843746,60.00282911000976,60.44784541484375,53.61606301000977,59.28951551484375C53.61606301000977,59.28951551484375,53.470829010009766,59.13365551484375,53.470829010009766,59.13365551484375C53.470829010009766,59.13365551484375,53.61606301000977,58.97779561484375,53.61606301000977,58.97779561484375C60.00282911000976,57.81946511484375,64.93372901000977,55.46383521484375,68.33072901000976,50.81634521484375C72.05022801000976,52.94880531484375,75.31263001000977,55.77909521484375,77.94452901000977,59.13365551484375C77.94452901000977,59.13365551484375,77.94452901000977,59.13365551484375,77.94452901000977,59.13365551484375Z" fill="#32639F" fill-opacity="1" transform="matrix(1,0,0,-1,0,101.6326904296875)"/></svg>