<svg xmlns="http://www.w3.org/2000/svg" xmlns:xlink="http://www.w3.org/1999/xlink" fill="none" version="1.1" width="85" height="73.63134765625" viewBox="0 0 85 73.63134765625"><defs><radialGradient cx="0" cy="0" r="1" gradientUnits="userSpaceOnUse" id="master_svg0_0_4445" gradientTransform="translate(69.83622444135608 -51.7537692869887) rotate(0) scale(65.607097560071 1282.3622367686162)"><stop offset="0%" stop-color="#FEDF33" stop-opacity="1"/><stop offset="44.00019943714142%" stop-color="#FBB809" stop-opacity="1"/><stop offset="89.99940156936646%" stop-color="#EE960D" stop-opacity="1"/><stop offset="100%" stop-color="#E17A10" stop-opacity="1"/></radialGradient><radialGradient cx="0" cy="0" r="1" gradientUnits="userSpaceOnUse" id="master_svg1_0_4448" gradientTransform="translate(52.70571890472308 133.44227852797485) rotate(0) scale(65.6561609566836 129.21761567533778)"><stop offset="0%" stop-color="#FEDF33" stop-opacity="1"/><stop offset="44.00019943714142%" stop-color="#FBB809" stop-opacity="1"/><stop offset="89.99940156936646%" stop-color="#EE960D" stop-opacity="1"/><stop offset="100%" stop-color="#E17A10" stop-opacity="1"/></radialGradient><radialGradient cx="0" cy="0" r="1" gradientUnits="userSpaceOnUse" id="master_svg2_0_4451" gradientTransform="translate(4.864972388910331 99.64104792968214) rotate(0) scale(65.62993790657302 251.8253298972308)"><stop offset="0%" stop-color="#FEDF33" stop-opacity="1"/><stop offset="44.00019943714142%" stop-color="#FBB809" stop-opacity="1"/><stop offset="89.99940156936646%" stop-color="#EE960D" stop-opacity="1"/><stop offset="100%" stop-color="#E17A10" stop-opacity="1"/></radialGradient><radialGradient cx="0" cy="0" r="1" gradientUnits="userSpaceOnUse" id="master_svg3_0_4454" gradientTransform="translate(69.78838386632196 80.8322627536636) rotate(0) scale(65.81389293104257 118.488133060161)"><stop offset="0%" stop-color="#FEDF33" stop-opacity="1"/><stop offset="44.00019943714142%" stop-color="#FBB809" stop-opacity="1"/><stop offset="89.99940156936646%" stop-color="#EE960D" stop-opacity="1"/><stop offset="100%" stop-color="#D87301" stop-opacity="1"/></radialGradient></defs><path d="M53.868009338378904,13.426489333703614C52.32676883837891,13.426489333703614,47.745169138378905,13.426389233703613,42.420509338378906,6.960912223703613C42.489010639378904,6.879238233703613,42.55745833837891,6.797578632703614,42.628593338378906,6.713269233703613C43.995989338378905,8.312509133703614,45.7111992383789,9.948619133703613,47.552829238378905,11.139489133703613C49.2548194383789,12.235509433703612,51.22806933837891,12.968009433703614,52.86150933837891,13.147169133703613C54.05240933837891,13.278899233703612,57.99140933837891,13.228859433703613,62.475608338378905,13.228859433703613C62.49930933837891,13.228859433703613,62.51231033837891,13.218399033703612,62.5228103383789,13.205219233703613C62.5228103383789,13.205219233703613,62.40711033837891,13.400119333703614,62.40711033837891,13.400119333703614C62.39921033837891,13.418559033703612,62.383209338378904,13.426489333703614,62.364809338378905,13.426489333703614C62.364809338378905,13.426489333703614,53.868009338378904,13.426489333703614,53.868009338378904,13.426489333703614C53.868009338378904,13.426489333703614,53.868009338378904,13.426489333703614,53.868009338378904,13.426489333703614Z" fill="url(#master_svg0_0_4445)" fill-opacity="1" transform="matrix(1,0,0,-1,0,13.426538467407227)"/><path d="M22.640499003165147,133.44071965527343C22.62470100316515,133.44071965527343,22.60640000316515,133.43542465527344,22.59580000316515,133.41692365527342C22.59580000316515,133.41692365527342,5.918280103165149,104.53042265527344,5.918280103165149,104.53042265527344C5.918280103165149,104.53042265527344,0.6884880131651495,95.47252065527344,0.6884880131651495,95.47252065527344C0.6884880131651495,95.47252065527344,0.08256479716514947,94.42132165527343,0.08256479716514947,94.42132165527343C0.08256479716514947,94.42132165527343,0.003447329965149476,94.28692265527343,0.003447329965149476,94.28692265527343C-0.001822020034850524,94.27632165527343,-0.0017847099348505242,94.25792165527344,0.008753990165149475,94.23682165527345C0.008753990165149475,94.23682165527345,15.89580000316515,66.72032165527344,15.89580000316515,66.72032165527344C15.89580000316515,66.72032165527344,15.89580000316515,66.83369065527344,15.89580000316515,66.83369065527344C15.55060000316515,67.46601062527344,15.30310000316515,67.95346165527344,15.17130000316515,68.25909165527344C14.50740000316515,69.76348165527344,14.13050000316515,71.84478185527344,14.22800000316515,73.86821175527344C14.49680000316515,79.19552165527344,17.32910000316515,84.45172165527345,18.75440000316515,86.91772065527344C22.095200003165147,92.70342265527344,28.55279900316515,103.89282265527343,28.55279900316515,103.89282265527343C28.55279900316515,103.89282265527343,35.01310000316515,115.08242065527344,38.35390100316515,120.87071965527343C39.77660000316515,123.33412165527344,42.91450100316515,128.41641965527344,47.39609900316515,131.31192065527344C49.09540200316515,132.41062165527342,51.092499003165145,133.12181865527344,52.72069900316515,133.30102565527343C53.91420000316515,133.43531765527342,57.876701003165145,133.44071965527343,62.36619900316515,133.44071965527343C62.36619900316515,133.44071965527343,22.640499003165147,133.44071965527343,22.640499003165147,133.44071965527343C22.640499003165147,133.44071965527343,22.640499003165147,133.44071965527343,22.640499003165147,133.44071965527343Z" fill="url(#master_svg1_0_4448)" fill-opacity="1" transform="matrix(1,0,0,-1,0,133.44064331054688)"/><path d="M0.13674385845661163,107.83973321533203C0.38703785845661165,107.40243121533203,0.6346498584566116,106.97033321533203,0.8796748684566116,106.54883221533203C0.8796748684566116,106.54883221533203,0.13674385845661163,107.83973321533203,0.13674385845661163,107.83973321533203C0.13674385845661163,107.83973321533203,0.13674385845661163,107.83973321533203,0.13674385845661163,107.83973321533203ZM80.05164585845661,99.77773321533203C79.0794468584566,98.45513321533203,77.46694385845662,97.08243321533203,75.66484285845661,96.16033321533203C70.9145458584566,93.72853321533204,64.94964085845662,93.55203221533203,62.10424285845661,93.55203221533203C62.10424285845661,93.55203221533203,42.49954485845661,93.55203221533203,42.49954485845661,93.55203221533203C42.49954485845661,93.55203221533203,22.89764385845661,93.55203221533203,22.89764385845661,93.55203221533203C20.052143858456613,93.55203221533203,14.079443858456612,93.72853321533204,9.337024058456612,96.16033321533203C7.532274058456611,97.08243321533203,5.919813958456611,98.45513321533203,4.947624058456611,99.77773321533203C4.331113658456611,100.61813321533202,2.750293758456612,103.31083321533202,0.8796748684566116,106.54883221533203C0.8796748684566116,106.54883221533203,4.865933758456611,99.64073421533203,4.865933758456611,99.64073421533203C4.865933758456611,99.64073421533203,19.867843858456613,73.65503271433204,19.867843858456613,73.65503271433204C19.875743858456612,73.64185931533203,19.894144858456613,73.63123321533203,19.909942858456613,73.63123321533203C19.909942858456613,73.63123321533203,65.09184485845661,73.63123321533203,65.09184485845661,73.63123321533203C65.10504385845661,73.63123321533203,65.12354485845661,73.64443231533203,65.13144185845661,73.65760561433203C65.13144185845661,73.65760561433203,84.81764485845662,107.75273121533203,84.81764485845662,107.75273121533203C82.64674585845661,103.99313321533202,80.74454685845662,100.71823321533203,80.05164585845661,99.77773321533203C80.05164585845661,99.77773321533203,80.05164585845661,99.77773321533203,80.05164585845661,99.77773321533203Z" fill="url(#master_svg2_0_4451)" fill-opacity="1" transform="matrix(1,0,0,-1,0,147.26246643066406)"/><path d="M52.71482889404297,146.08432802929687C51.08659939404297,145.90512802929686,49.08951899404297,145.1939320292969,47.39015909404297,144.09532902929686C45.51427889404297,142.88333102929687,43.87535889404297,141.28932902929688,42.49742889404297,139.66372702929687C44.41283889404297,137.40583002929688,45.81977889404297,135.08993102929688,46.64706899404297,133.65403002929688C49.98782869404297,127.86573002929688,56.45072889404297,116.67623102929687,56.45072889404297,116.67623102929687C56.45072889404297,116.67623102929687,62.90832889404297,105.48672902929687,66.25172789404297,99.70103102929687C67.67182889404296,97.23502902929687,70.50662789404296,91.97883002929687,70.77012789404297,86.65153002929688C70.87022989404296,84.62813002929687,70.48812889404297,82.54679962929687,69.83212889404297,81.04240992929688C69.37102889404296,79.99116992929687,67.53992889404297,76.79530002929687,65.41382989404298,73.11203002929688C65.41382989404298,73.11203002929688,84.99742889404297,107.02803002929687,84.99742889404297,107.02803002929687C84.99742889404297,107.03073102929687,85.00003089404296,107.03342802929689,85.00003089404296,107.03873102929688C85.00003089404296,107.03873102929688,85.00003089404296,107.05973102929687,85.00003089404296,107.05973102929687C85.00003089404296,107.06502902929688,84.99732989404296,107.07033202929688,84.99472789404297,107.07292902929687C84.99472789404297,107.07292902929687,62.40252889404297,146.19773102929688,62.40252889404297,146.19773102929688C62.39462889404297,146.21613302929688,62.37862989404297,146.22403002929687,62.36022989404297,146.22403002929687C57.87072889404297,146.22403002929687,53.90832889404297,146.21872702929687,52.71482889404297,146.08432802929687C52.71482889404297,146.08432802929687,52.71482889404297,146.08432802929687,52.71482889404297,146.08432802929687Z" fill="url(#master_svg3_0_4454)" fill-opacity="1" transform="matrix(1,0,0,-1,0,146.22406005859375)"/></svg>