<svg xmlns="http://www.w3.org/2000/svg" xmlns:xlink="http://www.w3.org/1999/xlink" fill="none" version="1.1" width="84.3505859375" height="81.000244140625" viewBox="0 0 84.3505859375 81.000244140625"><path d="M56.000390625,40.50029296875C56.000390625,40.50029296875,42.600390625,53.95029296875,42.600390625,53.95029296875C42.600390625,53.95029296875,29.150390625,40.50029296875,29.150390625,40.50029296875C29.150390625,40.50029296875,42.600390625,27.05029296875,42.600390625,27.05029296875C42.600390625,27.05029296875,56.000390625,40.50029296875,56.000390625,40.50029296875C56.000390625,40.50029296875,56.000390625,40.50029296875,56.000390625,40.50029296875Z" fill="#D5AB48" fill-opacity="1"/><path d="M42.6005859375,27.050201416015625C42.6005859375,27.050201416015625,56.0005859375,40.50020141601563,56.0005859375,40.50020141601563C56.0005859375,40.50020141601563,54.6505859375,40.50020141601563,54.6505859375,40.50020141601563C54.6505859375,40.50020141601563,42.6005859375,28.400201416015626,42.6005859375,28.400201416015626C42.6005859375,28.400201416015626,42.6005859375,27.050201416015625,42.6005859375,27.050201416015625C42.6005859375,27.050201416015625,42.6005859375,27.050201416015625,42.6005859375,27.050201416015625Z" fill="#E4C576" fill-opacity="1"/><path d="M42.600390625,28.400201416015626C42.600390625,28.400201416015626,30.500390625,40.50020141601563,30.500390625,40.50020141601563C30.500390625,40.50020141601563,29.150390625,40.50020141601563,29.150390625,40.50020141601563C29.150390625,40.50020141601563,42.600390625,27.050201416015625,42.600390625,27.050201416015625C42.600390625,27.050201416015625,42.600390625,28.400201416015626,42.600390625,28.400201416015626C42.600390625,28.400201416015626,42.600390625,28.400201416015626,42.600390625,28.400201416015626Z" fill="#F3E9D5" fill-opacity="1"/><path d="M42.600390625,53.95003051757813C42.600390625,53.95003051757813,29.150390625,40.500030517578125,29.150390625,40.500030517578125C29.150390625,40.500030517578125,30.500390625,40.500030517578125,30.500390625,40.500030517578125C30.500390625,40.500030517578125,42.600390625,52.600030517578126,42.600390625,52.600030517578126C42.600390625,52.600030517578126,42.600390625,53.95003051757813,42.600390625,53.95003051757813C42.600390625,53.95003051757813,42.600390625,53.95003051757813,42.600390625,53.95003051757813Z" fill="#E4C576" fill-opacity="1"/><path d="M42.6005859375,52.600030517578126C42.6005859375,52.600030517578126,54.6505859375,40.500030517578125,54.6505859375,40.500030517578125C54.6505859375,40.500030517578125,56.0005859375,40.500030517578125,56.0005859375,40.500030517578125C56.0005859375,40.500030517578125,42.6005859375,53.95003051757813,42.6005859375,53.95003051757813C42.6005859375,53.95003051757813,42.6005859375,52.600030517578126,42.6005859375,52.600030517578126C42.6005859375,52.600030517578126,42.6005859375,52.600030517578126,42.6005859375,52.600030517578126Z" fill="#B36C20" fill-opacity="1"/><path d="M12.05,11.9C4.5999999,19.299999,0,29.450001,0,40.700001C0,59.200001,15.15,73.650002,33.900002,73.650002C43.599998,73.650002,52.299999,70.099998,58.450001,63.75C58.450001,63.75,58.099998,63.400002,58.099998,63.400002C53.400002,66.900002,47.599998,68.949997,41.349998,68.949997C25.799999,68.949997,12.7,56.349998,12.7,40.799999C12.7,29.5,16.799999,20.549999,23.4,14.45C30,8.3500004,39.049999,5.0999999,48.849998,5.0999999C56.200001,5.0999999,63.049999,7.3499999,68.699997,11.15C68.699997,11.15,69.050003,10.8,69.050003,10.8C61.650002,4.0999999,51.900002,0,41.150002,0C29.75,0,19.5,4.5500002,12.05,11.9C12.05,11.9,12.05,11.9,12.05,11.9Z" fill="#B5883C" fill-opacity="1"/><path d="M7.80078125,39.95011091503906C7.80078125,56.85011291503906,21.65078125,70.05010991503906,38.75078225,70.05010991503906C46.20078325,70.05010991503906,53.00078225,67.75011491503906,58.30078125,63.60011291503906C58.30078125,63.60011291503906,58.10078025,63.40011191503906,58.10078025,63.40011191503906C53.40077925,66.90011591503907,47.60078025,68.95011091503906,41.35078025,68.95011091503906C25.80078125,68.95011091503906,12.70078135,56.35011291503906,12.70078135,40.80011391503906C12.70078135,29.50011291503906,16.80078125,20.550113915039063,23.40078125,14.450112915039062C30.00078225,8.350112915039062,39.05078125,5.1001129150390625,48.85078025,5.1001129150390625C56.20078325,5.1001129150390625,63.05078125,7.3501129150390625,68.70078325,11.150113115039062C68.70078325,11.150113115039062,68.85078025,11.000112515039062,68.85078025,11.000112515039062C62.35078025,5.900112915039062,54.20078325,2.8501129150390625,45.30078125,2.8501129150390625C24.60078025,2.8501129150390625,7.80078125,19.450112915039064,7.80078125,39.95011091503906Z" fill="#824F2E" fill-opacity="1"/><path d="M7.650390625,40.00021767480469C7.650390625,56.95021867480469,21.550390625,70.15021467480469,38.750390625,70.15021467480469C46.200389625,70.15021467480469,53.050392625,67.85021967480469,58.400390625,63.70021867480469C58.400390625,63.70021867480469,58.300392625,63.60021567480469,58.300392625,63.60021567480469C53.000388625,67.60021967480469,46.350391625,69.75021367480468,39.050390625,69.75021367480468C22.000390625,69.70021867480469,8.150390625,56.65021467480469,8.150390625,39.90021467480469C8.150390625,19.600215674804687,24.950389625,3.1502166648046876,45.650390625,3.1502166648046876C54.400390625,3.1502166648046876,62.400390625,6.100216674804687,68.750388625,11.000216474804688C68.750388625,11.000216474804688,68.850391625,10.900217074804688,68.850391625,10.900217074804688C62.400390625,5.850216674804687,54.250388625,2.8002166748046875,45.350391625,2.8002166748046875C24.500390625,2.8502166758046874,7.650390625,19.450216674804686,7.650390625,40.00021767480469Z" fill="#D8C29B" fill-opacity="1"/><path d="M25.9005859375,17.30032918984375C25.9005859375,17.30032918984375,26.2505859375,17.65032958984375,26.2505859375,17.65032958984375C30.9505859375,14.15032958984375,36.7505859375,12.10032938984375,43.0005859375,12.10032938984375C58.5505869375,12.10032938984375,71.6505849375,24.70032858984375,71.7005839375,40.25032758984375C71.7005839375,51.55033158984375,67.6005859375,60.50032758984375,61.0005879375,66.60033058984375C54.4005849375,72.70033258984375,45.4005849375,75.95033258984375,35.5505869375,75.95033258984375C28.2005859375,75.95033258984375,21.3505859375,73.70033258984375,15.7005839375,69.90032958984375C15.7005839375,69.90032958984375,15.3505859375,70.25032758984375,15.3505859375,70.25032758984375C22.7005858375,76.90032958984375,32.4505859375,81.00032758984375,43.2005859375,81.00032758984375C54.5505869375,81.00032758984375,64.8505859375,76.45033258984375,72.3005869375,69.10033058984375C79.7505879375,61.75032758984375,84.3505859375,51.55033158984375,84.3505859375,40.35033058984375C84.3505859375,21.85032958984375,69.2005839375,7.40032958984375,50.4505839375,7.40032958984375C40.8005869375,7.40032958984375,32.0505869375,10.90032958984375,25.9005859375,17.30032918984375Z" fill="#48937C" fill-opacity="1"/><path d="M26.05078125,17.4499998C26.05078125,17.4499998,26.25078125,17.6500001,26.25078125,17.6500001C30.95078125,14.1500001,36.75078225,12.1,43.00078225,12.1C58.55078125,12.1,71.65077925,24.7,71.70078325,40.25C71.70078325,51.549999,67.60078025,60.5,61.00078225,66.599998C54.40077925,72.700001,45.40078125,75.949997,35.55078125,75.949997C28.20078125,75.949997,21.35078145,73.700001,15.70077924,69.900002C15.70077924,69.900002,15.55078125,70.049999,15.55078125,70.049999C22.00078105,75.150002,30.15078125,78.199997,39.00078225,78.199997C59.75078225,78.199997,76.55078125,61.599998,76.55078125,41.1C76.55078125,24.2,62.70078325,11,45.60078025,11C38.20078125,11,31.40078125,13.25,26.05078125,17.4499998Z" fill="#004B34" fill-opacity="1"/><path d="M25.95,17.35032938984375C25.95,17.35032938984375,26.05,17.45032978984375,26.05,17.45032978984375C31.35,13.45032958984375,38,11.300327599843751,45.299999,11.300327599843751C62.349998,11.300327599843751,76.200001,24.35032958984375,76.200001,41.10033058984375C76.200001,61.40032958984375,59.400002,77.85032658984375,38.700001,77.85032658984375C29.95,77.85032658984375,21.9499998,74.90032958984375,15.600002,70.00032758984375C15.600002,70.00032758984375,15.5,70.10033058984375,15.5,70.10033058984375C21.9499998,75.15032958984375,30.1,78.20033258984375,39,78.20033258984375C59.849998,78.20033258984375,76.700001,61.55033158984375,76.700001,41.05032958984375C76.700001,24.10032958984375,62.799999,10.90032958984375,45.6,10.90032958984375C38.15,10.90032958984375,31.3,13.15032958984375,25.95,17.35032938984375Z" fill="#D8D8D8" fill-opacity="1"/></svg>