<svg xmlns="http://www.w3.org/2000/svg" xmlns:xlink="http://www.w3.org/1999/xlink" fill="none" version="1.1" width="88" height="77.6937026977539" viewBox="0 0 88 77.6937026977539"><path d="M61.599998,60.382301C52.041401,60.382301,44.151699,52.4883,44.151699,42.516899C44.151699,52.3498,36.2621,60.382301,26.7034,60.382301C26.7034,60.382301,26.7034,59.8283,26.7034,59.8283C26.7034,49.995399,34.593102,41.962898,44.151699,41.962898C53.7103,41.962898,61.599998,49.856899,61.599998,59.8283C61.599998,59.8283,61.599998,60.936199,61.599998,60.936199C61.599998,68.553299,56.896599,75.062401,50.220699,77.693703C50.220699,77.693703,88,77.693703,88,77.693703C88,77.693703,66,38.777599,66,38.777599C66,38.777599,44,0,44,0C44,0,22,38.777599,22,38.777599C22,38.777599,0,77.555199,0,77.555199C0,77.555199,37.779301,77.555199,37.779301,77.555199C31.255199,75.062401,26.4,68.414803,26.4,60.797699C26.4,60.797699,26.4,60.243801,26.4,60.243801C36.110298,60.243801,43.848301,67.999298,44.151699,77.416702C44.606899,67.999298,52.1931,60.382301,61.599998,60.382301C61.599998,60.382301,61.599998,60.382301,61.599998,60.382301Z" fill="#AC8005" fill-opacity="1"/></svg>