<svg xmlns="http://www.w3.org/2000/svg" xmlns:xlink="http://www.w3.org/1999/xlink" fill="none" version="1.1" width="84.740966796875" height="78.006591796875" viewBox="0 0 84.740966796875 78.006591796875"><path d="M37.4409848338623,1.0044448485595703C45.7909828338623,-1.0955551514404296,54.2409838338623,0.2044428785595703,61.3909858338623,3.9044449485595702C55.6909848338623,2.6044449485595704,49.4409848338623,2.4544448485595702,43.2409838338623,4.00444504855957C24.840984833862304,8.504445048559571,13.740984833862305,25.85448464855957,18.490983833862305,42.65448564855957C19.390985833862306,45.80448364855957,20.890985833862306,48.55448364855957,22.740983833862305,51.20448464855957C19.040984833862304,47.65448564855957,16.390985833862306,43.20448464855957,14.940984833862304,38.20448464855957C10.140984833862305,21.90448564855957,20.240983833862305,5.204444848559571,37.4409848338623,1.0044448485595703C37.4409848338623,1.0044448485595703,37.4409848338623,1.0044448485595703,37.4409848338623,1.0044448485595703ZM57.4909838338623,60.10448664855957C54.590985833862305,61.80448364855957,51.2409838338623,63.25448464855957,47.5409828338623,64.05448364855957C29.390985833862306,68.15448164855957,10.390984833862305,57.60448664855957,5.491024533862305,40.40448564855957C0.8410287538623047,24.90448564855957,9.341034933862305,8.95444484855957,24.440984833862306,3.2044448485595702C13.440984833862304,10.30448564855957,7.991024533862305,23.95448464855957,11.840984833862304,37.50448464855957C16.890985833862306,54.75448464855957,35.2909828338623,65.50448764855958,52.840985833862305,61.45448464855957C54.5409828338623,61.15448564855957,56.0409828338623,60.65448564855957,57.4909838338623,60.10448664855957C57.4909838338623,60.10448664855957,57.4909838338623,60.10448664855957,57.4909838338623,60.10448664855957C57.4909838338623,60.10448664855957,57.4909838338623,60.10448664855957,57.4909838338623,60.10448664855957ZM0.7910277238623047,31.05448564855957C3.691024733862305,76.50448764855958,64.3909818338623,78.85448664855957,72.1909848338623,42.25448464855957C77.0909858338623,19.85448464855957,49.6909848338623,0.3544448585595703,26.490983833862305,18.15448564855957C40.3909858338623,-0.4455561314404297,70.8409858338623,2.2044448485595702,81.0409828338623,23.004484648559572C81.9909878338623,24.85448464855957,82.6409818338623,26.70448464855957,83.2909828338623,28.65448564855957C84.2409878338623,31.80448564855957,84.6409818338623,35.10448664855957,84.7409878338623,38.40448564855957C84.7409878338623,38.40448564855957,84.7409878338623,38.95448464855957,84.7409878338623,38.95448464855957C84.7409878338623,40.00448464855957,84.5909858338623,41.20448464855957,84.4909878338623,42.40448564855957C83.1909848338623,56.75448464855957,73.2409878338623,69.55448364855957,58.5409828338623,75.05448364855957C58.1409858338623,75.20448464855957,57.8909858338623,75.30448364855957,57.590985833862305,75.45448464855957C57.590985833862305,75.45448464855957,57.4909838338623,75.45448464855957,57.4909838338623,75.45448464855957C57.2409838338623,75.60448664855957,56.9409848338623,75.70448464855957,56.5409828338623,75.85448664855957C56.5409828338623,75.85448664855957,56.3909858338623,75.85448664855957,56.3909858338623,75.85448664855957C27.540984833862304,85.20448464855957,-5.558975266137695,62.95448464855957,0.7910277238623047,31.05448564855957C0.7910277238623047,31.05448564855957,0.7910277238623047,31.05448564855957,0.7910277238623047,31.05448564855957C0.7910277238623047,31.05448564855957,0.7910277238623047,31.05448564855957,0.7910277238623047,31.05448564855957Z" fill="#005DA9" fill-opacity="1"/><path d="M44.840966796875,16.954010009765625C56.640968796875,16.954010009765625,66.290965796875,26.054010409765624,66.290965796875,37.154011009765625C66.290965796875,48.254009009765625,56.640968796875,57.204010009765625,44.840966796875,57.204010009765625C32.940966596875,57.204010009765625,23.240966796875,48.254009009765625,23.240966796875,37.154011009765625C23.290966797875,26.054010409765624,32.940966596875,16.954010009765625,44.840966796875,16.954010009765625C44.840966796875,16.954010009765625,44.840966796875,16.954010009765625,44.840966796875,16.954010009765625ZM44.840966796875,46.254009009765625C44.840966796875,46.254009009765625,55.290965796875,37.154011009765625,55.290965796875,37.154011009765625C55.290965796875,37.154011009765625,44.840966796875,27.904010009765624,44.840966796875,27.904010009765624C44.840966796875,27.904010009765624,34.390966796875,37.154011009765625,34.390966796875,37.154011009765625C34.390966796875,37.154011009765625,44.840966796875,46.254009009765625,44.840966796875,46.254009009765625C44.840966796875,46.254009009765625,44.840966796875,46.254009009765625,44.840966796875,46.254009009765625Z" fill="#F8A600" fill-opacity="1"/></svg>