<svg xmlns="http://www.w3.org/2000/svg" xmlns:xlink="http://www.w3.org/1999/xlink" fill="none" version="1.1" width="56.499755859375" height="88.499755859375" viewBox="0 0 56.499755859375 88.499755859375"><path d="M1.1779613,61.9953C1.0574613,61.9953,0.99695629,61.875801,0.93695629,61.755798C-3.2815487,40.596802,7.0829611,19.4373,25.221001,9.4873505C23.473501,7.5693502,21.8465,4.4523501,23.232502,0.25635201C23.292501,0.136352,23.413502,0.076352604,23.594002,0.016352605C23.775002,-0.043647297,23.895502,0.076351605,24.016001,0.136352C25.341501,1.51535,28.897001,4.6918502,33.356003,5.95085C43.238503,3.1338501,54.266003,3.9728501,56.133503,7.9888501C58.2425,12.4244,50.9515,20.0968,41.792,25.371799C40.406002,27.709299,39.141003,31.305799,39.382,36.161301C39.382,36.341301,39.261501,36.520802,39.080502,36.580799C38.960003,36.6408,38.779003,36.6408,38.598503,36.580799C37.092003,35.681301,34.32,33.583801,34.079002,29.028299C33.838001,29.088301,33.657001,29.2083,33.416,29.268299C21.726002,33.403801,5.1549611,43.234299,1.4789613,61.456299C1.5994613,61.5163,1.5389613,62.055801,1.1779613,61.9958C1.1779613,61.9958,1.1779613,61.9953,1.1779613,61.9953C1.1779613,61.9953,1.1779613,61.9953,1.1779613,61.9953Z" fill="#F45D3D" fill-opacity="1"/><path d="M6.4317819781250005,53.24700201C6.491781978125,53.062001601,6.610291978125,53,6.7892920781249995,53C6.967792078125,53,6.967781978125,53.246998,6.967781978125,53.30899799C6.848782078125,60.414,10.897781878125,70.6695,23.522771578125,72.89399900000001C23.522771578125,72.89399900000001,23.999271578125,72.9555,23.999271578125,73.2645C23.999271578125,73.388,23.880271578125,73.449499,23.761272578125,73.5735C23.403772578125,73.820499,21.498271578125,74.376499,20.902772578125,74.623501C19.413771578125,75.241501,17.269771578125003,76.415501,16.674271578125,78.3925C16.198271578125002,79.81349900000001,16.376771578125002,81.54350099999999,17.329272578125,83.334999C18.339772578125,84.973,19.539172578124997,86.48669799999999,20.902772578125,87.845001C21.021772578125,87.969002,21.140771578125,88.153999,21.021772578125,88.3395C20.902772578125,88.524502,20.723771578125,88.524502,20.604772578125,88.46300099999999C12.148781778125,86.424,-1.6077180218749998,71.9055,6.4317819781250005,53.24700201C6.4317819781250005,53.24700201,6.4317819781250005,53.24700201,6.4317819781250005,53.24700201C6.4317819781250005,53.24700201,6.4317819781250005,53.24700201,6.4317819781250005,53.24700201Z" fill="#FFC200" fill-opacity="1"/></svg>