<svg xmlns="http://www.w3.org/2000/svg" xmlns:xlink="http://www.w3.org/1999/xlink" fill="none" version="1.1" width="84.5" height="86" viewBox="0 0 84.5 86"><path d="M43.049999,0C62.75,0,79.449997,13.35,84.5,31.5C84.5,31.5,77.550003,31.5,77.550003,31.5C72.699997,17.049999,59.049999,6.6500001,43,6.6500001C23,6.6500001,6.6500001,22.950001,6.6500001,43C6.6500001,63.049999,23,79.349998,43.049999,79.349998C59.099998,79.349998,72.75,68.900002,77.599998,54.5C77.599998,54.5,84.5,54.5,84.5,54.5C79.449997,72.650002,62.75,86,43.049999,86C19.35,86,0,66.699997,0,43C0,19.299999,19.35,0,43.049999,0C43.049999,0,43.049999,0,43.049999,0ZM37.700001,26.549999C37.700001,26.549999,35.400002,11,35.400002,11C35.400002,11,52.099998,11,52.099998,11C52.099998,11,49.799999,26.549999,49.799999,26.549999C49.799999,26.549999,58.450001,26.450001,58.450001,26.450001C58.450001,26.450001,62.5,70,62.5,70C62.5,70,50.75,70,50.75,70C50.75,70,47.599998,58.25,47.599998,58.25C47.599998,58.25,39.950001,58.25,39.950001,58.25C39.950001,58.25,36.799999,70,36.799999,70C36.799999,70,25,70,25,70C25,70,29.049999,26.450001,29.049999,26.450001C29.049999,26.450001,37.700001,26.549999,37.700001,26.549999C37.700001,26.549999,37.700001,26.549999,37.700001,26.549999C37.700001,26.549999,37.700001,26.549999,37.700001,26.549999Z" fill="#E30016" fill-opacity="1"/></svg>