<svg xmlns="http://www.w3.org/2000/svg" xmlns:xlink="http://www.w3.org/1999/xlink" fill="none" version="1.1" width="85.011962890625" height="85.0126953125" viewBox="0 0 85.011962890625 85.0126953125"><path d="M30.299412010742188,49.25C24.19941101074219,61.099998,6.299410810742187,73.050003,3.9994111107421877,68.699997C3.5494110107421877,67.550003,3.1494110107421873,66.400002,2.8494110107421875,65.050003C-0.9005889892578125,49.75,-0.9005889892578125,35.099998,2.8494110107421875,19.85C5.399411210742188,10.25,10.199411010742187,5.4000001,19.749411010742186,2.8499999C34.99941301074219,-0.94999999,49.54941201074219,-0.94999999,64.79940801074218,2.8499999C66.24941301074219,3.25,67.59941101074219,3.7,68.84941101074219,4.1500001C70.54940801074218,5.1999998,68.34941101074219,10.7,66.79940801074218,13.3C63.59941101074219,18.75,50.19940901074219,34.5,40.49941301074219,29.549999C30.149410010742187,24.299999,26.349411010742188,23.049999,20.94941101074219,27.4C29.899410010742187,30.049999,34.24941301074219,41.599998,30.299412010742188,49.25C30.299412010742188,49.25,30.299412010742188,49.25,30.299412010742188,49.25C30.299412010742188,49.25,30.299412010742188,49.25,30.299412010742188,49.25ZM82.19940901074219,19.950001C85.94940901074219,35.200001,85.94940901074219,49.849998,82.19940901074219,65.150002C79.69940901074219,74.75,74.84941101074219,79.550003,65.29940801074218,82.150002C50.14941001074219,85.900002,35.59941101074219,85.900002,20.399410010742187,82.150002C18.899410010742187,81.75,17.499411010742186,81.25,16.19941101074219,80.699997C14.749411010742188,79.650002,15.199411010742187,77.5,16.299412010742188,75.199997C20.749411010742186,66.349998,34.24941301074219,53.299999,39.19940901074219,52.799999C47.69940901074219,51.900002,53.19940901074219,63.599998,67.04940801074218,58.150002C60.49941301074219,56.799999,52.44940901074219,46.950001,53.39941001074219,38.549999C53.94940901074219,33.599998,66.89941401074219,20,75.64941401074219,15.5C77.79940801074218,14.4,79.84941101074219,14.05,80.74941301074219,15.45C81.24941301074219,16.85,81.74941301074219,18.35,82.19940901074219,19.950001C82.19940901074219,19.950001,82.19940901074219,19.950001,82.19940901074219,19.950001C82.19940901074219,19.950001,82.19940901074219,19.950001,82.19940901074219,19.950001Z" fill="#047AC6" fill-opacity="1"/><path d="M0.99940103,29.200164794921875C3.6494,35.050164694921875,8.3494005,39.150164594921876,14.9994,41.450164794921875C19.3494,42.950164794921875,25.249399,43.75016479492187,31.649401,44.550164794921876C31.499399,46.200164794921875,30.999399,47.800164794921876,30.249399,49.300164794921876C24.149401,61.150165794921875,6.2494001,73.10016679492188,3.9493999,68.75016379492187C3.4994001,67.60016679492188,3.0994,66.45016479492188,2.7994001,65.10016679492188C-0.15059996,52.900165794921875,-0.80059898,41.15016479492188,0.99940103,29.200164794921875C0.99940103,29.200164794921875,0.99940103,29.200164794921875,0.99940103,29.200164794921875C0.99940103,29.200164794921875,0.99940103,29.200164794921875,0.99940103,29.200164794921875ZM80.999397,68.95016479492188C78.249397,76.10016679492188,73.499397,80.00016379492187,65.2994,82.20016479492188C50.149399,85.95016479492188,35.5994,85.95016479492188,20.399401,82.20016479492188C18.899401,81.80016279492187,17.499399,81.30016279492187,16.1994,80.75016379492187C14.7494,79.70016479492188,15.1994,77.55016279492187,16.2994,75.25016379492187C20.749399,66.40016579492188,34.249401,53.350164794921874,39.199402,52.850164794921874C47.699402,51.950164794921875,53.199402,63.650165794921875,67.0494,58.200164794921875C63.0494,57.350164794921874,58.499401,53.350164794921874,55.749401,48.450164794921875C57.399399,48.900165794921875,59.0494,49.450164794921875,60.5494,50.050164794921876C68.449402,53.100164794921874,75.2994,59.400165794921875,80.999397,68.95016479492188C80.999397,68.95016479492188,80.999397,68.95016479492188,80.999397,68.95016479492188C80.999397,68.95016479492188,80.999397,68.95016479492188,80.999397,68.95016479492188Z" fill="#036AB8" fill-opacity="1"/></svg>