<svg xmlns="http://www.w3.org/2000/svg" xmlns:xlink="http://www.w3.org/1999/xlink" fill="none" version="1.1" width="86" height="75.999755859375" viewBox="0 0 86 75.999755859375"><path d="M54.277504,0C54.277504,0,49.152504,6.9520001,49.152504,6.9520001C49.152504,6.9520001,24.261003,39.151001,24.261003,39.151001C24.261003,39.151001,39.269505,50.859501,39.269505,50.859501C39.269505,50.859501,49.885002,37.321499,49.885002,37.321499C49.885002,37.321499,81,37.321499,81,37.321499C81,37.321499,68.188004,54.1525,68.188004,54.1525C68.188004,54.1525,61.233002,62.933998,61.233002,62.933998C60.867004,63.299999,58.304504,66.226997,57.572002,66.959C56.474003,67.690498,55.376003,68.788498,54.277504,69.519997C52.447502,70.983498,50.617504,71.714996,48.787003,72.813004C35.608501,79.032997,18.770002,76.106003,8.5205326,64.398003C-2.461467,51.591,-2.827467,34.028,7.4220328,20.856001C7.4220328,20.856001,23.162502,0,23.162502,0C23.162502,0,54.277504,0,54.277504,0C54.277504,0,54.277504,0,54.277504,0ZM86,9.5C86,9.5,65,36.5,65,36.5C65,36.5,56.000004,29.4725,56.000004,29.4725C56.000004,29.4725,71.375,9.5,71.375,9.5C71.375,9.5,86,9.5,86,9.5C86,9.5,86,9.5,86,9.5ZM66.5,9.5C66.5,9.5,53.221504,27,53.221504,27C53.221504,27,44.000004,20.073,44.000004,20.073C44.000004,20.073,52.483501,9.5,52.483501,9.5C52.483501,9.5,66.5,9.5,66.5,9.5C66.5,9.5,66.5,9.5,66.5,9.5Z" fill="#F9B71F" fill-opacity="1"/></svg>