<svg xmlns="http://www.w3.org/2000/svg" xmlns:xlink="http://www.w3.org/1999/xlink" fill="none" version="1.1" width="85" height="85" viewBox="0 0 85 85"><path d="M22.450001,40.950001C25.299999,40.950001,28.049999,41.5,30.549999,42.5C31.75,43,32.849998,43.700001,33.75,44.650002C33.75,44.650002,40.150002,51.25,40.150002,51.25C40.799999,51.799999,41.700001,52.150002,42.599998,52.150002C43.5,52.150002,44.349998,51.799999,45,51.25C45,51.25,51.599998,44.450001,51.599998,44.450001C52.349998,43.700001,53.25,43.099998,54.200001,42.650002C56.849998,41.549999,59.700001,40.950001,62.75,40.950001C66.900002,40.950001,70.75,42.099998,74.099998,44.049999C74.099998,44.049999,49.400002,69.599998,49.400002,69.599998C47.599998,71.300003,45.25,72.300003,42.599998,72.300003C39.950001,72.300003,37.599998,71.25,35.799999,69.599998C35.799999,69.599998,11.05,44.099998,11.05,44.099998C14.4,42.099998,18.25,40.950001,22.450001,40.950001C22.450001,40.950001,22.450001,40.950001,22.450001,40.950001C22.450001,40.950001,22.450001,40.950001,22.450001,40.950001ZM49.75,15.7C49.75,15.7,70,36.75,70,36.75C68.699997,36.5,67.400002,36.349998,66.050003,36.349998C61.099998,36.349998,56.5,38,52.75,40.799999C52.650002,40.900002,52.5,40.950001,52.299999,40.950001C52.099998,40.950001,51.900002,40.849998,51.75,40.700001C51.75,40.700001,45,33.700001,45,33.700001C44.349998,33.099998,43.450001,32.75,42.5,32.75C41.549999,32.75,40.700001,33.099998,40.049999,33.700001C40.049999,33.700001,33.299999,40.700001,33.299999,40.700001C33.150002,40.849998,33,40.950001,32.75,40.950001C32.599998,40.950001,32.400002,40.900002,32.299999,40.799999C28.549999,38,24,36.349998,19.049999,36.349998C17.700001,36.349998,16.35,36.5,15.05,36.75C15.05,36.75,35.349998,15.7,35.349998,15.7C37.200001,13.75,39.700001,12.55,42.549999,12.55C45.400002,12.55,47.950001,13.75,49.75,15.7C49.75,15.7,49.75,15.7,49.75,15.7ZM42.5,6.5500002C22.65,6.5500002,6.5500002,22.700001,6.5500002,42.5C6.5500002,62.349998,22.65,78.449997,42.5,78.449997C62.299999,78.449997,78.449997,62.299999,78.449997,42.5C78.449997,22.65,62.299999,6.5500002,42.5,6.5500002C42.5,6.5500002,42.5,6.5500002,42.5,6.5500002C42.5,6.5500002,42.5,6.5500002,42.5,6.5500002ZM42.5,85C19.049999,85,0,65.900002,0,42.5C0,19.049999,19.049999,0,42.5,0C65.949997,0,85,19.049999,85,42.5C85,65.900002,65.949997,85,42.5,85C42.5,85,42.5,85,42.5,85Z" fill="#6BB42B" fill-opacity="1"/></svg>