<svg xmlns="http://www.w3.org/2000/svg" xmlns:xlink="http://www.w3.org/1999/xlink" fill="none" version="1.1" width="83.55000305175781" height="71.97279357910156" viewBox="0 0 83.55000305175781 71.97279357910156"><path d="M0,1.7553231C0,1.7553231,16.5,-6.344677,18.5,12.255303C15.65,14.155303,2.0999999,18.155304,6.4000001,49.005302C-3.8,34.505302,4.4000001,6.0553231,0,1.7553231C0,1.7553231,0,1.7553231,0,1.7553231ZM47.75,11.105303C24.5,18.555304,17.75,37.405304,16.65,40.805302C12.55,61.405304,26.299999,69.155304,33.700001,71.505302C13.85,71.755302,2.95,53.655304,9.3500004,33.105305C15.8,12.555303,36.200001,-2.094677,58.700001,0.25532407C81.199997,2.6053231,83.550003,18.405304,83.550003,18.405304C80.449997,14.655303,66.25,4.655323,47.75,11.105303C47.75,11.105303,47.75,11.105303,47.75,11.105303C47.75,11.105303,47.75,11.105303,47.75,11.105303ZM30.9,39.505302C30.049999,40.905304,20.6,65.805305,47,66.305305C56.799999,67.055305,66.75,61.555302,72.099998,56.805302C63.75,69.355301,49.099998,72.955299,41.25,71.755302C33.400002,70.555305,22.799999,65.855301,19.950001,52.955303C17.1,40.055302,27,22.855303,45.900002,16.355303C64.800003,9.8053226,75.949997,18.905304,75.949997,18.905304C63.799999,16.005302,41.549999,20.505302,30.9,39.505302C30.9,39.505302,30.9,39.505302,30.9,39.505302C30.9,39.505302,30.9,39.505302,30.9,39.505302ZM45,37.955303C45,37.955303,59.849998,34.005302,59.849998,34.005302C59.849998,34.005302,63.5,47.555302,63.5,47.555302C63.5,47.555302,48.650002,51.505302,48.650002,51.505302C48.650002,51.505302,45,37.955303,45,37.955303C45,37.955303,45,37.955303,45,37.955303Z" fill="#009035" fill-opacity="1"/></svg>