<svg xmlns="http://www.w3.org/2000/svg" xmlns:xlink="http://www.w3.org/1999/xlink" fill="none" version="1.1" width="84.60498046875" height="63.663330078125" viewBox="0 0 84.60498046875 63.663330078125"><path d="M49.0588125,35.6632C49.0588125,35.6632,80.7859115,35.6632,80.7859115,35.6632C80.7859115,35.6632,84.60501049999999,31.831699,84.60501049999999,31.831699C84.60501049999999,31.831699,80.7859115,28.000099,80.7859115,28.000099C80.7859115,28.000099,41.4206829,28.000099,41.4206829,28.000099C41.4206829,28.000099,49.0588125,35.6632,49.0588125,35.6632C49.0588125,35.6632,49.0588125,35.6632,49.0588125,35.6632C49.0588125,35.6632,49.0588125,35.6632,49.0588125,35.6632ZM60.5161135,7.6630602C60.5161135,7.6630602,53.1718125,0,53.1718125,0C53.1718125,0,45.533612500000004,7.6630602,45.533612500000004,7.6630602C45.533612500000004,7.6630602,60.5161135,7.6630602,60.5161135,7.6630602C60.5161135,7.6630602,60.5161135,7.6630602,60.5161135,7.6630602C60.5161135,7.6630602,60.5161135,7.6630602,60.5161135,7.6630602ZM69.9164125,46.5686C69.9164125,46.5686,50.8214135,46.5686,50.8214135,46.5686C50.8214135,46.5686,43.477112500000004,53.937302,43.477112500000004,53.937302C43.477112500000004,53.937302,43.7710125,54.231701,43.7710125,54.231701C43.7710125,54.231701,62.278713499999995,54.231701,62.278713499999995,54.231701C62.278713499999995,54.231701,69.9164125,46.5686,69.9164125,46.5686C69.9164125,46.5686,69.9164125,46.5686,69.9164125,46.5686ZM43.7710125,9.4316597C43.7710125,9.4316597,36.4271924,17.0947,36.4271924,17.0947C36.4271924,17.0947,69.9169125,17.0947,69.9169125,17.0947C69.9169125,17.0947,62.2792125,9.4316597,62.2792125,9.4316597C62.2792125,9.4316597,43.7715125,9.4316597,43.7715125,9.4316597C43.7715125,9.4316597,43.7710125,9.4316597,43.7710125,9.4316597C43.7710125,9.4316597,43.7710125,9.4316597,43.7710125,9.4316597ZM50.8214135,37.431801C50.8214135,37.431801,55.5216125,42.1474,55.5216125,42.1474C55.5216125,42.1474,52.5841125,44.799999,52.5841125,44.799999C52.5841125,44.799999,71.6795125,44.799999,71.6795125,44.799999C71.6795125,44.799999,79.0233115,37.431801,79.0233115,37.431801C79.0233115,37.431801,50.8214135,37.431801,50.8214135,37.431801C50.8214135,37.431801,50.8214135,37.431801,50.8214135,37.431801ZM45.533612500000004,56.000198C45.533612500000004,56.000198,53.1718125,63.6633,53.1718125,63.6633C53.1718125,63.6633,60.5161135,56.000198,60.5161135,56.000198C60.5161135,56.000198,45.533612500000004,56.000198,45.533612500000004,56.000198C45.533612500000004,56.000198,45.533612500000004,56.000198,45.533612500000004,56.000198C45.533612500000004,56.000198,45.533612500000004,56.000198,45.533612500000004,56.000198ZM34.6640725,18.8633C34.6640725,18.8633,33.1953125,20.0422,33.1953125,20.0422C33.1953125,20.0422,39.6580625,26.231501,39.6580625,26.231501C39.6580625,26.231501,79.0233115,26.231501,79.0233115,26.231501C79.0233115,26.231501,71.6790125,18.8633,71.6790125,18.8633C71.6790125,18.8633,34.6640725,18.8633,34.6640725,18.8633C34.6640725,18.8633,34.6640725,18.8633,34.6640725,18.8633Z" fill="#A88249" fill-opacity="1"/><path d="M29.376699,21.516001C29.376699,21.516001,41.1278,9.72651,41.1278,9.72651C41.1278,9.72651,31.7271,0,31.7271,0C31.7271,0,0,31.831699,0,31.831699C0,31.831699,31.7271,63.6633,31.7271,63.6633C31.7271,63.6633,51.409698,43.621601,51.409698,43.621601C51.409698,43.621601,29.376699,21.516001,29.376699,21.516001C29.376699,21.516001,29.376699,21.516001,29.376699,21.516001Z" fill="#003D75" fill-opacity="1"/></svg>