<svg xmlns="http://www.w3.org/2000/svg" xmlns:xlink="http://www.w3.org/1999/xlink" fill="none" version="1.1" width="84.949951171875" height="84.25" viewBox="0 0 84.949951171875 84.25"><path d="M38.5,0C54.75,0,67.949997,15.55,67.949997,34.75C67.949997,39.700001,67.050003,44.400002,65.5,48.650002C66.099998,46.549999,66.449997,44.349998,66.449997,42.049999C66.449997,29.049999,55.900002,18.549999,42.900002,18.549999C35.900002,18.549999,29.6,21.6,25.25,26.5C25.25,26.5,23.25,28.450001,23.25,28.450001C23.25,28.450001,23.25,28.5,23.25,28.5C23.25,28.5,0,51.299999,0,51.299999C0,51.299999,0,27.35,0,27.35C0,27.35,20.35,7.8000002,20.35,7.8000002C23.5,4.4000001,30.25,0,38.5,0C38.5,0,38.5,0,38.5,0ZM42.849998,31.25C42.849998,31.25,52.5,40.950001,52.5,40.950001C52.5,40.950001,42.799999,50.650002,42.799999,50.650002C42.799999,50.650002,33.150002,40.950001,33.150002,40.950001C33.150002,40.950001,42.849998,31.25,42.849998,31.25C42.849998,31.25,42.849998,31.25,42.849998,31.25Z" fill="#F8A700" fill-opacity="1"/><path d="M46.6,84.25C30.4,84.25,17.25,68.700001,17.25,49.5C17.25,44.55,18.10000098,39.8499999,19.7,35.5999999C19.1,37.6999998,18.75,39.9000001,18.75,42.1999998C18.75,55.200001,29.25,65.700001,42.200001,65.700001C49.200001,65.700001,55.450001,62.65,59.75,57.75C59.75,57.75,61.75,55.799999,61.75,55.799999C61.75,55.799999,61.75,55.75,61.75,55.75C61.75,55.75,84.949997,33,84.949997,33C84.949997,33,84.949997,56.950001,84.949997,56.950001C84.949997,56.950001,64.700001,76.450001,64.700001,76.450001C61.549999,79.900002,54.849998,84.25,46.6,84.25C46.6,84.25,46.6,84.25,46.6,84.25Z" fill="#00509E" fill-opacity="1"/></svg>