<svg xmlns="http://www.w3.org/2000/svg" xmlns:xlink="http://www.w3.org/1999/xlink" fill="none" version="1.1" width="84.800048828125" height="66.8818359375" viewBox="0 0 84.800048828125 66.8818359375"><path d="M42.400501,11.77734375C42.400501,11.77734375,63.026501,21.06484415,63.026501,21.06484415C63.026501,21.06484415,52.051498,26.10984375,52.051498,26.10984375C70.824997,28.48234375,84.800003,36.20834375,84.800003,45.89084275C84.800003,57.46934475,65.780998,66.88184375,42.399502,66.88184375C19.0145,66.88184375,0,57.46934475,0,45.89184175C0,45.89184175,0,45.53084575,0,45.53084575C0,45.53084575,14.342,45.53084575,14.342,45.53084575C14.342,45.53084575,14.342,45.89184175,14.342,45.89184175C14.342,54.46984475,26.928499,61.44634275,42.400501,61.44634275C57.8755,61.44634275,70.457001,54.46984475,70.457001,45.89184175C70.457001,37.31484375,57.875999,30.33984375,42.400501,30.33984375C42.400501,30.33984375,42.251999,30.30384475,42.251999,30.30384475C42.251999,30.30384475,21.768999,21.06484415,21.768999,21.06484415C21.768999,21.06484415,42.400501,11.77734375,42.400501,11.77734375C42.400501,11.77734375,42.400501,11.77734375,42.400501,11.77734375C42.400501,11.77734375,42.400501,11.77734375,42.400501,11.77734375ZM42.401501,17.27934365C42.401501,17.27934365,34.0065,21.064343450000003,34.0065,21.064343450000003C34.0065,21.064343450000003,42.401001,24.84784375,42.401001,24.84784375C42.401001,24.84784375,50.795502,21.06484415,50.795502,21.06484415C50.795502,21.06484415,42.401501,17.27934365,42.401501,17.27934365C42.401501,17.27934365,42.401501,17.27934365,42.401501,17.27934365C42.401501,17.27934365,42.401501,17.27934365,42.401501,17.27934365Z" fill="#006CA9" fill-opacity="1"/><path d="M42.398998,42.030499C42.398998,42.030499,50.795502,45.813999,50.795502,45.813999C50.795502,45.813999,42.397499,49.596001,42.397499,49.596001C42.397499,49.596001,34.003502,45.813999,34.003502,45.813999C34.003502,45.813999,42.397499,42.030499,42.397499,42.030499C42.397499,42.030499,42.398998,42.030499,42.398998,42.030499C42.398998,42.030499,42.398998,42.030499,42.398998,42.030499C42.398998,42.030499,42.398998,42.030499,42.398998,42.030499ZM42.398998,0C19.02,0,0,9.4125004,0,20.990999C0,30.6665,13.975,38.400002,32.749001,40.775501C32.749001,40.775501,21.7665,45.813999,21.7665,45.813999C21.7665,45.813999,42.397499,55.094501,42.397499,55.094501C42.397499,55.094501,63.022499,45.813999,63.022499,45.813999C63.022499,45.813999,42.546001,36.571499,42.546001,36.571499C42.546001,36.571499,42.397499,36.5355,42.397499,36.5355C26.927,36.5355,14.3445,29.560499,14.3445,20.99C14.3445,12.415,26.927,5.4299998,42.397499,5.4299998C57.872002,5.4299998,70.452499,12.415,70.452499,20.99C70.452499,20.99,70.452499,21.344,70.452499,21.344C70.452499,21.344,84.797501,21.344,84.797501,21.344C84.797501,21.344,84.797501,20.99,84.797501,20.99C84.797501,9.4125004,65.777496,0,42.397499,0C42.397499,0,42.398998,0,42.398998,0C42.398998,0,42.398998,0,42.398998,0C42.398998,0,42.398998,0,42.398998,0Z" fill="#00965A" fill-opacity="1"/></svg>