<svg xmlns="http://www.w3.org/2000/svg" xmlns:xlink="http://www.w3.org/1999/xlink" fill="none" version="1.1" width="85" height="85" viewBox="0 0 85 85"><path d="M42.5,0C62.099998,0,78.650002,13.15,83.75,31C83.75,31,59.150002,30.9,59.150002,30.9C59.150002,30.9,59.150002,26,59.150002,26C59.150002,26,25.9,26,25.9,26C25.9,26,25.9,50.349998,25.9,50.349998C25.9,50.349998,0,37.150002,0,37.150002C2.6500001,16.25,20.75,0,42.5,0C42.5,0,42.5,0,42.5,0ZM85,48C82.300003,68.849998,64.25,85,42.5,85C23,85,6.4499998,71.949997,1.3,54.200001C1.3,54.200001,25.85,54.299999,25.85,54.299999C25.85,54.299999,25.85,59,25.85,59C25.85,59,59.099998,59,59.099998,59C59.099998,59,59.099998,34.75,59.099998,34.75C59.099998,34.75,85,48,85,48C85,48,85,48,85,48Z" fill="#E30016" fill-opacity="1"/></svg>