<svg xmlns="http://www.w3.org/2000/svg" xmlns:xlink="http://www.w3.org/1999/xlink" fill="none" version="1.1" width="85" height="85" viewBox="0 0 85 85"><path d="M5,0C5,0,80,0,80,0C82.75,0,85,2.25,85,5C85,5,85,80,85,80C85,82.75,82.75,85,80,85C80,85,5,85,5,85C2.25,85,0,82.75,0,80C0,80,0,5,0,5C0,2.25,2.25,0,5,0C5,0,5,0,5,0ZM22.200001,9.5C22.200001,9.5,6.3000002,9.5,6.3000002,9.5C6.3000002,9.5,6.3000002,18.75,6.3000002,18.75C6.3000002,18.75,53.150002,18.75,53.150002,18.75C53.150002,18.75,53.150002,68.599998,53.150002,68.599998C53.150002,68.599998,38.700001,68.599998,38.700001,68.599998C38.700001,68.599998,38.700001,77.650002,38.700001,77.650002C38.700001,77.650002,63.099998,77.650002,63.099998,77.650002C63.099998,77.650002,63.099998,37.349998,63.099998,37.349998C63.099998,37.349998,70.5,37.349998,70.5,37.349998C70.5,37.349998,70.5,77.650002,70.5,77.650002C70.5,77.650002,80,77.650002,80,77.650002C80,77.650002,80,27.450001,80,27.450001C80,27.450001,63.099998,27.450001,63.099998,27.450001C63.099998,27.450001,63.099998,18.799999,63.099998,18.799999C63.099998,18.799999,80,18.799999,80,18.799999C80,18.799999,80,9.5,80,9.5C80,9.5,33.299999,9.5,33.299999,9.5C33.299999,9.5,33.299999,5.3000002,33.299999,5.3000002C33.299999,5.3000002,22.200001,5.3000002,22.200001,5.3000002C22.200001,5.3000002,22.200001,9.5,22.200001,9.5C22.200001,9.5,22.200001,9.5,22.200001,9.5ZM17.299999,20.5C17.299999,20.5,10.8,26.9,10.8,26.9C10.8,26.9,19.75,35.650002,19.75,35.650002C19.75,35.650002,6.3000002,35.650002,6.3000002,35.650002C6.3000002,35.650002,6.3000002,45.5,6.3000002,45.5C6.3000002,45.5,22.5,45.5,22.5,45.5C22.5,45.5,22.5,52.049999,22.5,52.049999C22.5,52.049999,6.3000002,52.049999,6.3000002,52.049999C6.3000002,52.049999,6.3000002,61.450001,6.3000002,61.450001C6.3000002,61.450001,22.5,61.450001,22.5,61.450001C22.5,61.450001,22.5,77.699997,22.5,77.699997C22.5,77.699997,32.25,77.699997,32.25,77.699997C32.25,77.699997,32.25,61.450001,32.25,61.450001C32.25,61.450001,48.450001,61.450001,48.450001,61.450001C48.450001,61.450001,48.450001,52.049999,48.450001,52.049999C48.450001,52.049999,32.25,52.049999,32.25,52.049999C32.25,52.049999,32.25,45.5,32.25,45.5C32.25,45.5,48.450001,45.5,48.450001,45.5C48.450001,45.5,48.450001,35.650002,48.450001,35.650002C48.450001,35.650002,34.950001,35.650002,34.950001,35.650002C34.950001,35.650002,43.5,26.9,43.5,26.9C43.5,26.9,37.400002,20.5,37.400002,20.5C37.400002,20.5,27.200001,30.25,27.200001,30.25C27.200001,30.25,17.299999,20.5,17.299999,20.5C17.299999,20.5,17.299999,20.5,17.299999,20.5C17.299999,20.5,17.299999,20.5,17.299999,20.5ZM6.3000002,68.550003C6.3000002,68.550003,6.3000002,77.699997,6.3000002,77.699997C6.3000002,77.699997,16.15,77.699997,16.15,77.699997C16.15,77.699997,16.15,68.550003,16.15,68.550003C16.15,68.550003,6.3000002,68.550003,6.3000002,68.550003C6.3000002,68.550003,6.3000002,68.550003,6.3000002,68.550003C6.3000002,68.550003,6.3000002,68.550003,6.3000002,68.550003Z" fill="#D80013" fill-opacity="1"/></svg>