<svg xmlns="http://www.w3.org/2000/svg" xmlns:xlink="http://www.w3.org/1999/xlink" fill="none" version="1.1" width="84.97900390625" height="67.912109375" viewBox="0 0 84.97900390625 67.912109375"><path d="M0,33.98243308203125C0,33.98243308203125,8.1999998,30.33243408203125,11.65,33.98243308203125C15.05,37.63243508203125,34.799999,60.13243508203125,34.799999,60.13243508203125C34.799999,60.13243508203125,43.349998,71.53243208203125,53.700001,66.73243308203125C64.050003,61.93243408203125,96.400002,31.03243408203125,80.800003,12.68243408203125C80.800003,12.68243408203125,85.349998,26.13243408203125,68.099998,39.73243308203125C63.400002,43.43243408203125,59.75,45.78243208203125,56.900002,47.53243208203125C49.299999,52.23243308203125,47.299999,51.18243408203125,45.450001,50.03243208203125C42.950001,48.38243508203125,25.9,37.88243508203125,15.25,29.98243308203125C15.25,29.98243308203125,8.5500002,24.53243408203125,0,33.98243308203125Z" fill="#E50113" fill-opacity="1"/><path d="M20.249981689453126,28.082287C20.249981689453126,28.082287,4.949981689453125,18.582287,4.949981689453125,18.582287C4.949981689453125,18.582287,60.999980689453125,-16.667713,78.29997968945312,9.9322567C78.24998468945313,9.9322567,59.099983689453126,-5.5677428,20.249981689453126,28.082287C20.249981689453126,28.082287,20.249981689453126,28.082287,20.249981689453126,28.082287ZM48.349983689453126,19.332287C48.349983689453126,19.332287,65.39998268945313,30.432287,65.39998268945313,30.432287C65.39998268945313,30.432287,48.349983689453126,42.432285,48.349983689453126,42.432285C48.349983689453126,42.432285,30.399982689453125,30.432287,30.399982689453125,30.432287C30.399982689453125,30.432287,48.349983689453126,19.332287,48.349983689453126,19.332287C48.349983689453126,19.332287,48.349983689453126,19.332287,48.349983689453126,19.332287C48.349983689453126,19.332287,48.349983689453126,19.332287,48.349983689453126,19.332287Z" fill="#E95506" fill-opacity="1"/></svg>