<svg xmlns="http://www.w3.org/2000/svg" xmlns:xlink="http://www.w3.org/1999/xlink" fill="none" version="1.1" width="88" height="84.22607421875" viewBox="0 0 88 84.22607421875"><path d="M48.173183166503904,37.43270100000182C58.7964841665039,38.83449900000182,66.9328841665039,45.84140000000182,66.9328841665039,54.34080100000182C66.9328841665039,62.65869900000182,59.159584166503905,69.57689700000182,48.80448316650391,71.24690200000182C48.80448316650391,71.24690200000182,48.80448316650391,80.69640400000182,48.80448316650391,80.69640400000182C48.80448316650391,80.69640400000182,74.8474841665039,66.04920200000181,74.8474841665039,66.04920200000181C75.3879811665039,65.77899900000182,75.8417811665039,65.50669900000182,76.33598316650391,65.23840300000182C76.33598316650391,65.23840300000182,76.3822821665039,65.14559900000182,76.3822821665039,65.14559900000182C82.1689831665039,61.573601000001815,86.05768216650391,55.15570100000182,86.05768216650391,47.78570200000182C86.05768216650391,39.10680000000182,80.5452841665039,31.599600000001818,72.8122821665039,28.66090000000182C72.8122821665039,28.66090000000182,87.9999851665039,20.29859900000182,87.9999851665039,20.29859900000182C82.98388316650392,8.40869050000182,71.1825831665039,1.8189894035458565e-12,57.441084166503906,1.8189894035458565e-12C54.4116841665039,1.8189894035458565e-12,51.56368216650391,0.405407990001819,48.80448316650391,1.129500000001819C48.80448316650391,1.129500000001819,48.80448316650391,12.928700000001818,48.80448316650391,12.928700000001818C58.163183166503906,14.46560000000182,65.3515831665039,20.20789900000182,66.66258216650391,27.396299000001818C66.66258216650391,27.396299000001818,53.5523831665039,34.13090100000182,53.5523831665039,34.13090100000182C53.5523831665039,34.13090100000182,53.5523831665039,26.17400000000182,53.5523831665039,26.17400000000182C53.5523831665039,24.36680000000182,52.05988316650391,22.82990100000182,50.161883166503905,22.82990100000182C50.161883166503905,22.82990100000182,37.95529316650391,22.82990100000182,37.95529316650391,22.82990100000182C36.101713166503906,22.82990100000182,34.611183166503906,24.36680000000182,34.611183166503906,26.17400000000182C34.611183166503906,26.17400000000182,34.611183166503906,33.99580000000182,34.611183166503906,33.99580000000182C34.611183166503906,35.89580200000182,36.101713166503906,37.38830200000182,37.95529316650391,37.38830200000182C37.95529316650391,37.38830200000182,48.173183166503904,37.43270100000182,48.173183166503904,37.43270100000182C48.173183166503904,37.43270100000182,48.173183166503904,37.43270100000182,48.173183166503904,37.43270100000182Z" fill-rule="evenodd" fill="#F6AB00" fill-opacity="1"/><path d="M34.65720878293514,57.82121705949402C34.65720878293514,57.82121705949402,34.65720878293514,57.91401705949402,34.65720878293514,57.91401705949402C34.65720878293514,59.76561405949402,36.10330778293514,61.25811505949402,38.001309782935145,61.25811505949402C38.001309782935145,61.25811505949402,50.25230978293514,61.25811505949402,50.25230978293514,61.25811505949402C52.105908782935145,61.25811505949402,53.59840978293514,59.76561405949402,53.59840978293514,57.91401705949402C53.59840978293514,57.91401705949402,53.59840978293514,50.13661605949402,53.59840978293514,50.13661605949402C53.59840978293514,48.28301705949402,52.105908782935145,46.78851805949402,50.25230978293514,46.74611705949402C50.25230978293514,46.74611705949402,40.306706782935144,46.78851805949402,40.758508782935145,46.74611705949402C40.758508782935145,46.74611705949402,40.21590978293514,46.74611705949402,40.21590978293514,46.74611705949402C40.21590978293514,46.74611705949402,40.26030878293514,46.74611705949402,40.26030878293514,46.74611705949402C29.457507782935142,45.390717059494015,21.228309782935142,38.335416059494015,21.228309782935142,29.791615059494017C21.228309782935142,21.47371505949402,29.003709782935143,14.55551605949402,39.31030778293514,12.927836159494019C39.31030778293514,12.927836159494019,39.35870878293514,12.88749575949402,39.35870878293514,12.88749575949402C39.35870878293514,12.88749575949402,39.35870878293514,3.4804160594940186,39.35870878293514,3.4804160594940186C39.35870878293514,3.4804160594940186,13.315808782935143,18.085216059494016,13.315808782935143,18.085216059494016C12.817608782935142,18.35541605949402,12.321408782935142,18.625716059494017,11.825208782935142,18.89801605949402C11.825208782935142,18.89801605949402,11.778908782935142,18.94241605949402,11.778908782935142,18.94241605949402C5.994238582935142,22.56081605949402,2.1055486829351424,28.97671605949402,2.1055486829351424,36.30431405949402C2.1055486829351424,45.07201505949402,7.619898982935142,52.53281505949402,15.350908782935143,55.46941405949402C15.350908782935143,55.46941405949402,0.11480878293514252,63.83581605949402,0.11480878293514252,63.83581605949402C5.177368882935142,75.77011905949402,16.97650878293514,84.17881805949402,30.72210878293514,84.17881805949402C33.70520978293514,84.17881805949402,36.60150678293514,83.77541405949403,39.31030778293514,83.05131605949401C39.31030778293514,83.05131605949401,39.31030778293514,71.20171405949402,39.31030778293514,71.20171405949402C30.04240978293514,69.71321905949402,22.854009782935144,63.96691605949402,21.454207782935143,56.73611505949402C21.454207782935143,56.73611505949402,21.545009782935143,56.78251705949402,21.545009782935143,56.78251705949402C21.545009782935143,56.78251705949402,34.612809782935145,50.04791705949402,34.612809782935145,50.04791705949402C34.612809782935145,50.04791705949402,34.65720878293514,57.82121705949402,34.65720878293514,57.82121705949402C34.65720878293514,57.82121705949402,34.65720878293514,57.82121705949402,34.65720878293514,57.82121705949402Z" fill-rule="evenodd" fill="#EB6120" fill-opacity="1"/><path d="M48.08650701293945,37.45485419206284C58.71580701293945,38.85655319206284,66.85830701293946,45.86955319206284,66.85830701293946,54.37305519206284C66.85830701293946,62.69495519206284,59.07890701293945,69.61715019206284,48.71780701293945,71.28725519206284C48.71780701293945,71.28725519206284,48.71780701293945,80.74265419206284,48.71780701293945,80.74265419206284C48.71780701293945,80.74265419206284,74.77480701293945,66.08545819206284,74.77480701293945,66.08545819206284C75.31740601293944,65.81725419206283,75.77120601293944,65.54495319206283,76.26740601293946,65.27465119206283C76.26740601293946,65.27465119206283,76.31170701293945,65.18385419206284,76.31170701293945,65.18385419206284C82.10240601293945,61.60985319206284,85.99310701293945,55.18785619206284,85.99310701293945,47.81385519206284C85.99310701293945,39.12885419206284,80.47680701293945,31.61775519206284,72.73970801293945,28.679053192062838C72.73970801293945,28.679053192062838,87.93550901293946,20.31065519206284,87.93550901293946,20.31065519206284C82.91730901293946,8.41467389206284,71.11000801293946,0.0019541920628398657,57.358406012939454,0.0019541920628398657C54.32900601293945,0.0019541920628398657,51.47900801293945,0.40534519206283987,48.71780701293945,1.1314541920628398C48.71780701293945,1.1314541920628398,48.71780701293945,12.93465419206284,48.71780701293945,12.93465419206284C58.082506012939454,14.47365419206284,65.27500701293945,20.21995419206284,66.58600601293945,27.41235419206284C66.58600601293945,27.41235419206284,53.46770701293946,34.15105519206284,53.46770701293946,34.15105519206284C53.46770701293946,34.15105519206284,53.46770701293946,26.19015419206284,53.46770701293946,26.19015419206284C53.46770701293946,24.38085519206284,51.97720701293945,22.84395319206284,50.07520701293945,22.84395319206284C50.07520701293945,22.84395319206284,37.862536912939454,22.84395319206284,37.862536912939454,22.84395319206284C36.008957012939455,22.84395319206284,34.51640701293945,24.38085519206284,34.51640701293945,26.19015419206284C34.51640701293945,26.19015419206284,34.51640701293945,34.01585519206284,34.51640701293945,34.01585519206284C34.51640701293945,35.91785519206284,36.008957012939455,37.41045519206284,37.862536912939454,37.41045519206284C37.862536912939454,37.41045519206284,48.08650701293945,37.45485419206284,48.08650701293945,37.45485419206284C48.08650701293945,37.45485419206284,48.08650701293945,37.45485419206284,48.08650701293945,37.45485419206284Z" fill-rule="evenodd" fill="#F6AB00" fill-opacity="1"/><path d="M34.56249999999909,57.85449309883118C34.56249999999909,57.85449309883118,34.56249999999909,57.945295098831174,34.56249999999909,57.945295098831174C34.56249999999909,59.800893098831175,36.00870099999909,61.293393098831174,37.90869899999909,61.293393098831174C37.90869899999909,61.293393098831174,50.16770199999909,61.293393098831174,50.16770199999909,61.293393098831174C52.02130099999909,61.293393098831174,53.51390099999909,59.800893098831175,53.51390099999909,57.945295098831174C53.51390099999909,57.945295098831174,53.51390099999909,50.16379309883118,53.51390099999909,50.16379309883118C53.51390099999909,48.31029209883118,52.02130099999909,46.81569409883118,50.16770199999909,46.771295098831175C50.16770199999909,46.771295098831175,40.21409999999909,46.81569409883118,40.66789999999909,46.771295098831175C40.66789999999909,46.771295098831175,40.12329899999909,46.771295098831175,40.12329899999909,46.771295098831175C40.12329899999909,46.771295098831175,40.169700999999094,46.771295098831175,40.169700999999094,46.771295098831175C29.35880099999909,45.41589509883118,21.12560099999909,38.358594098831176,21.12560099999909,29.808692098831177C21.12560099999909,21.484693098831176,28.90699999999909,14.562593098831178,39.219699999999094,12.934863298831177C39.219699999999094,12.934863298831177,39.26610199999909,12.892513498831176,39.26610199999909,12.892513498831176C39.26610199999909,12.892513498831176,39.26610199999909,3.4813930988311768,39.26610199999909,3.4813930988311768C39.26610199999909,3.4813930988311768,13.21109999999909,18.094193098831177,13.21109999999909,18.094193098831177C12.71289999999909,18.366493098831178,12.214699999999091,18.636793098831177,11.718499999999091,18.907093098831176C11.718499999999091,18.907093098831176,11.67209999999909,18.953493098831174,11.67209999999909,18.953493098831174C5.883459999999091,22.571893098831175,1.9927499999990905,28.991893098831177,1.9927499999990905,36.32349109883118C1.9927499999990905,45.09719209883118,7.50912999999909,52.56199409883118,15.24419999999909,55.50269409883118C15.24419999999909,55.50269409883118,-9.094947017729282e-13,63.873094098831174,-9.094947017729282e-13,63.873094098831174C5.0665897999990905,75.81349309883117,16.87179899999909,84.22619009883118,30.62549999999909,84.22619009883118C33.61049999999909,84.22619009883118,36.50690099999909,83.82279309883117,39.219699999999094,83.09869509883117C39.219699999999094,83.09869509883117,39.219699999999094,71.24299009883117,39.219699999999094,71.24299009883117C29.94569999999909,69.75048909883118,22.75329999999909,64.00419309883117,21.351499999999092,56.76739209883117C21.351499999999092,56.76739209883117,21.44230099999909,56.81579309883118,21.44230099999909,56.81579309883118C21.44230099999909,56.81579309883118,34.51620099999909,50.07709209883118,34.51620099999909,50.07709209883118C34.51620099999909,50.07709209883118,34.56249999999909,57.85449309883118,34.56249999999909,57.85449309883118C34.56249999999909,57.85449309883118,34.56249999999909,57.85449309883118,34.56249999999909,57.85449309883118Z" fill-rule="evenodd" fill="#EB6120" fill-opacity="1"/></svg>