<svg xmlns="http://www.w3.org/2000/svg" xmlns:xlink="http://www.w3.org/1999/xlink" fill="none" version="1.1" width="84.5" height="85.14990234375" viewBox="0 0 84.5 85.14990234375"><path d="M27.25,23.5C27.25,23.5,26.200001,23.5499992,26.200001,23.5499992C26.200001,23.5499992,25.15,23.599998496,25.15,23.599998496C25.15,23.599998496,24.15,23.75,24.15,23.75C24.15,23.75,23.15,23.950001,23.15,23.950001C23.15,23.950001,22.15,24.150002,22.15,24.150002C22.15,24.150002,21.200001,24.400002,21.200001,24.400002C21.200001,24.400002,20.25,24.7,20.25,24.7C20.25,24.7,19.35,25.05,19.35,25.05C19.35,25.05,18.5,25.4,18.5,25.4C18.5,25.4,17.65,25.8499999,17.65,25.8499999C17.65,25.8499999,16.799999,26.3499999,16.799999,26.3499999C16.799999,26.3499999,15.95,26.8499999,15.95,26.8499999C15.95,26.8499999,15.15,27.4000001,15.15,27.4000001C15.15,27.4000001,14.35,28,14.35,28C14.35,28,13.6,28.5999999,13.6,28.5999999C13.6,28.5999999,12.9,29.25,12.9,29.25C12.9,29.25,12.25,29.9000001,12.25,29.9000001C12.25,29.9000001,11.6,30.6500001,11.6,30.6500001C11.6,30.6500001,10.95,31.3499999,10.95,31.3499999C10.95,31.3499999,10.35,32.1499996,10.35,32.1499996C10.35,32.1499996,9.8000002,32.9499998,9.8000002,32.9499998C9.8000002,32.9499998,9.3000002,33.75,9.3000002,33.75C9.3000002,33.75,8.8000002,34.6,8.8000002,34.6C8.8000002,34.6,8.3500004,35.5,8.3500004,35.5C8.3500004,35.5,7.9499998,36.4,7.9499998,36.4C7.9499998,36.4,7.5999999,37.3,7.5999999,37.3C7.5999999,37.3,7.3000002,38.25,7.3000002,38.25C7.3000002,38.25,7,39.2,7,39.2C7,39.2,6.75,40.15,6.75,40.15C6.75,40.15,6.5500002,41.15,6.5500002,41.15C6.5500002,41.15,6.4000001,42.15,6.4000001,42.15C6.4000001,42.15,6.3000002,43.200001,6.3000002,43.200001C6.3000002,43.200001,5.5999999,43.85,5.5999999,43.85C5.5999999,43.85,4.9499998,44.549999,4.9499998,44.549999C4.9499998,44.549999,4.3000002,45.299999,4.3000002,45.299999C4.3000002,45.299999,3.7,46.1,3.7,46.1C3.7,46.1,3.1500001,46.9,3.1500001,46.9C3.1500001,46.9,2.6500001,47.75,2.6500001,47.75C2.6500001,47.75,2.2,48.6,2.2,48.6C2.2,48.6,1.7,49.5,1.7,49.5C1.7,49.5,1.3,50.4,1.3,50.4C1.3,50.4,1,51.35,1,51.35C1,51.35,0.700001,52.299999,0.700001,52.299999C0.700001,52.299999,0.450001,53.299999,0.450001,53.299999C0.450001,53.299999,0.299999,54.299999,0.299999,54.299999C0.299999,54.299999,0.15000001,55.299999,0.15000001,55.299999C0.15000001,55.299999,0.0499992,56.299999,0.0499992,56.299999C0.0499992,56.299999,0,57.450001,0,57.450001C0,57.450001,0.0499992,58.299999,0.0499992,58.299999C0.0499992,58.299999,0.1,59.099998,0.1,59.099998C0.1,59.099998,0.200001,59.950001,0.200001,59.950001C0.200001,59.950001,0.299999,60.75,0.299999,60.75C0.299999,60.75,0.450001,61.549999,0.450001,61.549999C0.450001,61.549999,0.64999998,62.349998,0.64999998,62.349998C0.64999998,62.349998,0.89999998,63.150002,0.89999998,63.150002C0.89999998,63.150002,1.15,63.900002,1.15,63.900002C1.15,63.900002,1.4,64.650002,1.4,64.650002C1.4,64.650002,1.7,65.349998,1.7,65.349998C1.7,65.349998,2.05,66.099998,2.05,66.099998C2.05,66.099998,2.4000001,66.799999,2.4000001,66.799999C2.4000001,66.799999,2.8,67.5,2.8,67.5C2.8,67.5,3.25,68.150002,3.25,68.150002C3.25,68.150002,3.7,68.799999,3.7,68.799999C3.7,68.799999,4.1500001,69.400002,4.1500001,69.400002C4.1500001,69.400002,4.6500001,70,4.6500001,70C4.6500001,70,5.1500001,70.599998,5.1500001,70.599998C5.1500001,70.599998,5.6999998,71.150002,5.6999998,71.150002C5.6999998,71.150002,6.3000002,71.700001,6.3000002,71.700001C6.3000002,71.700001,6.8499999,72.200001,6.8499999,72.200001C6.8499999,72.200001,7.5,72.700001,7.5,72.700001C7.5,72.700001,8.1499996,73.150002,8.1499996,73.150002C8.1499996,73.150002,8.8000002,73.599998,8.8000002,73.599998C8.8000002,73.599998,9.5,74,9.5,74C9.5,74,10.2,74.400002,10.2,74.400002C10.2,74.400002,10.9,74.75,10.9,74.75C10.9,74.75,11.6,75.049999,11.6,75.049999C11.6,75.049999,12.35,75.349998,12.35,75.349998C12.35,75.349998,13.1,75.599998,13.1,75.599998C13.1,75.599998,13.85,75.849998,13.85,75.849998C13.85,75.849998,14.65,76.049999,14.65,76.049999C14.65,76.049999,15.15,76.549999,15.15,76.549999C15.15,76.549999,15.65,77.049999,15.65,77.049999C15.65,77.049999,16.200001,77.549999,16.200001,77.549999C16.200001,77.549999,16.700001,78,16.700001,78C16.700001,78,17.25,78.450001,17.25,78.450001C17.25,78.450001,17.799999,78.900002,17.799999,78.900002C17.799999,78.900002,18.4,79.349998,18.4,79.349998C18.4,79.349998,19,79.799999,19,79.799999C19,79.799999,19.6,80.200001,19.6,80.200001C19.6,80.200001,20.200001,80.599998,20.200001,80.599998C20.200001,80.599998,20.799999,81,20.799999,81C20.799999,81,21.450001,81.400002,21.450001,81.400002C21.450001,81.400002,22.1,81.75,22.1,81.75C22.1,81.75,22.75,82.049999,22.75,82.049999C22.75,82.049999,23.4,82.349998,23.4,82.349998C23.4,82.349998,24.049999,82.650002,24.049999,82.650002C24.049999,82.650002,24.75,82.950001,24.75,82.950001C24.75,82.950001,25.4,83.200001,25.4,83.200001C25.4,83.200001,26.1,83.450001,26.1,83.450001C26.1,83.450001,26.799999,83.700001,26.799999,83.700001C26.799999,83.700001,27.5,83.900002,27.5,83.900002C27.5,83.900002,28.200001,84.099998,28.200001,84.099998C28.200001,84.099998,28.9,84.25,28.9,84.25C28.9,84.25,29.6,84.450001,29.6,84.450001C29.6,84.450001,30.299999,84.599998,30.299999,84.599998C30.299999,84.599998,31.049999,84.700001,31.049999,84.700001C31.049999,84.700001,31.799999,84.799999,31.799999,84.799999C31.799999,84.799999,32.549999,84.900002,32.549999,84.900002C32.549999,84.900002,33.299999,85,33.299999,85C33.299999,85,34.049999,85.049999,34.049999,85.049999C34.049999,85.049999,34.849998,85.099998,34.849998,85.099998C34.849998,85.099998,35.599998,85.150002,35.599998,85.150002C35.599998,85.150002,36.75,85.099998,36.75,85.099998C36.75,85.099998,37.900002,85,37.900002,85C37.900002,85,39.049999,84.900002,39.049999,84.900002C39.049999,84.900002,40.150002,84.75,40.150002,84.75C40.150002,84.75,41.299999,84.549999,41.299999,84.549999C41.299999,84.549999,42.400002,84.299999,42.400002,84.299999C42.400002,84.299999,43.450001,84,43.450001,84C43.450001,84,44.549999,83.700001,44.549999,83.700001C44.549999,83.700001,45.599998,83.299999,45.599998,83.299999C45.599998,83.299999,46.650002,82.900002,46.650002,82.900002C46.650002,82.900002,47.650002,82.450001,47.650002,82.450001C47.650002,82.450001,48.650002,81.950001,48.650002,81.950001C48.650002,81.950001,49.650002,81.450001,49.650002,81.450001C49.650002,81.450001,50.599998,80.900002,50.599998,80.900002C50.599998,80.900002,51.5,80.299999,51.5,80.299999C51.5,80.299999,52.400002,79.700001,52.400002,79.700001C52.400002,79.700001,51.849998,79.75,51.849998,79.75C51.849998,79.75,51.299999,79.799999,51.299999,79.799999C51.299999,79.799999,50.75,79.849998,50.75,79.849998C50.75,79.849998,49.5,79.849998,49.5,79.849998C49.5,79.849998,48.799999,79.799999,48.799999,79.799999C48.799999,79.799999,48.099998,79.75,48.099998,79.75C48.099998,79.75,47.400002,79.700001,47.400002,79.700001C47.400002,79.700001,46.700001,79.650002,46.700001,79.650002C46.700001,79.650002,46,79.549999,46,79.549999C46,79.549999,45.349998,79.450001,45.349998,79.450001C45.349998,79.450001,44.650002,79.349998,44.650002,79.349998C44.650002,79.349998,44,79.25,44,79.25C44,79.25,43.349998,79.099998,43.349998,79.099998C43.349998,79.099998,42.700001,78.900002,42.700001,78.900002C42.700001,78.900002,42.049999,78.700001,42.049999,78.700001C42.049999,78.700001,41.400002,78.5,41.400002,78.5C41.400002,78.5,40.75,78.299999,40.75,78.299999C40.75,78.299999,40.099998,78.049999,40.099998,78.049999C40.099998,78.049999,39.450001,77.799999,39.450001,77.799999C39.450001,77.799999,38.849998,77.549999,38.849998,77.549999C38.849998,77.549999,38.200001,77.299999,38.200001,77.299999C38.200001,77.299999,37.599998,77.049999,37.599998,77.049999C37.599998,77.049999,37,76.75,37,76.75C37,76.75,36.450001,76.450001,36.450001,76.450001C36.450001,76.450001,35.849998,76.150002,35.849998,76.150002C35.849998,76.150002,35.299999,75.849998,35.299999,75.849998C35.299999,75.849998,34.700001,75.549999,34.700001,75.549999C34.700001,75.549999,34.150002,75.200001,34.150002,75.200001C34.150002,75.200001,33.599998,74.799999,33.599998,74.799999C33.599998,74.799999,33.049999,74.450001,33.049999,74.450001C33.049999,74.450001,32.5,74.099998,32.5,74.099998C32.5,74.099998,31.450001,73.299999,31.450001,73.299999C31.450001,73.299999,30.450001,72.450001,30.450001,72.450001C30.450001,72.450001,30.299999,72.299999,30.299999,72.299999C30.299999,72.299999,30.1,72.150002,30.1,72.150002C30.1,72.150002,30,72.099998,30,72.099998C30,72.099998,29.950001,72,29.950001,72C29.950001,72,29.75,71.849998,29.75,71.849998C29.75,71.849998,29.549999,71.650002,29.549999,71.650002C29.549999,71.650002,29.5,71.599998,29.5,71.599998C29.5,71.599998,29.4,71.549999,29.4,71.549999C29.4,71.549999,29.200001,71.349998,29.200001,71.349998C29.200001,71.349998,29,71.150002,29,71.150002C29,71.150002,28.950001,71.099998,28.950001,71.099998C28.950001,71.099998,28.9,71.049999,28.9,71.049999C28.9,71.049999,28.65,70.799999,28.65,70.799999C28.65,70.799999,28.450001,70.599998,28.450001,70.599998C28.450001,70.599998,28.4,70.549999,28.4,70.549999C28.4,70.549999,28.35,70.5,28.35,70.5C28.35,70.5,28.15,70.25,28.15,70.25C28.15,70.25,27.9,70,27.9,70C27.9,70,27.85,69.950001,27.85,69.950001C27.85,69.950001,27.85,69.900002,27.85,69.900002C27.85,69.900002,27.6,69.650002,27.6,69.650002C27.6,69.650002,27.4,69.400002,27.4,69.400002C27.4,69.400002,27.35,69.349998,27.35,69.349998C27.35,69.349998,27.1,69.049999,27.1,69.049999C27.1,69.049999,26.85,68.799999,26.85,68.799999C26.85,68.799999,26.6,68.5,26.6,68.5C26.6,68.5,26.35,68.200001,26.35,68.200001C26.35,68.200001,26.299999,68.200001,26.299999,68.200001C26.299999,68.200001,26.299999,68.150002,26.299999,68.150002C26.299999,68.150002,26.049999,67.849998,26.049999,67.849998C26.049999,67.849998,25.799999,67.549999,25.799999,67.549999C25.799999,67.549999,25.549999,67.25,25.549999,67.25C25.549999,67.25,25.35,66.950001,25.35,66.950001C25.35,66.950001,25.15,66.700001,25.15,66.700001C25.15,66.700001,24.950001,66.400002,24.950001,66.400002C24.950001,66.400002,24.950001,66.349998,24.950001,66.349998C24.950001,66.349998,24.75,66.099998,24.75,66.099998C24.75,66.099998,24.549999,65.799999,24.549999,65.799999C24.549999,65.799999,24.5,65.75,24.5,65.75C24.5,65.75,24.450001,65.700001,24.450001,65.700001C24.450001,65.700001,24.450001,65.650002,24.450001,65.650002C24.450001,65.650002,24.4,65.599998,24.4,65.599998C24.4,65.599998,24.25,65.349998,24.25,65.349998C24.25,65.349998,24.1,65.099998,24.1,65.099998C24.1,65.099998,24.049999,65.049999,24.049999,65.049999C24.049999,65.049999,23.85,64.75,23.85,64.75C23.85,64.75,23.65,64.450001,23.65,64.450001C23.65,64.450001,23.65,64.400002,23.65,64.400002C23.65,64.400002,23.6,64.349998,23.6,64.349998C23.6,64.349998,23.450001,64.049999,23.450001,64.049999C23.450001,64.049999,23.299999,63.75,23.299999,63.75C23.299999,63.75,23.25,63.700001,23.25,63.700001C23.25,63.700001,23.200001,63.650002,23.200001,63.650002C23.200001,63.650002,23.049999,63.400002,23.049999,63.400002C23.049999,63.400002,22.9,63.150002,22.9,63.150002C22.9,63.150002,22.85,63.049999,22.85,63.049999C22.85,63.049999,22.799999,62.950001,22.799999,62.950001C22.799999,62.950001,22.700001,62.700001,22.700001,62.700001C22.700001,62.700001,22.6,62.450001,22.6,62.450001C22.6,62.450001,22.549999,62.349998,22.549999,62.349998C22.549999,62.349998,23,62.5,23,62.5C23,62.5,22.9,62.25,22.9,62.25C22.9,62.25,22.799999,62.049999,22.799999,62.049999C22.799999,62.049999,22.75,61.900002,22.75,61.900002C22.75,61.900002,22.700001,61.799999,22.700001,61.799999C22.700001,61.799999,22.6,61.599998,22.6,61.599998C22.6,61.599998,22.5,61.400002,22.5,61.400002C22.5,61.400002,22.450001,61.25,22.450001,61.25C22.450001,61.25,22.4,61.099998,22.4,61.099998C22.4,61.099998,22.299999,60.900002,22.299999,60.900002C22.299999,60.900002,22.200001,60.700001,22.200001,60.700001C22.200001,60.700001,22.15,60.549999,22.15,60.549999C22.15,60.549999,22.1,60.400002,22.1,60.400002C22.1,60.400002,22,60.25,22,60.25C22,60.25,21.950001,60.049999,21.950001,60.049999C21.950001,60.049999,21.85,59.849998,21.85,59.849998C21.85,59.849998,21.799999,59.650002,21.799999,59.650002C21.799999,59.650002,21.75,59.5,21.75,59.5C21.75,59.5,21.700001,59.349998,21.700001,59.349998C21.700001,59.349998,21.65,59.150002,21.65,59.150002C21.65,59.150002,21.549999,58.950001,21.549999,58.950001C21.549999,58.950001,21.5,58.799999,21.5,58.799999C21.5,58.799999,21.450001,58.650002,21.450001,58.650002C21.450001,58.650002,21.35,58.400002,21.35,58.400002C21.35,58.400002,21.299999,58.150002,21.299999,58.150002C21.299999,58.150002,21.25,58.049999,21.25,58.049999C21.25,58.049999,21.200001,57.950001,21.200001,57.950001C21.200001,57.950001,21.1,57.700001,21.1,57.700001C21.1,57.700001,21.049999,57.450001,21.049999,57.450001C21.049999,57.450001,21,57.349998,21,57.349998C21,57.349998,20.950001,57.25,20.950001,57.25C20.950001,57.25,20.85,57,20.85,57C20.85,57,20.799999,56.75,20.799999,56.75C20.799999,56.75,20.75,56.650002,20.75,56.650002C20.75,56.650002,20.700001,56.549999,20.700001,56.549999C20.700001,56.549999,20.65,56.25,20.65,56.25C20.65,56.25,20.6,56,20.6,56C20.6,56,20.6,55.950001,20.6,55.950001C20.6,55.950001,20.549999,55.950001,20.549999,55.950001C20.549999,55.950001,20.549999,55.799999,20.549999,55.799999C20.549999,55.799999,20.5,55.75,20.5,55.75C20.5,55.75,20.450001,55.450001,20.450001,55.450001C20.450001,55.450001,20.4,55.15,20.4,55.15C20.4,55.15,20.35,55.1,20.35,55.1C20.35,55.1,20.35,55,20.35,55C20.35,55,20.299999,54.700001,20.299999,54.700001C20.299999,54.700001,20.25,54.4,20.25,54.4C20.25,54.4,20.200001,54.35,20.200001,54.35C20.200001,54.35,20.200001,54.25,20.200001,54.25C20.200001,54.25,20.15,53.950001,20.15,53.950001C20.15,53.950001,20.1,53.65,20.1,53.65C20.1,53.65,20.1,53.5,20.1,53.5C20.1,53.5,20.049999,53.15,20.049999,53.15C20.049999,53.15,20,52.85,20,52.85C20,52.85,20,52.700001,20,52.700001C20,52.700001,19.950001,52.35,19.950001,52.35C19.950001,52.35,19.950001,51.9,19.950001,51.9C19.950001,51.9,19.9,51.549999,19.9,51.549999C19.9,51.549999,19.85,51.200001,19.85,51.200001C19.85,51.200001,19.85,51.1,19.85,51.1C19.85,51.1,19.799999,50.700001,19.799999,50.700001C19.799999,50.700001,19.75,50.35,19.75,50.35C19.75,50.35,19.75,50.299999,19.75,50.299999C19.75,50.299999,19.75,50.5,19.75,50.5C19.75,50.5,19.700001,50.1,19.700001,50.1C19.700001,50.1,19.700001,48.450001,19.700001,48.450001C19.700001,48.450001,19.700001,48.5,19.700001,48.5C19.700001,48.5,19.700001,47.75,19.700001,47.75C19.700001,47.75,19.75,47.700001,19.75,47.700001C19.75,47.700001,19.75,47.200001,19.75,47.200001C19.75,47.200001,19.799999,47,19.799999,47C19.799999,47,19.799999,46.700001,19.799999,46.700001C19.799999,46.700001,19.85,46.6,19.85,46.6C19.85,46.6,19.85,46.450001,19.85,46.450001C19.85,46.450001,19.85,46.5,19.85,46.5C19.85,46.5,19.85,46.4,19.85,46.4C19.85,46.4,19.9,46.299999,19.9,46.299999C19.9,46.299999,19.9,46.1,19.9,46.1C19.9,46.1,19.950001,46,19.950001,46C19.950001,46,19.950001,45.6,19.950001,45.6C19.950001,45.6,20,45.5,20,45.5C20,45.5,20,45.299999,20,45.299999C20,45.299999,20.049999,45.25,20.049999,45.25C20.049999,45.25,20.049999,44.950001,20.049999,44.950001C20.049999,44.950001,20.1,44.950001,20.1,44.950001C20.1,44.950001,20.1,44.799999,20.1,44.799999C20.1,44.799999,20.15,44.700001,20.15,44.700001C20.15,44.700001,20.15,44.6,20.15,44.6C20.15,44.6,20.200001,44.5,20.200001,44.5C20.200001,44.5,20.200001,44.35,20.200001,44.35C20.200001,44.35,20.25,44.25,20.25,44.25C20.25,44.25,20.25,44.15,20.25,44.15C20.25,44.15,20.299999,44.049999,20.299999,44.049999C20.299999,44.049999,20.35,43.950001,20.35,43.950001C20.35,43.950001,20.35,43.85,20.35,43.85C20.35,43.85,20.4,43.75,20.4,43.75C20.4,43.75,20.450001,43.65,20.450001,43.65C20.450001,43.65,20.450001,43.5,20.450001,43.5C20.450001,43.5,20.5,43.35,20.5,43.35C20.5,43.35,20.549999,43.200001,20.549999,43.200001C20.549999,43.200001,20.6,43.15,20.6,43.15C20.6,43.15,20.6,43.1,20.6,43.1C20.6,43.1,20.65,42.9,20.65,42.9C20.65,42.9,20.700001,42.700001,20.700001,42.700001C20.700001,42.700001,20.700001,42.6,20.700001,42.6C20.700001,42.6,20.950001,41.549999,20.950001,41.549999C20.950001,41.549999,21.25,40.549999,21.25,40.549999C21.25,40.549999,21.549999,39.549999,21.549999,39.549999C21.549999,39.549999,21.9,38.55,21.9,38.55C21.9,38.55,22.299999,37.5,22.299999,37.5C22.299999,37.5,22.75,36.45,22.75,36.45C22.75,36.45,23.25,35.4,23.25,35.4C23.25,35.4,23.75,34.4,23.75,34.4C23.75,34.4,24.299999,33.3999996,24.299999,33.3999996C24.299999,33.3999996,24.9,32.3999996,24.9,32.3999996C24.9,32.3999996,25.549999,31.4499998,25.549999,31.4499998C25.549999,31.4499998,26,30.5,26,30.5C26,30.5,26.700001,29.5999999,26.700001,29.5999999C26.700001,29.5999999,27.450001,28.75,27.450001,28.75C27.450001,28.75,28.200001,27.9000001,28.200001,27.9000001C28.200001,27.9000001,29,27.0999999,29,27.0999999C29,27.0999999,29.85,26.3,29.85,26.3C29.85,26.3,30.700001,25.55,30.700001,25.55C30.700001,25.55,31.6,24.8,31.6,24.8C31.6,24.8,32.5,24.099998,32.5,24.099998C32.5,24.099998,31.799999,24,31.799999,24C31.799999,24,31.15,23.900002,31.15,23.900002C31.15,23.900002,30.5,23.75,30.5,23.75C30.5,23.75,29.85,23.650002,29.85,23.650002C29.85,23.650002,29.200001,23.5499992,29.200001,23.5499992C29.200001,23.5499992,28.549999,23.5,28.549999,23.5C28.549999,23.5,27.25,23.5,27.25,23.5C27.25,23.5,27.25,23.5,27.25,23.5C27.25,23.5,27.25,23.5,27.25,23.5ZM20,46.25C20,46.25,19.9,49.75,19.9,49.75C19.9,49.75,20,46.25,20,46.25C20,46.25,20,46.25,20,46.25Z" fill="#009F40" fill-opacity="1"/><path d="M50.75,36C50.75,36,65.5,50.75,65.5,50.75C65.5,50.75,50.75,65.5,50.75,65.5C50.75,65.5,36,50.75,36,50.75C36,50.75,50.75,36,50.75,36C50.75,36,50.75,36,50.75,36Z" fill="#1F2A8C" fill-opacity="1"/><path d="M65.35,10.5C65.35,10.5,66,10.5499992,66,10.5499992C66,10.5499992,66.599998,10.599998496,66.599998,10.599998496C66.599998,10.599998496,67.25,10.650002,67.25,10.650002C67.25,10.650002,67.849998,10.75,67.849998,10.75C67.849998,10.75,68.450001,10.900002,68.450001,10.900002C68.450001,10.900002,69.049999,11.049999,69.049999,11.049999C69.049999,11.049999,69.650002,11.25,69.650002,11.25C69.650002,11.25,70.200001,11.450001,70.200001,11.450001C70.200001,11.450001,70.75,11.75,70.75,11.75C70.75,11.75,71.299999,12,71.299999,12C71.299999,12,71.849998,12.3,71.849998,12.3C71.849998,12.3,72.349998,12.5999999,72.349998,12.5999999C72.349998,12.5999999,72.849998,12.95,72.849998,12.95C72.849998,12.95,73.299999,13.3,73.299999,13.3C73.299999,13.3,73.75,13.7,73.75,13.7C73.75,13.7,74.25,14.1500001,74.25,14.1500001C74.25,14.1500001,74.650002,14.5500002,74.650002,14.5500002C74.650002,14.5500002,75.049999,15,75.049999,15C75.049999,15,75.450001,15.4499998,75.450001,15.4499998C75.450001,15.4499998,75.799999,15.9499998,75.799999,15.9499998C75.799999,15.9499998,76.150002,16.4499998,76.150002,16.4499998C76.150002,16.4499998,76.450001,16.9499998,76.450001,16.9499998C76.450001,16.9499998,76.700001,17.5,76.700001,17.5C76.700001,17.5,77,18.0500002,77,18.0500002C77,18.0500002,77.200001,18.6000004,77.200001,18.6000004C77.200001,18.6000004,77.450001,19.1999998,77.450001,19.1999998C77.450001,19.1999998,77.650002,19.75,77.650002,19.75C77.650002,19.75,77.799999,20.3500004,77.799999,20.3500004C77.799999,20.3500004,77.900002,20.95,77.900002,20.95C77.900002,20.95,78,21.6,78,21.6C78,21.6,78.099998,22.2,78.099998,22.2C78.099998,22.2,78.099998,22.85,78.099998,22.85C78.099998,22.85,78.799999,23.45,78.799999,23.45C78.799999,23.45,79.5,24.1,79.5,24.1C79.5,24.1,80.150002,24.75,80.150002,24.75C80.150002,24.75,80.75,25.5,80.75,25.5C80.75,25.5,81.299999,26.25,81.299999,26.25C81.299999,26.25,81.849998,27,81.849998,27C81.849998,27,82.349998,27.85,82.349998,27.85C82.349998,27.85,82.75,28.65,82.75,28.65C82.75,28.65,83.150002,29.549999,83.150002,29.549999C83.150002,29.549999,83.5,30.4,83.5,30.4C83.5,30.4,83.799999,31.299999,83.799999,31.299999C83.799999,31.299999,84.049999,32.25,84.049999,32.25C84.049999,32.25,84.25,33.200001,84.25,33.200001C84.25,33.200001,84.400002,34.15,84.400002,34.15C84.400002,34.15,84.450001,35.15,84.450001,35.15C84.450001,35.15,84.5,36.15,84.5,36.15C84.5,36.15,84.450001,37.15,84.450001,37.15C84.450001,37.15,84.400002,38.15,84.400002,38.15C84.400002,38.15,84.25,39.1,84.25,39.1C84.25,39.1,84.049999,40.049999,84.049999,40.049999C84.049999,40.049999,83.799999,41,83.799999,41C83.799999,41,83.5,41.9,83.5,41.9C83.5,41.9,83.150002,42.799999,83.150002,42.799999C83.150002,42.799999,82.75,43.650002,82.75,43.650002C82.75,43.650002,82.299999,44.5,82.299999,44.5C82.299999,44.5,81.799999,45.299999,81.799999,45.299999C81.799999,45.299999,81.299999,46.099998,81.299999,46.099998C81.299999,46.099998,80.700001,46.849998,80.700001,46.849998C80.700001,46.849998,80.099998,47.549999,80.099998,47.549999C80.099998,47.549999,79.450001,48.25,79.450001,48.25C79.450001,48.25,78.75,48.900002,78.75,48.900002C78.75,48.900002,78.049999,49.5,78.049999,49.5C78.049999,49.5,77.900002,48.150002,77.900002,48.150002C77.900002,48.150002,77.75,46.799999,77.75,46.799999C77.75,46.799999,77.5,45.5,77.5,45.5C77.5,45.5,77.200001,44.200001,77.200001,44.200001C77.200001,44.200001,76.849998,42.900002,76.849998,42.900002C76.849998,42.900002,76.450001,41.700001,76.450001,41.700001C76.450001,41.700001,75.950001,40.450001,75.950001,40.450001C75.950001,40.450001,75.450001,39.25,75.450001,39.25C75.450001,39.25,74.849998,38.15,74.849998,38.15C74.849998,38.15,74.200001,37,74.200001,37C74.200001,37,73.549999,35.9,73.549999,35.9C73.549999,35.9,72.799999,34.799999,72.799999,34.799999C72.799999,34.799999,72,33.799999,72,33.799999C72,33.799999,71.200001,32.85,71.200001,32.85C71.200001,32.85,70.299999,31.85,70.299999,31.85C70.299999,31.85,69.400002,30.950001,69.400002,30.950001C69.400002,30.950001,68.450001,30.1,68.450001,30.1C68.450001,30.1,67.450001,29.299999,67.450001,29.299999C67.450001,29.299999,66.400002,28.5,66.400002,28.5C66.400002,28.5,65.35,27.799999,65.35,27.799999C65.35,27.799999,64.25,27.1,64.25,27.1C64.25,27.1,63.1,26.5,63.1,26.5C63.1,26.5,61.950001,25.9,61.950001,25.9C61.950001,25.9,60.75,25.4,60.75,25.4C60.75,25.4,59.549999,24.9,59.549999,24.9C59.549999,24.9,58.299999,24.5,58.299999,24.5C58.299999,24.5,57,24.15,57,24.15C57,24.15,55.75,23.9,55.75,23.9C55.75,23.9,54.4,23.65,54.4,23.65C54.4,23.65,53.1,23.5,53.1,23.5C53.1,23.5,51.700001,23.4,51.700001,23.4C51.700001,23.4,50.35,23.35,50.35,23.35C50.35,23.35,49.15,23.35,49.15,23.35C49.15,23.35,48,23.45,48,23.45C48,23.45,46.85,23.55,46.85,23.55C46.85,23.55,45.7,23.75,45.7,23.75C45.7,23.75,44.55,23.95,44.55,23.95C44.55,23.95,43.4499998,24.2,43.4499998,24.2C43.4499998,24.2,42.3500004,24.55,42.3500004,24.55C42.3500004,24.55,41.3000002,24.85,41.3000002,24.85C41.3000002,24.85,40.25,25.25,40.25,25.25C40.25,25.25,39.1999998,25.65,39.1999998,25.65C39.1999998,25.65,38.1999998,26.15,38.1999998,26.15C38.1999998,26.15,37.2,26.65,37.2,26.65C37.2,26.65,36.25,27.200001,36.25,27.200001C36.25,27.200001,35.3,27.799999,35.3,27.799999C35.3,27.799999,34.400002,28.4,34.400002,28.4C34.400002,28.4,33.5,29.049999,33.5,29.049999C33.5,29.049999,33.650002,28.200001,33.650002,28.200001C33.650002,28.200001,33.799999,27.35,33.799999,27.35C33.799999,27.35,34.049999,26.5,34.049999,26.5C34.049999,26.5,34.299999,25.7,34.299999,25.7C34.299999,25.7,34.6,24.9,34.6,24.9C34.6,24.9,34.95,24.1,34.95,24.1C34.95,24.1,35.3,23.35,35.3,23.35C35.3,23.35,35.6500001,22.6,35.6500001,22.6C35.6500001,22.6,36.0999999,21.85,36.0999999,21.85C36.0999999,21.85,36.55,21.15,36.55,21.15C36.55,21.15,37.05,20.4499998,37.05,20.4499998C37.05,20.4499998,37.5500002,19.8000002,37.5500002,19.8000002C37.5500002,19.8000002,38.0999999,19.1499996,38.0999999,19.1499996C38.0999999,19.1499996,38.6999998,18.5500002,38.6999998,18.5500002C38.6999998,18.5500002,39.25,17.9499998,39.25,17.9499998C39.25,17.9499998,39.9000001,17.3499999,39.9000001,17.3499999C39.9000001,17.3499999,40.5,16.8499999,40.5,16.8499999C40.5,16.8499999,41.1999998,16.3000002,41.1999998,16.3000002C41.1999998,16.3000002,41.8999996,15.8499999,41.8999996,15.8499999C41.8999996,15.8499999,42.6000004,15.4000001,42.6000004,15.4000001C42.6000004,15.4000001,43.3500004,14.9499998,43.3500004,14.9499998C43.3500004,14.9499998,44.1,14.5500002,44.1,14.5500002C44.1,14.5500002,44.85,14.2,44.85,14.2C44.85,14.2,45.65,13.9000001,45.65,13.9000001C45.65,13.9000001,46.45,13.5999999,46.45,13.5999999C46.45,13.5999999,47.3,13.3499999,47.3,13.3499999C47.3,13.3499999,48.15,13.1500001,48.15,13.1500001C48.15,13.1500001,49,12.95,49,12.95C49,12.95,49.85,12.8,49.85,12.8C49.85,12.8,50.700001,12.7,50.700001,12.7C50.700001,12.7,51.6,12.6500001,51.6,12.6500001C51.6,12.6500001,53.75,12.6500001,53.75,12.6500001C53.75,12.6500001,54.4,12.7,54.4,12.7C54.4,12.7,55,12.8,55,12.8C55,12.8,55.6,12.9000001,55.6,12.9000001C55.6,12.9000001,56.200001,13,56.200001,13C56.200001,13,56.799999,13.1500001,56.799999,13.1500001C56.799999,13.1500001,57.4,13.3,57.4,13.3C57.4,13.3,57.799999,12.95,57.799999,12.95C57.799999,12.95,58.25,12.6500001,58.25,12.6500001C58.25,12.6500001,58.700001,12.35,58.700001,12.35C58.700001,12.35,59.15,12.1,59.15,12.1C59.15,12.1,59.6,11.85,59.6,11.85C59.6,11.85,60.1,11.65,60.1,11.65C60.1,11.65,60.549999,11.450001,60.549999,11.450001C60.549999,11.450001,61.049999,11.25,61.049999,11.25C61.049999,11.25,61.549999,11.099998,61.549999,11.099998C61.549999,11.099998,62.1,10.950001,62.1,10.950001C62.1,10.950001,62.6,10.799999,62.6,10.799999C62.6,10.799999,63.15,10.700001,63.15,10.700001C63.15,10.700001,63.65,10.599998496,63.65,10.599998496C63.65,10.599998496,64.200001,10.5499992,64.200001,10.5499992C64.200001,10.5499992,64.799999,10.5499992,64.799999,10.5499992C64.799999,10.5499992,65.35,10.5,65.35,10.5C65.35,10.5,65.35,10.5,65.35,10.5Z" fill="#E4201F" fill-opacity="1"/><path d="M27,0C27,0,26.450001,0.0499992,26.450001,0.0499992C26.450001,0.0499992,25.799999,0.0499992,25.799999,0.0499992C25.799999,0.0499992,25.200001,0.15000001,25.200001,0.15000001C25.200001,0.15000001,24.549999,0.25,24.549999,0.25C24.549999,0.25,23.950001,0.40000001,23.950001,0.40000001C23.950001,0.40000001,23.35,0.60000002,23.35,0.60000002C23.35,0.60000002,22.75,0.799999,22.75,0.799999C22.75,0.799999,22.200001,1,22.200001,1C22.200001,1,21.65,1.25,21.65,1.25C21.65,1.25,21.1,1.55,21.1,1.55C21.1,1.55,20.55,1.85,20.55,1.85C20.55,1.85,20.05,2.1500001,20.05,2.1500001C20.05,2.1500001,19.55,2.5,19.55,2.5C19.55,2.5,19.05,2.9000001,19.05,2.9000001C19.05,2.9000001,18.6,3.3,18.6,3.3C18.6,3.3,18.2,3.75,18.2,3.75C18.2,3.75,17.75,4.1500001,17.75,4.1500001C17.75,4.1500001,17.35,4.5999999,17.35,4.5999999C17.35,4.5999999,16.95,5.0999999,16.95,5.0999999C16.95,5.0999999,16.6,5.5999999,16.6,5.5999999C16.6,5.5999999,16.3,6.0999999,16.3,6.0999999C16.3,6.0999999,16,6.6500001,16,6.6500001C16,6.6500001,15.75,7.1999998,15.75,7.1999998C15.75,7.1999998,15.45,7.75,15.45,7.75C15.45,7.75,15.25,8.3000002,15.25,8.3000002C15.25,8.3000002,15.05,8.8999996,15.05,8.8999996C15.05,8.8999996,14.8500004,9.5,14.8500004,9.5C14.8500004,9.5,14.6999998,10.1,14.6999998,10.1C14.6999998,10.1,14.6000004,10.75,14.6000004,10.75C14.6000004,10.75,14.5500002,11.4,14.5500002,11.4C14.5500002,11.4,14.5,12,14.5,12C14.5,12,14.4499998,12.65,14.4499998,12.65C14.4499998,12.65,14.4499998,12.9,14.4499998,12.9C14.4499998,12.9,13.9499998,13.15,13.9499998,13.15C13.9499998,13.15,13.4499998,13.4,13.4499998,13.4C13.4499998,13.4,12.9499998,13.65,12.9499998,13.65C12.9499998,13.65,12.4499998,13.95,12.4499998,13.95C12.4499998,13.95,12,14.3,12,14.3C12,14.3,11.5,14.6,11.5,14.6C11.5,14.6,11.0999999,14.95,11.0999999,14.95C11.0999999,14.95,10.6500001,15.3,10.6500001,15.3C10.6500001,15.3,10.1999998,15.65,10.1999998,15.65C10.1999998,15.65,9.8000002,16.049999,9.8000002,16.049999C9.8000002,16.049999,9.4000001,16.450001,9.4000001,16.450001C9.4000001,16.450001,9.0500002,16.9,9.0500002,16.9C9.0500002,16.9,8.6500001,17.299999,8.6500001,17.299999C8.6500001,17.299999,8.3,17.75,8.3,17.75C8.3,17.75,7.95,18.200001,7.95,18.200001C7.95,18.200001,7.6500001,18.65,7.6500001,18.65C7.6500001,18.65,7.3499999,19.15,7.3499999,19.15C7.3499999,19.15,7.05,19.6,7.05,19.6C7.05,19.6,6.8,20.1,6.8,20.1C6.8,20.1,6.55,20.65,6.55,20.65C6.55,20.65,6.3,21.15,6.3,21.15C6.3,21.15,6.05,21.700001,6.05,21.700001C6.05,21.700001,5.8500000199999995,22.200001,5.8500000199999995,22.200001C5.8500000199999995,22.200001,5.700001,22.75,5.700001,22.75C5.700001,22.75,5.549999,23.35,5.549999,23.35C5.549999,23.35,5.40000001,23.85,5.40000001,23.85C5.40000001,23.85,5.299999,24.450001,5.299999,24.450001C5.299999,24.450001,5.15000001,25.049999,5.15000001,25.049999C5.15000001,25.049999,5.1,25.6,5.1,25.6C5.1,25.6,5.0499992,26.200001,5.0499992,26.200001C5.0499992,26.200001,5,26.799999,5,26.799999C5,26.799999,5,27.450001,5,27.450001C5,27.450001,5.0499992,28.200001,5.0499992,28.200001C5.0499992,28.200001,5.1,29,5.1,29C5.1,29,5.15000001,29.799999,5.15000001,29.799999C5.15000001,29.799999,5.299999,30.549999,5.299999,30.549999C5.299999,30.549999,5.5,31.299999,5.5,31.299999C5.5,31.299999,5.700001,32.049999,5.700001,32.049999C5.700001,32.049999,5.8999999800000005,32.75,5.8999999800000005,32.75C5.8999999800000005,32.75,6.2,33.5,6.2,33.5C6.2,33.5,7,32.200001,7,32.200001C7,32.200001,7.8,31,7.8,31C7.8,31,8.6500001,29.75,8.6500001,29.75C8.6500001,29.75,9.5500002,28.6,9.5500002,28.6C9.5500002,28.6,10.5,27.450001,10.5,27.450001C10.5,27.450001,11.4499998,26.299999,11.4499998,26.299999C11.4499998,26.299999,12.4499998,25.200001,12.4499998,25.200001C12.4499998,25.200001,13.4499998,24.15,13.4499998,24.15C13.4499998,24.15,14.5,23.1,14.5,23.1C14.5,23.1,15.6,22.1,15.6,22.1C15.6,22.1,16.75,21.15,16.75,21.15C16.75,21.15,17.9,20.25,17.9,20.25C17.9,20.25,19.1,19.35,19.1,19.35C19.1,19.35,20.3,18.5,20.3,18.5C20.3,18.5,21.549999,17.700001,21.549999,17.700001C21.549999,17.700001,22.799999,16.9,22.799999,16.9C22.799999,16.9,24.1,16.15,24.1,16.15C24.1,16.15,25.450001,15.5,25.450001,15.5C25.450001,15.5,26.75,14.8,26.75,14.8C26.75,14.8,28.15,14.2,28.15,14.2C28.15,14.2,29.549999,13.65,29.549999,13.65C29.549999,13.65,30.950001,13.15,30.950001,13.15C30.950001,13.15,32.4,12.65,32.4,12.65C32.4,12.65,33.85,12.25,33.85,12.25C33.85,12.25,35.299999,11.85,35.299999,11.85C35.299999,11.85,36.799999,11.55,36.799999,11.55C36.799999,11.55,38.299999,11.25,38.299999,11.25C38.299999,11.25,39.849998,11,39.849998,11C39.849998,11,41.349998,10.8,41.349998,10.8C41.349998,10.8,42.950001,10.7,42.950001,10.7C42.950001,10.7,44.5,10.6,44.5,10.6C44.5,10.6,47.099998,10.6,47.099998,10.6C47.099998,10.6,48.099998,10.65,48.099998,10.65C48.099998,10.65,49.099998,10.7,49.099998,10.7C49.099998,10.7,50.099998,10.75,50.099998,10.75C50.099998,10.75,51.049999,10.85,51.049999,10.85C51.049999,10.85,52.049999,11,52.049999,11C52.049999,11,53,11.1,53,11.1C53,11.1,54,11.25,54,11.25C54,11.25,53.849998,10.8,53.849998,10.8C53.849998,10.8,53.700001,10.3,53.700001,10.3C53.700001,10.3,53.5,9.8000002,53.5,9.8000002C53.5,9.8000002,53.299999,9.3500004,53.299999,9.3500004C53.299999,9.3500004,53.049999,8.8999996,53.049999,8.8999996C53.049999,8.8999996,52.799999,8.4499998,52.799999,8.4499998C52.799999,8.4499998,52.549999,8,52.549999,8C52.549999,8,52.25,7.5999999,52.25,7.5999999C52.25,7.5999999,52,7.1999998,52,7.1999998C52,7.1999998,51.650002,6.8000002,51.650002,6.8000002C51.650002,6.8000002,51.349998,6.4000001,51.349998,6.4000001C51.349998,6.4000001,51,6.0500002,51,6.0500002C51,6.0500002,50.650002,5.6500001,50.650002,5.6500001C50.650002,5.6500001,50.299999,5.3000002,50.299999,5.3000002C50.299999,5.3000002,49.900002,5,49.900002,5C49.900002,5,49.5,4.6999998,49.5,4.6999998C49.5,4.6999998,49.099998,4.4000001,49.099998,4.4000001C49.099998,4.4000001,48.700001,4.0999999,48.700001,4.0999999C48.700001,4.0999999,48.25,3.8499999,48.25,3.8499999C48.25,3.8499999,47.849998,3.5999999,47.849998,3.5999999C47.849998,3.5999999,47.349998,3.3499999,47.349998,3.3499999C47.349998,3.3499999,46.900002,3.1500001,46.900002,3.1500001C46.900002,3.1500001,46.450001,2.95,46.450001,2.95C46.450001,2.95,45.950001,2.75,45.950001,2.75C45.950001,2.75,45.450001,2.5999999,45.450001,2.5999999C45.450001,2.5999999,45,2.5,45,2.5C45,2.5,44.5,2.3499999,44.5,2.3499999C44.5,2.3499999,43.950001,2.25,43.950001,2.25C43.950001,2.25,43.450001,2.1500001,43.450001,2.1500001C43.450001,2.1500001,42.950001,2.0999999,42.950001,2.0999999C42.950001,2.0999999,41.049999,2.0999999,41.049999,2.0999999C41.049999,2.0999999,40.25,2.1500001,40.25,2.1500001C40.25,2.1500001,39.5,2.3,39.5,2.3C39.5,2.3,38.700001,2.5,38.700001,2.5C38.700001,2.5,38,2.7,38,2.7C38,2.7,37.25,2.95,37.25,2.95C37.25,2.95,36.549999,3.25,36.549999,3.25C36.549999,3.25,35.9,3.5999999,35.9,3.5999999C35.9,3.5999999,35.450001,3.2,35.450001,3.2C35.450001,3.2,35,2.8,35,2.8C35,2.8,34.549999,2.45,34.549999,2.45C34.549999,2.45,34.049999,2.0999999,34.049999,2.0999999C34.049999,2.0999999,33.5,1.75,33.5,1.75C33.5,1.75,33,1.45,33,1.45C33,1.45,32.450001,1.2,32.450001,1.2C32.450001,1.2,31.9,0.950001,31.9,0.950001C31.9,0.950001,31.35,0.75,31.35,0.75C31.35,0.75,30.799999,0.549999,30.799999,0.549999C30.799999,0.549999,30.200001,0.34999999,30.200001,0.34999999C30.200001,0.34999999,29.549999,0.25,29.549999,0.25C29.549999,0.25,28.950001,0.15000001,28.950001,0.15000001C28.950001,0.15000001,28.35,0.0499992,28.35,0.0499992C28.35,0.0499992,27.75,0.0499992,27.75,0.0499992C27.75,0.0499992,27.15,0,27.15,0C27.15,0,27,0,27,0C27,0,27,0,27,0Z" fill="#F7C700" fill-opacity="1"/></svg>