<svg xmlns="http://www.w3.org/2000/svg" xmlns:xlink="http://www.w3.org/1999/xlink" fill="none" version="1.1" width="84.45556640625" height="84.833984375" viewBox="0 0 84.45556640625 84.833984375"><path d="M40.401131639208984,0.072033301C40.401131639208984,0.072033301,46.65113143920898,-0.877967,52.151130439208984,4.1220298C52.151130439208984,4.1220298,82.40113043920898,33.372002,82.40113043920898,33.372002C82.40113043920898,33.372002,68.25113343920899,28.122,51.901130439208984,27.322001C35.601131439208984,26.521999,32.851131439208984,26.972,32.851131439208984,26.972C32.851131439208984,26.972,40.401131639208984,0.072033301,40.401131639208984,0.072033301C40.401131639208984,0.072033301,40.401131639208984,0.072033301,40.401131639208984,0.072033301C40.401131639208984,0.072033301,40.401131639208984,0.072033301,40.401131639208984,0.072033301Z" fill="#FFAD19" fill-opacity="1"/><path d="M2.751079559326172,32.22151967578125C20.601079559326173,14.77151767578125,30.251079559326172,5.32153747578125,31.751079559326172,4.021537775781249C34.00107955932617,2.02153767578125,37.50107955932617,0.021536074781249998,40.40108155932617,0.07153606118125C40.40108155932617,0.07153606118125,32.85107955932617,26.97151767578125,32.85107955932617,26.97151767578125C32.85107955932617,26.97151767578125,11.851079959326173,27.47151767578125,2.751079559326172,32.22151967578125C2.751079559326172,32.22151967578125,2.751079559326172,32.22151967578125,2.751079559326172,32.22151967578125Z" fill="#FF962D" fill-opacity="1"/><path d="M32.851295,26.9716796875C32.851295,26.9716796875,25.451296,51.4216806875,25.451296,51.4216806875C25.451296,51.4216806875,8.0513268,47.0716796875,1.7013265,39.8716796875C-4.5986733,32.6716794875,8.5013161,29.9216796875,10.201297,29.5716795875C11.901297,29.2716796875,20.551296,27.3216796775,32.851295,26.9716796875C32.851295,26.9716796875,32.851295,26.9716796875,32.851295,26.9716796875C32.851295,26.9716796875,32.851295,26.9716796875,32.851295,26.9716796875Z" fill="#E16421" fill-opacity="1"/><path d="M82.40116906030273,51.4208984375C82.40116906030273,51.4208984375,52.351167660302735,80.8208984375,52.351167660302735,80.8208984375C52.351167660302735,80.8208984375,46.601168160302734,84.7708964375,43.701168060302734,84.7708964375C43.701168060302734,84.7708964375,51.251168260302734,57.8208985375,51.251168260302734,57.8208985375C51.301167960302735,57.8208985375,73.30116806030273,56.1708984375,82.40116906030273,51.4208984375C82.40116906030273,51.4208984375,82.40116906030273,51.4208984375,82.40116906030273,51.4208984375C82.40116906030273,51.4208984375,82.40116906030273,51.4208984375,82.40116906030273,51.4208984375Z" fill="#187DC0" fill-opacity="1"/><path d="M51.301204681396484,57.821051025390624C51.301204681396484,57.821051025390624,57.65121458139649,34.671051025390625,57.65121458139649,34.671051025390625C57.65121458139649,34.671051025390625,76.25120568139648,37.321051125390625,82.75120568139648,44.62106132539063C89.25120568139648,51.921051025390625,75.25120568139648,54.171051025390625,72.60120368139648,54.771051025390626C70.00120568139648,55.421051025390625,62.60120468139648,56.971050025390625,51.301204681396484,57.821051025390624C51.301204681396484,57.821051025390624,51.301204681396484,57.821051025390624,51.301204681396484,57.821051025390624Z" fill="#0B5AA4" fill-opacity="1"/><path d="M31.951183319091797,80.6708984375C28.251182319091797,77.3208984375,18.201183319091797,67.5708984375,1.7011833190917969,51.4208984375C1.7011833190917969,51.4208984375,15.851183319091797,56.6708984375,32.2011833190918,57.4708986375C48.5011823190918,58.2708983375,51.2511823190918,57.8208985375,51.2511823190918,57.8208985375C51.2511823190918,57.8208985375,43.7011833190918,84.7708964375,43.7011833190918,84.7708964375C43.7511823190918,84.7708964375,37.5011823190918,85.6708984375,31.951183319091797,80.6708984375C31.951183319091797,80.6708984375,31.951183319091797,80.6708984375,31.951183319091797,80.6708984375C31.951183319091797,80.6708984375,31.951183319091797,80.6708984375,31.951183319091797,80.6708984375Z" fill="#1F8FCE" fill-opacity="1"/></svg>