<svg xmlns="http://www.w3.org/2000/svg" xmlns:xlink="http://www.w3.org/1999/xlink" fill="none" version="1.1" width="85" height="84.962158203125" viewBox="0 0 85 84.962158203125"><defs><linearGradient x1="0" y1="0.9756332635879517" x2="0.9512665271759033" y2="0.9756332635879517" id="master_svg0_0_3124"><stop offset="0%" stop-color="#FFD300" stop-opacity="1"/><stop offset="100%" stop-color="#FFB500" stop-opacity="1"/></linearGradient><linearGradient x1="0.5" y1="-0.5" x2="-0.6896783535225166" y2="-0.1560248976364682" id="master_svg1_0_3127"><stop offset="0%" stop-color="#FFD500" stop-opacity="1"/><stop offset="100%" stop-color="#E9B000" stop-opacity="1"/></linearGradient><linearGradient x1="0.4934292137622833" y1="-0.24269221723079681" x2="-0.11694167180514951" y2="0.5187606313302239" id="master_svg2_0_3130"><stop offset="0%" stop-color="#FED800" stop-opacity="1"/><stop offset="100%" stop-color="#FAB000" stop-opacity="1"/></linearGradient></defs><path d="M-9.094947017729282e-13,9.969282150268555C-9.094947017729282e-13,9.969282150268555,74.98760199999909,9.969282150268555,74.98760199999909,9.969282150268555C74.98760199999909,9.969282150268555,74.98760199999909,84.96227815026856,74.98760199999909,84.96227815026856C74.98760199999909,84.96227815026856,-9.094947017729282e-13,84.96227815026856,-9.094947017729282e-13,84.96227815026856C-9.094947017729282e-13,84.96227815026856,-9.094947017729282e-13,9.969282150268555,-9.094947017729282e-13,9.969282150268555C-9.094947017729282e-13,9.969282150268555,-9.094947017729282e-13,9.969282150268555,-9.094947017729282e-13,9.969282150268555Z" fill-rule="evenodd" fill="#005C9C" fill-opacity="1"/><path d="M18.6344885735,10.818603515625C18.2704510725,17.767673515625,23.9993238625,27.851503515625,35.382864062500005,33.902603515625C37.3702640625,29.272603515625,39.1499630625,28.235803515625,41.3814640625,27.180103515625C50.5241640625,31.874803515625,55.6327630625,39.572202515625,55.6907650625,40.688503515625C56.5172650625,36.461704515625,57.1226650625,23.011203515625,45.2806640625,10.818603515625C45.2806640625,10.818603515625,18.6344885735,10.818603515625,18.6344885735,10.818603515625Z" fill-rule="evenodd" fill="#10417C" fill-opacity="1"/><path d="M74.9890171875,52.8476C72.7090191875,49.8166099,69.8399181875,47.1874499,66.3330171875,45.9133201C64.38071818750001,45.25806,59.857218187499996,42.13003302,57.4343171875,42.692268625C61.7300181875,44.4544801,67.0543171875,53.969300000000004,66.9829181875,58.1881C60.7969171875,60.249599,48.2727279875,58.440200000000004,44.2750577875,51.6435404C42.3685839075,48.8808999,42.9146388775,47.1227398,46.0615379875,45.4994001C40.0360478875,46.7951002,42.1164539561,51.021980299999996,44.4624678875,55.594C49.1922578875,64.766399,62.8773171875,73.000401,74.9890171875,69.7901C74.9890171875,69.7901,74.9890171875,52.8476,74.9890171875,52.8476Z" fill-rule="evenodd" fill="#10417C" fill-opacity="1"/><path d="M45.8909869375,41.10245669125C29.3663859375,37.11017963125,12.3833761375,50.84247053125,4.6630859375,81.06566953125C19.9836859375,87.40256853125,34.2592869375,79.48546953125,39.1656879375,72.68737053125C36.6066859375,75.90166853125001,35.8691859375,68.72346853125,29.5133859375,64.76626953125C31.5883869375,50.74267053125,40.1121859375,42.45073963125,49.4558869375,43.55902983125C51.5132869375,43.24083973125,54.7882839375,43.86508963125,54.3622859375,44.66732983125C51.1991839375,41.19144273125,57.9810869375,44.02823973125,45.8909869375,41.10245669125Z" fill-rule="evenodd" fill="#10417C" fill-opacity="1"/><path d="M45.2807619375,37.715458275625C28.7601609375,33.717789215625,4.0097109374999995,43.424099415625,2.7099609375,75.306980515625C27.9094599375,86.78367951562501,44.5243609375,74.453578515625,46.0613589375,60.630878515625C42.9846609375,63.020078515625,31.7237609375,65.208379515625,25.3813609375,61.241680515625C26.7512609375,47.280179515625,38.3869589375,42.091999015625,45.0151599375,42.755349115625C52.3444599375,43.490169015625,54.8117599375,47.332778515625,52.3444599375,50.872078515625C57.9802629375,46.948479515624996,57.3762629375,40.635849215625,45.2807619375,37.715458275625Z" fill-rule="evenodd" fill="url(#master_svg0_0_3124)" fill-opacity="1"/><path d="M43.011825775,54.679682031249996C51.930786375,67.12568303124999,72.973486375,68.45778303125,85.000187375,56.433782031250004C82.77008437500001,50.06582163125,75.72938537499999,42.34553203125,67.193386375,41.16308547525C65.142585375,40.93118007125,59.497285375000004,41.69970310125,57.234886375,42.75541213125C63.259086374999995,42.88215203125,68.350185375,47.29374213125,69.160486375,51.43028203125C63.542186375,54.74298203125,52.149186375,57.183382031250005,46.823435775,51.37498203125C44.376295775,49.07887223125,44.543485875,47.24520203125,47.280505675,44.998962131249996C39.359315875,45.697371931250004,40.215482835,50.77906223125,43.011825775,54.679682031249996Z" fill-rule="evenodd" fill="url(#master_svg1_0_3127)" fill-opacity="1"/><path d="M32.6281213845459,0C23.9990853645459,6.0201001,18.291791484545897,24.4876,35.3827012845459,33.902699C34.703101284545895,28.161699,38.019901284545895,23.9874,39.722801284545895,22.260201C48.7509022845459,26.3738,53.0304012845459,31.8748,54.9369012845459,37.317902C55.330600284545895,38.505699,56.1705012845459,41.734798,56.2757012845459,42.853901C57.1844992845459,37.0522,65.5155012845459,11.0735,32.6281213845459,0Z" fill-rule="evenodd" fill="url(#master_svg2_0_3130)" fill-opacity="1"/></svg>