<svg xmlns="http://www.w3.org/2000/svg" xmlns:xlink="http://www.w3.org/1999/xlink" fill="none" version="1.1" width="85" height="54" viewBox="0 0 85 54"><path d="M84.990997,26.7215C84.990997,15.8275,70.225502,7,52.012501,7C37.435001,7,25.064501,12.6635,20.716499,20.507C20.716499,20.507,20.716499,20.497999,20.716499,20.497999C20.3125,21.23,20.087,22.023001,20.087,22.8505C20.087,24.807501,21.321501,26.546,23.2505,27.684C23.2505,27.684,39.966999,37.330502,39.966999,37.330502C40.834,37.801998,41.864498,38.082001,42.978001,38.082001C44.092999,38.082001,45.1255,37.801998,45.988998,37.335999C45.988998,37.335999,61.845001,28.174999,61.845001,28.174999C62.917999,27.559999,63.595001,26.589001,63.595001,25.509501C63.595001,24.4615,62.953499,23.5275,61.942501,22.9035C61.942501,22.9035,56.049999,19.4965,56.049999,19.4965C56.049999,19.4965,42.978001,27.039,42.978001,27.039C42.978001,27.039,33.0905,21.326,33.0905,21.326C36.91,17.889,44.022499,15.572,52.179001,15.572C64.366501,15.572,74.244003,20.744499,74.244003,27.127501C73.984497,37.011501,59.485001,44.658501,41.875,44.201C24.250999,43.738499,10.18,35.34,10.441,25.461C10.441,25.461,10.4355,25.461,10.4355,25.461C10.558,12.4275,27.652,2.0225,48.6045,2.2260001C50.473499,2.2474999,52.303501,2.3485,54.0905,2.5274999C49.7925,0.94300002,44.421501,0,38.578499,0C33.915001,0,29.542,0.60600102,25.783001,1.65C10.6215,5.8130002,0,15.4715,0,26.722C0,41.786499,19.027,54,42.499001,54C65.971497,54,85,41.786999,85,26.7215C85,26.7215,84.990997,26.7215,84.990997,26.7215C84.990997,26.7215,84.990997,26.7215,84.990997,26.7215Z" fill="#004785" fill-opacity="1"/></svg>