<svg xmlns="http://www.w3.org/2000/svg" xmlns:xlink="http://www.w3.org/1999/xlink" fill="none" version="1.1" width="112.5498046875" height="38.456298828125" viewBox="0 0 112.5498046875 38.456298828125"><path d="M0,19.237590552734375C0,26.137592552734375,3.6500001,32.487590552734375,9.6000004,35.887592552734375C15.55,39.287589552734374,22.9,39.337593552734376,28.85,35.887592552734375C34.799999,32.437591552734375,38.5,26.137592552734375,38.5,19.237590552734375C38.5,12.337591552734375,34.849998,6.037591452734375,28.9,2.587591652734375C22.950001,-0.862408457265625,15.6,-0.862408457265625,9.6499996,2.587591652734375C3.7,6.037591452734375,0,12.387591552734374,0,19.237590552734375C0,19.237590552734375,0,19.237590552734375,0,19.237590552734375Z" fill="#ED9F2D" fill-opacity="1"/><path d="M42.94997744238282,16.33797215258789C45.14997844238281,17.08797215258789,46.999977442382814,18.58797215258789,46.999977442382814,20.43797315258789C46.999977442382814,22.28797315258789,45.499977442382814,23.78797315258789,42.94997744238282,24.53797315258789C42.94997744238282,24.53797315258789,42.94997744238282,16.33797215258789,42.94997744238282,16.33797215258789C42.94997744238282,16.33797215258789,42.94997744238282,16.33797215258789,42.94997744238282,16.33797215258789ZM22.64997844238281,11.888012852587892C20.45001884238281,6.28801080258789,26.699978442382815,4.438012852587891,27.099978442382813,7.438012852587891C27.449978442382815,4.438012852587891,34.09997744238281,6.338010822587891,31.549978442382812,11.888012852587892C31.549978442382812,11.888012852587892,27.099978442382813,19.68797315258789,27.099978442382813,19.68797315258789C27.099978442382813,19.68797315258789,22.64997844238281,11.888012852587892,22.64997844238281,11.888012852587892C22.64997844238281,11.888012852587892,22.64997844238281,11.888012852587892,22.64997844238281,11.888012852587892ZM22.64997844238281,28.63807315258789C20.45001884238281,34.23807315258789,26.699978442382815,36.08807415258789,27.099978442382813,33.087972152587895C27.449978442382815,36.08807415258789,34.09997744238281,34.18807215258789,31.549978442382812,28.63807315258789C31.549978442382812,28.63807315258789,27.049978442382812,20.83797215258789,27.049978442382812,20.83797215258789C27.049978442382812,20.83797215258789,22.64997844238281,28.63807315258789,22.64997844238281,28.63807315258789C22.64997844238281,28.63807315258789,22.64997844238281,28.63807315258789,22.64997844238281,28.63807315258789C22.64997844238281,28.63807315258789,22.64997844238281,28.63807315258789,22.64997844238281,28.63807315258789ZM38.14997844238282,15.58801265258789C38.89997844238282,15.58801265258789,39.64997844238282,15.58801265258789,40.74997944238281,15.938013052587891C40.74997944238281,15.938013052587891,40.74997944238281,25.23797215258789,40.74997944238281,25.23797215258789C39.99997944238281,25.23797215258789,39.24997944238281,25.58797215258789,38.14997844238282,25.58797215258789C38.14997844238282,25.58797215258789,38.14997844238282,15.58801265258789,38.14997844238282,15.58801265258789C38.14997844238282,15.58801265258789,38.14997844238282,15.58801265258789,38.14997844238282,15.58801265258789ZM36.29997844238281,25.28797315258789C35.54997844238281,25.28797315258789,34.79997844238281,24.93797315258789,34.09997744238281,24.93797315258789C34.09997744238281,24.93797315258789,34.09997744238281,15.98801325258789,34.09997744238281,15.98801325258789C34.84997744238281,15.63801285258789,35.59997744238281,15.63801285258789,36.29997844238281,15.63801285258789C36.29997844238281,15.63801285258789,36.29997844238281,25.28797315258789,36.29997844238281,25.28797315258789C36.29997844238281,25.28797315258789,36.29997844238281,25.28797315258789,36.29997844238281,25.28797315258789ZM32.59997744238281,24.18797315258789C32.59997744238281,24.18797315258789,32.59997744238281,16.73797315258789,32.59997744238281,16.73797315258789C30.749979442382813,17.48797315258789,29.649978442382814,18.98797315258789,29.649978442382814,20.43797315258789C29.649978442382814,21.93797315258789,30.749979442382813,23.43797315258789,32.59997744238281,24.18797315258789C32.59997744238281,24.18797315258789,32.59997744238281,24.18797315258789,32.59997744238281,24.18797315258789ZM21.500018142382814,17.08797215258789C20.40001864238281,17.08797215258789,19.300018342382813,17.83797215258789,18.550018342382813,19.33797215258789C16.000018642382813,18.58797215258789,11.900021432382813,14.13801285258789,11.900021432382813,14.13801285258789C11.900021432382813,14.13801285258789,11.550021022382813,14.13801285258789,11.550021022382813,14.13801285258789C11.200021412382812,14.13801285258789,13.050018442382813,15.98801325258789,15.250018342382813,17.83797215258789C16.350018542382813,18.58797215258789,17.850018542382813,19.68797315258789,18.550018342382813,20.08797215258789C18.550018342382813,20.08797215258789,18.550018342382813,21.18797315258789,18.550018342382813,21.18797315258789C17.800018342382813,21.53797215258789,16.700018442382813,22.28797315258789,15.250018342382813,23.43797315258789C13.050018442382813,25.28797315258789,11.200021412382812,27.13807315258789,11.550021022382813,27.13807315258789C11.550021022382813,27.13807315258789,11.900021432382813,27.13807315258789,11.900021432382813,27.13807315258789C11.900021432382813,27.13807315258789,15.950018442382813,22.68797315258789,18.550018342382813,21.93797315258789C18.900018242382814,23.03797315258789,20.050018342382813,23.78797315258789,21.15001864238281,23.78797315258789C22.64997844238281,23.78797315258789,24.099978442382813,22.28797315258789,24.099978442382813,20.43797315258789C24.449978442382815,18.58797215258789,23.349978442382813,17.08797215258789,21.500018142382814,17.08797215258789C21.500018142382814,17.08797215258789,21.500018142382814,17.08797215258789,21.500018142382814,17.08797215258789C21.500018142382814,17.08797215258789,21.500018142382814,17.08797215258789,21.500018142382814,17.08797215258789Z" fill="#FFFFFF" fill-opacity="1"/><path d="M61.75,28.888189697265624C60.25,28.888189697265624,59.799999,28.338189697265626,59.65,27.588189697265626C59.5,26.838189697265626,59.799999,25.988189697265625,60.35,25.588189697265626C60.9,25.188190697265625,61.65,25.088189697265626,62.5,25.088189697265626C63.35,25.088189697265626,64.700001,24.838189697265626,64.700001,24.088189697265626C64.700001,24.088189697265626,64.700001,26.288188697265625,64.700001,26.288188697265625C64.700001,28.138189697265624,64,28.888189697265624,61.75,28.888189697265624C61.75,28.888189697265624,61.75,28.888189697265624,61.75,28.888189697265624C61.75,28.888189697265624,61.75,28.888189697265624,61.75,28.888189697265624ZM62.5,12.938189497265626C57.299999,13.288189897265624,54.35,14.788189897265624,54,17.738189697265625C54,19.238189697265625,54.75,20.338189697265626,56.200001,20.338189697265626C56.950001,20.338189697265626,57.700001,19.988189697265625,58.799999,19.238189697265625C59.9,18.138189697265624,61,17.738189697265625,62.15,17.738189697265625C64,17.738189697265625,64.75,18.488189697265625,64.75,19.588189697265626C64.75,20.688189697265624,63.65,21.438189697265624,61.049999,21.438189697265624C55.1,21.788188697265625,52.15,24.038188697265625,52.15,27.388189697265624C52.15,31.088189697265626,54.35,32.938190697265625,58.799999,32.938190697265625C61.75,32.938190697265625,64,32.188190697265625,65.099998,30.338189697265626C65.450001,32.188190697265625,66.599998,32.938190697265625,68.450001,32.938190697265625C70.650002,32.938190697265625,71.799999,32.188190697265625,71.799999,30.738189697265625C71.799999,30.738189697265625,71.799999,18.488189697265625,71.799999,18.488189697265625C71.75,14.788189897265624,68.450001,12.938189497265626,62.5,12.938189497265626C62.5,12.938189497265626,62.5,12.938189497265626,62.5,12.938189497265626C62.5,12.938189497265626,62.5,12.938189497265626,62.5,12.938189497265626ZM88.450001,32.938190697265625C90.650002,32.938190697265625,91.799999,31.838189697265626,91.799999,29.588189697265626C91.799999,29.588189697265626,91.799999,20.338189697265626,91.799999,20.338189697265626C91.799999,15.538189697265626,89.599998,12.938189497265626,85.5,12.938189497265626C82.900002,12.938189497265626,81.049999,14.038189897265624,79.950001,16.638189697265624C79.599998,14.038189897265624,78.849998,12.938189497265626,77,12.938189497265626C74.799999,12.938189497265626,74.049999,14.038189897265624,74.049999,16.638189697265624C74.049999,16.638189697265624,74.049999,29.638189697265624,74.049999,29.638189697265624C74.049999,31.838189697265626,75.150002,32.988189697265625,77.400002,32.988189697265625C79.599998,32.988189697265625,80.75,31.888189697265624,80.75,29.638189697265624C80.75,29.638189697265624,80.75,22.938190697265625,80.75,22.938190697265625C80.75,20.338189697265626,81.5,19.238189697265625,82.950001,19.238189697265625C84.400002,19.238189697265625,85.549999,20.338189697265626,85.549999,22.588189697265626C85.549999,22.588189697265626,85.549999,29.638189697265624,85.549999,29.638189697265624C85.450001,31.838189697265626,86.200001,32.938190697265625,88.450001,32.938190697265625C88.450001,32.938190697265625,88.450001,32.938190697265625,88.450001,32.938190697265625C88.450001,32.938190697265625,88.450001,32.938190697265625,88.450001,32.938190697265625ZM102.150002,9.588189597265625C102.150002,6.988189697265625,101.050003,5.488189697265625,99.199997,5.488189697265625C97,5.488189697265625,95.849998,6.988189697265625,95.849998,9.588189597265625C95.849998,9.588189597265625,95.849998,29.588189697265626,95.849998,29.588189697265626C95.849998,31.788188697265625,96.949997,32.938190697265625,99.199997,32.938190697265625C101.449997,32.938190697265625,102.150002,31.838189697265626,102.150002,29.588189697265626C102.150002,29.588189697265626,102.150002,27.738189697265625,102.150002,27.738189697265625C102.150002,27.738189697265625,103.650002,26.238189697265625,103.650002,26.238189697265625C103.650002,26.238189697265625,105.5,29.938190697265625,105.5,29.938190697265625C106.25,31.438190697265625,107,32.138189697265624,107.349998,32.538188697265625C107.699997,32.888189697265624,108.449997,32.888189697265624,109.199997,32.888189697265624C111.400002,32.888189697265624,112.550003,31.788188697265625,112.550003,29.938190697265625C112.550003,29.188190697265625,112.199997,28.088189697265626,111.449997,26.588189697265626C111.449997,26.588189697265626,108.099998,21.388189697265624,108.099998,21.388189697265624C108.099998,21.388189697265624,110.300003,18.788189697265626,110.300003,18.788189697265626C111.050003,18.038189697265626,111.400002,17.288189697265626,111.400002,16.188189697265624C111.400002,14.338190097265626,110.300003,13.238189697265625,108.449997,12.838189597265625C107.349998,12.838189597265625,106.599998,13.188189497265626,105.849998,14.338190097265626C105.849998,14.338190097265626,102.150002,19.888189697265624,102.150002,19.888189697265624C102.150002,19.888189697265624,102.150002,9.588189597265625,102.150002,9.588189597265625C102.150002,9.588189597265625,102.150002,9.588189597265625,102.150002,9.588189597265625C102.150002,9.588189597265625,102.150002,9.588189597265625,102.150002,9.588189597265625ZM51,27.038188697265625C51,23.338189697265626,49.5,20.738189697265625,46.95,19.988189697265625C49.15,19.238189697265625,51,15.888189697265625,51,12.938189497265626C51,5.888186697265625,44.35,6.288188697265625,43.6,6.288188697265625C43.6,6.288188697265625,32.5,6.288188697265625,32.5,6.288188697265625C32.5,6.288188697265625,32.5,32.988189697265625,32.5,32.988189697265625C32.5,32.988189697265625,43.6,32.988189697265625,43.6,32.988189697265625C44,32.938190697265625,51,34.038188697265625,51,27.038188697265625C51,27.038188697265625,51,27.038188697265625,51,27.038188697265625ZM42.5,15.888189697265625C44.7,16.638189697265624,46.55,18.088189697265626,46.55,19.988189697265625C46.55,21.838189697265626,45.05,23.338189697265626,42.5,24.088189697265626C42.5,24.088189697265626,42.5,15.888189697265625,42.5,15.888189697265625C42.5,15.888189697265625,42.5,15.888189697265625,42.5,15.888189697265625C42.5,15.888189697265625,42.5,15.888189697265625,42.5,15.888189697265625ZM40.3000002,15.538189697265626C40.3000002,15.538189697265626,40.3000002,24.788188697265625,40.3000002,24.788188697265625C39.6500001,25.038188697265625,38.8000002,25.138189697265624,37.6999998,25.138189697265624C37.6999998,25.138189697265624,37.6999998,15.138189297265624,37.6999998,15.138189297265624C38.4499998,15.138189297265624,39.1500001,15.138189297265624,40.3000002,15.538189697265626C40.3000002,15.538189697265626,40.3000002,15.538189697265626,40.3000002,15.538189697265626C40.3000002,15.538189697265626,40.3000002,15.538189697265626,40.3000002,15.538189697265626ZM35.8499999,24.788188697265625C35.0999999,24.788188697265625,34.3,24.588189697265626,33.65,24.438190697265625C33.65,24.438190697265625,33.65,15.538189697265626,33.65,15.538189697265626C34.4,15.188189497265626,35.1500001,15.188189497265626,35.8499999,15.188189497265626C35.8499999,15.188189497265626,35.8499999,24.788188697265625,35.8499999,24.788188697265625C35.8499999,24.788188697265625,35.8499999,24.788188697265625,35.8499999,24.788188697265625Z" fill="#009844" fill-opacity="1"/></svg>