<svg xmlns="http://www.w3.org/2000/svg" xmlns:xlink="http://www.w3.org/1999/xlink" fill="none" version="1.1" width="84.0498046875" height="84.050048828125" viewBox="0 0 84.0498046875 84.050048828125"><path d="M1.75,80.60003662109375C2.2,80.60003662109375,2.6500001,80.55003642109375,2.95,80.30003642109375C3.1500001,80.10003662109375,3.2,79.85003662109375,3.2,79.50003672109375C3.2,79.15003682109375,3.0999999,78.90003682109375,2.95,78.70003652109375C2.6500001,78.45003652109375,2.2,78.40003682109375,1.8,78.40003682109375C1.8,78.40003682109375,1.3,78.40003682109375,1.3,78.40003682109375C1.3,78.40003682109375,1.3,80.60003662109375,1.3,80.60003662109375C1.3,80.60003662109375,1.75,80.60003662109375,1.75,80.60003662109375C1.75,80.60003662109375,1.75,80.60003662109375,1.75,80.60003662109375C1.75,80.60003662109375,1.75,80.60003662109375,1.75,80.60003662109375ZM1.3,75.40003662109375C1.3,75.40003662109375,1.3,77.45003652109375,1.3,77.45003652109375C1.3,77.45003652109375,1.75,77.45003652109375,1.75,77.45003652109375C2.05,77.45003652109375,2.45,77.40003662109375,2.75,77.15003662109375C2.95,76.95003652109375,3,76.70003652109375,3,76.35003662109375C3,76.05003662109375,2.9000001,75.85003662109375,2.75,75.65003662109375C2.55,75.45003662109374,2.25,75.35003662109375,1.85,75.35003662109375C1.85,75.35003662109375,1.3,75.35003662109375,1.3,75.35003662109375C1.3,75.35003662109375,1.3,75.40003662109375,1.3,75.40003662109375C1.3,75.40003662109375,1.3,75.40003662109375,1.3,75.40003662109375ZM1.0338332e-17,81.35003662109375C1.0338332e-17,81.35003662109375,1.0338332e-17,74.60003662109375,1.0338332e-17,74.60003662109375C1.0338332e-17,74.50003660109375,-3.8742999e-7,74.45003462109375,0.15000001,74.45003462109375C0.15000001,74.45003462109375,1.85,74.45003462109375,1.85,74.45003462109375C2.5,74.45003462109375,3.3499999,74.50003862109375,3.8499999,75.00003662109376C4.1500001,75.30003662109375,4.3000002,75.70003662109374,4.3000002,76.20003652109375C4.3000002,77.20003652109375,3.6500001,77.50003672109375,3.25,77.70003652109375C3.25,77.70003652109375,3.05,77.80003662109375,3.05,77.80003662109375C3.05,77.80003662109375,3.3,77.85003662109375,3.3,77.85003662109375C3.9000001,78.00003672109375,4.5999999,78.40003682109375,4.5999999,79.50003672109375C4.5999999,81.20003652109375,3.3499999,81.45003652109375,2,81.45003652109375C2,81.45003652109375,0.15000001,81.45003652109375,0.15000001,81.45003652109375C-3.8742999e-7,81.50003672109375,1.0338332e-17,81.50003672109375,1.0338332e-17,81.35003662109375C1.0338332e-17,81.35003662109375,1.0338332e-17,81.35003662109375,1.0338332e-17,81.35003662109375C1.0338332e-17,81.35003662109375,1.0338332e-17,81.35003662109375,1.0338332e-17,81.35003662109375ZM7.6999998,80.20003652109375C7.6999998,80.20003652109375,7.6999998,78.90003682109375,7.6999998,78.90003682109375C7.6999998,78.90003682109375,7.5500002,78.90003682109375,7.5500002,78.90003682109375C7.3000002,78.90003682109375,6.6500001,78.90003682109375,6.3000002,79.25003672109375C6.1500001,79.40003682109375,6.0500002,79.60003662109375,6.0500002,79.85003662109375C6.0500002,80.10003662109375,6.1500001,80.30003642109375,6.25,80.45003652109375C6.4000001,80.60003662109375,6.5999999,80.70003652109375,6.8000002,80.70003652109375C7.25,80.70003652109375,7.5999999,80.35003662109375,7.6999998,80.20003652109375C7.6999998,80.20003652109375,7.6999998,80.20003652109375,7.6999998,80.20003652109375C7.6999998,80.20003652109375,7.6999998,80.20003652109375,7.6999998,80.20003652109375ZM9,81.15003682109375C9,81.15003682109375,8.1999998,81.50003672109375,8.1999998,81.50003672109375C8.1000004,81.55003642109375,8.1000004,81.55003642109375,8.0500002,81.50003672109375C8.0500002,81.45003652109375,7.9000001,81.25003672109375,7.8499999,81.00003672109375C7.8499999,81.00003672109375,7.8000002,80.85003662109375,7.8000002,80.85003662109375C7.8000002,80.85003662109375,7.6500001,81.00003672109375,7.6500001,81.00003672109375C7.4499998,81.20003652109375,7.0999999,81.60003662109375,6.4000001,81.60003662109375C5.9499998,81.60003662109375,5.5999999,81.45003652109375,5.3499999,81.20003652109375C5.0999999,80.90003682109375,4.9499998,80.50003672109375,4.9499998,80.05003642109375C4.9499998,79.60003662109375,5.0999999,79.20003652109375,5.3499999,78.90003682109375C5.9499998,78.30003642109375,7,78.30003642109375,7.5500002,78.30003642109375C7.5500002,78.30003642109375,7.6500001,78.30003642109375,7.6500001,78.30003642109375C7.6500001,78.30003642109375,7.6500001,77.90003682109375,7.6500001,77.90003682109375C7.6500001,77.60003662109375,7.5999999,77.35003662109375,7.4499998,77.20003652109375C7.3000002,77.05003662109375,7.0999999,77.00003672109375,6.8000002,77.00003672109375C6.4000001,77.00003672109375,6,77.15003662109375,5.75,77.25003672109375C5.6500001,77.30003662109375,5.5500002,77.30003662109375,5.5500002,77.30003662109375C5.5,77.30003662109375,5.5,77.25003672109375,5.5,77.25003672109375C5.5,77.25003672109375,5.3000002,76.55003662109375,5.3000002,76.55003662109375C5.25,76.45003652109375,5.25,76.45003652109375,5.3499999,76.40003662109375C5.5,76.30003662109375,6.1500001,76.05003662109375,7,76.05003662109375C7.5999999,76.05003662109375,8.0500002,76.20003652109375,8.3000002,76.45003652109375C8.5500002,76.70003652109375,8.6999998,77.10003662109375,8.6999998,77.65003662109375C8.6999998,77.65003662109375,8.6999998,79.75003672109375,8.6999998,79.75003672109375C8.6999998,80.50003672109375,8.8500004,80.80003642109375,8.8999996,81.00003672109375C9,81.05003642109375,9.0500002,81.10003662109375,9,81.15003682109375C9,81.15003682109375,9,81.15003682109375,9,81.15003682109375C9,81.15003682109375,9,81.15003682109375,9,81.15003682109375ZM17.25,78.75003672109375C17.25,78.75003672109375,17.25,81.30003642109375,17.25,81.30003642109375C17.25,81.35003662109375,17.25,81.35003662109375,17.200001,81.35003662109375C17.200001,81.35003662109375,16.1,81.35003662109375,16.1,81.35003662109375C16.049999,81.35003662109375,16.049999,81.35003662109375,16.049999,81.30003642109375C16.049999,81.30003642109375,16.049999,74.30004161109375,16.049999,74.30004161109375C16.049999,74.25004163109375,16.049999,74.25003463109375,16.15,74.20003462109375C16.15,74.20003462109375,17.1,74.00003862109375,17.1,74.00003862109375C17.25,73.95003862109375,17.25,73.95003662109374,17.25,74.10003662109375C17.25,74.10003662109375,17.25,78.40003682109375,17.25,78.40003682109375C17.25,78.40003682109375,19.549999,76.25003672109375,19.549999,76.25003672109375C19.65,76.15003662109375,19.65,76.15003662109375,19.75,76.25003672109375C19.75,76.25003672109375,20.299999,76.70003652109375,20.299999,76.70003652109375C20.35,76.75003672109375,20.35,76.75003672109375,20.25,76.85003662109375C20.25,76.85003662109375,18.4,78.55003642109375,18.4,78.55003642109375C18.4,78.55003642109375,20.450001,80.90003682109375,20.450001,80.90003682109375C20.549999,81.00003672109375,20.5,81.00003672109375,20.450001,81.05003642109375C20.25,81.15003682109375,19.6,81.50003672109375,19.6,81.50003672109375C19.549999,81.55003642109375,19.5,81.55003642109375,19.450001,81.45003652109375C19.450001,81.45003652109375,17.25,78.75003672109375,17.25,78.75003672109375C17.25,78.75003672109375,17.25,78.75003672109375,17.25,78.75003672109375ZM10.75,81.45003652109375C10.75,81.45003652109375,10.75,78.40003682109375,10.75,78.40003682109375C10.75,77.35003662109375,10.65,77.10003662109375,10.55,76.95003652109375C10.55,76.90003662109375,10.5,76.85003662109375,10.5,76.80003662109375C10.5,76.80003662109375,10.55,76.75003672109375,10.55,76.75003672109375C10.55,76.75003672109375,11.4,76.50003672109375,11.4,76.50003672109375C11.4,76.50003672109375,11.55,76.50003672109375,11.55,76.50003672109375C11.65,76.50003672109375,11.8,76.95003652109375,11.85,77.15003662109375C11.85,77.15003662109375,11.9,77.30003662109375,11.9,77.30003662109375C11.9,77.30003662109375,12,77.25003672109375,12.05,77.20003652109375C12.35,76.95003652109375,12.85,76.55003662109375,13.7,76.55003662109375C14,76.55003662109375,14.4,76.60003662109375,14.65,76.85003662109375C14.9,77.10003662109375,15.05,77.45003652109375,15.05,77.90003682109375C15.05,77.90003682109375,15.05,81.45003652109375,15.05,81.45003652109375C15.05,81.50003672109375,15.05,81.50003672109375,15,81.50003672109375C15,81.50003672109375,13.9,81.50003672109375,13.9,81.50003672109375C13.85,81.50003672109375,13.85,81.50003672109375,13.85,81.45003652109375C13.85,81.45003652109375,13.85,78.35003662109375,13.85,78.35003662109375C13.85,78.05003642109375,13.85,77.75003672109375,13.6,77.60003662109375C13.5,77.50003672109375,13.3,77.45003652109375,13.1,77.45003652109375C12.75,77.45003652109375,12.35,77.60003662109375,12,77.90003682109375C12,77.90003682109375,12,81.50003672109375,12,81.50003672109375C12,81.55003642109375,12,81.55003642109375,11.95,81.55003642109375C11.95,81.55003642109375,10.85,81.55003642109375,10.85,81.55003642109375C10.75,81.50003672109375,10.75,81.50003672109375,10.75,81.45003652109375C10.75,81.45003652109375,10.75,81.45003652109375,10.75,81.45003652109375C10.75,81.45003652109375,10.75,81.45003652109375,10.75,81.45003652109375ZM26.15,78.10003662109375C25.9,78.30003642109375,25.299999,78.70003652109375,25.299999,79.40003682109375C25.299999,79.70003652109375,25.4,80.00003672109375,25.65,80.20003652109375C25.85,80.40003682109375,26.200001,80.55003642109375,26.5,80.55003642109375C27.200001,80.55003642109375,27.65,80.10003662109375,27.75,79.95003652109375C27.75,79.95003652109375,27.799999,79.90003682109375,27.799999,79.90003682109375C27.799999,79.90003682109375,26.200001,78.05003642109375,26.200001,78.05003642109375C26.200001,78.05003642109375,26.15,78.10003662109375,26.15,78.10003662109375C26.15,78.10003662109375,26.15,78.10003662109375,26.15,78.10003662109375ZM26.549999,76.95003652109375C26.549999,76.95003652109375,26.700001,76.80003662109375,26.700001,76.80003662109375C26.950001,76.60003662109375,27.35,76.25003672109375,27.35,75.70003662109374C27.35,75.45003662109374,27.25,75.20003662109374,27.1,75.05003662109375C26.950001,74.90003662109375,26.75,74.85003662109375,26.549999,74.85003662109375C26.049999,74.85003662109375,25.700001,75.20003662109374,25.700001,75.70003662109374C25.700001,76.15003662109375,26.049999,76.50003672109375,26.299999,76.70003652109375C26.4,76.75003672109375,26.549999,76.90003662109375,26.549999,76.95003652109375C26.549999,76.95003652109375,26.549999,76.95003652109375,26.549999,76.95003652109375C26.549999,76.95003652109375,26.549999,76.95003652109375,26.549999,76.95003652109375ZM28.549999,80.65003682109375C28.549999,80.65003682109375,28.5,80.70003652109375,28.5,80.70003652109375C28.200001,81.00003672109375,27.65,81.45003652109375,26.450001,81.45003652109375C25.65,81.45003652109375,25,81.25003672109375,24.549999,80.80003642109375C24.200001,80.45003652109375,24.049999,80.05003642109375,24.049999,79.50003672109375C24.049999,78.35003662109375,25.049999,77.75003672109375,25.5,77.50003672109375C25.5,77.50003672109375,25.700001,77.40003662109375,25.700001,77.40003662109375C25.700001,77.40003662109375,25.5,77.20003652109375,25.5,77.20003652109375C25.200001,76.90003662109375,24.65,76.35003662109375,24.65,75.70003662109374C24.65,75.30003662109375,24.799999,74.90003662109375,25.15,74.60003662109375C25.549999,74.20003661109375,26.15,74.00003862109375,26.75,74.00003862109375C27.35,74.00003862109375,27.85,74.20003861109375,28.15,74.50003862109375C28.450001,74.80003863109376,28.6,75.15003662109375,28.6,75.60003662109375C28.6,76.45003652109375,27.75,77.05003662109375,27.35,77.35003662109375C27.299999,77.40003662109375,27.15,77.50003672109375,27.15,77.50003672109375C27.15,77.50003672109375,28.450001,79.00003672109375,28.450001,79.00003672109375C28.450001,79.00003672109375,28.5,78.90003682109375,28.5,78.90003682109375C28.75,78.40003682109375,28.799999,78.00003672109375,28.85,77.75003672109375C28.85,77.70003652109375,28.85,77.60003662109375,28.9,77.55003662109375C28.9,77.50003672109375,28.950001,77.50003672109375,29,77.55003662109375C29,77.55003662109375,29.799999,77.75003672109375,29.799999,77.75003672109375C29.85,77.75003672109375,29.85,77.80003662109375,29.85,77.85003662109375C29.85,78.50003672109375,29.35,79.50003672109375,29.200001,79.75003672109375C29.200001,79.75003672109375,29.15,79.80003642109375,29.15,79.80003642109375C29.15,79.80003642109375,30,80.80003642109375,30,80.80003642109375C30,80.80003642109375,30.049999,80.85003662109375,30.049999,80.85003662109375C30.049999,80.85003662109375,30,80.90003682109375,30,80.90003682109375C30,80.90003682109375,29.450001,81.35003662109375,29.450001,81.35003662109375C29.4,81.40003682109375,29.4,81.40003682109375,29.35,81.40003682109375C29.299999,81.40003682109375,29.299999,81.35003662109375,29.25,81.35003662109375C29.25,81.35003662109375,28.549999,80.65003682109375,28.549999,80.65003682109375C28.549999,80.65003682109375,28.549999,80.65003682109375,28.549999,80.65003682109375ZM39.75,78.20003652109375C39.75,78.20003652109375,41.700001,78.20003652109375,41.700001,78.20003652109375C41.700001,78.20003652109375,41.700001,78.10003662109375,41.700001,78.10003662109375C41.700001,77.70003652109375,41.650002,77.30003662109375,41.400002,77.00003672109375C41.25,76.85003662109375,41.049999,76.80003662109375,40.799999,76.80003662109375C39.900002,76.80003662109375,39.799999,77.70003652109375,39.75,78.05003642109375C39.75,78.05003642109375,39.75,78.20003652109375,39.75,78.20003652109375C39.75,78.20003652109375,39.75,78.20003652109375,39.75,78.20003652109375C39.75,78.20003652109375,39.75,78.20003652109375,39.75,78.20003652109375ZM42.849998,80.95003652109375C42.849998,81.10003662109375,41.900002,81.50003672109375,40.950001,81.50003672109375C40.200001,81.50003672109375,39.650002,81.30003642109375,39.25,80.90003682109375C38.799999,80.45003652109375,38.549999,79.75003672109375,38.549999,78.80003642109375C38.549999,77.85003662109375,38.849998,77.10003662109375,39.349998,76.60003662109375C39.75,76.20003652109375,40.299999,76.00003672109375,40.900002,76.00003672109375C41.5,76.00003672109375,41.950001,76.15003662109375,42.299999,76.50003672109375C42.799999,76.95003652109375,43,77.75003672109375,43,78.85003662109375C43,79.00003672109375,43,79.05003642109375,42.849998,79.05003642109375C42.849998,79.05003642109375,39.75,79.05003642109375,39.75,79.05003642109375C39.75,79.05003642109375,39.75,79.15003682109375,39.75,79.15003682109375C39.75,79.65003682109375,39.849998,80.00003672109375,40.099998,80.25003672109375C40.299999,80.45003652109375,40.650002,80.55003642109375,41.049999,80.55003642109375C41.650002,80.55003642109375,42.049999,80.35003662109375,42.299999,80.25003672109375C42.400002,80.20003652109375,42.450001,80.20003652109375,42.5,80.20003652109375C42.549999,80.20003652109375,42.549999,80.25003672109375,42.549999,80.25003672109375C42.549999,80.25003672109375,42.799999,80.85003662109375,42.799999,80.85003662109375C42.799999,80.90003682109375,42.849998,80.95003652109375,42.849998,80.95003652109375C42.849998,80.95003652109375,42.849998,80.95003652109375,42.849998,80.95003652109375C42.849998,80.95003652109375,42.849998,80.95003652109375,42.849998,80.95003652109375ZM52.75,78.20003652109375C52.75,78.20003652109375,54.700001,78.20003652109375,54.700001,78.20003652109375C54.700001,78.20003652109375,54.700001,78.10003662109375,54.700001,78.10003662109375C54.700001,77.70003652109375,54.650002,77.30003662109375,54.400002,77.00003672109375C54.25,76.85003662109375,54.049999,76.80003662109375,53.799999,76.80003662109375C52.900002,76.80003662109375,52.799999,77.70003652109375,52.75,78.05003642109375C52.75,78.05003642109375,52.75,78.20003652109375,52.75,78.20003652109375C52.75,78.20003652109375,52.75,78.20003652109375,52.75,78.20003652109375C52.75,78.20003652109375,52.75,78.20003652109375,52.75,78.20003652109375ZM55.849998,80.95003652109375C55.849998,81.10003662109375,54.900002,81.50003672109375,53.950001,81.50003672109375C53.200001,81.50003672109375,52.650002,81.30003642109375,52.25,80.90003682109375C51.799999,80.45003652109375,51.549999,79.75003672109375,51.549999,78.80003642109375C51.549999,77.85003662109375,51.849998,77.10003662109375,52.349998,76.60003662109375C52.75,76.20003652109375,53.299999,76.00003672109375,53.900002,76.00003672109375C54.5,76.00003672109375,54.950001,76.15003662109375,55.299999,76.50003672109375C55.799999,76.95003652109375,56.049999,77.75003672109375,56.049999,78.85003662109375C56.049999,79.00003672109375,56.049999,79.05003642109375,55.900002,79.05003642109375C55.900002,79.05003642109375,52.799999,79.05003642109375,52.799999,79.05003642109375C52.799999,79.05003642109375,52.799999,79.15003682109375,52.799999,79.15003682109375C52.799999,79.65003682109375,52.900002,80.00003672109375,53.150002,80.25003672109375C53.349998,80.45003652109375,53.700001,80.55003642109375,54.099998,80.55003642109375C54.700001,80.55003642109375,55.099998,80.35003662109375,55.349998,80.25003672109375C55.450001,80.20003652109375,55.5,80.20003652109375,55.5,80.20003652109375C55.549999,80.20003652109375,55.549999,80.25003672109375,55.549999,80.25003672109375C55.549999,80.25003672109375,55.799999,80.85003662109375,55.799999,80.85003662109375C55.799999,80.90003682109375,55.849998,80.95003652109375,55.849998,80.95003652109375C55.849998,80.95003652109375,55.849998,80.95003652109375,55.849998,80.95003652109375C55.849998,80.95003652109375,55.849998,80.95003652109375,55.849998,80.95003652109375ZM63.75,78.20003652109375C63.75,78.20003652109375,65.699997,78.20003652109375,65.699997,78.20003652109375C65.699997,78.20003652109375,65.699997,78.10003662109375,65.699997,78.10003662109375C65.699997,77.70003652109375,65.650002,77.30003662109375,65.400002,77.00003672109375C65.25,76.85003662109375,65.050003,76.80003662109375,64.800003,76.80003662109375C63.900002,76.80003662109375,63.799999,77.70003652109375,63.75,78.05003642109375C63.75,78.05003642109375,63.75,78.20003652109375,63.75,78.20003652109375C63.75,78.20003652109375,63.75,78.20003652109375,63.75,78.20003652109375C63.75,78.20003652109375,63.75,78.20003652109375,63.75,78.20003652109375ZM66.800003,80.95003652109375C66.800003,81.10003662109375,65.849998,81.50003672109375,64.900002,81.50003672109375C64.150002,81.50003672109375,63.599998,81.30003642109375,63.200001,80.90003682109375C62.75,80.45003652109375,62.5,79.75003672109375,62.5,78.80003642109375C62.5,77.85003662109375,62.799999,77.10003662109375,63.299999,76.60003662109375C63.700001,76.20003652109375,64.25,76.00003672109375,64.849998,76.00003672109375C65.449997,76.00003672109375,65.900002,76.15003662109375,66.25,76.50003672109375C66.75,76.95003652109375,67,77.75003672109375,67,78.85003662109375C67,79.00003672109375,67,79.05003642109375,66.849998,79.05003642109375C66.849998,79.05003642109375,63.75,79.05003642109375,63.75,79.05003642109375C63.75,79.05003642109375,63.75,79.15003682109375,63.75,79.15003682109375C63.75,79.65003682109375,63.849998,80.00003672109375,64.099998,80.25003672109375C64.300003,80.45003652109375,64.650002,80.55003642109375,65.050003,80.55003642109375C65.650002,80.55003642109375,66.050003,80.35003662109375,66.300003,80.25003672109375C66.400002,80.20003652109375,66.449997,80.20003652109375,66.5,80.20003652109375C66.550003,80.20003652109375,66.550003,80.25003672109375,66.550003,80.25003672109375C66.550003,80.25003672109375,66.800003,80.85003662109375,66.800003,80.85003662109375C66.800003,80.85003662109375,66.800003,80.95003652109375,66.800003,80.95003652109375C66.800003,80.95003652109375,66.800003,80.95003652109375,66.800003,80.95003652109375C66.800003,80.95003652109375,66.800003,80.95003652109375,66.800003,80.95003652109375ZM82.650002,80.40003682109375C82.650002,80.40003682109375,82.650002,77.80003662109375,82.650002,77.80003662109375C82.650002,77.80003662109375,82.599998,77.75003672109375,82.599998,77.75003672109375C82.449997,77.65003662109375,82.199997,77.45003652109375,81.75,77.45003652109375C81.099998,77.45003652109375,80.75,78.00003672109375,80.75,79.15003682109375C80.75,79.90003682109375,80.849998,80.35003662109375,81.099998,80.60003662109375C81.25,80.75003672109375,81.449997,80.80003642109375,81.650002,80.80003642109375C82.199997,80.80003642109375,82.449997,80.55003642109375,82.650002,80.40003682109375C82.599998,80.40003682109375,82.650002,80.40003682109375,82.650002,80.40003682109375C82.650002,80.40003682109375,82.650002,80.40003682109375,82.650002,80.40003682109375C82.650002,80.40003682109375,82.650002,80.40003682109375,82.650002,80.40003682109375ZM84,77.00003672109375C83.900002,77.20003652109375,83.75,77.60003662109375,83.75,78.20003652109375C83.75,78.20003652109375,83.75,79.80003642109375,83.75,79.80003642109375C83.75,80.15003682109375,83.75,80.65003682109375,83.800003,81.10003662109375C83.800003,81.50003672109375,83.849998,81.90003682109375,83.849998,82.20003702109375C83.849998,83.40003682109375,83.199997,84.05003662109375,81.900002,84.05003662109375C81.199997,84.05003662109375,80.199997,83.80003642109375,79.900002,83.65003682109375C79.849998,83.60003662109375,79.800003,83.60003662109375,79.800003,83.55003642109375C79.800003,83.50003622109375,79.800003,83.45003702109375,79.849998,83.40003682109375C79.849998,83.40003682109375,80.050003,82.75003622109375,80.050003,82.75003622109375C80.050003,82.70003702109375,80.099998,82.70003702109375,80.25,82.75003622109375C80.550003,82.85003662109375,81.099998,83.10003662109375,81.800003,83.10003662109375C82.150002,83.10003662109375,82.400002,83.05003642109375,82.550003,82.90003682109375C82.75,82.70003702109375,82.75,82.40003682109375,82.75,82.15003682109375C82.75,82.15003682109375,82.75,81.55003642109375,82.75,81.55003642109375C82.75,81.45003652109375,82.699997,81.30003642109375,82.699997,81.30003642109375C82.699997,81.30003642109375,82.599998,81.35003662109375,82.550003,81.40003682109375C82.400002,81.50003672109375,82,81.75003672109375,81.349998,81.75003672109375C80.900002,81.75003672109375,80.550003,81.60003662109375,80.25,81.35003662109375C79.849998,80.95003652109375,79.599998,80.20003652109375,79.599998,79.25003672109375C79.599998,78.25003672109375,79.849998,77.50003672109375,80.300003,77.05003662109375C80.599998,76.75003672109375,81.050003,76.55003662109375,81.5,76.55003662109375C82.150002,76.55003662109375,82.449997,76.80003662109375,82.650002,77.00003672109375C82.650002,77.00003672109375,82.800003,77.15003662109375,82.800003,77.15003662109375C82.800003,77.15003662109375,82.849998,77.00003672109375,82.849998,77.00003672109375C82.900002,76.85003662109375,83.050003,76.55003662109375,83.150002,76.55003662109375C83.150002,76.55003662109375,83.25,76.55003662109375,83.25,76.55003662109375C83.25,76.55003662109375,84.050003,76.85003662109375,84.050003,76.85003662109375C84,76.85003662109375,84.050003,76.85003662109375,84,77.00003672109375C84,77.00003672109375,84,77.00003672109375,84,77.00003672109375C84,77.00003672109375,84,77.00003672109375,84,77.00003672109375ZM72.849998,81.50003672109375C72.849998,81.50003672109375,71.699997,81.50003672109375,71.699997,81.50003672109375C71.650002,81.50003672109375,71.650002,81.50003672109375,71.650002,81.45003652109375C71.650002,81.45003652109375,71.650002,76.55003662109375,71.650002,76.55003662109375C71.650002,76.50003672109375,71.650002,76.50003672109375,71.699997,76.50003672109375C71.699997,76.50003672109375,72.849998,76.50003672109375,72.849998,76.50003672109375C72.900002,76.50003672109375,72.900002,76.50003672109375,72.900002,76.55003662109375C72.900002,76.55003662109375,72.900002,81.45003652109375,72.900002,81.45003652109375C72.900002,81.50003672109375,72.900002,81.50003672109375,72.849998,81.50003672109375C72.849998,81.50003672109375,72.849998,81.50003672109375,72.849998,81.50003672109375ZM72.25,75.60003662109375C71.75,75.60003662109375,71.349998,75.20003662109374,71.349998,74.70003462109375C71.349998,74.20003462109375,71.75,73.85003662109375,72.25,73.85003662109375C72.75,73.85003662109375,73.099998,74.25003463109375,73.099998,74.70003462109375C73.150002,75.25003662109376,72.75,75.60003662109375,72.25,75.60003662109375C72.25,75.60003662109375,72.25,75.60003662109375,72.25,75.60003662109375ZM58.25,78.75003672109375C58.25,78.75003672109375,58.25,81.30003642109375,58.25,81.30003642109375C58.25,81.35003662109375,58.25,81.35003662109375,58.200001,81.35003662109375C58.200001,81.35003662109375,57.099998,81.35003662109375,57.099998,81.35003662109375C57.049999,81.35003662109375,57.049999,81.35003662109375,57.049999,81.30003642109375C57.049999,81.30003642109375,57.049999,74.30004161109375,57.049999,74.30004161109375C57.049999,74.25004163109375,57.049999,74.25003463109375,57.150002,74.20003462109375C57.150002,74.20003462109375,58.099998,74.00003862109375,58.099998,74.00003862109375C58.25,73.95003862109375,58.25,73.95003662109374,58.25,74.10003662109375C58.25,74.10003662109375,58.25,78.40003682109375,58.25,78.40003682109375C58.25,78.40003682109375,60.549999,76.25003672109375,60.549999,76.25003672109375C60.650002,76.15003662109375,60.650002,76.15003662109375,60.75,76.25003672109375C60.75,76.25003672109375,61.299999,76.70003652109375,61.299999,76.70003652109375C61.349998,76.75003672109375,61.349998,76.75003672109375,61.25,76.85003662109375C61.25,76.85003662109375,59.400002,78.55003642109375,59.400002,78.55003642109375C59.400002,78.55003642109375,61.450001,80.90003682109375,61.450001,80.90003682109375C61.549999,81.00003672109375,61.5,81.00003672109375,61.450001,81.05003642109375C61.25,81.15003682109375,60.599998,81.50003672109375,60.599998,81.50003672109375C60.549999,81.55003642109375,60.5,81.55003642109375,60.450001,81.45003652109375C60.450001,81.45003652109375,58.25,78.75003672109375,58.25,78.75003672109375C58.25,78.75003672109375,58.25,78.75003672109375,58.25,78.75003672109375C58.25,78.75003672109375,58.25,78.75003672109375,58.25,78.75003672109375ZM74.75,81.45003652109375C74.75,81.45003652109375,74.75,78.40003682109375,74.75,78.40003682109375C74.75,77.35003662109375,74.650002,77.10003662109375,74.550003,76.95003652109375C74.5,76.90003662109375,74.5,76.85003662109375,74.5,76.80003662109375C74.5,76.80003662109375,74.550003,76.75003672109375,74.550003,76.75003672109375C74.550003,76.75003672109375,75.400002,76.50003672109375,75.400002,76.50003672109375C75.449997,76.50003672109375,75.5,76.45003652109375,75.550003,76.45003652109375C75.650002,76.45003652109375,75.800003,76.95003652109375,75.849998,77.10003662109375C75.849998,77.10003662109375,75.900002,77.25003672109375,75.900002,77.25003672109375C75.900002,77.25003672109375,76,77.20003652109375,76.050003,77.15003662109375C76.349998,76.90003662109375,76.849998,76.50003672109375,77.650002,76.50003672109375C77.949997,76.50003672109375,78.349998,76.55003662109375,78.650002,76.80003662109375C78.900002,77.05003662109375,79.050003,77.40003662109375,79.050003,77.90003682109375C79.050003,77.90003682109375,79.050003,81.45003652109375,79.050003,81.45003652109375C79.050003,81.50003672109375,79.050003,81.50003672109375,79,81.50003672109375C79,81.50003672109375,77.900002,81.50003672109375,77.900002,81.50003672109375C77.849998,81.50003672109375,77.849998,81.50003672109375,77.849998,81.45003652109375C77.849998,81.45003652109375,77.849998,78.35003662109375,77.849998,78.35003662109375C77.849998,78.05003642109375,77.849998,77.75003672109375,77.599998,77.60003662109375C77.5,77.50003672109375,77.300003,77.45003652109375,77.099998,77.45003652109375C76.75,77.45003652109375,76.349998,77.60003662109375,76,77.90003682109375C76,77.90003682109375,76,81.50003672109375,76,81.50003672109375C76,81.55003642109375,76,81.55003642109375,75.949997,81.55003642109375C75.949997,81.55003642109375,74.849998,81.55003642109375,74.849998,81.55003642109375C74.75,81.50003672109375,74.75,81.50003672109375,74.75,81.45003652109375C74.75,81.45003652109375,74.75,81.45003652109375,74.75,81.45003652109375C74.75,81.45003652109375,74.75,81.45003652109375,74.75,81.45003652109375ZM43.75,81.45003652109375C43.75,81.45003652109375,43.75,78.40003682109375,43.75,78.40003682109375C43.75,77.60003662109375,43.599998,77.30003662109375,43.549999,77.10003662109375C43.5,76.95003652109375,43.5,76.90003662109375,43.549999,76.90003662109375C43.549999,76.90003662109375,44.299999,76.60003662109375,44.299999,76.60003662109375C44.400002,76.55003662109375,44.400002,76.55003662109375,44.450001,76.65003662109375C44.5,76.75003672109375,44.650002,76.95003652109375,44.700001,77.30003662109375C44.700001,77.30003662109375,44.75,77.50003672109375,44.75,77.50003672109375C44.75,77.50003672109375,44.950001,77.30003662109375,44.950001,77.30003662109375C45.150002,77.05003662109375,45.5,76.60003662109375,46.049999,76.60003662109375C46.299999,76.60003662109375,46.450001,76.65003662109375,46.549999,76.75003672109375C46.549999,76.75003672109375,46.549999,76.85003662109375,46.549999,76.85003662109375C46.549999,76.85003662109375,46.25,77.70003652109375,46.25,77.70003652109375C46.25,77.75003672109375,46.25,77.75003672109375,46.200001,77.70003652109375C46.099998,77.65003662109375,45.950001,77.60003662109375,45.799999,77.60003662109375C45.450001,77.60003662109375,45.049999,78.00003672109375,44.950001,78.15003682109375C44.950001,78.15003682109375,44.950001,81.55003642109375,44.950001,81.55003642109375C44.950001,81.60003662109375,44.950001,81.60003662109375,44.900002,81.60003662109375C44.900002,81.60003662109375,43.900002,81.60003662109375,43.900002,81.60003662109375C43.799999,81.50003672109375,43.75,81.50003672109375,43.75,81.45003652109375C43.75,81.45003652109375,43.75,81.45003652109375,43.75,81.45003652109375ZM67.75,81.45003652109375C67.75,81.45003652109375,67.75,78.40003682109375,67.75,78.40003682109375C67.75,77.60003662109375,67.599998,77.30003662109375,67.550003,77.10003662109375C67.5,76.95003652109375,67.5,76.90003662109375,67.550003,76.90003662109375C67.550003,76.90003662109375,68.300003,76.60003662109375,68.300003,76.60003662109375C68.400002,76.55003662109375,68.400002,76.55003662109375,68.449997,76.65003662109375C68.5,76.70003652109375,68.650002,76.95003652109375,68.699997,77.30003662109375C68.699997,77.30003662109375,68.75,77.50003672109375,68.75,77.50003672109375C68.75,77.50003672109375,68.949997,77.30003662109375,68.949997,77.30003662109375C69.150002,77.05003662109375,69.5,76.60003662109375,70.050003,76.60003662109375C70.300003,76.60003662109375,70.5,76.65003662109375,70.550003,76.75003672109375C70.550003,76.75003672109375,70.550003,76.85003662109375,70.550003,76.85003662109375C70.550003,76.85003662109375,70.25,77.70003652109375,70.25,77.70003652109375C70.25,77.75003672109375,70.25,77.75003672109375,70.199997,77.70003652109375C70.099998,77.65003662109375,69.949997,77.60003662109375,69.800003,77.60003662109375C69.449997,77.60003662109375,69.050003,78.00003672109375,68.949997,78.15003682109375C68.949997,78.15003682109375,68.949997,81.55003642109375,68.949997,81.55003642109375C68.949997,81.60003662109375,68.949997,81.60003662109375,68.900002,81.60003662109375C68.900002,81.60003662109375,67.900002,81.60003662109375,67.900002,81.60003662109375C67.800003,81.50003672109375,67.75,81.50003672109375,67.75,81.45003652109375C67.75,81.45003652109375,67.75,81.45003652109375,67.75,81.45003652109375ZM50.549999,81.50003672109375C50.549999,81.50003672109375,47.049999,81.50003672109375,47.049999,81.50003672109375C47,81.50003672109375,47,81.50003672109375,47,81.45003652109375C47,81.45003652109375,47,80.70003652109375,47,80.70003652109375C47,80.70003652109375,49.549999,77.40003662109375,49.549999,77.40003662109375C49.549999,77.40003662109375,47.25,77.40003662109375,47.25,77.40003662109375C47.200001,77.40003662109375,47.200001,77.40003662109375,47.200001,77.35003662109375C47.200001,77.35003662109375,47.200001,76.55003662109375,47.200001,76.55003662109375C47.200001,76.50003672109375,47.200001,76.50003672109375,47.25,76.50003672109375C47.25,76.50003672109375,50.650002,76.50003672109375,50.650002,76.50003672109375C50.75,76.50003672109375,50.75,76.50003672109375,50.75,76.60003662109375C50.75,76.60003662109375,50.75,77.30003662109375,50.75,77.30003662109375C50.75,77.30003662109375,48.25,80.55003642109375,48.25,80.55003642109375C48.25,80.55003642109375,50.900002,80.55003642109375,50.900002,80.55003642109375C51,80.55003642109375,51,80.55003642109375,51,80.65003682109375C51,80.65003682109375,50.700001,81.40003682109375,50.700001,81.40003682109375C50.650002,81.45003652109375,50.599998,81.50003672109375,50.549999,81.50003672109375C50.549999,81.50003672109375,50.549999,81.50003672109375,50.549999,81.50003672109375ZM38.5,74.70003462109375C38.5,74.70003462109375,38.5,74.80004161109375,38.5,74.80004161109375C38.5,74.80004161109375,36.5,81.40003682109375,36.5,81.40003682109375C36.450001,81.50003672109375,36.450001,81.50003672109375,36.349998,81.50003672109375C36.349998,81.50003672109375,35.099998,81.50003672109375,35.099998,81.50003672109375C35,81.50003672109375,35,81.50003672109375,34.950001,81.40003682109375C34.950001,81.40003682109375,33,74.85003662109375,33,74.85003662109375C33,74.85003662109375,33,74.75003862109375,33,74.75003862109375C33,74.70003861109375,33.049999,74.70003462109375,33.099998,74.70003462109375C33.099998,74.70003462109375,34.299999,74.50003862109375,34.299999,74.50003862109375C34.400002,74.50003862109375,34.400002,74.50003660109375,34.450001,74.60003662109375C34.450001,74.60003662109375,35.400002,78.75003672109375,35.400002,78.75003672109375C35.5,79.10003662109375,35.700001,79.90003682109375,35.700001,80.40003682109375C35.700001,80.40003682109375,35.799999,80.40003682109375,35.799999,80.40003682109375C35.849998,79.95003652109375,36.099998,79.10003662109375,36.200001,78.75003672109375C36.200001,78.75003672109375,37.25,74.65003961109375,37.25,74.65003961109375C37.299999,74.50003964109375,37.349998,74.50004160109376,37.450001,74.55004161109375C37.450001,74.55004161109375,38.450001,74.65003961109375,38.450001,74.65003961109375C38.400002,74.65003961109375,38.5,74.65003461109374,38.5,74.70003462109375C38.5,74.70003462109375,38.5,74.70003462109375,38.5,74.70003462109375Z" fill="#00467D" fill-opacity="1"/><path d="M84,25.5C84,25.5,84,39,84,39C84,39,0,39,0,39C0,39,0,32.450001,0,32.450001C0,32.450001,11.8,30.049999,27.6,28.35C30.25,30.5,34.450001,32.400002,39.299999,32.400002C45.549999,32.400002,50.400002,29.35,53.200001,26.299999C69.599998,25.4,84,25.5,84,25.5C84,25.5,84,25.5,84,25.5ZM42.5,29C50.5,29,57,22.5,57,14.5C57,6.5,50.5,0,42.5,0C34.5,0,28,6.5,28,14.5C28,22.5,34.5,29,42.5,29C42.5,29,42.5,29,42.5,29Z" fill="#00A0E8" fill-opacity="1"/><path d="M10.0498046875,57.6C10.0498046875,57.6,10.0498046875,65.5,10.0498046875,65.5C10.0498046875,65.5,0.0498046875,65.5,0.0498046875,65.5C0.0498046875,65.5,0.0498046875,44.5,0.0498046875,44.5C0.0498046875,44.5,10.0498046875,44.5,10.0498046875,44.5C10.0498046875,44.5,10.0498046875,53.9499998,10.0498046875,53.9499998C10.0498046875,53.9499998,10.0998046875,53.9499998,10.0998046875,53.9499998C10.0998046875,53.9499998,15.9998046875,44.5,15.9998046875,44.5C15.9998046875,44.5,27.9998056875,44.5,27.9998056875,44.5C27.9998056875,44.5,19.1998046875,55.35,19.1998046875,55.35C19.1998046875,55.35,27.4998056875,65.5,27.4998056875,65.5C27.4998056875,65.5,16.0498046875,65.5,16.0498046875,65.5C16.0498046875,65.5,10.0998046875,57.6,10.0998046875,57.6C10.0998046875,57.6,10.0498046875,57.6,10.0498046875,57.6C10.0498046875,57.6,10.0498046875,57.6,10.0498046875,57.6C10.0498046875,57.6,10.0498046875,57.6,10.0498046875,57.6ZM83.9998016875,64.85C81.6498026875,65.6,78.5998076875,66,75.8998026875,66C66.1498026875,66,58.9998056875,63.15,58.9998056875,54.8C58.9998056875,47.25,65.9498066875,44,75.3998026875,44C78.0498046875,44,81.3998026875,44.30000201,83.9998016875,45.15C83.9998016875,45.15,83.9998016875,52.4499998,83.9998016875,52.4499998C82.0498046875,51.25,80.0998076875,50.5,77.3498076875,50.5C73.7498016875,50.5,70.1498026875,52.3500004,70.1498026875,55C70.1498026875,57.7,73.7498016875,59.5,77.3498076875,59.5C80.0998076875,59.5,82.0498046875,58.7,83.9998016875,57.55C83.9998016875,57.55,83.9998016875,64.85,83.9998016875,64.85C83.9998016875,64.85,83.9998016875,64.85,83.9998016875,64.85ZM39.3998026875,53.3999996C39.3998026875,53.3999996,44.2998046875,53.3999996,44.2998046875,53.3999996C46.1998066875,53.3999996,46.9498066875,52.6000004,46.9498066875,51.4000001C46.9498066875,50,46.1998066875,49.3499999,44.4498066875,49.3499999C44.4498066875,49.3499999,39.3998026875,49.3499999,39.3998026875,49.3499999C39.3998026875,49.3499999,39.3998026875,53.3999996,39.3998026875,53.3999996C39.3998026875,53.3999996,39.3998026875,53.3999996,39.3998026875,53.3999996C39.3998026875,53.3999996,39.3998026875,53.3999996,39.3998026875,53.3999996ZM39.3998026875,61.25C39.3998026875,61.25,44.5498046875,61.25,44.5498046875,61.25C46.4998056875,61.25,47.1498026875,60.450001,47.1498026875,59.25C47.1498026875,58.05,46.4998056875,57.2,44.5998036875,57.2C44.5998036875,57.2,39.3998026875,57.2,39.3998026875,57.2C39.3998026875,57.2,39.3998026875,61.25,39.3998026875,61.25C39.3998026875,61.25,39.3998026875,61.25,39.3998026875,61.25C39.3998026875,61.25,39.3998026875,61.25,39.3998026875,61.25ZM29.4998056875,44.5C29.4998056875,44.5,49.4498066875,44.5,49.4498066875,44.5C54.6498026875,44.5,56.3498036875,46.55,56.3498036875,49.75C56.3498036875,53.3500004,53.1998066875,54.9,49.9998056875,55.1C49.9998056875,55.1,49.9998056875,55.15,49.9998056875,55.15C53.2998046875,55.4,56.5498046875,55.8,56.5498046875,60.049999C56.5498046875,62.799999,54.8498036875,65.5,49.1498026875,65.5C49.1498026875,65.5,29.4998056875,65.5,29.4998056875,65.5C29.4998056875,65.5,29.4998056875,44.5,29.4998056875,44.5C29.4998056875,44.5,29.4998056875,44.5,29.4998056875,44.5C29.4998056875,44.5,29.4998056875,44.5,29.4998056875,44.5Z" fill="#00467D" fill-opacity="1"/></svg>