<svg xmlns="http://www.w3.org/2000/svg" xmlns:xlink="http://www.w3.org/1999/xlink" fill="none" version="1.1" width="85" height="85" viewBox="0 0 85 85"><path d="M42.5,85C19.049999,85,0,65.949997,0,42.5C0,19.049999,19.049999,0,42.5,0C65.949997,0,85,19.049999,85,42.5C85,65.949997,65.949997,85,42.5,85C42.5,85,42.5,85,42.5,85ZM42.5,79.949997C63.25,79.949997,80.099998,63.200001,80.099998,42.5C80.099998,21.799999,63.25,5.0500002,42.5,5.0500002C21.75,5.0500002,4.9000001,21.85,4.9000001,42.5C4.9000001,63.150002,21.75,79.949997,42.5,79.949997C42.5,79.949997,42.5,79.949997,42.5,79.949997ZM58.799999,43.25C61.049999,43.200001,62.900002,43.099998,62.900002,40.299999C59.900002,33.049999,54.549999,38.599998,57.25,42.400002C57.75,42.700001,58.25,42.950001,58.799999,43.25C58.799999,43.25,58.799999,43.25,58.799999,43.25C58.799999,43.25,58.799999,43.25,58.799999,43.25ZM48.5,57.900002C49.150002,56.150002,49.299999,55.349998,48.599998,53.900002C47.400002,53.799999,46.549999,54.150002,45.5,54.349998C44.75,54.349998,37.349998,53.849998,36.599998,54.599998C35.349998,57.900002,39.150002,59.200001,41.700001,59.75C43.650002,59.549999,46.950001,59.549999,48.5,57.900002C48.5,57.900002,48.5,57.900002,48.5,57.900002C48.5,57.900002,48.5,57.900002,48.5,57.900002ZM27,45C28.35,44.549999,29.5,44.150002,30.200001,42.799999C30.200001,41,29.299999,39.549999,28.299999,38.5C26.549999,38.349998,24.15,40,24.15,41.799999C24.799999,42.700001,25.700001,44.5,27,45C27,45,27,45,27,45C27,45,27,45,27,45ZM60.150002,30.5C64.199997,32.799999,69.599998,37.599998,71.5,42.200001C71.5,43.900002,70.949997,46.700001,68.650002,46.700001C66.150002,45.599998,66.050003,46.400002,64.449997,48.299999C62.799999,51.650002,63.099998,54,63.650002,57.799999C63.799999,60.450001,64.550003,63.25,64.550003,66C63.150002,67.550003,60.75,69.599998,58.799999,70C58.200001,69.400002,58.349998,69,58.200001,68.5C58.200001,68.5,58.049999,52.25,58.049999,52.25C57.650002,51.049999,56.25,47.75,54.700001,48.5C54.549999,48.75,54.450001,49.049999,54.349998,49.299999C54.299999,53.450001,54.599998,58.299999,52.200001,62.049999C48.299999,65.199997,42.599998,65.699997,37.950001,64.599998C32.75,62.200001,32.549999,61.099998,31.549999,55.650002C31.549999,55.650002,31.4,50,31.4,50C31.15,49.75,30.9,49.549999,30.65,49.349998C27.9,50.049999,28.200001,55.049999,27.75,57.400002C26.35,61.849998,23.299999,66.199997,19.15,68.599998C19.15,68.599998,18.25,68.599998,18.25,68.599998C16.75,67.599998,17.200001,61.599998,17.6,60.5C20.299999,58.049999,20.299999,58.049999,20.85,57.400002C23.700001,52.349998,24.5,48.5,20,44.5C16.950001,43,16.299999,46.849998,13.75,45.900002C12.25,43.950001,11.9,43.700001,12.85,41.75C16.6,37.450001,22.9,30.700001,29,30.700001C29.35,30.9,29.700001,31.049999,30.049999,31.25C31.049999,32.900002,32.150002,34.349998,35.849998,40.5C36.349998,43.099998,35.349998,45.650002,36.5,48.25C39.700001,49.849998,44.650002,49.549999,48.150002,48.549999C50.349998,46.75,49.700001,44.849998,49.599998,42.400002C50.549999,38.349998,53.049999,33.75,55.849998,30.85C57.849998,29.700001,58.049999,29.85,60.150002,30.5C60.150002,30.5,60.150002,30.5,60.150002,30.5C60.150002,30.5,60.150002,30.5,60.150002,30.5ZM44.099998,31.25C46.299999,29.950001,47.25,27.5,46.650002,25.200001C45.450001,24,40.299999,24.65,38.799999,25.1C38.099998,27.25,39.599998,30.549999,41.950001,31.549999C43.099998,31.5,43.099998,31.5,44.099998,31.25C44.099998,31.25,44.099998,31.25,44.099998,31.25C44.099998,31.25,44.099998,31.25,44.099998,31.25ZM69.449997,21.299999C70.800003,21.85,70.800003,21.85,71.150002,22.1C71.150002,22.1,71.150002,22.700001,71.150002,22.700001C69.150002,23.950001,67.199997,24.75,65.150002,25.6C61.549999,25.799999,57.349998,23.9,54.5,26.049999C52.099998,29.4,49.950001,33.099998,47.549999,36.599998C45.450001,38,44.599998,38.099998,42.200001,38.450001C35.849998,37,35.400002,32.150002,32.400002,26.9C32.150002,26.65,31.950001,26.4,31.700001,26.15C28.200001,25.1,23.35,26.200001,19.950001,26.75C18.950001,26.75,18.049999,26.799999,17.25,26.5C15.5,24.15,16.35,22.299999,17.9,20.299999C18.4,20.15,18.4,20.15,26.5,19.9C29.65,19.5,33,19.4,36.349998,18.9C38.25,18,37.950001,16.1,38.599998,14.5C41.049999,12.75,46,13.25,47.549999,16.299999C47.900002,18.1,47.599998,18.5,49.5,19.049999C56.349998,19.200001,62.549999,19.799999,69.449997,21.299999C69.449997,21.299999,69.449997,21.299999,69.449997,21.299999C69.449997,21.299999,69.449997,21.299999,69.449997,21.299999Z" fill="#E50113" fill-opacity="1"/></svg>