<svg xmlns="http://www.w3.org/2000/svg" xmlns:xlink="http://www.w3.org/1999/xlink" fill="none" version="1.1" width="167.4686279296875" height="167.490234375" viewBox="0 0 167.4686279296875 167.490234375"><defs><radialGradient cx="0" cy="0" r="1" gradientUnits="userSpaceOnUse" id="master_svg0_0_4110" gradientTransform="translate(43.998144761135336 44.97614885152598) rotate(44.999997751088536) scale(49.075224077585744 86.00996686733717)"><stop offset="0%" stop-color="#01A9E4" stop-opacity="1"/><stop offset="100%" stop-color="#00508F" stop-opacity="1"/></radialGradient><radialGradient cx="0" cy="0" r="1" gradientUnits="userSpaceOnUse" id="master_svg1_0_4113" gradientTransform="translate(62.02466669159719 47.13790060094078) rotate(0) scale(8.97489115019269 17.127655082976556)"><stop offset="0%" stop-color="#0087C4" stop-opacity="1"/><stop offset="100%" stop-color="#005492" stop-opacity="1"/></radialGradient><radialGradient cx="0" cy="0" r="1" gradientUnits="userSpaceOnUse" id="master_svg2_0_4116" gradientTransform="translate(14.928283872150132 76.46808070849295) rotate(0) scale(8.736637916967084 10.893563319075755)"><stop offset="0%" stop-color="#0085C2" stop-opacity="1"/><stop offset="100%" stop-color="#005492" stop-opacity="1"/></radialGradient><radialGradient cx="0" cy="0" r="1" gradientUnits="userSpaceOnUse" id="master_svg3_0_4123" gradientTransform="translate(43.99700927556478 40.42652361559257) rotate(45.00001292145288) scale(63.870903042914875 185.09617962300155)"><stop offset="0%" stop-color="#8EC31F" stop-opacity="1"/><stop offset="100%" stop-color="#00733F" stop-opacity="1"/></radialGradient></defs><path d="M44.01016908447647,1.3237946033477783C67.72517008447647,1.3237946033477783,87.06676808447646,20.87809460334778,87.06676808447646,44.853095603347775C87.06676808447646,50.93619460334778,85.81907208447647,56.733096603347775,83.57346708447648,61.99969460334778C68.38907208447647,50.71829560334778,43.34627108447647,24.95339560334778,43.34627108447647,24.95339560334778C16.69447008447647,55.10249660334778,6.8040399844764705,59.28419460334778,3.146919984476471,58.55089460334778C1.726287064476471,54.23999360334778,0.953670084476471,49.63619560334778,0.953670084476471,44.853095603347775C0.953670084476471,20.87809460334778,20.29527008447647,1.3237946033477783,44.01016908447647,1.3237946033477783C44.01016908447647,1.3237946033477783,44.01016908447647,1.3237946033477783,44.01016908447647,1.3237946033477783Z" fill-rule="evenodd" fill="#005BAC" fill-opacity="1"/><path d="M0,44.0014C0.0347014,47.783901,0.48582,51.496899,1.38806,54.966999C3.88656,56.216301,6.6626701,56.216301,9.4387903,55.522301C15.8238,51.9827,25.332001,42.335701,25.332001,42.335701C25.332001,42.335701,44.0014,23.666401,44.0014,23.666401C44.0014,23.666401,62.670799,42.335701,62.670799,42.335701C62.670799,42.335701,72.178902,51.9827,78.564003,55.522301C81.340103,56.216301,84.081497,56.250999,86.580002,55.001701C87.4823,51.4622,87.968102,47.783901,87.968102,43.966702C87.968102,19.675699,68.292397,0,44.0014,0C19.7104,0,0,19.7104,0,44.0014C0,44.0014,0,44.0014,0,44.0014Z" fill="url(#master_svg0_0_4110)" fill-opacity="1"/><path d="M82.47844837646484,57.25394301381836C83.32204837646485,58.22323271381836,83.76184837646484,59.51561261381836,84.19264837646485,60.78107261381836C83.29514837646485,58.13348291381836,81.33864837646485,56.17695281381836,78.89745807646484,54.71405291381836C78.90642837646485,54.72302291381836,78.91540817646484,54.72302291381836,78.92437837646484,54.72302291381836C76.44730857646485,53.14344291381836,73.09070847646484,52.05748391381836,69.71614837646484,51.37539291381836C74.47283837646485,52.21903193381836,79.55261807646484,53.91528301381836,82.47844837646484,57.25394301381836C82.47844837646484,57.25394301381836,82.47844837646484,57.25394301381836,82.47844837646484,57.25394301381836Z" fill="url(#master_svg1_0_4113)" fill-opacity="1" transform="matrix(0.7071067690849304,0.7071067690849304,0.7071067690849304,-0.7071067690849304,-15.908500148821759,38.406520576049616)"/><path d="M7.475932131860351,60.26882551035156C7.475932131860351,60.27755551035156,7.475932131860351,60.28629541035156,7.4846720318603515,60.303765810351564C6.025651931860351,57.857505510351565,4.068642131860352,55.900499580351564,1.4214420318603516,55.00062561035156C2.7668820318603515,55.45493060035156,4.086122031860352,55.996602590351564,5.099571931860352,56.922685610351564C8.218552131860353,59.76209541035156,9.861042031860352,64.49735551035157,10.725961731860352,69.01422561035156C10.035772331860352,65.79912561035157,8.978642031860351,62.64518551035156,7.475932131860351,60.26882551035156C7.475932131860351,60.26882551035156,7.475932131860351,60.26882551035156,7.475932131860351,60.26882551035156Z" fill="url(#master_svg2_0_4116)" fill-opacity="1" transform="matrix(0.707106351852417,0.7071071863174438,0.707106351852417,-0.7071071863174438,-38.47496038259442,92.88685135572427)"/><path d="M61.062950134277344,43.89104080200195C62.71230013427734,45.95230080200195,65.97401003427734,48.92557100200195,69.68974013427734,51.387360602001955C64.72292013427735,47.92481090200195,61.062950134277344,43.89104080200195,61.062950134277344,43.89104080200195C61.062950134277344,43.89104080200195,61.062950134277344,43.89104080200195,61.062950134277344,43.89104080200195Z" fill-rule="evenodd" fill="#F4F4F4" fill-opacity="1"/><path d="M17.910402297973633,51.641090902001956C21.78770229797363,49.13322070200195,25.224082497973633,46.025120702001956,26.930322597973635,43.89104080200195C26.930322597973635,43.89104080200195,23.076912397973633,48.13474080200195,17.910402297973633,51.641090902001956C17.910402297973633,51.641090902001956,17.910402297973633,51.641090902001956,17.910402297973633,51.641090902001956Z" fill-rule="evenodd" fill="#F4F4F4" fill-opacity="1"/><path d="M28.838252995478516,58.71058677978516C29.874285965478517,52.55301667978516,32.12727596547852,47.282386779785156,32.12727596547852,47.282386779785156C32.12727596547852,47.282386779785156,27.204265965478516,59.098086779785156,28.838252995478516,68.00758777978515C28.838252995478516,68.01958677978516,28.835977975478517,68.02918577978515,28.835408985478516,68.04118777978516C28.247696985478516,65.29148677978516,28.359777778478517,61.96378677978515,28.838252995478516,58.71058677978516C28.838252995478516,58.71058677978516,28.838252995478516,58.71058677978516,28.838252995478516,58.71058677978516Z" fill-rule="evenodd" fill="#F4F4F4" fill-opacity="1" transform="matrix(-0.4165027141571045,-0.9091340899467468,-0.9091338515281677,0.41650331020355225,83.26548541538114,53.441122115798635)"/><path d="M61.06306621796735,43.89104080200195C61.06306621796735,43.89104080200195,62.39552013427734,49.172480602001954,62.528080134277346,55.225440802001955C62.52580013427735,58.66574080200195,62.121290134277345,62.164741802001956,61.06306621796735,64.90924080200196C61.062497281967346,64.89953980200195,61.06420455397734,64.88704080200195,61.06420455397734,64.87684080200195C64.07559013427735,56.33534080200195,61.06306621796735,43.89104080200195,61.06306621796735,43.89104080200195C61.06306621796735,43.89104080200195,61.06306621796735,43.89104080200195,61.06306621796735,43.89104080200195Z" fill-rule="evenodd" fill="#F4F4F4" fill-opacity="1" transform="matrix(-0.5537441372871399,0.8326869606971741,0.8326870799064636,0.5537438988685608,58.32869817711594,-31.25967761561219)"/><path d="M43.9802358680954,61.037277641845705C43.9802358680954,61.037277641845705,26.908437868095398,43.965420540845706,26.908437868095398,43.965420540845706C26.908437868095398,43.965420540845706,18.2370378680954,53.3594369418457,9.430147068095398,55.572476641845704C6.675176968095398,56.2498766418457,3.920196868095398,56.295076641845704,1.391036868095398,55.0304766418457C6.268686668095398,73.99917564184571,23.521136868095397,87.9998776418457,44.0254358680954,87.9998776418457C64.4845348680954,88.0450786418457,81.6918338680954,73.99917564184571,86.56953386809539,55.0304766418457C84.08554086809539,56.249976641845706,81.3305358680954,56.295076641845704,78.5304338680954,55.572476641845704C69.8138348680954,53.359466541845705,61.0972368680954,43.9202766418457,61.0972368680954,43.9202766418457C61.0972368680954,43.9202766418457,43.9802358680954,61.037277641845705,43.9802358680954,61.037277641845705C43.9802358680954,61.037277641845705,43.9802358680954,61.037277641845705,43.9802358680954,61.037277641845705Z" fill="url(#master_svg3_0_4123)" fill-opacity="1"/></svg>