<svg xmlns="http://www.w3.org/2000/svg" xmlns:xlink="http://www.w3.org/1999/xlink" fill="none" version="1.1" width="79.79000091552734" height="86.0895004272461" viewBox="0 0 79.79000091552734 86.0895004272461"><path d="M53.3335,18.057501C48.0835,18.057501,43.044498,19.5275,38.845001,22.2575C38.845001,22.2575,24.777,31.285999,24.777,31.285999C24.777,31.285999,24.777,0,24.777,0C24.777,0,0,20.577499,0,20.577499C0,20.577499,0,59.6325,0,59.6325C0,71.181,7.7690001,81.050003,18.2675,84.619499C18.2675,84.619499,23.0975,86.0895,23.0975,86.0895C13.2285,81.259499,6.7189999,71.600998,6.7189999,60.682499C6.7189999,44.724499,20.157499,31.916,36.745499,31.916C52.283501,31.916,65.092003,43.044498,66.7715,57.533001C66.7715,57.533001,49.344002,57.533001,49.344002,57.533001C47.874001,51.863499,42.6245,47.664001,36.5355,47.664001C29.186501,47.664001,23.097,53.753502,23.097,60.892502C23.097,68.031502,29.186501,73.911003,36.5355,73.911003C43.4645,73.911003,48.924,69.081001,49.764,62.362C49.764,62.362,66.7715,62.362,66.7715,62.362C66.561501,68.241501,64.251503,73.490997,60.682499,77.690498C60.682499,77.690498,71.181,65.512001,74.750504,60.052502C77.900497,55.223,79.790001,49.973999,79.790001,44.094501C79.790001,29.8165,67.821503,18.057501,53.3335,18.057501C53.3335,18.057501,53.3335,18.057501,53.3335,18.057501C53.3335,18.057501,53.3335,18.057501,53.3335,18.057501Z" fill="#00367A" fill-opacity="1"/></svg>