<svg xmlns="http://www.w3.org/2000/svg" xmlns:xlink="http://www.w3.org/1999/xlink" fill="none" version="1.1" width="83.0367660522461" height="83.98690032958984" viewBox="0 0 83.0367660522461 83.98690032958984"><path d="M9.50595,12.7C9.50595,15.3,9.9059496,20.15,13.0559,21C14.8059,13.55,26.306,9.3500004,33.006001,6.1500001C29.906,1.65,26.305901,0.5,21.055901,0.5C15.0559,0.5,9.50595,6.3499999,9.50595,12.7C9.50595,12.7,9.50595,12.7,9.50595,12.7ZM50.006001,6.0999999C56.556,9.25,67.855904,13.5,69.605904,21C72.205902,20.299999,73.505997,16.049999,73.505997,12.7C73.505997,4.6999998,66.905998,0,59.556,0C55.506001,0,51.456001,3.4000001,50.006001,6.0999999C50.006001,6.0999999,50.006001,6.0999999,50.006001,6.0999999ZM16.005899,38.799999C16.005899,31.75,23.005899,23.5,29.805901,23.5C35.205898,23.5,36.506001,27.4,36.506001,31.799999C36.506001,38.900002,27.8559,44.5,21.3559,44.5C18.6059,44.5,16.005899,41.400002,16.005899,38.799999C16.005899,38.799999,16.005899,38.799999,16.005899,38.799999C16.005899,38.799999,16.005899,38.799999,16.005899,38.799999ZM52.705898,23.549999C56.205898,23,59.956001,26.5,62.155998,28.700001C64.556,31.15,66.505997,33.950001,66.505997,37.650002C66.505997,44.25,60.205898,46.700001,54.8559,43.75C50.6059,41.450001,46.006001,35.5,46.006001,31.5C46.006001,31.5,46.006001,30.6,46.006001,30.6C46.006001,25.65,48.3559,24.1,52.705898,23.549999C52.705898,23.549999,52.705898,23.549999,52.705898,23.549999C52.705898,23.549999,52.705898,23.549999,52.705898,23.549999ZM54.905998,68.75C63.956001,60.700001,74.855904,53.950001,74.855904,40.25C74.855904,34.200001,73.105904,29.75,71.755997,24C78.955902,28.75,81.755997,37.650002,82.755997,46.299999C84.306,59.549999,79.655899,81.599998,63.3559,83.650002C52.655899,85.75,48.806,77.699997,54.905998,68.75C54.905998,68.75,54.905998,68.75,54.905998,68.75C54.905998,68.75,54.905998,68.75,54.905998,68.75ZM0.0059494907,47.299999C-0.24405003,64.25,7.3559499,83.5,28.255899,83.5C28.255899,83.5,32.655998,83.5,32.655998,83.5C39.506001,83.5,44.905998,79.699997,47.655998,75.650002C51.056,69.349998,53.206001,63.25,49.806,56.049999C48.605999,53.5,45.155998,49.900002,41.506001,49.900002C35.756001,49.900002,30.906,52.049999,30.906,57.75C30.906,59.599998,31.356001,61.049999,32.956001,62.200001C34.206001,63.099998,35.6059,63.049999,37.1059,62.950001C38.155899,62.900002,39.056,62.700001,40.206001,62.099998C40.206001,62.099998,40.206001,64.300003,40.206001,64.300003C39.056,66.050003,36.405899,67.349998,33.6059,67.349998C18.806,67.349998,8.00595,52.150002,8.00595,38.549999C8.00595,31.200001,9.9059496,29.200001,10.906,24C5.7059498,31.15,0.0059494907,37.900002,0.0059494907,47.299999C0.0059494907,47.299999,0.0059494907,47.299999,0.0059494907,47.299999Z" fill="#000000" fill-opacity="1"/></svg>