<svg xmlns="http://www.w3.org/2000/svg" xmlns:xlink="http://www.w3.org/1999/xlink" fill="none" version="1.1" width="84.900390625" height="84.899658203125" viewBox="0 0 84.900390625 84.899658203125"><path d="M0,42.59967041015625C0,58.34967041015625,8.6499996,72.09967041015625,21.5,79.39966941015625C27.35,82.69966841015625,34.049999,84.69966841015625,41.25,84.84967041015625C41.25,84.84967041015625,41.349998,84.84967041015625,41.349998,84.84967041015625C41.650002,84.84967041015625,41.900002,84.89966941015625,42.200001,84.89966941015625C42.200001,84.89966941015625,42.599998,84.89966941015625,42.599998,84.89966941015625C42.900002,84.89966941015625,43.150002,84.89966941015625,43.450001,84.84967041015625C43.450001,84.84967041015625,43.5,84.84967041015625,43.5,84.84967041015625C50.650002,84.64966941015625,57.400002,82.69966841015625,63.25,79.39966941015625C69.5,75.54967141015625,73.449997,69.94967041015624,73.449997,63.74967041015625C73.449997,63.74967041015625,73.449997,63.64966941015625,73.449997,63.64966941015625C73.449997,63.04967141015625,73.400002,62.39966941015625,73.349998,61.79967141015625C65.599998,67.29967141015625,54.599998,70.74967041015626,42.400002,70.74967041015626C30.200001,70.74967041015626,19.200001,67.34967041015625,11.45,61.79967141015625C4.3499999,56.79967041015625,0,50.04967021015625,0,42.59967041015625C0,42.59967041015625,0,42.59967041015625,0,42.59967041015625C0,42.59967041015625,0,42.59967041015625,0,42.59967041015625Z" fill="#885A12" fill-opacity="1"/><path d="M11.45,61.84968566894531C19.35,67.49968766894531,30.25,70.74968766894531,42.5,70.74968766894531C42.5,70.74968766894531,42.5,42.49968766894531,42.5,42.49968766894531C26.25,42.49968766894531,12.9,33.99968566894531,11.5,23.199685668945314C11.4,22.599685668945312,11.35,21.949685668945314,11.35,21.299685668945312C11.35,15.049685468945313,15.3,9.449685568945313,21.549999,5.5996856689453125C8.6499996,12.849685668945312,0,26.649684668945312,0,42.49968766894531C0,49.94968366894531,4.0500002,56.54968666894531,11.45,61.84968566894531C11.45,61.84968566894531,11.45,61.84968566894531,11.45,61.84968566894531Z" fill="#C4A15F" fill-opacity="1"/><path d="M11.4501953125,23.10032938984375C19.2001953125,17.60032958984375,30.2001953125,14.15032958984375,42.4501953125,14.15032958984375C42.4501953125,14.15032958984375,42.4501953125,42.45032858984375,42.4501953125,42.45032858984375C26.2001953125,42.45032858984375,12.8501953125,33.95032858984375,11.4501953125,23.10032938984375C11.4501953125,23.10032938984375,11.4501953125,23.10032938984375,11.4501953125,23.10032938984375Z" fill="#FEFEFE" fill-opacity="1"/><path d="M42.8001953125,0C42.8001953125,0,41.9001963125,0,41.9001963125,0C34.2001953125,0.2,27.5001943125,2.1500001,21.6501953125,5.5C15.4001953125,9.3999996,11.4501953125,15,11.4501953125,21.25C11.4501953125,21.25,11.4501953125,21.299999,11.4501953125,21.299999C11.4501953125,21.9,11.5001930115,22.549999,11.6001933025,23.15C19.3501954125,17.65,30.3501953125,14.2,42.5501953125,14.2C54.7501943125,14.2,65.7501943125,17.65,73.5001943125,23.15C80.5501933125,28.200001,84.9001923125,35,84.9001923125,42.5C84.9001923125,26.65,76.2501983125,12.8,63.4001963125,5.5500002C57.5501933125,2.1500001,50.8001933125,0.2,43.6501963125,0C43.6501963125,0,42.8001953125,0,42.8001953125,0C42.8001953125,0,42.8001953125,0,42.8001953125,0C42.8001953125,0,42.8001953125,0,42.8001953125,0Z" fill="#885A12" fill-opacity="1"/><path d="M42.599609375,14.15032958984375C42.599609375,14.15032958984375,42.599609375,42.45032858984375,42.599609375,42.45032858984375C58.799610375,42.45032858984375,72.099609375,50.95032858984375,73.449609375,61.75032758984375C73.549610375,62.40032958984375,73.549610375,63.00032758984375,73.549610375,63.65032958984375C73.549610375,69.85033058984375,69.649608375,75.50032758984375,63.399608375,79.35032658984375C76.199607375,72.05033158984375,84.849609375,58.25032758984375,84.849609375,42.45032858984375C84.849609375,35.00032958984375,80.549610375,28.20032958984375,73.449609375,23.15032958984375C65.749609375,17.60032958984375,54.799609375,14.15032958984375,42.599609375,14.15032958984375C42.599609375,14.15032958984375,42.599609375,14.15032958984375,42.599609375,14.15032958984375C42.599609375,14.15032958984375,42.599609375,14.15032958984375,42.599609375,14.15032958984375Z" fill="#C4A15F" fill-opacity="1"/></svg>