<svg xmlns="http://www.w3.org/2000/svg" xmlns:xlink="http://www.w3.org/1999/xlink" fill="none" version="1.1" width="89.55000305175781" height="58" viewBox="0 0 89.55000305175781 58"><path d="M22.4,0C22.4,0,0.60000002,27.299999,0.60000002,27.299999C0.25,27.75,0,28.35,0,29C0,29.65,0.2,30.25,0.60000002,30.700001C0.60000002,30.700001,22.4,58,22.4,58C22.4,58,67.150002,58,67.150002,58C67.150002,58,88.949997,30.700001,88.949997,30.700001C89.300003,30.25,89.550003,29.65,89.550003,29C89.550003,28.35,89.349998,27.75,88.949997,27.299999C88.949997,27.299999,67.099998,0,67.099998,0C67.099998,0,22.4,0,22.4,0C22.4,0,22.4,0,22.4,0ZM53,2.5C53,2.5,73.5,28.75,73.5,28.75C73.5,28.75,53,55,53,55C53,55,53,2.5,53,2.5C53,2.5,53,2.5,53,2.5ZM16,28.75C16,28.75,36.5,2.5,36.5,2.5C36.5,2.5,36.5,55,36.5,55C36.5,55,16,28.75,16,28.75C16,28.75,16,28.75,16,28.75Z" fill="#EA5406" fill-opacity="1"/></svg>