<svg xmlns="http://www.w3.org/2000/svg" xmlns:xlink="http://www.w3.org/1999/xlink" fill="none" version="1.1" width="88" height="74.49951171875" viewBox="0 0 88 74.49951171875"><path d="M74.498001,37.247002C74.498001,57.825001,57.818199,74.499397,37.247002,74.499397C16.673,74.499397,0,57.825001,0,37.247002C0,16.6798,16.673,0,37.247002,0C57.818199,0,74.498001,16.6798,74.498001,37.247002C74.498001,37.247002,74.498001,37.247002,74.498001,37.247002Z" fill-rule="evenodd" fill="#23B0DB" fill-opacity="1"/><path d="M87.9999577331543,37.24700200000182C87.9999577331543,57.82500100000182,71.32565673315429,74.49939700000182,50.753059733154295,74.49939700000182C30.181857733154295,74.49939700000182,13.507457733154297,57.82500100000182,13.507457733154297,37.24700200000182C13.507457733154297,16.67980000000182,30.181857733154295,1.8189894035458565e-12,50.753059733154295,1.8189894035458565e-12C71.32565673315429,1.8189894035458565e-12,87.9999577331543,16.67980000000182,87.9999577331543,37.24700200000182C87.9999577331543,37.24700200000182,87.9999577331543,37.24700200000182,87.9999577331543,37.24700200000182Z" fill-rule="evenodd" fill="#DD4E33" fill-opacity="1"/><path d="M43.99977471105957,0.6259706020355225C26.65487571105957,3.8019707020355225,13.50877571105957,18.984170602035523,13.50877571105957,37.24727060203552C13.50877571105957,55.51577160203552,26.65487571105957,70.69657260203552,43.99977471105957,73.87937360203553C61.34607471105957,70.69657260203552,74.49757571105957,55.51577160203552,74.49757571105957,37.24727060203552C74.49757571105957,18.984170602035523,61.34607471105957,3.8019707020355225,43.99977471105957,0.6259706020355225C43.99977471105957,0.6259706020355225,43.99977471105957,0.6259706020355225,43.99977471105957,0.6259706020355225Z" fill-rule="evenodd" fill="#2487C6" fill-opacity="1"/><path d="M70.89238571166992,34.80696675446777C70.89238571166992,34.80696675446777,65.14836551166992,34.80696675446777,65.14836551166992,34.80696675446777C65.14836551166992,34.80696675446777,65.14836551166992,30.844786654467775,65.14836551166992,30.844786654467775C65.14836551166992,30.844786654467775,70.89238571166992,30.844786654467775,70.89238571166992,30.844786654467775C71.72338571166992,30.844786654467775,72.35588571166993,31.003926254467775,72.76528571166992,31.320846554467774C73.08628571166992,31.569756554467773,73.28358571166993,31.889396654467774,73.28358571166993,32.736786354467775C73.28358571166993,33.414146454467776,73.08088571166992,33.907896554467776,72.66468571166992,34.24113655446777C72.19948571166992,34.62198635446777,71.61868571166993,34.80696675446777,70.89238571166992,34.80696675446777C70.89238571166992,34.80696675446777,70.89238571166992,34.80696675446777,70.89238571166992,34.80696675446777ZM65.14836551166992,39.026206454467776C65.14836551166992,39.026206454467776,71.39158571166992,39.026206454467776,71.39158571166992,39.026206454467776C72.33278571166993,39.026206454467776,73.05638571166992,39.23430645446777,73.54608571166992,39.65600645446777C74.00448571166993,40.05450645446777,74.22338571166992,40.62710645446777,74.22338571166992,41.40110645446777C74.22338571166992,42.16140645446777,74.03978571166992,42.61430745446778,73.53248571166992,43.05910645446777C73.05098571166992,43.494405454467774,72.33278571166993,43.707906454467775,71.39158571166992,43.707906454467775C71.39158571166992,43.707906454467775,65.14836551166992,43.707906454467775,65.14836551166992,43.707906454467775C65.14836551166992,43.707906454467775,65.14836551166992,39.026206454467776,65.14836551166992,39.026206454467776C65.14836551166992,39.026206454467776,65.14836551166992,39.026206454467776,65.14836551166992,39.026206454467776ZM78.14618471166992,37.87820645446777C77.66878471166993,37.23350645446777,77.05668671166993,36.728906454467776,76.31948671166992,36.365726454467776C76.74658571166992,36.04472635446777,77.12198671166992,35.66931625446777,77.43068471166993,35.247666354467775C78.03868471166993,34.40163655446777,78.34068471166992,33.39510635446777,78.34068471166992,32.241686354467774C78.34068471166992,30.349686354467774,77.66878471166993,28.902456554467772,76.34938671166992,27.944896454467774C75.09258571166993,27.040383454467772,73.43858571166992,26.582006454467773,71.42288571166992,26.582006454467773C71.42288571166992,26.582006454467773,60.08988571166992,26.582006454467773,60.08988571166992,26.582006454467773C60.08988571166992,26.582006454467773,60.08988571166992,47.96940645446777,60.08988571166992,47.96940645446777C60.08988571166992,47.96940645446777,70.86248571166992,47.96940645446777,70.86248571166992,47.96940645446777C72.27158571166993,47.96940645446777,73.52158571166993,47.81430645446777,74.55128571166992,47.50550645446778C75.61078571166992,47.19680545446778,76.49898571166992,46.761507454467775,77.19268571166992,46.213405454467775C77.91498571166991,45.64890645446778,78.44948571166992,44.96470645446777,78.78138571166993,44.17990645446777C79.11458571166992,43.41140545446777,79.28188471166992,42.57760645446777,79.28188471166992,41.69620645446777C79.28188471166992,40.19050645446777,78.90108471166992,38.906506454467774,78.14618471166992,37.87820645446777C78.14618471166992,37.87820645446777,78.14618471166992,37.87820645446777,78.14618471166992,37.87820645446777Z" fill-rule="evenodd" fill="#FFFFFF" fill-opacity="1"/><path d="M50.84955172729492,40.26903782653808C47.84905172729492,35.96137812653809,44.03513142729492,31.188537626538086,40.553091527294924,27.373250846538085C40.138241727294925,26.879508826538085,39.61457152729492,26.636037826538086,38.96577162729492,26.636037826538086C38.96577162729492,26.636037826538086,34.69755172729492,26.636037826538086,34.69755172729492,26.636037826538086C34.69755172729492,26.636037826538086,34.69755172729492,47.92813882653809,34.69755172729492,47.92813882653809C34.69755172729492,47.92813882653809,39.85260152729492,47.92813882653809,39.85260152729492,47.92813882653809C39.85260152729492,47.92813882653809,39.85260152729492,34.134667826538085,39.85260152729492,34.134667826538085C41.88742162729492,36.627867726538085,46.231851727294924,42.053637826538086,50.098751727294925,47.630338826538086C50.098751727294925,47.630338826538086,50.30825172729492,47.92813882653809,50.30825172729492,47.92813882653809C50.30825172729492,47.92813882653809,56.00325172729492,47.92813882653809,56.00325172729492,47.92813882653809C56.00325172729492,47.92813882653809,56.00325172729492,26.636037826538086,56.00325172729492,26.636037826538086C56.00325172729492,26.636037826538086,50.84955172729492,26.636037826538086,50.84955172729492,26.636037826538086C50.84955172729492,26.636037826538086,50.84955172729492,40.26903782653808,50.84955172729492,40.26903782653808C50.84955172729492,40.26903782653808,50.84955172729492,40.26903782653808,50.84955172729492,40.26903782653808Z" fill-rule="evenodd" fill="#FFFFFF" fill-opacity="1"/><path d="M28.801474750305175,36.61540464477539C27.241373750305176,35.69316484477539,25.052873750305174,35.23478504477539,21.494673750305175,35.06884484477539C18.381214150305176,34.92602444477539,16.359993950305174,34.68255424477539,15.471803650305176,34.34387444477539C14.929093850305176,34.14120484477539,14.644813550305177,33.86645464477539,14.669293850305177,32.98506454477539C14.691063850305175,32.17031474477539,14.888283750305176,31.84387444477539,15.513963650305175,31.58136464477539C16.418483750305175,31.207314444775392,18.220713650305175,30.99104454477539,20.470473750305175,30.99104454477539C20.784673750305174,30.99104454477539,21.120573750305176,30.99920464477539,21.447073750305176,31.00464484477539C24.433973750305178,31.08217474477539,28.492773750305176,31.74866484477539,29.356472750305176,31.958124644775392C29.356472750305176,31.958124644775392,30.211973750305177,32.17031474477539,30.211973750305177,32.17031474477539C30.211973750305177,32.17031474477539,30.211973750305177,27.480441634775392,30.211973750305177,27.480441634775392C30.211973750305177,27.480441634775392,29.640673750305176,27.38114863477539,29.640673750305176,27.38114863477539C27.909172750305174,27.07238966477539,24.404073750305177,26.55960464477539,20.35757375030518,26.55960464477539C17.507973650305175,26.55960464477539,13.698133750305175,26.89420765477539,11.728603750305176,28.50465464477539C10.330349740305175,29.65943454477539,9.789000753305176,30.92031474477539,9.741394703005176,33.17004444477539C9.699229352305176,35.22934434477539,10.479968730305176,36.78270464477539,12.050963650305176,37.78240464477539C13.611083750305175,38.771204644775395,16.388553650305177,39.09090464477539,20.077373750305178,39.27040464477539C22.589573750305178,39.39550464477539,24.457073750305177,39.56280464477539,25.421473750305175,39.98990464477539C25.927473750305175,40.21570464477539,26.200873750305174,40.51900464477539,26.211674750305175,41.47800464477539C26.219874750305177,42.19210464477539,25.968273750305176,42.601505644775386,25.33167375030518,42.936103644775386C24.814873750305175,43.21630464477539,23.528073750305175,43.549505644775394,20.368373750305174,43.549505644775394C19.935873750305177,43.549505644775394,19.48839375030518,43.542705644775396,19.030014050305176,43.53050464477539C16.097483650305175,43.45970564477539,12.763693850305176,42.89390364477539,11.336873750305175,42.519904644775394C11.336873750305175,42.519904644775394,10.466366770305175,42.28590464477539,10.466366770305175,42.28590464477539C10.466366770305175,42.28590464477539,10.466366770305175,47.007104644775396,10.466366770305175,47.007104644775396C10.466366770305175,47.007104644775396,11.067563750305176,47.10230464477539,11.067563750305176,47.10230464477539C12.733773750305176,47.368903644775386,15.834963750305175,47.86940364477539,19.481583550305174,47.89800464477539C19.691053350305175,47.90480464477539,19.904573750305175,47.90480464477539,20.124973750305173,47.90480464477539C23.160873750305175,47.90480464477539,26.921772750305177,47.69120364477539,29.093973750305175,46.02910464477539C30.807774750305175,44.720603644775395,31.139673750305175,42.75790364477539,31.116472750305174,41.347404644775395C31.086573750305178,39.062304644775395,30.331673750305175,37.50900464477539,28.801474750305175,36.61540464477539C28.801474750305175,36.61540464477539,28.801474750305175,36.61540464477539,28.801474750305175,36.61540464477539Z" fill-rule="evenodd" fill="#FFFFFF" fill-opacity="1"/></svg>