<svg xmlns="http://www.w3.org/2000/svg" xmlns:xlink="http://www.w3.org/1999/xlink" fill="none" version="1.1" width="180" height="180" viewBox="0 0 180 180"><defs><filter id="master_svg0_0_6208" filterUnits="objectBoundingBox" color-interpolation-filters="sRGB" x="-0.203125" y="-0.078125" width="1.40625" height="1.40625"><feFlood flood-opacity="0" result="BackgroundImageFix"/><feColorMatrix in="SourceAlpha" type="matrix" values="0 0 0 0 0 0 0 0 0 0 0 0 0 0 0 0 0 0 127 0"/><feOffset dy="16" dx="0"/><feGaussianBlur stdDeviation="6.5"/><feColorMatrix type="matrix" values="0 0 0 0 0 0 0 0 0 0 0 0 0 0 0 0 0 0 0.029999999329447746 0"/><feBlend mode="normal" in2="BackgroundImageFix" result="effect1_dropShadow"/><feBlend mode="normal" in="SourceGraphic" in2="effect1_dropShadow" result="shape"/></filter><clipPath id="master_svg1_0_6208"><rect x="26" y="10" width="128" height="128" rx="0"/></clipPath></defs><g filter="url(#master_svg0_0_6208)"><g clip-path="url(#master_svg1_0_6208)"><path d="M91.25,33C91.25,33,91.25,95.5,91.25,95.5C91.25,104.400002,96.8000002,112.400002,105.1,115.5C105.1,115.5,120.75,67.5,120.75,67.5C120.75,67.5,91.25,33,91.25,33C91.25,33,91.25,33,91.25,33Z" fill="#00468E" fill-opacity="1"/><path d="M59.25,67.5C59.25,67.5,74.9,115.5,74.9,115.5C83.200001,112.400002,88.75,104.400002,88.75,95.5C88.75,95.5,88.75,33,88.75,33C88.75,33,59.25,67.5,59.25,67.5C59.25,67.5,59.25,67.5,59.25,67.5Z" fill="#209AFA" fill-opacity="1"/></g></g></svg>