<svg xmlns="http://www.w3.org/2000/svg" xmlns:xlink="http://www.w3.org/1999/xlink" fill="none" version="1.1" width="81.50574493408203" height="76.99549865722656" viewBox="0 0 81.50574493408203 76.99549865722656"><path d="M15,11.195498C15,11.195498,35.349998,5.4954786,35.349998,5.4954786C35.349998,5.4954786,35.5,23.145498,35.5,23.145498C35.5,23.145498,15.15,28.495499,15.15,28.495499C15.15,28.495499,15,11.195498,15,11.195498C15,11.195498,15,11.195498,15,11.195498ZM16.35,41.8955C16.35,41.8955,34.700001,37.195499,34.700001,37.195499C34.700001,37.195499,34.700001,60.245499,34.700001,60.245499C34.700001,60.245499,50.650002,55.6455,50.650002,55.6455C50.650002,55.6455,50.650002,0.54547578,50.650002,0.54547578C70.75,-3.6545212,89.400002,17.195499,66.150002,35.745499C89.300003,35.745499,84.900002,62.995499,62.150002,69.295502C62.150002,69.295502,28.85,76.995499,28.85,76.995499C28.85,76.995499,0,69.295502,0,69.295502C0,69.295502,16.35,64.845497,16.35,64.845497C16.35,64.845497,16.35,41.8955,16.35,41.8955C16.35,41.8955,16.35,41.8955,16.35,41.8955C16.35,41.8955,16.35,41.8955,16.35,41.8955Z" fill="#E30016" fill-opacity="1"/></svg>