<svg xmlns="http://www.w3.org/2000/svg" xmlns:xlink="http://www.w3.org/1999/xlink" fill="none" version="1.1" width="84" height="84" viewBox="0 0 84 84"><g><path d="M84,42C84,65.195999,65.195999,84,42,84C18.804001,84,0,65.195999,0,42C0,18.804001,18.804001,0,42,0C65.195999,0,84,18.804001,84,42ZM52.090858,26.395584C57.933258,28.401882,62.206955,31.405983,61.368557,36.996681C60.759556,41.090584,58.481655,43.070583,55.454956,43.763885C59.607357,45.917183,61.022556,50.003883,59.707558,54.945282C57.210857,62.056484,51.276257,62.655182,43.382759,61.168884L41.466057,68.813187L36.839058,67.662979L38.729454,60.121082C37.529854,59.824383,36.303856,59.506683,35.041058,59.167885L33.142757,66.746483L28.521116,65.596283L30.435177,57.936283L21.115356,55.593884L23.414337,50.315681C23.414337,50.315681,26.825886,51.216385,26.778437,51.150784C28.088747,51.473782,28.671396,50.622982,28.900766,50.058384L34.094559,29.310383C34.152557,28.330982,33.812454,27.096684,31.937958,26.629284C32.009155,26.579384,28.576487,25.796883,28.576487,25.796883L29.807707,20.873133L39.140656,23.176123L41.038956,15.602783L45.663254,16.752964L43.804558,24.176624C45.048958,24.457613,46.298656,24.743843,47.514057,25.045834L49.359558,17.669434L53.986557,18.819613L52.090858,26.395584ZM52.225365,36.915154C51.029888,41.682632,44.17141,39.864338,41.019585,39.028736C40.730568,38.952114,40.472721,38.883755,40.253265,38.829491L42.557514,29.622803C42.823463,29.689095,43.149513,29.761181,43.519238,29.842922C46.781712,30.564222,53.444954,32.037399,52.225365,36.915154ZM50.793743,51.767647C49.479992,57.021008,41.223587,54.846226,37.448547,53.85186C37.109898,53.762661,36.807316,53.682957,36.549042,53.618969L39.090572,43.472168C39.405869,43.550549,39.791092,43.636646,40.227486,43.734177C44.133419,44.607162,52.138405,46.396297,50.793743,51.767647Z" fill-rule="evenodd" fill="#F7931A" fill-opacity="1"/></g></svg>