<svg xmlns="http://www.w3.org/2000/svg" xmlns:xlink="http://www.w3.org/1999/xlink" fill="none" version="1.1" width="85" height="85" viewBox="0 0 85 85"><path d="M66.599998,55.450001C66.599998,55.450001,65.849998,57.650002,64.050003,62.049999C62.25,66.5,60.650002,66.349998,59.150002,66.349998C57.650002,66.349998,26.4,66.5,26.4,66.5C26.4,66.5,25.799999,66.449997,26.049999,65.349998C26.299999,64.25,43.75,16.5,43.75,16.5C43.75,16.5,60.299999,16.549999,60.299999,16.549999C60.299999,16.549999,47.5,51.400002,47.5,51.400002C47.5,51.400002,63.799999,51.25,63.799999,51.25C68.599998,51.25,66.599998,55.450001,66.599998,55.450001C66.599998,55.450001,66.599998,55.450001,66.599998,55.450001C66.599998,55.450001,66.599998,55.450001,66.599998,55.450001ZM16.700001,37.5C16.700001,37.5,13.5,38,14.85,33.150002C14.85,33.150002,17.85,25,17.85,25C17.85,25,19.200001,22.549999,22.950001,22.549999C22.950001,22.549999,37,22.549999,37,22.549999C37,22.549999,31.4,37.299999,31.4,37.299999C31.4,37.299999,16.700001,37.5,16.700001,37.5C16.700001,37.5,16.700001,37.5,16.700001,37.5ZM57.799999,37.5C57.799999,37.5,63.150002,22,63.150002,22C63.150002,22,79.699997,22,79.699997,22C72.449997,9,58.950001,0,42.849998,0C19.25,0,0,18.35,0,42.5C0,45.200001,0.25,48.599998,0.75,51.150002C0.75,51.150002,26.049999,51.150002,26.049999,51.150002C26.049999,51.150002,20.85,66.400002,20.85,66.400002C20.85,66.400002,7.0999999,66.400002,7.0999999,66.400002C14.7,77.849998,27,85,42.700001,85C66.25,85,85,65.150002,85,42.700001C85,40.900002,84.900002,39.650002,84.900002,37.5C84.900002,37.5,57.799999,37.5,57.799999,37.5C57.799999,37.5,57.799999,37.5,57.799999,37.5Z" fill="#00633E" fill-opacity="1"/></svg>