<svg xmlns="http://www.w3.org/2000/svg" xmlns:xlink="http://www.w3.org/1999/xlink" fill="none" version="1.1" width="85" height="85" viewBox="0 0 85 85"><path d="M42.5,0C65.956497,0,84.922501,18.9835,85,42.461498C85,65.939003,65.956497,85,42.5,85C19.043501,85,0,65.939003,0,42.461498C0,18.9835,19.043501,0,42.5,0C42.5,0,42.5,0,42.5,0ZM42.422501,3.487C20.901501,3.487,3.4835,20.9205,3.4835,42.461498C3.4835,64.001503,20.979,81.435501,42.5,81.435501C63.943501,81.435501,81.439003,64.001999,81.362,42.461498C81.362,20.9205,63.943501,3.4865,42.422501,3.4865C42.422501,3.4865,42.422501,3.487,42.422501,3.487C42.422501,3.487,42.422501,3.487,42.422501,3.487ZM42.461498,6C47.575001,6,52.456501,7.0050001,56.873001,8.9370003C57.57,9.3234997,58.5,10.019,58.5,11.024C58.5,12.9565,55.787998,12.57,52.456501,15.198C49.417999,17.622999,47.794498,21.013,47.731499,24.787001C47.731499,24.787001,47.73,25.014,47.73,25.014C47.73,25.014,47.73,78.113998,47.73,78.113998C46.025002,78.345497,44.2435,78.5,42.461498,78.5C40.857498,78.5,39.253502,78.375,37.706501,78.180496C37.706501,78.180496,37.192501,78.113503,37.192501,78.113503C37.192501,78.113503,37.192501,25.0135,37.192501,25.0135C37.192501,21.1495,35.642502,17.671,32.543499,15.198C29.135,12.57,26.5,12.9565,26.5,11.024C26.5,9.9420004,27.43,9.3240004,28.127001,8.9370003C32.543499,7.0819998,37.347,6,42.461498,6C42.461498,6,42.461498,6,42.461498,6ZM58.369999,16.194C58.369999,16.194,58.369999,75.160004,58.369999,75.160004C56.257,76.253998,53.938,77.073502,51.607498,77.682503C51.607498,77.682503,51.170502,77.794502,51.170502,77.794502C51.170502,77.794502,51.170502,26.267,51.170502,26.267C51.170502,22.702999,52.409,20.146,54.886002,18.209C56.125,17.278999,57.596001,16.581499,58.369999,16.194C58.369999,16.194,58.369999,16.194,58.369999,16.194ZM26.552999,75.160004C26.552999,75.160004,26.552999,16.195,26.552999,16.195C26.552999,16.195,27.177999,16.506001,27.177999,16.506001C27.9835,16.910999,29.0795,17.490999,30.036501,18.209499C32.459999,20.1045,33.698002,22.592501,33.7505,26.036501C33.7505,26.036501,33.752499,26.2675,33.752499,26.2675C33.752499,26.2675,33.752499,77.794502,33.752499,77.794502C31.440001,77.216003,29.195499,76.3675,27.018499,75.374496C27.018499,75.374496,26.552999,75.160004,26.552999,75.160004C26.552999,75.160004,26.552999,75.160004,26.552999,75.160004ZM23.069,11.7775C23.069,11.7775,23.069,40.214001,23.069,40.214001C18.966499,40.136501,17.417999,37.657001,16.954,36.650002C16.5665,35.875,16.334,35.022999,15.6375,35.022999C14.4765,35.022999,13.47,38.509499,13.47,42.771C13.47,42.771,13.473,43.168499,13.473,43.168499C13.533,47.247501,14.513,50.519501,15.6375,50.519501C16.334,50.519501,16.5665,49.6675,16.953501,48.892502C16.953501,48.892502,17.063499,48.682499,17.063499,48.682499C17.629,47.6465,19.186501,45.480999,22.863001,45.334C22.863001,45.334,23.069,45.327999,23.069,45.327999C23.069,45.327999,23.069,73.144997,23.069,73.144997C12.928,66.713997,6.1929998,55.401001,6.1929998,42.461498C6.1929998,29.5215,12.8505,18.209,23.069,11.7775C23.069,11.7775,23.069,11.7775,23.069,11.7775C23.069,11.7775,23.069,11.7775,23.069,11.7775ZM61.931,11.7C71.529999,17.821501,78.032997,28.204,78.7295,40.214001C74.781502,40.058998,73.310501,37.580002,72.846001,36.650002C72.459,35.875,72.226997,35.022999,71.529999,35.022999C70.291496,35.022999,69.362503,38.509499,69.362503,42.771C69.362503,42.771,69.364998,43.168499,69.364998,43.168499C69.420998,47.247501,70.330002,50.519501,71.529999,50.519501C72.170998,50.519501,72.418999,49.798,72.755997,49.079498C72.755997,49.079498,72.846001,48.892502,72.846001,48.892502C73.310997,47.962502,74.780998,45.560501,78.652,45.2505C77.808998,56.834,71.427002,66.898003,62.210999,72.887001C62.210999,72.887001,61.931,73.067001,61.931,73.067001C61.931,73.067001,61.931,11.7,61.931,11.7C61.931,11.7,61.931,11.7,61.931,11.7Z" fill="#D7000F" fill-opacity="1"/></svg>