<svg xmlns="http://www.w3.org/2000/svg" xmlns:xlink="http://www.w3.org/1999/xlink" fill="none" version="1.1" width="99.94999694824219" height="81" viewBox="0 0 99.94999694824219 81"><path d="M66.449997,70.75C59.25,70.75,53.049999,74.949997,50.299999,81C50.299999,81,49.099998,81,49.099998,81C46.349998,74.949997,40.150002,70.75,32.950001,70.75C32.950001,70.75,32.950001,67.800003,32.950001,67.800003C40.150002,67.800003,46.349998,63.599998,49.099998,57.549999C49.099998,57.549999,50.299999,57.549999,50.299999,57.549999C53.049999,63.599998,59.25,67.800003,66.449997,67.800003C66.449997,67.800003,66.449997,70.75,66.449997,70.75C66.449997,70.75,66.449997,70.75,66.449997,70.75ZM50.200001,51.75C43.049999,51.75,36.900002,55.950001,34.150002,62C34.150002,62,32.950001,62,32.950001,62C30.200001,55.950001,24.049999,51.700001,16.9,51.700001C16.9,51.700001,16.9,48.75,16.9,48.75C24.049999,48.75,30.200001,44.549999,32.950001,38.5C32.950001,38.5,34.150002,38.5,34.150002,38.5C36.900002,44.549999,43.049999,48.75,50.150002,48.75C57.299999,48.75,63.450001,44.549999,66.199997,38.5C66.199997,38.5,67.400002,38.5,67.400002,38.5C70.150002,44.549999,76.300003,48.75,83.449997,48.75C83.449997,48.75,83.449997,51.700001,83.449997,51.700001C76.300003,51.700001,70.150002,55.900002,67.400002,62C67.400002,62,66.199997,62,66.199997,62C63.5,55.950001,57.349998,51.75,50.200001,51.75C50.200001,51.75,50.200001,51.75,50.200001,51.75ZM33.299999,32.25C26.15,32.25,20,36.450001,17.25,42.5C17.25,42.5,16.049999,42.5,16.049999,42.5C13.3,36.450001,7.1500001,32.200001,0,32.200001C0,32.200001,0,29.25,0,29.25C7.1500001,29.25,13.3,25.049999,16.049999,19C16.049999,19,17.25,19,17.25,19C20,25.049999,26.15,29.299999,33.299999,29.299999C40.450001,29.299999,46.599998,25.1,49.349998,19C49.349998,19,50.549999,19,50.549999,19C53.299999,25.049999,59.450001,29.25,66.599998,29.25C73.75,29.25,79.949997,25.049999,82.699997,19C82.699997,19,83.900002,19,83.900002,19C86.650002,25.049999,92.800003,29.299999,99.949997,29.299999C99.949997,29.299999,99.949997,32.25,99.949997,32.25C92.800003,32.25,86.650002,36.450001,83.900002,42.5C83.900002,42.5,82.699997,42.5,82.699997,42.5C79.949997,36.450001,73.800003,32.200001,66.650002,32.200001C59.5,32.200001,53.349998,36.400002,50.599998,42.5C50.599998,42.5,49.400002,42.5,49.400002,42.5C46.599998,36.450001,40.450001,32.25,33.299999,32.25C33.299999,32.25,33.299999,32.25,33.299999,32.25ZM50.200001,13.25C43.049999,13.25,36.900002,17.450001,34.150002,23.5C34.150002,23.5,32.950001,23.5,32.950001,23.5C30.200001,17.450001,24.049999,13.2,16.950001,13.2C16.950001,13.2,16.950001,10.25,16.950001,10.25C24.1,10.25,30.25,6.0500002,33,0C33,0,34.200001,0,34.200001,0C36.950001,6.0500002,43.099998,10.3,50.25,10.3C57.400002,10.3,63.549999,6.0999999,66.25,0C66.25,0,67.449997,0,67.449997,0C70.199997,6.0500002,76.349998,10.25,83.5,10.25C83.5,10.25,83.5,13.2,83.5,13.2C76.349998,13.2,70.199997,17.4,67.449997,23.5C67.449997,23.5,66.25,23.5,66.25,23.5C63.5,17.450001,57.349998,13.25,50.200001,13.25C50.200001,13.25,50.200001,13.25,50.200001,13.25Z" fill="#B21E27" fill-opacity="1"/></svg>