<svg xmlns="http://www.w3.org/2000/svg" xmlns:xlink="http://www.w3.org/1999/xlink" fill="none" version="1.1" width="85" height="85" viewBox="0 0 85 85"><path d="M58.200001,52.299999C58.200001,52.299999,42.950001,67.349998,42.950001,67.349998C42.950001,67.349998,17.549999,42.450001,17.549999,42.450001C17.549999,42.450001,42.950001,17.15,42.950001,17.15C42.950001,17.15,58.799999,33.200001,58.799999,33.200001C58.799999,33.200001,85,33.200001,85,33.200001C80.699997,14.2,63.549999,0,43,0C19.25,0,0,19.049999,0,42.5C0,65.949997,19.25,85,43,85C63.349998,85,80.349998,71.050003,84.849998,52.299999C84.849998,52.299999,58.200001,52.299999,58.200001,52.299999C58.200001,52.299999,58.200001,52.299999,58.200001,52.299999C58.200001,52.299999,58.200001,52.299999,58.200001,52.299999Z" fill="#3C52A2" fill-opacity="1"/><path d="M52.85,31.3000002C52.85,31.3000002,42.9,41.1,42.9,41.1C42.9,41.1,32.95,31.3000002,32.95,31.3000002C32.95,31.3000002,42.9,21.5,42.9,21.5C42.9,21.5,52.85,31.3000002,52.85,31.3000002C52.85,31.3000002,52.85,31.3000002,52.85,31.3000002C52.85,31.3000002,52.85,31.3000002,52.85,31.3000002ZM52.85,53.200001C52.85,53.200001,42.9,63,42.9,63C42.9,63,32.95,53.200001,32.95,53.200001C32.95,53.200001,42.9,43.4,42.9,43.4C42.9,43.4,52.85,53.200001,52.85,53.200001C52.85,53.200001,52.85,53.200001,52.85,53.200001C52.85,53.200001,52.85,53.200001,52.85,53.200001ZM41.4,42.25C41.4,42.25,31.4499998,52.049999,31.4499998,52.049999C31.4499998,52.049999,21.5,42.25,21.5,42.25C21.5,42.25,31.4499998,32.45,31.4499998,32.45C31.4499998,32.45,41.4,42.25,41.4,42.25C41.4,42.25,41.4,42.25,41.4,42.25C41.4,42.25,41.4,42.25,41.4,42.25ZM64,42.25C64,42.25,54.049999,52.049999,54.049999,52.049999C54.049999,52.049999,44.1,42.25,44.1,42.25C44.1,42.25,54.049999,32.45,54.049999,32.45C54.049999,32.45,64,42.25,64,42.25C64,42.25,64,42.25,64,42.25Z" fill="#D12A27" fill-opacity="1"/></svg>