<svg xmlns="http://www.w3.org/2000/svg" xmlns:xlink="http://www.w3.org/1999/xlink" fill="none" version="1.1" width="84.99996185302734" height="80.53379821777344" viewBox="0 0 84.99996185302734 80.53379821777344"><path d="M58.605301,28.720501C60.157799,31.2432,60.933998,34.154099,61.128101,37.064999C75.488297,40.752102,85.1912,48.708401,84.997101,57.441002C84.997101,70.248802,65.9795,80.533798,42.4986,80.533798C19.017599,80.533798,0,70.248802,0,57.441002C0,48.320301,9.8969297,40.363899,24.063101,36.6768C24.063101,40.169899,24.8393,43.662899,26.585899,46.767799C26.585899,46.767799,39.9758,69.860703,39.9758,69.860703C40.946098,71.607201,41.722301,73.547699,42.1105,75.488297C42.1105,75.488297,42.6926,74.517998,42.6926,74.517998C45.9916,68.890404,45.9916,61.7103,42.6926,56.0826C42.6926,56.0826,32.019501,37.647099,32.019501,37.647099C28.720501,31.825399,28.720501,24.8393,32.019501,19.2117C32.019501,19.2117,32.601601,18.2414,32.601601,18.2414C32.989799,20.181999,33.765999,22.122499,34.736301,23.869101C34.736301,23.869101,40.946098,34.736301,40.946098,34.736301C40.946098,34.736301,50.648998,51.619301,50.648998,51.619301C51.619301,53.365799,52.3955,55.3064,52.7836,57.246899C52.7836,57.246899,53.365799,56.2766,53.365799,56.2766C56.664799,50.648998,56.664799,43.468899,53.365799,37.841202C53.365799,37.841202,42.6926,19.405701,42.6926,19.405701C39.3937,13.7781,39.3937,6.59795,42.6926,0.97028702C42.6926,0.97028702,43.274799,0,43.274799,0C43.662899,1.94057,44.439098,3.88115,45.409401,5.6276598C45.409401,5.6276598,58.605301,28.720501,58.605301,28.720501C58.605301,28.720501,58.605301,28.720501,58.605301,28.720501Z" fill="#EA1D25" fill-opacity="1"/></svg>