<svg xmlns="http://www.w3.org/2000/svg" xmlns:xlink="http://www.w3.org/1999/xlink" fill="none" version="1.1" width="75" height="74.96932983398438" viewBox="0 0 75 74.96932983398438"><path d="M0,0.13517541C0,0.13517541,0.15000001,74.785202,0.15000001,74.785202C14.1,75.235199,22.200001,71.785202,28.700001,67.185204C33.900002,63.485199,37.200001,58.785202,39.5,54.285202C41.700001,49.985199,42.150002,46.6852,45.349998,43.385201C47.150002,41.535202,49.450001,39.535202,54.150002,37.6852C54.150002,37.6852,54.150002,37.4352,54.150002,37.4352C50.099998,35.885201,47.049999,33.9352,45.200001,31.5352C44.400002,30.5352,44.549999,30.4352,44.900002,29.235201C47.200001,20.5352,56.049999,13.8352,64.550003,12.2852C64.550003,12.2852,64.449997,62.535202,64.449997,62.535202C60.599998,62.335201,56.599998,60.135201,53.75,58.035202C50.25,55.485199,47.700001,52.135201,45.799999,48.235199C45.799999,48.235199,45.450001,48.1852,45.450001,48.1852C44.150002,52.835201,42.150002,56.785202,39.75,60.335201C46.799999,70.435204,58.400002,75.435204,75,74.935204C75,74.935204,75,0.18517642,75,0.18517642C68.300003,-0.2648226,62.25,0.33517641,57.099998,2.0851805C46.75,5.5851803,39.650002,12.735201,36.599998,19.0352C32.900002,26.735201,30.75,34.4352,20.950001,37.135201C20.549999,37.6852,20.700001,37.535202,21.25,37.735199C25.15,39.285202,28.450001,41.385201,30.5,44.485199C30.450001,46.9352,26.85,52.735199,24.15,55.485199C20.549999,59.135201,16,61.285202,10.9,62.585201C10.9,62.585201,10.75,12.3352,10.75,12.3352C20.15,14.0352,25.75,19.835201,29.65,27.4352C30.799999,22.4352,32.799999,18.085201,35.549999,14.2852C27,4.1851702,15.35,-0.9148246,0,0.13517541C0,0.13517541,0,0.13517541,0,0.13517541Z" fill="#B41D22" fill-opacity="1"/></svg>