<svg xmlns="http://www.w3.org/2000/svg" xmlns:xlink="http://www.w3.org/1999/xlink" fill="none" version="1.1" width="87.9999771118164" height="86.30419921875" viewBox="0 0 87.9999771118164 86.30419921875"><path d="M39.109901,0.120703C39.109901,0.120703,0.0014410485,3.9832799,0.0014410485,44.540199C0.0014410485,44.540199,-0.843494,78.699799,38.3857,85.942101C38.3857,85.942101,39.109901,85.459297,39.109901,85.459297C39.109901,85.459297,39.109901,52.748199,39.109901,52.748199C39.109901,52.748199,48.645599,47.5578,48.645599,47.5578C48.645599,47.5578,50.214802,67.715599,50.214802,67.715599C50.214802,67.715599,51.5425,51.299702,51.5425,51.299702C51.5425,51.299702,52.387501,66.267097,52.387501,66.267097C52.387501,66.267097,53.835899,50.092602,53.835899,50.092602C53.835899,50.092602,55.284401,64.577301,55.284401,64.577301C55.284401,64.577301,56.612202,49.126999,56.612202,49.126999C56.612202,49.126999,57.819199,63.370201,57.819199,63.370201C57.819199,63.370201,59.026299,47.919998,59.026299,47.919998C59.026299,47.919998,60.354,61.921799,60.354,61.921799C60.354,61.921799,60.9576,16.1745,60.9576,16.1745C60.9576,16.1745,75.080101,21.606199,76.407799,41.643299C76.407799,41.643299,79.787598,66.1464,49.731998,74.595802C49.731998,74.595802,49.731998,86.304199,49.731998,86.304199C49.731998,86.304199,88.478302,82.3209,87.995499,41.764C87.995499,41.764,87.754097,4.7075,49.3699,0C49.3699,0,49.3699,33.556,49.3699,33.556C49.3699,33.556,39.954899,38.505001,39.954899,38.505001C39.954899,38.505001,38.8685,17.9851,38.8685,17.9851C38.8685,17.9851,37.419998,34.642399,37.419998,34.642399C37.419998,34.642399,35.609501,19.312799,35.609501,19.312799C35.609501,19.312799,34.402401,36.211601,34.402401,36.211601C34.402401,36.211601,33.074699,20.882,33.074699,20.882C33.074699,20.882,31.867599,37.1772,31.867599,37.1772C31.867599,37.1772,30.5399,22.3305,30.5399,22.3305C30.5399,22.3305,29.453501,38.625702,29.453501,38.625702C29.453501,38.625702,28.4879,23.296101,28.4879,23.296101C28.4879,23.296101,27.0394,69.526199,27.0394,69.526199C27.0394,69.526199,12.9169,62.646,11.9513,43.816002C11.9513,43.816002,10.7442,16.657301,38.989201,11.1049C38.989201,11.1049,39.109901,0.120703,39.109901,0.120703C39.109901,0.120703,39.109901,0.120703,39.109901,0.120703Z" fill="#E60011" fill-opacity="1"/></svg>