<svg xmlns="http://www.w3.org/2000/svg" xmlns:xlink="http://www.w3.org/1999/xlink" fill="none" version="1.1" width="84.85009765625" height="85" viewBox="0 0 84.85009765625 85"><path d="M51.049999,42.450001C42.549999,33.950001,34.049999,25.450001,25.6,16.950001C25.6,16.950001,25.6,16.85,25.6,16.85C25.6,16.85,42.349998,0,42.349998,0C42.349998,0,42.450001,0,42.450001,0C42.450001,0,84.849998,42.450001,84.849998,42.450001C84.800003,42.549999,84.75,42.599998,84.699997,42.700001C84.699997,42.700001,51.049999,42.450001,51.049999,42.450001C51.049999,42.450001,51.049999,42.450001,51.049999,42.450001ZM42.5,84.949997C42.5,84.949997,42.400002,85,42.400002,85C42.400002,85,42.5,84.949997,42.5,84.949997C42.5,84.949997,42.5,84.949997,42.5,84.949997ZM21,42.75C20.950001,42.700001,20.950001,42.650002,20.9,42.549999C17.4,39.049999,13.95,35.549999,10.45,32.099998C10.45,32.099998,10.45,32,10.45,32C10.45,32,23.4,19.049999,23.4,19.049999C23.4,19.049999,47.049999,42.650002,47.049999,42.650002C47.049999,42.650002,21,42.75,21,42.75C21,42.75,21,42.75,21,42.75ZM10.65,53.200001C10.65,53.200001,10.65,53.099998,10.65,53.099998C10.65,53.099998,10.65,53.200001,10.65,53.200001C10.65,53.200001,10.65,53.200001,10.65,53.200001ZM0,42.549999C0,42.549999,0,42.450001,0,42.450001C0,42.450001,8.25,34.200001,8.25,34.200001C8.25,34.200001,16.9,42.849998,16.9,42.849998C16.9,42.849998,16.9,43,16.9,43C16.9,43,0,42.549999,0,42.549999C0,42.549999,0,42.549999,0,42.549999ZM8.8000002,51.099998C8.75,51.150002,8.6999998,51.150002,8.6499996,51.200001C8.6499996,51.200001,8.8000002,51.099998,8.8000002,51.099998Z" fill="#00639E" fill-opacity="1"/><path d="M42.349998,84.99998068945312C42.349998,84.99998068945312,25.549999,68.14998268945313,25.549999,68.14998268945313C25.549999,68.14998268945313,51,42.449981689453125,51,42.449981689453125C51,42.449981689453125,84.849998,42.449981689453125,84.849998,42.449981689453125C84.800003,42.549981689453126,84.75,42.59997768945313,84.699997,42.69997769945312C84.699997,42.69997769945312,42.5,84.94998168945312,42.5,84.94998168945312C42.5,84.94998168945312,42.349998,84.99998068945312,42.349998,84.99998068945312C42.349998,84.99998068945312,42.349998,84.99998068945312,42.349998,84.99998068945312ZM23.549999,66.14998268945313C19.25,61.799981689453126,14.95,57.49998168945312,10.6,53.14998168945313C10.6,53.14998168945313,10.6,53.049981689453126,10.6,53.049981689453126C10.6,53.049981689453126,21,42.749980689453125,21,42.749980689453125C20.950001,42.69998068945313,20.950001,42.64998368945312,20.9,42.54998368945313C20.9,42.54998368945313,47.049999,42.649982689453125,47.049999,42.649982689453125C47.049999,42.649982689453125,23.549999,66.14998268945313,23.549999,66.14998268945313C23.549999,66.14998268945313,23.549999,66.14998268945313,23.549999,66.14998268945313C23.549999,66.14998268945313,23.549999,66.14998268945313,23.549999,66.14998268945313ZM8.6499996,51.19997218945312C8.6499996,51.19997218945312,0,42.54998368945313,0,42.54998368945313C0,42.54998368945313,0,42.449981689453125,0,42.449981689453125C0,42.449981689453125,16.9,42.84997969945312,16.9,42.84997969945312C16.9,42.84997969945312,16.9,42.999980689453125,16.9,42.999980689453125C14.2,45.699981689453125,11.5,48.399981489453126,8.8000002,51.149981489453126C8.75,51.149981489453126,8.6999998,51.14997198945312,8.6499996,51.19997218945312C8.6499996,51.19997218945312,8.6499996,51.19997218945312,8.6499996,51.19997218945312Z" fill="#6088B7" fill-opacity="1"/></svg>