<svg xmlns="http://www.w3.org/2000/svg" xmlns:xlink="http://www.w3.org/1999/xlink" fill="none" version="1.1" width="50.107421875" height="85.000244140625" viewBox="0 0 50.107421875 85.000244140625"><path d="M0,85.00018064441682C0,85.00018064441682,17.662201,85.00018064441682,17.662201,85.00018064441682C17.662201,85.00018064441682,17.662201,54.93388064441681,17.662201,54.93388064441681C17.662201,54.93388064441681,44.365101,37.27098164441681,44.365101,37.27098164441681C44.365101,37.27098164441681,50.107498,33.93867964441681,50.107498,27.78707964441681C50.107498,22.22198064441681,44.365101,17.71687964441681,44.365101,17.71687964441681C44.365101,17.71687964441681,17.2414,0.6857806444168091,17.2414,0.6857806444168091C17.2414,0.6857806444168091,17.451599,19.60908064441681,17.451599,19.60908064441681C17.451599,19.60908064441681,33.221298,29.491681644416808,33.221298,29.491681644416808C33.221298,29.491681644416808,0,51.14848064441681,0,51.14848064441681C0,51.14848064441681,0,85.00018064441682,0,85.00018064441682C0,85.00018064441682,0,85.00018064441682,0,85.00018064441682Z" fill-rule="evenodd" fill="#5B2F28" fill-opacity="1"/><path d="M24.953199,34.890099C24.953199,34.890099,17.662201,30.0674,17.662201,30.0674C17.662201,30.0674,17.662201,19.749399,17.662201,19.749399C17.662201,19.749399,17.451599,19.6175,17.451599,19.6175C17.451599,19.6175,17.241699,0.694179,17.241699,0.694179C17.241699,0.694179,17.662201,0.95830703,17.662201,0.95830703C17.662201,0.95830703,17.662201,0,17.662201,0C17.662201,0,0,0,0,0C0,0,0,33.8517,0,33.8517C0,33.8517,13.2731,42.504501,13.2731,42.504501C13.2731,42.504501,24.953199,34.890099,24.953199,34.890099C24.953199,34.890099,24.953199,34.890099,24.953199,34.890099Z" fill-rule="evenodd" fill="#D7AA25" fill-opacity="1"/><path d="M44.35989786279297,47.72757627309571C44.35989786279297,47.72757627309571,36.46059586279297,42.5027961730957,36.46059586279297,42.5027961730957C36.46059586279297,42.5027961730957,24.94881676279297,50.1174959730957,24.94881676279297,50.1174959730957C24.94881676279297,50.1174959730957,33.21619686279297,55.5067961730957,33.21619686279297,55.5067961730957C33.21619686279297,55.5067961730957,17.65709686279297,65.2575971730957,17.65709686279297,65.2575971730957C17.65709686279297,65.2575971730957,17.65709686279297,84.04929717309571,17.65709686279297,84.04929717309571C17.65709686279297,84.04929717309571,44.35989786279297,67.2808951730957,44.35989786279297,67.2808951730957C44.35989786279297,67.2808951730957,50.10229886279297,62.7771971730957,50.10229886279297,57.2116961730957C50.10229886279297,51.0587863730957,44.35989786279297,47.72757627309571,44.35989786279297,47.72757627309571C44.35989786279297,47.72757627309571,44.35989786279297,47.72757627309571,44.35989786279297,47.72757627309571Z" fill-rule="evenodd" fill="#D7AA25" fill-opacity="1"/></svg>