<svg xmlns="http://www.w3.org/2000/svg" xmlns:xlink="http://www.w3.org/1999/xlink" fill="none" version="1.1" width="80.0999984741211" height="79.94999694824219" viewBox="0 0 80.0999984741211 79.94999694824219"><path d="M39,24.75C39,25.85,38.25,26.65,37,27C31.75,28.15,27.549999,32.049999,26.1,37.150002C25.700001,38.349998,24.5,38.549999,23.85,38.549999C23.85,38.549999,6.1500001,38.549999,6.1500001,38.549999C4.4499998,38.549999,2.95,37.900002,1.85,36.799999C0.75,35.700001,0.0499992,34.200001,0.0499992,32.549999C0.0499992,30.85,0.75,29.4,1.85,28.25C2.95,27.15,4.4499998,26.5,6.1999998,26.450001C6.1999998,26.450001,18.15,26.450001,18.15,26.450001C18.15,26.450001,11.05,19.450001,11.05,19.450001C11.05,19.450001,9.6999998,18.1,9.6999998,18.1C7.0999999,15.55,8.6000004,17,2.7,11.15C1.5,9.9499998,0.89999998,8.4499998,0.89999998,6.9000001C0.89999998,5.3499999,1.5,3.8,2.7,2.6500001C3.9000001,1.45,5.4499998,0.89999998,7.0500002,0.89999998C8.6499996,0.89999998,10.15,1.5,11.4,2.6500001C19.299999,10.45,19.799999,10.95,19.799999,10.95C19.799999,10.95,26.9,18,26.9,18C26.9,18,26.75,8,26.75,8C26.75,8,26.75,7.9000001,26.75,7.9000001C26.75,7.9000001,26.75,6.0500002,26.75,6.0500002C26.75,4.3499999,27.450001,2.9000001,28.549999,1.8C29.65,0.69999897,31.200001,0.050000001,32.900002,0C34.599998,0,36.099998,0.64999998,37.200001,1.75C38.299999,2.8499999,39,4.3499999,39,6C39,6,39,24.75,39,24.75C39,24.75,39,24.75,39,24.75C39,24.75,39,24.75,39,24.75ZM41,24.75C41,24.75,41,6.0500002,41,6.0500002C41,4.3499999,41.700001,2.9000001,42.799999,1.8C43.900002,0.69999897,45.400002,0.0499992,47.099998,0.0499992C48.799999,0.0499992,50.299999,0.69999999,51.450001,1.85C52.549999,2.95,53.25,4.4499998,53.25,6.0999999C53.25,6.0999999,53.25,8,53.25,8C53.25,8,53.200001,17.950001,53.200001,17.950001C53.200001,17.950001,60.299999,10.9,60.299999,10.9C60.299999,10.9,60.799999,10.4,68.699997,2.5999999C69.900002,1.4,71.449997,0.85000002,73.050003,0.85000002C74.650002,0.85000002,76.150002,1.45,77.400002,2.5999999C78.599998,3.8,79.199997,5.3000002,79.199997,6.8499999C79.199997,8.3999996,78.599998,9.9499998,77.400002,11.1C71.5,16.950001,73,15.45,70.400002,18.049999C70.400002,18.049999,69.050003,19.4,69.050003,19.4C69.050003,19.4,62,26.35,62,26.35C62,26.35,73.949997,26.35,73.949997,26.35C75.650002,26.35,77.150002,27,78.300003,28.15C79.400002,29.25,80.099998,30.75,80.099998,32.450001C80.099998,34.150002,79.400002,35.599998,78.300003,36.700001C77.199997,37.799999,75.699997,38.450001,74,38.450001C74,38.450001,56.299999,38.450001,56.299999,38.450001C55.650002,38.450001,54.400002,38.25,54,37.049999C52.5,32,48.349998,28.1,43.099998,26.9C41.75,26.65,41,25.85,41,24.75C41,24.75,41,24.75,41,24.75C41,24.75,41,24.75,41,24.75ZM39,54.75C39,54.75,39,73.449997,39,73.449997C39,75.150002,38.299999,76.599998,37.200001,77.699997C36.099998,78.800003,34.599998,79.449997,32.900002,79.449997C31.200001,79.449997,29.700001,78.800003,28.549999,77.699997C27.450001,76.599998,26.75,75.099998,26.75,73.449997C26.75,73.449997,26.75,71.5,26.75,71.5C26.75,71.5,26.799999,61.549999,26.799999,61.549999C26.799999,61.549999,19.700001,68.599998,19.700001,68.599998C19.700001,68.599998,19.200001,69.099998,11.3,76.900002C10.1,78.099998,8.5500002,78.650002,6.9499998,78.650002C5.3499999,78.650002,3.8499999,78.050003,2.5999999,76.900002C1.4,75.699997,0.799999,74.199997,0.799999,72.650002C0.799999,71.099998,1.4,69.550003,2.5999999,68.400002C8.5,62.549999,7,64.050003,9.6000004,61.450001C9.6000004,61.450001,10.95,60.099998,10.95,60.099998C10.95,60.099998,18,53.150002,18,53.150002C18,53.150002,8.1499996,53.150002,8.1499996,53.150002C8.1499996,53.150002,6.1500001,53.150002,6.1500001,53.150002C4.4499998,53.150002,2.95,52.5,1.8,51.349998C0.69999897,50.25,0,48.75,0,47.049999C0,45.349998,0.69999897,43.900002,1.8,42.799999C2.9000001,41.700001,4.4000001,41.049999,6.0999999,41.049999C6.0999999,41.049999,23.799999,41.049999,23.799999,41.049999C24.450001,41.049999,25.700001,41.25,26.049999,42.450001C27.549999,47.5,31.700001,51.400002,36.950001,52.599998C38.25,52.849998,39,53.650002,39,54.75C39,54.75,39,54.75,39,54.75C39,54.75,39,54.75,39,54.75ZM41,55.25C41,54.150002,41.700001,53.349998,43,53C48.200001,51.849998,52.299999,47.950001,53.799999,42.849998C54.200001,41.650002,55.400002,41.450001,56.049999,41.450001C56.049999,41.450001,73.5,41.450001,73.5,41.450001C75.199997,41.450001,76.650002,42.150002,77.75,43.200001C78.849998,44.299999,79.5,45.799999,79.550003,47.450001C79.550003,49.150002,78.900002,50.599998,77.75,51.75C76.650002,52.849998,75.150002,53.5,73.5,53.549999C73.5,53.549999,61.700001,53.549999,61.700001,53.549999C61.700001,53.549999,68.650002,60.5,68.650002,60.5C68.650002,60.5,70,61.849998,70,61.849998C70,61.849998,76.949997,68.800003,76.949997,68.800003C78.150002,70,78.699997,71.5,78.699997,73.050003C78.699997,74.599998,78.099998,76.150002,76.949997,77.300003C75.75,78.5,74.25,79.050003,72.699997,79.050003C71.150002,79.050003,69.599998,78.449997,68.400002,77.300003C68.400002,77.300003,60.099998,69,60.099998,69C60.099998,69,53,62.049999,53,62.049999C53,62.049999,53.049999,72,53.049999,72C53.049999,72,53.049999,73.949997,53.049999,73.949997C53.049999,75.650002,52.400002,77.099998,51.299999,78.199997C50.200001,79.300003,48.700001,79.949997,47,79.949997C45.299999,79.949997,43.849998,79.300003,42.75,78.199997C41.650002,77.099998,41,75.599998,41,73.949997C41,73.949997,41,55.25,41,55.25C41,55.25,41,55.25,41,55.25Z" fill="#04358E" fill-opacity="1"/></svg>