<svg xmlns="http://www.w3.org/2000/svg" xmlns:xlink="http://www.w3.org/1999/xlink" fill="none" version="1.1" width="73" height="73" viewBox="0 0 73 73"><path d="M0,73C0,73,0,0,0,0C0,0,73,0,73,0C73,0,73,73,73,73C73,73,0,73,0,73C0,73,0,73,0,73ZM44.099998,25.6C44.099998,25.6,46.150002,6.0999999,46.150002,6.0999999C46.150002,6.0999999,27.049999,6.0999999,27.049999,6.0999999C27.049999,6.0999999,29.1,25.6,29.1,25.6C29.1,25.6,19.25,25.6,19.25,25.6C19.25,25.6,21.5,66.599998,21.5,66.599998C21.5,66.599998,27.950001,61.799999,36.700001,62.150002C45.450001,62.5,51.799999,66.599998,51.799999,66.599998C51.799999,66.599998,54.049999,25.6,54.049999,25.6C54.049999,25.6,44.099998,25.6,44.099998,25.6C44.099998,25.6,44.099998,25.6,44.099998,25.6C44.099998,25.6,44.099998,25.6,44.099998,25.6Z" fill="#0089AC" fill-opacity="1"/><path d="M39,57C39,57,39,9.9000001,39,9.9000001C39,9.9000001,26.9000001,6,26.9000001,6C26.9000001,6,28.9499998,25.5,28.9499998,25.5C28.9499998,25.5,19,25.5,19,25.5C19,25.5,21.25,66.5,21.25,66.5C21.25,66.5,39,57,39,57C39,57,39,57,39,57Z" fill="#EC660A" fill-opacity="1"/></svg>