<svg xmlns="http://www.w3.org/2000/svg" xmlns:xlink="http://www.w3.org/1999/xlink" fill="none" version="1.1" width="90.06954956054688" height="71.99275207519531" viewBox="0 0 90.06954956054688 71.99275207519531"><path d="M32,65.476501C39.75,70.726501,49,72.776497,57.799999,71.726501C66.5,70.676498,74.849998,66.626503,81,59.5765C82.75,57.5765,84.300003,55.476501,85.650002,53.026501C87,50.5765,88.099998,47.776501,88.900002,44.476501C89.599998,41.726501,89.949997,38.926498,90.050003,36.176498C90.300003,28.1765,88.150002,20.4265,83.75,14.1765C79.400002,7.9265103,72.849998,3.1765101,64.400002,1.1265101C61.950001,0.52651209,59.349998,0.12651111,56.549999,0.026511515C49.150002,-0.27348888,41.650002,1.9765102,35.549999,6.57651C30,10.7765,25.65,16.9765,23.700001,24.9265C23.700001,24.9265,23.6,25.3265,23.6,25.3265C23.6,25.3265,23.15,25.2265,23.15,25.2265C22.15,24.9265,21.15,24.776501,20.1,24.6765C19,24.5765,17.950001,24.5765,16.85,24.626499C15.05,24.776501,13.6,24.9265,12.2,25.276501C11.3,25.4765,10.45,25.7265,9.5,26.0765C10.7,26.2265,11.9,26.4765,13.05,26.876499C14.7,27.4265,16.35,28.2265,18.049999,29.3265C19.450001,30.2265,20.65,31.376499,21.65,32.5765C22.65,33.776501,23.5,35.0765,24.200001,36.376499C25,37.8265,25.9,39.376499,26.9,40.926498C27.85,42.476501,28.9,44.026501,30,45.476501C34,50.776501,39.049999,53.8265,44.200001,54.8265C49.650002,55.876499,55.150002,54.5765,59.549999,51.176498C61.849998,49.426498,63.25,47.176498,64.099998,44.8265C64.949997,42.426498,65.25,39.876499,65.25,37.376499C65.25,33.976501,65.199997,31.9265,65.150002,29.876499C65.099998,27.876499,65.099998,25.9265,65.050003,22.776501C65.050003,22.776501,47.349998,22.776501,47.349998,22.776501C47.349998,22.776501,47.549999,39.426498,47.549999,39.426498C47.549999,39.426498,62.049999,39.426498,62.049999,39.426498C62.049999,39.426498,61.650002,40.026501,61.650002,40.026501C60.349998,42.126499,58.599998,43.676498,56.400002,44.676498C54.200001,45.676498,51.549999,46.126499,48.450001,46.0765C46.349998,46.026501,44.349998,45.476501,42.599998,44.476501C40.700001,43.426498,39,41.976501,37.700001,40.226501C36.5,38.626499,35.549999,36.776501,34.950001,34.976501C34.299999,33.026501,34.049999,31.0765,34.150002,29.4765C34.599998,23.9765,37.150002,19.3265,41,15.976501C44.950001,12.5265,50.25,10.5265,55.950001,10.5765C60.099998,10.5765,64.050003,11.6765,67.599998,13.726501C71,15.726501,73.949997,18.6765,76.150002,22.4765C77.150002,24.2265,77.900002,26.126499,78.300003,28.2265C78.75,30.3265,78.900002,32.676498,78.800003,35.276501C78.650002,39.226501,77.599998,43.376499,75.699997,47.226501C73.949997,50.776501,71.5,54.0765,68.349998,56.626499C63.900002,60.226501,58.700001,62.626499,52.950001,63.126499C47.799999,63.5765,42.25,62.476501,36.5,59.376499C35.049999,58.5765,33.650002,57.626499,32.400002,56.5765C30.9,55.376499,29.549999,53.976501,28.35,52.676498C27.35,51.5765,26.450001,50.476501,25.6,49.3265C24.75,48.176498,23.950001,46.976501,23.15,45.676498C22.25,44.226501,21.200001,42.3265,20.15,40.526501C19.4,39.176498,18.65,37.876499,17.9,36.626499C15.4,33.0765,12.75,30.9765,9.6499996,30.026501C6.9000001,29.1765,3.75,29.1765,0,29.876499C0,29.876499,0.050000198,29.876499,0.050000198,29.876499C1.05,30.1765,2.4000001,30.626499,3.5999999,31.0765C9.3999996,33.226501,12.3,38.926498,14.8,43.876499C15.4,45.0765,16,46.276501,16.65,47.376499C17.6,49.026501,18.6,50.676498,19.65,52.3265C20.700001,53.926498,21.799999,55.526501,22.950001,57.026501C24.200001,58.626499,25.549999,60.126499,27,61.526501C28.549999,62.876499,30.15,64.226501,32,65.476501Z" fill="#D70E19" fill-opacity="1"/></svg>