<svg xmlns="http://www.w3.org/2000/svg" xmlns:xlink="http://www.w3.org/1999/xlink" fill="none" version="1.1" width="80" height="80" viewBox="0 0 80 80"><path d="M41,80C41,80,23.5,80,23.5,80C23.5,80,32.25,65,32.25,65C32.25,65,41,80,41,80C41,80,41,80,41,80ZM76,80C76,80,58.5,80,58.5,80C58.5,80,67.25,65,67.25,65C67.25,65,76,80,76,80C76,80,76,80,76,80ZM0,0C0,0,80,0,80,0C80,0,80,44.950001,80,44.950001C80,44.950001,70.400002,28.299999,70.400002,28.299999C69.800003,27.200001,68.650002,26.6,67.5,26.6C66.349998,26.6,65.25,27.200001,64.599998,28.299999C64.599998,28.299999,52.099998,49.950001,52.099998,49.950001C51.200001,51.549999,51.75,53.599998,53.299999,54.5C54.900002,55.400002,56.950001,54.900002,57.849998,53.25C57.849998,53.25,67.449997,36.599998,67.449997,36.599998C67.449997,36.599998,77.050003,53.25,77.050003,53.25C77.650002,54.299999,78.800003,54.950001,79.949997,54.950001C79.949997,54.950001,79.949997,73.300003,79.949997,73.300003C79.949997,73.300003,70.349998,56.650002,70.349998,56.650002C69.75,55.549999,68.599998,55,67.449997,55C66.300003,55,65.199997,55.599998,64.550003,56.650002C64.550003,56.650002,52.049999,78.300003,52.049999,78.300003C51.75,78.849998,51.599998,79.400002,51.599998,79.949997C51.599998,79.949997,48.25,79.949997,48.25,79.949997C48.25,79.400002,48.099998,78.800003,47.799999,78.300003C47.799999,78.300003,35.299999,56.650002,35.299999,56.650002C34.700001,55.549999,33.549999,55,32.400002,55C31.25,55,30.15,55.599998,29.5,56.650002C29.5,56.650002,17,78.300003,17,78.300003C16.700001,78.849998,16.549999,79.400002,16.549999,79.949997C16.549999,79.949997,0,79.949997,0,79.949997C0,79.949997,0,0,0,0C0,0,0,0,0,0ZM32.25,36.599998C32.25,36.599998,41.799999,53.349998,41.799999,53.349998C42.700001,54.950001,44.75,55.5,46.349998,54.599998C47.950001,53.650002,48.5,51.599998,47.549999,50C47.549999,50,35.099998,28.200001,35.099998,28.200001C34.5,27.1,33.349998,26.5,32.200001,26.5C31.049999,26.5,29.950001,27.1,29.35,28.200001C29.35,28.200001,16.9,50,16.9,50C16,51.599998,16.5,53.650002,18.1,54.599998C19.700001,55.549999,21.700001,55,22.65,53.349998C22.65,53.349998,32.25,36.599998,32.25,36.599998C32.25,36.599998,32.25,36.599998,32.25,36.599998C32.25,36.599998,32.25,36.599998,32.25,36.599998Z" fill="#F4A21C" fill-opacity="1"/></svg>