<svg xmlns="http://www.w3.org/2000/svg" xmlns:xlink="http://www.w3.org/1999/xlink" fill="none" version="1.1" width="86" height="81.00019073486328" viewBox="0 0 86 81.00019073486328"><path d="M57.670502,0.032049716C57.839001,0.20104992,58.851002,3.40905,60.031502,4.0845499C61.211498,4.5910501,65.933502,3.2400498,68.125504,6.2795501C69.137497,8.3055496,67.619499,9.1495495,68.968498,10.3321C77.568497,15.397099,79.086502,9.1500502,82.458504,14.8905C83.976501,19.7875,76.556999,18.774599,74.702003,24.177601C74.195999,23.1646,72.172501,22.1511,71.498001,21.6446C65.427498,17.93,58.345001,16.4105,50.925499,18.4366C36.760502,22.32,28.3295,36.503601,32.039001,50.6866C35.9175,64.870003,50.250999,73.1436,64.415497,69.260101C68.6315,68.078102,73.690498,65.376602,76.725502,62.675098C79.254997,60.8176,81.446999,57.610001,83.639,56.5965C83.639,56.5965,83.439003,56.851601,83.439003,56.851601C83.015999,57.406601,82.045502,58.7575,81.783997,59.804501C81.783997,59.804501,81.8255,59.8106,81.8255,59.8106C81.990501,59.8256,82.651497,59.804501,83.807999,58.7915C85.156998,57.440498,86,55.0765,86,55.0765C85.831497,55.9216,86.505997,58.1166,83.976501,61.155602C83.976501,61.155602,83.692497,61.528999,83.692497,61.528999C82.275497,63.365501,80.9515,64.700996,81.110001,64.700996C81.615501,64.532501,82.459,63.857101,83.639,63.181599C84.651001,62.506599,86,59.804501,86,59.804501C86,60.9865,84.313499,65.7146,82.290001,68.247101C82.290001,68.247101,82.032501,68.5951,82.032501,68.5951C78.8825,72.788101,75.207497,75.507599,75.207497,75.507599C75.207497,75.507599,74.751999,75.846497,74.751999,75.846497C72.870499,77.228996,70.870003,78.466599,67.281998,79.560097C45.529499,85.470001,23.438999,72.637001,17.705999,51.193501C16.357,46.127998,16.357,40.3871,16.694,34.983601C16.694,34.983601,16.4935,35.099499,16.4935,35.099499C15.6415,35.574001,12.1845,37.3475,8.0939999,37.3475C3.204,37.3475,0,33.4641,0,28.905001C0,24.684,4.8899999,19.112,4.8899999,19.281C4.8899999,19.281,4.8850002,19.5061,4.8850002,19.5061C4.8779998,20.4555,5.085,24.028601,9.1059999,24.177601C18.212,23.333099,22.596001,16.2416,29.678499,10.3321C29.678499,10.3321,30.690001,9.4875498,30.690001,9.4875498C34.816002,6.01755,39.75,3.1935499,45.965,1.4925499C45.965,1.4925499,46.372501,1.3825499,46.372501,1.3825499C50.0825,0.36954993,53.960999,-0.13695009,57.670502,0.032049716C57.670502,0.032049716,57.670502,0.032049716,57.670502,0.032049716C57.670502,0.032049716,57.670502,0.032049716,57.670502,0.032049716ZM69.475502,34C71.655502,34,73.5,35.863602,73.5,38.066101C73.5,38.066101,73.5,50.433998,73.5,50.433998C73.5,52.636501,71.655502,54.5,69.475502,54.5C69.475502,54.5,50.025002,54.5,50.025002,54.5C47.845001,54.5,46.0005,52.636501,46.0005,50.433998C46.0005,50.433998,46.0005,38.066101,46.0005,38.066101C46.0005,35.863602,47.845001,34,50.025002,34C50.025002,34,69.475998,34,69.475998,34C69.475998,34,69.475502,34,69.475502,34C69.475502,34,69.475502,34,69.475502,34Z" fill="#D80C18" fill-opacity="1"/></svg>